<?xml version="1.0" standalone="no"?>
<!DOCTYPE svg PUBLIC "-//W3C//DTD SVG 1.1//EN" "http://www.w3.org/Graphics/SVG/1.1/DTD/svg11.dtd" >
<svg xmlns="http://www.w3.org/2000/svg">
<metadata></metadata>
<defs>
<font id="corporate_a_condensedBdIt" horiz-adv-x="897" >
<font-face units-per-em="2048" ascent="1638" descent="-410" />
<missing-glyph horiz-adv-x="409" />
<glyph unicode="&#xfb01;" horiz-adv-x="1071" d="M-190 -397l16 75q44 9 73 25.5t54.5 46t47.5 89t43.5 138t51.5 209.5l158 703h-115l19 76q78 0 104 24.5t57 128.5q30 90 49.5 131t49.5 74q35 40 91.5 63t117.5 23q91 0 144.5 -44t53.5 -118q0 -54 -26.5 -88.5t-69.5 -34.5q-37 0 -59.5 21t-22.5 53q0 27 12 51 q15 44 15 49q0 23 -12 38.5t-31 15.5q-29 0 -44.5 -28.5t-35.5 -121.5l-53 -237h172l-17 -76h-172l-125 -572q-57 -243 -83.5 -322.5t-82.5 -170.5q-67 -104 -169 -163.5t-211 -57.5zM635 150q0 66 41 212l110 410q13 47 13 72q0 23 -19 30t-78 7l17 53q168 15 358 72 l-203 -750q-24 -93 -24 -123q0 -43 24 -43q23 0 40.5 27t48.5 110l53 -18q-59 -232 -221 -232q-70 0 -115 49t-45 124zM899 1255q0 60 41 104t98 44q49 0 83 -37t34 -90q0 -61 -40.5 -105.5t-96.5 -44.5q-51 0 -85 37t-34 92z" />
<glyph unicode="&#xfb02;" horiz-adv-x="1071" d="M-190 -397l16 75q44 9 73 25.5t54.5 46t47.5 89t43.5 138t51.5 209.5l158 703h-115l19 76q78 0 104 24.5t57 128.5q30 90 49.5 131t49.5 74q34 40 90.5 63t118.5 23q123 0 176 -78q175 16 362 72l-266 -1065q-39 -155 -39 -197q0 -23 9 -37t24 -14q28 0 48 28.5t46 106.5 l43 -14q-29 -124 -81.5 -179t-141.5 -55q-73 0 -118.5 48t-45.5 125q0 75 35 212l201 805q12 47 12 70q0 35 -70 41q4 -12 4 -31q0 -54 -26.5 -88.5t-69.5 -34.5q-37 0 -59.5 21t-22.5 53q0 27 12 51q15 44 15 49q0 23 -12 38.5t-31 15.5q-29 0 -44.5 -28.5t-35.5 -121.5 l-53 -237h172l-17 -76h-172l-125 -570q-57 -245 -84 -324.5t-82 -168.5q-67 -105 -169 -165t-211 -58z" />
<glyph unicode="&#xfb03;" horiz-adv-x="1601" d="M-190 -397l16 75q44 9 73 25.5t54.5 46t47.5 89t43.5 138t51.5 209.5l158 703h-115l19 76q78 0 104 24.5t57 128.5q30 90 49.5 131t49.5 74q35 40 91.5 63t117.5 23q91 0 144.5 -44t53.5 -118q0 -54 -26.5 -88.5t-69.5 -34.5q-37 0 -59.5 21t-22.5 53q0 27 12 51 q15 44 15 49q0 23 -12 38.5t-31 15.5q-29 0 -44.5 -28.5t-35.5 -121.5l-53 -237h172l-17 -76h-172l-125 -572q-57 -243 -83.5 -322.5t-82.5 -170.5q-67 -104 -169 -163.5t-211 -57.5zM360 -397l17 75q44 9 73 25.5t54.5 46t47.5 89t43.5 138t51.5 209.5l158 703h-115l17 76 q80 0 106 24.5t57 128.5q28 87 48 129t51 76q35 40 91.5 63t117.5 23q91 0 144.5 -44t53.5 -118q0 -54 -26.5 -88.5t-69.5 -34.5q-37 0 -59.5 21t-22.5 53q0 27 12 51q15 44 15 49q0 23 -12 38.5t-31 15.5q-29 0 -44.5 -28.5t-35.5 -121.5l-53 -237h172l-17 -76h-172 l-125 -572q-57 -243 -83.5 -322.5t-82.5 -170.5q-69 -104 -170.5 -163t-210.5 -58zM1163 150q0 62 41 212l111 410q12 46 12 72q0 23 -18 30t-76 7l14 53q174 16 359 72l-203 -750q-25 -89 -25 -123q0 -43 25 -43q24 0 41.5 27.5t46.5 109.5l55 -18q-59 -232 -221 -232 q-72 0 -117 49t-45 124zM1427 1255q0 60 42.5 104t99.5 44q49 0 83 -37t34 -90q0 -61 -41.5 -105.5t-98.5 -44.5q-51 0 -85 37t-34 92z" />
<glyph unicode="&#xfb04;" horiz-adv-x="1622" d="M-190 -397l16 75q44 9 73 25.5t54.5 46t47.5 89t43.5 138t51.5 209.5l158 703h-115l19 76q78 0 104 24.5t57 128.5q30 90 49.5 131t49.5 74q35 40 91.5 63t117.5 23q91 0 144.5 -44t53.5 -118q0 -54 -26.5 -88.5t-69.5 -34.5q-37 0 -59.5 21t-22.5 53q0 27 12 51 q15 44 15 49q0 23 -12 38.5t-31 15.5q-29 0 -44.5 -28.5t-35.5 -121.5l-53 -237h172l-17 -76h-172l-125 -572q-57 -243 -83.5 -322.5t-82.5 -170.5q-67 -104 -169 -163.5t-211 -57.5zM360 -397l17 75q44 9 73 25.5t54.5 46t47.5 89t43.5 138t51.5 209.5l158 703h-115l17 76 q80 0 106 24.5t57 128.5q28 87 48 129t51 76q34 40 90.5 63t118.5 23q124 0 174 -78q63 3 166 23.5t196 48.5l-264 -1065q-41 -158 -41 -197q0 -51 35 -51q28 0 47 28t45 107l45 -14q-31 -125 -83 -179.5t-142 -54.5q-73 0 -118.5 48t-45.5 125q0 67 37 212l201 805 q10 48 10 70q0 38 -68 41q4 -12 4 -31q0 -54 -26.5 -88.5t-69.5 -34.5q-37 0 -59.5 21t-22.5 53q0 27 12 51q15 44 15 49q0 23 -12 38.5t-31 15.5q-29 0 -44.5 -28.5t-35.5 -121.5l-53 -237h172l-17 -76h-172l-125 -570q-57 -245 -84 -324.5t-82 -168.5 q-69 -106 -170.5 -165.5t-210.5 -57.5z" />
<glyph horiz-adv-x="2048" />
<glyph horiz-adv-x="2048" />
<glyph unicode="&#xd;" horiz-adv-x="2048" />
<glyph unicode=" "  horiz-adv-x="409" />
<glyph unicode="&#x09;" horiz-adv-x="409" />
<glyph unicode="&#xa0;" horiz-adv-x="409" />
<glyph unicode="!" horiz-adv-x="456" d="M47 119q0 63 44 109t104 46q52 0 88 -39t36 -96q0 -64 -43 -110.5t-102 -46.5q-54 0 -90.5 39.5t-36.5 97.5zM190 416l162 946h246l-301 -946h-107z" />
<glyph unicode="&#x22;" horiz-adv-x="591" d="M223 817l101 549h184l-172 -549h-113zM479 817l101 549h182l-172 -549h-111z" />
<glyph unicode="#" horiz-adv-x="985" d="M43 416l57 151h170l99 256h-172l57 152h170l147 391h160l-147 -391h188l146 391h159l-147 -391h170l-56 -152h-170l-96 -256h168l-55 -151h-170l-158 -416h-160l158 416h-188l-156 -416h-160l158 416h-172zM430 567h188l97 256h-189z" />
<glyph unicode="$" d="M33 170l80 328h65q-14 -83 -14 -144q0 -255 172 -284l131 528q-154 123 -201 190.5t-47 165.5q0 117 57.5 217.5t156 159t214.5 58.5h19l41 170h71l-43 -179q52 -10 131 -53q39 -22 64 -22q18 0 59 28l-94 -381h-66q13 58 13 113q0 97 -33 159t-94 81l-117 -471l53 -41 q111 -88 152 -156.5t41 -169.5q0 -128 -63.5 -241.5t-169.5 -181t-226 -67.5l-43 -170h-72l45 177q-150 26 -282 186zM408 70q92 17 157.5 104.5t65.5 194.5q0 54 -21.5 91.5t-81.5 88.5zM432 1069q0 -52 23 -91.5t84 -94.5l106 428q-91 -10 -152 -80t-61 -162z" />
<glyph unicode="%" horiz-adv-x="1165" d="M190 932q0 112 48 215.5t127.5 166t166.5 62.5q80 0 124 -54.5t44 -154.5q0 -133 -69 -258q-50 -91 -118 -139.5t-146 -48.5q-83 0 -130 55.5t-47 155.5zM258 0l686 1331h105l-687 -1331h-104zM338 858q0 -78 45 -78q33 0 62 49t59 158q49 161 49 248q0 80 -43 80 q-54 0 -109 -160q-28 -78 -45.5 -161t-17.5 -136zM621 201q0 112 48 215.5t127.5 166t166.5 62.5q80 0 123.5 -54.5t43.5 -154.5q0 -133 -69 -258q-50 -91 -118 -139.5t-146 -48.5q-83 0 -129.5 55.5t-46.5 155.5zM768 127q0 -78 45 -78q32 0 60.5 48.5t60.5 158.5 q49 161 49 248q0 80 -43 80q-54 0 -109 -160q-28 -78 -45.5 -161t-17.5 -136z" />
<glyph unicode="&#x26;" horiz-adv-x="976" d="M35 274q0 141 76 271q34 59 80 108t139 127q-43 158 -43 234q0 135 100 232t240 97q100 0 159.5 -58.5t59.5 -156.5q0 -109 -63 -206t-208 -209l130 -389q47 58 80.5 122.5t33.5 96.5q0 21 -16 30t-55 11l18 75q81 -8 125 -8q41 0 129 8l-19 -75q-57 -4 -75 -20t-47 -87 q-63 -146 -146 -244l27 -81q22 -59 46.5 -79.5t76.5 -21.5l-17 -57q-92 6 -135 6q-36 0 -141 -6l-25 78q-132 -95 -252 -95q-123 0 -200.5 82.5t-77.5 214.5zM233 236q0 -77 31.5 -117.5t91.5 -40.5q82 0 183 74l-144 426q-84 -84 -123 -166.5t-39 -175.5zM481 1044 q0 -50 33 -145q193 151 193 277q0 42 -19 67t-51 25q-62 0 -109 -67.5t-47 -156.5z" />
<glyph unicode="'" horiz-adv-x="335" d="M223 817l101 549h184l-172 -549h-113z" />
<glyph unicode="(" horiz-adv-x="546" d="M88 158q0 230 76 468.5t211.5 442t306.5 330.5h80q-273 -302 -420 -813q-94 -324 -94 -604q0 -234 63 -414h-65q-74 104 -116 261.5t-42 328.5z" />
<glyph unicode=")" horiz-adv-x="546" d="M-170 -432q276 304 428 813q98 325 98 618q0 223 -61 400h65q72 -101 113 -256.5t41 -325.5q0 -349 -169.5 -699.5t-434.5 -549.5h-80z" />
<glyph unicode="*" horiz-adv-x="819" d="M307 885l191 125l-183 102l88 137l144 -151l47 241l156 -47l-123 -219l196 43v-162l-196 15l118 -203l-147 -66l-49 230l-141 -172z" />
<glyph unicode="+" d="M139 604l41 170h287l92 367h164l-94 -367h286l-41 -170h-286l-90 -366h-164l92 366h-287z" />
<glyph unicode="," horiz-adv-x="423" d="M-53 -379q139 164 192 381q-6 -2 -14 -2q-42 0 -69 32t-27 83q0 66 43.5 112.5t105.5 46.5q54 0 88.5 -37t34.5 -94q0 -109 -76.5 -262t-183.5 -260h-94z" />
<glyph unicode="-" horiz-adv-x="360" d="M6 397l51 205h361l-51 -205h-361z" />
<glyph unicode="." horiz-adv-x="423" d="M29 119q0 63 43.5 109t103.5 46q53 0 89 -39t36 -96q0 -64 -43 -110.5t-102 -46.5q-54 0 -90.5 39.5t-36.5 97.5z" />
<glyph unicode="/" horiz-adv-x="980" d="M-115 -397l1110 1763h158l-1110 -1763h-158z" />
<glyph unicode="0" d="M117 346q0 198 63.5 428t157.5 373q138 207 332 207q122 0 187 -95.5t65 -273.5q0 -188 -53.5 -395.5t-141.5 -358.5q-75 -130 -161.5 -192t-192.5 -62q-124 0 -190 95t-66 274zM313 186q0 -143 78 -143q51 0 95 77.5t102 270.5q59 198 98 411.5t39 334.5q0 73 -20.5 112 t-57.5 39q-52 0 -96.5 -79t-101.5 -273q-59 -202 -97.5 -414.5t-38.5 -335.5z" />
<glyph unicode="1" d="M94 -6l19 76q57 2 87.5 8t55 27t37.5 53.5t29 95.5l210 854l-167 -14l18 71q107 5 215 67.5t168 156.5h70l-293 -1176q-15 -56 -15 -80q0 -34 29 -48t105 -15l-19 -76q-158 14 -270 14q-115 0 -279 -14z" />
<glyph unicode="2" d="M20 0l48 184q246 255 456 506q91 109 132.5 194t41.5 163q0 61 -29 97t-79 36q-75 0 -132.5 -56t-107.5 -176h-90q74 211 178 308.5t256 97.5q114 0 180 -66t66 -180q0 -174 -152 -360q-71 -85 -151 -163.5t-346 -326.5l-37 -33h489l-86 -225h-637z" />
<glyph unicode="3" d="M94 358v21h84q17 -110 67.5 -169.5t127.5 -59.5q100 0 166 112q57 99 57 209q0 96 -49.5 137t-165.5 41l20 86q78 0 123 15.5t82 52.5q40 45 64 107t24 124q0 68 -31.5 111t-80.5 43q-62 0 -110 -50t-97 -165h-86q32 101 61.5 160.5t69.5 105.5q105 117 242 117 q114 0 185 -80t71 -209q0 -134 -75.5 -225t-221.5 -131q104 -34 150 -95t46 -167q0 -195 -119.5 -333.5t-289.5 -138.5q-145 0 -229.5 103t-84.5 278z" />
<glyph unicode="4" d="M-2 299l4 20l698 1012h236l-199 -837h158l-49 -195h-152l-84 -334h-225l82 334h-469zM231 494h289l178 706z" />
<glyph unicode="5" d="M96 340v31h86q12 -104 59 -161.5t119 -57.5q97 0 167.5 116.5t70.5 278.5q0 92 -36 149.5t-93 57.5q-58 0 -106.5 -35.5t-100.5 -112.5l-80 15l267 710h536l-84 -211h-440l-129 -329q69 61 124 85.5t126 24.5q123 0 189.5 -86t66.5 -246q0 -164 -58 -300t-159.5 -214 t-223.5 -78q-137 0 -219 99t-82 264z" />
<glyph unicode="6" d="M92 317q0 348 324 699q90 97 210 201.5t193 148.5h103q-96 -79 -206.5 -212t-187.5 -261q55 27 107 27q100 0 158.5 -78t58.5 -211q0 -174 -65 -325t-175 -240t-237 -89q-129 0 -206 92.5t-77 247.5zM295 178q0 -61 21.5 -97t56.5 -36q85 0 162 199q44 110 73 239.5 t29 216.5q0 125 -72 125q-46 0 -91 -58.5t-85 -168.5t-67 -231.5t-27 -188.5z" />
<glyph unicode="7" d="M90 0l717 1120h-524l63 211h705l-770 -1331h-191z" />
<glyph unicode="8" d="M94 256q0 109 46 208.5t126 162.5q57 46 137 73q-61 32 -88.5 81t-27.5 126q0 117 55.5 221t148.5 166t197 62q117 0 182.5 -64.5t65.5 -179.5q0 -140 -71 -252.5t-189 -159.5q71 -31 104 -86t33 -143q0 -99 -35.5 -190.5t-95 -158t-141.5 -106t-172 -39.5 q-126 0 -200.5 75t-74.5 204zM305 170q0 -127 70 -127q82 0 149 176q30 74 51 166.5t21 149.5q0 59 -18.5 91.5t-51.5 32.5q-41 0 -83 -50.5t-74 -139.5q-28 -75 -46 -160t-18 -139zM487 827q0 -46 14.5 -73t39.5 -27q67 0 127 162q63 177 63 307q0 94 -53 94 q-61 0 -121 -147q-28 -73 -49 -167t-21 -149z" />
<glyph unicode="9" d="M121 -33q218 185 393 473q-55 -28 -108 -28q-100 0 -159 78t-59 212q0 129 42 257t116 223q136 174 322 174q129 0 205.5 -92.5t76.5 -247.5q0 -343 -315 -688q-89 -99 -214.5 -208.5t-199.5 -152.5h-100zM403 631q0 -125 72 -125q98 0 178 229q40 111 67.5 232t27.5 188 q0 61 -21.5 97t-58.5 36q-43 0 -82 -48.5t-80 -152.5q-45 -111 -74 -240t-29 -216z" />
<glyph unicode=":" horiz-adv-x="423" d="M29 119q0 63 43.5 109t103.5 46q53 0 89 -39t36 -96q0 -64 -43 -110.5t-102 -46.5q-54 0 -90.5 39.5t-36.5 97.5zM188 758q0 63 44 109t104 46q52 0 88.5 -38.5t36.5 -94.5q0 -64 -43.5 -110.5t-102.5 -46.5q-54 0 -90.5 39t-36.5 96z" />
<glyph unicode=";" horiz-adv-x="423" d="M-53 -379q139 164 192 381q-6 -2 -14 -2q-42 0 -69 32t-27 83q0 66 43.5 112.5t105.5 46.5q54 0 88.5 -37t34.5 -94q0 -109 -76.5 -262t-183.5 -260h-94zM188 758q0 63 44 109t104 46q52 0 88.5 -38.5t36.5 -94.5q0 -64 -43.5 -110.5t-102.5 -46.5q-54 0 -90.5 39 t-36.5 96z" />
<glyph unicode="&#x3c;" horiz-adv-x="860" d="M152 702l4 17l796 487l-30 -114l-535 -328l367 -352l-58 -230z" />
<glyph unicode="=" d="M104 463l39 158h736l-39 -158h-736zM176 758l39 157h735l-39 -157h-735z" />
<glyph unicode="&#x3e;" horiz-adv-x="860" d="M72 182l30 115l535 328l-367 352l58 229l544 -520l-4 -16z" />
<glyph unicode="?" horiz-adv-x="681" d="M98 119q0 63 44 109t104 46q53 0 89 -39t36 -96q0 -64 -43.5 -110.5t-102.5 -46.5q-54 0 -90.5 39.5t-36.5 97.5zM231 1022q46 172 143.5 267t227.5 95q103 0 163 -68.5t60 -185.5q0 -156 -98 -262q-30 -33 -58 -55t-159 -115q-68 -50 -99.5 -84t-49 -78.5t-31.5 -127.5 h-78q19 130 37.5 191t53.5 112.5t122 142.5q80 84 104.5 129t24.5 109q0 58 -24.5 92.5t-65.5 34.5q-57 0 -107 -52t-82 -145h-84z" />
<glyph unicode="@" horiz-adv-x="1234" d="M123 569q0 163 57 317t151 267t222.5 181.5t265.5 68.5q206 0 340.5 -140t134.5 -354q0 -132 -46 -252.5t-132 -210.5q-68 -74 -149 -118.5t-146 -44.5q-44 0 -78 28t-43 74q-71 -102 -161 -102q-75 0 -120.5 54.5t-45.5 143.5q0 68 27.5 154t74.5 164q65 109 143.5 167 t161.5 58q79 0 94 -74l23 60q76 0 174 14l-176 -492q-26 -73 -31.5 -94t-5.5 -47q0 -14 9 -23.5t22 -9.5q35 0 81.5 35t86.5 92q55 78 91 195.5t36 220.5q0 164 -109 278.5t-266 114.5q-114 0 -219 -57.5t-181.5 -153t-122.5 -227.5t-46 -274q0 -229 121 -369.5t317 -140.5 q240 0 426 278h98q-51 -89 -91 -138.5t-103 -102.5q-169 -144 -355 -144q-233 0 -381.5 169t-148.5 435zM522 401q0 -63 45 -63q64 0 146 182q48 108 82 221t34 164q0 31 -12.5 48.5t-32.5 17.5q-32 0 -63.5 -39.5t-77.5 -136.5q-49 -104 -85 -221t-36 -173z" />
<glyph unicode="A" horiz-adv-x="1083" d="M-74 -6l21 74q68 5 103.5 31.5t86.5 111.5l697 1208h22l31 -1206q5 -80 32 -110.5t97 -34.5l-21 -74q-132 14 -227 14q-91 0 -274 -14l20 76h33q56 0 76.5 27.5t21.5 103.5l2 168h-332l-79 -146q-43 -73 -43 -108q0 -25 17.5 -33.5t74.5 -13.5l-21 -74q-136 8 -184 8 q-50 0 -154 -8zM360 446h287l2 500z" />
<glyph unicode="B" horiz-adv-x="976" d="M-47 0l18 78q89 3 118 27t52 116l232 926q14 54 14 84q0 31 -25 44.5t-88 14.5l19 76h426q154 0 219 -35q100 -50 100 -201q0 -138 -78 -247.5t-204 -147.5q93 -25 135.5 -80t42.5 -151q0 -88 -32 -179t-89 -163q-66 -83 -168 -122.5t-254 -39.5h-438zM356 125 q0 -41 58 -41h30q59 0 100.5 31.5t76.5 101.5q34 68 56.5 158t22.5 157q0 78 -33 110t-114 32h-64l-120 -479q-13 -53 -13 -70zM508 752h57q63 0 102.5 26t73.5 92q31 58 51.5 138.5t20.5 140.5q0 80 -30 109.5t-111 29.5h-31z" />
<glyph unicode="C" horiz-adv-x="991" d="M113 418q0 188 58.5 381t158.5 334q187 266 442 266q67 0 112.5 -15t121.5 -61q38 -23 59 -23q18 0 65 31l-88 -403h-65q2 43 2 84q0 140 -47.5 219.5t-132.5 79.5q-187 0 -324 -320q-57 -133 -92 -294.5t-35 -288.5q0 -141 51 -216t148 -75q122 0 211.5 94.5 t138.5 275.5h70q-51 -247 -179.5 -383.5t-308.5 -136.5q-172 0 -269 119.5t-97 331.5z" />
<glyph unicode="D" horiz-adv-x="1095" d="M-47 0l18 76q89 3 118 27t52 116l232 928q14 58 14 84q0 31 -25 44.5t-88 14.5l19 76h442q128 0 199 -24t117 -82q86 -112 86 -320q0 -214 -73 -415t-198 -330q-99 -100 -214.5 -147.5t-264.5 -47.5h-434zM356 119q0 -23 12 -33t38 -10q125 0 202 60t146 210 q69 149 112 340t43 348q0 143 -43 198.5t-155 55.5h-70l-270 -1091q-15 -54 -15 -78z" />
<glyph unicode="E" horiz-adv-x="933" d="M-47 0l18 76q89 3 118 27.5t52 115.5l232 928q14 55 14 84q0 32 -24 44.5t-89 14.5l19 76h758l-45 -360h-66q4 47 4 96q0 107 -36 146.5t-134 39.5h-133l-133 -534h309l-22 -92h-310l-110 -449q-17 -63 -17 -88q0 -47 80 -47h47q80 0 130.5 28.5t107.5 104.5 q58 76 100 168h66l-146 -379h-790z" />
<glyph unicode="F" horiz-adv-x="858" d="M-49 -6l18 76q89 3 118 27t52 116l234 934q14 60 14 86q0 31 -25 43t-88 14l19 76h764l-45 -360h-66q6 64 6 94q0 110 -35.5 149t-136.5 39h-139l-133 -534h315l-22 -92h-316l-112 -449q-13 -63 -13 -80q0 -35 23.5 -47.5t91.5 -15.5l-18 -76q-132 14 -248 14 q-118 0 -258 -14z" />
<glyph unicode="G" horiz-adv-x="1067" d="M102 383q0 192 66 400t172 347q197 259 448 259q67 0 114.5 -16.5t121.5 -67.5q40 -27 63 -27q18 0 72 33l-94 -383h-68q4 86 4 116q0 127 -50 203t-134 76q-97 0 -177 -80t-155 -250q-70 -161 -113.5 -350t-43.5 -334q0 -121 50.5 -193.5t135.5 -72.5q55 0 127 39 l92 369q10 39 10 61q0 27 -19 37.5t-75 15.5l19 76q118 -14 217 -14q100 0 223 14l-21 -76q-65 -6 -89.5 -29t-39.5 -90l-88 -356q-212 -113 -393 -113q-177 0 -276 107.5t-99 298.5z" />
<glyph unicode="H" horiz-adv-x="1150" d="M-49 -6l18 76q89 3 118 27t52 116l236 940q14 59 14 86q0 31 -24.5 43.5t-88.5 13.5l19 76q132 -14 235 -14q109 0 252 14l-18 -76q-80 -2 -107 -26.5t-49 -116.5l-100 -401h328l100 401q14 63 14 86q0 32 -21 43.5t-81 13.5l18 76q134 -14 242 -14t248 14l-19 -76 q-89 -1 -118 -25.5t-54 -117.5l-233 -940q-14 -60 -14 -84q0 -33 23.5 -45.5t88.5 -13.5l-18 -76q-132 14 -238 14q-112 0 -252 -14l21 76q80 3 106.5 27.5t48.5 115.5l115 461h-326l-114 -461q-15 -70 -15 -88q0 -30 21.5 -42t79.5 -13l-21 -76q-134 14 -241 14 q-109 0 -246 -14z" />
<glyph unicode="I" horiz-adv-x="591" d="M-49 -6l18 76q89 3 118 27t52 116l236 940q12 49 12 86q0 31 -23.5 43.5t-87.5 13.5l19 76q146 -14 248 -14t250 14l-19 -76q-87 -3 -114 -26.5t-52 -116.5l-235 -940q-13 -54 -13 -86q0 -31 23 -42.5t86 -14.5l-18 -76q-143 14 -246 14q-99 0 -254 -14z" />
<glyph unicode="J" horiz-adv-x="591" d="M-137 -143l22 90q31 -8 54 -8q83 0 133 81.5t106 307.5l207 825q14 60 14 86q0 31 -24.5 43t-87.5 14l18 76q143 -14 244 -14t254 14l-19 -76q-86 -1 -114.5 -26t-51.5 -117l-215 -866q-62 -240 -163.5 -339.5t-288.5 -99.5q-45 0 -88 9z" />
<glyph unicode="K" horiz-adv-x="1083" d="M-49 -6l18 76q89 3 118 27t52 116l236 940q14 55 14 86q0 29 -26.5 42t-86.5 15l19 76q143 -14 252 -14t246 14l-19 -76q-86 -1 -114.5 -26t-51.5 -117l-106 -426l430 457q39 42 39 71q0 20 -17.5 29t-64.5 12l20 76q99 -8 176 -8t181 8l-19 -76q-67 -4 -117 -38.5 t-172 -159.5l-239 -246l115 -492q14 -62 16 -77q28 -119 57 -165t78 -46q26 0 68 12l-17 -70q-80 -34 -166 -34q-102 0 -156 64t-91 228l-91 394l-61 -64l-98 -389q-15 -70 -15 -86q0 -29 19.5 -41t77.5 -16l-19 -76q-106 14 -215 14q-117 0 -270 -14z" />
<glyph unicode="L" horiz-adv-x="868" d="M-47 0l18 76q89 3 118 27t52 116l234 934q14 57 14 86q0 31 -24.5 43.5t-88.5 13.5l19 76q143 -14 248 -14q104 0 252 14l-21 -76q-87 -3 -115 -27t-51 -116l-241 -967q-11 -48 -11 -63q0 -25 17 -35t57 -10h47q72 0 121.5 29t106.5 104q54 71 100 168h61l-143 -379h-770 z" />
<glyph unicode="M" horiz-adv-x="1402" d="M-53 -6l18 74q85 13 118.5 59t76.5 205l227 819q12 47 12 84q0 32 -24 45t-88 14l20 78q91 -8 164 -8q82 0 207 8l47 -891l502 891q101 -8 194 -8q83 0 176 8l-18 -76q-86 -3 -117 -29t-53 -114l-203 -872q-24 -102 -24 -144q0 -35 23 -50.5t83 -18.5l-20 -74 q-143 14 -246 14q-104 0 -252 -14l18 74q88 3 118 28.5t52 114.5l244 981l-643 -1153h-33l-57 1153l-258 -981q-14 -52 -14 -84t22 -44t84 -15l-18 -74q-102 6 -158 6q-54 0 -180 -6z" />
<glyph unicode="N" horiz-adv-x="1097" d="M-57 -6l18 76q61 6 93.5 28.5t55.5 75t52 166.5l219 879q-25 43 -49.5 59t-65.5 18l19 76q99 -6 147 -6q35 0 170 6l272 -891l164 660q19 71 19 98q0 31 -25 43t-88 14l21 76q102 -6 168 -6q67 0 172 6l-19 -76q-85 -2 -116 -29.5t-56 -125.5l-293 -1176h-39l-348 1159 l-213 -858q-26 -104 -26 -129q0 -39 21.5 -52.5t86.5 -14.5l-18 -76q-93 8 -170 8q-76 0 -172 -8z" />
<glyph unicode="O" horiz-adv-x="1062" d="M111 401q0 204 68 418t177 355q176 225 410 225q161 0 252.5 -114.5t91.5 -315.5q0 -184 -53.5 -375.5t-145.5 -331.5q-189 -295 -452 -295q-166 0 -257 114t-91 320zM334 272q0 -239 135 -239q75 0 142.5 89.5t133.5 276.5q63 172 102.5 368.5t39.5 330.5q0 115 -34 175 t-97 60q-75 0 -140.5 -82.5t-130.5 -257.5q-64 -171 -107.5 -379t-43.5 -342z" />
<glyph unicode="P" horiz-adv-x="940" d="M-49 -6l18 76q89 3 118 27t52 116l234 934q14 60 14 84q0 32 -24 44.5t-89 14.5l19 76h450q103 0 159.5 -15.5t96.5 -54.5q32 -31 51 -84t19 -110q0 -119 -46.5 -233.5t-121.5 -180.5q-123 -108 -319 -108h-117l-92 -367q-13 -60 -13 -84q0 -32 24.5 -45t90.5 -14 l-18 -76q-143 14 -248 14q-110 0 -258 -14zM485 657h52q84 0 142 46.5t99 146.5q62 153 62 278q0 86 -35 123t-117 37h-47z" />
<glyph unicode="Q" horiz-adv-x="1060" d="M104 -317l46 182q37 51 89.5 82t110.5 35q-118 38 -179.5 143.5t-61.5 269.5q0 197 64.5 406.5t168.5 351.5q182 246 418 246q164 0 257 -112.5t93 -311.5q0 -213 -68.5 -430.5t-181.5 -364.5q-154 -201 -389 -213q32 -9 90 -41q67 -37 105 -37q92 0 172 109l-33 -131 q-109 -148 -221 -148q-39 0 -72 14t-129 72q-43 27 -88 27q-47 0 -100 -41.5t-91 -107.5zM332 272q0 -110 37 -174.5t100 -64.5q193 0 338 557q80 315 80 506q0 237 -127 237q-71 0 -136.5 -80.5t-134.5 -251.5q-65 -165 -111 -378.5t-46 -350.5z" />
<glyph unicode="R" horiz-adv-x="1075" d="M-49 -6l18 76q89 3 118 27t52 116l234 934q14 58 14 84q0 31 -25 44.5t-88 14.5l19 76h426q165 0 225 -25q58 -23 90.5 -84t32.5 -147q0 -115 -50 -216t-138 -163q-75 -52 -185 -76q65 -31 94 -78.5t39 -146.5l21 -147q9 -75 20 -121q12 -43 40.5 -66.5t66.5 -23.5 q29 0 76 18l-21 -76q-78 -34 -164 -34q-59 0 -108 23t-72 63q-19 31 -36.5 89.5t-24.5 116.5l-27 195l-2 39q-8 80 -29 108.5t-73 28.5h-13l-106 -432q-17 -62 -17 -86q0 -31 23 -42t86 -13l-18 -76q-132 14 -238 14q-112 0 -260 -14zM502 721h61q151 0 219 164 q56 131 56 254q0 86 -34.5 117.5t-131.5 31.5h-29z" />
<glyph unicode="S" horiz-adv-x="892" d="M33 170l80 328h65q-14 -83 -14 -146q0 -139 52.5 -212.5t152.5 -73.5q106 0 184 91t78 214q0 57 -27 97.5t-104 100.5q-162 128 -211 191q-70 87 -70 194q0 180 126 307.5t304 127.5q59 0 106.5 -14t108.5 -48q42 -22 64 -22q20 0 61 28l-94 -381h-66q13 58 13 111 q0 118 -46.5 184t-129.5 66q-94 0 -164 -72.5t-70 -169.5q0 -75 51 -135q26 -28 48.5 -47.5t119.5 -95.5q111 -87 152 -156.5t41 -171.5q0 -96 -37.5 -186t-100 -156t-148 -106t-175.5 -40q-99 0 -179 44t-171 149z" />
<glyph unicode="T" d="M104 -6l19 76q87 3 116 27.5t52 115.5l268 1075h-35q-91 0 -155.5 -67.5t-132.5 -231.5h-68l145 377h768l-43 -377h-69q4 37 4 82q0 115 -33.5 166t-110.5 51h-36l-269 -1075q-14 -49 -14 -86q0 -31 24 -43.5t89 -13.5l-19 -76q-134 14 -248 14q-115 0 -252 -14z" />
<glyph unicode="U" horiz-adv-x="1087" d="M168 266q0 102 37 242l160 645q14 55 14 86t-24.5 43.5t-88.5 13.5l19 76q146 -14 245 -14t254 14l-18 -76q-86 -2 -115.5 -26.5t-52.5 -116.5l-166 -668q-39 -159 -39 -219q0 -77 43.5 -122.5t116.5 -45.5q93 0 165 60.5t118 177.5q26 64 69 239l146 578q16 65 16 84 q0 32 -24 44.5t-87 14.5l21 76q102 -6 170 -6q67 0 172 6l-19 -76q-69 -12 -91 -28q-38 -27 -71 -127q-23 -69 -91 -328l-72 -285q-36 -151 -69.5 -232t-86.5 -149q-64 -82 -154.5 -126t-191.5 -44q-139 0 -222 78.5t-83 210.5z" />
<glyph unicode="V" horiz-adv-x="923" d="M188 1296l19 76q155 -14 287 -14q113 0 190 14l-20 -76q-78 -10 -99.5 -27.5t-21.5 -70.5v-14l16 -785l303 576q123 231 123 289q0 39 -49 39q-7 0 -19.5 -2t-19.5 -3l-6 68q63 2 128 21t99 47q10 -31 10 -62q0 -45 -15 -88.5t-64 -134.5q-12 -20 -33 -62 q-12 -18 -21 -36l-589 -1088h-41l-64 1159q-4 74 -14 108.5t-31.5 48.5t-67.5 17z" />
<glyph unicode="W" horiz-adv-x="1357" d="M211 1296l18 76q129 -14 236 -14q108 0 231 14l-18 -76q-69 -6 -92.5 -28.5t-26.5 -85.5l-35 -690l457 911h92l-6 -911l262 555q78 163 78 213q0 40 -61 40q-17 0 -31 -2l-2 68h7q69 0 134 18q68 19 102 50q7 -28 7 -37q0 -32 -10 -62.5t-44 -99.5l-616 -1272h-51 l18 1034l-522 -1032h-45l24 1159v23q0 84 -21 113.5t-85 35.5z" />
<glyph unicode="X" horiz-adv-x="995" d="M-96 -6l18 76q78 8 124.5 41.5t125.5 140.5l31 39l272 348l-82 516q-14 80 -40 107.5t-95 33.5l18 76q129 -14 240 -14q112 0 246 14l-19 -76q-66 -5 -95.5 -25t-29.5 -61q0 -3 1 -8.5t2.5 -16t3.5 -22.5l47 -293l209 271q57 72 57 119q0 40 -53 40q-13 0 -27 -2v68 q68 1 135 19.5t113 48.5q6 -35 6 -50q0 -49 -17 -84.5t-79 -113.5l-328 -412l82 -514q22 -119 50.5 -153t111.5 -37l-19 -76q-137 14 -247 14q-111 0 -254 -14l18 76q72 5 90 16q29 22 29 66q0 26 -6 63l-51 322l-279 -357q-33 -41 -33 -65q0 -42 82 -45l-16 -76 q-114 6 -170 6q-58 0 -172 -6z" />
<glyph unicode="Y" horiz-adv-x="864" d="M109 -6l18 76q88 3 115 27t49 116l100 401l-67 539q-12 73 -40 106.5t-81 36.5l16 76q126 -14 230 -14q105 0 239 14l-18 -76q-63 -5 -87 -22t-24 -60q0 -38 2 -61l45 -438l260 432q41 71 41 110q0 43 -59 43q-15 0 -27 -2l-4 68q163 12 254 68q4 -20 4 -45 q0 -37 -12 -68.5t-51 -93.5l-394 -625l-94 -389q-14 -62 -14 -86q0 -29 19 -42t61 -15h14l-18 -76q-143 14 -236 14t-241 -14z" />
<glyph unicode="Z" horiz-adv-x="862" d="M-70 0l834 1288h-139q-106 0 -177 -59t-157 -219h-70l139 356h713l-831 -1288h221q73 0 118 24.5t101 94.5q63 81 123 206h63l-133 -403h-805z" />
<glyph unicode="[" horiz-adv-x="546" d="M-27 -397l441 1763h334l-15 -61h-160l-407 -1641h158l-17 -61h-334z" />
<glyph unicode="\" horiz-adv-x="1001" d="M395 1366h158l166 -1763h-160z" />
<glyph unicode="]" horiz-adv-x="546" d="M-145 -397l14 61h160l407 1641h-157l16 61h334l-441 -1763h-333z" />
<glyph unicode="^" horiz-adv-x="1024" d="M154 580l608 854h10l205 -854h-223l-125 524l-377 -524h-98z" />
<glyph unicode="_" horiz-adv-x="1024" d="M35 -184h954v-113h-954v113z" />
<glyph unicode="`" horiz-adv-x="819" d="M332 1403h303l27 -285h-64z" />
<glyph unicode="a" horiz-adv-x="907" d="M47 283q0 88 29 195t78 204q72 146 170 226.5t204 80.5q59 0 90.5 -24t43.5 -78l22 82q100 0 227 20l-186 -672q-35 -128 -35 -176q0 -21 8 -35t19 -14q23 0 46.5 29.5t57.5 101.5l56 -30q-49 -114 -104.5 -165t-129.5 -51q-129 0 -160 144q-43 -75 -91 -109.5 t-109 -34.5q-109 0 -172.5 82.5t-63.5 223.5zM250 150q0 -55 16.5 -85t46.5 -30q43 0 85 61t89 193q48 136 84.5 294t36.5 228q0 121 -65 121q-41 0 -78 -54.5t-90 -191.5q-51 -137 -88 -294.5t-37 -241.5z" />
<glyph unicode="b" horiz-adv-x="849" d="M111 272q0 60 12.5 126t56.5 245l121 487q18 70 18 105q0 26 -19 34.5t-79 8.5l15 53q173 14 358 72l-119 -479q40 35 75 50t81 15q104 0 163.5 -78t59.5 -215q0 -138 -45 -276.5t-125 -245.5q-144 -197 -324 -197q-117 0 -183 79t-66 216zM305 147q0 -53 16 -82.5 t44 -29.5q51 0 99 78.5t99 246.5q37 123 62.5 254.5t25.5 202.5q0 106 -57 109h-3q-51 0 -106 -98q-57 -102 -108 -289q-72 -277 -72 -392z" />
<glyph unicode="c" horiz-adv-x="727" d="M55 287q0 135 47 278t125 244q67 89 149.5 136.5t168.5 47.5q70 0 145 -41q42 -20 60 -20q16 0 49 26l-76 -350h-64q17 81 17 135q0 85 -26 134t-72 49q-55 0 -107 -62t-106 -192q-43 -109 -70 -224t-27 -196q0 -93 31.5 -143t89.5 -50q64 0 124 70t101 195h78 q-62 -180 -151.5 -265.5t-216.5 -85.5q-124 0 -196.5 84.5t-72.5 229.5z" />
<glyph unicode="d" horiz-adv-x="907" d="M53 289q0 127 45.5 265.5t120.5 244.5q140 190 305 190q87 0 129 -74l54 215q20 76 20 111q0 20 -13.5 28.5t-45.5 8.5h-35l14 53q163 13 354 72l-270 -1086q-31 -119 -31 -165q0 -24 11 -41t26 -17q44 0 97 127l51 -28q-47 -116 -100.5 -166t-129.5 -50q-130 0 -168 125 q-37 -66 -81.5 -95.5t-106.5 -29.5q-110 0 -178 86t-68 226zM254 156q0 -55 18.5 -88t49.5 -33q94 0 186 305q38 128 67 268.5t29 200.5q0 120 -65 123h-3q-108 0 -221 -414q-61 -229 -61 -362z" />
<glyph unicode="e" horiz-adv-x="737" d="M51 276q0 133 47.5 278.5t124.5 248.5q141 186 330 186q98 0 156.5 -57.5t58.5 -155.5q0 -97 -57 -180t-164 -145q-116 -65 -268 -76q-21 -95 -21 -152q0 -74 32.5 -119t84.5 -45q67 0 131 65t110 181h80q-62 -158 -161.5 -243t-223.5 -85q-119 0 -189.5 81.5 t-70.5 217.5zM297 449q13 0 29 2q98 5 178 124.5t80 264.5q0 42 -13 67t-36 25q-56 0 -123.5 -136t-114.5 -347z" />
<glyph unicode="f" horiz-adv-x="538" d="M-190 -397l16 75q37 8 61.5 19t48.5 35.5t41 56t37 90t38.5 128.5t43.5 179l158 703h-115l17 76q79 0 105 24t58 129q30 93 48.5 132.5t48.5 72.5q35 40 91.5 63t117.5 23q91 0 144.5 -44t53.5 -118q0 -55 -26.5 -89t-69.5 -34q-37 0 -59.5 21t-22.5 53q0 27 12 51 q15 44 15 49q0 23 -12 38.5t-31 15.5q-29 0 -43.5 -27.5t-36.5 -122.5l-51 -237h170l-17 -76h-172l-125 -572q-58 -252 -83 -327t-81 -166q-70 -106 -170 -164q-98 -57 -203 -57h-7z" />
<glyph unicode="g" horiz-adv-x="768" d="M-53 -201q0 170 178 228q-55 55 -55 116q0 66 43.5 116.5t150.5 107.5q-123 81 -123 225q0 74 29 150.5t80 131.5q103 115 256 115q60 0 100 -15t78 -52l193 10l-27 -103h-121q16 -41 16 -98q0 -83 -28 -161.5t-76 -129.5q-47 -52 -104 -73t-154 -21q-75 -25 -109 -52.5 t-34 -64.5q0 -20 20 -30q14 -9 31 -12.5t98 -10.5q171 -17 233 -64.5t62 -162.5q0 -172 -113 -273.5t-305 -101.5q-149 0 -234 59.5t-85 165.5zM29 -199q0 -73 62.5 -113t178.5 -40q101 0 160 53t59 145q0 68 -60 96.5t-202 28.5q-93 0 -145.5 -45t-52.5 -125zM324 485 q0 -41 16.5 -66.5t44.5 -25.5q70 0 127 187q53 171 53 264q0 88 -55 88q-37 0 -66 -38t-57 -124q-27 -78 -45 -160.5t-18 -124.5z" />
<glyph unicode="h" horiz-adv-x="948" d="M45 0l283 1130q18 74 18 101q0 28 -19.5 37.5t-78.5 9.5l14 53q165 13 359 72l-127 -512q91 98 208 98q80 0 128.5 -49.5t48.5 -132.5q0 -63 -25 -160l-98 -391q-21 -87 -21 -117q0 -21 9.5 -35t23.5 -14q38 0 74 103l10 34l57 -18q-37 -126 -86 -179t-131 -53 q-75 0 -123.5 51t-48.5 128q0 57 37 206l80 318q20 80 20 119q0 37 -17 59.5t-46 22.5q-102 0 -162 -234l-162 -647h-225z" />
<glyph unicode="i" horiz-adv-x="528" d="M92 150q0 60 41 212l111 410q12 40 12 72q0 23 -18.5 30t-77.5 7l16 53q169 16 359 72l-203 -750q-25 -93 -25 -123q0 -43 25 -43q23 0 40 26.5t48 110.5l53 -18q-56 -232 -219 -232q-72 0 -117 49t-45 124zM356 1255q0 60 41.5 104t98.5 44q49 0 82.5 -37t33.5 -90 q0 -61 -40.5 -105.5t-96.5 -44.5q-51 0 -85 37t-34 92z" />
<glyph unicode="j" horiz-adv-x="481" d="M-231 -397l18 73q92 19 144 84t89 207l191 768q20 82 20 107t-17 32t-73 7l15 53q167 15 350 72l-191 -756q-70 -325 -202.5 -481.5t-343.5 -165.5zM328 1255q0 60 42 104t99 44q49 0 83 -37t34 -90q0 -61 -41.5 -105.5t-98.5 -44.5q-51 0 -84.5 36.5t-33.5 92.5z" />
<glyph unicode="k" horiz-adv-x="892" d="M45 0l283 1130q18 74 18 107q0 23 -17.5 32t-62.5 9h-14l12 53q98 11 161 24t196 48l-220 -881l220 248q49 55 49 94q0 25 -15.5 36t-58.5 15l14 58q85 -10 181 -10q100 0 215 10l-15 -58q-64 -7 -101.5 -28t-105.5 -86l-161 -166l84 -369l8 -43q20 -93 38 -124t52 -31 q25 0 63 14l-16 -59q-71 -46 -141 -46q-112 0 -160 86q-40 73 -57 148l-56 244l-71 -74l-97 -381h-225z" />
<glyph unicode="l" horiz-adv-x="528" d="M100 150q0 64 37 212l201 807q10 48 10 68q0 22 -20.5 31.5t-67.5 9.5h-8l12 53q164 13 359 72l-267 -1065q-39 -162 -39 -197q0 -51 35 -51q28 0 47 28t45 107l45 -14q-31 -125 -83.5 -179.5t-141.5 -54.5q-74 0 -119 47.5t-45 125.5z" />
<glyph unicode="m" horiz-adv-x="1345" d="M45 0l182 731q21 80 21 105q0 23 -19 33t-63 10h-21l13 53q187 19 301 59q4 -20 4 -45q0 -44 -6 -94q87 137 233 137q71 0 117.5 -35.5t58.5 -99.5q97 135 240 135q80 0 126 -46.5t46 -125.5q0 -59 -25 -162l-98 -397q-22 -93 -22 -121q0 -20 9 -33.5t23 -13.5 q45 0 74 98l12 39l54 -16q-53 -234 -215 -234q-73 0 -122.5 51t-49.5 126q0 64 26 165l84 343q27 108 27 141q0 32 -16 51.5t-42 19.5q-46 0 -84.5 -50t-60.5 -136l-172 -688h-225l172 692q16 60 16 103q0 37 -15.5 58t-43.5 21q-43 0 -81.5 -51t-60.5 -137l-172 -686h-225z " />
<glyph unicode="n" horiz-adv-x="952" d="M45 0l182 731l6 29l7 31q6 27 6 45q0 25 -20 33t-79 10l15 53q174 18 297 59q4 -46 4 -51q0 -34 -6 -80q102 129 243 129q81 0 131 -49t50 -127q0 -65 -31 -192l-70 -283q-30 -121 -35.5 -148t-5.5 -51q0 -49 33 -49q25 0 44 30.5t42 106.5l53 -16q-53 -234 -217 -234 q-73 0 -122.5 49.5t-49.5 123.5q0 56 29 169l88 361q16 59 16 113q0 38 -16.5 63t-42.5 25q-55 0 -94 -56t-70 -178l-162 -647h-225z" />
<glyph unicode="o" horiz-adv-x="823" d="M61 311q0 134 44.5 271.5t119.5 232.5q64 84 149.5 129t178.5 45q123 0 195.5 -89.5t72.5 -242.5q0 -124 -38 -251.5t-103 -223.5q-69 -100 -158.5 -152.5t-189.5 -52.5q-127 0 -199 88.5t-72 245.5zM262 172q0 -137 80 -137q47 0 86.5 55t85.5 184q47 133 77 281.5 t30 247.5q0 61 -20.5 95t-57.5 34q-101 0 -187 -283q-94 -300 -94 -477z" />
<glyph unicode="p" horiz-adv-x="880" d="M-55 -403l282 1136q19 78 19 98q0 28 -16 38t-62 10h-21l15 55q83 6 141.5 17t157.5 38q0 -61 -6 -110q51 60 95 85t101 25q106 0 168 -84t62 -227q0 -132 -44 -269t-120 -243q-136 -189 -303 -189q-96 0 -129 74l-115 -454h-225zM332 160q0 -125 69 -125q100 0 185 295 q39 131 66.5 272.5t27.5 212.5q0 57 -16.5 87t-45.5 30q-57 0 -107 -90t-103 -283q-76 -272 -76 -399z" />
<glyph unicode="q" horiz-adv-x="872" d="M51 283q0 172 71 337t185 267t232 102q55 0 86.5 -26t50.5 -86q20 54 55 112q61 -20 92 -27t99 -16q-63 -108 -115 -321l-256 -1028h-225l110 448q-68 -68 -155 -68q-107 0 -168.5 81.5t-61.5 224.5zM252 145q0 -51 16.5 -80.5t44.5 -29.5q95 0 172 231q46 136 83.5 308 t37.5 251q0 107 -61 107q-99 0 -197 -314q-42 -134 -69 -266.5t-27 -206.5z" />
<glyph unicode="r" horiz-adv-x="679" d="M45 0l182 731q21 86 21 109t-19.5 30t-81.5 9l15 53q165 9 291 49q0 -62 -15 -156q55 82 104 116t109 34q58 0 93.5 -36.5t35.5 -96.5q0 -66 -38 -114t-91 -48q-38 0 -60 23t-22 61q0 49 37 74q-6 32 -31 32q-46 0 -93.5 -94t-82.5 -256l-16 -67l-113 -453h-225z" />
<glyph unicode="s" horiz-adv-x="733" d="M35 117l51 229h59q-6 -73 -6 -90q0 -93 44.5 -151t115.5 -58q72 0 122 60.5t50 148.5q0 45 -18 74.5t-70 68.5q-134 105 -172.5 157t-38.5 130q0 130 88.5 217.5t220.5 87.5q75 0 150 -37q40 -16 55 -16q21 0 68 29l-62 -277h-65q4 50 4 64q0 75 -36 120.5t-95 45.5 t-102.5 -43t-43.5 -103q0 -32 16 -56.5t56 -55.5q85 -65 114 -89.5t56 -52.5q70 -73 70 -176q0 -157 -104 -263t-259 -106q-86 0 -145.5 31.5t-122.5 110.5z" />
<glyph unicode="t" horiz-adv-x="536" d="M106 174q0 68 37 215l123 500h-100l18 72q91 0 177 82.5t147 228.5h74l-76 -307h143l-18 -76h-144l-118 -510q-37 -159 -37 -205q0 -32 13 -54t32 -22q35 0 104 60l-24 -97q-95 -79 -191 -79q-75 0 -117.5 50.5t-42.5 141.5z" />
<glyph unicode="u" horiz-adv-x="956" d="M102 180q0 50 21 139l104 416q21 79 21 107q0 39 -72 39h-24l12 53q177 16 356 72l-174 -705q-20 -78 -20 -119q0 -43 14.5 -69.5t40.5 -26.5q113 0 184 279l150 604q119 2 231 20l-166 -667q-30 -113 -30 -166q0 -25 10.5 -41.5t27.5 -16.5q26 0 46.5 27.5t48.5 99.5 l51 -28q-44 -112 -97.5 -163.5t-125.5 -51.5q-71 0 -108 41t-44 127q-68 -89 -130.5 -128.5t-137.5 -39.5q-88 0 -138.5 53t-50.5 145z" />
<glyph unicode="v" horiz-adv-x="772" d="M94 915l15 58q120 -12 213 -12q90 0 217 12l-15 -58l-18 -2q-52 -3 -68 -19q-14 -14 -14 -53v-10v-20l18 -469l232 420q6 8 14 24q37 63 37 95q0 20 -12.5 31.5t-34.5 11.5q-13 0 -23 -2l-8 55q158 23 221 70q6 -38 6 -50q0 -31 -14 -65.5t-55 -104.5q-22 -33 -35 -59 l-43 -74l-424 -725h-45l-65 779q-4 42 -6.5 65t-8 44t-10.5 29.5t-17 16t-23.5 9t-33.5 3.5z" />
<glyph unicode="w" horiz-adv-x="1163" d="M106 915l15 58q125 -10 209 -10q85 0 215 10l-15 -58q-60 -3 -78 -26.5t-18 -97.5l-4 -414l340 627h72l28 -635l209 411q33 65 33 99q0 45 -53 45h-25l-8 53q155 22 223 72q8 -41 8 -60q0 -30 -10.5 -56.5t-52.5 -105.5l-463 -856h-53l-33 662l-356 -662h-53l-31 742 q-1 48 -2.5 76.5t-6 53t-10 35.5t-17.5 20t-25.5 12t-37.5 5z" />
<glyph unicode="x" horiz-adv-x="843" d="M-86 -6l14 57q53 9 81.5 30t99.5 101q13 18 34 39l195 219l-82 373q-14 57 -34.5 79t-63.5 23l14 58q115 -10 231 -10q96 0 170 10l-16 -60l-8 -4q-32 -11 -46 -26t-14 -41q0 -10 9 -47l34 -156l119 156q58 71 58 100q0 27 -39 27h-17l-4 55q109 15 217 70v-25 q0 -51 -21.5 -93.5t-88.5 -119.5l-43 -49l-164 -197l86 -387q19 -78 55 -78q25 0 47.5 28t50.5 91l48 -33q-53 -109 -113 -158t-143 -49q-108 0 -152 103q-22 52 -41 141l-31 137l-174 -198q-43 -49 -43 -76q0 -17 10 -23.5t41 -9.5l-14 -57q-79 8 -129 8q-45 0 -133 -8z " />
<glyph unicode="y" horiz-adv-x="739" d="M-154 -410l7 144q49 -27 88 -27q58 0 121 61.5t149 204.5l47 78l-74 727q-9 82 -26.5 106.5t-69.5 30.5l14 58q108 -10 207 -10t219 10l-14 -58q-58 -4 -76 -18.5t-18 -54.5l33 -463l221 381q7 8 20 35q39 61 39 92q0 37 -43 37q-21 0 -33 -2l-4 55q82 12 123 25t88 42 q6 -46 6 -53q0 -38 -12.5 -67.5t-69.5 -126.5l-538 -899q-39 -66 -89 -135.5t-75 -94.5q-84 -78 -201 -78h-39z" />
<glyph unicode="z" horiz-adv-x="698" d="M-72 0l662 784q-82 -61 -150 -61q-30 0 -84 22q-51 21 -71 21q-69 0 -84 -109h-66q13 142 81 234t159 92q40 0 133 -37q86 -37 135 -37q59 0 125 60h72l-656 -774q85 61 156 61q44 0 94 -23q44 -16 64 -16q85 0 127 127h61q-26 -159 -113.5 -256.5t-205.5 -97.5 q-35 0 -66 7.5t-92 31.5q-79 30 -111 30q-45 0 -98 -59h-72z" />
<glyph unicode="{" horiz-adv-x="567" d="M53 -293q0 47 19 121l121 487q12 49 12 78q0 35 -15.5 60t-52.5 55q67 30 99.5 71.5t52.5 120.5l108 439q39 157 115 215q36 28 71.5 36.5t108.5 8.5h68q-74 -22 -114 -74.5t-62 -155.5l-107 -426q-25 -100 -66.5 -156.5t-107.5 -78.5q41 -31 56.5 -58.5t15.5 -70.5 q0 -41 -17 -107l-120 -487q-15 -59 -15 -92q0 -96 103 -125h-90q-55 0 -80 4t-50 18q-53 35 -53 117z" />
<glyph unicode="|" horiz-adv-x="1024" d="M461 -342v1708h147v-1708h-147z" />
<glyph unicode="}" horiz-adv-x="567" d="M-135 -432q73 22 113 74t63 155l106 426q45 192 172 238q-40 31 -54.5 57.5t-14.5 67.5q0 51 16 110l121 486q14 60 14 94q0 95 -102 123h90q54 0 78.5 -4.5t48.5 -18.5q55 -31 55 -110q0 -42 -18 -127l-121 -488q-12 -47 -12 -76q0 -37 14 -61t53 -53 q-68 -32 -100 -73.5t-51 -119.5l-111 -440q-20 -84 -46 -133t-66 -80q-36 -29 -72 -38t-109 -9h-67z" />
<glyph unicode="~" horiz-adv-x="989" d="M360 1249q147 224 281 224q54 0 158 -56q89 -47 137 -47q92 0 178 103l39 -35q-66 -103 -140 -161t-139 -58q-40 0 -108 36q-83 42 -124.5 57t-76.5 15q-43 0 -78 -23t-90 -87z" />
<glyph unicode="&#xa1;" horiz-adv-x="456" d="M-86 -395l301 946h107l-162 -946h-246zM193 827q0 64 43 111t102 47q54 0 90.5 -39.5t36.5 -97.5q0 -63 -44 -109.5t-104 -46.5q-52 0 -88 39t-36 96z" />
<glyph unicode="&#xa2;" d="M184 492q0 136 47 278.5t125 245.5q67 89 149.5 136.5t168.5 47.5q14 0 24 -2l39 160h74l-43 -176q11 -4 51 -25q42 -20 60 -20q17 0 49 28l-76 -352h-64q17 81 17 137q0 127 -53 168l-213 -852q57 9 113 81t91 181h78q-49 -149 -127.5 -238t-175.5 -106l-43 -176h-74 l43 170q-121 4 -190.5 88.5t-69.5 225.5zM397 459q0 -142 72 -183l211 852q-73 -22 -135 -145q-65 -123 -106.5 -270.5t-41.5 -253.5z" />
<glyph unicode="&#xa3;" d="M-33 0q61 75 100 159t121 318l64 182h-121l21 82h127l47 131q94 266 206 381q133 136 283 136q98 0 149.5 -57t51.5 -165q0 -47 -8 -112h-95q9 77 9 90q0 151 -93 151q-72 0 -124.5 -67t-110.5 -234l-90 -254h190l-20 -82h-199l-47 -127q-91 -251 -283 -419q91 50 140 67 t102 17q31 0 84 -19q71 -28 117 -28q50 0 108 73q25 33 74 142h66q-28 -119 -65.5 -191.5t-94.5 -118.5q-36 -30 -83.5 -42.5t-123.5 -12.5h-502z" />
<glyph unicode="&#xa4;" horiz-adv-x="1224" d="M127 240l156 155q-90 134 -90 287q0 163 90 291l-156 155l119 119l155 -155q134 90 289 90q160 0 289 -90l156 155l118 -119l-155 -155q90 -137 90 -287q0 -163 -90 -291l155 -155l-118 -119l-156 155q-134 -90 -289 -90t-289 90l-155 -155zM362 684q0 -137 96 -232.5 t234 -95.5q134 0 230 96.5t96 231.5t-96.5 231.5t-231.5 96.5t-231.5 -96.5t-96.5 -231.5z" />
<glyph unicode="&#xa5;" d="M141 -6l19 76q88 3 115 27t49 116l94 377h-266l20 78h246l-19 151h-190l20 78h160l-33 256q-12 74 -40 107t-80 36l16 76q126 -14 229 -14q106 0 240 14l-19 -76q-63 -5 -86.5 -22t-23.5 -60q0 -36 2 -61l45 -436l231 385q43 71 56.5 101t13.5 54q0 43 -59 43 q-15 0 -27 -2l-4 68q162 12 254 68q4 -20 4 -45q0 -36 -13.5 -69t-50.5 -93l-65 -101l-143 -229h135l-19 -78h-166l-94 -151h221l-18 -78h-248l-90 -377q-14 -62 -14 -86q0 -54 80 -57h14l-19 -76q-143 14 -235 14q-94 0 -242 -14z" />
<glyph unicode="&#xa6;" horiz-adv-x="1024" d="M461 313h147v-655h-147v655zM461 664v702h147v-702h-147z" />
<glyph unicode="&#xa7;" horiz-adv-x="819" d="M-10 -63q0 56 12 112h76q-6 -68 -6 -94q0 -97 48 -153t132 -56q86 0 146.5 63.5t60.5 155.5q0 30 -12.5 51t-55.5 64l-201 192q-92 89 -92 191q0 53 17 114t45 105t68 77t116 75q-63 83 -63 182q0 97 53 183.5t141 138t187 51.5q121 0 187 -68t66 -193q0 -48 -12 -124 h-78q11 67 11 104q0 83 -39 129.5t-107 46.5q-75 0 -134.5 -62.5t-59.5 -140.5q0 -57 75 -123l162 -139q101 -88 101 -217q0 -238 -246 -356q46 -46 66 -91t20 -104q0 -166 -117 -281.5t-287 -115.5q-135 0 -207.5 73.5t-72.5 209.5zM254 616q0 -67 74 -135l209 -194 q141 59 141 176q0 64 -66 127l-221 201q-137 -69 -137 -175z" />
<glyph unicode="&#xa8;" horiz-adv-x="819" d="M336 1255q0 58 40.5 101t94.5 43q47 0 81 -36t34 -87q0 -60 -39.5 -103t-93.5 -43q-51 0 -84 35.5t-33 89.5zM641 1255q0 58 40.5 101t94.5 43q47 0 81 -36t34 -87q0 -60 -39.5 -103t-93.5 -43q-50 0 -83.5 35.5t-33.5 89.5z" />
<glyph unicode="&#xa9;" horiz-adv-x="1517" d="M152 637q0 201 100.5 373.5t272 274t370.5 101.5q128 0 243.5 -51t199 -138t133 -208t49.5 -254q0 -151 -59.5 -290.5t-158.5 -241t-234.5 -162.5t-281.5 -61q-177 0 -322.5 86t-228.5 236.5t-83 334.5zM250 643q0 -241 156.5 -403t388.5 -162q124 0 240 52.5 t200.5 140.5t135 208.5t50.5 249.5q0 152 -71 280.5t-194 203.5t-269 75q-281 0 -471 -217q-79 -89 -122.5 -200.5t-43.5 -227.5zM526 528q0 153 54 287t145 213.5t195 79.5q42 0 73 -9.5t70 -35.5q17 -10 27 -10q8 0 59 32l-57 -260h-64q2 33 2 60q0 69 -23 109t-61 40 q-96 0 -168 -176q-32 -78 -52.5 -175t-20.5 -169q0 -147 94 -147q125 0 180 202h68q-26 -144 -106 -228.5t-189 -84.5q-106 0 -166 72.5t-60 199.5z" />
<glyph unicode="&#xaa;" horiz-adv-x="602" d="M154 614l16 66h446l-16 -66h-446zM213 975q0 114 63 237q44 89 106 138t128 49q65 0 82 -51l10 36q75 2 150 15l-113 -406q-21 -80 -21 -96q0 -13 6 -22t15 -9q14 0 25.5 15t31.5 59l39 -16q-31 -72 -66.5 -104t-82.5 -32q-80 0 -101 80q-26 -43 -54.5 -61.5t-68.5 -18.5 q-69 0 -109 51t-40 136zM352 893q0 -29 8.5 -45.5t22.5 -16.5q23 0 45 34t49 108q29 85 51.5 181.5t22.5 139.5q0 62 -33 62q-21 0 -40.5 -31t-49.5 -111q-32 -84 -54 -177.5t-22 -143.5z" />
<glyph unicode="&#xab;" horiz-adv-x="722" d="M76 487l370 478h54l-213 -478l-29 -487h-45zM354 487l367 478h57l-217 -478l-24 -487h-50z" />
<glyph unicode="&#xac;" horiz-adv-x="1024" d="M68 440v107h886v-547h-247v440h-639z" />
<glyph unicode="&#xad;" horiz-adv-x="360" d="M6 397l51 205h361l-51 -205h-361z" />
<glyph unicode="&#xae;" horiz-adv-x="1517" d="M152 637q0 201 100.5 373.5t272 274t370.5 101.5q128 0 243.5 -51t199 -138t133 -208t49.5 -254q0 -151 -59.5 -290.5t-158.5 -241t-234.5 -162.5t-281.5 -61q-177 0 -322.5 86t-228.5 236.5t-83 334.5zM250 643q0 -241 156.5 -403t388.5 -162q124 0 240 52.5 t200.5 140.5t135 208.5t50.5 249.5q0 152 -71 280.5t-194 203.5t-269 75q-281 0 -471 -217q-79 -89 -122.5 -200.5t-43.5 -227.5zM446 268l17 66q55 2 69.5 13t26.5 61l143 573q3 6 3 14q0 20 -13.5 26.5t-56.5 6.5l16 64h258q97 0 138 -15q35 -15 55 -52.5t20 -88.5 q0 -98 -54 -170.5t-148 -101.5q29 -19 42 -45t19 -80l14 -109q12 -94 64 -94q16 0 55 16l-16 -65q-54 -25 -105 -25q-68 0 -102.5 41.5t-46.5 136.5l-23 164q-5 26 -13.5 35t-31.5 10l-61 -241q-8 -41 -8 -50q0 -14 14 -19t51 -5l-16 -66q-84 11 -150 11q-61 0 -160 -11z M793 715h26q82 0 119 88q31 81 31 143q0 47 -18 63.5t-72 16.5h-9z" />
<glyph unicode="&#xaf;" horiz-adv-x="819" d="M334 1180l31 125h540l-31 -125h-540z" />
<glyph unicode="&#xb0;" horiz-adv-x="985" d="M354 1108q0 133 95.5 226t232.5 93q129 0 222 -94.5t93 -226.5q0 -134 -94 -228t-227 -94q-135 0 -228.5 94.5t-93.5 229.5zM522 1106q0 -64 45 -109t109 -45q63 0 108 45t45 109q0 62 -44.5 106.5t-106.5 44.5q-65 0 -110.5 -44t-45.5 -107z" />
<glyph unicode="&#xb1;" d="M-10 6l41 170h735l-41 -170h-735zM137 604l41 170h287l92 367h164l-94 -367h286l-41 -170h-286l-90 -366h-164l92 366h-287z" />
<glyph unicode="&#xb2;" horiz-adv-x="583" d="M121 532l29 117q111 113 169 180l54 60q89 98 122 155t33 113q0 35 -16.5 55.5t-44.5 20.5q-43 0 -75.5 -32.5t-61.5 -104.5h-66q44 130 109.5 190t161.5 60q73 0 115 -41t42 -113q0 -89 -64 -176t-259 -260l-90 -80h299l-56 -144h-401z" />
<glyph unicode="&#xb3;" horiz-adv-x="583" d="M166 764h63q9 -66 39 -101.5t76 -35.5q49 0 87 56t38 130q0 55 -29 80t-92 25h-8l14 59q44 0 67.5 6t43.5 23q28 22 45.5 63t17.5 82q0 37 -17.5 61.5t-45.5 24.5q-35 0 -63.5 -29.5t-57.5 -97.5h-61q38 123 94 179.5t139 56.5q72 0 118 -49.5t46 -127.5 q0 -77 -45 -132.5t-127 -78.5q59 -20 86 -58t27 -99q0 -118 -74 -200.5t-180 -82.5q-97 0 -149 64t-52 182z" />
<glyph unicode="&#xb4;" horiz-adv-x="819" d="M522 1116l168 287h303l-397 -287h-74z" />
<glyph unicode="&#xb5;" horiz-adv-x="940" d="M-113 -330q0 42 52 166q83 192 136.5 350t104.5 355l99 395h225l-146 -588q-26 -111 -26 -174q0 -88 51 -88q113 0 182 279l144 571h225l-154 -614q-28 -120 -28 -166q0 -25 11 -41.5t28 -16.5q25 0 44.5 27.5t47.5 99.5l53 -28q-44 -111 -98.5 -163t-126.5 -52 q-69 0 -106 41t-44 127q-73 -102 -122 -135t-126 -33q-75 0 -107 34.5t-46 128.5q-26 -103 -30.5 -144t-4.5 -183q0 -65 -8.5 -100.5t-30.5 -61.5q-42 -51 -109 -51q-39 0 -64.5 18t-25.5 47z" />
<glyph unicode="&#xb6;" horiz-adv-x="886" d="M123 -293l225 905q-100 22 -146 83t-46 175q0 100 37 200.5t100 172.5q63 70 140 96.5t218 26.5h439l-19 -76q-90 -1 -120.5 -26.5t-53.5 -116.5l-358 -1440h-162l358 1434q21 89 21 102q0 15 -11.5 28t-23.5 13q-26 0 -43 -29.5t-37 -109.5l-358 -1438h-160z" />
<glyph unicode="&#xb7;" horiz-adv-x="423" d="M111 500q0 63 43.5 109t103.5 46q53 0 89 -39t36 -96q0 -64 -43 -111t-102 -47q-54 0 -90.5 39.5t-36.5 98.5z" />
<glyph unicode="&#xb8;" horiz-adv-x="819" d="M133 -369l17 64q50 -19 75 -19q37 0 61.5 29t24.5 72q0 29 -20 46t-55 17h-9l115 160h86l-76 -106q61 0 90 -25.5t29 -79.5q0 -80 -61.5 -136t-149.5 -56q-58 0 -127 34z" />
<glyph unicode="&#xb9;" horiz-adv-x="583" d="M164 526l12 54q68 3 89 20t38 86l125 502l-104 -8l14 51q72 6 138 42t104 91h51l-174 -702q-8 -24 -8 -46q0 -20 16 -26.5t67 -9.5l-14 -54q-102 11 -174 11q-76 0 -180 -11z" />
<glyph unicode="&#xba;" horiz-adv-x="555" d="M115 614l16 66h447l-17 -66h-446zM221 997q0 69 24 145.5t64 133.5q89 123 219 123q77 0 122.5 -51.5t45.5 -139.5q0 -175 -86.5 -296t-210.5 -121q-82 0 -130 55.5t-48 150.5zM360 922q0 -41 12 -64.5t34 -23.5q25 0 46 32t44 105q61 197 61 325q0 60 -39 60 q-26 0 -46.5 -31t-45.5 -108q-29 -84 -47.5 -167t-18.5 -128z" />
<glyph unicode="&#xbb;" horiz-adv-x="722" d="M0 0l215 477l27 488h49l133 -488l-369 -477h-55zM279 0l210 477l31 488h45l137 -488l-372 -477h-51z" />
<glyph unicode="&#xbc;" horiz-adv-x="1310" d="M164 526l12 54q68 3 89 20t38 86l125 502l-104 -8l14 51q72 6 138 42t104 91h51l-174 -702q-8 -24 -8 -46q0 -20 16 -26.5t67 -9.5l-14 -54q-102 11 -174 11q-76 0 -180 -11zM260 0l877 1331h104l-874 -1331h-107zM700 178l5 19l428 602h145l-119 -496h105l-31 -125h-100 l-50 -198h-155l49 198h-277zM858 303h154l84 346z" />
<glyph unicode="&#xbd;" horiz-adv-x="1310" d="M164 526l12 54q68 3 89 20t38 86l125 502l-104 -8l14 51q72 6 138 42t104 91h51l-174 -702q-8 -24 -8 -46q0 -20 16 -26.5t67 -9.5l-14 -54q-102 11 -174 11q-76 0 -180 -11zM238 0l876 1331h107l-877 -1331h-106zM717 0l28 117q104 104 170 180q45 50 54 59 q89 100 122 157t33 112q0 35 -16.5 55t-44.5 20q-43 0 -75.5 -32.5t-61.5 -104.5h-66q44 130 109 190t161 60q74 0 116 -40.5t42 -110.5q0 -90 -65.5 -179t-257.5 -260l-91 -80h300l-56 -143h-401z" />
<glyph unicode="&#xbe;" horiz-adv-x="1310" d="M166 764h63q9 -66 39 -101.5t76 -35.5q49 0 87 56t38 130q0 55 -29 80t-92 25h-8l14 59q44 0 67.5 6t43.5 23q28 22 45.5 63t17.5 82q0 37 -17.5 61.5t-45.5 24.5q-35 0 -63.5 -29.5t-57.5 -97.5h-61q38 123 94 179.5t139 56.5q72 0 118 -49.5t46 -127.5 q0 -77 -45 -132.5t-127 -78.5q59 -20 86 -58t27 -99q0 -118 -74 -200.5t-180 -82.5q-97 0 -149 64t-52 182zM270 0l877 1331h104l-876 -1331h-105zM700 178l5 19l428 602h145l-119 -496h105l-31 -125h-100l-50 -198h-155l49 198h-277zM858 303h154l84 346z" />
<glyph unicode="&#xbf;" horiz-adv-x="681" d="M-57 -166q0 155 98 264q28 31 53 50.5t164 119.5q68 50 99.5 84.5t49 78.5t31.5 128h80q-15 -100 -25.5 -149.5t-35.5 -102t-56.5 -89.5t-97.5 -107q-80 -82 -104.5 -127t-24.5 -109q0 -58 24.5 -92.5t65.5 -34.5q57 0 107 52t82 145h84q-44 -171 -142 -267t-227 -96 q-104 0 -164.5 68t-60.5 184zM397 827q0 64 43.5 111t102.5 47q54 0 90.5 -39.5t36.5 -97.5q0 -63 -44 -109.5t-104 -46.5q-53 0 -89 39t-36 96z" />
<glyph unicode="&#xc0;" horiz-adv-x="1083" d="M-74 -6l21 74q68 5 103.5 31.5t86.5 111.5l697 1208h22l31 -1206q5 -80 32 -110.5t97 -34.5l-21 -74q-132 14 -227 14q-91 0 -274 -14l20 76h33q56 0 76.5 27.5t21.5 103.5l2 168h-332l-79 -146q-43 -73 -43 -108q0 -25 17.5 -33.5t74.5 -13.5l-21 -74q-136 8 -184 8 q-50 0 -154 -8zM360 446h287l2 500zM522 1769h303l54 -258h-62z" />
<glyph unicode="&#xc1;" horiz-adv-x="1083" d="M-74 -6l21 74q68 5 103.5 31.5t86.5 111.5l697 1208h22l31 -1206q5 -80 32 -110.5t97 -34.5l-21 -74q-132 14 -227 14q-91 0 -274 -14l20 76h33q56 0 76.5 27.5t21.5 103.5l2 168h-332l-79 -146q-43 -73 -43 -108q0 -25 17.5 -33.5t74.5 -13.5l-21 -74q-136 8 -184 8 q-50 0 -154 -8zM360 446h287l2 500zM825 1511l172 258h314l-412 -258h-74z" />
<glyph unicode="&#xc2;" horiz-adv-x="1083" d="M-74 -6l21 74q68 5 103.5 31.5t86.5 111.5l697 1208h22l31 -1206q5 -80 32 -110.5t97 -34.5l-21 -74q-132 14 -227 14q-91 0 -274 -14l20 76h33q56 0 76.5 27.5t21.5 103.5l2 168h-332l-79 -146q-43 -73 -43 -108q0 -25 17.5 -33.5t74.5 -13.5l-21 -74q-136 8 -184 8 q-50 0 -154 -8zM360 446h287l2 500zM569 1507l324 291h53l156 -291h-72l-160 107l-219 -107h-82z" />
<glyph unicode="&#xc3;" horiz-adv-x="1083" d="M-74 -6l21 74q68 5 103.5 31.5t86.5 111.5l697 1208h22l31 -1206q5 -80 32 -110.5t97 -34.5l-21 -74q-132 14 -227 14q-91 0 -274 -14l20 76h33q56 0 76.5 27.5t21.5 103.5l2 168h-332l-79 -146q-43 -73 -43 -108q0 -25 17.5 -33.5t74.5 -13.5l-21 -74q-136 8 -184 8 q-50 0 -154 -8zM360 446h287l2 500zM590 1552q67 123 115.5 170t107.5 47q49 0 107 -47q39 -31 57 -40t37 -9q29 0 54 21t65 80l57 -21q-61 -124 -117 -178.5t-119 -54.5q-29 0 -48.5 10t-80.5 57q-42 33 -71 33q-52 0 -109 -92z" />
<glyph unicode="&#xc4;" horiz-adv-x="1083" d="M-74 -6l21 74q68 5 103.5 31.5t86.5 111.5l697 1208h22l31 -1206q5 -80 32 -110.5t97 -34.5l-21 -74q-132 14 -227 14q-91 0 -274 -14l20 76h33q56 0 76.5 27.5t21.5 103.5l2 168h-332l-79 -146q-43 -73 -43 -108q0 -25 17.5 -33.5t74.5 -13.5l-21 -74q-136 8 -184 8 q-50 0 -154 -8zM360 446h287l2 500zM575 1638q0 60 42 104t100 44q50 0 83.5 -36.5t33.5 -90.5q0 -60 -41.5 -104t-98.5 -44q-51 0 -85 36.5t-34 90.5zM905 1638q0 60 42.5 104t99.5 44q49 0 82.5 -36.5t33.5 -90.5q0 -60 -40.5 -104t-96.5 -44q-52 0 -86.5 36.5t-34.5 90.5 z" />
<glyph unicode="&#xc5;" horiz-adv-x="1083" d="M-74 -6l21 74q68 5 103.5 31.5t86.5 111.5l697 1208h22l31 -1206q5 -80 32 -110.5t97 -34.5l-21 -74q-132 14 -227 14q-91 0 -274 -14l20 76h33q56 0 76.5 27.5t21.5 103.5l2 168h-332l-79 -146q-43 -73 -43 -108q0 -25 17.5 -33.5t74.5 -13.5l-21 -74q-136 8 -184 8 q-50 0 -154 -8zM360 446h287l2 500zM707 1657q0 79 53 136.5t127 57.5q64 0 109.5 -49.5t45.5 -120.5q0 -79 -53 -136.5t-125 -57.5q-66 0 -111.5 49.5t-45.5 120.5zM791 1663q0 -38 22.5 -64t54.5 -26q37 0 63.5 30.5t26.5 71.5q0 38 -22.5 64t-54.5 26q-37 0 -63.5 -30.5 t-26.5 -71.5z" />
<glyph unicode="&#xc6;" horiz-adv-x="1488" d="M-86 -6l18 76q64 3 108 38.5t116 141.5l782 1116h670l-45 -360h-66q4 47 4 96q0 107 -36 146.5t-136 39.5h-131l-133 -534h307l-22 -92h-308l-112 -449q-17 -73 -17 -90q0 -45 80 -45h49q80 0 130.5 28.5t107.5 104.5q51 66 100 168h66l-146 -379h-790l18 76 q89 3 118 27.5t52 115.5l58 230h-369l-164 -244q-27 -42 -36 -60t-9 -36q0 -22 16.5 -29t71.5 -10l-18 -76q-93 8 -164 8q-74 0 -170 -8zM442 526h332l191 762z" />
<glyph unicode="&#xc7;" horiz-adv-x="991" d="M113 418q0 187 58.5 379.5t158.5 335.5q187 266 442 266q67 0 112.5 -15t121.5 -61q38 -23 59 -23q18 0 65 31l-88 -403h-65q2 43 2 84q0 140 -47.5 219.5t-132.5 79.5q-95 0 -175 -78.5t-149 -241.5q-57 -135 -92 -297t-35 -291q0 -138 52 -212t147 -74 q122 0 211.5 94.5t138.5 275.5h70q-44 -226 -163.5 -365t-279.5 -153l-57 -80q56 -3 85.5 -33.5t29.5 -84.5q0 -85 -62 -143t-151 -58q-59 0 -136 39l21 72q35 -13 63 -13q44 0 72.5 28.5t28.5 72.5q0 29 -17.5 45t-48.5 16h-18l100 139q-155 19 -238 135t-83 314z" />
<glyph unicode="&#xc8;" horiz-adv-x="933" d="M-47 0l18 76q89 3 118 27.5t52 115.5l232 928q14 55 14 84q0 32 -24 44.5t-89 14.5l19 76h758l-45 -360h-66q4 47 4 96q0 107 -36 146.5t-134 39.5h-133l-133 -534h309l-22 -92h-310l-110 -449q-17 -63 -17 -88q0 -47 80 -47h47q80 0 130.5 28.5t107.5 104.5 q58 76 100 168h66l-146 -379h-790zM428 1769h303l55 -258h-63z" />
<glyph unicode="&#xc9;" horiz-adv-x="933" d="M-47 0l18 76q89 3 118 27.5t52 115.5l232 928q14 55 14 84q0 32 -24 44.5t-89 14.5l19 76h758l-45 -360h-66q4 47 4 96q0 107 -36 146.5t-134 39.5h-133l-133 -534h309l-22 -92h-310l-110 -449q-17 -63 -17 -88q0 -47 80 -47h47q80 0 130.5 28.5t107.5 104.5 q58 76 100 168h66l-146 -379h-790zM672 1511l172 258h313l-414 -258h-71z" />
<glyph unicode="&#xca;" horiz-adv-x="933" d="M-47 0l18 76q89 3 118 27.5t52 115.5l232 928q14 55 14 84q0 32 -24 44.5t-89 14.5l19 76h758l-45 -360h-66q4 47 4 96q0 107 -36 146.5t-134 39.5h-133l-133 -534h309l-22 -92h-310l-110 -449q-17 -63 -17 -88q0 -47 80 -47h47q80 0 130.5 28.5t107.5 104.5 q58 76 100 168h66l-146 -379h-790zM479 1507l324 291h53l156 -291h-72l-160 107l-219 -107h-82z" />
<glyph unicode="&#xcb;" horiz-adv-x="933" d="M-47 0l18 76q89 3 118 27.5t52 115.5l232 928q14 55 14 84q0 32 -24 44.5t-89 14.5l19 76h758l-45 -360h-66q4 47 4 96q0 107 -36 146.5t-134 39.5h-133l-133 -534h309l-22 -92h-310l-110 -449q-17 -63 -17 -88q0 -47 80 -47h47q80 0 130.5 28.5t107.5 104.5 q58 76 100 168h66l-146 -379h-790zM442 1638q0 60 41.5 104t98.5 44q49 0 82.5 -36.5t33.5 -90.5q0 -60 -40.5 -104t-96.5 -44q-51 0 -85 36.5t-34 90.5zM772 1638q0 60 41 104t98 44q50 0 83.5 -36.5t33.5 -90.5q0 -60 -40.5 -104t-96.5 -44q-51 0 -85 36.5t-34 90.5z" />
<glyph unicode="&#xcc;" horiz-adv-x="591" d="M-49 -6l18 76q89 3 118 27t52 116l236 940q12 49 12 86q0 31 -23.5 43.5t-87.5 13.5l19 76q146 -14 248 -14t250 14l-19 -76q-87 -3 -114 -26.5t-52 -116.5l-235 -940q-13 -54 -13 -86q0 -31 23 -42.5t86 -14.5l-18 -76q-143 14 -246 14q-99 0 -254 -14zM313 1769h305 l54 -258h-62z" />
<glyph unicode="&#xcd;" horiz-adv-x="591" d="M-49 -6l18 76q89 3 118 27t52 116l236 940q12 49 12 86q0 31 -23.5 43.5t-87.5 13.5l19 76q146 -14 248 -14t250 14l-19 -76q-87 -3 -114 -26.5t-52 -116.5l-235 -940q-13 -54 -13 -86q0 -31 23 -42.5t86 -14.5l-18 -76q-143 14 -246 14q-99 0 -254 -14zM532 1511 l173 258h313l-414 -258h-72z" />
<glyph unicode="&#xce;" horiz-adv-x="591" d="M-49 -6l18 76q89 3 118 27t52 116l236 940q12 49 12 86q0 31 -23.5 43.5t-87.5 13.5l19 76q146 -14 248 -14t250 14l-19 -76q-87 -3 -114 -26.5t-52 -116.5l-235 -940q-13 -54 -13 -86q0 -31 23 -42.5t86 -14.5l-18 -76q-143 14 -246 14q-99 0 -254 -14zM307 1507 l326 291h51l158 -291h-74l-160 107l-217 -107h-84z" />
<glyph unicode="&#xcf;" horiz-adv-x="591" d="M-49 -6l18 76q89 3 118 27t52 116l236 940q12 49 12 86q0 31 -23.5 43.5t-87.5 13.5l19 76q146 -14 248 -14t250 14l-19 -76q-87 -3 -114 -26.5t-52 -116.5l-235 -940q-13 -54 -13 -86q0 -31 23 -42.5t86 -14.5l-18 -76q-143 14 -246 14q-99 0 -254 -14zM334 1638 q0 60 40.5 104t96.5 44q48 0 81.5 -36.5t33.5 -90.5q0 -60 -40 -104t-95 -44q-50 0 -83.5 36.5t-33.5 90.5zM641 1638q0 60 40.5 104t96.5 44q46 0 79.5 -37t33.5 -90q0 -60 -39.5 -104t-93.5 -44q-50 0 -83.5 36.5t-33.5 90.5z" />
<glyph unicode="&#xd0;" horiz-adv-x="1095" d="M-47 0l18 76q89 3 118 27.5t52 115.5l115 459h-133l18 82h135l97 387q14 58 14 84q0 31 -25 44.5t-88 14.5l19 76h442q128 0 199 -24t117 -82q86 -112 86 -320q0 -214 -73 -415t-198 -330q-97 -100 -213.5 -147.5t-265.5 -47.5h-434zM356 121q0 -45 62 -45q111 0 188 62 t144 208q70 150 115.5 348.5t45.5 352.5q0 135 -44 188t-156 53h-70l-131 -528h178l-20 -82h-179l-118 -481q-15 -54 -15 -76z" />
<glyph unicode="&#xd1;" horiz-adv-x="1097" d="M-57 -6l18 76q61 6 93.5 28.5t55.5 75t52 166.5l219 879q-25 43 -49.5 59t-65.5 18l19 76q99 -6 147 -6q35 0 170 6l272 -891l164 660q19 71 19 98q0 31 -25 43t-88 14l21 76q102 -6 168 -6q67 0 172 6l-19 -76q-85 -2 -116 -29.5t-56 -125.5l-293 -1176h-39l-348 1159 l-213 -858q-26 -104 -26 -129q0 -39 21.5 -52.5t86.5 -14.5l-18 -76q-93 8 -170 8q-76 0 -172 -8zM573 1552q69 123 117.5 170t106.5 47q48 0 108 -47q38 -30 55.5 -39.5t36.5 -9.5q29 0 54.5 21t66.5 80l56 -21q-61 -124 -117 -178.5t-119 -54.5q-28 0 -48.5 10.5 t-80.5 56.5q-42 33 -70 33q-53 0 -110 -92z" />
<glyph unicode="&#xd2;" horiz-adv-x="1062" d="M111 401q0 204 68 418t177 355q176 225 410 225q161 0 252.5 -114.5t91.5 -315.5q0 -184 -53.5 -375.5t-145.5 -331.5q-189 -295 -452 -295q-166 0 -257 114t-91 320zM334 272q0 -239 135 -239q75 0 142.5 89.5t133.5 276.5q63 172 102.5 368.5t39.5 330.5q0 115 -34 175 t-97 60q-75 0 -140.5 -82.5t-130.5 -257.5q-64 -171 -107.5 -379t-43.5 -342zM492 1769h303l55 -258h-64z" />
<glyph unicode="&#xd3;" horiz-adv-x="1062" d="M111 401q0 204 68 418t177 355q176 225 410 225q161 0 252.5 -114.5t91.5 -315.5q0 -184 -53.5 -375.5t-145.5 -331.5q-189 -295 -452 -295q-166 0 -257 114t-91 320zM334 272q0 -239 135 -239q75 0 142.5 89.5t133.5 276.5q63 172 102.5 368.5t39.5 330.5q0 115 -34 175 t-97 60q-75 0 -140.5 -82.5t-130.5 -257.5q-64 -171 -107.5 -379t-43.5 -342zM770 1511l172 258h313l-411 -258h-74z" />
<glyph unicode="&#xd4;" horiz-adv-x="1062" d="M111 401q0 204 68 418t177 355q176 225 410 225q161 0 252.5 -114.5t91.5 -315.5q0 -184 -53.5 -375.5t-145.5 -331.5q-189 -295 -452 -295q-166 0 -257 114t-91 320zM334 272q0 -239 135 -239q75 0 142.5 89.5t133.5 276.5q63 172 102.5 368.5t39.5 330.5q0 115 -34 175 t-97 60q-75 0 -140.5 -82.5t-130.5 -257.5q-64 -171 -107.5 -379t-43.5 -342zM526 1507l326 291h51l158 -291h-72l-162 107l-217 -107h-84z" />
<glyph unicode="&#xd5;" horiz-adv-x="1062" d="M111 401q0 204 68 418t177 355q176 225 410 225q161 0 252.5 -114.5t91.5 -315.5q0 -184 -53.5 -375.5t-145.5 -331.5q-189 -295 -452 -295q-166 0 -257 114t-91 320zM334 272q0 -239 135 -239q75 0 142.5 89.5t133.5 276.5q63 172 102.5 368.5t39.5 330.5q0 115 -34 175 t-97 60q-75 0 -140.5 -82.5t-130.5 -257.5q-64 -171 -107.5 -379t-43.5 -342zM553 1552q69 124 117 170.5t106 46.5q49 0 109 -47q37 -30 55.5 -39.5t36.5 -9.5q30 0 54.5 20.5t66.5 80.5l57 -21q-63 -125 -118 -179t-119 -54q-29 0 -49.5 10.5t-80.5 56.5q-42 33 -69 33 q-28 0 -53.5 -21t-57.5 -71z" />
<glyph unicode="&#xd6;" horiz-adv-x="1062" d="M111 401q0 204 68 418t177 355q176 225 410 225q161 0 252.5 -114.5t91.5 -315.5q0 -184 -53.5 -375.5t-145.5 -331.5q-189 -295 -452 -295q-166 0 -257 114t-91 320zM334 272q0 -239 135 -239q75 0 142.5 89.5t133.5 276.5q63 172 102.5 368.5t39.5 330.5q0 115 -34 175 t-97 60q-75 0 -140.5 -82.5t-130.5 -257.5q-64 -171 -107.5 -379t-43.5 -342zM557 1638q0 60 41 104t98 44q50 0 83.5 -36.5t33.5 -90.5q0 -60 -40.5 -104t-96.5 -44q-51 0 -85 36.5t-34 90.5zM887 1638q0 60 41 104t98 44q50 0 83.5 -36.5t33.5 -90.5q0 -60 -40.5 -104 t-96.5 -44q-51 0 -85 36.5t-34 90.5z" />
<glyph unicode="&#xd7;" d="M119 389l311 297l-168 301l129 125l168 -301l311 295l66 -117l-311 -297l168 -303l-131 -123l-166 301l-312 -297z" />
<glyph unicode="&#xd8;" horiz-adv-x="1062" d="M-45 0l180 205q-24 81 -24 201q0 203 67.5 414.5t177.5 353.5q176 225 406 225q194 0 289 -164l116 131h88l-174 -197q29 -99 29 -196q0 -186 -53.5 -377.5t-145.5 -333.5q-189 -295 -454 -295q-97 0 -172.5 43.5t-118.5 124.5l-121 -135h-90zM334 270q0 -237 135 -237 q54 0 109.5 51t97.5 143q138 295 198 709l-540 -610v-56zM344 438l541 609q2 16 2 47q0 239 -135 239q-141 0 -269 -338q-91 -250 -139 -557z" />
<glyph unicode="&#xd9;" horiz-adv-x="1087" d="M168 266q0 102 37 242l160 645q14 55 14 86t-24.5 43.5t-88.5 13.5l19 76q146 -14 245 -14t254 14l-18 -76q-86 -2 -115.5 -26.5t-52.5 -116.5l-166 -668q-39 -159 -39 -219q0 -77 43.5 -122.5t116.5 -45.5q93 0 165 60.5t118 177.5q26 64 69 239l146 578q16 65 16 84 q0 32 -24 44.5t-87 14.5l21 76q102 -6 170 -6q67 0 172 6l-19 -76q-69 -12 -91 -28q-38 -27 -71 -127q-23 -69 -91 -328l-72 -285q-36 -151 -69.5 -232t-86.5 -149q-64 -82 -154.5 -126t-191.5 -44q-139 0 -222 78.5t-83 210.5zM600 1769h303l53 -258h-61z" />
<glyph unicode="&#xda;" horiz-adv-x="1087" d="M168 266q0 102 37 242l160 645q14 55 14 86t-24.5 43.5t-88.5 13.5l19 76q146 -14 245 -14t254 14l-18 -76q-86 -2 -115.5 -26.5t-52.5 -116.5l-166 -668q-39 -159 -39 -219q0 -77 43.5 -122.5t116.5 -45.5q93 0 165 60.5t118 177.5q26 64 69 239l146 578q16 65 16 84 q0 32 -24 44.5t-87 14.5l21 76q102 -6 170 -6q67 0 172 6l-19 -76q-69 -12 -91 -28q-38 -27 -71 -127q-23 -69 -91 -328l-72 -285q-36 -151 -69.5 -232t-86.5 -149q-64 -82 -154.5 -126t-191.5 -44q-139 0 -222 78.5t-83 210.5zM823 1511l172 258h314l-412 -258h-74z" />
<glyph unicode="&#xdb;" horiz-adv-x="1087" d="M168 266q0 102 37 242l160 645q14 55 14 86t-24.5 43.5t-88.5 13.5l19 76q146 -14 245 -14t254 14l-18 -76q-86 -2 -115.5 -26.5t-52.5 -116.5l-166 -668q-39 -159 -39 -219q0 -77 43.5 -122.5t116.5 -45.5q93 0 165 60.5t118 177.5q26 64 69 239l146 578q16 65 16 84 q0 32 -24 44.5t-87 14.5l21 76q102 -6 170 -6q67 0 172 6l-19 -76q-69 -12 -91 -28q-38 -27 -71 -127q-23 -69 -91 -328l-72 -285q-36 -151 -69.5 -232t-86.5 -149q-64 -82 -154.5 -126t-191.5 -44q-139 0 -222 78.5t-83 210.5zM618 1507l324 291h53l156 -291h-72l-159 107 l-220 -107h-82z" />
<glyph unicode="&#xdc;" horiz-adv-x="1087" d="M168 266q0 102 37 242l160 645q14 55 14 86t-24.5 43.5t-88.5 13.5l19 76q146 -14 245 -14t254 14l-18 -76q-86 -2 -115.5 -26.5t-52.5 -116.5l-166 -668q-39 -159 -39 -219q0 -77 43.5 -122.5t116.5 -45.5q93 0 165 60.5t118 177.5q26 64 69 239l146 578q16 65 16 84 q0 32 -24 44.5t-87 14.5l21 76q102 -6 170 -6q67 0 172 6l-19 -76q-69 -12 -91 -28q-38 -27 -71 -127q-23 -69 -91 -328l-72 -285q-36 -151 -69.5 -232t-86.5 -149q-64 -82 -154.5 -126t-191.5 -44q-139 0 -222 78.5t-83 210.5zM604 1638q0 60 41 104t98 44q50 0 83.5 -36.5 t33.5 -90.5q0 -60 -40.5 -104t-96.5 -44q-51 0 -85 36.5t-34 90.5zM934 1638q0 60 41 104t98 44q50 0 83.5 -36.5t33.5 -90.5q0 -60 -40.5 -104t-96.5 -44q-51 0 -85 36.5t-34 90.5z" />
<glyph unicode="&#xdd;" horiz-adv-x="864" d="M109 -6l18 76q88 3 115 27t49 116l100 401l-67 539q-12 73 -40 106.5t-81 36.5l16 76q126 -14 230 -14q105 0 239 14l-18 -76q-63 -5 -87 -22t-24 -60q0 -38 2 -61l45 -438l260 432q41 71 41 110q0 43 -59 43q-15 0 -27 -2l-4 68q163 12 254 68q4 -20 4 -45 q0 -37 -12 -68.5t-51 -93.5l-394 -625l-94 -389q-14 -62 -14 -86q0 -29 19 -42t61 -15h14l-18 -76q-143 14 -236 14t-241 -14zM698 1511l172 258h314l-414 -258h-72z" />
<glyph unicode="&#xde;" horiz-adv-x="940" d="M-49 -6l18 76q89 3 118 26.5t52 114.5l234 936q14 57 14 86q0 31 -24.5 43.5t-88.5 13.5l19 76q143 -14 248 -14q106 0 252 14l-19 -76q-85 -3 -113.5 -25.5t-50.5 -103.5h60q103 0 154.5 -9t88.5 -34q49 -31 77 -90t28 -131q0 -119 -46.5 -233.5t-121.5 -180.5 q-123 -108 -320 -108h-116l-41 -164q-13 -57 -13 -82q0 -32 24.5 -45t90.5 -14l-18 -76q-143 14 -248 14q-110 0 -258 -14zM434 453h41q79 0 134 35.5t96 113.5q35 67 58 158.5t23 163.5q0 86 -37 122.5t-122 36.5h-37z" />
<glyph unicode="&#xdf;" horiz-adv-x="890" d="M-215 -397l18 73q44 11 71 22t54 37t43.5 56.5t38.5 94.5t40.5 136t47.5 195q9 37 21 78l166 668q54 222 143 311q105 102 268 102q120 0 184 -59.5t64 -171.5q0 -82 -30.5 -160t-84.5 -133q-38 -39 -76.5 -60.5t-99.5 -39.5q106 -34 152.5 -97.5t46.5 -175.5 q0 -91 -31.5 -185.5t-85.5 -168.5q-51 -70 -119.5 -109t-140.5 -39q-58 0 -110 46l16 67q39 -20 63 -20q74 0 131 137q31 75 50.5 166.5t19.5 161.5q0 82 -31 121.5t-106 52.5l16 65q69 8 108 43.5t73 124.5q24 64 39.5 140.5t15.5 129.5q0 46 -19.5 71.5t-54.5 25.5 q-52 0 -82 -44t-59 -163l-195 -785q-74 -267 -98.5 -332.5t-83.5 -160.5q-75 -106 -175.5 -164t-207.5 -57z" />
<glyph unicode="&#xe0;" horiz-adv-x="907" d="M47 283q0 88 29 195t78 204q72 146 170 226.5t204 80.5q59 0 90.5 -24t43.5 -78l22 82q100 0 227 20l-186 -672q-35 -128 -35 -176q0 -21 8 -35t19 -14q23 0 46.5 29.5t57.5 101.5l56 -30q-49 -114 -104.5 -165t-129.5 -51q-129 0 -160 144q-43 -75 -91 -109.5 t-109 -34.5q-109 0 -172.5 82.5t-63.5 223.5zM250 150q0 -55 16.5 -85t46.5 -30q43 0 85 61t89 193q48 136 84.5 294t36.5 228q0 121 -65 121q-41 0 -78 -54.5t-90 -191.5q-51 -137 -88 -294.5t-37 -241.5zM401 1403h304l24 -285h-61z" />
<glyph unicode="&#xe1;" horiz-adv-x="907" d="M47 283q0 88 29 195t78 204q72 146 170 226.5t204 80.5q59 0 90.5 -24t43.5 -78l22 82q100 0 227 20l-186 -672q-35 -128 -35 -176q0 -21 8 -35t19 -14q23 0 46.5 29.5t57.5 101.5l56 -30q-49 -114 -104.5 -165t-129.5 -51q-129 0 -160 144q-43 -75 -91 -109.5 t-109 -34.5q-109 0 -172.5 82.5t-63.5 223.5zM250 150q0 -55 16.5 -85t46.5 -30q43 0 85 61t89 193q48 136 84.5 294t36.5 228q0 121 -65 121q-41 0 -78 -54.5t-90 -191.5q-51 -137 -88 -294.5t-37 -241.5zM592 1116l168 287h303l-397 -287h-74z" />
<glyph unicode="&#xe2;" horiz-adv-x="907" d="M47 283q0 88 29 195t78 204q72 146 170 226.5t204 80.5q59 0 90.5 -24t43.5 -78l22 82q100 0 227 20l-186 -672q-35 -128 -35 -176q0 -21 8 -35t19 -14q23 0 46.5 29.5t57.5 101.5l56 -30q-49 -114 -104.5 -165t-129.5 -51q-129 0 -160 144q-43 -75 -91 -109.5 t-109 -34.5q-109 0 -172.5 82.5t-63.5 223.5zM250 150q0 -55 16.5 -85t46.5 -30q43 0 85 61t89 193q48 136 84.5 294t36.5 228q0 121 -65 121q-41 0 -78 -54.5t-90 -191.5q-51 -137 -88 -294.5t-37 -241.5zM373 1114l325 291h52l157 -291h-71l-162 107l-217 -107h-84z" />
<glyph unicode="&#xe3;" horiz-adv-x="907" d="M47 283q0 88 29 195t78 204q72 146 170 226.5t204 80.5q59 0 90.5 -24t43.5 -78l22 82q100 0 227 20l-186 -672q-35 -128 -35 -176q0 -21 8 -35t19 -14q23 0 46.5 29.5t57.5 101.5l56 -30q-49 -114 -104.5 -165t-129.5 -51q-129 0 -160 144q-43 -75 -91 -109.5 t-109 -34.5q-109 0 -172.5 82.5t-63.5 223.5zM250 150q0 -55 16.5 -85t46.5 -30q43 0 85 61t89 193q48 136 84.5 294t36.5 228q0 121 -65 121q-41 0 -78 -54.5t-90 -191.5q-51 -137 -88 -294.5t-37 -241.5zM375 1161q72 127 118 172t105 45q51 0 109 -47q39 -31 57 -40 t37 -9q29 0 53.5 21t65.5 81l59 -22q-63 -123 -119 -177.5t-119 -54.5q-28 0 -48 10.5t-83 57.5q-45 31 -69 31q-27 0 -52.5 -21t-56.5 -69z" />
<glyph unicode="&#xe4;" horiz-adv-x="907" d="M47 283q0 88 29 195t78 204q72 146 170 226.5t204 80.5q59 0 90.5 -24t43.5 -78l22 82q100 0 227 20l-186 -672q-35 -128 -35 -176q0 -21 8 -35t19 -14q23 0 46.5 29.5t57.5 101.5l56 -30q-49 -114 -104.5 -165t-129.5 -51q-129 0 -160 144q-43 -75 -91 -109.5 t-109 -34.5q-109 0 -172.5 82.5t-63.5 223.5zM250 150q0 -55 16.5 -85t46.5 -30q43 0 85 61t89 193q48 136 84.5 294t36.5 228q0 121 -65 121q-41 0 -78 -54.5t-90 -191.5q-51 -137 -88 -294.5t-37 -241.5zM406 1255q0 58 40.5 101t94.5 43q47 0 80.5 -36t33.5 -87 q0 -60 -39.5 -103t-93.5 -43q-51 0 -83.5 35.5t-32.5 89.5zM711 1255q0 58 40.5 101t94.5 43q47 0 81 -36t34 -87q0 -60 -40 -103t-94 -43q-50 0 -83 35.5t-33 89.5z" />
<glyph unicode="&#xe5;" horiz-adv-x="907" d="M47 283q0 88 29 195t78 204q72 146 170 226.5t204 80.5q59 0 90.5 -24t43.5 -78l22 82q102 0 227 20l-186 -672q-35 -128 -35 -176q0 -21 8 -35t19 -14q23 0 46.5 29.5t57.5 101.5l56 -30q-49 -114 -104.5 -165t-129.5 -51q-129 0 -160 144q-43 -75 -91 -109.5 t-109 -34.5q-109 0 -172.5 82.5t-63.5 223.5zM250 150q0 -55 16.5 -85t46.5 -30q43 0 85 61t89 193q48 136 84.5 294t36.5 228q0 121 -65 121q-41 0 -78 -54.5t-90 -191.5q-51 -137 -88 -294.5t-37 -241.5zM483 1268q0 77 52 132.5t124 55.5q65 0 109.5 -49t44.5 -119 q0 -76 -51.5 -132t-122.5 -56q-66 0 -111 48.5t-45 119.5zM565 1272q0 -37 22 -62.5t54 -25.5q36 0 62 30t26 70q0 37 -22 62.5t-54 25.5q-37 0 -62.5 -29.5t-25.5 -70.5z" />
<glyph unicode="&#xe6;" horiz-adv-x="1206" d="M47 283q0 87 28.5 193.5t78.5 205.5q72 146 170 226.5t204 80.5q59 0 90.5 -24t43.5 -78l22 82q97 0 215 20l-27 -94q64 94 160 94q91 0 148 -59.5t57 -153.5q0 -157 -141 -273t-348 -128q-21 -91 -21 -154q0 -72 32.5 -117t84.5 -45q67 0 131 65t110 181h80 q-62 -158 -161.5 -243t-225.5 -85q-191 0 -241 181q-65 -100 -121 -140.5t-131 -40.5q-110 0 -174 82.5t-64 223.5zM250 147q0 -53 16.5 -82.5t46.5 -29.5q43 0 85 61.5t89 192.5q48 136 84.5 294t36.5 228q0 121 -65 121q-41 0 -78 -54.5t-90 -191.5q-52 -135 -88.5 -293.5 t-36.5 -245.5zM764 449q15 0 29 2q100 5 180 124.5t80 264.5q0 41 -12.5 65.5t-32.5 24.5q-57 0 -126 -135.5t-118 -345.5z" />
<glyph unicode="&#xe7;" horiz-adv-x="727" d="M55 287q0 108 26.5 214.5t73.5 194t107.5 155t134 105t148.5 37.5q70 0 145 -41q42 -20 60 -20q16 0 49 26l-76 -350h-64q17 81 17 135q0 85 -26 134t-72 49q-55 0 -107 -62t-106 -192q-43 -108 -70 -223.5t-27 -194.5q0 -94 31.5 -144.5t89.5 -50.5q64 0 124 70t101 195 h78q-56 -168 -144.5 -257.5t-203.5 -93.5l-57 -79q63 -2 92 -26.5t29 -78.5q0 -80 -62 -136t-151 -56q-58 0 -127 34l18 64q47 -19 76 -19q37 0 61.5 29t24.5 72q0 29 -20.5 46t-57.5 17h-8l100 140q-99 22 -153 101.5t-54 205.5z" />
<glyph unicode="&#xe8;" horiz-adv-x="737" d="M51 276q0 133 47.5 278.5t124.5 248.5q141 186 330 186q98 0 156.5 -57.5t58.5 -155.5q0 -97 -57 -180t-164 -145q-116 -65 -268 -76q-21 -95 -21 -152q0 -74 32.5 -119t84.5 -45q67 0 131 65t110 181h80q-62 -158 -161.5 -243t-223.5 -85q-119 0 -189.5 81.5 t-70.5 217.5zM297 449q13 0 29 2q98 5 178 124.5t80 264.5q0 42 -13 67t-36 25q-56 0 -123.5 -136t-114.5 -347zM332 1403h303l24 -285h-61z" />
<glyph unicode="&#xe9;" horiz-adv-x="737" d="M51 276q0 133 47.5 278.5t124.5 248.5q141 186 330 186q98 0 156.5 -57.5t58.5 -155.5q0 -97 -57 -180t-164 -145q-116 -65 -268 -76q-21 -95 -21 -152q0 -74 32.5 -119t84.5 -45q67 0 131 65t110 181h80q-62 -158 -161.5 -243t-223.5 -85q-119 0 -189.5 81.5 t-70.5 217.5zM297 449q13 0 29 2q98 5 178 124.5t80 264.5q0 42 -13 67t-36 25q-56 0 -123.5 -136t-114.5 -347zM522 1116l168 287h303l-397 -287h-74z" />
<glyph unicode="&#xea;" horiz-adv-x="737" d="M51 276q0 133 47.5 278.5t124.5 248.5q141 186 330 186q98 0 156.5 -57.5t58.5 -155.5q0 -97 -57 -180t-164 -145q-116 -65 -268 -76q-21 -95 -21 -152q0 -74 32.5 -119t84.5 -45q67 0 131 65t110 181h80q-62 -158 -161.5 -243t-223.5 -85q-119 0 -189.5 81.5 t-70.5 217.5zM291 1114l323 291h54l157 -291h-73l-160 107l-217 -107h-84zM297 449q13 0 29 2q98 5 178 124.5t80 264.5q0 42 -13 67t-36 25q-56 0 -123.5 -136t-114.5 -347z" />
<glyph unicode="&#xeb;" horiz-adv-x="737" d="M51 276q0 133 47.5 278.5t124.5 248.5q141 186 330 186q98 0 156.5 -57.5t58.5 -155.5q0 -97 -57 -180t-164 -145q-116 -65 -268 -76q-21 -95 -21 -152q0 -74 32.5 -119t84.5 -45q67 0 131 65t110 181h80q-62 -158 -161.5 -243t-223.5 -85q-119 0 -189.5 81.5 t-70.5 217.5zM297 449q13 0 29 2q98 5 178 124.5t80 264.5q0 42 -13 67t-36 25q-56 0 -123.5 -136t-114.5 -347zM336 1255q0 58 40.5 101t94.5 43q47 0 81 -36t34 -87q0 -60 -39.5 -103t-93.5 -43q-51 0 -84 35.5t-33 89.5zM641 1255q0 58 40.5 101t94.5 43q47 0 81 -36 t34 -87q0 -60 -39.5 -103t-93.5 -43q-50 0 -83.5 35.5t-33.5 89.5z" />
<glyph unicode="&#xec;" horiz-adv-x="528" d="M92 150q0 60 41 212l111 410q12 40 12 72q0 23 -18.5 30t-77.5 7l16 53q169 16 359 72l-203 -750q-25 -93 -25 -123q0 -43 25 -43q23 0 40 26.5t48 110.5l53 -18q-56 -232 -219 -232q-72 0 -117 49t-45 124zM203 1403h303l26 -285h-63z" />
<glyph unicode="&#xed;" horiz-adv-x="528" d="M92 150q0 60 41 212l111 410q12 40 12 72q0 23 -18.5 30t-77.5 7l16 53q169 16 359 72l-203 -750q-25 -93 -25 -123q0 -43 25 -43q23 0 40 26.5t48 110.5l53 -18q-56 -232 -219 -232q-72 0 -117 49t-45 124zM391 1116l168 287h303l-399 -287h-72z" />
<glyph unicode="&#xee;" horiz-adv-x="528" d="M92 150q0 60 41 212l111 410q12 40 12 72q0 23 -18.5 30t-77.5 7l16 53q169 16 359 72l-203 -750q-25 -93 -25 -123q0 -43 25 -43q23 0 40 26.5t48 110.5l53 -18q-56 -232 -219 -232q-72 0 -117 49t-45 124zM164 1114l303 291h53l135 -291h-71l-140 107l-198 -107h-82z " />
<glyph unicode="&#xef;" horiz-adv-x="528" d="M92 150q0 60 41 212l111 410q12 40 12 72q0 23 -18.5 30t-77.5 7l16 53q169 16 359 72l-203 -750q-25 -93 -25 -123q0 -43 25 -43q23 0 40 26.5t48 110.5l53 -18q-56 -232 -219 -232q-72 0 -117 49t-45 124zM205 1255q0 58 39 101t92 43q46 0 78 -35.5t32 -87.5 q0 -58 -38 -100.5t-91 -42.5q-47 0 -79.5 35t-32.5 87zM492 1255q0 58 39.5 101t93.5 43q46 0 78 -35.5t32 -87.5q0 -59 -38.5 -101t-92.5 -42q-47 0 -79.5 35t-32.5 87z" />
<glyph unicode="&#xf0;" horiz-adv-x="821" d="M57 311q0 115 41.5 246t108.5 229q68 98 154.5 150.5t181.5 52.5q31 0 75 -12l-4 160l-125 -41l-14 80l135 43l-8 165l53 19l47 -156l142 45l12 -78l-133 -43l74 -243q34 -109 34 -228q0 -131 -43 -277.5t-110 -242.5q-68 -98 -154.5 -150.5t-181.5 -52.5q-129 0 -207 91 t-78 243zM260 166q0 -60 23 -95.5t61 -35.5q55 0 98.5 69t89.5 228q82 283 82 471q0 129 -69 129q-53 0 -96.5 -66t-90.5 -219q-44 -140 -71 -271.5t-27 -209.5z" />
<glyph unicode="&#xf1;" horiz-adv-x="952" d="M45 0l182 731l6 29l7 31q6 27 6 45q0 25 -20 33t-79 10l15 53q174 18 297 59q4 -46 4 -51q0 -34 -6 -80q102 129 243 129q81 0 131 -49t50 -127q0 -65 -31 -192l-70 -283q-30 -121 -35.5 -148t-5.5 -51q0 -49 33 -49q25 0 44 30.5t42 106.5l53 -16q-53 -234 -217 -234 q-73 0 -122.5 49.5t-49.5 123.5q0 56 29 169l88 361q16 59 16 113q0 38 -16.5 63t-42.5 25q-55 0 -94 -56t-70 -178l-162 -647h-225zM346 1161q70 126 117 171.5t106 45.5q49 0 109 -47q38 -30 55.5 -39.5t36.5 -9.5q29 0 54.5 21t66.5 81l57 -22q-63 -124 -118 -178 t-119 -54q-27 0 -47.5 11t-81.5 57q-45 31 -70 31q-27 0 -52.5 -21t-58.5 -69z" />
<glyph unicode="&#xf2;" horiz-adv-x="823" d="M61 311q0 134 44.5 271.5t119.5 232.5q64 84 149.5 129t178.5 45q123 0 195.5 -89.5t72.5 -242.5q0 -124 -38 -251.5t-103 -223.5q-69 -100 -158.5 -152.5t-189.5 -52.5q-127 0 -199 88.5t-72 245.5zM262 172q0 -137 80 -137q47 0 86.5 55t85.5 184q47 133 77 281.5 t30 247.5q0 61 -20.5 95t-57.5 34q-101 0 -187 -283q-94 -300 -94 -477zM344 1403h303l25 -285h-62z" />
<glyph unicode="&#xf3;" horiz-adv-x="823" d="M61 311q0 134 44.5 271.5t119.5 232.5q64 84 149.5 129t178.5 45q123 0 195.5 -89.5t72.5 -242.5q0 -124 -38 -251.5t-103 -223.5q-69 -100 -158.5 -152.5t-189.5 -52.5q-127 0 -199 88.5t-72 245.5zM262 172q0 -137 80 -137q47 0 86.5 55t85.5 184q47 133 77 281.5 t30 247.5q0 61 -20.5 95t-57.5 34q-101 0 -187 -283q-94 -300 -94 -477zM553 1116l170 287h301l-397 -287h-74z" />
<glyph unicode="&#xf4;" horiz-adv-x="823" d="M61 311q0 134 44.5 271.5t119.5 232.5q64 84 149.5 129t178.5 45q123 0 195.5 -89.5t72.5 -242.5q0 -124 -38 -251.5t-103 -223.5q-69 -100 -158.5 -152.5t-189.5 -52.5q-127 0 -199 88.5t-72 245.5zM262 172q0 -137 80 -137q47 0 86.5 55t85.5 184q47 133 77 281.5 t30 247.5q0 61 -20.5 95t-57.5 34q-101 0 -187 -283q-94 -300 -94 -477zM326 1114l323 291h53l156 -291h-72l-159 107l-219 -107h-82z" />
<glyph unicode="&#xf5;" horiz-adv-x="823" d="M61 311q0 134 44.5 271.5t119.5 232.5q64 84 149.5 129t178.5 45q123 0 195.5 -89.5t72.5 -242.5q0 -124 -38 -251.5t-103 -223.5q-69 -100 -158.5 -152.5t-189.5 -52.5q-127 0 -199 88.5t-72 245.5zM262 172q0 -137 80 -137q47 0 86.5 55t85.5 184q47 133 77 281.5 t30 247.5q0 61 -20.5 95t-57.5 34q-101 0 -187 -283q-94 -300 -94 -477zM346 1161q72 127 118 172t105 45q51 0 109 -47q39 -31 57 -40t37 -9q29 0 53.5 21t65.5 81l59 -22q-63 -123 -118.5 -177.5t-118.5 -54.5q-28 0 -48 10.5t-83 57.5q-45 31 -70 31q-27 0 -52.5 -21 t-56.5 -69z" />
<glyph unicode="&#xf6;" horiz-adv-x="823" d="M61 311q0 134 44.5 271.5t119.5 232.5q64 84 149.5 129t178.5 45q123 0 195.5 -89.5t72.5 -242.5q0 -124 -38 -251.5t-103 -223.5q-69 -100 -158.5 -152.5t-189.5 -52.5q-127 0 -199 88.5t-72 245.5zM262 172q0 -137 80 -137q47 0 86.5 55t85.5 184q47 133 77 281.5 t30 247.5q0 61 -20.5 95t-57.5 34q-101 0 -187 -283q-94 -300 -94 -477zM367 1255q0 58 40.5 101t94.5 43q47 0 80.5 -36t33.5 -87q0 -60 -39.5 -103t-93.5 -43q-51 0 -83.5 35.5t-32.5 89.5zM674 1255q0 59 40 101.5t95 42.5q47 0 80 -36t33 -87q0 -60 -40 -103t-94 -43 q-49 0 -81.5 36t-32.5 89z" />
<glyph unicode="&#xf7;" d="M139 606l41 164h733l-39 -164h-735zM322 346q0 55 39.5 95t93.5 40q47 0 79.5 -33.5t32.5 -82.5q0 -56 -38.5 -97t-92.5 -41q-49 0 -81.5 34t-32.5 85zM487 1018q0 55 40 95t94 40q47 0 79.5 -34t32.5 -83q0 -56 -38.5 -96.5t-92.5 -40.5q-49 0 -82 34t-33 85z" />
<glyph unicode="&#xf8;" horiz-adv-x="823" d="M-59 -23l147 164q-29 73 -29 170q0 135 44.5 271t119.5 233q64 83 150 128.5t178 45.5q138 0 209 -106l94 104h84l-147 -162q28 -73 28 -168q0 -124 -38 -252.5t-103 -222.5q-142 -205 -348 -205q-143 0 -211 109l-99 -109h-79zM260 172q0 -137 80 -137q71 0 127 127 q86 197 131 452l-332 -366q-6 -50 -6 -76zM281 352l333 369q4 66 4 84q0 61 -20 94t-57 33q-100 0 -187 -283q-49 -156 -73 -297z" />
<glyph unicode="&#xf9;" horiz-adv-x="956" d="M102 180q0 50 21 139l104 416q21 79 21 107q0 39 -72 39h-24l12 53q177 16 356 72l-174 -705q-20 -78 -20 -119q0 -43 14.5 -69.5t40.5 -26.5q113 0 184 279l150 604q119 2 231 20l-166 -667q-30 -113 -30 -166q0 -25 10.5 -41.5t27.5 -16.5q26 0 46.5 27.5t48.5 99.5 l51 -28q-44 -112 -97.5 -163.5t-125.5 -51.5q-71 0 -108 41t-44 127q-68 -89 -130.5 -128.5t-137.5 -39.5q-88 0 -138.5 53t-50.5 145zM406 1403h301l26 -285h-61z" />
<glyph unicode="&#xfa;" horiz-adv-x="956" d="M102 180q0 50 21 139l104 416q21 79 21 107q0 39 -72 39h-24l12 53q177 16 356 72l-174 -705q-20 -78 -20 -119q0 -43 14.5 -69.5t40.5 -26.5q113 0 184 279l150 604q119 2 231 20l-166 -667q-30 -113 -30 -166q0 -25 10.5 -41.5t27.5 -16.5q26 0 46.5 27.5t48.5 99.5 l51 -28q-44 -112 -97.5 -163.5t-125.5 -51.5q-71 0 -108 41t-44 127q-68 -89 -130.5 -128.5t-137.5 -39.5q-88 0 -138.5 53t-50.5 145zM598 1116l170 287h301l-397 -287h-74z" />
<glyph unicode="&#xfb;" horiz-adv-x="956" d="M102 180q0 50 21 139l104 416q21 79 21 107q0 39 -72 39h-24l12 53q177 16 356 72l-174 -705q-20 -78 -20 -119q0 -43 14.5 -69.5t40.5 -26.5q113 0 184 279l150 604q119 2 231 20l-166 -667q-30 -113 -30 -166q0 -25 10.5 -41.5t27.5 -16.5q26 0 46.5 27.5t48.5 99.5 l51 -28q-44 -112 -97.5 -163.5t-125.5 -51.5q-71 0 -108 41t-44 127q-68 -89 -130.5 -128.5t-137.5 -39.5q-88 0 -138.5 53t-50.5 145zM367 1114l325 291h53l156 -291h-72l-161 107l-217 -107h-84z" />
<glyph unicode="&#xfc;" horiz-adv-x="956" d="M102 180q0 50 21 139l104 416q21 79 21 107q0 39 -72 39h-24l12 53q177 16 356 72l-174 -705q-20 -78 -20 -119q0 -43 14.5 -69.5t40.5 -26.5q113 0 184 279l150 604q119 2 231 20l-166 -667q-30 -113 -30 -166q0 -25 10.5 -41.5t27.5 -16.5q26 0 46.5 27.5t48.5 99.5 l51 -28q-44 -112 -97.5 -163.5t-125.5 -51.5q-71 0 -108 41t-44 127q-68 -89 -130.5 -128.5t-137.5 -39.5q-88 0 -138.5 53t-50.5 145zM387 1255q0 59 40 101.5t95 42.5q47 0 80 -36t33 -87q0 -60 -39.5 -103t-93.5 -43q-50 0 -82.5 35.5t-32.5 89.5zM692 1255 q0 58 40.5 101t94.5 43q47 0 81 -36t34 -87q0 -60 -39.5 -103t-93.5 -43q-50 0 -83.5 35.5t-33.5 89.5z" />
<glyph unicode="&#xfd;" horiz-adv-x="739" d="M-154 -410l7 144q49 -27 88 -27q58 0 121 61.5t149 204.5l47 78l-74 727q-9 82 -26.5 106.5t-69.5 30.5l14 58q108 -10 207 -10t219 10l-14 -58q-58 -4 -76 -18.5t-18 -54.5l33 -463l221 381q7 8 20 35q39 61 39 92q0 37 -43 37q-21 0 -33 -2l-4 55q82 12 123 25t88 42 q6 -46 6 -53q0 -38 -12.5 -67.5t-69.5 -126.5l-538 -899q-39 -66 -89 -135.5t-75 -94.5q-84 -78 -201 -78h-39zM539 1116l168 287h303l-400 -287h-71z" />
<glyph unicode="&#xfe;" horiz-adv-x="880" d="M-55 -403l282 1136h2l107 434q12 47 12 70q0 41 -88 41h-8l12 53q165 13 359 72l-119 -473q67 59 147 59q106 0 168 -84t62 -225q0 -134 -44 -271t-120 -243q-136 -189 -303 -189q-96 0 -129 74l-115 -454h-225zM332 160q0 -125 69 -125q100 0 185 295q40 131 67 273 t27 214q0 55 -16.5 85t-45.5 30q-57 0 -107 -90t-103 -283q-76 -272 -76 -399z" />
<glyph unicode="&#xff;" horiz-adv-x="739" d="M-154 -410l7 144q49 -27 88 -27q58 0 121 61.5t149 204.5l47 78l-74 727q-9 82 -26.5 106.5t-69.5 30.5l14 58q108 -10 207 -10t219 10l-14 -58q-58 -4 -76 -18.5t-18 -54.5l33 -463l221 381q7 8 20 35q39 61 39 92q0 37 -43 37q-21 0 -33 -2l-4 55q82 12 123 25t88 42 q6 -46 6 -53q0 -38 -12.5 -67.5t-69.5 -126.5l-538 -899q-39 -66 -89 -135.5t-75 -94.5q-84 -78 -201 -78h-39zM285 1255q0 59 40 101.5t95 42.5q47 0 79.5 -36t32.5 -87q0 -60 -39.5 -103t-93.5 -43q-49 0 -81.5 35.5t-32.5 89.5zM590 1255q0 58 40.5 101t94.5 43 q47 0 81 -36t34 -87q0 -60 -39.5 -103t-93.5 -43q-50 0 -83.5 35.5t-33.5 89.5z" />
<glyph unicode="&#x152;" horiz-adv-x="1505" d="M111 406q0 205 66.5 412t176.5 347q83 107 186.5 165.5t209.5 58.5q149 0 219 -146l30 123h623l-45 -360h-66q5 59 5 96q0 107 -36.5 146.5t-136.5 39.5h-131l-133 -534h310l-25 -92h-307l-113 -449q-16 -69 -16 -90q0 -45 80 -45h49q79 0 129.5 28t107.5 105 q53 70 101 168h65l-145 -379h-658l23 88q-54 -59 -108 -85t-123 -26q-71 0 -136.5 30.5t-109.5 84.5q-92 109 -92 314zM334 283q0 -240 137 -240q147 0 277 360q60 171 98.5 363.5t38.5 325.5q0 114 -34 173.5t-99 59.5q-74 0 -140 -82t-129 -252q-64 -169 -106.5 -372 t-42.5 -336z" />
<glyph unicode="&#x153;" horiz-adv-x="1230" d="M61 309q0 135 44.5 272t119.5 234q65 83 149 128.5t175 45.5q143 0 207 -141q129 141 291 141q98 0 156.5 -57.5t58.5 -155.5q0 -157 -141.5 -273t-348.5 -128q-20 -94 -20 -154q0 -73 32 -117.5t86 -44.5q66 0 130.5 65.5t111.5 180.5h78q-62 -158 -161.5 -243 t-223.5 -85q-151 0 -223 132q-111 -132 -256 -132q-122 0 -193.5 89.5t-71.5 242.5zM262 172q0 -137 78 -137q47 0 86.5 54.5t85.5 184.5q47 134 76.5 282.5t29.5 248.5q0 60 -20 93.5t-57 33.5q-100 0 -187 -283q-92 -300 -92 -477zM791 449q12 0 28 2q98 5 178 124.5 t80 264.5q0 42 -13 67t-36 25q-56 0 -123 -136t-114 -347z" />
<glyph unicode="&#x178;" horiz-adv-x="864" d="M109 -6l18 76q88 3 115 27t49 116l100 401l-67 539q-12 73 -40 106.5t-81 36.5l16 76q126 -14 230 -14q105 0 239 14l-18 -76q-63 -5 -87 -22t-24 -60q0 -38 2 -61l45 -438l260 432q41 71 41 110q0 43 -59 43q-15 0 -27 -2l-4 68q163 12 254 68q4 -20 4 -45 q0 -37 -12 -68.5t-51 -93.5l-394 -625l-94 -389q-14 -62 -14 -86q0 -29 19 -42t61 -15h14l-18 -76q-143 14 -236 14t-241 -14zM477 1638q0 60 41 104t98 44q50 0 83.5 -36.5t33.5 -90.5q0 -60 -40.5 -104t-96.5 -44q-51 0 -85 36.5t-34 90.5zM807 1638q0 60 41 104t98 44 q50 0 83.5 -36.5t33.5 -90.5q0 -60 -40.5 -104t-96.5 -44q-51 0 -85 36.5t-34 90.5z" />
<glyph unicode="&#x2c6;" horiz-adv-x="819" d="M319 1114l326 291h51l158 -291h-74l-159 107l-218 -107h-84z" />
<glyph unicode="&#x2dc;" horiz-adv-x="819" d="M326 1161q72 127 118 172t105 45q48 0 108 -47q61 -49 93 -49q30 0 54 20.5t66 81.5l58 -22q-63 -123 -118 -177.5t-118 -54.5q-28 0 -48 10.5t-83 57.5q-45 31 -69 31q-27 0 -52.5 -21t-58.5 -69z" />
<glyph unicode="&#x2000;" horiz-adv-x="925" />
<glyph unicode="&#x2001;" horiz-adv-x="1851" />
<glyph unicode="&#x2002;" horiz-adv-x="925" />
<glyph unicode="&#x2003;" horiz-adv-x="1851" />
<glyph unicode="&#x2004;" horiz-adv-x="617" />
<glyph unicode="&#x2005;" horiz-adv-x="462" />
<glyph unicode="&#x2006;" horiz-adv-x="308" />
<glyph unicode="&#x2007;" horiz-adv-x="308" />
<glyph unicode="&#x2008;" horiz-adv-x="231" />
<glyph unicode="&#x2009;" horiz-adv-x="370" />
<glyph unicode="&#x200a;" horiz-adv-x="102" />
<glyph unicode="&#x2010;" horiz-adv-x="360" d="M6 397l51 205h361l-51 -205h-361z" />
<glyph unicode="&#x2011;" horiz-adv-x="360" d="M6 397l51 205h361l-51 -205h-361z" />
<glyph unicode="&#x2012;" horiz-adv-x="360" d="M6 397l51 205h361l-51 -205h-361z" />
<glyph unicode="&#x2013;" d="M129 397l51 205h651l-51 -205h-651z" />
<glyph unicode="&#x2014;" horiz-adv-x="1042" d="M6 397l51 205h1043l-51 -205h-1043z" />
<glyph unicode="&#x2018;" horiz-adv-x="391" d="M238 1028q0 75 70.5 182t168.5 179h88q-111 -92 -157 -224q84 -18 84 -110q0 -60 -41.5 -104t-98.5 -44q-49 0 -81.5 34t-32.5 87z" />
<glyph unicode="&#x2019;" horiz-adv-x="391" d="M217 907q106 100 154 217q-84 9 -84 101q0 66 45.5 115t107.5 49q46 0 74.5 -30t28.5 -77q0 -81 -66.5 -183t-177.5 -192h-82z" />
<glyph unicode="&#x201a;" horiz-adv-x="391" d="M-63 -215q104 98 153 217q-84 9 -84 100q0 66 46 115t108 49q46 0 74 -29.5t28 -76.5q0 -81 -66.5 -183t-177.5 -192h-81z" />
<glyph unicode="&#x201c;" horiz-adv-x="692" d="M238 1028q0 75 70.5 182t168.5 179h88q-111 -92 -157 -224q84 -18 84 -110q0 -60 -41.5 -104t-98.5 -44q-49 0 -81.5 34t-32.5 87zM539 1028q0 75 70.5 182t168.5 179h88q-111 -92 -157 -224q84 -18 84 -110q0 -60 -41.5 -104t-98.5 -44q-49 0 -81.5 34t-32.5 87z" />
<glyph unicode="&#x201d;" horiz-adv-x="692" d="M215 907q116 99 156 226q-82 15 -82 108q0 60 41 104t98 44q50 0 82.5 -34.5t32.5 -86.5q0 -75 -70.5 -180.5t-171.5 -180.5h-86zM516 907q115 98 158 226q-84 15 -84 108q0 60 41 104t98 44q50 0 82.5 -34.5t32.5 -86.5q0 -75 -70.5 -181.5t-169.5 -179.5h-88z" />
<glyph unicode="&#x201e;" horiz-adv-x="692" d="M-53 -215q115 98 155 223q-82 19 -82 111q0 60 41.5 103.5t98.5 43.5q49 0 81.5 -34t32.5 -87q0 -75 -70 -180t-171 -180h-86zM248 -215q115 98 158 223q-84 18 -84 111q0 60 41 103.5t98 43.5q49 0 81.5 -34t32.5 -87q0 -75 -70 -181t-169 -179h-88z" />
<glyph unicode="&#x2022;" horiz-adv-x="1366" d="M422 692q0 120 83.5 202.5t205.5 82.5q114 0 196 -83.5t82 -199.5q0 -118 -82.5 -201t-199.5 -83t-201 82.5t-84 199.5z" />
<glyph unicode="&#x2026;" horiz-adv-x="1269" d="M29 119q0 63 43.5 109t103.5 46q53 0 89 -39t36 -96q0 -64 -43 -110.5t-102 -46.5q-54 0 -90.5 39.5t-36.5 97.5zM449 119q0 63 44 109t105 46q53 0 89 -39t36 -96q0 -64 -44 -110.5t-104 -46.5q-54 0 -90 39t-36 98zM870 119q0 63 44 109t104 46q53 0 89 -39t36 -96 q0 -64 -43.5 -110.5t-102.5 -46.5q-54 0 -90.5 39.5t-36.5 97.5z" />
<glyph unicode="&#x202f;" horiz-adv-x="370" />
<glyph unicode="&#x2039;" horiz-adv-x="444" d="M76 487l366 478h58l-217 -478l-25 -487h-49z" />
<glyph unicode="&#x203a;" horiz-adv-x="444" d="M0 0l215 477l27 488h49l133 -488l-369 -477h-55z" />
<glyph unicode="&#x205f;" horiz-adv-x="462" />
<glyph unicode="&#x20ac;" d="M-29 539l52 77h106q11 68 27 127h-133l51 78h104q85 268 244 423t350 155q67 0 112.5 -15t121.5 -61q38 -23 59 -23q18 0 65 31l-88 -403h-65q2 39 2 86q0 138 -48.5 217.5t-131.5 79.5q-119 0 -211.5 -118.5t-171.5 -371.5h504l-52 -78h-473q-16 -61 -26 -127h417 l-51 -77h-379q-8 -73 -8 -123q0 -153 52 -226t161 -73q68 0 125.5 22.5t118.5 73.5q15 12 96 84l-33 -147q-108 -99 -197.5 -141t-191.5 -42q-173 0 -269.5 120t-96.5 337q0 42 6 115h-148z" />
<glyph unicode="&#x2122;" horiz-adv-x="1333" d="M160 582l12 53q53 2 68.5 14t27.5 62l150 602q-54 1 -93 -37.5t-77 -132.5h-53l88 223h452l-26 -223h-52q2 29 2 55q0 64 -19.5 89.5t-70.5 25.5l-149 -602q-8 -33 -8 -47q0 -15 14 -21.5t53 -7.5l-14 -53q-95 10 -152 10q-55 0 -153 -10zM582 584l14 51q38 6 56.5 25 t33.5 69l143 512q7 21 7 45q0 17 -12.5 23t-47.5 8l12 53q64 -6 101 -6q33 0 127 6l31 -487l276 487q88 -6 123 -6t100 6l-14 -53q-44 -1 -59 -14.5t-27 -61.5l-115 -489q-14 -61 -14 -80q0 -17 10 -25.5t33 -9.5h10l-12 -53q-81 8 -141 8q-56 0 -144 -8l12 53 q46 2 61.5 14.5t27.5 61.5l126 514l-348 -617h-34l-37 619l-138 -516q-8 -33 -8 -47q0 -15 12 -21.5t46 -7.5l-13 -53q-41 4 -92 4q-53 0 -106 -4z" />
<glyph unicode="&#xe000;" horiz-adv-x="1044" d="M0 0v1044h1044v-1044h-1044z" />
</font>
</defs>
</svg>
