<?xml version="1.0" standalone="no"?>
<!DOCTYPE svg PUBLIC "-//W3C//DTD SVG 1.1//EN" "http://www.w3.org/Graphics/SVG/1.1/DTD/svg11.dtd" >
<svg xmlns="http://www.w3.org/2000/svg">
<metadata></metadata>
<defs>
<font id="corporate_a_condensedregular" horiz-adv-x="877" >
<font-face units-per-em="2048" ascent="1587" descent="-461" />
<missing-glyph horiz-adv-x="430" />
<glyph horiz-adv-x="0" />
<glyph unicode="&#xd;" horiz-adv-x="430" />
<glyph horiz-adv-x="0" />
<glyph horiz-adv-x="0" />
<glyph unicode=" "  horiz-adv-x="430" />
<glyph unicode="&#x09;" horiz-adv-x="430" />
<glyph unicode="&#xa0;" horiz-adv-x="430" />
<glyph unicode="!" horiz-adv-x="434" d="M121 96q0 42 28.5 69t71.5 27q45 0 71.5 -27.5t26.5 -70.5q0 -42 -28 -71t-70 -29q-21 0 -39 8t-31.5 22t-21.5 32.5t-8 39.5zM147 1347h142l-31 -929h-82z" />
<glyph unicode="&#x22;" horiz-adv-x="639" d="M143 1374h125l-18 -549h-88zM373 1374h125l-19 -549h-90z" />
<glyph unicode="#" horiz-adv-x="1016" d="M70 442l14 111h184l37 301h-184l14 110h184l54 410h102l-53 -410h237l52 410h102l-51 -410h184l-14 -110h-184l-37 -301h184l-14 -111h-185l-55 -434h-102l55 434h-238l-55 -434h-102l55 434h-184zM371 553h237l37 301h-237z" />
<glyph unicode="$" d="M90 -23v445h39q41 -350 279 -371v584q-47 25 -82.5 45t-62.5 37.5t-46.5 34t-34.5 34.5q-78 91 -78 238q0 80 21 145.5t60 113.5t95.5 76.5t127.5 34.5v164h55v-164q120 -12 192 -108l50 115h26v-379h-39q-26 154 -81.5 226.5t-147.5 82.5v-530l61 -39 q75 -48 125.5 -88.5t81 -84t43 -94.5t12.5 -120q0 -83 -24 -152t-66.5 -120t-102 -81t-130.5 -34v-164h-55v164q-130 12 -230 118l-61 -129h-27zM231 1077q0 -42 9 -75t30 -61.5t54.5 -54.5t83.5 -53v496q-40 -7 -72.5 -28.5t-56 -54.5t-36 -76t-12.5 -93zM463 51 q94 14 144 84t50 188q0 51 -10 90t-32.5 72t-60 61.5t-91.5 57.5v-553z" />
<glyph unicode="%" horiz-adv-x="1016" d="M63 1063q0 70 17 129t46.5 102t69.5 67.5t87 24.5q46 0 85 -24.5t67 -67.5t43.5 -103t15.5 -130q0 -72 -16.5 -132.5t-45.5 -104.5t-68 -68.5t-85 -24.5q-50 0 -89.5 24t-68 68t-43.5 105t-15 135zM154 8l641 1366h67l-641 -1366h-67zM172 1071q0 -291 107 -291 q106 0 106 277q0 280 -104 280q-51 0 -80 -65t-29 -201zM522 325q0 70 16.5 130t46 103.5t69.5 68t87 24.5t86 -23t66.5 -66t43 -103t15.5 -134q0 -71 -16.5 -131.5t-45 -104.5t-68 -68.5t-85.5 -24.5t-85.5 24.5t-68 68.5t-45 104.5t-16.5 131.5zM631 321q0 -276 106 -276 q107 0 107 278q0 279 -105 279q-108 0 -108 -281z" />
<glyph unicode="&#x26;" horiz-adv-x="987" d="M66 354q0 57 11.5 106.5t38.5 97.5t71.5 97t109.5 105q-39 72 -62.5 118t-36 78.5t-16.5 59t-4 59.5q0 58 18 108.5t50.5 88t76.5 58.5t95 21q47 0 86 -18.5t67.5 -52t44 -80t15.5 -102.5q0 -44 -8.5 -83t-28.5 -80.5t-54 -88.5t-85 -105l268 -457q29 54 45 111.5 t16 114.5q0 19 -4 31.5t-13.5 20t-26.5 11.5t-42 6v60q42 -6 67.5 -8t51.5 -2t53 2t68 8v-60q-28 -2 -45 -5.5t-27 -13.5t-15 -28t-9 -49q-6 -43 -12 -79t-15 -67.5t-21 -60.5t-30 -59l43 -78q19 -34 32 -52.5t27 -27.5t33 -11.5t49 -4.5v-41q-43 5 -64.5 6.5t-39.5 1.5 q-19 0 -40 -1.5t-63 -6.5l-61 110q-36 -36 -68 -60.5t-63.5 -39t-64.5 -21t-72 -6.5q-76 0 -139.5 27.5t-109.5 77t-71.5 117t-25.5 147.5zM205 344q0 -65 16.5 -117.5t46 -89.5t71 -57.5t91.5 -20.5q28 0 52 5.5t49 18.5t51.5 35t58.5 54l-283 481q-43 -39 -72 -75 t-47 -72.5t-26 -76t-8 -85.5zM287 1122q0 -29 5 -57t17 -59.5t31.5 -69t48.5 -84.5q39 44 66 79.5t43 67.5t23 63t7 66q0 36 -8.5 67t-24 53.5t-36.5 35t-45 12.5q-27 0 -50 -13.5t-40.5 -37.5t-27 -55.5t-9.5 -67.5z" />
<glyph unicode="'" horiz-adv-x="410" d="M143 1374h125l-18 -549h-88z" />
<glyph unicode="(" horiz-adv-x="526" d="M129 491q0 145 14.5 272.5t44.5 240.5t75.5 213t107.5 190h53q-75 -195 -113.5 -422.5t-38.5 -493.5q0 -264 38.5 -491.5t113.5 -423.5h-53q-62 93 -107.5 193.5t-75.5 212.5t-44.5 238.5t-14.5 270.5z" />
<glyph unicode=")" horiz-adv-x="526" d="M102 -424q152 400 152 915q0 519 -152 916h54q241 -352 241 -916q0 -145 -14.5 -271t-44.5 -238t-75.5 -212.5t-106.5 -193.5h-54z" />
<glyph unicode="*" d="M193 1075l26 100l182 -77l-8 235h90l-8 -235l184 77l27 -100l-188 -61l127 -189l-68 -63l-119 204l-116 -204l-70 63l127 189z" />
<glyph unicode="+" d="M98 639v121h285v358h111v-358h286v-121h-286v-359h-111v359h-285z" />
<glyph unicode="," horiz-adv-x="403" d="M72 -334q27 34 51.5 77t44 88.5t31.5 89.5t14 79h-6q-11 -2 -15 -3t1 -1q-36 0 -59 28.5t-23 73.5q0 51 26.5 82t69.5 31q48 0 73 -36t25 -99q0 -172 -151 -410h-82z" />
<glyph unicode="-" horiz-adv-x="440" d="M10 510v92h420v-92h-420z" />
<glyph unicode="." horiz-adv-x="403" d="M106 98q0 42 29.5 70t71.5 28t70 -28t28 -70q0 -43 -28 -71.5t-70 -28.5q-21 0 -39 8t-32 21.5t-22 31.5t-8 39z" />
<glyph unicode="/" horiz-adv-x="682" d="M-131 -389l694 1763h90l-694 -1763h-90z" />
<glyph unicode="0" d="M96 708q0 101 12.5 193t36 169.5t56 136t73.5 93.5q74 62 168 62q120 0 203 -99q31 -37 56 -98.5t43 -139.5t28 -167.5t10 -181.5q0 -80 -7.5 -157.5t-21 -147t-33.5 -129t-44 -103.5q-83 -149 -236 -149q-167 0 -255.5 178.5t-88.5 539.5zM250 704q0 -655 192 -655 q187 0 187 614q0 639 -189 639q-190 0 -190 -598z" />
<glyph unicode="1" d="M199 1128v49q52 4 97 22t81 48t61 70.5t37 89.5h49v-1219q0 -40 4 -65t17.5 -39.5t39 -21.5t68.5 -11v-49q-30 4 -53 6.5t-45 3.5t-46.5 1.5t-57.5 0.5t-58 -0.5t-47 -1.5t-45 -3.5t-53 -6.5v49q43 4 68.5 11t39 21.5t17.5 39.5t4 65v940h-178z" />
<glyph unicode="2" d="M115 8v115q86 127 154 232.5t119.5 192.5t87.5 157.5t58.5 129.5t33 108t10.5 93q0 49 -12.5 88t-35.5 66.5t-55.5 42t-71.5 14.5q-187 0 -215 -285h-53q2 49 6 87t12 70.5t20 60.5t30 57q36 57 99.5 91t141.5 34q63 0 116 -23t91.5 -64t60 -98t21.5 -125 q0 -40 -7.5 -81.5t-27 -92t-54 -114.5t-88.5 -151t-130.5 -200.5t-179.5 -261.5h497l-16 -143h-612z" />
<glyph unicode="3" d="M102 387h58q12 -293 215 -293q52 0 94.5 21t72.5 60t46 93.5t16 122.5q0 79 -23 144.5t-61 99.5q-57 51 -182 51h-12v72q37 2 64.5 6t48 11.5t36.5 20t31 31.5q29 36 44 87t15 108q0 112 -46 173.5t-128 61.5q-88 0 -138.5 -60t-70.5 -192h-51q28 357 295 357 q65 0 118.5 -22.5t91.5 -64.5t58.5 -101.5t20.5 -133.5q0 -112 -52.5 -191t-158.5 -116q254 -71 254 -344q0 -87 -26 -160t-72 -126t-109 -83t-137 -30q-155 0 -233.5 99t-78.5 298z" />
<glyph unicode="4" d="M41 362l444 1014h146v-885h168v-129h-168v-385h-148v385h-442zM160 491h325v758z" />
<glyph unicode="5" d="M123 330h57q23 -236 191 -236q52 0 94.5 27.5t73 77.5t47 119t16.5 153q0 80 -15.5 144.5t-44 110.5t-68.5 70.5t-89 24.5q-125 0 -195 -154l-63 5l117 671h461l-15 -143h-393l-78 -395q84 114 217 114q72 0 131 -32.5t101.5 -91t66 -140.5t23.5 -182q0 -62 -11 -122 t-31 -113.5t-49 -98.5t-65 -76q-85 -73 -196 -73q-262 0 -283 340z" />
<glyph unicode="6" d="M98 465q0 67 10 133.5t32.5 134t57.5 137t85 144.5q33 49 72 102t81.5 106.5t86.5 105.5t87 99h84q-53 -59 -104.5 -127.5t-97.5 -138.5t-83.5 -136.5t-62.5 -121.5q37 17 62.5 22t54.5 5q67 0 124 -34t98 -95t64 -146t23 -186q0 -107 -24.5 -195t-68.5 -151t-105.5 -98 t-135.5 -35q-76 0 -138.5 35t-107.5 98t-69.5 150t-24.5 192zM256 448q0 -399 178 -399t178 401q0 412 -176 412q-180 0 -180 -414z" />
<glyph unicode="7" horiz-adv-x="879" d="M100 1194v149h676l-473 -1335h-133l475 1186h-545z" />
<glyph unicode="8" d="M119 377q0 122 43 200t141 131q-86 48 -123 119.5t-37 181.5q0 78 21.5 143t61.5 111.5t95 72.5t123 26q65 0 118.5 -24.5t91.5 -69.5t58.5 -108.5t20.5 -141.5q0 -219 -162 -310q189 -83 189 -327q0 -89 -23.5 -161.5t-66 -123.5t-101.5 -78.5t-131 -27.5 q-74 0 -133 26.5t-100 77t-63.5 122t-22.5 161.5zM268 373q0 -75 12 -135t34 -102t53.5 -64.5t70.5 -22.5t71 23t54.5 65t34.5 100t12 129q0 70 -11.5 127.5t-33 98t-53 62.5t-70.5 22t-71 -22t-55 -62t-35.5 -96t-12.5 -123zM293 1012q0 -136 38 -206.5t107 -70.5 q33 0 60 19.5t46 55.5t29.5 87.5t10.5 116.5q0 288 -142 288q-72 0 -110.5 -71t-38.5 -219z" />
<glyph unicode="9" d="M121 887q0 104 23.5 191.5t65.5 150.5t100 98t128 35q74 0 134.5 -35t103.5 -98t66.5 -150.5t23.5 -193.5q0 -68 -10.5 -134t-31.5 -132.5t-53 -135.5t-75 -143q-29 -50 -67.5 -106t-80 -112t-83.5 -107.5t-78 -92.5h-84q48 57 96.5 126.5t92 140.5t80 139t60.5 122 q-35 -17 -60 -22.5t-54 -5.5q-65 0 -119 34.5t-94 96.5t-62 147t-22 187zM276 915q0 -426 166 -426q88 0 130 96t42 295q0 212 -43 317t-125 105q-170 0 -170 -387z" />
<glyph unicode=":" horiz-adv-x="403" d="M100 92q0 21 8 38.5t21.5 31t32 21t39.5 7.5q42 0 70 -28t28 -70q0 -43 -28 -71.5t-70 -28.5q-21 0 -39.5 8t-32 21.5t-21.5 31.5t-8 39zM106 778q0 42 29.5 70t71.5 28t70 -29t28 -71t-28 -70t-70 -28q-43 0 -72 28.5t-29 71.5z" />
<glyph unicode=";" horiz-adv-x="406" d="M72 -334q27 34 51.5 77t44 88.5t31.5 89.5t14 79h-6q-11 -2 -15 -3t1 -1q-36 0 -59 28.5t-23 73.5q0 51 26.5 82t69.5 31q48 0 73 -36t25 -99q0 -172 -151 -410h-82zM106 780q0 42 29 70t72 28q42 0 70 -28t28 -70t-28 -71t-70 -29q-21 0 -39 8t-32 21.5t-22 31.5t-8 39z " />
<glyph unicode="&#x3c;" horiz-adv-x="840" d="M82 700v13l676 544v-69l-525 -428l525 -439v-186z" />
<glyph unicode="=" d="M98 504v120h682v-120h-682zM98 772v121h682v-121h-682z" />
<glyph unicode="&#x3e;" horiz-adv-x="840" d="M82 135v72l524 428l-524 436v186l676 -563v-12z" />
<glyph unicode="?" horiz-adv-x="647" d="M74 1003q0 181 67 270t209 89q58 0 104.5 -21t79 -59.5t49.5 -92t17 -118.5q0 -47 -7.5 -85.5t-25.5 -74.5t-48 -73t-75 -82q-52 -51 -78.5 -88t-29.5 -58q-11 -70 -17 -107.5t-9 -55.5l-3.5 -21t0.5 -4q0 -21 2 -23h-69q-3 17 -4.5 29.5t-2 24t-0.5 24.5v31 q0 75 15 132.5t45 108.5q7 11 23.5 34t48.5 65q48 63 68 115t20 106q0 81 -39.5 128.5t-108.5 47.5q-81 0 -129.5 -62t-56.5 -180h-45zM186 96q0 42 28 69t73 27q42 0 70 -28t28 -70q0 -21 -8 -39.5t-21.5 -32t-31.5 -21t-39 -7.5t-39 8t-31.5 21.5t-21 32.5t-7.5 40z" />
<glyph unicode="@" horiz-adv-x="1186" d="M27 602q0 138 46 258t126 208t189 138.5t235 50.5q68 0 133 -15.5t123.5 -44.5t108 -71.5t87.5 -97.5q42 -60 62 -128.5t20 -156.5q0 -212 -125 -373q-56 -73 -124.5 -114t-131.5 -41q-54 0 -82 35.5t-39 113.5q-24 -39 -45 -65.5t-42.5 -43t-44.5 -23.5t-50 -7 q-45 0 -84 21.5t-67 59.5t-44 90t-16 114q0 89 28 169.5t74.5 141.5t108 97t129.5 36q111 0 135 -143l27 127h113l-117 -539q-3 -15 -5 -23t-2.5 -14t-0.5 -12v-16q0 -29 13 -49.5t36 -20.5q21 0 45.5 12t49.5 32.5t48.5 48t42.5 57.5q48 76 72 161.5t24 173.5 q0 89 -36 167.5t-98 137t-145.5 92t-178.5 33.5q-111 0 -206 -43.5t-164.5 -121t-109 -182.5t-39.5 -228q0 -125 40 -232t110 -185.5t165 -123.5t206 -45q67 0 125 16t108 49t94 84t84 122h82q-21 -43 -40 -75.5t-39.5 -59.5t-44.5 -50t-54 -47q-37 -29 -73 -49.5t-73.5 -34 t-78 -20t-86.5 -6.5q-85 0 -163 23t-145.5 64.5t-122 101t-93 132t-59.5 157t-21 177.5zM387 452q0 -38 8 -71t22.5 -57.5t34.5 -39t44 -14.5q29 0 59.5 25t50.5 63q21 39 39.5 88.5t32 102.5t21.5 104.5t8 93.5q0 162 -93 162q-41 0 -82 -40t-73 -105t-52 -147t-20 -165z " />
<glyph unicode="A" horiz-adv-x="1073" d="M27 2v49q38 2 61.5 8t39.5 21.5t27 42.5t25 71l377 1223l340 -1245q10 -36 20 -58t25.5 -34.5t40.5 -18.5t64 -10v-49q-35 5 -62 8t-50 5t-44 2.5t-43 0.5q-24 0 -45.5 -0.5t-44.5 -2t-50 -5t-61 -8.5v49q54 6 76 19t22 42q0 11 -2 29t-8 41l-55 221h-373l-57 -192 q-9 -29 -14 -54t-5 -45q0 -31 23.5 -43.5t83.5 -17.5v-49q-25 3 -45 5t-38.5 3t-36 1.5t-36.5 0.5q-38 0 -71.5 -2t-83.5 -8zM326 467h338l-156 608z" />
<glyph unicode="B" horiz-adv-x="958" d="M63 8v49q42 4 68 11t39.5 21.5t18 39t4.5 63.5v996q0 40 -4.5 65t-18 39t-39.5 20.5t-68 10.5v51h424q91 0 155 -24.5t103 -75.5q37 -48 56.5 -107t19.5 -125q0 -220 -192 -305q118 -29 180.5 -112.5t62.5 -225.5q0 -55 -12.5 -107t-35.5 -97t-56 -81.5t-74 -60.5 q-41 -25 -93 -35t-130 -10h-408zM344 176q0 -33 4 -53.5t14.5 -32t29.5 -15.5t50 -4h37q112 0 173 81.5t61 242.5q0 82 -23 149t-61 103q-24 23 -63 33t-93 10h-129v-514zM344 753h86q39 0 68.5 5t52 16t39.5 28.5t31 41.5q41 71 41 192q0 82 -19.5 145.5t-54.5 92.5 q-46 37 -131 37h-113v-558z" />
<glyph unicode="C" horiz-adv-x="1004" d="M94 688q0 162 31.5 293.5t89.5 224t140 143t184 50.5q81 0 141 -28t111 -91l55 114h33v-401h-41q-35 174 -101.5 257t-177.5 83q-148 0 -225.5 -161.5t-77.5 -479.5q0 -618 301 -618q130 0 196.5 98t77.5 297h60q-4 -114 -31 -204.5t-73.5 -153.5t-111.5 -96.5 t-145 -33.5q-98 0 -178.5 51t-137.5 143.5t-88.5 223t-31.5 289.5z" />
<glyph unicode="D" horiz-adv-x="1061" d="M55 8v49q42 4 67.5 11t39 21.5t18 39.5t4.5 65v994q0 40 -4.5 65t-18 39t-39 20.5t-67.5 10.5v51h398q73 0 134 -13t111 -41t91 -72t75 -105q55 -100 83 -210t28 -241q0 -90 -15 -175.5t-42.5 -160.5t-65.5 -136.5t-84 -102.5q-121 -109 -315 -109h-398zM338 174 q0 -34 4 -55t14.5 -32.5t29.5 -15.5t50 -4q200 0 285 154q94 169 94 473q0 296 -94 465q-86 152 -275 152h-108v-1137z" />
<glyph unicode="E" horiz-adv-x="911" d="M63 8v51q42 4 68 10.5t39.5 20.5t18 38.5t4.5 65.5v994q0 40 -4.5 65t-18 39t-39.5 20.5t-68 10.5v51h713l29 -307h-39q-16 73 -32 120.5t-37 75t-50 38t-72 10.5h-229v-562h227q27 0 44.5 6.5t28 25t15.5 51t7 85.5h41v-401h-41q-2 51 -8 84t-18 52t-30.5 26.5 t-46.5 7.5h-219v-494q0 -36 5 -59.5t17 -37t32.5 -19t52.5 -5.5h112q48 0 82.5 12t59.5 42.5t43 82t34 130.5h39l-39 -330h-721z" />
<glyph unicode="F" horiz-adv-x="872" d="M70 2v49q43 4 68.5 11t39 21.5t17.5 39.5t4 65v1000q0 40 -4.5 65t-18 39t-39 20.5t-67.5 10.5v51h712l29 -307h-39q-16 73 -32 120.5t-37 75t-50.5 38t-72.5 10.5h-228v-562h226q50 0 65 23q14 20 20 55t11 90h41v-401h-41q-2 51 -8 84t-18 52t-31.5 26.5t-49.5 7.5 h-215v-498q0 -40 4 -65t17.5 -39.5t38.5 -21.5t67 -11v-49q-39 5 -68 8t-52 5t-42.5 2.5t-40.5 0.5t-41 -0.5t-43.5 -2.5t-53 -5t-68.5 -8z" />
<glyph unicode="G" horiz-adv-x="1055" d="M88 694q0 162 32 292.5t90.5 222t141.5 141t185 49.5q152 0 254 -117l59 117h33v-406h-41q-38 180 -107.5 261t-179.5 81q-305 0 -305 -653q0 -321 76 -479t225 -158q54 0 100.5 16t106.5 53v355q0 29 -5 47t-18.5 29t-37 16.5t-60.5 9.5v49q33 -4 58.5 -6.5t47 -3.5 t40.5 -1.5t40 -0.5t40.5 0.5t41 1.5t46.5 3.5t57 6.5v-49q-37 -4 -58.5 -8.5t-33 -15t-14.5 -30t-3 -52.5v-338q-53 -39 -99 -66.5t-88.5 -44t-83 -24t-83.5 -7.5q-106 0 -190.5 49.5t-144 141.5t-91 223t-31.5 295z" />
<glyph unicode="H" horiz-adv-x="1130" d="M63 2v49q43 4 69 11t39.5 21.5t17.5 39.5t4 65v1006q0 40 -4 65t-17.5 39.5t-39.5 21.5t-69 11v49q34 -4 60 -7t49 -4.5t45 -2t49 -0.5q25 0 48 0.5t46.5 2t50 4.5t60.5 7v-49q-42 -4 -67.5 -11t-38.5 -21.5t-17 -39.5t-4 -65v-443h444v443q0 40 -4 65t-17 39.5t-38 21.5 t-67 11v49q33 -4 59 -7t49.5 -4.5t46 -2t49.5 -0.5q25 0 47.5 0.5t46 2t50 4.5t59.5 7v-49q-43 -4 -68.5 -11t-39 -21.5t-17.5 -39.5t-4 -65v-1006q0 -40 4 -65t17.5 -39.5t39 -21.5t68.5 -11v-49q-39 4 -68.5 7t-52.5 5t-43 3t-39 1q-21 0 -40.5 -0.5t-43 -2.5t-52.5 -5 t-68 -8v49q42 4 67 11t38 21.5t17 39.5t4 65v500h-444v-500q0 -40 4 -65t17 -39.5t38.5 -21.5t67.5 -11v-49q-39 5 -68 8t-52.5 5t-43.5 2.5t-41 0.5t-40 -1t-42 -3t-52 -5t-69 -7z" />
<glyph unicode="I" horiz-adv-x="535" d="M63 2v49q43 4 69 11t39.5 21.5t17.5 39.5t4 65v1006q0 40 -4.5 65t-18 39.5t-39.5 21.5t-68 11v49q34 -4 60.5 -7t50.5 -4.5t47 -2t49 -0.5q25 0 47.5 0.5t45.5 2t49.5 4.5t60.5 7v-49q-42 -4 -67 -11t-38.5 -21.5t-17.5 -39.5t-4 -65v-1006q0 -40 4 -65t17 -39.5 t38.5 -21.5t67.5 -11v-49q-40 5 -69.5 8t-52.5 5t-42.5 2.5t-38.5 0.5q-21 0 -40.5 -0.5t-43 -2t-53 -4.5t-70.5 -9z" />
<glyph unicode="J" horiz-adv-x="530" d="M0 -72q12 -2 16 -2h17q45 0 75.5 12.5t48.5 42.5t25.5 79t7.5 122v1012q0 40 -4 65t-17 39.5t-38.5 21.5t-67.5 11v49q33 -4 59.5 -7t50 -4.5t46 -2t49.5 -0.5q25 0 47.5 0.5t45.5 2t49.5 4.5t60.5 7v-49q-42 -4 -67 -11t-38.5 -21.5t-17.5 -39.5t-4 -65v-940 q0 -51 -2.5 -89t-8 -67.5t-14.5 -54t-22 -49.5q-35 -67 -97 -98t-143 -31h-19h-12t-11 0.5t-15 1.5v61z" />
<glyph unicode="K" horiz-adv-x="1065" d="M63 2v49q42 4 68 11t39.5 21.5t18 39.5t4.5 65v1006q0 41 -4.5 66t-18 39.5t-39.5 21t-68 10.5v49q34 -4 60.5 -7t50.5 -4.5t47 -2t49 -0.5q27 0 49.5 0.5t45 2t47 4.5t55.5 7v-49q-42 -4 -67 -11t-38.5 -21.5t-17.5 -39.5t-4 -65v-473l367 514q10 14 15 26.5t5 26.5 q0 36 -72 41l-28 2v49q30 -3 53 -5t42.5 -3t36.5 -1.5t36 -0.5q18 0 35 0.5t36.5 1.5t43 3t53.5 5v-49q-36 -2 -62.5 -7.5t-47.5 -17.5t-40.5 -32t-42.5 -52l-276 -387l360 -651q20 -37 38.5 -61.5t39 -40t45 -22.5t57.5 -9v-49q-36 5 -64.5 8t-53.5 5t-47.5 2.5t-47.5 0.5 q-24 0 -46.5 -0.5t-47.5 -2.5t-54 -5t-65 -8v49l27 4q43 6 64.5 16t21.5 33q0 9 -0.5 13.5t-3 11.5t-8.5 17.5t-17 31.5l-286 539l-66 -93v-436q0 -40 4 -65t16.5 -39.5t37 -21.5t65.5 -11v-49q-33 5 -59 8t-48.5 5t-43 2.5t-42.5 0.5q-21 0 -41 -0.5t-44 -2.5t-53.5 -5 t-68.5 -8z" />
<glyph unicode="L" horiz-adv-x="848" d="M63 8v51q42 4 68 10.5t39.5 20.5t18 38.5t4.5 65.5v1000q0 40 -4.5 65t-18 39.5t-39.5 21.5t-68 11v49q34 -4 60.5 -7t50.5 -4.5t47 -2t49 -0.5q25 0 47.5 0.5t45.5 2t49.5 4.5t60.5 7v-49q-42 -4 -67 -11t-38.5 -21.5t-17.5 -39.5t-4 -65v-996q0 -36 5 -59.5t16.5 -37 t31.5 -18.5t50 -5h114q49 0 83.5 11.5t60 41t43.5 79.5t34 128h39l-37 -330h-723z" />
<glyph unicode="M" horiz-adv-x="1366" d="M61 2v51h19q37 4 59.5 10.5t35 20.5t16.5 38.5t6 65.5l34 1006v12q0 35 -5 57t-20 35.5t-41.5 20t-68.5 10.5v51q48 -5 77.5 -6.5t59.5 -1.5q44 0 78.5 2t81.5 8l301 -1020l301 1020q27 -3 49 -5t40.5 -3t35.5 -1.5t35 -0.5q29 0 56.5 1.5t74.5 6.5v-49q-47 -4 -74 -11 t-41 -22q-13 -14 -17 -39q-3 -19 -3 -48v-17l16 -1006q1 -41 6 -65.5t19.5 -38.5t40.5 -20.5t70 -10.5v-51q-39 5 -68.5 8t-53.5 5t-44 2.5t-41 0.5t-41 -0.5t-43.5 -2.5t-53 -5t-69.5 -8v51q43 2 69.5 8t41 20.5t19.5 39t5 63.5v4l-16 1037l-265 -891l-81 -289h-25l-84 297 l-260 885l-35 -1039v-18q0 -34 5.5 -55t20 -33.5t41 -18.5t68.5 -10v-51q-30 3 -53 5t-41.5 3t-35 1.5t-34.5 0.5t-34 -0.5t-34.5 -1.5t-42.5 -3t-57 -5z" />
<glyph unicode="N" horiz-adv-x="1122" d="M61 1331v49q19 -2 35.5 -3t32.5 -2t33 -1h39h35.5t27.5 1t26.5 2t31.5 3l548 -1024v838q0 40 -4.5 65t-18 39.5t-39.5 21.5t-69 11v49q34 -3 59 -5t44 -3t33.5 -1.5t29.5 -0.5t29.5 0.5t32.5 1.5t41.5 3t56.5 5v-49q-44 -4 -70 -11t-40 -21.5t-18.5 -39.5t-4.5 -65v-1227 h-27q-11 21 -18 36t-15 31.5t-19 38t-30 56.5l-88 164l-479 897v-1002q0 -40 4 -65t17.5 -39.5t40 -21.5t71.5 -11v-49q-36 3 -61.5 5t-44.5 3t-33 1.5t-27 0.5q-15 0 -29 -0.5t-32 -1.5t-42 -3t-57 -5v49q45 4 71.5 11t40.5 21.5t18 39.5t4 65v1082q-12 15 -24.5 26 t-27.5 18t-35.5 11t-48.5 6z" />
<glyph unicode="O" horiz-adv-x="1057" d="M88 688q0 163 30.5 294.5t87.5 224.5t138 143.5t182 50.5q88 0 166.5 -42t132.5 -118q37 -52 63.5 -111.5t44 -130t26 -152t8.5 -177.5t-15 -187.5t-42 -170t-65 -141.5t-83 -102q-101 -86 -232 -86q-173 0 -288 142q-36 44 -64.5 105t-48.5 134t-30.5 155t-10.5 169z M250 700q0 -321 73.5 -490t208.5 -169q132 0 201.5 162.5t69.5 484.5q0 187 -24.5 321.5t-69.5 210.5q-72 123 -181 123q-65 0 -116.5 -44t-87.5 -127t-55 -202t-19 -270z" />
<glyph unicode="P" horiz-adv-x="913" d="M63 2v49q43 4 69 11t39.5 21.5t17.5 39.5t4 65v1000q0 40 -4.5 65t-18 39t-39.5 20.5t-68 10.5v51h420q201 0 289 -109q42 -51 64 -121t22 -145q0 -87 -24.5 -156t-70.5 -118t-112 -75t-149 -26h-156v-436q0 -40 4 -65t17 -39.5t38.5 -21.5t67.5 -11v-49q-39 5 -68.5 8 t-53 5t-43 2.5t-38.5 0.5q-21 0 -40.5 -0.5t-43 -2t-53 -4.5t-70.5 -9zM346 688h107q75 0 123.5 23.5t80.5 80.5q48 82 48 213q0 87 -23.5 156t-63.5 104q-29 26 -66.5 36t-88.5 10h-117v-623z" />
<glyph unicode="Q" horiz-adv-x="1053" d="M88 688q0 163 30.5 294.5t87.5 224.5t138 143.5t182 50.5q98 0 179 -50.5t138.5 -143.5t89.5 -224.5t32 -294.5q0 -129 -21.5 -236.5t-64.5 -212.5q49 -105 93.5 -151.5t92.5 -48.5v-54h-47q-36 0 -63.5 5.5t-52 19t-50.5 36.5t-59 58q-109 -121 -263 -121 q-88 0 -159.5 35.5t-128.5 104.5q-35 42 -63.5 104t-48.5 136.5t-31 157.5t-11 167zM250 702q0 -161 18.5 -284t54 -207t87 -127t116.5 -43q112 0 181 119q96 163 96 524q0 160 -18.5 283.5t-54 206.5t-86.5 126t-116 43t-116.5 -43.5t-87.5 -126t-55 -201.5t-19 -270z" />
<glyph unicode="R" horiz-adv-x="997" d="M63 2v49q43 4 69 11t39.5 21.5t17.5 39.5t4 65v1000q0 40 -4.5 65t-18 39t-39.5 20.5t-68 10.5v51h429q97 0 166 -27t114 -84q38 -48 59 -113t21 -134q0 -276 -274 -346q28 -9 49.5 -21.5t39 -33t32.5 -50.5t30 -74l109 -321q12 -37 24 -59.5t26.5 -35t34 -17.5t48.5 -7 v-49q-37 4 -61.5 5t-53.5 1q-26 0 -51 -1t-62 -5q-12 31 -23 62.5t-22 62.5l-120 366q-17 50 -33 82t-36 50t-46 25t-62 7h-57v-469q0 -40 4 -65t17.5 -39.5t38.5 -21.5t67 -11v-49q-39 5 -67.5 8t-51 5t-42 2.5t-40.5 0.5t-41 -0.5t-43.5 -2.5t-53 -5t-69.5 -8zM346 721 h117q118 0 174 71q15 19 26 45t19 56t12 63t4 66q0 289 -227 289h-125v-590z" />
<glyph unicode="S" horiz-adv-x="870" d="M106 -23v445h41q46 -369 285 -369q49 0 90 20t70.5 55t46 84t16.5 107q0 51 -10.5 91t-36.5 75.5t-69.5 70t-108.5 73.5q-92 55 -151.5 100t-94 91t-48 97t-13.5 119q0 80 23 145.5t64.5 112.5t99.5 72.5t128 25.5q69 0 119.5 -25t93.5 -79l47 113h31v-377h-41 q-29 160 -86.5 233.5t-150.5 73.5q-43 0 -80 -18.5t-64.5 -51t-43 -76.5t-15.5 -96q0 -44 10 -78t38 -68t77.5 -71t128.5 -86q81 -50 135 -95t86 -92t45.5 -101.5t13.5 -124.5q0 -85 -24 -155.5t-67.5 -121t-104 -78.5t-133.5 -28q-76 0 -137.5 27t-120.5 89l-58 -129h-31z " />
<glyph unicode="T" horiz-adv-x="887" d="M41 1061l45 313h717l45 -313h-41q-18 76 -35 125t-38 76.5t-49.5 38t-70.5 10.5h-94v-1123q0 -40 4 -65t17.5 -39.5t38.5 -21.5t67 -11v-49q-39 4 -67.5 7t-51.5 5t-42.5 3t-41.5 1q-21 0 -41 -0.5t-43.5 -2.5t-53 -5t-68.5 -8v49q43 4 68.5 11t39 21.5t17.5 39.5t4 65 v1123h-84q-43 0 -73 -10.5t-52.5 -38t-40 -76.5t-35.5 -125h-41z" />
<glyph unicode="U" horiz-adv-x="1110" d="M53 1331v49q34 -4 60.5 -7t50 -4.5t46.5 -2t50 -0.5q25 0 47.5 0.5t45.5 2t49.5 4.5t60.5 7v-49q-42 -4 -67 -11t-38.5 -21.5t-17.5 -39.5t-4 -65v-793q0 -42 1.5 -73.5t5.5 -56t10.5 -44t15.5 -37.5q29 -57 86.5 -85.5t132.5 -28.5q63 0 118 23t91 65q30 35 47.5 101.5 t17.5 148.5v780q0 40 -4.5 65t-18 39.5t-39.5 21.5t-69 11v49q34 -3 59 -5t44 -3t33.5 -1.5t29.5 -0.5t29.5 0.5t32.5 1.5t41 3t55 5v-49q-43 -4 -69 -11t-39.5 -21.5t-18 -39.5t-4.5 -65v-768q0 -47 -3 -85t-9.5 -70.5t-18 -61t-27.5 -56.5q-48 -81 -125.5 -124.5 t-183.5 -43.5t-188 44.5t-133 132.5q-15 25 -25 51t-16.5 56.5t-9.5 67t-3 81.5v776q0 40 -4.5 65t-18 39.5t-39 21.5t-67.5 11z" />
<glyph unicode="V" horiz-adv-x="1071" d="M27 1331v49q30 -4 53 -6.5t45.5 -4t46 -2.5t53.5 -1t53.5 0.5t46 2t46 4.5t53.5 7v-49q-102 -12 -102 -59q0 -11 2.5 -28t9.5 -42l244 -920l249 895q9 32 14 57t5 36q0 29 -24.5 42.5t-84.5 18.5v49q22 -3 40.5 -5t35.5 -3t34.5 -1.5t39.5 -0.5t40.5 0.5t36.5 1.5t37 3 t43 5v-49q-33 -3 -56.5 -10t-40 -20.5t-28 -35.5t-20.5 -55l-348 -1227h-39l-338 1221q-11 38 -21 61t-25.5 36.5t-39 19.5t-61.5 10z" />
<glyph unicode="W" horiz-adv-x="1458" d="M41 1331v49q28 -5 50.5 -7.5t44.5 -4t46 -2t54 -0.5q28 0 51 0.5t45 2t45 4t51 7.5v-49q-62 -8 -85.5 -20.5t-23.5 -40.5q0 -13 2.5 -28t6.5 -34l178 -840l250 1037h37l245 -1039l183 836q5 22 7.5 40t2.5 32q0 29 -21.5 41t-81.5 16v49q21 -3 39 -5t35 -3t34 -1.5 t38 -0.5t39 0.5t34.5 1.5t34.5 3t39 5v-49q-33 -2 -55 -7.5t-37 -17.5t-24.5 -32.5t-16.5 -51.5l-278 -1237h-33l-252 1072l-252 -1074h-33l-266 1227q-8 34 -16.5 56.5t-22.5 36t-36.5 20t-57.5 8.5z" />
<glyph unicode="X" horiz-adv-x="1038" d="M29 2v49q33 2 58 9t46.5 24t41.5 46.5t44 76.5l240 477l-226 522q-16 37 -28.5 60t-28.5 36t-39.5 19t-60.5 10v49q31 -4 57 -7t50 -4.5t47.5 -2t50.5 -0.5t49.5 0.5t46 2t49.5 4.5t59 7v-49q-63 -8 -86.5 -20t-23.5 -35q0 -24 18 -64l154 -356l174 346q27 52 27 80 q0 23 -23 33.5t-80 15.5v49q24 -3 43 -5t37 -3t37 -1.5t43 -0.5t43 0.5t37 1.5t37 3t43 5v-49q-36 -4 -60.5 -10t-42.5 -17.5t-32 -30.5t-29 -48l-223 -443l256 -598q18 -42 32 -67.5t31 -39.5t41 -19t63 -7v-49q-34 4 -61 7t-51 4.5t-47.5 2t-50.5 0.5t-50.5 -0.5t-48 -2 t-51.5 -4.5t-61 -7v49l28 4q84 11 84 48q0 13 -8 47q-6 25 -20 57l-175 403l-208 -420q-17 -33 -25 -54.5t-8 -35.5q0 -23 22 -33.5t82 -15.5v-49q-30 3 -52.5 5t-40.5 3t-34.5 1.5t-34.5 0.5q-16 0 -32 -0.5t-34.5 -1.5t-41.5 -3t-53 -5z" />
<glyph unicode="Y" horiz-adv-x="989" d="M33 1331v49q31 -4 57 -7t50 -4.5t47.5 -2t50.5 -0.5t50 0.5t46.5 2t49.5 4.5t58 7v-49q-33 -3 -54.5 -7t-34.5 -10t-18 -15t-5 -21q0 -29 14 -66l207 -524l201 526q16 43 16 64q0 25 -24 36t-87 17v49q27 -3 48 -5t38.5 -3t33.5 -1.5t34 -0.5t33.5 0.5t33 1.5t38 3 t47.5 5v-49q-35 -6 -58 -12.5t-39 -18t-27.5 -30.5t-23.5 -50l-240 -616v-416q0 -40 4 -65t17.5 -39.5t38.5 -21.5t67 -11v-49q-40 4 -69.5 7t-53 5t-43 3t-38.5 1q-20 0 -39 -0.5t-42.5 -2.5t-53.5 -5t-70 -8v49q43 4 68.5 11t39 21.5t17.5 39.5t4 65v416l-240 614 q-12 32 -24.5 52t-29 32t-39.5 18.5t-56 10.5z" />
<glyph unicode="Z" horiz-adv-x="901" d="M61 8l586 1303h-266q-47 0 -80 -11.5t-57 -39t-41.5 -73.5t-32.5 -116h-43l43 303h668l-586 -1303h301q59 0 92 10.5t55 37.5q16 19 29 40t24.5 47t22.5 58.5t23 75.5h41l-47 -332h-732z" />
<glyph unicode="[" horiz-adv-x="526" d="M186 -389v1763h285v-61h-156v-1641h156v-61h-285z" />
<glyph unicode="\" horiz-adv-x="682" d="M27 1374h90l694 -1763h-90z" />
<glyph unicode="]" horiz-adv-x="526" d="M55 -328h156v1641h-156v61h285v-1763h-285v61z" />
<glyph unicode="^" horiz-adv-x="840" d="M-29 596l451 846h10l436 -846h-55l-342 655l-350 -655h-150z" />
<glyph unicode="_" horiz-adv-x="840" d="M51 -172h740v-78h-740v78z" />
<glyph unicode="`" horiz-adv-x="840" d="M178 1438h182l160 -302h-74z" />
<glyph unicode="a" horiz-adv-x="784" d="M76 252q0 158 121 243q66 47 135.5 74t161.5 41v146q0 182 -123 182q-28 0 -51.5 -8.5t-41 -24t-26 -36t-6.5 -44.5q2 -17 2 -31v-28q0 -86 -72 -86q-59 0 -59 69q0 50 21.5 94.5t58 77.5t85.5 52.5t103 19.5q75 0 132 -33.5t87 -93.5q18 -35 25.5 -81t7.5 -120v-428 q0 -52 3 -87t10 -56t18.5 -30t29.5 -9q12 0 18 0.5t23 5.5v-53q-32 -8 -52.5 -11t-43.5 -3q-60 0 -90.5 40t-38.5 128q-21 -46 -43 -78.5t-47 -53.5t-55.5 -30.5t-67.5 -9.5q-52 0 -93.5 19t-71 53.5t-45 82.5t-15.5 107zM223 266q0 -188 123 -188q79 0 113.5 71.5 t34.5 231.5v176q-73 -16 -124.5 -40.5t-84 -59.5t-47.5 -82.5t-15 -108.5z" />
<glyph unicode="b" horiz-adv-x="850" d="M29 1306v37q72 8 131 21t121 33v-555q38 81 84 116t112 35t120.5 -36.5t94 -102.5t61 -158.5t21.5 -204.5q0 -111 -22.5 -203.5t-63 -158.5t-97 -102.5t-124.5 -36.5q-75 0 -124.5 41.5t-84.5 134.5l-76 -181h-45v1201q0 40 -3 63.5t-14 36t-32.5 16.5t-58.5 4zM279 500 q0 -136 12.5 -223.5t38.5 -137.5q48 -92 123 -92q170 0 170 446q0 229 -39.5 336t-124.5 107q-88 0 -134 -108t-46 -328z" />
<glyph unicode="c" horiz-adv-x="735" d="M78 485q0 114 23.5 208.5t66.5 162.5t102.5 105.5t130.5 37.5q55 0 94 -19t74 -67l41 105h31v-338h-39q-41 264 -180 264q-92 0 -140.5 -121t-48.5 -344q0 -426 185 -426q145 0 174 270h65q-35 -338 -258 -338q-71 0 -130 36t-101.5 101.5t-66 157.5t-23.5 205z" />
<glyph unicode="d" horiz-adv-x="860" d="M76 485q0 111 21.5 203t60.5 158.5t93.5 103.5t119.5 37q66 0 108.5 -34t79.5 -114v347q0 40 -3.5 63.5t-15 36t-33 16.5t-58.5 4v37q72 8 132 21t121 33v-1182q0 -44 3.5 -71t15 -42t31.5 -20.5t53 -5.5h16v-35q-80 -12 -132 -24.5t-93 -28.5q-11 44 -14.5 79.5 t-8.5 79.5q-65 -164 -198 -164q-66 0 -121 36.5t-94.5 103t-61.5 159t-22 203.5zM227 487q0 -446 166 -446q81 0 124.5 102t43.5 307q0 480 -174 480q-160 0 -160 -443z" />
<glyph unicode="e" horiz-adv-x="772" d="M76 491q0 113 23.5 206t65.5 159t100.5 102.5t129.5 36.5q289 0 301 -481h-473q2 -66 4.5 -116.5t7.5 -90t13 -70.5t20 -59q52 -123 158 -123q179 0 207 268h63q-17 -167 -88 -251t-200 -84q-77 0 -138.5 34.5t-104.5 99.5t-66 158.5t-23 210.5zM227 588h326 q-12 354 -160 354q-141 0 -166 -354z" />
<glyph unicode="f" horiz-adv-x="506" d="M55 2v41q34 2 56 7t34 17t16.5 32.5t4.5 53.5v746h-107v63q37 3 60.5 8t36.5 18.5t17.5 37.5t4.5 65q1 312 225 312q75 0 119.5 -42.5t44.5 -111.5q0 -76 -63 -76q-66 0 -66 60l2 20q5 17 6 23.5t0 17.5q-2 57 -45 57q-18 0 -36 -11.5t-29 -31.5q-17 -23 -22 -61.5 t-5 -110.5v-161h183v-76h-183v-746q0 -33 4 -53.5t16.5 -32.5t34.5 -17t58 -7v-41q-33 4 -58 6.5t-46 3.5t-40 1.5t-40 0.5t-40 -0.5t-39.5 -1.5t-45.5 -3.5t-58 -6.5z" />
<glyph unicode="g" horiz-adv-x="827" d="M59 -115q0 79 38.5 131.5t119.5 87.5q-45 25 -63.5 51t-18.5 68q0 113 172 168q-188 71 -188 291q0 154 73.5 232.5t217.5 78.5q50 0 88 -12t80 -41h217v-82l-156 6q20 -42 29.5 -81.5t9.5 -90.5q0 -154 -96 -242q-15 -14 -28.5 -24t-30.5 -18.5t-40 -17t-57 -20.5 l-47 -16q-42 -15 -69 -26t-42 -21.5t-20.5 -22t-5.5 -26.5q0 -16 7 -28t23.5 -20.5t44 -13.5t68.5 -6q26 -1 59.5 -5.5t66 -11t60.5 -13.5t43 -13q144 -59 144 -233q0 -70 -26 -127.5t-73 -98.5t-113 -63.5t-145 -22.5q-77 0 -140 20.5t-108 57.5t-69.5 89t-24.5 116z M131 -131q0 -44 20 -81t55.5 -64t84.5 -42.5t106 -15.5q118 0 185 51.5t67 145.5q0 85 -53 127q-15 12 -38.5 22t-51.5 16.5t-59.5 10.5t-61.5 4q-254 0 -254 -174zM254 694q0 -130 38 -197t107 -67t105.5 64t36.5 200q0 121 -37 184.5t-103 63.5q-69 0 -108 -65t-39 -183z " />
<glyph unicode="h" horiz-adv-x="905" d="M45 2v41q34 2 56 7t34 17t16.5 32.5t4.5 53.5v1033q0 40 -3.5 63.5t-14.5 36t-32.5 16.5t-58.5 4v37q68 8 127 21t125 33v-541q80 137 211 137q63 0 114.5 -30t82.5 -87q41 -77 41 -221v-502q0 -33 4 -53.5t16 -32.5t33.5 -17t56.5 -7v-41q-32 4 -56 6.5t-44 3.5 t-38.5 1.5t-39.5 0.5t-39.5 -0.5t-39 -1.5t-44.5 -3.5t-55 -6.5v41q31 2 50.5 7t31 17t16 31.5t4.5 50.5v514q0 67 -6.5 106t-22.5 68q-34 64 -110 64q-42 0 -78.5 -22.5t-56.5 -59.5q-17 -32 -24 -68t-7 -96v-506q0 -30 4.5 -49.5t15.5 -31.5t30.5 -17.5t49.5 -7.5v-41 q-31 4 -54.5 6.5t-43.5 3.5t-38.5 1.5t-39.5 0.5t-39.5 -0.5t-39 -1.5t-44.5 -3.5t-55 -6.5z" />
<glyph unicode="i" horiz-adv-x="477" d="M59 2v41q34 2 56 7t34 17t16.5 32.5t4.5 53.5v648q0 40 -3 63.5t-14.5 36t-33 16.5t-58.5 4v35q73 8 131.5 20.5t120.5 32.5v-856q0 -33 4 -53.5t16.5 -32.5t34.5 -17t58 -7v-41q-34 4 -59 6.5t-46 3.5t-39.5 1.5t-39.5 0.5q-20 0 -38.5 -0.5t-39.5 -1.5t-46.5 -3.5 t-58.5 -6.5zM137 1261q0 42 28 70.5t73 28.5q21 0 38.5 -7.5t31 -21t21 -31.5t7.5 -39t-8 -39.5t-21.5 -32t-31.5 -21t-39 -7.5q-42 0 -70.5 28.5t-28.5 71.5z" />
<glyph unicode="j" horiz-adv-x="473" d="M-23 -354q52 10 88.5 31.5t59.5 58t33 89.5t10 126v850q0 39 -3.5 62.5t-15 36.5t-33.5 17t-59 4v35q73 8 132.5 20.5t121.5 32.5v-974q0 -71 -6.5 -126.5t-20 -99t-35 -77t-52.5 -60.5q-48 -42 -99 -60t-121 -20v54zM135 1268q0 21 8 38.5t21.5 31t32 21t39.5 7.5 q42 0 70 -28t28 -70q0 -45 -28 -73t-70 -28q-45 0 -73 28t-28 73z" />
<glyph unicode="k" horiz-adv-x="895" d="M45 2v41q34 2 56 7t34 17t16.5 32.5t4.5 53.5v1033q0 40 -3.5 63.5t-14.5 36t-32.5 16.5t-58.5 4v37q68 8 127 21t125 33v-914l254 350q29 41 29 58q0 43 -90 49v41q24 -3 43.5 -5t37.5 -3t35.5 -1.5t38.5 -0.5t39 0.5t36.5 1.5t40 3t48.5 5v-41q-33 -4 -55 -9t-39 -15 t-33 -27t-37 -45l-158 -211l232 -480q16 -33 30 -54t30 -32.5t36.5 -16.5t50.5 -7v-41q-24 2 -40.5 3.5t-29 2.5t-23 1.5t-21.5 0.5q-23 0 -47 -2t-66 -6l-238 520l-106 -139v-230q0 -33 4.5 -53.5t16.5 -32.5t33.5 -17t56.5 -7v-41q-33 4 -58 6.5t-46 3.5t-39.5 1.5 t-39.5 0.5t-39 -0.5t-38.5 -1.5t-45 -3.5t-57.5 -6.5z" />
<glyph unicode="l" horiz-adv-x="467" d="M55 2v41q34 2 56 7t34 17t16.5 32.5t4.5 53.5v1035q0 39 -3 62.5t-14.5 35.5t-33 16t-58.5 4v37q66 8 129 21t123 33v-1244q0 -33 4 -53.5t16.5 -32.5t34.5 -17t58 -7v-41q-34 4 -59 6.5t-46 3.5t-39.5 1.5t-39.5 0.5q-20 0 -38.5 -0.5t-39.5 -1.5t-46.5 -3.5t-58.5 -6.5 z" />
<glyph unicode="m" horiz-adv-x="1325" d="M57 2v41q34 2 56 7t34 17t16.5 32.5t4.5 53.5v633q0 45 -2 70.5t-11 38t-26.5 15.5t-48.5 3h-21v37q74 12 125 27t95 35q7 -48 10 -87t8 -88q22 43 45.5 73t50.5 48.5t57.5 26.5t67.5 8q74 0 121 -36.5t76 -123.5q22 43 45.5 73.5t51 49.5t59.5 28t71 9q58 0 100.5 -17.5 t70.5 -55t41 -96.5t13 -142v-529q0 -33 4 -53.5t16.5 -32.5t34.5 -17t58 -7v-41q-32 4 -56.5 6.5t-45 3.5t-39 1.5t-39.5 0.5t-40 -0.5t-39.5 -1.5t-44 -3.5t-54.5 -6.5v41q31 2 50.5 7t31 17t16 31.5t4.5 50.5v539q0 58 -6.5 98.5t-22 65.5t-40 36t-60.5 11 q-75 0 -115.5 -58.5t-40.5 -170.5v-521q0 -32 4.5 -51.5t16 -31t31.5 -16.5t51 -7v-41q-33 4 -57.5 6.5t-44.5 3.5t-37 1.5t-35 0.5q-35 0 -72.5 -2t-99.5 -10v41q30 2 49 7t30.5 17t16 31.5t4.5 50.5v535q0 116 -29 165.5t-96 49.5q-38 0 -73.5 -20.5t-53.5 -55.5 q-9 -18 -15.5 -35.5t-10 -37.5t-5.5 -45t-2 -58v-498q0 -32 4.5 -51.5t16 -31t31.5 -16.5t51 -7v-41q-31 4 -55 6.5t-44.5 3.5t-39 1.5t-39.5 0.5t-40 -0.5t-39 -1.5t-44.5 -3.5t-55.5 -6.5z" />
<glyph unicode="n" horiz-adv-x="918" d="M59 2v41q34 2 56 7t34 17t16.5 32.5t4.5 53.5v633q0 42 -2 67.5t-11 38.5t-26.5 17t-48.5 4h-21v37q38 7 68 13t56 13t49 15.5t47 20.5q4 -20 6.5 -38t4.5 -38t3.5 -45t3.5 -58q43 86 97 123t126 37q63 0 116 -30t83 -87q41 -77 41 -221v-502q0 -33 4 -53.5t16 -32.5 t33.5 -17t56.5 -7v-41q-32 4 -55.5 6t-44 3.5t-39 2t-39.5 0.5t-39.5 -0.5t-39 -1.5t-44.5 -3.5t-55 -6.5v41q31 2 50.5 7t31 17t16 31.5t4.5 50.5v514q0 67 -6 106t-22 68q-36 64 -111 64q-42 0 -78.5 -22.5t-56.5 -59.5q-9 -16 -15 -32t-9.5 -35.5t-5 -43t-1.5 -53.5v-506 q0 -30 4.5 -49.5t16 -31.5t31 -17.5t49.5 -7.5v-41q-31 4 -54.5 6.5t-43.5 3.5t-38.5 1.5t-39.5 0.5t-40 -0.5t-39 -1.5t-44.5 -3.5t-55.5 -6.5z" />
<glyph unicode="o" horiz-adv-x="788" d="M76 491q0 113 23.5 206.5t66.5 160.5t103 104t134 37q116 0 197 -100q27 -33 48 -77.5t36 -97t23 -111.5t8 -120q0 -111 -23.5 -204t-66.5 -160.5t-102 -105.5t-130 -38q-70 0 -128 36.5t-100 103.5t-65.5 160t-23.5 206zM227 487q0 -448 166 -448q170 0 170 448 q0 459 -166 459q-170 0 -170 -459z" />
<glyph unicode="p" horiz-adv-x="870" d="M45 -361q34 3 56 8t34 17t16.5 32.5t4.5 53.5v1051q0 91 -29 108q-10 8 -27 10t-55 4v37q69 6 119 14.5t98 22.5q4 -18 7.5 -34t6.5 -35t5 -43.5t4 -59.5q38 88 86.5 128t117.5 40q67 0 123.5 -37t97 -103.5t63 -158.5t22.5 -203t-21.5 -203t-61.5 -158t-95.5 -103 t-122.5 -37q-33 0 -60 7.5t-50 24.5t-43.5 44.5t-41.5 66.5v-383q0 -33 4.5 -53.5t16.5 -32.5t33.5 -17t56.5 -8v-41q-36 4 -63 6.5t-48.5 4t-39.5 2t-36 0.5t-36 -0.5t-38.5 -2t-45.5 -4t-58 -6.5v41zM297 502q0 -455 180 -455q166 0 166 438q0 451 -168 451 q-178 0 -178 -434z" />
<glyph unicode="q" horiz-adv-x="870" d="M76 491q0 111 22.5 203t63 158.5t96.5 103.5t123 37q69 0 118.5 -40t86.5 -128q2 33 4 57t4 43.5t5.5 36.5t8.5 35q50 -14 100 -22.5t117 -14.5v-37h-22q-27 0 -44 -5.5t-27 -19.5t-13.5 -37.5t-3.5 -59.5v-1051q0 -33 4 -53.5t15.5 -32.5t32.5 -17t56 -8v-41 q-32 4 -56 6.5t-44.5 4t-38.5 2t-37 0.5q-18 0 -36 -0.5t-39.5 -2t-48 -4t-62.5 -6.5v41q34 3 55.5 8t33.5 17t16.5 32.5t4.5 53.5v383q-21 -39 -41.5 -66.5t-43.5 -44.5t-49.5 -24.5t-59.5 -7.5q-68 0 -123 37t-95 103t-61.5 158t-21.5 203zM227 487q0 -440 168 -440 q178 0 178 453q0 436 -176 436q-170 0 -170 -449z" />
<glyph unicode="r" horiz-adv-x="641" d="M57 2v41q34 2 56 7t34 17t16.5 32.5t4.5 53.5v641q0 24 -0.5 40.5t-1.5 27.5t-3 19t-5 14q-20 28 -73 28h-11q-13 0 -15 -2v37q45 6 78 11.5t57.5 11t44 12t37.5 14.5q8 -50 11 -95t8 -99q23 94 73.5 140t116.5 46q63 0 101.5 -43.5t38.5 -116.5q0 -49 -20.5 -76.5 t-57.5 -27.5q-31 0 -50.5 18.5t-19.5 49.5q0 11 1.5 18.5t4.5 24.5q2 10 3 15.5t1 6.5q0 19 -13 32t-30 13q-31 0 -55.5 -23t-42 -65.5t-26.5 -104t-9 -139.5v-428q0 -33 5 -54t17.5 -33t34.5 -17t56 -6v-41q-33 4 -58 6.5t-46 3.5t-40 1.5t-40 0.5t-40 -0.5t-39.5 -1.5 t-45.5 -3.5t-58 -6.5z" />
<glyph unicode="s" horiz-adv-x="719" d="M98 -17v342h39q23 -142 71.5 -208t135.5 -66q34 0 63.5 14t52 38t35.5 56.5t13 69.5q0 30 -8 55t-26 47.5t-46.5 43.5t-69.5 43q-74 39 -122 73t-76.5 68.5t-39.5 73t-11 86.5q0 61 17.5 111.5t50 86.5t79 56t104.5 20q48 0 86.5 -14t75.5 -49l27 82h31v-318h-39 q-11 127 -52 184.5t-116 57.5q-32 0 -59 -12.5t-46.5 -34.5t-31 -52.5t-11.5 -66.5q0 -28 8 -52t26 -46t46.5 -42.5t69.5 -41.5q74 -39 123 -72.5t78 -68t41 -73t12 -87.5q0 -66 -20 -120.5t-55.5 -93.5t-85 -61t-108.5 -22q-57 0 -103 19.5t-91 64.5l-37 -91h-31z" />
<glyph unicode="t" horiz-adv-x="528" d="M57 899v63q79 2 127.5 76t71.5 230h45v-293h184v-76h-184v-602q0 -48 1 -78t3.5 -50t7 -33t11.5 -26q23 -41 71 -41q40 0 105 41v-61q-48 -32 -84 -45.5t-74 -13.5q-109 0 -154 84q-9 17 -16 37t-11.5 45.5t-6.5 57.5t-2 73v28l6 584h-101z" />
<glyph unicode="u" horiz-adv-x="901" d="M37 921v35q68 8 127 20.5t125 32.5v-692q0 -65 7.5 -109t25 -72t44.5 -40t66 -12q164 0 164 260v457q0 37 -4 60.5t-15 37t-30 18t-49 4.5h-13v35q70 8 129 20.5t124 32.5v-819q0 -37 3.5 -59t13 -34t28 -15.5t48.5 -3.5h21v-37q-37 -6 -67.5 -11t-57.5 -11t-52 -13.5 t-50 -17.5q-4 28 -6.5 48.5t-4 37t-2 32.5t-0.5 35v27q-38 -92 -91.5 -134t-133.5 -42q-242 0 -242 327v482q0 37 -4 60.5t-14.5 37t-29 18t-48.5 4.5h-12z" />
<glyph unicode="v" horiz-adv-x="815" d="M8 940v41q120 -12 182 -12q16 0 31.5 0.5t34.5 1.5t44.5 3.5t61.5 6.5v-41q-88 0 -88 -45q0 -5 3 -17l8 -32l164 -598l174 591q12 43 12 62q0 39 -82 39v41q42 -5 73 -6.5t54 -1.5q20 0 51.5 1.5t73.5 6.5v-41q-29 -2 -48 -6.5t-32.5 -15.5t-22.5 -30t-18 -49l-256 -856 h-43l-254 865q-8 28 -16.5 45t-21.5 27t-33.5 14t-51.5 6z" />
<glyph unicode="w" horiz-adv-x="1180" d="M25 940v41q28 -3 50.5 -5t42.5 -3t39 -1.5t40 -0.5t39.5 0.5t38 1.5t41.5 3t51 5v-41q-45 0 -70 -11t-25 -34q0 -5 3 -16.5t8 -34.5l133 -564l194 721h49l191 -725l137 566q5 17 6.5 30t1.5 23q0 45 -88 45v41q49 -4 78 -6t57 -2q29 0 54.5 1.5t66.5 6.5v-41 q-53 -4 -79.5 -24.5t-39.5 -73.5l-210 -859h-48l-194 742l-197 -742h-47l-209 852q-8 32 -16 51.5t-20.5 31t-31 16t-46.5 6.5z" />
<glyph unicode="x" horiz-adv-x="856" d="M35 2v41q27 2 46 7t35.5 17.5t32.5 35t37 59.5l181 321l-172 371q-12 25 -23.5 41t-26 26t-33.5 14t-46 5v41q28 -3 50.5 -5t43 -3t40 -1.5t40.5 -0.5t39.5 0.5t38.5 1.5t42 3t50 5v-41q-76 -6 -76 -37q0 -20 16 -53l101 -219l120 213q21 36 21 57q0 36 -82 39v41 q47 -5 75.5 -6.5t57.5 -1.5t58.5 1.5t76.5 6.5v-41q-27 -2 -46.5 -6t-35 -13t-29 -25.5t-28.5 -43.5l-160 -281l195 -422q15 -33 28.5 -53.5t29.5 -32.5t36.5 -16t50.5 -4v-41q-34 4 -59.5 6.5t-46.5 3.5t-39.5 1.5t-36.5 0.5t-36 -0.5t-38.5 -1.5t-45.5 -3.5t-58 -6.5v41 q84 6 84 41q0 16 -17 55l-131 283l-149 -264q-27 -48 -27 -74q0 -19 19 -27.5t67 -13.5v-41l-42 3.5t-33.5 2.5t-30 1.5t-29.5 0.5t-28.5 -0.5t-29 -1.5t-34.5 -2.5t-43 -3.5z" />
<glyph unicode="y" horiz-adv-x="838" d="M27 940v41q27 -3 49.5 -5t43 -3t40 -1.5t41.5 -0.5q21 0 40.5 0.5t39.5 1.5t42 3t50 5v-41q-48 -5 -67 -14t-19 -27q0 -6 3 -21.5t9 -35.5l162 -580l172 571q7 23 10.5 38t3.5 26q0 23 -20 32t-74 11v41q18 -2 33.5 -3.5t30 -2.5t29 -1.5t32.5 -0.5q35 0 65.5 1.5 t77.5 6.5v-41q-27 -4 -47 -11t-35 -18.5t-25 -29t-18 -42.5l-309 -1001q-48 -154 -121 -199q-32 -20 -61 -29q-18 -5 -35 -5q-10 0 -20 2q-11 2 -13 2h-10v102h16q37 0 66.5 10t53.5 31t42.5 54.5t34.5 80.5l51 154l-239 803q-9 28 -18 46t-22.5 28.5t-33.5 15t-51 6.5z" />
<glyph unicode="z" horiz-adv-x="754" d="M66 8l438 913h-174q-39 0 -68 -10.5t-51.5 -35.5t-39.5 -65.5t-32 -101.5h-37l37 267h545l-440 -914h186q43 0 72 9.5t51 35.5t40.5 73.5t41.5 123.5h37l-43 -295h-563z" />
<glyph unicode="{" horiz-adv-x="526" d="M106 516q28 13 47 27.5t30 34t15.5 45.5t4.5 63v491q0 64 10.5 108t34 71t61.5 39t94 12h29q-54 -17 -78 -60.5t-24 -121.5v-500q0 -43 -5 -74t-17.5 -55t-34 -43t-54.5 -37q33 -18 54.5 -37.5t34 -43.5t17.5 -55t5 -73v-549q0 -78 24 -121t78 -61h-29q-55 0 -93 12 t-62 39.5t-34.5 71.5t-10.5 108v539q0 36 -5 62.5t-16 46t-29.5 34t-46.5 27.5z" />
<glyph unicode="|" horiz-adv-x="840" d="M381 -334v1708h78v-1708h-78z" />
<glyph unicode="}" horiz-adv-x="526" d="M94 -424q57 18 81 61t24 121v549q0 42 5 73t17 55t33 43.5t53 37.5q-33 18 -54 37t-33 43t-16.5 55.5t-4.5 73.5v500q0 78 -24 120.5t-81 61.5h31q55 0 93 -12t61.5 -39t34 -71t10.5 -108v-491q0 -36 4.5 -63t16 -46.5t30 -34t47.5 -26.5q-29 -12 -47.5 -26.5t-30 -34 t-16 -46.5t-4.5 -63v-539q0 -65 -10.5 -109t-34 -71t-61.5 -39t-93 -12h-31z" />
<glyph unicode="~" horiz-adv-x="1112" d="M209 540q48 94 104.5 144.5t116.5 50.5q30 0 69 -10.5t87 -34.5q76 -37 137 -37q81 0 160 115l20 -19q-19 -43 -44.5 -78t-55 -60t-60.5 -38.5t-61 -13.5q-23 0 -45.5 6t-61.5 23q-37 16 -65 27t-50.5 17.5t-40.5 9.5t-36 3q-22 0 -39 -5t-33.5 -18.5t-35.5 -37 t-44 -60.5z" />
<glyph unicode="&#xa1;" horiz-adv-x="821" d="M18 908v205h27q5 -26 11.5 -47.5t15.5 -38.5q18 -36 53 -57.5t80 -21.5q56 0 93 34q34 33 34 76q0 44 -40 72q-21 15 -92 47q-38 17 -60 27t-31 15q-83 47 -83 130q0 16 4.5 34t12 34t16.5 29.5t18 21.5q54 45 134 45q64 0 126 -39l20 51h22v-191h-28q-15 144 -129 144 q-54 0 -87 -33q-29 -29 -29 -68q0 -35 25 -59q9 -8 27.5 -19t50.5 -25l80 -34q61 -27 88 -54q38 -36 38 -99q0 -71 -51 -122q-56 -54 -147 -54q-81 0 -148 51l-29 -54h-22zM464 1451v37q37 3 54 13q67 36 93 170h30v-175h143v-45h-143v-358q0 -66 11 -101q13 -40 62 -40 q30 0 80 26v-36q-62 -38 -119 -38q-93 0 -120 70q-6 15 -9 32.5t-5 37.5q0 6 -0.5 21.5t-0.5 41.5v344h-76z" />
<glyph unicode="&#xa2;" horiz-adv-x="1060" d="M9 1456v38q16 2 29.5 4.5t24.5 7.5q69 35 93 170h31v-175h143v-45h-143v-358q0 -67 11 -100q13 -40 62 -40q30 0 80 26v-37q-61 -37 -119 -37q-90 0 -120 70q-6 14 -9 31t-5 39q-1 5 -1 20.5v41.5v344h-77zM407 917v25q43 1 61 9q21 8 25 29q1 4 1.5 10.5t0.5 17.5v620 q0 36 -7 49q-11 19 -42 21q-8 2 -17.5 2h-20.5v21q48 5 94 12.5t91 20.5v-324q58 82 156 82q101 0 150 -76q30 -47 30 -133v-295q0 -15 1 -26t6 -16q15 -21 81 -24v-25q-42 4 -75 5.5t-60 1.5t-60.5 -1.5t-72.5 -5.5v24q20 1 34 3.5t23 6.5q19 10 22 28q1 5 1.5 12t0.5 15 v301q0 73 -18 103q-29 47 -91 47q-65 0 -103 -50q-25 -31 -25 -105v-296q0 -27 7 -40q14 -23 73 -25v-24q-39 4 -72.5 5.5t-60.5 1.5t-60 -1.5t-73 -5.5z" />
<glyph unicode="&#xa3;" horiz-adv-x="1057" d="M8 926v25q44 2 62 9q20 8 25 29q1 1 1 28v382v29t-1 17q-3 28 -37 32q-8 2 -20 2h-29v21q49 5 89.5 12.5t73.5 16.5q5 -29 7 -58l4 -58q8 18 17 33.5t21 29.5q21 26 47.5 37.5t57.5 11.5q52 0 81 -32q26 -26 26 -68q0 -26 -12 -41q-15 -18 -39 -18q-22 0 -36 11 q-14 12 -14 30q0 19 4 26q1 1 1 10q0 15 -10 22q-11 8 -26 8q-54 0 -87 -74q-19 -41 -19 -125v-257q0 -32 7 -42q13 -21 81 -24v-25q-42 4 -76.5 5.5t-60.5 1.5q-27 0 -61 -1.5t-77 -5.5zM464 1203q0 128 62 214q63 87 162 87q63 0 103 -37q12 -12 23.5 -26t21.5 -33v215 q0 18 -2 30t-5 19q-10 19 -42 22q-8 2 -17.5 1.5t-20.5 -0.5v22q49 4 94.5 11.5t90.5 20.5v-708q0 -43 4 -50q7 -22 29 -28q9 -3 23 -4t34 -2v-21q-51 -6 -91 -13.5t-71 -18.5q-6 25 -10.5 49t-6.5 49q-51 -101 -152 -101q-100 0 -164 85q-65 86 -65 217zM568 1204 q0 -55 6 -100.5t20 -81.5q15 -40 44 -63t66 -23q49 0 83 40q50 59 50 218q0 276 -140 276q-129 0 -129 -266z" />
<glyph unicode="&#xa4;" horiz-adv-x="1133" d="M98 964l78 78l154 -153q112 82 235 82q66 0 121 -18.5t115 -63.5l155 153l78 -78l-153 -153q43 -60 61.5 -114t18.5 -120q0 -63 -20 -120t-60 -111l155 -154l-78 -78l-155 154q-57 -43 -112.5 -61.5t-121.5 -18.5q-63 0 -120.5 20t-114.5 60l-154 -154l-78 78l152 154 q-42 57 -61 112t-19 121q0 122 80 232zM297 577q0 -55 21.5 -104t58.5 -86t86 -58.5t104 -21.5t104.5 21.5t86.5 58.5t58.5 86t21.5 104q0 56 -22 106t-58.5 87.5t-85 59.5t-101.5 22q-57 0 -107 -21.5t-87 -58.5t-58.5 -87t-21.5 -108z" />
<glyph unicode="&#xa5;" horiz-adv-x="1229" d="M227 964v22h8q32 0 41 11.5t10 47.5l15 434v5q0 31 -11.5 40.5t-47.5 12.5v22q21 -2 33 -2.5t26 -0.5q20 0 34 1t35 3l131 -441l129 441q24 -2 39 -3t30 -1q14 0 25 0.5t32 2.5v-21q-21 -2 -32.5 -4.5t-17.5 -9t-7 -17.5t-1 -28l7 -434q0 -35 11.5 -46t46.5 -13v-22 q-33 4 -52 5.5t-37 1.5q-9 0 -18 -0.5t-19 -1t-22.5 -2t-29.5 -3.5v22q37 2 47.5 12.5t10.5 43.5v3l-7 448l-115 -386l-34 -125h-11l-37 129l-112 383l-15 -449v-8q0 -30 11 -39.5t47 -11.5v-22q-26 3 -40 3.5t-30 0.5t-30 -0.5t-43 -3.5zM788 1258q0 70 13.5 127t38.5 97.5 t60.5 62t79.5 21.5q36 0 61 -12t48 -39l24 49h14v-174h-18q-15 78 -43.5 112.5t-76.5 34.5q-131 0 -131 -276q0 -268 130 -268q109 0 118 171h26q-3 -99 -45 -155t-110 -56q-42 0 -77 22t-60 62t-38.5 96.5t-13.5 124.5z" />
<glyph unicode="&#xa6;" horiz-adv-x="840" d="M381 321h78v-655h-78v655zM381 694v680h78v-680h-78z" />
<glyph unicode="&#xa7;" horiz-adv-x="5482" d="M12 311q0 65 10 133t28.5 134t44.5 128t58 115q116 191 259 191q77 0 110 -74l46 215q9 43 13 70t4 40q0 37 -51 37h-29l12 54q67 6 147.5 25.5t153.5 45.5l-230 -1085q-8 -36 -13 -61t-8 -43.5t-4 -32.5t-1 -29q0 -25 8 -41t23 -16q39 0 82 127l44 -29 q-21 -59 -41.5 -99.5t-43.5 -66.5t-50 -37.5t-61 -11.5q-110 0 -142 125q-32 -66 -69 -95.5t-91 -29.5q-47 0 -85.5 22t-66 63t-42.5 98t-15 128zM183 178q0 -57 15.5 -89t41.5 -32q81 0 158 305q16 64 30.5 133.5t26 134t18.5 117.5t7 84q0 119 -55 123q-46 4 -94.5 -99 t-96.5 -315q-12 -52 -21.5 -104t-16 -99t-10 -88t-3.5 -71zM884 299q0 67 10.5 138t29.5 140t46 132.5t60 115.5q120 187 280 187q85 0 134 -56.5t49 -156.5q0 -198 -188 -326q-27 -18 -52.5 -31t-52.5 -22t-57 -14.5t-66 -8.5q-9 -47 -13.5 -81.5t-4.5 -69.5 q0 -75 27 -119.5t73 -44.5q58 0 110.5 63.5t94.5 181.5h68q-108 -327 -328 -327q-50 0 -90.5 21t-69.5 60t-44.5 94.5t-15.5 123.5zM1093 471q7 0 10 0.5t14 1.5q42 2 81.5 36.5t70 89.5t49 123.5t18.5 139.5q0 42 -10.5 67t-30.5 25q-24 0 -50.5 -36t-53.5 -100t-52 -152.5 t-46 -194.5zM1579 139l43 229h50q-2 -19 -3 -32t-1.5 -23t-0.5 -18v-17q0 -47 9.5 -85.5t27.5 -66t43 -42.5t56 -15q30 0 57 16.5t46.5 44.5t31 66t11.5 82q0 23 -3 40.5t-11.5 33.5t-23 32.5t-37.5 37.5q-57 51 -92 88t-54.5 68t-26 61.5t-6.5 68.5q0 64 20 120t55 97.5 t83.5 65t104.5 23.5q18 0 32.5 -1.5t29 -6t30 -11.5t35.5 -18q32 -17 47 -17q10 0 20.5 6t36.5 23l-52 -276h-56q2 18 3 33.5t1 29.5q0 75 -30.5 120.5t-81.5 45.5q-25 0 -47.5 -11.5t-39 -31.5t-26.5 -46.5t-10 -56.5q0 -32 13 -56.5t48 -55.5q36 -32 59 -53.5t38.5 -36.5 t25.5 -26.5t21 -24.5q30 -37 44.5 -81.5t14.5 -95.5q0 -77 -23.5 -144.5t-64.5 -117t-97.5 -78t-122.5 -28.5q-36 0 -66.5 7.5t-57.5 24t-52 43.5t-51 66zM2326 172q0 29 8.5 82t26.5 131l94 409q5 20 8 40t3 32q0 23 -16 30t-66 7l14 53q34 4 72.5 11.5t78 17t79 20.5 t75.5 23l-173 -750q-6 -27 -10.5 -46t-6.5 -32.5t-3 -24t-1 -20.5q0 -43 21 -43q10 0 18 5.5t16.5 21t18 42.5t22.5 69l45 -19q-48 -231 -186 -231q-31 0 -56.5 12.5t-43.5 35.5t-28 54.5t-10 69.5zM2551 1278q0 30 9.5 56.5t25.5 47t37.5 32t45.5 11.5q21 0 39 -9.5 t31.5 -27t21 -40.5t7.5 -50q0 -31 -9.5 -58t-25 -47.5t-36.5 -32t-45 -11.5q-45 0 -73 36t-28 93zM2763 -178q0 169 151 227q-25 29 -36 55.5t-11 61.5q0 33 8.5 61.5t28 54.5t51 52t78.5 55q-54 42 -79 96t-25 129q0 37 6.5 75.5t18 75.5t28.5 70.5t38 61.5q88 115 218 115 q51 0 85 -15.5t67 -52.5l163 10l-23 -102h-102q14 -48 14 -99q0 -85 -24.5 -162t-64.5 -128q-21 -27 -42.5 -45t-47 -29t-57.5 -16t-73 -5q-64 -24 -92.5 -51.5t-28.5 -64.5q0 -24 18 -31q6 -5 10.5 -7.5t15 -5t29.5 -4.5t54 -6q73 -8 121 -23t77 -41t41 -65.5t12 -97.5 q0 -86 -25 -155.5t-71.5 -118t-112 -75t-146.5 -26.5q-63 0 -113.5 15.5t-86 44.5t-54 71t-18.5 95zM2833 -176q0 -75 52.5 -114.5t152.5 -39.5q88 0 137 52.5t49 146.5q0 34 -12 57.5t-38.5 38.5t-69 22t-102.5 7q-81 0 -125 -44.5t-44 -125.5zM3083 508q0 -42 13.5 -67 t38.5 -25q58 0 108 186q10 37 18.5 75.5t14.5 73.5t9.5 65t3.5 50q0 88 -48 88q-31 0 -55.5 -37.5t-47.5 -124.5q-11 -41 -21 -82.5t-17.5 -79.5t-12 -69.5t-4.5 -52.5zM3671 22l156 731l5 29l5 31q2 14 3.5 25t1.5 20q0 24 -16 32.5t-67 10.5l12 53q75 9 136.5 24.5 t115.5 35.5q3 -35 3 -52t-1 -37t-4 -43q85 130 208 130q34 0 62 -13t48 -36t31 -56t11 -72q0 -38 -6.5 -83.5t-19.5 -108.5l-59 -283q-12 -59 -19 -92.5t-10.5 -53t-4 -30t-0.5 -22.5q0 -50 27 -50q20 0 37 30t36 108l46 -17q-45 -233 -185 -233q-32 0 -59 13t-46.5 36 t-30.5 54.5t-11 68.5q0 31 6 70.5t19 99.5l75 360q6 29 10 59.5t4 53.5q0 38 -14 63t-37 25q-47 0 -80 -55t-59 -178l-137 -648h-192zM4599 334q0 67 10 136t28 134.5t43.5 125t57.5 107.5q58 88 129 131.5t149 43.5q52 0 94.5 -23t72.5 -66t46 -104.5t16 -138.5 q0 -62 -8.5 -126t-24 -125.5t-38 -118.5t-50.5 -105q-58 -100 -134.5 -152.5t-161.5 -52.5q-112 0 -170.5 84.5t-58.5 249.5zM4770 194q0 -137 67 -137q20 0 38 13t35.5 42t35 74.5t37.5 110.5q20 67 37 139.5t29 142.5t18.5 133.5t6.5 112.5q0 63 -17.5 96t-48.5 33 q-43 0 -81 -67t-77 -215q-19 -72 -33.5 -139.5t-25 -128.5t-16 -114.5t-5.5 -95.5z" />
<glyph unicode="&#xa8;" horiz-adv-x="846" d="M186 1280q0 39 28 65.5t67 26.5q18 0 35 -7.5t29.5 -20.5t20 -30t7.5 -36q0 -18 -7.5 -35t-20.5 -29.5t-30 -20t-36 -7.5q-39 0 -66 26t-27 68zM481 1280q0 38 26.5 65t67.5 27q19 0 35.5 -8t29.5 -21t20.5 -30t7.5 -35t-7.5 -35t-20.5 -29.5t-30.5 -20t-36.5 -7.5 q-38 0 -65 26.5t-27 67.5z" />
<glyph unicode="&#xa9;" horiz-adv-x="859" d="M176 1234q0 63 24 118.5t65 97t97 65.5t119 24t118.5 -23.5t96.5 -65t65 -97t24 -118.5q0 -64 -26.5 -120t-71 -97t-103.5 -65t-124 -24q-61 0 -113 24.5t-90 66t-59.5 97t-21.5 117.5zM206 1234q0 -56 21.5 -106t58.5 -87.5t86.5 -59t105.5 -21.5q58 0 108.5 21t88 58 t59 87.5t21.5 108.5q0 56 -21.5 106t-59 87t-87.5 58.5t-106 21.5q-57 0 -107 -21.5t-87.5 -59t-59 -87t-21.5 -106.5zM342 1237q0 46 9.5 83.5t27 64.5t42.5 41.5t57 14.5q45 0 74 -33l17 32h13v-120h-15q-11 51 -29.5 73.5t-52.5 22.5q-37 0 -55 -27q-15 -21 -24.5 -59 t-9.5 -86q0 -91 20.5 -134.5t66.5 -43.5q74 0 80 112h23q-2 -68 -31 -106.5t-80 -38.5q-29 0 -53.5 15t-42 42t-27.5 64.5t-10 82.5z" />
<glyph unicode="&#xaa;" horiz-adv-x="592" d="M70 583v78h471v-78h-471zM90 938q0 180 270 227v68q0 121 -81 121q-78 0 -78 -78v-8q2 -2 1.5 -5.5t0.5 -11.5q1 -25 -12.5 -41t-36.5 -16q-39 0 -39 49q0 33 13.5 62t37.5 50t55.5 33.5t67.5 12.5q45 0 82.5 -23t60.5 -61q23 -40 23 -131v-256q0 -60 7 -83.5t27 -23.5 q5 0 9.5 0.5t21.5 5.5v-47q-25 -6 -38 -8t-25 -2q-64 0 -82 94q-47 -96 -135 -96q-33 0 -60.5 12.5t-47.5 34.5t-31 53t-11 68zM184 946q0 -51 21.5 -80t58.5 -29q51 0 73.5 42.5t22.5 136.5v102q-176 -41 -176 -172z" />
<glyph unicode="&#xab;" horiz-adv-x="674" d="M98 497l199 478h47l-135 -478l135 -489h-47zM322 497l196 478h49l-135 -478l135 -489h-49z" />
<glyph unicode="&#xac;" horiz-adv-x="840" d="M70 479v76h700v-547h-154v471h-546z" />
<glyph unicode="&#xad;" horiz-adv-x="440" d="M10 510v92h420v-92h-420z" />
<glyph unicode="&#xae;" horiz-adv-x="865" d="M178 1224q0 63 24 118.5t65 97t97 65.5t119 24t118.5 -23.5t96.5 -65t65 -97t24 -118.5q0 -64 -24 -120t-65.5 -97t-98 -65t-121.5 -24q-61 0 -115.5 24.5t-95.5 66t-65 97t-24 117.5zM208 1224q0 -56 21.5 -106t58.5 -87.5t86.5 -59t105.5 -21.5q58 0 108.5 21t88 58 t59 87.5t21.5 108.5q0 56 -21.5 106t-59 87t-87.5 58.5t-106 21.5q-57 0 -107 -21.5t-87.5 -59t-59 -87t-21.5 -106.5zM344 1028v21l8 1q21 2 26.5 7.5t5.5 26.5v283q0 22 -6.5 27.5t-33.5 8.5v21h133q51 0 79 -27.5t28 -78.5q0 -77 -73 -98q13 -7 19.5 -16t14.5 -32l34 -91 q4 -11 7 -17t7 -9t10 -4t16 -2v-21q-17 2 -22.5 2h-12.5h-14t-21 -2q-5 12 -7 18.5t-7 19.5l-38 104q-10 27 -19 35.5t-29 8.5h-14v-130q0 -20 5.5 -26.5t29.5 -8.5v-21q-26 3 -38.5 4.5t-23.5 1.5q-12 0 -24.5 -1.5t-39.5 -4.5zM435 1239h33q65 0 65 82q0 77 -62 77h-36 v-159z" />
<glyph unicode="&#xaf;" horiz-adv-x="840" d="M170 1243v104h500v-104h-500z" />
<glyph unicode="&#xb0;" horiz-adv-x="879" d="M176 1122q0 55 21 102.5t57 83t85 56t105 20.5q53 0 100 -20.5t82 -56t55.5 -84t20.5 -103.5q0 -54 -20.5 -102t-56 -83.5t-84 -56t-103.5 -20.5q-54 0 -102 20.5t-83.5 56.5t-56 84t-20.5 103zM258 1122q0 -39 14 -72.5t38.5 -57.5t57 -38t70.5 -14q39 0 72.5 14 t58 38.5t38.5 57t14 70.5q0 37 -14.5 70.5t-39 58t-57 39t-68.5 14.5q-39 0 -72.5 -14.5t-58.5 -39t-39 -57t-14 -69.5z" />
<glyph unicode="&#xb1;" d="M98 61v123h682v-123h-682zM98 639v121h291v358h111v-358h280v-121h-280v-346h-111v346h-291z" />
<glyph unicode="&#xb2;" horiz-adv-x="580" d="M84 540v78l16 23q96 138 163 244.5t102 191.5q12 30 12 78q0 25 -7.5 47t-22 38.5t-34 26t-43.5 9.5q-108 0 -131 -170h-43q2 31 5 55.5t7.5 44t11.5 36t17 32.5q23 37 64 59.5t92 22.5q40 0 73.5 -13.5t58 -38.5t38.5 -60.5t14 -78.5q0 -25 -4.5 -49t-16.5 -53 t-33.5 -66.5t-54.5 -87.5t-80 -116.5t-110 -153.5h307l-12 -99h-389z" />
<glyph unicode="&#xb3;" horiz-adv-x="580" d="M76 780h45q7 -93 38 -133.5t91 -40.5q63 0 99 45.5t36 126.5q0 87 -36.5 125.5t-117.5 38.5h-16v55h16q134 0 134 150q0 63 -28.5 98t-76.5 35q-100 0 -125 -150h-41q18 226 191 226q40 0 74 -14.5t58.5 -41t38 -62.5t13.5 -79q0 -127 -117 -182q142 -46 142 -203 q0 -53 -16 -97.5t-44.5 -76.5t-69.5 -50t-90 -18q-189 0 -198 248z" />
<glyph unicode="&#xb4;" horiz-adv-x="840" d="M365 1136l159 302h183l-269 -302h-73z" />
<glyph unicode="&#xb5;" horiz-adv-x="741" d="M6 -289q0 20 2.5 53t7.5 70q10 72 18.5 165t14.5 193.5t9 202.5t3 193v356h113v-586q0 -47 2 -80.5t6 -59t10.5 -44.5t16.5 -37q17 -32 47 -50t66 -18q30 0 56 9t50 29t48.5 52t51.5 78v707h103v-700q0 -46 3 -76t10 -48t19.5 -25t30.5 -7q14 0 29 7t35 26v-31l-135 -102 q-6 0 -7 -3q-6 -2 -19 6t-24 19q-33 33 -38 150q-43 -53 -77.5 -88.5t-65 -56.5t-59 -29.5t-59.5 -8.5q-129 0 -172 183q0 -56 0.5 -101.5t2 -86.5t4.5 -80t8 -81q6 -51 6 -90q0 -43 -16.5 -71.5t-40.5 -28.5q-25 0 -42.5 26.5t-17.5 63.5z" />
<glyph unicode="&#xb6;" d="M86 1038q0 106 34 183t97 112q22 12 45 20t50 12.5t59 6.5t73 2h369v-49q-43 -4 -69.5 -10.5t-41 -20.5t-19.5 -39t-5 -65v-1278q0 -41 4 -65.5t18 -38.5t41 -20.5t72 -10.5v-52q-45 4 -81 7t-70.5 5.5t-70 3.5t-77.5 1q-44 0 -79.5 -1t-70 -3.5t-70.5 -5.5t-81 -7v52 q42 4 67 10.5t38.5 20.5t17.5 38.5t4 65.5v766q-254 45 -254 360zM436 -62q0 -42 2.5 -68.5t10.5 -42t22.5 -21t38.5 -5.5q22 0 36 5.5t22 20.5t11 42t3 71v1233q0 44 -3 71t-11 42t-22 20t-36 5t-36.5 -5.5t-22.5 -20.5t-11.5 -42t-3.5 -70v-1235z" />
<glyph unicode="&#xb7;" horiz-adv-x="403" d="M102 510q0 42 28 69t73 27q43 0 70.5 -27.5t27.5 -70.5q0 -21 -7.5 -39.5t-21 -32t-31 -21.5t-38.5 -8t-39.5 8t-32 22.5t-21.5 33t-8 39.5z" />
<glyph unicode="&#xb8;" horiz-adv-x="850" d="M295 -309q29 -11 46.5 -15t37.5 -4q37 0 60.5 24t23.5 62q0 45 -28.5 65t-94.5 25l70 160h69l-49 -121q150 -18 150 -139q0 -33 -11.5 -61t-32.5 -48t-50.5 -31.5t-65.5 -11.5q-18 0 -32.5 2t-29 5.5t-30 10t-33.5 15.5v62z" />
<glyph unicode="&#xb9;" horiz-adv-x="580" d="M135 1202v43q139 9 172 135h41v-725q0 -23 2 -36t10 -20.5t24 -11t44 -6.5v-43q-18 3 -32.5 4.5t-29 2t-31.5 0.5h-40h-39.5t-30.5 -0.5t-27.5 -2t-31.5 -4.5v43q27 3 42.5 6.5t23.5 11t10 20.5t2 36v547h-109z" />
<glyph unicode="&#xba;" horiz-adv-x="592" d="M59 583v78h471v-78h-471zM88 1085q0 69 15.5 127t43.5 100t66.5 65.5t85.5 23.5q46 0 83.5 -22.5t64 -64.5t41 -101.5t14.5 -133.5q0 -67 -15.5 -123.5t-43 -98t-65.5 -64.5t-83 -23q-46 0 -84 23t-65.5 64t-42.5 99t-15 129zM197 1083q0 -268 98 -268q48 0 74 66.5 t26 187.5q0 287 -98 287q-48 0 -74 -68t-26 -205z" />
<glyph unicode="&#xbb;" horiz-adv-x="674" d="M106 8l136 489l-136 478h50l196 -478l-196 -489h-50zM330 8l135 489l-135 478h47l198 -478l-198 -489h-47z" />
<glyph unicode="&#xbc;" horiz-adv-x="1219" d="M135 1204v41q139 9 172 135h41v-725q0 -23 2 -36t10 -20.5t23.5 -11t42.5 -6.5v-43q-19 3 -33.5 5t-29 2.5t-30.5 1t-38 0.5q-21 0 -37 -0.5t-30 -1t-28.5 -2.5t-33.5 -5v43q27 3 42.5 6.5t23.5 11t10 20.5t2 36v549h-109zM262 8l625 1335h69l-626 -1335h-68zM686 217 l283 614h100v-524h102v-90h-102v-227h-104v227h-279zM778 307h189v420z" />
<glyph unicode="&#xbd;" horiz-adv-x="1219" d="M135 1204v41q139 9 172 135h39v-725q0 -23 2 -36t10 -20.5t24 -11t44 -6.5v-43q-20 3 -35 5t-29 2.5t-30 1t-37 0.5t-37 -0.5t-30 -1t-28.5 -2.5t-33.5 -5v43q27 3 42.5 6.5t23.5 11t10 20.5t2 36v549h-109zM260 8l627 1335h69l-626 -1335h-70zM721 8v78l16 22 q99 136 162.5 243.5t101.5 195.5q13 31 13 73q0 54 -29.5 86.5t-77.5 32.5q-57 0 -88.5 -40t-42.5 -128h-43q7 129 53 188.5t144 59.5q40 0 74 -13.5t58.5 -38.5t38 -60t13.5 -78q0 -25 -4.5 -49t-16.5 -53t-32.5 -66t-54 -87t-80.5 -115.5t-111 -152.5h307l-12 -98h-389z " />
<glyph unicode="&#xbe;" horiz-adv-x="1219" d="M76 778h45q6 -93 37.5 -133.5t91.5 -40.5q63 0 100 47t37 125q0 166 -154 166h-18v55h18q63 0 97.5 38.5t34.5 111.5q0 63 -28.5 98t-76.5 35q-100 0 -125 -150h-41q18 226 191 226q40 0 73.5 -14.5t57.5 -40.5t37.5 -62.5t13.5 -79.5q0 -66 -27 -108.5t-90 -73.5 q144 -53 144 -205q0 -52 -16 -96.5t-44.5 -76.5t-69.5 -50.5t-90 -18.5q-189 0 -198 248zM262 8l627 1335h67l-626 -1335h-68zM686 217l283 614h100v-524h102v-90h-102v-227h-104v227h-279zM778 307h189v420z" />
<glyph unicode="&#xbf;" horiz-adv-x="647" d="M49 -86q0 47 7.5 85t25.5 74t47.5 73.5t73.5 82.5q41 42 69 78.5t44.5 73.5t22.5 76t3 86q-2 18 -2 23v17h70q4 -37 5 -59.5t1 -48.5q0 -53 -4.5 -91t-18 -73.5t-39.5 -76t-69 -97.5q-48 -63 -68 -114t-20 -107q0 -82 38 -129t107 -47q170 0 188 241h45q0 -180 -68 -270 t-210 -90q-56 0 -102 20.5t-78.5 58.5t-50 92t-17.5 122zM260 874q0 21 8 39t21.5 31.5t32.5 21t40 7.5q42 0 69.5 -29.5t27.5 -71.5q0 -43 -27 -70.5t-72 -27.5q-43 0 -71.5 28.5t-28.5 71.5z" />
<glyph unicode="&#xc0;" horiz-adv-x="1073" d="M27 2v49q38 2 61.5 8t39.5 21.5t27 42.5t25 71l377 1223l340 -1245q10 -36 20 -58t25.5 -34.5t40.5 -18.5t64 -10v-49q-35 5 -62 8t-50 5t-44 2.5t-43 0.5q-24 0 -45.5 -0.5t-44.5 -2t-50 -5t-61 -8.5v49q54 6 76 19t22 42q0 11 -2 29t-8 41l-55 221h-373l-57 -192 q-9 -29 -14 -54t-5 -45q0 -31 23.5 -43.5t83.5 -17.5v-49q-25 3 -45 5t-38.5 3t-36 1.5t-36.5 0.5q-38 0 -71.5 -2t-83.5 -8zM254 1771h199l204 -280h-82zM326 467h338l-156 608z" />
<glyph unicode="&#xc1;" horiz-adv-x="1073" d="M27 2v49q38 2 61.5 8t39.5 21.5t27 42.5t25 71l377 1223l340 -1245q10 -36 20 -58t25.5 -34.5t40.5 -18.5t64 -10v-49q-35 5 -62 8t-50 5t-44 2.5t-43 0.5q-24 0 -45.5 -0.5t-44.5 -2t-50 -5t-61 -8.5v49q54 6 76 19t22 42q0 11 -2 29t-8 41l-55 221h-373l-57 -192 q-9 -29 -14 -54t-5 -45q0 -31 23.5 -43.5t83.5 -17.5v-49q-25 3 -45 5t-38.5 3t-36 1.5t-36.5 0.5q-38 0 -71.5 -2t-83.5 -8zM326 467h338l-156 608zM475 1491l207 280h199l-324 -280h-82z" />
<glyph unicode="&#xc2;" horiz-adv-x="1073" d="M27 2v49q38 2 61.5 8t39.5 21.5t27 42.5t25 71l377 1223l340 -1245q10 -36 20 -58t25.5 -34.5t40.5 -18.5t64 -10v-49q-35 5 -62 8t-50 5t-44 2.5t-43 0.5q-24 0 -45.5 -0.5t-44.5 -2t-50 -5t-61 -8.5v49q54 6 76 19t22 42q0 11 -2 29t-8 41l-55 221h-373l-57 -192 q-9 -29 -14 -54t-5 -45q0 -31 23.5 -43.5t83.5 -17.5v-49q-25 3 -45 5t-38.5 3t-36 1.5t-36.5 0.5q-38 0 -71.5 -2t-83.5 -8zM281 1493l233 278h90l234 -278h-82l-197 172l-197 -172h-81zM326 467h338l-156 608z" />
<glyph unicode="&#xc3;" horiz-adv-x="1073" d="M27 2v49q38 2 61.5 8t39.5 21.5t27 42.5t25 71l377 1223l340 -1245q10 -36 20 -58t25.5 -34.5t40.5 -18.5t64 -10v-49q-35 5 -62 8t-50 5t-44 2.5t-43 0.5q-24 0 -45.5 -0.5t-44.5 -2t-50 -5t-61 -8.5v49q54 6 76 19t22 42q0 11 -2 29t-8 41l-55 221h-373l-57 -192 q-9 -29 -14 -54t-5 -45q0 -31 23.5 -43.5t83.5 -17.5v-49q-25 3 -45 5t-38.5 3t-36 1.5t-36.5 0.5q-38 0 -71.5 -2t-83.5 -8zM285 1546q23 106 61.5 153.5t99.5 47.5q29 0 56 -13t63 -43q25 -21 40.5 -33.5t26.5 -19t20.5 -8.5t21.5 -2q38 0 60.5 24.5t39.5 81.5l47 -12 q-6 -48 -14 -76.5t-25 -52.5q-57 -82 -125 -82q-31 0 -61 17.5t-78 60.5q-26 23 -44.5 32t-41.5 9q-35 0 -58 -23t-40 -77zM326 467h338l-156 608z" />
<glyph unicode="&#xc4;" horiz-adv-x="1073" d="M27 2v49q38 2 61.5 8t39.5 21.5t27 42.5t25 71l377 1223l340 -1245q10 -36 20 -58t25.5 -34.5t40.5 -18.5t64 -10v-49q-35 5 -62 8t-50 5t-44 2.5t-43 0.5q-24 0 -45.5 -0.5t-44.5 -2t-50 -5t-61 -8.5v49q54 6 76 19t22 42q0 11 -2 29t-8 41l-55 221h-373l-57 -192 q-9 -29 -14 -54t-5 -45q0 -31 23.5 -43.5t83.5 -17.5v-49q-25 3 -45 5t-38.5 3t-36 1.5t-36.5 0.5q-38 0 -71.5 -2t-83.5 -8zM313 1634q0 42 29 70t74 28q42 0 69 -27.5t27 -70.5t-28 -71.5t-70 -28.5q-21 0 -39.5 8t-32 21.5t-21.5 31.5t-8 39zM326 467h338l-156 608z M608 1634q0 42 29 70t74 28q42 0 69 -27.5t27 -70.5q0 -42 -28 -71t-70 -29q-21 0 -39.5 8t-32 21.5t-21.5 31.5t-8 39z" />
<glyph unicode="&#xc5;" horiz-adv-x="1073" d="M27 2v49q38 2 61.5 8t39.5 21.5t27 42.5t25 71l377 1223l340 -1245q10 -36 20 -58t25.5 -34.5t40.5 -18.5t64 -10v-49q-35 5 -62 8t-50 5t-44 2.5t-43 0.5q-24 0 -45.5 -0.5t-44.5 -2t-50 -5t-61 -8.5v49q54 6 76 19t22 42q0 11 -2 29t-8 41l-55 221h-373l-57 -192 q-9 -29 -14 -54t-5 -45q0 -31 23.5 -43.5t83.5 -17.5v-49q-25 3 -45 5t-38.5 3t-36 1.5t-36.5 0.5q-38 0 -71.5 -2t-83.5 -8zM326 467h338l-156 608zM399 1642q0 33 12.5 61t33.5 49t50 32.5t62 11.5q31 0 59 -12t49 -33t33.5 -49.5t12.5 -61.5t-12 -61.5t-33 -49 t-49.5 -32.5t-61.5 -12t-61.5 12t-49.5 33.5t-33 50t-12 61.5zM467 1640q0 -37 25.5 -62.5t62.5 -25.5q18 0 34 7t28 19t19 28t7 34t-7 33.5t-19 27t-28 18.5t-34 7q-37 0 -62.5 -24.5t-25.5 -61.5z" />
<glyph unicode="&#xc6;" horiz-adv-x="1489" d="M27 2v51q37 2 62 8.5t45 22.5t37 44t38 73l539 1173h612l29 -307h-39q-17 74 -33 121.5t-37 74.5t-50 37.5t-71 10.5h-225v-562h223q25 0 42 6.5t28 24.5t16.5 51t7.5 86h41v-401h-41q-2 51 -8 84t-18 52t-31 26.5t-47 7.5h-213v-494q0 -36 4.5 -59.5t16.5 -37t33 -19 t54 -5.5h105q49 0 83.5 12t60 42t43.5 81.5t34 131.5h39l-39 -330h-721v51q43 4 69.5 10.5t40.5 20.5t18.5 38.5t4.5 65.5v277h-381l-139 -305q-16 -33 -16 -64q0 -13 5 -21.5t18 -14t34.5 -8.5t54.5 -5v-51q-39 2 -64.5 3.5t-43 3t-30 2.5t-25.5 1q-15 0 -28 -1t-30.5 -2.5 t-43 -3t-64.5 -3.5zM428 534h352v772z" />
<glyph unicode="&#xc7;" horiz-adv-x="1004" d="M94 686q0 163 31.5 294.5t89.5 224.5t140 143.5t184 50.5q81 0 141 -28t111 -91l55 114h33v-401h-41q-18 90 -43 154.5t-59 105.5t-78 60.5t-99 19.5q-151 0 -223 -164q-18 -41 -33 -94t-25.5 -114.5t-16 -129.5t-5.5 -139q0 -151 20.5 -266.5t59 -193.5t94.5 -118 t127 -40q130 0 196.5 98t77.5 297h60q-3 -108 -27.5 -195t-68 -150t-105 -99t-137.5 -42l-39 -94q156 -15 156 -147q0 -36 -12 -66t-33 -51t-51 -33t-66 -12q-35 0 -62.5 7t-68.5 26v67q29 -11 46.5 -14.5t37.5 -3.5q42 0 66 25t24 67q0 48 -30 68t-99 22l59 141 q-89 14 -160.5 69.5t-122 146.5t-77.5 213.5t-27 271.5z" />
<glyph unicode="&#xc8;" horiz-adv-x="911" d="M63 8v51q42 4 68 10.5t39.5 20.5t18 38.5t4.5 65.5v994q0 40 -4.5 65t-18 39t-39.5 20.5t-68 10.5v51h713l29 -307h-39q-16 73 -32 120.5t-37 75t-50 38t-72 10.5h-229v-562h227q27 0 44.5 6.5t28 25t15.5 51t7 85.5h41v-401h-41q-2 51 -8 84t-18 52t-30.5 26.5 t-46.5 7.5h-219v-494q0 -36 5 -59.5t17 -37t32.5 -19t52.5 -5.5h112q48 0 82.5 12t59.5 42.5t43 82t34 130.5h39l-39 -330h-721zM186 1771h199l207 -280h-82z" />
<glyph unicode="&#xc9;" horiz-adv-x="911" d="M63 8v51q42 4 68 10.5t39.5 20.5t18 38.5t4.5 65.5v994q0 40 -4.5 65t-18 39t-39.5 20.5t-68 10.5v51h713l29 -307h-39q-16 73 -32 120.5t-37 75t-50 38t-72 10.5h-229v-562h227q27 0 44.5 6.5t28 25t15.5 51t7 85.5h41v-401h-41q-2 51 -8 84t-18 52t-30.5 26.5 t-46.5 7.5h-219v-494q0 -36 5 -59.5t17 -37t32.5 -19t52.5 -5.5h112q48 0 82.5 12t59.5 42.5t43 82t34 130.5h39l-39 -330h-721zM358 1491l205 280h199l-322 -280h-82z" />
<glyph unicode="&#xca;" horiz-adv-x="911" d="M63 8v51q42 4 68 10.5t39.5 20.5t18 38.5t4.5 65.5v994q0 40 -4.5 65t-18 39t-39.5 20.5t-68 10.5v51h713l29 -307h-39q-16 73 -32 120.5t-37 75t-50 38t-72 10.5h-229v-562h227q27 0 44.5 6.5t28 25t15.5 51t7 85.5h41v-401h-41q-2 51 -8 84t-18 52t-30.5 26.5 t-46.5 7.5h-219v-494q0 -36 5 -59.5t17 -37t32.5 -19t52.5 -5.5h112q48 0 82.5 12t59.5 42.5t43 82t34 130.5h39l-39 -330h-721zM182 1493l234 276h92l231 -276h-80l-198 170l-197 -170h-82z" />
<glyph unicode="&#xcb;" horiz-adv-x="911" d="M63 8v51q42 4 68 10.5t39.5 20.5t18 38.5t4.5 65.5v994q0 40 -4.5 65t-18 39t-39.5 20.5t-68 10.5v51h713l29 -307h-39q-16 73 -32 120.5t-37 75t-50 38t-72 10.5h-229v-562h227q27 0 44.5 6.5t28 25t15.5 51t7 85.5h41v-401h-41q-2 51 -8 84t-18 52t-30.5 26.5 t-46.5 7.5h-219v-494q0 -36 5 -59.5t17 -37t32.5 -19t52.5 -5.5h112q48 0 82.5 12t59.5 42.5t43 82t34 130.5h39l-39 -330h-721zM197 1634q0 43 28.5 70.5t71.5 27.5q42 0 70 -28t28 -70t-28 -71t-70 -29q-43 0 -71.5 28.5t-28.5 71.5zM492 1634q0 43 28.5 70.5t71.5 27.5 q42 0 70 -28t28 -70q0 -21 -8 -39.5t-21.5 -32t-31.5 -21t-39 -7.5q-42 0 -70 29t-28 71z" />
<glyph unicode="&#xcc;" horiz-adv-x="535" d="M-18 1771h194l195 -280h-82zM61 2v49q43 4 68.5 11t39 21.5t17.5 39.5t4 65v1006q0 40 -4.5 65t-18 39.5t-39 21.5t-67.5 11v49q34 -4 60.5 -7t50.5 -4.5t47 -2t49 -0.5q25 0 47.5 0.5t45.5 2t49.5 4.5t60.5 7v-49q-42 -4 -67 -11t-38.5 -21.5t-17.5 -39.5t-4 -65v-1006 q0 -40 4 -65t17 -39.5t38.5 -21.5t67.5 -11v-49q-40 5 -69.5 8t-52.5 5t-42.5 2.5t-38.5 0.5q-21 0 -40.5 -0.5t-43 -2t-53 -4.5t-70.5 -9z" />
<glyph unicode="&#xcd;" horiz-adv-x="541" d="M63 2v49q43 4 69 11t39.5 21.5t17.5 39.5t4 65v1006q0 40 -4.5 65t-18 39.5t-39.5 21.5t-68 11v49q34 -4 60.5 -7t50.5 -4.5t47 -2t49 -0.5q25 0 47.5 0.5t45.5 2t49.5 4.5t60.5 7v-49q-42 -4 -67 -11t-38.5 -21.5t-17.5 -39.5t-4 -65v-1006q0 -40 4 -65t17 -39.5 t38.5 -21.5t67.5 -11v-49q-40 5 -69.5 8t-52.5 5t-42.5 2.5t-38.5 0.5q-21 0 -40.5 -0.5t-43 -2t-53 -4.5t-70.5 -9zM176 1491l193 280h194l-305 -280h-82z" />
<glyph unicode="&#xce;" horiz-adv-x="551" d="M10 1493l219 276h93l219 -276h-80l-185 170l-184 -170h-82zM70 2v49q43 4 68.5 11t39 21.5t17.5 39.5t4 65v1006q0 40 -4.5 65t-18 39.5t-39 21.5t-67.5 11v49q34 -4 60.5 -7t50 -4.5t46 -2t49.5 -0.5q25 0 47.5 0.5t45.5 2t49.5 4.5t60.5 7v-49q-41 -4 -66 -11 t-38.5 -21.5t-18 -39.5t-4.5 -65v-1006q0 -40 4 -65t17.5 -39.5t38.5 -21.5t67 -11v-49q-40 5 -69.5 8t-52.5 5t-42.5 2.5t-38.5 0.5q-21 0 -40.5 -0.5t-42.5 -2t-53 -4.5t-70 -9z" />
<glyph unicode="&#xcf;" horiz-adv-x="543" d="M41 1634q0 43 28.5 70.5t71.5 27.5q45 0 72 -28t27 -70q0 -21 -7.5 -39t-21 -31.5t-31.5 -21.5t-39 -8q-43 0 -71.5 28.5t-28.5 71.5zM66 2v49q42 4 67 11t38.5 21.5t17.5 39.5t4 65v1006q0 40 -4.5 65t-18 39.5t-38.5 21.5t-66 11v49q33 -4 59.5 -7t50 -4.5t45.5 -2 t47 -0.5q27 0 50 0.5t46.5 2t50 4.5t60.5 7v-49q-42 -4 -67.5 -11t-39 -21.5t-18 -39.5t-4.5 -65v-1006q0 -40 4 -65t17.5 -39.5t39 -21.5t68.5 -11v-49q-41 6 -70.5 9t-52.5 4.5t-43 2t-41 0.5q-20 0 -39 -0.5t-42 -2.5t-52.5 -5t-68.5 -8zM305 1634q0 43 29 70.5t74 27.5 q42 0 69 -28t27 -70t-28 -71t-70 -29q-21 0 -39.5 8t-32 21.5t-21.5 31.5t-8 39z" />
<glyph unicode="&#xd0;" horiz-adv-x="1061" d="M55 8v49q42 4 67.5 11t39 21.5t18 39.5t4.5 65v492h-129v76h129v426q0 40 -4.5 65t-18 39t-39 20.5t-67.5 10.5v51h398q74 0 134 -13t109.5 -41t90 -72t75.5 -105q57 -100 84 -210t27 -243q0 -89 -15 -175t-42 -161t-65.5 -137t-84.5 -103q-61 -54 -138 -80t-177 -26 h-396zM338 174q0 -34 4 -55t14.5 -32.5t29.5 -15.5t50 -4q196 0 283 154q48 85 71 199.5t23 271.5q0 298 -94 467q-86 152 -275 152h-106v-549h242v-76h-242v-512z" />
<glyph unicode="&#xd1;" horiz-adv-x="1122" d="M61 1331v49q19 -2 35.5 -3t32.5 -2t33 -1h39h35.5t27.5 1t26.5 2t31.5 3l548 -1024v838q0 40 -4.5 65t-18 39.5t-39.5 21.5t-69 11v49q34 -3 59 -5t44 -3t33.5 -1.5t29.5 -0.5t29.5 0.5t32.5 1.5t41.5 3t56.5 5v-49q-44 -4 -70 -11t-40 -21.5t-18.5 -39.5t-4.5 -65v-1227 h-27q-11 21 -18 36t-15 31.5t-19 38t-30 56.5l-88 164l-479 897v-1002q0 -40 4 -65t17.5 -39.5t40 -21.5t71.5 -11v-49q-36 3 -61.5 5t-44.5 3t-33 1.5t-27 0.5q-15 0 -29 -0.5t-32 -1.5t-42 -3t-57 -5v49q45 4 71.5 11t40.5 21.5t18 39.5t4 65v1082q-12 15 -24.5 26 t-27.5 18t-35.5 11t-48.5 6zM295 1546q23 106 60.5 153.5t99.5 47.5q18 0 33 -3.5t31 -12t34.5 -23t42.5 -35.5q51 -45 90 -45q37 0 59 24.5t39 81.5l47 -12q-8 -49 -15 -77t-23 -52q-57 -82 -125 -82q-31 0 -62.5 17.5t-79.5 60.5q-26 23 -43.5 32t-40.5 9q-35 0 -58 -23 t-40 -77z" />
<glyph unicode="&#xd2;" horiz-adv-x="1057" d="M88 688q0 163 30.5 294.5t87.5 224.5t138 143.5t182 50.5q88 0 166.5 -42t132.5 -118q37 -52 63.5 -111.5t44 -130t26 -152t8.5 -177.5t-15 -187.5t-42 -170t-65 -141.5t-83 -102q-101 -86 -232 -86q-173 0 -288 142q-36 44 -64.5 105t-48.5 134t-30.5 155t-10.5 169z M242 1771h198l205 -280h-82zM250 700q0 -321 73.5 -490t208.5 -169q132 0 201.5 162.5t69.5 484.5q0 187 -24.5 321.5t-69.5 210.5q-72 123 -181 123q-65 0 -116.5 -44t-87.5 -127t-55 -202t-19 -270z" />
<glyph unicode="&#xd3;" horiz-adv-x="1057" d="M88 688q0 163 30.5 294.5t87.5 224.5t138 143.5t182 50.5q88 0 166.5 -42t132.5 -118q37 -52 63.5 -111.5t44 -130t26 -152t8.5 -177.5t-15 -187.5t-42 -170t-65 -141.5t-83 -102q-101 -86 -232 -86q-173 0 -288 142q-36 44 -64.5 105t-48.5 134t-30.5 155t-10.5 169z M250 700q0 -321 73.5 -490t208.5 -169q132 0 201.5 162.5t69.5 484.5q0 187 -24.5 321.5t-69.5 210.5q-72 123 -181 123q-65 0 -116.5 -44t-87.5 -127t-55 -202t-19 -270zM434 1491l205 280h199l-322 -280h-82z" />
<glyph unicode="&#xd4;" horiz-adv-x="1057" d="M88 688q0 163 30.5 294.5t87.5 224.5t138 143.5t182 50.5q88 0 166.5 -42t132.5 -118q37 -52 63.5 -111.5t44 -130t26 -152t8.5 -177.5t-15 -187.5t-42 -170t-65 -141.5t-83 -102q-101 -86 -232 -86q-173 0 -288 142q-36 44 -64.5 105t-48.5 134t-30.5 155t-10.5 169z M250 700q0 -321 73.5 -490t208.5 -169q132 0 201.5 162.5t69.5 484.5q0 187 -24.5 321.5t-69.5 210.5q-72 123 -181 123q-65 0 -116.5 -44t-87.5 -127t-55 -202t-19 -270zM250 1493l233 276h92l232 -276h-80l-199 170l-196 -170h-82z" />
<glyph unicode="&#xd5;" horiz-adv-x="1057" d="M88 688q0 163 30.5 294.5t87.5 224.5t138 143.5t182 50.5q88 0 166.5 -42t132.5 -118q37 -52 63.5 -111.5t44 -130t26 -152t8.5 -177.5t-15 -187.5t-42 -170t-65 -141.5t-83 -102q-101 -86 -232 -86q-173 0 -288 142q-36 44 -64.5 105t-48.5 134t-30.5 155t-10.5 169z M250 700q0 -321 73.5 -490t208.5 -169q132 0 201.5 162.5t69.5 484.5q0 187 -24.5 321.5t-69.5 210.5q-72 123 -181 123q-65 0 -116.5 -44t-87.5 -127t-55 -202t-19 -270zM270 1546q23 106 60.5 153.5t99.5 47.5q16 0 31 -3.5t30.5 -12t34.5 -23t43 -35.5q51 -45 90 -45 q38 0 60 24.5t39 81.5l47 -12q-6 -48 -14 -77t-25 -52q-58 -82 -123 -82q-32 0 -63 17.5t-78 60.5q-26 23 -44.5 32t-41.5 9q-35 0 -58.5 -23t-40.5 -77z" />
<glyph unicode="&#xd6;" horiz-adv-x="1057" d="M88 688q0 163 30.5 294.5t87.5 224.5t138 143.5t182 50.5q88 0 166.5 -42t132.5 -118q37 -52 63.5 -111.5t44 -130t26 -152t8.5 -177.5t-15 -187.5t-42 -170t-65 -141.5t-83 -102q-101 -86 -232 -86q-173 0 -288 142q-36 44 -64.5 105t-48.5 134t-30.5 155t-10.5 169z M250 700q0 -321 73.5 -490t208.5 -169q132 0 201.5 162.5t69.5 484.5q0 187 -24.5 321.5t-69.5 210.5q-72 123 -181 123q-65 0 -116.5 -44t-87.5 -127t-55 -202t-19 -270zM281 1634q0 43 28.5 70.5t71.5 27.5t70.5 -28t27.5 -70t-28 -71t-70 -29q-43 0 -71.5 28.5 t-28.5 71.5zM575 1634q0 43 28 70.5t73 27.5q42 0 70 -28t28 -70q0 -21 -8 -39.5t-21.5 -32t-31.5 -21t-39 -7.5t-39 8t-31.5 21.5t-21 31.5t-7.5 39z" />
<glyph unicode="&#xd7;" d="M131 995l72 88l237 -299l238 295l65 -82l-235 -297l237 -297l-69 -90l-240 299l-235 -295l-68 84l238 295z" />
<glyph unicode="&#xd8;" horiz-adv-x="1057" d="M45 8l137 209q-45 94 -69.5 213t-24.5 256q0 162 31.5 294t89 225.5t138.5 144.5t181 51q187 0 312 -176l98 149h74l-138 -211q45 -94 69 -208.5t24 -250.5q0 -164 -31 -297t-88 -227t-138.5 -145.5t-181.5 -51.5q-187 0 -311 172l-96 -147h-76zM246 672q0 -169 30 -316 l484 752q-76 235 -230 235q-66 0 -118.5 -46t-89.5 -133t-56.5 -211.5t-19.5 -280.5zM297 272q70 -231 231 -231q136 0 207.5 174.5t71.5 511.5q0 94 -6.5 168t-20.5 131z" />
<glyph unicode="&#xd9;" horiz-adv-x="1110" d="M53 1331v49q34 -4 60.5 -7t50 -4.5t46.5 -2t50 -0.5q25 0 47.5 0.5t45.5 2t49.5 4.5t60.5 7v-49q-42 -4 -67 -11t-38.5 -21.5t-17.5 -39.5t-4 -65v-793q0 -42 1.5 -73.5t5.5 -56t10.5 -44t15.5 -37.5q29 -57 86.5 -85.5t132.5 -28.5q63 0 118 23t91 65q30 35 47.5 101.5 t17.5 148.5v780q0 40 -4.5 65t-18 39.5t-39.5 21.5t-69 11v49q34 -3 59 -5t44 -3t33.5 -1.5t29.5 -0.5t29.5 0.5t32.5 1.5t41 3t55 5v-49q-43 -4 -69 -11t-39.5 -21.5t-18 -39.5t-4.5 -65v-768q0 -47 -3 -85t-9.5 -70.5t-18 -61t-27.5 -56.5q-48 -81 -125.5 -124.5 t-183.5 -43.5t-188 44.5t-133 132.5q-15 25 -25 51t-16.5 56.5t-9.5 67t-3 81.5v776q0 40 -4.5 65t-18 39.5t-39 21.5t-67.5 11zM305 1771h199l207 -280h-82z" />
<glyph unicode="&#xda;" horiz-adv-x="1110" d="M53 1331v49q34 -4 60.5 -7t50 -4.5t46.5 -2t50 -0.5q25 0 47.5 0.5t45.5 2t49.5 4.5t60.5 7v-49q-42 -4 -67 -11t-38.5 -21.5t-17.5 -39.5t-4 -65v-793q0 -42 1.5 -73.5t5.5 -56t10.5 -44t15.5 -37.5q29 -57 86.5 -85.5t132.5 -28.5q63 0 118 23t91 65q30 35 47.5 101.5 t17.5 148.5v780q0 40 -4.5 65t-18 39.5t-39.5 21.5t-69 11v49q34 -3 59 -5t44 -3t33.5 -1.5t29.5 -0.5t29.5 0.5t32.5 1.5t41 3t55 5v-49q-43 -4 -69 -11t-39.5 -21.5t-18 -39.5t-4.5 -65v-768q0 -47 -3 -85t-9.5 -70.5t-18 -61t-27.5 -56.5q-48 -81 -125.5 -124.5 t-183.5 -43.5t-188 44.5t-133 132.5q-15 25 -25 51t-16.5 56.5t-9.5 67t-3 81.5v776q0 40 -4.5 65t-18 39.5t-39 21.5t-67.5 11zM492 1491l206 280h199l-322 -280h-83z" />
<glyph unicode="&#xdb;" horiz-adv-x="1110" d="M53 1331v49q34 -4 60.5 -7t50 -4.5t46.5 -2t50 -0.5q25 0 47.5 0.5t45.5 2t49.5 4.5t60.5 7v-49q-42 -4 -67 -11t-38.5 -21.5t-17.5 -39.5t-4 -65v-793q0 -42 1.5 -73.5t5.5 -56t10.5 -44t15.5 -37.5q29 -57 86.5 -85.5t132.5 -28.5q63 0 118 23t91 65q30 35 47.5 101.5 t17.5 148.5v780q0 40 -4.5 65t-18 39.5t-39.5 21.5t-69 11v49q34 -3 59 -5t44 -3t33.5 -1.5t29.5 -0.5t29.5 0.5t32.5 1.5t41 3t55 5v-49q-43 -4 -69 -11t-39.5 -21.5t-18 -39.5t-4.5 -65v-768q0 -47 -3 -85t-9.5 -70.5t-18 -61t-27.5 -56.5q-48 -81 -125.5 -124.5 t-183.5 -43.5t-188 44.5t-133 132.5q-15 25 -25 51t-16.5 56.5t-9.5 67t-3 81.5v776q0 40 -4.5 65t-18 39.5t-39 21.5t-67.5 11zM319 1493l232 276h92l234 -276h-82l-197 170l-197 -170h-82z" />
<glyph unicode="&#xdc;" horiz-adv-x="1110" d="M53 1331v49q34 -4 60.5 -7t50 -4.5t46.5 -2t50 -0.5q25 0 47.5 0.5t45.5 2t49.5 4.5t60.5 7v-49q-42 -4 -67 -11t-38.5 -21.5t-17.5 -39.5t-4 -65v-793q0 -42 1.5 -73.5t5.5 -56t10.5 -44t15.5 -37.5q29 -57 86.5 -85.5t132.5 -28.5q63 0 118 23t91 65q30 35 47.5 101.5 t17.5 148.5v780q0 40 -4.5 65t-18 39.5t-39.5 21.5t-69 11v49q34 -3 59 -5t44 -3t33.5 -1.5t29.5 -0.5t29.5 0.5t32.5 1.5t41 3t55 5v-49q-43 -4 -69 -11t-39.5 -21.5t-18 -39.5t-4.5 -65v-768q0 -47 -3 -85t-9.5 -70.5t-18 -61t-27.5 -56.5q-48 -81 -125.5 -124.5 t-183.5 -43.5t-188 44.5t-133 132.5q-15 25 -25 51t-16.5 56.5t-9.5 67t-3 81.5v776q0 40 -4.5 65t-18 39.5t-39 21.5t-67.5 11zM352 1634q0 42 29 70t74 28q42 0 69 -27.5t27 -70.5q0 -42 -28 -71t-70 -29q-21 0 -39.5 8t-32 21.5t-21.5 31.5t-8 39zM647 1634q0 42 29 70 t74 28q42 0 69 -27.5t27 -70.5q0 -42 -28 -71t-70 -29q-21 0 -39.5 8t-32 21.5t-21.5 31.5t-8 39z" />
<glyph unicode="&#xdd;" horiz-adv-x="989" d="M33 1331v49q31 -4 57 -7t50 -4.5t47.5 -2t50.5 -0.5t50 0.5t46.5 2t49.5 4.5t58 7v-49q-33 -3 -54.5 -7t-34.5 -10t-18 -15t-5 -21q0 -29 14 -66l207 -524l201 526q16 43 16 64q0 25 -24 36t-87 17v49q27 -3 48 -5t38.5 -3t33.5 -1.5t34 -0.5t33.5 0.5t33 1.5t38 3 t47.5 5v-49q-35 -6 -58 -12.5t-39 -18t-27.5 -30.5t-23.5 -50l-240 -616v-416q0 -40 4 -65t17.5 -39.5t38.5 -21.5t67 -11v-49q-40 4 -69.5 7t-53 5t-43 3t-38.5 1q-20 0 -39 -0.5t-42.5 -2.5t-53.5 -5t-70 -8v49q43 4 68.5 11t39 21.5t17.5 39.5t4 65v416l-240 614 q-12 32 -24.5 52t-29 32t-39.5 18.5t-56 10.5zM440 1491l207 280h197l-322 -280h-82z" />
<glyph unicode="&#xde;" horiz-adv-x="913" d="M63 2v49q43 4 69 11t39.5 21.5t17.5 39.5t4 65v1006q0 40 -4.5 65t-18 39.5t-39.5 21.5t-68 11v49q34 -4 60.5 -7t50.5 -4.5t47 -2t49 -0.5q25 0 47.5 0.5t45.5 2t49.5 4.5t60.5 7v-49q-42 -4 -67 -11t-38.5 -21.5t-17.5 -39.5t-4 -65v-37h137q201 0 289 -109 q42 -51 64 -121t22 -145q0 -87 -24.5 -156t-70.5 -117t-112 -74t-149 -26h-156v-221q0 -40 4 -65t17 -39.5t38.5 -21.5t67.5 -11v-49q-39 5 -68.5 8t-53 5t-43 2.5t-38.5 0.5q-21 0 -40.5 -0.5t-43 -2t-53 -4.5t-70.5 -9zM346 473h107q75 0 123.5 23.5t80.5 80.5 q48 82 48 213q0 43 -6.5 82.5t-18 73t-27.5 60t-35 42.5q-51 45 -155 45h-117v-620z" />
<glyph unicode="&#xdf;" horiz-adv-x="864" d="M45 2v41q34 2 56 7t34 17t16.5 32.5t4.5 53.5v846q0 82 13 143t42 109q38 63 99.5 99t133.5 36q58 0 107.5 -23.5t85.5 -65.5t56 -99.5t20 -124.5q0 -53 -10.5 -96.5t-33 -80t-58 -67t-85.5 -57.5q262 -84 262 -395q0 -81 -20 -150.5t-55.5 -121.5t-83.5 -81.5 t-103 -29.5q-37 0 -68.5 13.5t-68.5 45.5v55q29 -17 45 -22.5t39 -5.5q39 0 70.5 20t53 57.5t33 89.5t11.5 117q0 180 -69.5 269.5t-211.5 97.5v63q111 5 160 72.5t49 214.5q0 121 -33 183.5t-96 62.5q-31 0 -61 -19.5t-47 -48.5q-19 -32 -26 -74t-7 -108v-1073 q-35 5 -59 5.5t-56 0.5q-18 0 -32.5 -0.5t-30.5 -1.5t-34 -2.5z" />
<glyph unicode="&#xe0;" horiz-adv-x="784" d="M76 252q0 158 121 243q66 47 135.5 74t161.5 41v146q0 182 -123 182q-57 0 -91 -30.5t-34 -84.5v-12.5t2 -24.5v-22q0 -84 -72 -84q-59 0 -59 69q0 50 21.5 94.5t58 77.5t85.5 52.5t103 19.5q72 0 130.5 -33.5t88.5 -93.5q18 -35 25.5 -81t7.5 -120v-428q0 -52 3 -87 t10 -56t18.5 -30t29.5 -9q12 0 18 0.5t23 5.5v-53q-31 -8 -52 -11t-44 -3q-60 0 -90.5 40t-38.5 128q-21 -46 -43 -78.5t-47 -53.5t-55.5 -30.5t-67.5 -9.5q-50 0 -91.5 19t-71 53.5t-46 82.5t-16.5 107zM147 1438h183l159 -302h-71zM221 264q0 -88 34 -137t91 -49 q79 0 113.5 71.5t34.5 231.5v176q-74 -16 -126 -41t-84.5 -60.5t-47.5 -83t-15 -108.5z" />
<glyph unicode="&#xe1;" horiz-adv-x="784" d="M76 252q0 158 121 243q66 47 135.5 74t161.5 41v146q0 182 -123 182q-57 0 -91 -30.5t-34 -84.5v-12.5t2 -24.5v-22q0 -84 -72 -84q-59 0 -59 69q0 50 21.5 94.5t58 77.5t85.5 52.5t103 19.5q72 0 130.5 -33.5t88.5 -93.5q18 -35 25.5 -81t7.5 -120v-428q0 -52 3 -87 t10 -56t18.5 -30t29.5 -9q12 0 18 0.5t23 5.5v-53q-31 -8 -52 -11t-44 -3q-60 0 -90.5 40t-38.5 128q-21 -46 -43 -78.5t-47 -53.5t-55.5 -30.5t-67.5 -9.5q-50 0 -91.5 19t-71 53.5t-46 82.5t-16.5 107zM221 264q0 -88 34 -137t91 -49q79 0 113.5 71.5t34.5 231.5v176 q-74 -16 -126 -41t-84.5 -60.5t-47.5 -83t-15 -108.5zM319 1136l162 302h181l-269 -302h-74z" />
<glyph unicode="&#xe2;" horiz-adv-x="784" d="M76 252q0 158 121 243q66 47 135.5 74t161.5 41v146q0 182 -123 182q-57 0 -91 -30.5t-34 -84.5v-12.5t2 -24.5v-22q0 -84 -72 -84q-59 0 -59 69q0 50 21.5 94.5t58 77.5t85.5 52.5t103 19.5q72 0 130.5 -33.5t88.5 -93.5q18 -35 25.5 -81t7.5 -120v-428q0 -52 3 -87 t10 -56t18.5 -30t29.5 -9q12 0 18 0.5t23 5.5v-53q-31 -8 -52 -11t-44 -3q-60 0 -90.5 40t-38.5 128q-21 -46 -43 -78.5t-47 -53.5t-55.5 -30.5t-67.5 -9.5q-50 0 -91.5 19t-71 53.5t-46 82.5t-16.5 107zM139 1138l217 300h76l217 -300h-78l-178 177l-176 -177h-78zM221 264 q0 -88 34 -137t91 -49q79 0 113.5 71.5t34.5 231.5v176q-74 -16 -126 -41t-84.5 -60.5t-47.5 -83t-15 -108.5z" />
<glyph unicode="&#xe3;" horiz-adv-x="784" d="M76 252q0 158 121 243q66 47 135.5 74t161.5 41v146q0 182 -123 182q-57 0 -91 -30.5t-34 -84.5v-12.5t2 -24.5v-22q0 -84 -72 -84q-59 0 -59 69q0 50 21.5 94.5t58 77.5t85.5 52.5t103 19.5q72 0 130.5 -33.5t88.5 -93.5q18 -35 25.5 -81t7.5 -120v-428q0 -52 3 -87 t10 -56t18.5 -30t29.5 -9q12 0 18 0.5t23 5.5v-53q-31 -8 -52 -11t-44 -3q-60 0 -90.5 40t-38.5 128q-21 -46 -43 -78.5t-47 -53.5t-55.5 -30.5t-67.5 -9.5q-50 0 -91.5 19t-71 53.5t-46 82.5t-16.5 107zM154 1206q12 55 26 93.5t31.5 62.5t40.5 34.5t53 10.5q15 0 29 -3.5 t29 -11t31.5 -21t37.5 -32.5q31 -29 50.5 -40t39.5 -11q35 0 56 23.5t38 82.5l46 -12q-28 -211 -156 -211q-29 0 -59.5 18t-73.5 60q-25 23 -41 32t-39 9q-35 0 -56.5 -23t-37.5 -77zM221 264q0 -88 34 -137t91 -49q79 0 113.5 71.5t34.5 231.5v176q-74 -16 -126 -41 t-84.5 -60.5t-47.5 -83t-15 -108.5z" />
<glyph unicode="&#xe4;" horiz-adv-x="784" d="M76 252q0 158 121 243q66 47 135.5 74t161.5 41v146q0 182 -123 182q-57 0 -91 -30.5t-34 -84.5v-12.5t2 -24.5v-22q0 -84 -72 -84q-59 0 -59 69q0 50 21.5 94.5t58 77.5t85.5 52.5t103 19.5q72 0 130.5 -33.5t88.5 -93.5q18 -35 25.5 -81t7.5 -120v-428q0 -52 3 -87 t10 -56t18.5 -30t29.5 -9q12 0 18 0.5t23 5.5v-53q-31 -8 -52 -11t-44 -3q-60 0 -90.5 40t-38.5 128q-21 -46 -43 -78.5t-47 -53.5t-55.5 -30.5t-67.5 -9.5q-50 0 -91.5 19t-71 53.5t-46 82.5t-16.5 107zM152 1280q0 19 7.5 36t20.5 29.5t30 19.5t36 7q18 0 35 -8t29.5 -21 t20 -30t7.5 -35t-7.5 -35t-20.5 -29.5t-30 -20t-36 -7.5q-38 0 -65 26.5t-27 67.5zM221 264q0 -88 34 -137t91 -49q79 0 113.5 71.5t34.5 231.5v176q-74 -16 -126 -41t-84.5 -60.5t-47.5 -83t-15 -108.5zM446 1280q0 38 26.5 65t68.5 27q18 0 34.5 -8t29 -21t20.5 -30t8 -35 t-7.5 -35t-20.5 -29.5t-30 -20t-36 -7.5q-39 0 -66 26t-27 68z" />
<glyph unicode="&#xe5;" horiz-adv-x="784" d="M76 252q0 158 121 243q66 47 135.5 74t161.5 41v146q0 182 -123 182q-57 0 -91 -30.5t-34 -84.5v-12.5t2 -24.5v-22q0 -84 -72 -84q-59 0 -59 69q0 50 21.5 94.5t58 77.5t85.5 52.5t103 19.5q72 0 130.5 -33.5t88.5 -93.5q18 -35 25.5 -81t7.5 -120v-428q0 -52 3 -87 t10 -56t18.5 -30t29.5 -9q12 0 18 0.5t23 5.5v-53q-31 -8 -52 -11t-44 -3q-60 0 -90.5 40t-38.5 128q-21 -46 -43 -78.5t-47 -53.5t-55.5 -30.5t-67.5 -9.5q-50 0 -91.5 19t-71 53.5t-46 82.5t-16.5 107zM221 264q0 -88 34 -137t91 -49q79 0 113.5 71.5t34.5 231.5v176 q-74 -16 -126 -41t-84.5 -60.5t-47.5 -83t-15 -108.5zM250 1300q0 33 12.5 61.5t34.5 49.5t51 33t62 12q31 0 58.5 -12.5t48.5 -34t33.5 -50t12.5 -59.5q0 -33 -12 -61.5t-32.5 -49t-49 -32.5t-61.5 -12t-62 12t-50.5 32.5t-33.5 49t-12 61.5zM317 1300q0 -18 7 -34 t19.5 -28t29 -19t35.5 -7q18 0 34 7t28 19t19 28t7 34t-7 34t-19 28t-28 19t-34 7t-34.5 -7t-29 -19t-20 -28t-7.5 -34z" />
<glyph unicode="&#xe6;" horiz-adv-x="1198" d="M74 248q0 290 430 335v173q0 182 -133 182q-57 0 -91 -29.5t-34 -77.5v-26q2 -17 2 -27v-12q0 -86 -72 -86q-59 0 -59 69q0 50 21 94.5t57.5 77.5t85 52.5t102.5 19.5q147 0 217 -121q88 121 223 121q287 0 299 -481h-473q0 -62 2 -109.5t6.5 -85t11.5 -67t17 -54.5 q55 -139 166 -139q178 0 207 266h65q-17 -163 -88.5 -248t-204.5 -85q-199 0 -288 227q-21 -62 -44 -105.5t-51.5 -70.5t-64.5 -39t-82 -12q-50 0 -91.5 18.5t-71.5 52t-47 81t-17 106.5zM219 258q0 -82 34.5 -130t94.5 -48q82 0 119 70.5t37 230.5v141q-75 -12 -128.5 -33 t-88.5 -52.5t-51.5 -76t-16.5 -102.5zM651 588h328q-9 352 -158 352q-38 0 -65.5 -20.5t-48 -63t-34 -109t-22.5 -159.5z" />
<glyph unicode="&#xe7;" horiz-adv-x="735" d="M78 485q0 114 23.5 208.5t66.5 162.5t102.5 105.5t130.5 37.5q55 0 94 -19t74 -67l41 105h31v-338h-39q-41 264 -180 264q-92 0 -140.5 -121t-48.5 -344q0 -426 185 -426q145 0 174 270h65q-27 -305 -227 -335l-41 -101q79 -8 113.5 -40.5t34.5 -98.5q0 -69 -44 -110.5 t-116 -41.5q-32 0 -59 7.5t-64 25.5v62q29 -11 46.5 -15t37.5 -4q82 0 82 88q0 45 -27 64t-94 24l61 140q-68 12 -120.5 52t-88.5 103.5t-54.5 150t-18.5 191.5z" />
<glyph unicode="&#xe8;" horiz-adv-x="772" d="M76 491q0 113 23.5 206t65.5 159t100.5 102.5t129.5 36.5q289 0 301 -481h-473q2 -66 4.5 -116.5t7.5 -90t13 -70.5t20 -59q52 -123 158 -123q179 0 207 268h63q-17 -167 -88 -251t-200 -84q-77 0 -138.5 34.5t-104.5 99.5t-66 158.5t-23 210.5zM150 1438h180l162 -302 h-74zM227 588h326q-12 354 -160 354q-141 0 -166 -354z" />
<glyph unicode="&#xe9;" horiz-adv-x="772" d="M76 491q0 113 23.5 206t65.5 159t100.5 102.5t129.5 36.5q289 0 301 -481h-473q2 -66 4.5 -116.5t7.5 -90t13 -70.5t20 -59q52 -123 158 -123q179 0 207 268h63q-17 -167 -88 -251t-200 -84q-77 0 -138.5 34.5t-104.5 99.5t-66 158.5t-23 210.5zM227 588h326 q-12 354 -160 354q-141 0 -166 -354zM317 1136l162 302h180l-268 -302h-74z" />
<glyph unicode="&#xea;" horiz-adv-x="772" d="M76 491q0 113 23.5 206t65.5 159t100.5 102.5t129.5 36.5q289 0 301 -481h-473q2 -66 4.5 -116.5t7.5 -90t13 -70.5t20 -59q52 -123 158 -123q179 0 207 268h63q-17 -167 -88 -251t-200 -84q-77 0 -138.5 34.5t-104.5 99.5t-66 158.5t-23 210.5zM139 1138l215 300h80 l215 -300h-78l-176 177l-178 -177h-78zM227 588h326q-12 354 -160 354q-141 0 -166 -354z" />
<glyph unicode="&#xeb;" horiz-adv-x="772" d="M76 491q0 113 23.5 206t65.5 159t100.5 102.5t129.5 36.5q289 0 301 -481h-473q2 -66 4.5 -116.5t7.5 -90t13 -70.5t20 -59q52 -123 158 -123q179 0 207 268h63q-17 -167 -88 -251t-200 -84q-77 0 -138.5 34.5t-104.5 99.5t-66 158.5t-23 210.5zM164 1280q0 18 7.5 35 t20.5 29.5t30 20t36 7.5q18 0 35 -7.5t29.5 -20.5t20 -30t7.5 -36q0 -39 -26.5 -65.5t-65.5 -26.5q-19 0 -36 7.5t-30 20.5t-20.5 30t-7.5 36zM227 588h326q-12 354 -160 354q-141 0 -166 -354zM459 1280q0 19 7.5 36t20.5 29.5t30 19.5t36 7q18 0 35 -7.5t29.5 -20.5 t20 -30t7.5 -36q0 -18 -7.5 -35t-20.5 -29.5t-30 -20t-36 -7.5q-38 0 -65 26.5t-27 67.5z" />
<glyph unicode="&#xec;" horiz-adv-x="469" d="M-20 1438h182l153 -302h-73zM51 2v41q34 2 56 7t34 17t16.5 32.5t4.5 53.5v648q0 40 -3 63.5t-14.5 36t-33 16.5t-58.5 4v35q66 8 129 20.5t123 32.5v-856q0 -33 4.5 -53.5t16.5 -32.5t33.5 -17t56.5 -7v-41q-33 4 -58 6.5t-45.5 3.5t-39.5 1.5t-40 0.5t-39.5 -0.5 t-39 -1.5t-45.5 -3.5t-58 -6.5z" />
<glyph unicode="&#xed;" horiz-adv-x="489" d="M59 2v41q34 2 56 7t34 17t16.5 32.5t4.5 53.5v648q0 40 -3 63.5t-14.5 36t-33 16.5t-58.5 4v35q70 8 129.5 20.5t122.5 32.5v-856q0 -33 4 -53.5t16.5 -32.5t34.5 -17t58 -7v-41q-33 4 -58 6.5t-46 3.5t-40 1.5t-40 0.5t-40 -0.5t-39.5 -1.5t-45.5 -3.5t-58 -6.5z M160 1136l153 302h181l-263 -302h-71z" />
<glyph unicode="&#xee;" horiz-adv-x="504" d="M6 1138l197 300h78l194 -300h-74l-159 177l-162 -177h-74zM68 2v41q34 2 55.5 7t33.5 17t16.5 32.5t4.5 53.5v648q0 40 -3 63.5t-14.5 36t-33.5 16.5t-59 4v35q69 8 128 20.5t126 32.5v-856q0 -33 4 -53.5t16 -32.5t33.5 -17t56.5 -7v-41q-32 4 -56.5 6.5t-45.5 3.5 t-40 1.5t-40 0.5t-40 -0.5t-40 -1.5t-46 -3.5t-56 -6.5z" />
<glyph unicode="&#xef;" horiz-adv-x="483" d="M20 1280q0 39 28 65.5t67 26.5q18 0 35 -7.5t29.5 -20.5t20 -30t7.5 -36q0 -18 -7.5 -35t-20.5 -29.5t-30 -20t-36 -7.5q-39 0 -66 26t-27 68zM57 2v41q34 2 56 7t34 17t16.5 32.5t4.5 53.5v648q0 40 -3.5 63.5t-15 36t-33.5 16.5t-59 4v35q66 8 130 20.5t124 32.5v-856 q0 -33 4.5 -53.5t16.5 -32.5t33.5 -17t56.5 -7v-41q-32 4 -56.5 6.5t-45.5 3.5t-40 1.5t-40 0.5t-40.5 -0.5t-41 -1.5t-46 -3.5t-55.5 -6.5zM254 1280q0 18 7.5 35t20.5 29.5t30 20t36 7.5t36 -7.5t29.5 -20.5t19.5 -30t7 -36q0 -39 -26.5 -65.5t-65.5 -26.5q-19 0 -36 7.5 t-30 20.5t-20.5 30t-7.5 36z" />
<glyph unicode="&#xf0;" horiz-adv-x="788" d="M76 495q0 108 23.5 199.5t65.5 158t100 104.5t128 38q23 0 35 -4t31 -14l-99 174l-120 -94l-31 57l121 96l-88 156l39 31l102 -144l127 101l31 -60l-121 -96l135 -213q45 -72 76 -131.5t49.5 -117t26.5 -117.5t8 -132q0 -109 -23.5 -200.5t-65.5 -158t-100.5 -103.5 t-128.5 -37q-71 0 -129.5 37t-101.5 103.5t-66.5 160t-23.5 206.5zM227 508q0 -467 170 -467q166 0 166 440q0 461 -168 461t-168 -434z" />
<glyph unicode="&#xf1;" horiz-adv-x="918" d="M59 2v41q34 2 56 7t34 17t16.5 32.5t4.5 53.5v633q0 42 -2 67.5t-11 38.5t-26.5 17t-48.5 4h-21v37q38 7 68 13t56 13t49 15.5t47 20.5q4 -20 6.5 -38t4.5 -38t3.5 -45t3.5 -58q43 86 97 123t126 37q63 0 116 -30t83 -87q41 -77 41 -221v-502q0 -33 4 -53.5t16 -32.5 t33.5 -17t56.5 -7v-41q-32 4 -55.5 6t-44 3.5t-39 2t-39.5 0.5t-39.5 -0.5t-39 -1.5t-44.5 -3.5t-55 -6.5v41q31 2 50.5 7t31 17t16 31.5t4.5 50.5v514q0 67 -6 106t-22 68q-36 64 -111 64q-42 0 -78.5 -22.5t-56.5 -59.5q-9 -16 -15 -32t-9.5 -35.5t-5 -43t-1.5 -53.5v-506 q0 -30 4.5 -49.5t16 -31.5t31 -17.5t49.5 -7.5v-41q-31 4 -54.5 6.5t-43.5 3.5t-38.5 1.5t-39.5 0.5t-40 -0.5t-39 -1.5t-44.5 -3.5t-55.5 -6.5zM215 1206q12 55 26 93.5t32 62.5t41 34.5t53 10.5q31 0 60 -15t67 -53q29 -29 49.5 -40t40.5 -11q35 0 56 23.5t38 82.5l45 -12 q-27 -211 -156 -211q-29 0 -59.5 18t-73.5 60q-24 23 -40.5 32t-39.5 9q-35 0 -56 -23t-38 -77z" />
<glyph unicode="&#xf2;" horiz-adv-x="788" d="M76 491q0 113 24 206.5t66.5 160.5t102.5 104t132 37q71 0 129 -37t99 -105t63.5 -163.5t22.5 -212.5q0 -68 -11 -132t-32 -120.5t-50 -102.5t-65 -77q-76 -64 -162 -64q-71 0 -129.5 36.5t-100.5 103.5t-65.5 160t-23.5 206zM174 1438h182l160 -302h-74zM227 487 q0 -448 166 -448q170 0 170 448q0 459 -166 459q-170 0 -170 -459z" />
<glyph unicode="&#xf3;" horiz-adv-x="788" d="M76 491q0 113 24 206.5t66.5 160.5t102.5 104t132 37q71 0 129 -37t99 -105t63.5 -163.5t22.5 -212.5q0 -68 -11 -132t-32 -120.5t-50 -102.5t-65 -77q-76 -64 -162 -64q-71 0 -129.5 36.5t-100.5 103.5t-65.5 160t-23.5 206zM227 487q0 -448 166 -448q170 0 170 448 q0 459 -166 459q-170 0 -170 -459zM319 1136l162 302h181l-269 -302h-74z" />
<glyph unicode="&#xf4;" horiz-adv-x="788" d="M76 491q0 113 24 206.5t66.5 160.5t102.5 104t132 37q71 0 129 -37t99 -105t63.5 -163.5t22.5 -212.5q0 -68 -11 -132t-32 -120.5t-50 -102.5t-65 -77q-76 -64 -162 -64q-71 0 -129.5 36.5t-100.5 103.5t-65.5 160t-23.5 206zM141 1138l215 300h78l215 -300h-78l-176 177 l-176 -177h-78zM227 487q0 -448 166 -448q170 0 170 448q0 459 -166 459q-170 0 -170 -459z" />
<glyph unicode="&#xf5;" horiz-adv-x="788" d="M76 491q0 113 24 206.5t66.5 160.5t102.5 104t132 37q71 0 129 -37t99 -105t63.5 -163.5t22.5 -212.5q0 -68 -11 -132t-32 -120.5t-50 -102.5t-65 -77q-76 -64 -162 -64q-71 0 -129.5 36.5t-100.5 103.5t-65.5 160t-23.5 206zM152 1206q13 55 27 93.5t32 62.5t41 34.5 t53 10.5q31 0 59 -15t66 -53q29 -29 50.5 -40t41.5 -11q35 0 56 23.5t38 82.5l46 -12q-14 -106 -54.5 -158.5t-103.5 -52.5q-29 0 -58.5 18t-72.5 60q-25 23 -42.5 32t-37.5 9q-35 0 -56.5 -23t-37.5 -77zM227 487q0 -448 166 -448q170 0 170 448q0 459 -166 459 q-170 0 -170 -459z" />
<glyph unicode="&#xf6;" horiz-adv-x="788" d="M76 491q0 113 24 206.5t66.5 160.5t102.5 104t132 37q71 0 129 -37t99 -105t63.5 -163.5t22.5 -212.5q0 -68 -11 -132t-32 -120.5t-50 -102.5t-65 -77q-76 -64 -162 -64q-71 0 -129.5 36.5t-100.5 103.5t-65.5 160t-23.5 206zM156 1280q0 38 26.5 65t67.5 27 q18 0 34.5 -8t29 -21t20.5 -30t8 -35t-8 -35t-21 -29.5t-30 -20t-35 -7.5q-38 0 -65 26.5t-27 67.5zM227 487q0 -448 166 -448q170 0 170 448q0 459 -166 459q-170 0 -170 -459zM449 1280q0 18 7.5 35t20.5 29.5t30 20t36 7.5t36 -7.5t29.5 -20.5t19.5 -30t7 -36 q0 -39 -26.5 -65.5t-65.5 -26.5q-19 0 -36 7.5t-30 20.5t-20.5 30t-7.5 36z" />
<glyph unicode="&#xf7;" d="M98 639v119h682v-119h-682zM340 418q0 43 28.5 70.5t71.5 27.5q21 0 39 -7.5t31.5 -21t21 -31t7.5 -38.5t-8 -39.5t-21.5 -32t-32 -21.5t-39.5 -8t-38.5 8t-31 21.5t-21 32t-7.5 39.5zM342 983q0 21 8 38.5t21.5 31t32.5 21t40 7.5q42 0 69.5 -28t27.5 -70 q0 -43 -28.5 -72t-70.5 -29q-21 0 -39 8t-31.5 22t-21.5 32t-8 39z" />
<glyph unicode="&#xf8;" horiz-adv-x="788" d="M43 2l100 158q-67 133 -67 327q0 111 24.5 204t68 160.5t103.5 105.5t131 38q121 0 205 -108l62 94h65l-94 -148q35 -69 53.5 -154t18.5 -179q0 -111 -23.5 -205t-66.5 -162.5t-102 -106.5t-130 -38q-122 0 -215 118l-65 -104h-68zM221 483q0 -51 3.5 -94t11.5 -92 l301 483q-38 158 -140 158q-43 0 -76 -30.5t-55 -88.5t-33.5 -143t-11.5 -193zM250 213q18 -79 56.5 -123.5t86.5 -44.5q86 0 130 120t44 343q0 56 -3 98.5t-13 89.5z" />
<glyph unicode="&#xf9;" horiz-adv-x="901" d="M37 921v35q68 8 127 20.5t125 32.5v-692q0 -65 7.5 -109t25 -72t44.5 -40t66 -12q164 0 164 260v457q0 37 -3.5 60.5t-13.5 36t-28 17t-47 4.5l-19 2v35q70 8 129 20.5t125 32.5v-819q0 -37 3 -59t12.5 -34t28 -15.5t48.5 -3.5h21v-37q-37 -6 -67.5 -11t-57.5 -11 t-52 -13.5t-50 -17.5q-4 36 -6.5 60t-4 41t-2 29.5t-0.5 26.5v23q-38 -92 -91.5 -134t-133.5 -42q-242 0 -242 327v482q0 37 -3.5 60.5t-13 36t-27.5 17t-46 4.5zM205 1438h180l162 -302h-74z" />
<glyph unicode="&#xfa;" horiz-adv-x="901" d="M37 921v35q68 8 127 20.5t125 32.5v-692q0 -65 7.5 -109t25 -72t44.5 -40t66 -12q164 0 164 260v457q0 37 -3.5 60.5t-13.5 36t-28 17t-47 4.5l-19 2v35q70 8 129 20.5t125 32.5v-819q0 -37 3 -59t12.5 -34t28 -15.5t48.5 -3.5h21v-37q-37 -6 -67.5 -11t-57.5 -11 t-52 -13.5t-50 -17.5q-4 36 -6.5 60t-4 41t-2 29.5t-0.5 26.5v23q-38 -92 -91.5 -134t-133.5 -42q-242 0 -242 327v482q0 37 -3.5 60.5t-13 36t-27.5 17t-46 4.5zM358 1136l162 302h180l-268 -302h-74z" />
<glyph unicode="&#xfb;" horiz-adv-x="901" d="M37 921v35q68 8 127 20.5t125 32.5v-692q0 -65 7.5 -109t25 -72t44.5 -40t66 -12q164 0 164 260v457q0 37 -3.5 60.5t-13.5 36t-28 17t-47 4.5l-19 2v35q70 8 129 20.5t125 32.5v-819q0 -37 3 -59t12.5 -34t28 -15.5t48.5 -3.5h21v-37q-37 -6 -67.5 -11t-57.5 -11 t-52 -13.5t-50 -17.5q-4 36 -6.5 60t-4 41t-2 29.5t-0.5 26.5v23q-38 -92 -91.5 -134t-133.5 -42q-242 0 -242 327v482q0 37 -3.5 60.5t-13 36t-27.5 17t-46 4.5zM188 1138l218 300h75l217 -300h-77l-179 177l-176 -177h-78z" />
<glyph unicode="&#xfc;" horiz-adv-x="901" d="M37 921v35q68 8 127 20.5t125 32.5v-692q0 -65 7.5 -109t25 -72t44.5 -40t66 -12q164 0 164 260v457q0 37 -3.5 60.5t-13.5 36t-28 17t-47 4.5l-19 2v35q70 8 129 20.5t125 32.5v-819q0 -37 3 -59t12.5 -34t28 -15.5t48.5 -3.5h21v-37q-37 -6 -67.5 -11t-57.5 -11 t-52 -13.5t-50 -17.5q-4 36 -6.5 60t-4 41t-2 29.5t-0.5 26.5v23q-38 -92 -91.5 -134t-133.5 -42q-242 0 -242 327v482q0 37 -3.5 60.5t-13 36t-27.5 17t-46 4.5zM205 1280q0 38 26.5 65t67.5 27q18 0 34.5 -8t29 -21t20.5 -30t8 -35t-8 -35t-21 -29.5t-30 -20t-35 -7.5 q-38 0 -65 26.5t-27 67.5zM498 1280q0 18 7.5 35t20.5 29.5t30 20t36 7.5t36 -7.5t29.5 -20.5t19.5 -30t7 -36q0 -39 -26.5 -65.5t-65.5 -26.5q-19 0 -36 7.5t-30 20.5t-20.5 30t-7.5 36z" />
<glyph unicode="&#xfd;" horiz-adv-x="838" d="M27 940v41q27 -3 49.5 -5t43 -3t40 -1.5t41.5 -0.5q21 0 40.5 0.5t39.5 1.5t42 3t50 5v-41q-48 -5 -67 -14t-19 -27q0 -6 3 -21.5t9 -35.5l162 -580l172 571q7 23 10.5 38t3.5 26q0 23 -20 32t-74 11v41q18 -2 33.5 -3.5t30 -2.5t29 -1.5t32.5 -0.5q35 0 65.5 1.5 t77.5 6.5v-41q-27 -4 -47 -11t-35 -18.5t-25 -29t-18 -42.5l-309 -1001q-48 -154 -121 -199q-32 -20 -61 -28.5t-55 -3.5q-11 2 -13 2h-10v102h16q37 0 66.5 10t53.5 31t42.5 54.5t34.5 80.5l51 154l-239 803q-9 28 -18 46t-22.5 28.5t-33.5 15t-51 6.5zM362 1136l160 302 h183l-269 -302h-74z" />
<glyph unicode="&#xfe;" horiz-adv-x="870" d="M47 -361q34 3 56 8t34 17t16.5 32.5t4.5 53.5v1436q0 40 -3.5 63.5t-15 36t-33.5 16.5t-59 4v37q72 8 132 21t122 33v-543q70 139 191 139q67 0 123 -37t96.5 -103.5t63 -158.5t22.5 -203t-21.5 -203t-61.5 -158t-95.5 -103t-122.5 -37q-33 0 -60 7.5t-50 24.5 t-43.5 44.5t-41.5 66.5v-383q0 -33 4.5 -53.5t16.5 -32.5t33.5 -17t56.5 -8v-41q-38 4 -65.5 6.5t-48.5 4t-38 2t-35 0.5t-35 -0.5t-37.5 -2t-46 -4t-59.5 -6.5v41zM299 504q0 -457 180 -457q166 0 166 442q0 447 -168 447q-178 0 -178 -432z" />
<glyph unicode="&#xff;" horiz-adv-x="838" d="M27 940v41q27 -3 49.5 -5t43 -3t40 -1.5t41.5 -0.5q21 0 40.5 0.5t39.5 1.5t42 3t50 5v-41q-48 -5 -67 -14t-19 -27q0 -6 3 -21.5t9 -35.5l162 -580l172 571q7 23 10.5 38t3.5 26q0 23 -20 32t-74 11v41q18 -2 33.5 -3.5t30 -2.5t29 -1.5t32.5 -0.5q35 0 65.5 1.5 t77.5 6.5v-41q-27 -4 -47 -11t-35 -18.5t-25 -29t-18 -42.5l-309 -1001q-48 -154 -121 -199q-32 -20 -61 -28.5t-55 -3.5q-11 2 -13 2h-10v102h16q37 0 66.5 10t53.5 31t42.5 54.5t34.5 80.5l51 154l-239 803q-9 28 -18 46t-22.5 28.5t-33.5 15t-51 6.5zM207 1280q0 18 8 35 t21 29.5t30.5 20t36.5 7.5q18 0 34.5 -7.5t29 -20.5t19.5 -30t7 -36q0 -39 -26.5 -65.5t-65.5 -26.5q-19 0 -36 7.5t-30 20.5t-20.5 30t-7.5 36zM502 1280q0 18 7.5 35t20.5 29.5t30 20t36 7.5q18 0 35 -7.5t29.5 -20.5t20 -30t7.5 -36q0 -39 -26.5 -65.5t-65.5 -26.5 q-19 0 -36 7.5t-30 20.5t-20.5 30t-7.5 36z" />
<glyph unicode="&#x152;" horiz-adv-x="1520" d="M86 690q0 159 31 289.5t87 224t135 144.5t175 51q94 0 170 -54.5t127 -160.5v190h578l28 -307h-39q-16 73 -31.5 120.5t-36.5 75t-50 38t-72 10.5h-240v-562h238q27 0 44 6.5t27.5 25t15.5 51t7 85.5h41v-401h-41q-2 51 -8 84t-18 52t-30.5 26.5t-45.5 7.5h-230v-494 q0 -36 5.5 -59.5t18 -37t34.5 -19t55 -5.5h117q48 0 82.5 12t59.5 42.5t43 82t34 130.5h39l-39 -330h-582v195q-35 -60 -67.5 -102t-67.5 -68t-74 -38t-86 -12q-78 0 -149.5 36.5t-128.5 105.5q-35 42 -64 104t-49.5 136t-31.5 157t-11 168zM246 694q0 -159 19.5 -280.5 t56.5 -204t90.5 -124.5t122.5 -42q64 0 115.5 43.5t87.5 125t55.5 198t19.5 262.5q0 334 -72 500.5t-211 166.5q-68 0 -120.5 -42t-89 -124t-55.5 -202t-19 -277z" />
<glyph unicode="&#x153;" horiz-adv-x="1257" d="M76 489q0 113 23.5 206t66.5 160t103 103.5t134 36.5q147 0 232 -160q95 158 246 158q144 0 220 -125.5t81 -376.5h-473q2 -117 14 -199.5t36.5 -134.5t61.5 -76t90 -24q178 0 207 266h66q-35 -333 -291 -333q-165 0 -260 161q-97 -163 -240 -163q-70 0 -128 37t-100 103 t-65.5 158t-23.5 203zM227 485q0 -444 166 -444q82 0 126 111.5t44 316.5q0 241 -39 357t-125 116q-172 0 -172 -457zM711 567h327q-6 198 -45 287.5t-114 89.5q-74 0 -115 -89.5t-53 -287.5z" />
<glyph unicode="&#x178;" horiz-adv-x="989" d="M33 1331v49q31 -4 57 -7t50 -4.5t47.5 -2t50.5 -0.5t50 0.5t46.5 2t49.5 4.5t58 7v-49q-33 -3 -54.5 -7t-34.5 -10t-18 -15t-5 -21q0 -29 14 -66l207 -524l201 526q16 43 16 64q0 25 -24 36t-87 17v49q27 -3 48 -5t38.5 -3t33.5 -1.5t34 -0.5t33.5 0.5t33 1.5t38 3 t47.5 5v-49q-35 -6 -58 -12.5t-39 -18t-27.5 -30.5t-23.5 -50l-240 -616v-416q0 -40 4 -65t17.5 -39.5t38.5 -21.5t67 -11v-49q-40 4 -69.5 7t-53 5t-43 3t-38.5 1q-20 0 -39 -0.5t-42.5 -2.5t-53.5 -5t-70 -8v49q43 4 68.5 11t39 21.5t17.5 39.5t4 65v416l-240 614 q-12 32 -24.5 52t-29 32t-39.5 18.5t-56 10.5zM293 1634q0 21 8 38.5t21.5 31t32.5 21t40 7.5q42 0 69.5 -27.5t27.5 -70.5q0 -21 -7.5 -39t-21 -31.5t-31.5 -21.5t-39 -8q-43 0 -71.5 28.5t-28.5 71.5zM588 1634q0 42 28.5 70t73.5 28q42 0 69 -27.5t27 -70.5 q0 -42 -28 -71t-70 -29q-43 0 -71.5 28.5t-28.5 71.5z" />
<glyph unicode="&#x2c6;" horiz-adv-x="840" d="M166 1138l215 300h80l215 -300h-78l-178 177l-176 -177h-78z" />
<glyph unicode="&#x2dc;" horiz-adv-x="840" d="M166 1206q12 55 26.5 93.5t32.5 62.5t41 34.5t53 10.5q18 0 31 -2.5t27.5 -11t34.5 -25.5t53 -47q20 -18 37 -25.5t33 -7.5q35 0 56 23.5t40 82.5l43 -12q-13 -106 -53 -158.5t-103 -52.5q-29 0 -59.5 18t-73.5 60q-23 23 -40 32t-40 9q-32 0 -53.5 -22.5t-40.5 -77.5z " />
<glyph unicode="&#x2000;" horiz-adv-x="898" />
<glyph unicode="&#x2001;" horiz-adv-x="1796" />
<glyph unicode="&#x2002;" horiz-adv-x="898" />
<glyph unicode="&#x2003;" horiz-adv-x="1796" />
<glyph unicode="&#x2004;" horiz-adv-x="598" />
<glyph unicode="&#x2005;" horiz-adv-x="449" />
<glyph unicode="&#x2006;" horiz-adv-x="299" />
<glyph unicode="&#x2007;" horiz-adv-x="299" />
<glyph unicode="&#x2008;" horiz-adv-x="224" />
<glyph unicode="&#x2009;" horiz-adv-x="359" />
<glyph unicode="&#x200a;" horiz-adv-x="99" />
<glyph unicode="&#x2010;" horiz-adv-x="440" d="M10 510v92h420v-92h-420z" />
<glyph unicode="&#x2011;" horiz-adv-x="440" d="M10 510v92h420v-92h-420z" />
<glyph unicode="&#x2012;" horiz-adv-x="440" d="M10 510v92h420v-92h-420z" />
<glyph unicode="&#x2013;" d="M147 512v88h582v-88h-582z" />
<glyph unicode="&#x2014;" horiz-adv-x="981" d="M10 512v88h961v-88h-961z" />
<glyph unicode="&#x2018;" horiz-adv-x="410" d="M100 1044q0 79 33 164.5t96 173.5h78q-23 -24 -44.5 -57.5t-38.5 -69.5t-27.5 -72t-12.5 -65h6q11 2 15.5 3t-0.5 1q33 0 55.5 -26.5t22.5 -71.5q0 -48 -24 -76.5t-66 -28.5q-45 0 -69 32.5t-24 92.5z" />
<glyph unicode="&#x2019;" horiz-adv-x="410" d="M102 932q25 28 46.5 62.5t38 70.5t26.5 70t12 61h-6q-2 -2 -14 -2q-35 0 -56.5 26.5t-21.5 69.5q0 48 24 77.5t66 29.5q43 0 67.5 -34t24.5 -91q0 -79 -31.5 -160t-97.5 -180h-78z" />
<glyph unicode="&#x201a;" horiz-adv-x="410" d="M102 -266q24 30 45.5 64.5t38 69.5t27 69t12.5 63h-6q-11 -2 -15 -3t1 -1q-35 0 -56.5 27t-21.5 69q0 48 24 77t66 29q43 0 67.5 -32t24.5 -92q0 -79 -31.5 -160t-97.5 -180h-78z" />
<glyph unicode="&#x201c;" horiz-adv-x="659" d="M102 1044q0 79 33 164.5t96 173.5h78q-23 -24 -44 -57.5t-37.5 -69.5t-27.5 -72t-14 -65h7q11 2 15 3t-1 1q33 0 55.5 -26.5t22.5 -71.5q0 -48 -24 -76.5t-66 -28.5q-45 0 -69 32.5t-24 92.5zM350 1044q0 76 33 163t96 175h80q-22 -24 -43.5 -58t-38.5 -70.5t-28 -72 t-13 -63.5h6q11 2 15.5 3t-0.5 1q15 1 29.5 -6.5t25 -21t17 -31.5t6.5 -39q0 -45 -26 -75t-65 -30q-43 0 -68.5 34t-25.5 91z" />
<glyph unicode="&#x201d;" horiz-adv-x="659" d="M102 932q25 28 46.5 62.5t38 70.5t26.5 70t12 61h-6q-2 -2 -14 -2q-35 0 -56.5 26.5t-21.5 69.5q0 48 24 77.5t66 29.5q43 0 67.5 -34t24.5 -91q0 -79 -31.5 -160t-97.5 -180h-78zM350 932q25 28 46.5 62.5t38 70.5t26.5 70t12 61h-6q-2 -2 -12 -2q-35 0 -56.5 26.5 t-21.5 69.5q0 48 25 77.5t63 29.5q43 0 68.5 -34t25.5 -91q0 -150 -129 -340h-80z" />
<glyph unicode="&#x201e;" horiz-adv-x="659" d="M102 -266q24 30 45.5 64.5t38 69.5t27 69t12.5 63h-6q-11 -2 -15 -3t1 -1q-35 0 -56.5 27t-21.5 69q0 48 24 77t66 29q43 0 67.5 -32t24.5 -92q0 -79 -31.5 -160t-97.5 -180h-78zM350 -266q25 30 46.5 65t38 70t26.5 69t12 62h-6q-11 -2 -15 -3t1 -1q-35 0 -55.5 26.5 t-20.5 69.5q0 48 23 77t65 29q43 0 68.5 -33.5t25.5 -90.5q0 -150 -129 -340h-80z" />
<glyph unicode="&#x2022;" horiz-adv-x="1133" d="M301 700q0 55 20.5 103t57 83.5t86 55.5t106.5 20q53 0 100.5 -20.5t83 -56t56 -84t20.5 -103.5t-20.5 -103.5t-56 -84.5t-84 -57t-103.5 -21t-103.5 21t-84.5 57t-57 85t-21 105z" />
<glyph unicode="&#x2026;" horiz-adv-x="1157" d="M98 96q0 42 28 69t73 27q43 0 70.5 -27.5t27.5 -70.5q0 -42 -28 -71t-70 -29q-21 0 -39.5 8t-32 22t-21.5 32.5t-8 39.5zM483 96q0 42 28 69t73 27q43 0 70.5 -27.5t27.5 -70.5q0 -42 -28 -71t-70 -29q-21 0 -39.5 8t-32 22t-21.5 32.5t-8 39.5zM856 96q0 42 28.5 69 t73.5 27q42 0 69.5 -27.5t27.5 -70.5q0 -21 -7.5 -39t-21 -31.5t-31.5 -21.5t-39 -8t-39 8t-31.5 22t-21.5 32.5t-8 39.5z" />
<glyph unicode="&#x202f;" horiz-adv-x="359" />
<glyph unicode="&#x2039;" horiz-adv-x="451" d="M98 497l199 478h53l-135 -478l135 -489h-53z" />
<glyph unicode="&#x203a;" horiz-adv-x="5779" d="M39 424l513 1032h153v-902h210v-130h-210v-392h-156v392h-510zM170 554h382l2 785zM947 33v41q33 2 55.5 6.5t33.5 9.5q23 12 32 48q2 8 2.5 20t1.5 26l32 818v6q0 46 -9 63q-20 36 -116 42v41q36 -3 67.5 -5t57.5 -2q35 0 71 2.5t72 7.5l281 -844l286 844q45 -5 81 -7.5 t65 -2.5q23 0 52.5 2t65.5 5v-41q-30 -2 -52 -5.5t-36 -10.5q-37 -16 -37 -81v-14l16 -818q1 -26 3.5 -43.5t6.5 -25.5q9 -18 38.5 -28t77.5 -13v-41q-120 12 -191 12t-188 -12v41q31 2 53 6.5t35 9.5q29 12 35 48q2 7 1.5 16t-0.5 22v8l-12 864l-250 -743l-39 -117l-20 -64 l-18 -54h-22l-16 54l-22 64l-21 65l-18 58l-247 740l-31 -867v-16q0 -17 2 -30t7 -23q17 -33 116 -41v-41q-51 4 -86.5 6t-62.5 2t-64.5 -2t-88.5 -6zM2187 36v41q67 4 92 22q15 11 27.5 34.5t25.5 60.5l345 994l312 -1012q21 -67 59 -84q25 -11 81 -15v-41q-54 6 -99.5 9.5 t-85.5 3.5q-39 0 -84.5 -3.5t-99.5 -9.5v41q21 2 37 4.5t25 5.5q35 11 35 40q0 13 -2.5 26.5t-7.5 29.5l-51 180h-352l-50 -157q-9 -29 -14 -48t-5 -30q0 -34 41 -45q21 -4 59 -6v-41q-89 9 -144 9q-30 0 -64.5 -2t-79.5 -7zM2488 470h320q-10 33 -23.5 78.5t-28.5 96.5 t-30.5 103t-28.5 98t-22.5 81.5t-13.5 53.5zM3068 899l41 255h661l43 -255h-36q-12 48 -24 83t-26 57q-23 36 -59 53q-21 10 -71 10h-95v-913q0 -56 8 -70q22 -33 116 -41v-41q-58 6 -105 9.5t-83 3.5t-83 -3.5t-107 -9.5v41q32 2 53.5 6.5t34.5 9.5q32 14 35 48 q1 7 1.5 18.5t0.5 28.5v913h-81q-96 0 -135 -65q-13 -22 -26 -56t-26 -82h-37zM3909 28v41q33 3 55 6t34 10q30 16 34 49q3 12 3 46v818q0 50 -10 69q-12 25 -63 36q-10 2 -23 3t-30 3v41q60 -7 106 -10t83 -3t84.5 3t105.5 10v-41q-32 -2 -54.5 -6.5t-33.5 -9.5 q-30 -13 -35 -48q-2 -7 -2 -18.5v-28.5v-818q0 -48 8 -69q13 -30 63 -36l54 -6v-41q-122 12 -190 12t-189 -12zM4418 590q0 252 107 416q55 85 141 127q73 36 158 36q139 0 236 -100l54 97h27v-329h-35q-61 277 -264 277q-150 0 -220 -148q-67 -138 -67 -371q0 -206 62 -350 q67 -156 222 -156q98 0 168 70q82 82 92 252h54q-2 -66 -13.5 -118t-33.5 -98q-41 -86 -123 -135q-74 -45 -163 -45q-123 0 -221 80q-49 39 -85 99.5t-62 141.5q-34 103 -34 254z" />
<glyph unicode="&#x205f;" horiz-adv-x="449" />
<glyph unicode="&#x20ac;" d="M2 534l45 90h123v51q0 18 0.5 29t0.5 19t0.5 15.5t0.5 18.5h-137l43 90h102q32 263 132 394t255 131q72 0 120 -27t89 -88l41 113h33v-400h-41q-26 168 -79.5 246t-141.5 78q-51 0 -87.5 -21.5t-68.5 -70.5q-18 -28 -32.5 -60.5t-26 -74.5t-20 -96t-15.5 -124h412 l-33 -90h-385l-2 -20l2 -41v-51v-21h338l-33 -90h-301q36 -450 262 -450q28 0 51 4t44.5 16t44 33.5t50.5 56.5q23 23 35.5 42t26.5 48v-145q-57 -76 -124 -111t-155 -35q-167 0 -268.5 135.5t-126.5 405.5h-174z" />
<glyph unicode="&#x2122;" horiz-adv-x="1227" d="M167 1416l23 143h325l23 -143h-26q-11 62 -30 84.5t-55 22.5h-40v-473q0 -17 2 -27t8.5 -15.5t18 -7.5t31.5 -2v-32q-21 3 -46 5t-39 2q-7 0 -22 -1t-31 -2.5t-31 -2.5t-22 -1v32q19 1 31 2.5t18.5 7t8.5 15.5t2 27v473h-35q-38 0 -57 -22.5t-30 -84.5h-27zM584 966v32 q20 1 32 2.5t18 7t8 15.5t3 27l15 428q2 32 -10.5 41t-50.5 12v32q11 -2 17 -2.5l12 -1t13.5 -0.5h21.5h38.5t34.5 4l133 -432l136 432q21 -4 36.5 -4h35.5h19.5t13 0.5t12 1t17.5 2.5v-32q-21 -2 -33 -4t-18 -7.5t-7.5 -15.5t-1.5 -26l7 -428q0 -16 2.5 -25.5t9 -15 t18.5 -8t31 -3.5v-32q-33 5 -52 6t-44 1q-23 0 -43 -1t-52 -6v32q19 1 31.5 3t19 7t8.5 15t2 27l-6 425l-121 -387l-31 -102h-16q-6 17 -9.5 29t-6.5 22.5t-6.5 22.5t-9.5 30l-119 385l-15 -425v-5q0 -29 12 -38t49 -9v-32q-32 3 -47.5 4t-27.5 1q-14 0 -33.5 -1t-45.5 -4z " />
<glyph unicode="&#x25fc;" horiz-adv-x="980" d="M0 0v980h980v-980h-980z" />
<glyph unicode="&#xfb01;" horiz-adv-x="944" d="M55 2v41q34 2 56 7t34 17t16.5 32.5t4.5 53.5v746h-107v63q37 3 60.5 8t36.5 18.5t17.5 37.5t4.5 65q1 312 225 312q75 0 119.5 -42.5t44.5 -111.5q0 -76 -63 -76q-66 0 -66 60l2 20q5 17 6 23.5t0 17.5q-2 57 -45 57q-18 0 -36 -11.5t-29 -31.5q-17 -23 -22 -61.5 t-5 -110.5v-161h183v-76h-183v-746q0 -33 4 -53.5t16.5 -32.5t34.5 -17t58 -7v-41q-33 4 -58 6.5t-46 3.5t-40 1.5t-40 0.5t-40 -0.5t-39.5 -1.5t-45.5 -3.5t-58 -6.5zM526 2v41q34 2 56 7t34 17t16.5 32.5t4.5 53.5v648q0 40 -3 63.5t-14.5 36t-33.5 16.5t-60 4v35 q73 8 132 20.5t122 32.5v-856q0 -33 4.5 -53.5t16.5 -32.5t33.5 -17t56.5 -7v-41q-32 4 -56.5 6.5t-45.5 3.5t-40 1.5t-40 0.5t-40.5 -0.5t-41 -1.5t-46 -3.5t-55.5 -6.5zM612 1263q0 45 28 72t73 27q21 0 38.5 -7.5t31 -21t21 -31.5t7.5 -39q0 -42 -28 -71t-70 -29 q-21 0 -39.5 8t-32 21.5t-21.5 31.5t-8 39z" />
<glyph unicode="&#xfb02;" horiz-adv-x="936" d="M55 2v41q34 2 56 7t34 17t16.5 32.5t4.5 53.5v746h-107v63q37 3 60.5 8t36.5 18.5t17.5 37.5t4.5 65q1 312 228 312q83 0 131 -60q60 6 117.5 18.5t123.5 35.5v-1244q0 -33 4.5 -53.5t16.5 -32.5t33.5 -17t56.5 -7v-41q-33 4 -58 6.5t-45.5 3.5t-39 1.5t-39.5 0.5 t-40 -0.5t-39.5 -1.5t-45.5 -3.5t-58 -6.5v41q34 2 56 7t34 17t16.5 32.5t4.5 53.5v1029q0 39 -2.5 62.5t-10 36.5t-23 18t-40.5 7q6 -18 8 -30t2 -25q0 -78 -65 -78q-29 0 -47.5 15.5t-18.5 44.5q0 6 1 11t5 28q2 14 3.5 20t1.5 4q0 53 -48 53q-24 0 -41.5 -11.5t-29 -36.5 t-16.5 -66t-5 -99v-161h183v-76h-183v-746q0 -33 4 -53.5t16.5 -32.5t34.5 -17t58 -7v-41q-33 4 -58 6.5t-46 3.5t-40 1.5t-40 0.5t-40 -0.5t-39.5 -1.5t-45.5 -3.5t-58 -6.5z" />
</font>
</defs>
</svg>
