<?xml version="1.0" standalone="no"?>
<!DOCTYPE svg PUBLIC "-//W3C//DTD SVG 1.1//EN" "http://www.w3.org/Graphics/SVG/1.1/DTD/svg11.dtd" >
<svg xmlns="http://www.w3.org/2000/svg">
<metadata></metadata>
<defs>
<font id="corposligregular" horiz-adv-x="1024" >
<font-face units-per-em="2048" ascent="1638" descent="-410" />
<missing-glyph horiz-adv-x="512" />
<glyph horiz-adv-x="2048" />
<glyph horiz-adv-x="2048" />
<glyph unicode="&#xd;" horiz-adv-x="2048" />
<glyph unicode=" "  horiz-adv-x="512" />
<glyph unicode="&#x09;" horiz-adv-x="512" />
<glyph unicode="&#xa0;" horiz-adv-x="512" />
<glyph unicode="!" horiz-adv-x="508" d="M148 81q0 44 30 74q31 32 76 32q43 0 74 -31q30 -31 30 -74q0 -45 -32 -75q-31 -30 -73 -30q-44 0 -74 31q-31 30 -31 73zM195 1343h118l-23 -982h-82z" />
<glyph unicode="&#x22;" horiz-adv-x="619" d="M118 1365h122l-16 -547h-90zM381 1365h121l-16 -547h-90z" />
<glyph unicode="#" horiz-adv-x="1229" d="M83 443l15 94h233l50 316h-233l15 94h233l66 418h106l-66 -418h323l66 418h106l-66 -418h233l-15 -94h-233l-50 -316h233l-15 -94h-233l-70 -443h-106l70 443h-323l-70 -443h-106l70 443h-233zM437 537h323l50 316h-323z" />
<glyph unicode="$" horiz-adv-x="1065" d="M97 370h115q8 -132 92 -212q71 -65 194 -75v575l-13 5q-136 53 -170 71q-95 50 -140 121.5t-45 170.5q0 133 81 227q102 120 287 133v127h68v-126q130 -7 224 -71q115 -82 127 -226h-123q-9 88 -80 141q-62 44 -148 51v-521q172 -66 235 -108q163 -108 163 -298 q0 -140 -92 -243q-107 -120 -306 -133v-138h-68v137q-176 9 -276 98q-117 105 -125 294zM246 1037q0 -122 110 -188q33 -19 142 -62v495q-100 -11 -159 -56q-93 -70 -93 -189zM566 84q112 10 182 64q94 72 94 193q0 133 -103 210q-43 31 -173 82v-549z" />
<glyph unicode="%" horiz-adv-x="1077" d="M43 1049q0 155 85 250q69 77 166 77q105 0 175 -93q72 -95 72 -234q0 -156 -85 -251q-69 -77 -164 -77q-106 0 -177 93q-72 95 -72 235zM87 0l805 1365h99l-806 -1365h-98zM146 1049q0 -105 44 -173q41 -64 102 -64q66 0 109 74q37 66 37 163q0 105 -44 173 q-41 63 -103 63q-66 0 -108 -74q-37 -67 -37 -162zM536 317q0 154 85 250q69 77 166 77q105 0 175 -94q72 -95 72 -234q0 -154 -86 -250q-68 -77 -163 -77q-106 0 -177 94q-72 94 -72 234zM639 316q0 -105 44 -172q42 -64 102 -64q67 0 109 74q38 67 38 163q0 104 -44 173 q-41 63 -104 63q-65 0 -107 -74q-38 -67 -38 -163z" />
<glyph unicode="&#x26;" horiz-adv-x="1221" d="M100 347q0 156 115 276q61 63 170 143q-76 100 -105 143q-59 89 -59 183q0 114 80 187q79 72 207 72q109 0 178 -54q83 -66 83 -190t-88 -229q-51 -60 -142 -132l307 -417q49 87 54 282h97q1 -110 -14 -198q-18 -96 -69 -176l175 -237h-134l-106 142q-136 -152 -348 -152 q-178 0 -286 94q-115 100 -115 263zM217 349q0 -108 76 -182q84 -84 214 -84q166 0 279 145l-336 450q-103 -75 -147 -121q-86 -89 -86 -208zM331 1103q0 -72 57 -152q12 -17 87 -119q84 65 126 118q59 75 59 160q0 66 -45 107q-43 41 -112 41q-66 0 -114 -36 q-58 -44 -58 -119z" />
<glyph unicode="'" horiz-adv-x="512" d="M195 1365h122l-16 -547h-90z" />
<glyph unicode="(" horiz-adv-x="558" d="M157 482q0 604 248 895h85q-220 -305 -220 -895q0 -351 84 -618q50 -161 136 -273h-85q-93 103 -144 244q-104 281 -104 647z" />
<glyph unicode=")" horiz-adv-x="558" d="M68 -409q86 113 136 273q84 267 84 618q0 589 -220 895h85q248 -291 248 -895q0 -366 -104 -647q-51 -141 -144 -244h-85z" />
<glyph unicode="*" d="M196 1068l28 87l242 -78v254h92v-254l242 78l28 -88l-242 -78l150 -206l-75 -54l-149 206l-149 -206l-75 54l150 206z" />
<glyph unicode="+" horiz-adv-x="1065" d="M112 650v78h380v393h83v-393h379v-78h-379v-394h-83v394h-380z" />
<glyph unicode="," horiz-adv-x="480" d="M79 -244q143 132 160 241q-14 -2 -20 -2q-40 0 -70 32q-27 30 -27 70q0 50 37 82q31 27 75 27q49 0 83 -35q36 -37 36 -103q0 -143 -145 -312h-129z" />
<glyph unicode="-" horiz-adv-x="571" d="M0 471v89h571v-89h-571z" />
<glyph unicode="." horiz-adv-x="526" d="M157 81q0 44 30 74q31 32 76 32q43 0 74 -31q30 -31 30 -74q0 -45 -32 -75q-31 -30 -73 -30q-44 0 -74 31q-31 30 -31 73z" />
<glyph unicode="/" horiz-adv-x="1177" d="M134 -273l782 1638h127l-782 -1638h-127z" />
<glyph unicode="0" horiz-adv-x="1065" d="M112 661q0 360 144 553q101 134 283 134q80 0 152 -36t119 -98q144 -196 144 -549q0 -350 -144 -548q-98 -134 -277 -134t-277 134q-144 198 -144 544zM230 665q0 -280 89 -451q70 -133 214 -133t214 133q89 172 89 448q0 288 -89 455q-71 133 -218 133q-66 0 -121.5 -35 t-88.5 -98q-89 -170 -89 -452z" />
<glyph unicode="1" horiz-adv-x="1065" d="M249 1066v82q122 6 184 48q65 45 88 147h79v-1343h-109v1066h-242z" />
<glyph unicode="2" horiz-adv-x="1065" d="M177 0v87l42 56l121 165l140 190q207 279 241 331q72 108 72 207q0 101 -72 158q-66 52 -167 52q-247 0 -264 -303h-110q3 177 75 272q102 133 305 133q139 0 232 -68q119 -86 119 -244q0 -115 -89 -254q-20 -30 -320 -434q-145 -195 -184 -248h616v-100h-757z" />
<glyph unicode="3" horiz-adv-x="1065" d="M122 349q0 8 1 24h103q4 -124 58 -192q77 -96 232 -96q144 0 224 81q77 78 77 216q0 194 -163 260q-58 24 -148 24q-24 0 -54 -3v108q39 -4 62 -4q89 0 157 47q96 66 96 203q0 97 -56 158q-65 71 -187 71q-222 0 -256 -251h-106q9 153 82 236q104 117 285 117 q186 0 285 -115q72 -84 72 -208q0 -205 -196 -296q246 -88 246 -340q0 -105 -43 -194t-119 -143q-99 -70 -249 -70q-249 0 -350 166q-53 88 -53 201z" />
<glyph unicode="4" horiz-adv-x="1065" d="M86 338v86l551 919h106v-901h230v-104h-227v-349h-115v349h-545zM201 442h433l4 736z" />
<glyph unicode="5" horiz-adv-x="1065" d="M170 303h106q16 -92 65 -146q70 -76 182 -76q142 0 220 108q81 113 81 273q0 154 -80 252q-70 85 -191 85q-166 0 -248 -157l-106 9l82 680h592l-18 -100h-477l-58 -434q92 106 239 106q168 0 271 -111q111 -120 111 -326q0 -165 -78 -294q-114 -189 -337 -189 q-184 0 -286 127q-62 78 -70 193z" />
<glyph unicode="6" horiz-adv-x="1065" d="M176 439q0 397 502 926h127q-238 -254 -395 -524q82 47 170 47q133 0 234 -100q129 -128 129 -346q0 -226 -130 -357q-100 -102 -251 -102q-148 0 -249 96q-137 130 -137 360zM294 435q0 -168 89 -274q67 -80 177 -80q109 0 176 80q89 106 89 273q0 172 -89 276 q-67 80 -180 80q-106 0 -173 -80q-89 -105 -89 -275z" />
<glyph unicode="7" horiz-adv-x="1065" d="M208 1226v105h805v-100l-658 -1231h-128l660 1226h-679z" />
<glyph unicode="8" horiz-adv-x="1065" d="M146 358q0 234 202 342q-80 40 -122 114t-42 178q0 162 111 264q100 92 238 92t238 -92q111 -102 111 -264q0 -211 -164 -292q202 -107 202 -342q0 -171 -115 -276q-108 -99 -272 -99t-272 99q-115 105 -115 276zM265 364q0 -129 75 -206t193 -77t193 77t75 206 q0 131 -75 207q-76 77 -197 77q-114 0 -189 -77q-75 -78 -75 -207zM302 996q0 -121 73 -192q64 -62 158 -62t158 62q73 71 73 191q0 125 -73 193q-65 62 -161 62q-91 0 -155 -62q-73 -70 -73 -192z" />
<glyph unicode="9" horiz-adv-x="1065" d="M122 889q0 226 129 357q101 102 252 102q147 0 248 -96q138 -131 138 -360q0 -399 -502 -926h-128q237 252 396 524q-83 -47 -170 -47q-134 0 -234 100q-129 129 -129 346zM240 895q0 -168 89 -274q67 -80 176 -80q110 0 177 80q89 106 89 273q0 171 -89 276 q-67 80 -180 80q-106 0 -173 -80q-89 -105 -89 -275z" />
<glyph unicode=":" horiz-adv-x="526" d="M157 81q0 44 30 74q31 32 76 32q43 0 74 -31q30 -31 30 -74q0 -45 -32 -75q-31 -30 -73 -30q-44 0 -74 31q-31 30 -31 73zM157 862q0 44 30 74q31 32 76 32q43 0 74 -32q30 -30 30 -73q0 -45 -32 -75q-30 -30 -74 -30q-43 0 -73 31q-31 30 -31 73z" />
<glyph unicode=";" horiz-adv-x="480" d="M79 -244q143 132 160 241q-14 -2 -20 -2q-40 0 -70 32q-27 30 -27 70q0 50 37 82q31 27 75 27q49 0 83 -35q36 -37 36 -103q0 -143 -145 -312h-129zM123 862q0 44 30 74q31 32 76 32q43 0 74 -32q30 -30 30 -73q0 -45 -32 -75q-31 -30 -74 -30t-73 31q-31 30 -31 73z" />
<glyph unicode="&#x3c;" d="M68 640v94l887 402v-106l-772 -343l772 -343v-106z" />
<glyph unicode="=" horiz-adv-x="1065" d="M112 522v83h842v-83h-842zM112 772v83h842v-83h-842z" />
<glyph unicode="&#x3e;" d="M69 237v107l772 343l-772 343v106l887 -402v-95z" />
<glyph unicode="?" horiz-adv-x="840" d="M95 1034q6 132 70 208q88 106 255 106q128 0 206 -63q96 -78 96 -219q0 -89 -49 -162q-36 -54 -128 -143q-101 -96 -113 -163q-6 -34 -6 -162q0 -27 1 -68h-111l-1 24v110q0 105 14 151q14 47 46 85q30 36 85 92q69 70 100 117q39 58 39 124q0 83 -55 129q-48 39 -130 39 q-126 0 -180 -83q-27 -42 -37 -122h-102zM263 81q0 44 30 74q31 32 76 32q42 0 74 -31q30 -31 30 -74q0 -44 -32 -75q-31 -30 -73 -30q-43 0 -74 31q-31 30 -31 73z" />
<glyph unicode="@" horiz-adv-x="1502" d="M71 685q0 147 54.5 279.5t153.5 229.5q201 195 506 195q272 0 449 -155q98 -85 150 -211q47 -113 47 -241q0 -241 -145 -398q-84 -92 -189 -92q-80 0 -122 62q-22 32 -25 83q-96 -151 -256 -151q-131 0 -213 100q-75 91 -75 233q0 174 108 301q101 118 252 118 q175 0 234 -174l29 148h85l-86 -445q-13 -65 -13 -103q0 -42 23 -71q24 -28 64 -28q75 0 138 80q106 135 106 334q0 249 -165 395q-72 64 -178 100.5t-220 36.5q-125 0 -239.5 -44.5t-197.5 -126.5q-88 -85 -136 -205t-48 -253q0 -126 43.5 -242t122.5 -202 q170 -183 478 -183q230 0 447 105l26 -76q-221 -108 -472 -108q-339 0 -537 200q-92 93 -145 227q-54 137 -54 282zM505 618q0 -104 46 -173q53 -77 156 -77q128 0 201 129q55 97 55 235q0 98 -48 156q-53 64 -149 64q-119 0 -194 -111q-67 -99 -67 -223z" />
<glyph unicode="A" horiz-adv-x="1134" d="M49 0l473 1377h90l473 -1377h-122l-134 388h-524l-135 -388h-121zM338 490h457l-228 720z" />
<glyph unicode="B" horiz-adv-x="1099" d="M180 0v1365h210q149 0 223 -8q148 -16 232 -94q95 -87 95 -237q0 -230 -227 -300q104 -26 164 -68q134 -95 134 -281q0 -179 -113 -281q-84 -75 -253 -89q-87 -7 -255 -7h-210zM296 102h143q122 0 201 8q243 26 243 273q0 122 -74 195q-66 66 -197 79q-61 6 -175 6h-141 v-561zM296 765h134q109 0 177 12q108 18 161 89q50 65 50 158q0 110 -67 172q-51 47 -141 59q-58 8 -185 8h-129v-498z" />
<glyph unicode="C" horiz-adv-x="1233" d="M116 680q0 372 193 565q142 143 355 143q221 0 346 -146q77 -90 98 -233h-114q-67 274 -332 274q-186 0 -297 -150q-122 -167 -122 -450q0 -307 145 -481q101 -120 276 -120q202 0 294 164q48 84 61 203h114q-17 -173 -91 -283q-126 -189 -371 -189q-249 0 -396 179 q-159 193 -159 524z" />
<glyph unicode="D" horiz-adv-x="1270" d="M180 0v1365h173q186 0 274 -11q268 -32 408 -245q119 -180 119 -425q0 -278 -144 -462q-148 -187 -391 -212q-93 -10 -274 -10h-165zM296 102h93q153 0 220 8q97 12 181.5 63.5t137.5 131.5q99 149 99 376q0 274 -137 432q-104 118 -271 140q-78 10 -259 10h-64v-1161z " />
<glyph unicode="E" horiz-adv-x="1004" d="M180 0v1365h715v-102h-599v-505h558v-102h-558v-554h608v-102h-724z" />
<glyph unicode="F" horiz-adv-x="977" d="M180 0v1365h715v-102h-599v-505h558v-102h-558v-656h-116z" />
<glyph unicode="G" horiz-adv-x="1260" d="M116 684q0 352 173 543q70 77 170.5 119t213.5 42q218 0 338 -143q76 -91 97 -235h-114q-34 128 -92 185q-90 88 -233 88q-183 0 -288 -128q-138 -168 -138 -471q0 -338 165 -499q105 -103 285 -103q161 0 321 88v387h-280v112h392v-559q-183 -133 -432 -133 q-255 0 -396 153q-182 197 -182 554z" />
<glyph unicode="H" horiz-adv-x="1267" d="M180 0v1365h116v-602h676v602h116v-1365h-116v666h-676v-666h-116z" />
<glyph unicode="I" horiz-adv-x="476" d="M177 0v1365h122v-1365h-122z" />
<glyph unicode="J" horiz-adv-x="557" d="M-2 -44q15 -1 22 -1q142 0 199 77q32 42 37 122q2 35 2 124v1087h122v-1089q0 -134 -7 -184q-15 -116 -107 -178t-224 -62q-14 0 -44 1v103z" />
<glyph unicode="K" horiz-adv-x="1099" d="M180 0v1365h116v-1365h-116zM299 713l571 652h147l-573 -650l633 -715h-169z" />
<glyph unicode="L" horiz-adv-x="946" d="M180 0v1365h122v-1263h581v-102h-703z" />
<glyph unicode="M" horiz-adv-x="1560" d="M180 0v1365h188l412 -1234l412 1234h188v-1365h-116v1259l-425 -1259h-117l-426 1259v-1259h-116z" />
<glyph unicode="N" horiz-adv-x="1285" d="M180 0v1365h129l688 -1195v1195h108v-1365h-135l-680 1191v-1191h-110z" />
<glyph unicode="O" horiz-adv-x="1305" d="M116 680q0 319 156 518q148 190 388 190q108 0 206 -50t167 -140q156 -203 156 -516q0 -311 -156 -515q-145 -190 -380 -190q-114 0 -213 49.5t-168 140.5q-156 204 -156 513zM243 682q0 -256 117 -434q110 -166 292 -166q184 0 293 166q117 179 117 432q0 263 -117 437 q-112 166 -298 166q-177 0 -287 -166q-117 -177 -117 -435z" />
<glyph unicode="P" horiz-adv-x="1050" d="M180 0v1365h194q266 0 372 -35q118 -39 185 -151q53 -89 53 -215q0 -155 -82 -253q-89 -108 -255 -127q-87 -10 -245 -10h-106v-574h-116zM296 676h102q173 0 258 18q200 41 200 272q0 131 -72 208q-61 67 -182 80q-71 9 -231 9h-75v-587z" />
<glyph unicode="Q" horiz-adv-x="1319" d="M116 683q0 312 156 515q145 190 380 190q236 0 381 -190q156 -204 156 -514q0 -244 -98 -428l262 -279h-145l-180 183q-150 -183 -377 -183q-112 0 -211 49.5t-168 140.5q-156 204 -156 516zM243 682q0 -256 117 -434q110 -166 292 -166q184 0 293 166q117 179 117 432 q0 263 -117 437q-112 166 -298 166q-177 0 -287 -166q-117 -177 -117 -435z" />
<glyph unicode="R" horiz-adv-x="1130" d="M180 0v1365h207q145 0 213 -6q182 -16 276 -105q104 -99 104 -263q0 -271 -294 -368l375 -623h-145l-367 606h-253v-606h-116zM296 708h96q130 0 186 5q274 26 274 279q0 119 -66 188q-59 62 -170 75q-70 8 -221 8h-99v-555z" />
<glyph unicode="S" horiz-adv-x="1109" d="M116 400h116q7 -136 69 -212q41 -50 108 -78t145 -28q132 0 218 74t86 193q0 107 -78 179q-53 49 -204 119q-220 102 -279 144q-136 98 -136 257q0 156 122 253q109 87 271 87q215 0 320 -147q59 -82 66 -213h-114q-12 112 -69 173q-76 82 -211 82q-107 0 -178 -55 q-88 -67 -88 -172q0 -96 86 -158q45 -33 97 -57l152 -71q222 -103 287 -185q78 -96 78 -229q0 -189 -148 -296q-115 -83 -283 -83q-225 0 -341 142q-82 100 -92 281z" />
<glyph unicode="T" horiz-adv-x="921" d="M49 1263v102h824v-102h-354v-1263h-116v1263h-354z" />
<glyph unicode="U" horiz-adv-x="1246" d="M159 553v812h116v-810q1 -155 6 -200q8 -86 39.5 -138.5t93.5 -85.5q90 -49 208 -49q119 0 209 49q86 46 116 132q22 63 22 186l1 106v810h116v-812q0 -163 -5 -218q-11 -124 -82 -210q-124 -148 -377 -148q-251 0 -376 148q-71 86 -82 210q-5 56 -5 218z" />
<glyph unicode="V" horiz-adv-x="1117" d="M32 1365h123l409 -1227l402 1227h120l-469 -1376h-115z" />
<glyph unicode="W" horiz-adv-x="1528" d="M43 1365h112l266 -1196l293 1196h101l294 -1196l268 1196h112l-319 -1376h-120l-285 1126l-286 -1126h-120z" />
<glyph unicode="X" horiz-adv-x="1083" d="M48 0l429 716l-409 649h136l340 -557l340 557h136l-409 -649l429 -716h-132l-364 604l-363 -604h-133z" />
<glyph unicode="Y" horiz-adv-x="1014" d="M32 1365h137l340 -669l336 669h137l-420 -780l3 -585h-116l3 585z" />
<glyph unicode="Z" horiz-adv-x="1003" d="M68 0v90l720 1173h-682v102h826v-79l-727 -1184h716v-102h-853z" />
<glyph unicode="[" horiz-adv-x="557" d="M200 -398v1763h272v-91h-165v-1581h165v-91h-272z" />
<glyph unicode="\" horiz-adv-x="1177" d="M134 1365h127l782 -1638h-127z" />
<glyph unicode="]" horiz-adv-x="557" d="M86 -307h165v1581h-165v91h272v-1763h-272v91z" />
<glyph unicode="^" d="M67 771l375 597h140l374 -597h-119l-327 513l-325 -513h-118z" />
<glyph unicode="_" d="M0 -148h1024v-100h-1024v100z" />
<glyph unicode="`" d="M253 1407h170l196 -263h-96z" />
<glyph unicode="a" horiz-adv-x="949" d="M100 254q0 207 228 291q140 52 362 86v51q0 108 -37 152q-53 65 -178 65q-201 0 -231 -172h-111q13 115 82 182q90 87 263 87q145 0 233 -69q71 -56 81 -173q4 -45 4 -131v-355v-39q-1 -26 -1 -39q0 -110 26 -190h-106q-18 58 -25 137q-89 -161 -286 -161q-126 0 -207 65 q-97 77 -97 213zM212 258q0 -85 61 -139q53 -46 139 -46q156 0 231 123q47 75 47 240v110q-215 -42 -318 -87q-160 -69 -160 -201z" />
<glyph unicode="b" horiz-adv-x="1012" d="M134 0q19 59 20 280v1091h106v-548q103 173 282 173q146 0 242 -107q129 -143 129 -400q0 -285 -156 -428q-93 -85 -226 -85q-109 0 -186 60q-43 34 -85 103q1 -20 1 -29q0 -55 -18 -110h-109zM258 481q0 -193 92 -316q68 -92 182 -92q103 0 165 73q105 122 105 340 q0 211 -89 328q-65 85 -176 85q-114 0 -190 -101q-89 -118 -89 -317z" />
<glyph unicode="c" horiz-adv-x="955" d="M100 482q0 278 156 421q101 93 248 93q190 0 283 -147q47 -75 58 -193h-106q-14 96 -58 155q-64 88 -180 88q-122 0 -194 -93q-95 -123 -95 -322q0 -215 107 -333q72 -78 187 -78q129 0 193 105q38 62 46 150h110q-14 -147 -84 -235q-91 -117 -260 -117q-161 0 -270 105 q-141 137 -141 401z" />
<glyph unicode="d" horiz-adv-x="1012" d="M99 476q0 247 116 397q94 123 256 123q193 0 281 -173v548h106v-1091q0 -222 20 -280h-109q-18 56 -18 109q0 10 1 30q-41 -68 -85 -103q-76 -60 -185 -60q-160 0 -258 110q-125 141 -125 390zM210 484q0 -204 91 -325q65 -86 181 -86t181 86q91 122 91 323 q0 209 -91 330q-66 87 -184 87q-113 0 -178 -87q-91 -123 -91 -328z" />
<glyph unicode="e" horiz-adv-x="975" d="M100 473q0 276 142 420q101 103 255 103q202 0 306 -176q71 -122 71 -315v-33h-662q4 -174 62 -271q77 -129 233 -129q111 0 178 69q28 29 61 91l103 -19q-90 -237 -341 -237q-186 0 -295 128q-113 131 -113 369zM216 561h544q-8 116 -48 197q-72 141 -219 141 q-144 0 -221 -141q-43 -78 -56 -197z" />
<glyph unicode="f" horiz-adv-x="552" d="M34 880v89h140v63q0 115 8 162q16 93 81 144q65 50 155 50q59 0 131 -25v-108q-56 36 -124 36q-94 0 -125 -83q-16 -41 -16 -159v-80h245v-89h-238v-880h-117v880h-140z" />
<glyph unicode="g" horiz-adv-x="958" d="M67 -140q0 114 85 180q46 35 123 62q-103 39 -103 112q0 66 75 110q39 23 99 46q-203 73 -203 281q0 170 122 262q87 65 218 65q70 0 141 -19l287 10v-85l-199 5q96 -83 96 -237q0 -143 -87 -218q-38 -32 -101 -54q-28 -10 -131 -37q-93 -25 -141 -48q-60 -30 -60 -70 q0 -35 41 -47q31 -9 147 -20q148 -14 200 -26q238 -54 238 -260q0 -145 -129 -223q-114 -69 -298 -69q-198 0 -318 86q-102 72 -102 194zM170 -136q0 -82 83 -133q87 -53 236 -53q183 0 265 72q54 47 54 115q0 181 -327 181q-133 0 -213 -40q-98 -50 -98 -142zM255 656 q0 -102 62 -160q63 -59 160 -59t156 55q64 58 64 162q0 95 -53 159q-61 76 -164 76q-89 0 -152 -57q-73 -65 -73 -176z" />
<glyph unicode="h" horiz-adv-x="992" d="M154 0v1371h106v-517q40 54 78 81q84 61 201 61q179 0 259 -124q33 -51 42 -139q4 -45 4 -177v-556h-106v563q0 102 -4 142q-20 194 -205 194q-145 0 -219 -119q-50 -81 -50 -235v-545h-106z" />
<glyph unicode="i" horiz-adv-x="424" d="M122 1289q0 41 28 67q26 25 63 25q33 0 58 -20q32 -27 32 -72q0 -33 -20 -58q-26 -31 -70 -31q-38 0 -64 25q-27 25 -27 64zM154 0v969h117v-969h-117z" />
<glyph unicode="j" horiz-adv-x="501" d="M-48 -289q19 -2 38 -2q153 0 204 82q27 45 33 128q3 54 3 147v903h117v-903q0 -153 -9 -212q-22 -133 -112 -190q-79 -51 -215 -51q-21 0 -59 1v97zM197 1289q0 41 28 67q26 25 63 25q33 0 58 -20q32 -27 32 -72q0 -33 -20 -58q-26 -31 -70 -31q-38 0 -64 25 q-27 25 -27 64z" />
<glyph unicode="k" horiz-adv-x="949" d="M154 0v1371h106v-1371h-106zM264 532l426 437h131l-418 -432l448 -537h-151z" />
<glyph unicode="l" horiz-adv-x="424" d="M154 0v1371h117v-1371h-117z" />
<glyph unicode="m" horiz-adv-x="1518" d="M131 969h104q18 -52 19 -135q81 162 276 162q141 0 213 -81q30 -34 52 -91q85 172 295 172q174 0 243 -117q30 -51 36 -147q2 -33 2 -128v-604h-106v605q0 100 -4 130q-23 164 -197 164q-142 0 -208 -114q-39 -68 -39 -203v-582h-109v582q0 170 -20 217q-42 100 -175 100 q-136 0 -205 -104q-48 -74 -48 -221v-574h-106v646v50q-1 147 -8 204q-5 32 -15 69z" />
<glyph unicode="n" horiz-adv-x="1005" d="M131 969h104q19 -55 19 -146q96 173 298 173q142 0 222 -75q67 -62 78 -177q5 -48 5 -188v-556h-106v563q0 107 -4 142q-10 100 -59.5 147.5t-143.5 47.5q-148 0 -229 -119q-55 -82 -55 -225v-556h-106v645q0 193 -6 241q-4 37 -17 83z" />
<glyph unicode="o" horiz-adv-x="1010" d="M100 483q0 247 128 391q110 122 282 122q163 0 272 -122q128 -145 128 -389q0 -243 -128 -388q-108 -121 -277 -121t-277 121q-128 145 -128 386zM212 484q0 -193 92 -313q76 -98 201 -98q127 0 202 98q92 120 92 312q0 198 -92 317q-77 99 -205 99q-122 0 -198 -99 q-92 -121 -92 -316z" />
<glyph unicode="p" horiz-adv-x="1012" d="M134 969h110q15 -48 18 -151q41 76 86 113q79 66 193 66q144 0 237 -104q135 -150 135 -413q0 -258 -126 -402q-89 -102 -238 -102q-186 0 -286 165v-545h-109v1091q-1 223 -20 282zM258 486q0 -195 88 -313q76 -100 196 -100q113 0 173 82q87 118 87 320q0 220 -94 343 q-63 83 -173 83q-112 0 -183 -95q-94 -126 -94 -320z" />
<glyph unicode="q" horiz-adv-x="1012" d="M99 473q0 265 139 417q96 106 241 106q112 0 188 -63q43 -36 83 -113q1 96 18 149h110q-20 -58 -20 -282v-1091h-109v545q-101 -165 -276 -165q-148 0 -245 105q-129 138 -129 392zM210 472q0 -201 88 -316q64 -83 175 -83q116 0 192 100q89 116 89 308q0 201 -91 325 q-69 93 -186 93q-107 0 -173 -90q-94 -128 -94 -337z" />
<glyph unicode="r" horiz-adv-x="635" d="M139 969h101q17 -77 17 -147q0 -20 -3 -63q97 237 242 237q68 0 132 -34v-106q-81 36 -125 36q-80 0 -147 -85q-55 -72 -76 -164q-17 -78 -17 -214v-429h-109v623q0 238 -15 346z" />
<glyph unicode="s" horiz-adv-x="865" d="M95 291h105q20 -219 240 -219q96 0 157 47q67 51 67 143q0 83 -60 125q-27 19 -75 37q-14 5 -146 46q-147 46 -200 105q-56 64 -56 159q0 130 102 200q89 62 213 62q101 0 179 -41q128 -67 136 -244h-104q-10 92 -54 134q-55 54 -159 54q-96 0 -154 -50q-48 -42 -48 -112 q0 -63 45 -99q43 -34 177 -74q149 -44 201 -74q116 -68 116 -217q0 -128 -82 -208q-91 -89 -254 -89q-214 0 -300 132q-46 72 -46 183z" />
<glyph unicode="t" horiz-adv-x="612" d="M50 880v89h141v280h108v-280h245v-89h-245v-530q0 -195 5 -211q20 -65 100 -65q73 0 144 33v-100q-80 -26 -156 -26q-127 0 -169 59q-25 35 -31 90q-1 9 -1 148v602h-141z" />
<glyph unicode="u" horiz-adv-x="979" d="M149 369v600h106v-605q0 -153 33 -206q54 -85 177 -85q136 0 209 115q46 72 46 223v558h106v-675q0 -129 1 -167q3 -72 21 -127h-107q-21 62 -21 138q-35 -72 -79 -108q-67 -54 -176 -54q-117 0 -197 58q-94 66 -112 184q-7 45 -7 151z" />
<glyph unicode="v" horiz-adv-x="835" d="M21 969h112l286 -852l286 852h110l-343 -983h-108z" />
<glyph unicode="w" horiz-adv-x="1293" d="M32 969h113l217 -796l236 796h97l236 -796l217 796h113l-279 -983h-97l-238 822l-239 -822h-97z" />
<glyph unicode="x" horiz-adv-x="863" d="M16 0l352 515l-301 454h123l243 -371l246 371h132l-312 -454l348 -515h-128l-286 428l-289 -428h-128z" />
<glyph unicode="y" horiz-adv-x="855" d="M33 969h115l279 -831l289 831h113l-317 -887q-73 -209 -108 -282q-100 -208 -320 -208q-11 0 -30 1v95h8q121 0 180 57q29 29 47.5 63t47.5 107q13 37 31 86z" />
<glyph unicode="z" horiz-adv-x="796" d="M44 0v85l581 795h-541v89h675v-77l-589 -803h572v-89h-698z" />
<glyph unicode="{" horiz-adv-x="557" d="M94 446v74q50 13 82 52q34 44 34 151v324q-1 145 34 218q49 92 172 108q26 2 85 3v-83q-118 -1 -157 -53q-32 -38 -32 -169v-348q-1 -112 -33 -167q-23 -39 -79 -73q56 -34 79 -73q32 -55 33 -167v-347q0 -132 32 -170q40 -53 157 -52v-84h-24q-145 0 -207 73 q-42 49 -55 138q-5 38 -5 118v324q0 107 -34 152q-32 38 -82 51z" />
<glyph unicode="|" d="M459 -341v1706h106v-1706h-106z" />
<glyph unicode="}" horiz-adv-x="557" d="M56 -326q117 -1 157 53q32 37 32 169v348q1 111 33 166q23 39 79 73q-56 35 -79 73q-32 56 -33 167v348q0 132 -32 169q-39 52 -157 53v83q72 -1 103 -6q118 -21 161 -119q27 -74 27 -204v-324q0 -109 34 -151q31 -38 82 -52v-74q-51 -14 -82 -51q-34 -43 -34 -152v-324 q0 -124 -22 -190q-46 -139 -245 -139h-24v84z" />
<glyph unicode="~" horiz-adv-x="1365" d="M193 1252q37 73 76 120q79 98 193 98q79 0 236 -79q104 -52 142 -62q34 -10 65 -10q75 0 127 53q34 35 73 101l68 -40q-111 -215 -274 -215q-53 0 -134 31q-22 8 -155 73q-97 47 -157 47q-68 0 -121 -57q-35 -37 -72 -103z" />
<glyph unicode="&#xa1;" horiz-adv-x="508" d="M148 863q0 45 32 75q31 30 75 30q41 0 72 -31q31 -30 31 -74q0 -42 -30 -73q-30 -32 -75 -32q-44 0 -75 32q-30 30 -30 73zM195 -398l22 982h83l13 -982h-118z" />
<glyph unicode="&#xa2;" horiz-adv-x="1065" d="M175 673q0 307 185 452q59 47 147 66v208h68v-204q137 -3 227 -91q91 -95 93 -250h-109q-8 238 -211 244v-830q112 4 177 105q35 55 44 153h111q-4 -156 -106 -259q-92 -92 -226 -96v-216h-68v220q-90 13 -154 61q-178 135 -178 437zM284 679q0 -109 32.5 -202t90.5 -151 q35 -35 100 -52v817q-75 -23 -120 -80q-103 -130 -103 -332z" />
<glyph unicode="&#xa3;" horiz-adv-x="1065" d="M116 643v100h224q41 264 72 391q36 148 105 203q64 51 161 51q149 0 203 -104q24 -46 29 -151h-108q-6 81 -24 107q-31 47 -102 47q-88 0 -126 -83q-32 -68 -95 -461h303v-100h-319q-67 -404 -144 -550q89 14 195 14q30 0 75 -1q89 -1 111 -1q88 0 124 16q69 31 75 147 h107q2 -129 -77 -204q-59 -54 -160 -61q-27 -3 -128 -3h-471q90 154 176 643h-206z" />
<glyph unicode="&#xa4;" horiz-adv-x="1365" d="M130 1206l66 66l188 -188q142 110 299 110q158 0 296 -110l190 188l65 -66l-189 -187q107 -139 107 -295t-106 -292l190 -189l-65 -66l-190 189q-138 -107 -295 -107q-151 0 -298 107l-188 -189l-64 66l185 189q-107 136 -107 294q0 151 107 291zM320 726 q0 -151 106 -258q107 -107 257 -107t257 108q106 106 106 255q0 155 -105 260q-109 108 -262 108q-146 0 -253 -108q-106 -107 -106 -258z" />
<glyph unicode="&#xa5;" horiz-adv-x="1065" d="M52 1365h133l354 -673l348 673h125l-265 -510h206v-83h-249l-87 -167h336v-83h-354l3 -522h-119l2 522h-374v83h356l-92 167h-264v83h219z" />
<glyph unicode="&#xa6;" d="M459 314h106v-655h-106v655zM459 694v671h106v-671h-106z" />
<glyph unicode="&#xa7;" d="M122 -4h109q9 -106 43 -154q62 -89 201 -89q98 0 156 41q86 61 86 178q0 98 -89 164q-45 33 -194 121q-190 113 -235 164q-57 65 -57 149q0 145 191 242q-151 95 -151 239q0 120 86 205q94 92 250 92q201 0 288 -141q48 -77 52 -184h-111q-8 101 -47 155q-57 77 -184 77 q-96 0 -157 -49q-68 -56 -68 -149q0 -84 73 -142q32 -25 198 -119q183 -104 240 -157q64 -61 64 -159q0 -116 -89 -194q-34 -30 -90 -61q59 -46 86 -85q52 -73 52 -165q0 -84 -37 -154t-102 -110q-81 -51 -212 -51q-340 0 -352 336zM251 570q0 -78 103 -145 q113 -75 249 -147q67 28 111 81q42 52 42 114q0 78 -69 125q-101 69 -268 159q-168 -72 -168 -187z" />
<glyph unicode="&#xa8;" d="M240 1280q0 42 29 69q29 29 70 29q39 0 67 -29q29 -28 29 -69q0 -40 -29 -68q-28 -29 -68 -29q-41 0 -69 29q-29 28 -29 68zM588 1280q0 42 29 69q29 29 70 29q39 0 67 -29q29 -28 29 -69q0 -40 -29 -68q-28 -29 -68 -29q-41 0 -69 29q-29 28 -29 68z" />
<glyph unicode="&#xa9;" horiz-adv-x="1643" d="M116 685q0 200 103 370q102 167 282 259q150 77 329 77q189 0 360 -104q170 -105 260 -281q77 -151 77 -320q0 -140 -53.5 -269.5t-153.5 -228.5q-99 -99 -228.5 -153t-269.5 -54t-270 54t-229 153q-99 98 -153 228t-54 269zM199 685q0 -126 48 -243t136 -206 q181 -184 439 -184q257 0 439 184q87 89 135 206t48 241q0 128 -48.5 246.5t-135.5 204.5q-187 183 -446 183q-118 0 -230.5 -48t-200.5 -135q-88 -89 -136 -206t-48 -243zM493 693q0 224 124 338q93 86 229 86q143 0 224 -88q51 -56 66 -151h-88q-40 161 -203 161 q-113 0 -180 -85q-75 -96 -75 -259q0 -179 89 -278q62 -68 167 -68q192 0 217 216h88q-12 -114 -60 -180q-82 -114 -241 -114q-156 0 -255 108q-102 111 -102 314z" />
<glyph unicode="&#xaa;" d="M241 579v71h525v-71h-525zM268 920q0 130 149 185q85 31 226 53v34q0 55 -22 81q-31 38 -109 38q-123 0 -141 -106h-82q18 177 225 177q94 0 152 -44q46 -35 53 -110q3 -28 3 -81v-217q-1 -117 18 -171h-79q-12 37 -16 71q-42 -52 -78 -68q-44 -20 -100 -20 q-83 0 -135 41q-64 50 -64 137zM351 924q0 -51 36 -83q31 -27 84 -27q87 0 129.5 54t42.5 164v61q-130 -25 -194 -52q-98 -41 -98 -117z" />
<glyph unicode="&#xab;" horiz-adv-x="707" d="M98 478l171 489h70l-148 -489l148 -478h-70zM322 478l172 489h69l-148 -489l148 -478h-69z" />
<glyph unicode="&#xac;" d="M68 448v99h887v-547h-106v448h-781z" />
<glyph unicode="&#xad;" horiz-adv-x="571" d="M0 471v89h571v-89h-571z" />
<glyph unicode="&#xae;" horiz-adv-x="1643" d="M116 685q0 200 103 370q102 167 282 259q150 77 329 77q189 0 360 -104q170 -105 260 -281q77 -151 77 -320q0 -140 -53.5 -269.5t-153.5 -228.5q-99 -99 -228.5 -153t-269.5 -54t-270 54t-229 153q-99 98 -153 228t-54 269zM199 685q0 -126 48 -243t136 -206 q181 -184 439 -184q257 0 439 184q87 89 135 206t48 241q0 128 -48.5 246.5t-135.5 204.5q-187 183 -446 183q-118 0 -230.5 -48t-200.5 -135q-88 -89 -136 -206t-48 -243zM589 271v819h139q159 0 232 -22t115 -84q35 -52 35 -122q0 -164 -181 -221l239 -370h-111l-231 356 h-147v-356h-90zM679 704h52q133 0 183 16q99 32 99 143q0 101 -85 132q-47 18 -195 18h-54v-309z" />
<glyph unicode="&#xaf;" d="M238 1233v95h548v-95h-548z" />
<glyph unicode="&#xb0;" d="M230 1113q0 116 82 194q85 81 204 81q112 0 195 -80t83 -194t-82 -195q-83 -81 -200 -81t-200 81q-82 81 -82 194zM309 1113q0 -83 59 -141q60 -59 144 -59t144 59q59 58 59 141q0 84 -59 141q-61 59 -146 59q-82 0 -142 -59q-59 -58 -59 -141z" />
<glyph unicode="&#xb1;" horiz-adv-x="1065" d="M112 78v83h842v-83h-842zM112 650v78h380v393h83v-393h379v-78h-379v-380h-83v380h-380z" />
<glyph unicode="&#xb2;" horiz-adv-x="705" d="M120 532v62l28 35l76 97l88 111q129 164 151 195q44 61 44 116q0 57 -42 87q-40 29 -100 29q-97 0 -136 -74q-18 -34 -22 -104h-85q3 255 247 255q89 0 150 -41q79 -53 79 -151q0 -70 -57 -154q-14 -19 -202 -255l-87 -109l-18 -24h379v-75h-493z" />
<glyph unicode="&#xb3;" horiz-adv-x="705" d="M86 744q0 10 1 24h81q3 -168 175 -168q86 0 135 45q46 43 46 120q0 109 -97 146q-36 13 -88 13q-18 0 -45 -3v81q29 -3 46 -3q55 0 96 26q57 37 57 113q0 54 -33 87q-39 39 -112 39q-136 0 -155 -147h-82q6 101 55 153q67 71 185 71q120 0 185 -70q48 -51 48 -128 q0 -118 -110 -173q141 -59 141 -202q0 -133 -106 -203q-64 -42 -161 -42q-123 0 -192 60q-70 62 -70 161z" />
<glyph unicode="&#xb4;" d="M458 1144l196 263h170l-270 -263h-96z" />
<glyph unicode="&#xb5;" d="M113 -339v1322h106v-571q0 -121 19 -177q36 -106 136 -151q60 -28 128 -28q138 0 223 108q47 60 66 129q15 55 15 142v548h106v-983h-106v197q-42 -96 -91 -143q-88 -82 -217 -82q-119 0 -204 70q-36 29 -75 90v-471h-106z" />
<glyph unicode="&#xb6;" horiz-adv-x="1134" d="M39 998q0 125 70 220q70 97 203 129q77 18 206 18h473v-90h-114v-1481h-100v1481h-228v-1481h-99v846h-29q-120 0 -214 53q-77 44 -122 124q-46 82 -46 181z" />
<glyph unicode="&#xb7;" horiz-adv-x="526" d="M157 511q0 44 30 74q31 32 76 32q43 0 74 -32q30 -30 30 -73q0 -44 -32 -75q-31 -30 -74 -30t-73 31q-31 31 -31 73z" />
<glyph unicode="&#xb8;" d="M344 -324q67 -19 104 -19q43 0 69 16q41 25 41 75q0 54 -58 76q-31 12 -100 16l84 160h86l-63 -122q172 -21 172 -143q0 -74 -58 -119q-51 -39 -134 -39q-73 0 -143 28v71z" />
<glyph unicode="&#xb9;" horiz-adv-x="705" d="M166 1159v64q81 3 120 27q38 25 53 88h64v-806h-85v627h-152z" />
<glyph unicode="&#xba;" d="M249 1060q0 155 84 245q72 77 183 77q104 0 176 -77q84 -90 84 -244q0 -152 -84 -243q-71 -77 -179 -77q-109 0 -180 77q-84 92 -84 242zM250 579v71h525v-71h-525zM332 1061q0 -118 57 -189q47 -59 124 -59q76 0 123 59q57 71 57 188q0 121 -57 191q-48 59 -126 59 q-73 0 -121 -59q-57 -71 -57 -190z" />
<glyph unicode="&#xbb;" horiz-adv-x="707" d="M144 0l148 489l-148 478h69l172 -478l-172 -489h-69zM368 0l148 489l-148 478h70l171 -478l-171 -489h-70z" />
<glyph unicode="&#xbc;" horiz-adv-x="1655" d="M166 1159v64q81 3 120 27q38 25 53 88h64v-806h-85v627h-152zM387 0l781 1331h100l-783 -1331h-98zM1013 199v61l351 546h80v-530h145v-77h-144v-206h-89v206h-343zM1108 276h250l2 396z" />
<glyph unicode="&#xbd;" horiz-adv-x="1655" d="M166 1159v64q81 3 120 27q38 25 53 88h64v-806h-85v627h-152zM387 0l781 1331h100l-783 -1331h-98zM1071 0v62q25 31 104 132l88 112q129 164 150 193q44 62 44 116q0 58 -42 88q-40 29 -99 29q-97 0 -136 -74q-19 -35 -22 -104h-85q3 255 247 255q88 0 150 -42 q78 -53 78 -150q0 -70 -57 -154q-11 -16 -201 -255l-87 -110l-18 -23h378v-75h-492z" />
<glyph unicode="&#xbe;" horiz-adv-x="1655" d="M86 744q0 10 1 24h81q3 -168 175 -168q86 0 135 45q46 43 46 120q0 109 -97 146q-36 13 -88 13q-18 0 -45 -3v81q29 -3 46 -3q55 0 96 26q57 37 57 113q0 54 -33 87q-39 39 -112 39q-136 0 -155 -147h-82q6 101 55 153q67 71 185 71q120 0 185 -70q48 -51 48 -128 q0 -118 -110 -173q141 -59 141 -202q0 -133 -106 -203q-64 -42 -161 -42q-123 0 -192 60q-70 62 -70 161zM387 0l781 1331h100l-783 -1331h-98zM1013 199v61l351 546h79v-530h146v-77h-144v-206h-89v206h-343zM1108 276h250l2 396z" />
<glyph unicode="&#xbf;" horiz-adv-x="840" d="M119 -122q0 88 49 162q35 54 128 143q100 97 112 164q6 33 6 163q0 19 -1 67h112v-24v-108q0 -107 -14 -153q-14 -48 -46 -86q-30 -37 -84 -91q-70 -71 -100 -117q-39 -59 -39 -125q0 -83 55 -128q49 -40 129 -40q127 0 181 83q27 43 36 122h102q-5 -130 -70 -208 q-87 -106 -254 -106q-129 0 -206 62q-96 78 -96 220zM366 863q0 45 32 75q31 30 75 30q42 0 72 -31q31 -30 31 -74q0 -43 -30 -73q-30 -32 -75 -32q-44 0 -75 32q-30 30 -30 73z" />
<glyph unicode="&#xc0;" horiz-adv-x="1134" d="M49 0l473 1377h90l473 -1377h-122l-134 388h-524l-135 -388h-121zM225 1758h170l265 -262h-119zM338 490h457l-228 720z" />
<glyph unicode="&#xc1;" horiz-adv-x="1134" d="M49 0l473 1377h90l473 -1377h-122l-134 388h-524l-135 -388h-121zM338 490h457l-228 720zM474 1496l264 262h171l-316 -262h-119z" />
<glyph unicode="&#xc2;" horiz-adv-x="1134" d="M49 0l473 1377h90l473 -1377h-122l-134 388h-524l-135 -388h-121zM231 1496l260 262h152l261 -262h-110l-227 188l-227 -188h-109zM338 490h457l-228 720z" />
<glyph unicode="&#xc3;" horiz-adv-x="1134" d="M49 0l473 1377h90l473 -1377h-122l-134 388h-524l-135 -388h-121zM247 1548q15 64 35 103q47 89 146 89q68 0 156 -58q46 -31 71 -46q35 -20 70 -20q82 0 98 131l78 -35q-8 -66 -29 -105q-22 -42 -63.5 -67.5t-87.5 -25.5t-88 21q-39 20 -89 54q-72 48 -115 48 q-75 0 -103 -123zM338 490h457l-228 720z" />
<glyph unicode="&#xc4;" horiz-adv-x="1134" d="M49 0l473 1377h90l473 -1377h-122l-134 388h-524l-135 -388h-121zM282 1627q0 45 31 74q31 31 75 31q42 0 73 -31q30 -30 30 -73q0 -44 -30 -74q-31 -31 -74 -31q-44 0 -74 31q-31 30 -31 73zM338 490h457l-228 720zM642 1627q0 45 31 74q31 31 75 31q41 0 72 -31 q31 -30 31 -73q0 -44 -31 -74q-31 -31 -73 -31q-44 0 -74 31q-31 30 -31 73z" />
<glyph unicode="&#xc5;" horiz-adv-x="1134" d="M49 0l473 1377h90l473 -1377h-122l-134 388h-524l-135 -388h-121zM338 490h457l-228 720zM383 1644q0 77 54 130q55 54 132 54q74 0 128 -54t54 -130t-54 -130t-130 -54t-130 54t-54 130zM465 1645q0 -42 30 -72t72 -30t72 30t30 71q0 43 -30 72q-30 30 -73 30 q-41 0 -71 -30q-30 -29 -30 -71z" />
<glyph unicode="&#xc6;" horiz-adv-x="1702" d="M48 0l771 1365h783v-102h-594v-504h547v-103h-547v-554h594v-102h-715v390h-488l-217 -390h-134zM456 493h431v773z" />
<glyph unicode="&#xc7;" horiz-adv-x="1233" d="M116 683q0 392 216 585q134 120 329 120q224 0 349 -146q77 -90 99 -233h-115q-66 274 -332 274q-173 0 -276 -121q-143 -170 -143 -481q0 -305 145 -479q100 -120 273 -120q206 0 297 164q49 89 62 203h113q-20 -222 -138 -343q-133 -133 -320 -129l-50 -121 q186 -18 186 -159q0 -78 -60 -126q-54 -43 -146 -43q-70 0 -147 26v77q64 -18 104 -18q45 0 74 18q45 27 45 78q0 57 -59 79q-33 11 -108 13l75 180q-91 19 -143.5 41.5t-101.5 63.5q-111 93 -170 246q-58 151 -58 351z" />
<glyph unicode="&#xc8;" horiz-adv-x="1004" d="M180 0v1365h715v-102h-599v-505h558v-102h-558v-554h608v-102h-724zM230 1758h170l264 -262h-119z" />
<glyph unicode="&#xc9;" horiz-adv-x="1004" d="M180 0v1365h715v-102h-599v-505h558v-102h-558v-554h608v-102h-724zM411 1496l264 262h170l-315 -262h-119z" />
<glyph unicode="&#xca;" horiz-adv-x="1004" d="M180 0v1365h715v-102h-599v-505h558v-102h-558v-554h608v-102h-724zM206 1496l260 262h152l260 -262h-109l-227 188l-227 -188h-109z" />
<glyph unicode="&#xcb;" horiz-adv-x="1004" d="M180 0v1365h715v-102h-599v-505h558v-102h-558v-554h608v-102h-724zM257 1627q0 45 31 74q31 31 75 31q42 0 72 -31q31 -30 31 -73q0 -44 -31 -74q-30 -31 -74 -31q-43 0 -73 31q-31 30 -31 73zM617 1627q0 45 31 74q31 31 75 31q41 0 72 -31q31 -30 31 -73 q0 -44 -31 -74q-30 -31 -74 -31q-43 0 -73 31q-31 30 -31 73z" />
<glyph unicode="&#xcc;" horiz-adv-x="476" d="M-47 1758h163l210 -262h-112zM177 0v1365h122v-1365h-122z" />
<glyph unicode="&#xcd;" horiz-adv-x="476" d="M150 1496l210 262h163l-261 -262h-112zM177 0v1365h122v-1365h-122z" />
<glyph unicode="&#xce;" horiz-adv-x="476" d="M-51 1496l213 262h152l212 -262h-102l-186 188l-186 -188h-103zM177 0v1365h122v-1365h-122z" />
<glyph unicode="&#xcf;" horiz-adv-x="476" d="M-1 1627q0 44 30 73q31 30 74 30q41 0 71 -30t30 -72q0 -43 -30 -73t-72 -30q-43 0 -73 30t-30 72zM177 0v1365h122v-1365h-122zM272 1627q0 44 30 73q31 30 74 30q41 0 71 -30t30 -72q0 -43 -30 -73t-72 -30q-43 0 -73 30t-30 72z" />
<glyph unicode="&#xd0;" horiz-adv-x="1270" d="M43 667v96h137v602h173q186 0 274 -11q267 -32 407 -245q119 -180 119 -426q0 -278 -144 -461q-148 -187 -391 -212q-92 -10 -273 -10h-165v667h-137zM296 102h93q153 0 220 8q96 12 180.5 63.5t137.5 131.5q99 149 99 376q0 273 -137 431q-103 119 -271 141 q-77 10 -258 10h-64v-500h368v-96h-368v-565z" />
<glyph unicode="&#xd1;" horiz-adv-x="1285" d="M180 0v1365h129l688 -1195v1195h108v-1365h-135l-680 1191v-1191h-110zM330 1548q14 64 35 103q46 89 146 89q68 0 156 -58q45 -31 71 -46q34 -20 69 -20q83 0 99 131l77 -35q-8 -66 -28 -105q-23 -42 -64.5 -67.5t-86.5 -25.5q-47 0 -88 21q-39 20 -89 54 q-72 48 -115 48q-76 0 -104 -123z" />
<glyph unicode="&#xd2;" horiz-adv-x="1305" d="M116 679q0 326 154 521q149 188 390 188q146 0 272 -90q139 -99 205 -286q52 -146 52 -330q0 -318 -154 -517q-74 -96 -186 -146q-92 -42 -197 -42q-112 0 -212.5 49.5t-169.5 138.5q-154 200 -154 514zM243 682q0 -266 112 -436q51 -78 134 -123q76 -41 163 -41 q125 0 225 82q100 83 149 248q36 120 36 268q0 272 -112 439q-110 164 -303 164q-118 0 -218 -82q-102 -84 -150 -248q-36 -121 -36 -271zM354 1758h170l264 -262h-119z" />
<glyph unicode="&#xd3;" horiz-adv-x="1305" d="M116 679q0 326 154 521q149 188 390 188q146 0 272 -90q139 -99 205 -286q52 -146 52 -330q0 -318 -154 -517q-74 -96 -186 -146q-92 -42 -197 -42q-112 0 -212.5 49.5t-169.5 138.5q-154 200 -154 514zM243 682q0 -266 112 -436q51 -78 134 -123q76 -41 163 -41 q125 0 225 82q100 83 149 248q36 120 36 268q0 272 -112 439q-110 164 -303 164q-118 0 -218 -82q-102 -84 -150 -248q-36 -121 -36 -271zM521 1496l264 262h171l-316 -262h-119z" />
<glyph unicode="&#xd4;" horiz-adv-x="1305" d="M116 679q0 326 154 521q149 188 390 188q146 0 272 -90q139 -99 205 -286q52 -146 52 -330q0 -318 -154 -517q-74 -96 -186 -146q-92 -42 -197 -42q-112 0 -212.5 49.5t-169.5 138.5q-154 200 -154 514zM243 682q0 -266 112 -436q51 -78 134 -123q76 -41 163 -41 q125 0 225 82q100 83 149 248q36 120 36 268q0 272 -112 439q-110 164 -303 164q-118 0 -218 -82q-102 -84 -150 -248q-36 -121 -36 -271zM316 1496l261 262h151l261 -262h-109l-228 188l-227 -188h-109z" />
<glyph unicode="&#xd5;" horiz-adv-x="1305" d="M116 679q0 326 154 521q149 188 390 188q146 0 272 -90q139 -99 205 -286q52 -146 52 -330q0 -318 -154 -517q-74 -96 -186 -146q-92 -42 -197 -42q-112 0 -212.5 49.5t-169.5 138.5q-154 200 -154 514zM243 682q0 -266 112 -436q51 -78 134 -123q76 -41 163 -41 q125 0 225 82q100 83 149 248q36 120 36 268q0 272 -112 439q-110 164 -303 164q-118 0 -218 -82q-102 -84 -150 -248q-36 -121 -36 -271zM339 1548q15 64 36 103q46 89 145 89q68 0 156 -58q46 -31 71 -46q35 -20 70 -20q83 0 98 131l78 -35q-8 -66 -29 -105 q-22 -42 -63.5 -67.5t-86.5 -25.5q-47 0 -89 21q-38 20 -88 54q-73 48 -116 48q-75 0 -103 -123z" />
<glyph unicode="&#xd6;" horiz-adv-x="1305" d="M116 679q0 326 154 521q149 188 390 188q146 0 272 -90q139 -99 205 -286q52 -146 52 -330q0 -318 -154 -517q-74 -96 -186 -146q-92 -42 -197 -42q-112 0 -212.5 49.5t-169.5 138.5q-154 200 -154 514zM243 682q0 -266 112 -436q51 -78 134 -123q76 -41 163 -41 q125 0 225 82q100 83 149 248q36 120 36 268q0 272 -112 439q-110 164 -303 164q-118 0 -218 -82q-102 -84 -150 -248q-36 -121 -36 -271zM368 1627q0 45 31 74q31 31 75 31q42 0 72 -31q31 -30 31 -73q0 -44 -31 -74q-30 -31 -73 -31q-44 0 -74 31q-31 30 -31 73zM728 1627 q0 45 31 74q31 31 75 31q42 0 72 -31q31 -30 31 -73q0 -44 -31 -74q-30 -31 -73 -31q-44 0 -74 31q-31 30 -31 73z" />
<glyph unicode="&#xd7;" horiz-adv-x="1065" d="M181 981l58 59l294 -294l293 293l56 -57l-292 -293l293 -293l-58 -58l-294 293l-292 -293l-57 57l293 293z" />
<glyph unicode="&#xd8;" horiz-adv-x="1305" d="M115 662q0 342 173 551q69 84 166 129.5t205 45.5q182 0 328 -128l71 105h101l-114 -170q144 -194 144 -493q0 -342 -173 -550q-77 -94 -191 -140q-85 -35 -180 -35q-188 0 -329 129l-71 -106h-100l113 170q-143 200 -143 492zM242 658q0 -221 87 -383l594 889 q-111 119 -263 119q-85 0 -161 -40.5t-128 -113.5q-129 -180 -129 -471zM380 202q110 -121 264 -121q137 0 242 99q124 116 162 352q14 87 14 179q0 219 -87 379z" />
<glyph unicode="&#xd9;" horiz-adv-x="1246" d="M159 553v812h116v-810q1 -155 6 -200q8 -86 39.5 -138.5t93.5 -85.5q90 -49 208 -49q119 0 209 49q86 46 116 132q22 63 22 186l1 106v810h116v-812q0 -163 -5 -218q-11 -124 -82 -210q-124 -148 -377 -148q-251 0 -376 148q-71 86 -82 210q-5 56 -5 218zM319 1758h171 l264 -262h-119z" />
<glyph unicode="&#xda;" horiz-adv-x="1246" d="M159 553v812h116v-810q1 -155 6 -200q8 -86 39.5 -138.5t93.5 -85.5q90 -49 208 -49q119 0 209 49q86 46 116 132q22 63 22 186l1 106v810h116v-812q0 -163 -5 -218q-11 -124 -82 -210q-124 -148 -377 -148q-251 0 -376 148q-71 86 -82 210q-5 56 -5 218zM491 1496 l265 262h170l-316 -262h-119z" />
<glyph unicode="&#xdb;" horiz-adv-x="1246" d="M159 553v812h116v-810q1 -155 6 -200q8 -86 39.5 -138.5t93.5 -85.5q90 -49 208 -49q119 0 209 49q86 46 116 132q22 63 22 186l1 106v810h116v-812q0 -163 -5 -218q-11 -124 -82 -210q-124 -148 -377 -148q-251 0 -376 148q-71 86 -82 210q-5 56 -5 218zM286 1496 l261 262h152l260 -262h-109l-227 188l-227 -188h-110z" />
<glyph unicode="&#xdc;" horiz-adv-x="1246" d="M159 553v812h116v-810q1 -155 6 -200q8 -86 39.5 -138.5t93.5 -85.5q90 -49 208 -49q119 0 209 49q86 46 116 132q22 63 22 186l1 106v810h116v-812q0 -163 -5 -218q-11 -124 -82 -210q-124 -148 -377 -148q-251 0 -376 148q-71 86 -82 210q-5 56 -5 218zM338 1627 q0 45 31 74q31 31 75 31q42 0 72 -31q31 -30 31 -73q0 -44 -31 -74q-30 -31 -73 -31q-44 0 -74 31q-31 30 -31 73zM698 1627q0 45 31 74q31 31 75 31q41 0 72 -31q31 -30 31 -73q0 -44 -31 -74q-31 -31 -73 -31q-44 0 -74 31q-31 30 -31 73z" />
<glyph unicode="&#xdd;" horiz-adv-x="1014" d="M32 1365h137l340 -669l336 669h137l-420 -780l3 -585h-116l3 585zM376 1496l264 262h170l-315 -262h-119z" />
<glyph unicode="&#xde;" horiz-adv-x="1050" d="M180 0v1365h116v-159h78q266 0 372 -35q118 -40 185 -151q53 -89 53 -216q0 -155 -82 -253q-89 -107 -255 -127q-84 -10 -245 -10h-106v-414h-116zM296 516h102q173 0 258 18q200 41 200 272q0 132 -72 209q-61 66 -182 80q-72 9 -231 9h-75v-588z" />
<glyph unicode="&#xdf;" horiz-adv-x="1009" d="M148 0v874q0 187 15 266q22 112 111 176q86 61 211 61q147 0 238 -83q98 -90 98 -236q0 -221 -246 -287q334 -57 334 -384q0 -190 -113 -303q-98 -98 -235 -98q-67 0 -147 32v101q72 -36 148 -36q103 0 166 80q69 88 69 228q0 213 -189 292q-99 41 -230 43v92 q28 -1 43 -1q123 0 197 52q91 64 91 183q0 108 -65 171q-60 58 -161 58q-153 0 -200 -115q-21 -52 -27 -139q-2 -21 -2 -152v-875h-106z" />
<glyph unicode="&#xe0;" horiz-adv-x="949" d="M100 254q0 207 228 291q140 52 362 86v51q0 108 -37 152q-53 65 -178 65q-201 0 -231 -172h-111q13 115 82 182q90 87 263 87q145 0 233 -69q71 -56 81 -173q4 -45 4 -131v-355v-39q-1 -26 -1 -39q0 -110 26 -190h-106q-18 58 -25 137q-89 -161 -286 -161q-126 0 -207 65 q-97 77 -97 213zM212 258q0 -85 61 -139q53 -46 139 -46q156 0 231 123q47 75 47 240v110q-215 -42 -318 -87q-160 -69 -160 -201zM229 1407h170l196 -263h-96z" />
<glyph unicode="&#xe1;" horiz-adv-x="949" d="M100 254q0 207 228 291q140 52 362 86v51q0 108 -37 152q-53 65 -178 65q-201 0 -231 -172h-111q13 115 82 182q90 87 263 87q145 0 233 -69q71 -56 81 -173q4 -45 4 -131v-355v-39q-1 -26 -1 -39q0 -110 26 -190h-106q-18 58 -25 137q-89 -161 -286 -161q-126 0 -207 65 q-97 77 -97 213zM212 258q0 -85 61 -139q53 -46 139 -46q156 0 231 123q47 75 47 240v110q-215 -42 -318 -87q-160 -69 -160 -201zM370 1144l196 263h170l-270 -263h-96z" />
<glyph unicode="&#xe2;" horiz-adv-x="949" d="M100 254q0 207 228 291q140 52 362 86v51q0 108 -37 152q-53 65 -178 65q-201 0 -231 -172h-111q13 115 82 182q90 87 263 87q145 0 233 -69q71 -56 81 -173q4 -45 4 -131v-355v-39q-1 -26 -1 -39q0 -110 26 -190h-106q-18 58 -25 137q-89 -161 -286 -161q-126 0 -207 65 q-97 77 -97 213zM181 1145l226 279h152l227 -279h-110l-193 199l-193 -199h-109zM212 258q0 -85 61 -139q53 -46 139 -46q156 0 231 123q47 75 47 240v110q-215 -42 -318 -87q-160 -69 -160 -201z" />
<glyph unicode="&#xe3;" horiz-adv-x="949" d="M100 254q0 207 228 291q140 52 362 86v51q0 108 -37 152q-53 65 -178 65q-201 0 -231 -172h-111q13 115 82 182q90 87 263 87q145 0 233 -69q71 -56 81 -173q4 -45 4 -131v-355v-39q-1 -26 -1 -39q0 -110 26 -190h-106q-18 58 -25 137q-89 -161 -286 -161q-126 0 -207 65 q-97 77 -97 213zM178 1179q36 211 170 211q61 0 139 -60q43 -32 75 -51q25 -15 52 -15q72 0 88 131l80 -18q-9 -88 -45 -144q-46 -73 -120 -73q-65 0 -153 66q-81 61 -118 61q-66 0 -92 -124zM212 258q0 -85 61 -139q53 -46 139 -46q156 0 231 123q47 75 47 240v110 q-215 -42 -318 -87q-160 -69 -160 -201z" />
<glyph unicode="&#xe4;" horiz-adv-x="949" d="M100 254q0 207 228 291q140 52 362 86v51q0 108 -37 152q-53 65 -178 65q-201 0 -231 -172h-111q13 115 82 182q90 87 263 87q145 0 233 -69q71 -56 81 -173q4 -45 4 -131v-355v-39q-1 -26 -1 -39q0 -110 26 -190h-106q-18 58 -25 137q-89 -161 -286 -161q-126 0 -207 65 q-97 77 -97 213zM209 1280q0 42 29 69q29 29 70 29q39 0 67 -29q29 -28 29 -69q0 -40 -29 -68q-28 -29 -68 -29q-41 0 -69 29q-29 28 -29 68zM212 258q0 -85 61 -139q53 -46 139 -46q156 0 231 123q47 75 47 240v110q-215 -42 -318 -87q-160 -69 -160 -201zM558 1280 q0 41 29 69q29 29 70 29q39 0 67 -29q29 -28 29 -69q0 -40 -29 -68q-28 -29 -68 -29q-41 0 -69 29q-29 29 -29 68z" />
<glyph unicode="&#xe5;" horiz-adv-x="949" d="M100 254q0 207 228 291q140 52 362 86v51q0 108 -37 152q-53 65 -178 65q-201 0 -231 -172h-111q13 115 82 182q90 87 263 87q145 0 233 -69q71 -56 81 -173q4 -45 4 -131v-355v-39q-1 -26 -1 -39q0 -110 26 -190h-106q-18 58 -25 137q-89 -161 -286 -161q-126 0 -207 65 q-97 77 -97 213zM212 258q0 -85 61 -139q53 -46 139 -46q156 0 231 123q47 75 47 240v110q-215 -42 -318 -87q-160 -69 -160 -201zM297 1296q0 77 54 130q55 54 133 54q73 0 127 -54q54 -53 54 -130q0 -76 -54 -130t-130 -54t-130 54t-54 130zM379 1296q0 -42 30 -72t72 -30 q43 0 72 30q30 30 30 72q0 43 -30 72q-30 30 -73 30q-41 0 -71 -30t-30 -72z" />
<glyph unicode="&#xe6;" horiz-adv-x="1547" d="M100 236q0 124 100 209q106 89 295 112q76 9 181 9v67q0 146 -30 192q-47 74 -171 74q-193 0 -245 -181h-100q19 115 92 186q95 92 253 92q166 0 244 -84q36 -39 50 -100q104 184 303 184q129 0 223 -79q154 -129 152 -440h-658q2 -177 59 -269q83 -135 241 -135 q160 0 240 159l103 -19q-24 -79 -82 -137q-98 -100 -261 -100q-153 0 -257 92q-58 50 -91 120q-48 -86 -98 -128q-97 -84 -239 -84q-121 0 -204 61q-100 73 -100 199zM212 238q0 -77 57 -122q56 -43 140 -43q155 0 227 124q40 68 40 196v84q-142 1 -243 -23 q-221 -53 -221 -216zM793 566h531q-3 134 -53 216q-71 117 -201 117q-139 0 -221 -143q-44 -78 -56 -190z" />
<glyph unicode="&#xe7;" horiz-adv-x="955" d="M100 479q0 281 156 424q101 93 249 93q189 0 282 -147q47 -75 58 -193h-105q-15 96 -59 155q-64 88 -180 88q-122 0 -194 -93q-95 -122 -95 -323q0 -217 108 -333q73 -78 186 -78q129 0 194 105q37 60 46 151h110q-17 -166 -94.5 -249.5t-233.5 -103.5l-43 -96 q172 -21 172 -142q0 -74 -59 -119q-50 -39 -133 -39q-73 0 -143 27v71q67 -18 104 -18q42 0 69 16q41 25 41 75q0 54 -58 75q-31 12 -100 16l69 139q-99 20 -171 71q-77 54 -119 145q-57 120 -57 283z" />
<glyph unicode="&#xe8;" horiz-adv-x="975" d="M100 473q0 276 142 420q101 103 255 103q202 0 306 -176q71 -122 71 -315v-33h-662q4 -174 62 -271q77 -129 233 -129q111 0 178 69q28 29 61 91l103 -19q-90 -237 -341 -237q-186 0 -295 128q-113 131 -113 369zM216 561h544q-8 116 -48 197q-72 141 -219 141 q-144 0 -221 -141q-43 -78 -56 -197zM249 1407h170l196 -263h-96z" />
<glyph unicode="&#xe9;" horiz-adv-x="975" d="M100 473q0 276 142 420q101 103 255 103q202 0 306 -176q71 -122 71 -315v-33h-662q4 -174 62 -271q77 -129 233 -129q111 0 178 69q28 29 61 91l103 -19q-90 -237 -341 -237q-186 0 -295 128q-113 131 -113 369zM216 561h544q-8 116 -48 197q-72 141 -219 141 q-144 0 -221 -141q-43 -78 -56 -197zM392 1144l196 263h171l-270 -263h-97z" />
<glyph unicode="&#xea;" horiz-adv-x="975" d="M100 473q0 276 142 420q101 103 255 103q202 0 306 -176q71 -122 71 -315v-33h-662q4 -174 62 -271q77 -129 233 -129q111 0 178 69q28 29 61 91l103 -19q-90 -237 -341 -237q-186 0 -295 128q-113 131 -113 369zM205 1145l227 279h152l226 -279h-109l-193 199l-193 -199 h-110zM216 561h544q-8 116 -48 197q-72 141 -219 141q-144 0 -221 -141q-43 -78 -56 -197z" />
<glyph unicode="&#xeb;" horiz-adv-x="975" d="M100 473q0 276 142 420q101 103 255 103q202 0 306 -176q71 -122 71 -315v-33h-662q4 -174 62 -271q77 -129 233 -129q111 0 178 69q28 29 61 91l103 -19q-90 -237 -341 -237q-186 0 -295 128q-113 131 -113 369zM216 561h544q-8 116 -48 197q-72 141 -219 141 q-144 0 -221 -141q-43 -78 -56 -197zM236 1280q0 42 29 69q29 29 70 29q39 0 67 -29q29 -28 29 -69q0 -40 -29 -68q-28 -29 -68 -29q-41 0 -69 29q-29 28 -29 68zM585 1280q0 41 29 69q29 29 70 29q39 0 67 -29q29 -28 29 -69q0 -40 -29 -68q-28 -29 -68 -29q-41 0 -69 29 q-29 28 -29 68z" />
<glyph unicode="&#xec;" horiz-adv-x="424" d="M-25 1407h163l149 -263h-90zM154 0v969h117v-969h-117z" />
<glyph unicode="&#xed;" horiz-adv-x="424" d="M138 1144l148 263h164l-223 -263h-89zM154 0v969h117v-969h-117z" />
<glyph unicode="&#xee;" horiz-adv-x="424" d="M-42 1145l179 279h152l178 -279h-102l-153 199l-151 -199h-103zM154 0v969h117v-969h-117z" />
<glyph unicode="&#xef;" horiz-adv-x="424" d="M-15 1280q0 41 28 69q29 28 70 28q38 0 67 -28q28 -28 28 -68t-28 -69q-28 -28 -68 -28q-41 0 -69 28q-28 29 -28 68zM153 0v969h117v-969h-117zM246 1280q0 41 28 69q30 28 70 28q38 0 67 -28q28 -28 28 -68t-28 -69q-28 -28 -68 -28t-69 28q-28 29 -28 68z" />
<glyph unicode="&#xf0;" horiz-adv-x="1010" d="M100 481q0 265 141 406q65 65 157 93q51 16 99 16t109 -23l-126 169l-152 -88l-47 73l153 88l-87 118l73 40l97 -112l154 90l44 -75l-146 -83q26 -32 94 -120q124 -159 159 -220q88 -157 88 -354q0 -257 -133 -405q-106 -118 -269 -118q-169 0 -279 122 q-129 144 -129 383zM212 485q0 -197 93 -315q77 -97 202 -97q123 0 197 95q95 124 95 313q0 210 -101 335q-67 83 -188 83q-117 0 -193 -84q-105 -118 -105 -330z" />
<glyph unicode="&#xf1;" horiz-adv-x="1005" d="M131 969h104q19 -55 19 -146q96 173 298 173q142 0 222 -75q67 -62 78 -177q5 -48 5 -188v-556h-106v563q0 107 -4 142q-10 100 -59.5 147.5t-143.5 47.5q-148 0 -229 -119q-55 -82 -55 -225v-556h-106v645q0 193 -6 241q-4 37 -17 83zM180 1179q36 211 170 211 q62 0 140 -60q42 -32 74 -51q25 -15 52 -15q72 0 88 131l80 -18q-10 -88 -44 -144q-46 -73 -121 -73q-65 0 -153 66q-80 61 -118 61q-67 0 -92 -124z" />
<glyph unicode="&#xf2;" horiz-adv-x="1010" d="M100 483q0 247 128 391q110 122 282 122q163 0 272 -122q128 -145 128 -389q0 -243 -128 -388q-108 -121 -277 -121t-277 121q-128 145 -128 386zM212 484q0 -193 92 -313q76 -98 201 -98q127 0 202 98q92 120 92 312q0 198 -92 317q-77 99 -205 99q-122 0 -198 -99 q-92 -121 -92 -316zM246 1407h171l196 -263h-97z" />
<glyph unicode="&#xf3;" horiz-adv-x="1010" d="M100 483q0 247 128 391q110 122 282 122q163 0 272 -122q128 -145 128 -389q0 -243 -128 -388q-108 -121 -277 -121t-277 121q-128 145 -128 386zM212 484q0 -193 92 -313q76 -98 201 -98q127 0 202 98q92 120 92 312q0 198 -92 317q-77 99 -205 99q-122 0 -198 -99 q-92 -121 -92 -316zM403 1144l196 263h171l-270 -263h-97z" />
<glyph unicode="&#xf4;" horiz-adv-x="1010" d="M100 483q0 247 128 391q110 122 282 122q163 0 272 -122q128 -145 128 -389q0 -243 -128 -388q-108 -121 -277 -121t-277 121q-128 145 -128 386zM203 1145l226 279h152l227 -279h-110l-193 199l-193 -199h-109zM212 484q0 -193 92 -313q76 -98 201 -98q127 0 202 98 q92 120 92 312q0 198 -92 317q-77 99 -205 99q-122 0 -198 -99q-92 -121 -92 -316z" />
<glyph unicode="&#xf5;" horiz-adv-x="1010" d="M100 483q0 247 128 391q110 122 282 122q163 0 272 -122q128 -145 128 -389q0 -243 -128 -388q-108 -121 -277 -121t-277 121q-128 145 -128 386zM212 484q0 -193 92 -313q76 -98 201 -98q127 0 202 98q92 120 92 312q0 198 -92 317q-77 99 -205 99q-122 0 -198 -99 q-92 -121 -92 -316zM219 1179q36 211 170 211q62 0 140 -60q42 -32 74 -51q25 -15 52 -15q72 0 88 131l80 -18q-10 -88 -44 -144q-46 -73 -121 -73q-65 0 -153 66q-80 61 -118 61q-67 0 -92 -124z" />
<glyph unicode="&#xf6;" horiz-adv-x="1010" d="M100 483q0 247 128 391q110 122 282 122q163 0 272 -122q128 -145 128 -389q0 -243 -128 -388q-108 -121 -277 -121t-277 121q-128 145 -128 386zM212 484q0 -193 92 -313q76 -98 201 -98q127 0 202 98q92 120 92 312q0 198 -92 317q-77 99 -205 99q-122 0 -198 -99 q-92 -121 -92 -316zM234 1280q0 41 29 69q29 29 70 29q39 0 67 -29q29 -28 29 -69q0 -40 -29 -68q-28 -29 -68 -29q-41 0 -69 29q-29 28 -29 68zM582 1280q0 41 29 69q29 29 70 29q39 0 67 -29q29 -28 29 -69q0 -40 -29 -68q-28 -29 -68 -29q-41 0 -69 29q-29 28 -29 68z " />
<glyph unicode="&#xf7;" horiz-adv-x="1065" d="M112 647v83h842v-83h-842zM447 411q0 36 24 60q26 26 62 26q34 0 60 -25q24 -25 24 -60q0 -36 -26 -61q-24 -24 -59 -24t-60 25q-25 24 -25 59zM447 952q0 36 24 60q26 26 62 26q34 0 60 -25q24 -25 24 -60q0 -36 -26 -61q-25 -24 -60 -24q-34 0 -59 25q-25 24 -25 59z " />
<glyph unicode="&#xf8;" horiz-adv-x="1010" d="M80 0l110 140q-90 144 -90 333q0 259 143 410q107 114 265 114q156 0 268 -112l64 82h91l-109 -140q89 -138 89 -332q0 -257 -143 -407q-108 -112 -268 -112q-155 0 -262 103l-62 -79h-96zM211 465q0 -132 49 -235l450 572q-80 98 -200 98q-166 0 -250 -180 q-49 -104 -49 -255zM303 162q75 -90 197 -90q166 0 250 177q49 103 49 251q0 135 -48 237z" />
<glyph unicode="&#xf9;" horiz-adv-x="979" d="M149 369v600h106v-605q0 -153 33 -206q54 -85 177 -85q136 0 209 115q46 72 46 223v558h106v-675q0 -129 1 -167q3 -72 21 -127h-107q-21 62 -21 138q-35 -72 -79 -108q-67 -54 -176 -54q-117 0 -197 58q-94 66 -112 184q-7 45 -7 151zM233 1407h170l196 -263h-96z" />
<glyph unicode="&#xfa;" horiz-adv-x="979" d="M149 369v600h106v-605q0 -153 33 -206q54 -85 177 -85q136 0 209 115q46 72 46 223v558h106v-675q0 -129 1 -167q3 -72 21 -127h-107q-21 62 -21 138q-35 -72 -79 -108q-67 -54 -176 -54q-117 0 -197 58q-94 66 -112 184q-7 45 -7 151zM376 1144l196 263h171l-270 -263 h-97z" />
<glyph unicode="&#xfb;" horiz-adv-x="979" d="M149 369v600h106v-605q0 -153 33 -206q54 -85 177 -85q136 0 209 115q46 72 46 223v558h106v-675q0 -129 1 -167q3 -72 21 -127h-107q-21 62 -21 138q-35 -72 -79 -108q-67 -54 -176 -54q-117 0 -197 58q-94 66 -112 184q-7 45 -7 151zM188 1145l226 279h152l227 -279 h-109l-194 199l-193 -199h-109z" />
<glyph unicode="&#xfc;" horiz-adv-x="979" d="M149 369v600h106v-605q0 -153 33 -206q54 -85 177 -85q136 0 209 115q46 72 46 223v558h106v-675q0 -129 1 -167q3 -72 21 -127h-107q-21 62 -21 138q-35 -72 -79 -108q-67 -54 -176 -54q-117 0 -197 58q-94 66 -112 184q-7 45 -7 151zM217 1280q0 42 29 69q29 29 70 29 q39 0 67 -29q29 -28 29 -69q0 -40 -29 -68q-28 -29 -68 -29q-41 0 -69 29q-29 28 -29 68zM565 1280q0 42 29 69q29 29 70 29q39 0 67 -29q29 -28 29 -69q0 -40 -29 -68q-28 -29 -68 -29q-41 0 -69 29q-29 28 -29 68z" />
<glyph unicode="&#xfd;" horiz-adv-x="855" d="M33 969h115l279 -831l289 831h113l-317 -887q-73 -209 -108 -282q-100 -208 -320 -208q-11 0 -30 1v95q127 -2 188 57q29 29 47.5 63t47.5 107q13 37 31 86zM322 1144l196 263h170l-270 -263h-96z" />
<glyph unicode="&#xfe;" horiz-adv-x="1012" d="M154 -404v1775h106v-553q44 76 87 113q78 66 189 66q134 0 222 -85q155 -149 155 -432q0 -256 -127 -401q-91 -103 -239 -103q-185 0 -287 168v-548h-106zM258 485q0 -194 88 -312q75 -100 197 -100q109 0 171 83q88 118 88 317q0 229 -104 354q-60 73 -166 73 q-115 0 -183 -93q-91 -126 -91 -322z" />
<glyph unicode="&#xff;" horiz-adv-x="855" d="M33 969h115l279 -831l289 831h113l-317 -887q-73 -209 -108 -282q-100 -208 -320 -208q-11 0 -30 1v95q127 -2 188 57q29 29 47.5 63t47.5 107q13 37 31 86zM159 1280q0 42 29 69q29 29 70 29q39 0 67 -29q29 -28 29 -69q0 -40 -29 -68q-28 -29 -68 -29q-41 0 -69 29 q-29 28 -29 68zM507 1280q0 41 29 69q29 29 70 29q39 0 67 -29q29 -28 29 -69q0 -40 -29 -68q-28 -29 -68 -29q-41 0 -69 29q-29 28 -29 68z" />
<glyph unicode="&#x152;" horiz-adv-x="1881" d="M116 679q0 356 184 556q142 153 366 153q242 0 400 -221v198h706v-102h-590v-505h549v-102h-549v-554h599v-102h-715v200q-151 -223 -400 -223q-248 0 -398 191q-152 194 -152 511zM244 679q0 -327 163 -495q100 -103 253 -103q151 0 245 99q159 169 159 498 q0 340 -164 508q-95 97 -250 97q-144 0 -240 -100q-166 -171 -166 -504z" />
<glyph unicode="&#x153;" horiz-adv-x="1663" d="M100 481q0 258 139 402q109 113 271 113q224 0 336 -238q39 85 96 140q103 98 245 98q218 0 320 -207q57 -116 57 -257q0 -23 -3 -71h-655q6 -161 58 -251q80 -138 238 -138q172 0 241 161l103 -19q-93 -238 -343 -238q-245 0 -359 229q-121 -229 -339 -229 q-187 0 -301 151q-104 137 -104 354zM212 485q0 -186 80 -299q79 -113 212 -113q61 0 116 29.5t89 81.5q77 117 77 299q0 188 -78 303q-76 113 -208 113q-127 0 -208 -115q-80 -113 -80 -299zM906 550h534q-2 141 -59 236q-68 113 -200 113t-209 -128q-51 -86 -66 -221z" />
<glyph unicode="&#x178;" horiz-adv-x="1014" d="M32 1365h137l340 -669l336 669h137l-420 -780l3 -585h-116l3 585zM223 1627q0 45 31 74q31 31 75 31q42 0 72 -31q31 -30 31 -73q0 -44 -31 -74q-30 -31 -73 -31q-44 0 -74 31q-31 30 -31 73zM583 1627q0 45 31 74q31 31 75 31q42 0 72 -31q31 -30 31 -73q0 -44 -31 -74 q-30 -31 -73 -31q-44 0 -74 31q-31 30 -31 73z" />
<glyph unicode="&#x2c6;" d="M210 1145l226 279h152l227 -279h-110l-193 199l-193 -199h-109z" />
<glyph unicode="&#x2dc;" d="M210 1179q36 211 170 211q61 0 139 -60q43 -32 75 -51q24 -15 51 -15q72 0 89 131l80 -18q-10 -88 -45 -144q-46 -73 -120 -73q-66 0 -153 66q-81 61 -118 61q-67 0 -92 -124z" />
<glyph unicode="&#x2000;" horiz-adv-x="914" />
<glyph unicode="&#x2001;" horiz-adv-x="1828" />
<glyph unicode="&#x2002;" horiz-adv-x="914" />
<glyph unicode="&#x2003;" horiz-adv-x="1828" />
<glyph unicode="&#x2004;" horiz-adv-x="609" />
<glyph unicode="&#x2005;" horiz-adv-x="457" />
<glyph unicode="&#x2006;" horiz-adv-x="304" />
<glyph unicode="&#x2007;" horiz-adv-x="304" />
<glyph unicode="&#x2008;" horiz-adv-x="228" />
<glyph unicode="&#x2009;" horiz-adv-x="365" />
<glyph unicode="&#x200a;" horiz-adv-x="101" />
<glyph unicode="&#x2010;" horiz-adv-x="571" d="M0 471v89h571v-89h-571z" />
<glyph unicode="&#x2011;" horiz-adv-x="571" d="M0 471v89h571v-89h-571z" />
<glyph unicode="&#x2012;" horiz-adv-x="571" d="M0 471v89h571v-89h-571z" />
<glyph unicode="&#x2013;" d="M161 471v89h703v-89h-703z" />
<glyph unicode="&#x2014;" horiz-adv-x="1138" d="M0 471v89h1138v-89h-1138z" />
<glyph unicode="&#x2018;" horiz-adv-x="480" d="M127 1075q0 144 146 313h128q-143 -135 -160 -241q13 2 20 2q40 0 70 -32q27 -30 27 -71q0 -49 -37 -81q-31 -27 -75 -27q-49 0 -83 35q-36 37 -36 102z" />
<glyph unicode="&#x2019;" horiz-adv-x="480" d="M79 938q143 131 160 240q-12 -1 -18 -1q-42 0 -72 32q-27 30 -27 70q0 50 37 82q31 27 75 27q49 0 83 -35q36 -37 36 -103q0 -145 -145 -312h-129z" />
<glyph unicode="&#x201a;" horiz-adv-x="480" d="M79 -244q143 132 160 241q-14 -2 -20 -2q-40 0 -70 32q-27 30 -27 70q0 50 37 82q31 27 75 27q49 0 83 -35q36 -37 36 -103q0 -143 -145 -312h-129z" />
<glyph unicode="&#x201c;" horiz-adv-x="787" d="M127 1075q0 144 146 313h128q-143 -135 -160 -241q13 2 20 2q40 0 70 -32q27 -30 27 -71q0 -49 -37 -81q-31 -27 -75 -27q-49 0 -83 35q-36 37 -36 102zM434 1075q0 144 146 313h128q-143 -135 -160 -241q14 2 20 2q41 0 71 -32q27 -30 27 -71q0 -49 -37 -81 q-32 -27 -75 -27q-49 0 -84 35q-36 37 -36 102z" />
<glyph unicode="&#x201d;" horiz-adv-x="814" d="M79 938q143 131 160 240q-12 -1 -18 -1q-42 0 -72 32q-27 30 -27 70q0 50 37 82q31 27 75 27q49 0 83 -35q36 -37 36 -103q0 -145 -145 -312h-129zM414 938q142 131 160 240q-12 -1 -19 -1q-42 0 -72 32q-27 30 -27 70q0 50 37 82q32 27 75 27q49 0 84 -35 q36 -37 36 -103q0 -144 -146 -312h-128z" />
<glyph unicode="&#x201e;" horiz-adv-x="814" d="M79 -244q143 132 160 241q-14 -2 -20 -2q-40 0 -70 32q-27 30 -27 70q0 50 37 82q31 27 75 27q49 0 83 -35q36 -37 36 -103q0 -143 -145 -312h-129zM414 -244q142 132 160 241q-14 -2 -21 -2q-39 0 -70 32q-27 29 -27 70q0 50 37 82q32 27 75 27q49 0 84 -35 q36 -37 36 -103q0 -143 -146 -312h-128z" />
<glyph unicode="&#x2022;" horiz-adv-x="1365" d="M401 694q0 121 84 202q86 82 204 82q113 0 196 -83q84 -83 84 -201t-83 -201t-201 -83q-116 0 -199 82q-85 84 -85 202z" />
<glyph unicode="&#x2026;" horiz-adv-x="1404" d="M157 81q0 44 30 74q31 32 76 32q43 0 74 -31q30 -31 30 -74q0 -45 -32 -75q-31 -30 -73 -30q-44 0 -74 31q-31 30 -31 73zM596 81q0 44 30 74q31 32 76 32q42 0 74 -31q30 -31 30 -74q0 -45 -32 -75q-31 -30 -73 -30q-43 0 -74 31q-31 30 -31 73zM1035 81q0 44 30 74 q31 32 76 32q42 0 74 -31q30 -31 30 -74q0 -44 -32 -75q-31 -30 -73 -30q-43 0 -74 31q-31 30 -31 73z" />
<glyph unicode="&#x202f;" horiz-adv-x="365" />
<glyph unicode="&#x2039;" horiz-adv-x="450" d="M75 478l171 489h80l-148 -489l148 -478h-80z" />
<glyph unicode="&#x203a;" horiz-adv-x="450" d="M124 0l148 489l-148 478h79l172 -478l-172 -489h-79z" />
<glyph unicode="&#x205f;" horiz-adv-x="457" />
<glyph unicode="&#x2122;" horiz-adv-x="1563" d="M23 1288v77h535v-77h-222v-742h-90v742h-223zM686 546v819h133l254 -705l253 705h132v-819h-89v697l-254 -697h-85l-254 697v-697h-90z" />
<glyph unicode="&#xe000;" horiz-adv-x="970" d="M0 0v970h970v-970h-970z" />
</font>
</defs>
</svg>
