<?xml version="1.0" standalone="no"?>
<!DOCTYPE svg PUBLIC "-//W3C//DTD SVG 1.1//EN" "http://www.w3.org/Graphics/SVG/1.1/DTD/svg11.dtd" >
<svg xmlns="http://www.w3.org/2000/svg">
<metadata></metadata>
<defs>
<font id="corpoaligitalic" horiz-adv-x="1033" >
<font-face units-per-em="2048" ascent="1638" descent="-410" />
<missing-glyph horiz-adv-x="512" />
<glyph horiz-adv-x="2048" />
<glyph horiz-adv-x="2048" />
<glyph unicode="&#xd;" horiz-adv-x="2048" />
<glyph unicode=" "  horiz-adv-x="512" />
<glyph unicode="&#x09;" horiz-adv-x="512" />
<glyph unicode="&#xa0;" horiz-adv-x="512" />
<glyph unicode="!" horiz-adv-x="512" d="M59 74q0 55 45 91q34 28 74 28q33 0 58 -20q32 -26 32 -72q0 -56 -43 -92q-32 -26 -74 -26q-37 0 -62 22q-30 26 -30 69zM169 392l198 939h154l-257 -939h-95z" />
<glyph unicode="&#x22;" horiz-adv-x="785" d="M294 818l117 547h138l-156 -547h-99zM567 818l118 547h137l-156 -547h-99z" />
<glyph unicode="#" horiz-adv-x="1248" d="M80 442l39 96h233l127 313h-232l39 97h233l168 417h112l-170 -417h310l169 417h112l-169 -417h231l-39 -97h-233l-127 -313h232l-39 -96h-233l-178 -442h-112l178 442h-309l-179 -442h-109l178 442h-232zM462 538h312l126 313h-311z" />
<glyph unicode="$" horiz-adv-x="1032" d="M76 146l54 285h46q-7 -62 -7 -101q0 -236 202 -288l158 633q-23 16 -101 69q-83 58 -125 120q-41 61 -41 143q0 156 119 271q122 117 302 117h26l38 152h63l-40 -159q62 -12 124 -40q42 -19 65 -19q19 0 60 21l-69 -348h-48q7 58 7 97q0 184 -155 224l-131 -526l16 -12 q136 -95 180 -136q91 -84 91 -208q0 -197 -146 -340q-136 -131 -324 -131h-24l-38 -152h-63l40 158q-163 23 -279 170zM389 1059q0 -92 88 -160q31 -24 92 -65l124 497q-68 0 -115 -16q-88 -29 -139 -103q-50 -72 -50 -153zM432 34q91 0 157 32q97 47 149 150q44 87 44 172 q0 95 -85 166q-34 28 -114 84z" />
<glyph unicode="%" horiz-adv-x="1204" d="M47 0l1121 1337h77l-1120 -1337h-78zM198 933q0 100 47 206q53 121 140 183q75 54 165 54q87 0 135 -58q43 -53 43 -142q0 -176 -104 -314q-103 -137 -243 -137q-82 0 -129 49q-54 58 -54 159zM290 897q0 -60 27 -95q25 -34 69 -34q116 0 186 160q64 146 64 270 q0 133 -103 133q-104 0 -177 -156q-66 -140 -66 -278zM585 196q0 100 47 207q53 121 140 183q75 54 165 54q87 0 135 -58q43 -53 43 -142q0 -176 -104 -314q-102 -137 -243 -137q-82 0 -129 49q-54 58 -54 158zM677 161q0 -60 27 -95q25 -34 69 -34q116 0 186 160 q64 147 64 270q0 133 -103 133q-104 0 -177 -156q-66 -141 -66 -278z" />
<glyph unicode="&#x26;" horiz-adv-x="1149" d="M27 268q0 172 154 307q67 58 249 171q-15 35 -47 108q-34 79 -34 153q0 159 123 259q92 76 219 76q91 0 146 -42q71 -55 71 -154q0 -123 -107 -234q-51 -55 -223 -169l221 -479q50 61 84 128q41 82 41 126q0 26 -22 37q-17 9 -68 12l13 51q76 -9 141 -9t145 9l-13 -51 q-67 -5 -89 -18q-25 -16 -48 -77q-38 -101 -69 -154q-28 -49 -82 -117l31 -66q21 -43 42.5 -62.5t54.5 -26.5q21 -4 65 -4l-8 -48q-90 7 -135 7q-49 0 -117 -7l-48 110q-72 -60 -164.5 -93.5t-188.5 -33.5q-141 0 -233 68q-104 78 -104 223zM167 261q0 -105 67 -168 q57 -53 149 -53q106 0 225 68q47 28 83 59l-224 500q-158 -102 -217 -178q-83 -104 -83 -228zM468 1048q0 -69 77 -227q249 171 249 340q0 64 -35 100q-30 32 -78 32q-95 0 -164 -94q-49 -67 -49 -151z" />
<glyph unicode="'" horiz-adv-x="512" d="M295 818l117 547h138l-156 -547h-99z" />
<glyph unicode="(" horiz-adv-x="608" d="M90 218q0 171 53 367q131 486 525 814h64q-252 -258 -374 -560q-131 -325 -131 -674q0 -188 46 -351q33 -117 102 -246h-62q-223 257 -223 650z" />
<glyph unicode=")" horiz-adv-x="608" d="M-115 -432q251 254 374 559q131 325 131 675q0 188 -46 351q-33 117 -102 246h62q223 -260 223 -650q0 -171 -53 -368q-133 -492 -524 -813h-65z" />
<glyph unicode="*" horiz-adv-x="1024" d="M371 1149l51 80l204 -134l54 239l92 -23l-65 -236l244 22l7 -95l-245 -11l97 -225l-88 -36l-86 229l-184 -161l-61 73l191 153z" />
<glyph unicode="+" d="M160 640v102h360v355h106v-355h360v-102h-360v-354h-106v354h-360z" />
<glyph unicode="," horiz-adv-x="512" d="M-40 -424q165 236 177 387q-10 -1 -16 -1q-38 0 -61 31q-17 22 -17 55q0 56 43 91q32 26 71 26q44 0 72 -31q30 -31 30 -83q0 -100 -89 -262q-66 -118 -142 -213h-68z" />
<glyph unicode="-" horiz-adv-x="382" d="M13 515l18 73h382l-18 -73h-382z" />
<glyph unicode="." horiz-adv-x="512" d="M59 74q0 55 45 91q34 28 74 28q33 0 58 -20q32 -26 32 -72q0 -56 -43 -92q-32 -26 -74 -26q-37 0 -62 22q-30 26 -30 69z" />
<glyph unicode="/" horiz-adv-x="793" d="M-72 -398l856 1763h89l-855 -1763h-90z" />
<glyph unicode="0" d="M119 340q0 233 93 492q186 522 523 522q277 0 277 -356q0 -224 -83 -466q-93 -275 -232 -416q-131 -133 -298 -133q-280 0 -280 357zM256 290q0 -105 35 -173q41 -77 122 -77q111 0 203 128q98 137 181 413q78 261 78 466q0 101 -32 166q-42 84 -136 84q-50 0 -92.5 -27 t-88.5 -88q-49 -66 -102 -182t-90 -239q-78 -257 -78 -471z" />
<glyph unicode="1" horiz-adv-x="1032" d="M152 -6l11 46q85 6 139 28q50 21 74 70q12 24 27 84l225 908h-210l10 41q118 9 215 72q91 64 135 160h50l-284 -1140q-19 -76 -19 -116q0 -62 64 -88q28 -12 92 -19l-11 -46q-151 16 -249 16q-94 0 -269 -16z" />
<glyph unicode="2" d="M16 0l20 82q384 374 577 588q173 193 216 272q45 84 45 159q0 78 -52 122q-47 40 -124 40q-212 0 -343 -306h-65q100 397 435 397q128 0 205 -62q88 -71 88 -185q0 -117 -79 -229q-75 -106 -314 -341q-103 -101 -203 -200q-162 -161 -233 -225h589l-41 -112h-721z" />
<glyph unicode="3" d="M50 306q0 32 5 73h77v-43q0 -128 57 -196q66 -80 196 -80q166 0 258 143q70 108 70 232q0 236 -278 253l16 67q112 0 185 37q107 53 158 162q30 64 30 130q0 95 -66 149q-51 42 -126 42q-129 0 -210 -105q-38 -49 -74 -135h-68q42 146 117 218q103 101 264 101 q128 0 205 -60q94 -71 94 -198q0 -106 -58 -197q-81 -128 -277 -174q231 -70 231 -292q0 -92 -36.5 -177.5t-102.5 -147.5q-134 -125 -326 -125q-172 0 -263 99q-78 85 -78 224z" />
<glyph unicode="4" d="M43 405l11 45l757 915h159l-215 -860h191l-25 -100h-191l-101 -405h-132l101 405h-555zM175 505h448l200 788z" />
<glyph unicode="5" d="M74 303h72q15 -84 39 -129q27 -52 82 -83t120 -31q76 0 144.5 43.5t114.5 121.5q95 162 95 357q0 115 -56 188q-51 67 -145 67q-152 0 -274 -157h-64l279 657h535l-41 -116h-483l-171 -413q53 49 92 70q73 39 167 39q135 0 210 -73q94 -91 94 -269q0 -124 -40 -240 t-111 -202q-72 -86 -185 -125q-70 -25 -148 -25q-190 0 -275 133q-48 74 -51 187z" />
<glyph unicode="6" horiz-adv-x="1032" d="M87 319q0 341 310 682q226 248 504 402h127q-166 -107 -315 -240q-114 -103 -234 -262q69 22 129 22q126 0 208 -80q93 -92 93 -256q0 -106 -37.5 -215.5t-103.5 -196.5q-145 -192 -364 -192q-160 0 -244 102q-73 88 -73 234zM225 282q0 -96 42 -165q48 -77 142 -77 q158 0 266 209q90 176 90 372q0 103 -44 170q-49 75 -144 75q-144 0 -250 -187q-44 -78 -73 -191q-29 -111 -29 -206z" />
<glyph unicode="7" d="M128 0l885 1212l-665 -14l31 139h792l-904 -1337h-139z" />
<glyph unicode="8" d="M101 261q0 120 62 228q91 157 289 215q-63 22 -93 49q-63 57 -63 156q0 112 59 218q64 116 174 176q92 51 201 51q118 0 191 -59q80 -65 80 -193q0 -168 -112 -294q-72 -83 -194 -117q78 -25 117 -66q64 -66 64 -177q0 -118 -60 -226q-64 -114 -174 -177 q-109 -62 -235 -62q-136 0 -220 71q-86 72 -86 207zM237 236q0 -85 44 -139q47 -57 127 -57q151 0 252 165q79 128 79 268q0 87 -46 139q-49 57 -132 57q-79 0 -162 -69q-80 -67 -124 -176q-38 -96 -38 -188zM434 884q0 -65 35 -108q40 -50 108 -50q122 0 210 140 q35 57 56.5 130t21.5 137q0 67 -31 112q-37 52 -113 52q-113 0 -199 -128q-38 -57 -63 -137t-25 -148z" />
<glyph unicode="9" horiz-adv-x="1032" d="M71 -66q161 103 316 240q113 102 233 262q-68 -22 -129 -22q-125 0 -207 80q-93 91 -93 257q0 106 37 215t104 196q145 192 364 192q159 0 243 -102q73 -89 73 -234q0 -341 -310 -682q-230 -253 -504 -402h-127zM335 716q0 -102 44 -170q48 -75 138 -75q149 0 255 187 q44 79 73 191q29 110 29 205q0 99 -42 166q-49 77 -147 77q-73 0 -141 -54.5t-119 -154.5q-90 -176 -90 -372z" />
<glyph unicode=":" horiz-adv-x="512" d="M59 73q0 56 45 92q34 28 74 28q33 0 58 -20q32 -26 32 -73q0 -55 -43 -91q-32 -26 -74 -26q-37 0 -62 22q-30 26 -30 68zM220 757q0 55 45 91q34 28 73 28q33 0 58 -20q32 -26 32 -72q0 -56 -43 -92q-32 -26 -73 -26q-37 0 -62 22q-30 26 -30 69z" />
<glyph unicode=";" horiz-adv-x="512" d="M-39 -424q164 237 177 387q-10 -1 -16 -1q-38 0 -61 31q-17 22 -17 55q0 56 43 91q31 26 70 26q44 0 72 -31q30 -32 30 -83q0 -100 -89 -262q-65 -118 -141 -213h-68zM219 757q0 55 45 91q35 28 74 28q33 0 58 -20q32 -26 32 -72q0 -56 -43 -92q-33 -26 -74 -26 q-37 0 -62 22q-30 26 -30 69z" />
<glyph unicode="&#x3c;" horiz-adv-x="1024" d="M111 683v11l843 547v-60l-680 -446l680 -453v-158z" />
<glyph unicode="=" d="M276 510v106h826v-106h-826zM276 767v106h826v-106h-826z" />
<glyph unicode="&#x3e;" horiz-adv-x="1024" d="M111 124v60l680 446l-680 452v159l843 -559v-11z" />
<glyph unicode="?" horiz-adv-x="921" d="M235 74q0 55 45 91q35 28 74 28q33 0 58 -20q32 -26 32 -72q0 -56 -44 -92q-32 -26 -73 -26q-37 0 -62 22q-30 26 -30 69zM286 997q29 152 114 240q101 105 254 105q103 0 176 -54q96 -70 96 -201q0 -99 -67 -178q-40 -47 -174 -135q-146 -97 -208 -179q-63 -79 -76 -226 h-86q10 115 42 192q36 86 122 167q34 31 117 94q105 80 143 132q44 62 44 125t-37 109q-43 55 -121 55q-181 0 -276 -246h-63z" />
<glyph unicode="@" horiz-adv-x="1435" d="M69 675q0 216 117 395q106 163 282 246q146 70 312 70q272 0 464 -174q171 -154 171 -397q0 -215 -136 -366q-84 -94 -191 -139q-62 -26 -115 -26q-87 0 -125 56q-20 30 -29 93q-47 -61 -84 -89q-64 -50 -145 -50q-117 0 -195 88q-66 75 -66 192q0 191 141 326 q126 122 282 122q134 0 171 -158l37 140h123l-142 -532q-13 -48 -13 -68q0 -28 16 -50q21 -27 55 -27q55 0 129 53q108 77 164 212q48 115 48 227q0 210 -172 355q-164 137 -386 137q-254 0 -429 -159q-93 -85 -147 -206q-56 -127 -56 -268q0 -239 147 -408q81 -93 203 -150 q141 -66 302 -66q178 0 330 104q83 57 136 126q19 23 51 73h84q-49 -88 -91 -137.5t-110 -100.5q-188 -140 -412 -140q-233 0 -422 125q-159 106 -237 280q-62 138 -62 291zM454 534q0 -74 32 -128q43 -71 121 -71q127 0 213 198q68 157 68 295q0 60 -24 99q-33 54 -107 54 q-81 0 -159 -84q-78 -83 -119 -214q-25 -80 -25 -149z" />
<glyph unicode="A" horiz-adv-x="1206" d="M-97 -6l10 40q75 7 113 29q57 38 112 134l711 1235h11l111 -1245q6 -61 16 -87q18 -49 83 -59q17 -2 62 -7l-10 -40q-123 16 -221 16q-97 0 -228 -16l10 40q78 8 109 21q41 17 41 69q0 11 -3 59l-14 223h-484l-136 -238q-31 -68 -31 -84q0 -44 117 -50l-10 -40 q-101 11 -182 11q-80 0 -187 -11zM364 463h449l-47 707z" />
<glyph unicode="B" horiz-adv-x="1101" d="M-46 0l10 40q82 7 120 22q44 19 60 59q6 14 16 52l254 1019q10 41 10 62q0 43 -55 59q-21 6 -85 12l10 40h473q153 0 230 -44q103 -59 103 -197q0 -156 -125 -278q-82 -81 -200 -118q230 -50 230 -252q0 -98 -46 -197q-84 -180 -263 -243q-101 -36 -257 -36h-485z M287 110q0 -35 38 -47q21 -6 73 -6h59q192 0 299 135q54 68 84 162q23 73 23 140q0 90 -51 140q-54 53 -212 53h-176l-121 -489q-16 -70 -16 -88zM439 744h142q119 0 188 37q104 55 155 191q34 89 34 168q0 104 -74 142q-51 26 -178 26h-127z" />
<glyph unicode="C" horiz-adv-x="1099" d="M124 411q0 212 74 423q105 299 291 443q151 117 346 117q82 0 151 -23q19 -6 106 -48q32 -16 58 -16q21 0 55 17l-71 -338h-48q8 48 8 85q0 115 -57 185q-67 84 -199 84q-163 0 -284 -125q-134 -138 -213 -387q-75 -237 -75 -445q0 -148 66 -240q73 -102 213 -102 q194 0 324 196q63 94 97 224h75q-41 -148 -113 -257q-155 -233 -410 -233q-170 0 -275 100q-119 113 -119 340z" />
<glyph unicode="D" horiz-adv-x="1330" d="M-46 0l10 40q82 6 120 21q44 19 60 59q6 14 16 53l254 1019q10 41 10 60q0 45 -55 61q-21 6 -85 12l10 40h472q158 0 239 -20q302 -74 302 -435q0 -227 -92 -429q-135 -298 -392 -416q-141 -65 -362 -65h-507zM284 110q0 -33 38 -46q24 -7 87 -7q160 0 248 24 q235 64 365 315q67 129 105 277t38 280q0 111 -41 197q-46 96 -149 132q-77 26 -199 26h-197l-278 -1116q-17 -71 -17 -82z" />
<glyph unicode="E" d="M-46 0l10 40q82 7 120 22q44 18 60 59q6 13 16 52l254 1019q11 46 11 65q0 40 -56 56q-21 6 -85 12l10 40h834l-44 -286h-39q-2 71 -9 111q-18 96 -98 110q-37 8 -113 8h-245l-141 -563h460l-16 -64h-460l-117 -470q-15 -60 -15 -87q0 -67 140 -67h155q83 0 129 18 q87 26 187 236h38l-115 -311h-871z" />
<glyph unicode="F" horiz-adv-x="949" d="M-48 -6l10 40q82 7 120 22q45 19 60 59q7 15 16 52l255 1025q11 43 11 67q0 38 -56 54q-21 7 -84 12l10 40h833l-43 -286h-40q-2 69 -9 111q-9 54 -35 80t-76 33q-36 5 -99 5h-246l-140 -563h460l-17 -64h-460l-128 -514q-11 -46 -11 -66q0 -38 54 -55q21 -6 83 -12 l-11 -40q-145 16 -225 16q-78 0 -232 -16z" />
<glyph unicode="G" horiz-adv-x="1207" d="M120 393q0 236 92 468q107 271 280 404q159 123 356 123q82 0 154 -24q31 -11 112 -54q38 -21 62 -21q12 0 55 15l-84 -333h-47q10 53 10 95q0 95 -34 154q-67 114 -225 114q-169 0 -296 -141q-136 -150 -222 -409q-71 -211 -71 -401q0 -352 290 -352q115 0 277 67 l91 366q4 17 4 32q0 40 -48 52q-32 9 -88 13l10 40q135 -12 209 -12q72 0 215 12l-10 -40q-93 -8 -123 -22q-24 -12 -34 -38q-3 -7 -12 -40l-98 -394q-92 -39 -154 -56q-118 -34 -246 -34q-213 0 -324 112q-101 103 -101 304z" />
<glyph unicode="H" horiz-adv-x="1325" d="M-48 -6l10 40q82 7 120 22q45 19 60 59q6 14 16 52l257 1031q12 48 12 64q0 41 -57 57q-24 7 -85 12l10 40q147 -16 226 -16q78 0 232 16l-10 -40q-79 -6 -117 -22q-44 -19 -59 -59q-7 -17 -16 -52l-114 -457h587l114 457q13 48 13 65q0 40 -56 56q-24 7 -83 12l10 40 q146 -16 225 -16q78 0 231 16l-10 -40q-80 -6 -118 -22q-44 -19 -59 -59q-7 -16 -16 -52l-257 -1031q-11 -43 -11 -66q0 -38 55 -55q21 -6 83 -12l-11 -40q-145 16 -224 16q-78 0 -232 -16l10 40q81 7 118 22q45 19 60 59q6 14 15 52l129 517h-587l-129 -517 q-11 -45 -11 -67q0 -37 54 -54q21 -6 83 -12l-11 -40q-145 16 -225 16q-78 0 -232 -16z" />
<glyph unicode="I" horiz-adv-x="601" d="M-48 -6l10 40q82 7 120 22q45 19 60 59q6 14 16 52l257 1031q12 48 12 64q0 41 -57 57q-24 7 -85 12l10 40q147 -16 226 -16q78 0 232 16l-10 -40q-79 -6 -117 -22q-44 -19 -59 -59q-7 -18 -16 -52l-257 -1031q-11 -45 -11 -67q0 -37 54 -54q21 -6 83 -12l-11 -40 q-145 16 -225 16q-78 0 -232 -16z" />
<glyph unicode="J" horiz-adv-x="576" d="M-172 -141l12 49h22q109 0 174 58q62 56 109 242l253 990q14 53 14 69q0 53 -142 64l10 40q146 -16 224 -16q76 0 233 16l-10 -40q-75 -6 -119 -22q-27 -11 -39 -22.5t-21 -35.5q-8 -20 -16 -53l-242 -969q-27 -111 -57 -169q-102 -202 -353 -202q-13 0 -52 1z" />
<glyph unicode="K" horiz-adv-x="1192" d="M-48 -6l10 40q82 7 120 22q45 19 60 59q6 14 16 52l257 1031q10 41 10 61q0 44 -55 60q-24 7 -85 12l10 40q158 -16 235 -16q80 0 223 16l-10 -40q-79 -6 -117 -22q-44 -19 -59 -59q-7 -16 -16 -52l-122 -489l591 526q46 41 46 59q0 25 -44 31q-35 4 -70 6l10 40 q112 -10 189 -10t194 10l-10 -40q-99 -9 -149 -37q-43 -26 -155 -127l-422 -377l193 -480q61 -153 96 -201q47 -63 113 -63q45 0 115 31l-16 -57q-76 -38 -155 -38q-104 0 -163 60q-52 53 -116 213l-181 446l-88 -80l-113 -454q-11 -45 -11 -67q0 -37 54 -54q21 -6 83 -12 l-11 -40q-134 16 -216 16q-76 0 -241 -16z" />
<glyph unicode="L" horiz-adv-x="972" d="M-46 0l10 39q83 7 120 22q45 19 60 59q6 15 16 53l255 1025q13 49 13 65q0 39 -57 56q-24 7 -85 12l10 40q146 -16 225 -16q78 0 232 16l-10 -40q-79 -6 -117 -22q-43 -19 -58 -59q-7 -15 -16 -52l-245 -980q-16 -66 -16 -85q0 -69 114 -69h155q88 1 130 17 q89 30 186 230h51l-115 -311h-858z" />
<glyph unicode="M" horiz-adv-x="1582" d="M-48 -6l10 40q110 12 158 88q33 52 74 181q19 58 127 410l144 485q12 39 12 67q0 55 -143 66l10 40q81 -8 136 -8q75 0 181 11l99 -1110l637 1110q122 -11 185 -11q55 0 140 8l-10 -40q-78 -6 -119 -22q-44 -17 -60 -58q-6 -15 -15 -53l-237 -1031q-9 -40 -9 -62 q0 -42 55 -58q26 -8 83 -13l-9 -40q-145 16 -229 16q-82 0 -236 -16l10 40q69 3 119 22q44 17 61 58q5 14 14 53l265 1115l-713 -1242h-33l-110 1242l-325 -1115q-10 -33 -10 -61q0 -43 52 -59q26 -8 81 -13l-10 -40q-130 12 -190 12t-195 -12z" />
<glyph unicode="N" horiz-adv-x="1322" d="M-51 -6l10 40q117 11 156 62q19 25 49 124q25 90 59 220l209 837q-20 33 -61 43q-32 7 -91 11l10 40q80 -7 151 -7q66 0 134 7l409 -1135l223 935q11 45 11 78q0 39 -31 57q-28 18 -100 25l10 40q143 -11 196 -11q55 0 190 11l-10 -40q-73 -9 -114 -35q-62 -38 -99 -180 l-290 -1160h-23l-460 1312l-199 -828l-28 -116q-40 -185 -40 -208q0 -48 50 -67q23 -9 77 -15l-10 -40q-147 11 -197 11q-53 0 -191 -11z" />
<glyph unicode="O" horiz-adv-x="1239" d="M142 474q0 248 92 473q180 442 555 442q196 0 312 -132q107 -123 107 -365q0 -196 -58 -382q-90 -285 -262 -422q-141 -111 -321 -111q-206 0 -318 133q-107 127 -107 364zM285 446q0 -213 97 -329q72 -85 187 -85q133 0 240 122q118 134 197 391q60 197 60 370 q0 186 -76 302q-77 117 -213 117q-188 0 -332 -265q-76 -142 -121 -320q-39 -158 -39 -303z" />
<glyph unicode="P" horiz-adv-x="1068" d="M-48 -6l10 40q82 7 120 22q45 19 60 59q6 14 16 53l255 1024q11 43 11 66q0 39 -56 55q-21 6 -84 12l10 40h473q197 0 282 -66q91 -70 91 -211q0 -111 -54 -214q-79 -149 -227 -205q-100 -38 -258 -38h-191l-116 -463q-11 -45 -11 -68q0 -37 54 -54q21 -6 82 -12l-10 -40 q-146 16 -225 16q-78 0 -232 -16zM424 688h155q124 0 194 29q123 52 189 200q44 99 44 197q0 116 -78 160q-60 34 -207 34h-142z" />
<glyph unicode="Q" horiz-adv-x="1240" d="M141 476q0 239 82 452q179 461 566 461q203 0 313 -130q105 -125 105 -364t-82 -459q-146 -387 -466 -451q22 -10 73 -43q74 -49 123 -49q71 0 165 55l-14 -50q-48 -42 -83 -62q-61 -34 -130 -34t-153 56q-47 32 -82 50q-35 17 -74 17q-63 0 -119 -47q-33 -28 -80 -86 l21 99q77 82 120 107q-106 36 -171 109q-114 128 -114 369zM284 456q0 -213 102 -335q75 -90 192 -90q130 0 233 119q116 134 195 400q59 201 59 377q0 192 -78 305q-69 102 -203 102q-195 0 -340 -265q-77 -139 -122 -319q-38 -155 -38 -294z" />
<glyph unicode="R" horiz-adv-x="1180" d="M-48 -6l10 40q82 7 120 22q45 19 60 59q6 13 15 52l256 1025q10 40 10 59q0 46 -55 62q-21 6 -84 12l10 40h458q174 0 254 -38q134 -63 134 -230q0 -105 -49.5 -194t-141.5 -149q-113 -74 -255 -90q57 -15 83 -45q24 -31 44 -115l67 -272q22 -90 46 -129q36 -57 102 -57 q46 0 116 31l-16 -57q-76 -38 -161 -38q-107 0 -157 62q-31 40 -48 96q-14 47 -33 117l-56 222q-21 80 -38 115q-25 48 -81 59q-41 9 -103 9h-42l-123 -495q-9 -36 -9 -57q0 -49 52 -64q21 -6 82 -12l-10 -40q-143 16 -225 16t-232 -16zM432 720h172q118 0 191 36 q116 57 173 189q40 92 40 177q0 120 -102 163q-57 23 -201 23h-126z" />
<glyph unicode="S" horiz-adv-x="945" d="M26 146l54 285h46q-7 -62 -7 -101q0 -138 75 -219q72 -77 198 -77q157 0 249 110q42 50 66.5 116t24.5 127q0 96 -85 167q-46 39 -178 128q-129 88 -174 132q-83 82 -83 193q0 156 119 271q123 117 304 117q103 0 209 -47q43 -19 65 -19q19 0 60 21l-69 -348h-48 q7 58 7 97q0 232 -225 232q-119 0 -199 -68q-96 -82 -96 -204q0 -73 57 -133q30 -30 129 -97q157 -105 224 -161q111 -93 111 -229q0 -92 -38.5 -181t-107.5 -157q-135 -131 -332 -131q-159 0 -267 84q-38 30 -89 92z" />
<glyph unicode="T" horiz-adv-x="998" d="M154 -6l10 40q76 6 119 23q46 19 60 57q5 14 15 53l285 1141h-123q-71 0 -110 -17q-79 -33 -177 -212h-43l124 286h819l-20 -286h-39q-2 115 -30 167q-25 42 -69 53q-33 9 -90 9h-106l-284 -1141q-13 -52 -13 -70q0 -50 139 -63l-10 -40q-145 16 -224 16q-78 0 -233 -16z " />
<glyph unicode="U" horiz-adv-x="1303" d="M190 262q0 78 22 168l192 768q11 45 11 65q0 40 -56 56q-24 7 -85 12l10 40q146 -16 226 -16q78 0 232 16l-10 -40q-79 -6 -117 -22q-44 -19 -59 -59q-6 -14 -16 -52l-192 -772q-22 -88 -22 -144q0 -83 48 -138q74 -86 223 -86q144 0 252 84q86 68 139 224q22 65 64 234 l81 325l41 164q35 139 35 162q0 60 -69 72q-27 5 -67 8l10 40q145 -11 197 -11q55 0 191 11l-10 -40q-100 -9 -139 -46q-21 -19 -32 -43.5t-29 -86.5q-17 -61 -63 -230l-126 -509q-44 -175 -125 -273q-138 -166 -391 -166q-172 0 -270 79q-96 77 -96 206z" />
<glyph unicode="V" horiz-adv-x="1065" d="M161 1331l10 40q114 -16 220 -16t228 16l-10 -40q-71 -7 -98 -16q-55 -16 -55 -65q0 -2 1 -31l56 -1031l450 790q78 138 93 172q28 61 28 99q0 27 -16.5 43t-44.5 16q-15 0 -51 -7l-10 39q101 19 256 70q7 -31 7 -47q0 -55 -59 -161q-35 -65 -74 -130q-51 -86 -56 -95 l-597 -1040h-23l-101 1279q-4 46 -13 66q-14 31 -73 41q-22 4 -68 8z" />
<glyph unicode="W" horiz-adv-x="1516" d="M165 1331l10 40q108 -16 210 -16q104 0 219 16l-10 -40q-97 -6 -131 -29q-28 -20 -28 -78l-11 -968l585 1154h52l-3 -1154l414 811q72 140 72 192q0 22 -14.5 36t-37.5 14q-19 0 -62 -8l-10 39q141 24 256 71q6 -20 6 -35q0 -35 -23 -85q-15 -31 -90 -177l-598 -1159h-31 l6 1197l-608 -1197h-33l-10 1268q-1 61 -35 86q-30 20 -95 22z" />
<glyph unicode="X" horiz-adv-x="1148" d="M-119 -6l10 40q73 6 115 34q40 28 190 199l385 439l-139 510q-18 70 -59 92q-37 18 -113 23l10 40q122 -13 240 -13q109 0 207 13l-10 -40q-45 -4 -80 -10q-73 -14 -73 -60q0 -16 8 -46l112 -407l328 375q51 58 51 91q0 35 -44 35q-19 0 -56 -8l-7 39q141 21 248 70 q1 -15 1 -23q0 -50 -37 -109q-19 -31 -114 -138l-351 -403l161 -579q15 -55 27 -73q26 -37 69 -44q24 -3 70 -7l-10 -40q-142 14 -218 14q-65 0 -232 -14l10 40q158 14 158 77q0 20 -35 148l-102 375l-357 -409q-92 -106 -92 -139q0 -30 35 -42q22 -7 76 -10l-9 -40 q-105 10 -184 10t-189 -10z" />
<glyph unicode="Y" horiz-adv-x="986" d="M167 -6l10 40q74 6 117 23q47 19 60 57q6 14 16 53l107 431l-117 534q-4 16 -15 70q-10 55 -26 78t-52 36q-28 10 -93 15l10 40q131 -14 224 -14q92 0 229 14l-10 -40q-68 -7 -92 -12q-57 -11 -57 -56q0 -18 17 -131l87 -479l375 518q56 78 56 105q0 33 -37 33 q-18 0 -63 -8l-7 39q142 24 254 70v-21q0 -30 -20 -68q-10 -19 -114 -161l-413 -562l-107 -431q-12 -48 -12 -70q0 -51 139 -63l-10 -40q-145 16 -225 16q-78 0 -231 -16z" />
<glyph unicode="Z" horiz-adv-x="976" d="M-70 0l1018 1308h-381q-120 -1 -191 -78q-48 -54 -88 -145h-60l123 280h801l-1024 -1301h406q85 0 132.5 16.5t89.5 60.5q52 53 122 165h51l-131 -306h-868z" />
<glyph unicode="[" horiz-adv-x="608" d="M5 -398l440 1763h330l-15 -61h-203l-409 -1641h203l-15 -61h-331z" />
<glyph unicode="\" horiz-adv-x="793" d="M262 1365h90l316 -1763h-90z" />
<glyph unicode="]" horiz-adv-x="608" d="M-158 -398l15 61h203l410 1641h-204l16 61h330l-439 -1763h-331z" />
<glyph unicode="^" horiz-adv-x="1024" d="M-26 591l559 843h11l547 -843h-60l-446 680l-452 -680h-159z" />
<glyph unicode="_" horiz-adv-x="1024" d="M77 -178h912v-66h-912v66z" />
<glyph unicode="`" horiz-adv-x="1024" d="M443 1397h150l143 -307h-95z" />
<glyph unicode="a" horiz-adv-x="1007" d="M58 257q0 170 75 351q78 186 204 286q114 90 244 90q169 0 195 -184l48 169q80 3 133 21l-183 -646q-49 -172 -49 -219q0 -25 13 -41.5t33 -16.5q45 0 117 95l32 -27q-40 -65 -75 -99q-56 -54 -129 -54q-128 0 -128 142v22q-107 -164 -270 -164q-123 0 -192 77 q-68 74 -68 198zM188 233q0 -70 19 -113q36 -80 124 -80q164 0 277 225q43 86 79 215q41 150 41 256q0 68 -27 121q-35 70 -123 70q-157 0 -286 -283q-104 -226 -104 -411z" />
<glyph unicode="b" horiz-adv-x="965" d="M118 284q0 73 50 275l159 637q11 43 11 61q0 37 -53 45q-23 4 -71 4l7 29q154 15 280 47l-145 -582q53 72 101 111q86 73 196 73q113 0 183 -76q73 -78 73 -219q0 -160 -60 -319q-73 -195 -205 -299q-115 -89 -247 -89q-122 0 -200 82q-79 84 -79 220zM246 246 q0 -78 28 -132q40 -75 128 -75q186 0 296 297q40 106 62 226q19 99 19 167q0 92 -43 147q-40 51 -113 51q-87 0 -169 -89q-108 -116 -171 -358q-37 -141 -37 -234z" />
<glyph unicode="c" horiz-adv-x="798" d="M67 303q0 131 49 276q68 202 196 313q114 99 267 99q67 0 146 -28q36 -12 58 -12t57 25l-68 -311h-40q2 42 2 79q0 190 -152 190q-153 0 -267 -214q-50 -94 -82 -212q-36 -131 -36 -239q0 -90 40 -154q46 -74 146 -74q190 0 280 287h80q-28 -115 -84 -193 q-113 -158 -297 -158q-139 0 -217 88q-78 87 -78 238z" />
<glyph unicode="d" horiz-adv-x="1005" d="M64 280q0 160 66 326q73 185 195 284q115 94 240 94q100 0 156 -70q33 -41 42 -114l99 396q10 42 10 61q0 37 -52 45q-22 4 -70 4l7 29q157 15 278 47l-259 -1038q-42 -171 -42 -221q0 -23 14 -39.5t34 -16.5q45 0 115 95l33 -27q-44 -67 -73 -98q-51 -55 -124 -55 q-84 0 -116 62q-18 34 -19 102q-100 -164 -265 -164q-123 0 -194 77q-75 80 -75 221zM194 241q0 -80 31 -133q40 -68 121 -68q80 0 149 58t120 167q45 96 74.5 227.5t29.5 232.5q0 88 -38 144q-40 58 -120 58q-137 0 -246 -202q-55 -102 -92 -260q-29 -126 -29 -224z" />
<glyph unicode="e" horiz-adv-x="850" d="M67 304q0 106 35 221.5t97 212.5q156 246 397 246q99 0 166 -42q81 -52 81 -153q0 -188 -284 -272q-142 -42 -294 -42h-38q-30 -103 -30 -188q0 -93 40 -158q51 -84 165 -84q132 0 228 137q46 66 64 136h87q-37 -115 -110 -199q-119 -137 -299 -137q-152 0 -233 98 q-72 88 -72 224zM240 526q177 0 306 69q177 95 177 220q0 57 -46 88q-36 24 -87 24q-140 0 -256 -189q-56 -91 -94 -212z" />
<glyph unicode="f" horiz-adv-x="587" d="M-237 -369l10 46q145 22 234 137q54 73 84 170q12 35 45 174l177 735h-136l14 57l23 2q73 5 99 31q20 21 34 62l43 128q41 122 113 172q62 43 162 43t150 -46q35 -33 35 -79q0 -40 -23 -69q-24 -31 -63 -31q-33 0 -50 25q-10 15 -10 32q0 19 21 63q3 6 3 12q0 19 -25 34 q-19 11 -45 11q-64 0 -107 -73q-35 -61 -74 -219l-20 -83h222l-17 -72h-222l-197 -820q-32 -131 -73 -210.5t-105 -132.5q-119 -96 -302 -99z" />
<glyph unicode="g" horiz-adv-x="937" d="M-75 -134q0 127 110 199q58 39 173 59q-86 29 -86 93q0 105 238 173q-184 68 -184 255q0 143 110 247q102 98 265 98q124 0 200 -60l302 7l-19 -80l-230 8q49 -65 49 -151q0 -88 -42 -166q-53 -99 -164 -141q-71 -26 -185 -34q-234 -67 -234 -136q0 -28 29 -40 q24 -9 128 -20q203 -20 274 -53q127 -59 127 -195q0 -120 -85 -206q-122 -124 -358 -124q-199 0 -321 84q-97 66 -97 183zM9 -131q0 -98 108 -153q98 -50 240 -50q150 0 238 65q79 58 79 152q0 178 -322 178q-343 0 -343 -192zM306 621q0 -85 41 -133q46 -54 131 -54 q126 0 196 127q50 89 50 185q0 86 -44 135q-46 52 -126 52q-109 0 -184 -106q-64 -91 -64 -206z" />
<glyph unicode="h" horiz-adv-x="1042" d="M66 0l298 1196q12 47 12 61q0 37 -53 45q-24 4 -72 4l7 29q155 15 280 47l-135 -541q130 143 285 143q118 0 178 -78q41 -54 41 -126q0 -62 -21 -147l-81 -328q-35 -139 -35 -176q0 -30 15 -46q16 -16 36 -16q44 0 118 97l32 -28q-36 -60 -66 -93q-56 -61 -135 -61 q-63 0 -99 41q-31 34 -31 82t45 231l73 294q19 74 19 146q0 55 -38 89t-103 34q-110 0 -197 -89q-59 -59 -91 -189l-155 -621h-127z" />
<glyph unicode="i" horiz-adv-x="507" d="M100 103q0 47 48 233l124 479q12 46 12 60q0 38 -53 46q-21 3 -71 4l7 29q152 15 280 47l-180 -696q-37 -142 -37 -177q0 -29 15 -45q16 -16 36 -16q43 0 119 97l32 -28q-40 -67 -75 -101q-55 -53 -128 -53q-63 0 -99 41q-30 33 -30 80zM330 1235q0 55 44 90q32 25 70 25 q42 0 64 -29q15 -19 15 -50q0 -54 -43 -89q-30 -25 -67 -25q-44 0 -68 31q-15 21 -15 47z" />
<glyph unicode="j" horiz-adv-x="506" d="M-246 -369l10 46q145 23 234 138q54 72 84 169q11 33 45 175l158 656q11 47 11 60q0 38 -54 46q-21 3 -71 4l7 29q150 15 279 47l-223 -928q-32 -131 -73 -210t-105 -133q-119 -96 -302 -99zM327 1237q0 54 42 88q31 25 70 25q42 0 64 -29q16 -20 16 -51q0 -54 -41 -88 q-30 -25 -67 -25q-43 0 -68 31q-16 21 -16 49z" />
<glyph unicode="k" horiz-adv-x="994" d="M66 0l298 1196q11 43 11 63q0 35 -53 43q-24 4 -72 4l7 29q155 15 279 47l-221 -886l394 318q34 28 49 42q30 27 30 44q0 35 -95 38l8 35q99 -9 173 -9q73 0 181 8l-9 -34q-78 -8 -145 -51q-49 -34 -159 -121l-173 -136l171 -415q41 -100 64 -132q25 -35 62 -35 q35 0 113 34l-13 -51q-90 -49 -162 -49q-82 0 -127 62q-29 41 -61 116l-162 382l-157 -123l-104 -419h-127z" />
<glyph unicode="l" horiz-adv-x="507" d="M104 103q0 52 45 233l215 860q10 41 10 58q0 40 -52 48q-23 4 -71 4l7 29q153 15 279 47l-268 -1077q-35 -139 -35 -176q0 -30 15 -46t35 -16q48 0 119 97l32 -28q-34 -58 -63 -90q-57 -64 -136 -64q-65 0 -102 40q-30 33 -30 81z" />
<glyph unicode="m" horiz-adv-x="1480" d="M66 0l199 797l6 29q9 38 9 53q0 32 -47 35q-29 2 -76 3l7 29q141 20 257 62q-10 -83 -32 -178q121 154 283 154q169 0 197 -159q44 55 83 88q85 71 198 71q102 0 158 -58q46 -48 46 -116q0 -58 -24 -153l-87 -352q-35 -140 -35 -175q0 -31 15 -47q16 -16 36 -16 q29 0 58 27q22 21 60 70l32 -28q-43 -74 -81 -108q-52 -46 -120 -46q-63 0 -99 41q-31 34 -31 82q0 50 45 231l81 324q20 79 20 127q0 50 -33 82q-33 31 -86 31q-110 0 -186 -97q-48 -61 -74 -167l-159 -636h-127l163 655q20 79 20 128q0 55 -34 86q-34 30 -90 30 q-107 0 -189 -100q-53 -66 -85 -193l-151 -606h-127z" />
<glyph unicode="n" horiz-adv-x="1042" d="M66 0l199 797q15 61 15 82q0 32 -47 35q-29 2 -76 3l7 29q141 20 257 62q-7 -64 -32 -182q142 158 299 158q119 0 178 -78q41 -54 41 -128q0 -61 -21 -145l-82 -328q-34 -138 -34 -174q0 -32 15 -48q16 -16 36 -16q28 0 57 27q23 22 61 70l32 -28q-39 -67 -74 -101 q-55 -53 -127 -53q-63 0 -99 41q-31 34 -31 82q0 50 45 231l73 294q19 75 19 142q0 60 -37 94q-38 34 -104 34q-110 0 -197 -89q-59 -60 -91 -190l-155 -621h-127z" />
<glyph unicode="o" horiz-adv-x="938" d="M74 316q0 156 59 312q136 356 443 356q140 0 218 -83q81 -86 81 -248q0 -148 -51 -294q-71 -200 -195 -294q-111 -83 -252 -83q-135 0 -215 77q-88 86 -88 257zM204 285q0 -115 42 -177q46 -69 140 -69q162 0 270 238q90 200 90 395q0 255 -186 255q-142 0 -240 -186 q-53 -101 -84.5 -224t-31.5 -232z" />
<glyph unicode="p" horiz-adv-x="1005" d="M-35 -403l294 1178q15 61 15 89q0 38 -30 51q-25 11 -88 16l7 28q158 12 245 31q0 -67 -22 -185q130 179 299 179q122 0 194 -86q68 -83 68 -221q0 -156 -62 -320q-70 -186 -196 -287q-110 -88 -238 -88q-167 0 -217 185l-142 -570h-127zM279 252q0 -78 37 -138 q47 -75 138 -75q158 0 258 225q106 237 106 431q0 133 -59 191q-42 41 -106 41q-68 0 -136.5 -54.5t-119.5 -149.5q-39 -73 -75 -205q-43 -157 -43 -266z" />
<glyph unicode="q" horiz-adv-x="998" d="M65 288q0 152 62 309q75 192 207 297q114 90 245 90q183 0 212 -189q10 57 29 107t46 88q69 -19 115 -21q-34 -58 -55 -122q-19 -59 -47 -171l-271 -1079h-126l142 570q-55 -73 -100 -113q-82 -72 -190 -72q-118 0 -191 78q-78 84 -78 228zM194 255q0 -105 42 -160 q43 -56 117 -56q164 0 274 225q49 100 81.5 231.5t32.5 228.5q0 86 -42 144q-42 59 -121 59q-135 0 -259 -212q-125 -216 -125 -460z" />
<glyph unicode="r" horiz-adv-x="665" d="M66 0l192 770q17 69 17 100q0 38 -42 43q-12 2 -76 4l7 29q146 16 224 55q11 -32 11 -60q0 -44 -38 -204q54 102 101 156q87 102 191 102q48 0 80 -29q35 -32 35 -88q0 -57 -35 -88q-26 -23 -61 -23q-31 0 -46 19q-14 17 -14 39q0 37 37 55q-15 31 -48 31 q-77 0 -163 -128q-77 -115 -117 -273l-129 -510h-126z" />
<glyph unicode="s" horiz-adv-x="757" d="M6 113l37 196h47q-1 -18 -1 -27q0 -83 28 -139q24 -50 79 -80q49 -28 108 -28q98 0 167 67t69 156q0 70 -60 121q-34 28 -144 97q-117 74 -151 114q-40 48 -40 116q0 111 83 194q91 91 228 91q54 0 133 -24q39 -12 62 -12q30 0 74 29l-53 -279h-44q5 36 5 58 q0 90 -60 136q-43 34 -107 34q-94 0 -154 -61q-47 -49 -47 -109q0 -66 57 -114q33 -27 135 -89q126 -76 164 -127q42 -58 42 -132q0 -152 -127 -248q-101 -76 -234 -76q-175 0 -296 136z" />
<glyph unicode="t" horiz-adv-x="535" d="M107 137q0 49 33 201q44 202 47 216l69 339h-128l14 57q53 4 90 24q97 55 177 281h56l-67 -290h249l-18 -72h-245l-122 -592q-18 -89 -18 -137q0 -110 97 -110q52 0 135 36l-10 -52q-92 -56 -183 -56q-81 0 -129 45q-47 43 -47 110z" />
<glyph unicode="u" horiz-adv-x="1043" d="M128 188q0 62 22 149l119 478q12 48 12 59q0 39 -54 47q-21 3 -71 4l7 29q149 14 280 47l-166 -662q-19 -77 -19 -131q0 -71 43 -107q41 -34 105 -34q113 0 194 91q58 65 96 218l148 593q70 3 132 21l-161 -646q-43 -174 -43 -216q0 -30 16 -46q14 -15 31 -15 q47 0 116 95l34 -27q-44 -67 -73 -98q-52 -55 -125 -55q-131 0 -131 142v14q-42 -55 -82 -88q-84 -68 -191 -68q-102 0 -166 52q-73 58 -73 154z" />
<glyph unicode="v" horiz-adv-x="863" d="M63 938l8 35q134 -11 201 -11q75 0 186 11l-9 -35q-76 -4 -100 -18q-24 -15 -24 -68v-5l51 -707l342 589q68 117 68 165q0 38 -45 42q-14 2 -50 2l-3 35q66 4 108 16q45 15 95 48q18 -36 18 -62q0 -50 -53 -143q-7 -12 -85 -141l-447 -735h-47l-83 889q-4 40 -13.5 57 t-31.5 25q-25 9 -86 11z" />
<glyph unicode="w" horiz-adv-x="1292" d="M82 939l8 34q106 -9 185 -9q80 0 191 9l-9 -34q-17 -2 -22 -2q-72 -5 -89 -30q-13 -19 -15 -106l-11 -642l439 850h70l21 -850l307 595q48 92 48 127q0 46 -52 53q-16 3 -54 5v34q65 3 104 16q40 14 89 49q24 -42 24 -76q0 -46 -38 -125q-9 -19 -57 -109l-410 -772h-62 l-27 842l-444 -842h-60l-20 838q-2 98 -21 121q-21 22 -95 24z" />
<glyph unicode="x" horiz-adv-x="920" d="M-116 -6l9 35q59 4 98 22q50 25 105 85l317 344l-127 377q-16 48 -58 66q-31 13 -85 15l9 35q116 -11 191 -11q74 0 195 11l-8 -35q-101 -7 -101 -54q0 -13 20 -81l67 -213l229 249q36 39 36 63q0 38 -83 38h-8l-3 33q118 16 166 64q39 -37 39 -70q0 -48 -98 -154 l-258 -278l87 -266l12 -36q33 -96 48 -122q26 -44 70 -44q42 0 71 39q10 15 26 48l31 -13q-53 -159 -180 -159q-102 0 -149 100q-21 44 -42 107l-76 235l-239 -267q-53 -59 -53 -90q0 -34 88 -38l-9 -35q-114 10 -166 10q-49 0 -171 -10z" />
<glyph unicode="y" horiz-adv-x="825" d="M-135 -268q60 -20 102 -20q125 0 280 254l40 65l-97 828q-6 44 -20 57q-23 19 -107 22l8 35q105 -9 186 -9t190 9l-9 -35q-56 -3 -82 -12q-35 -11 -35 -56q0 -18 1 -27l52 -668l343 600q43 75 43 119q0 45 -67 45q-10 0 -26 -1l-4 35q66 2 112 18q39 14 92 46 q16 -37 16 -63q0 -44 -44 -120l-60 -100l-473 -807q-99 -167 -145 -219q-98 -117 -235 -128q-17 -2 -61 -2v134z" />
<glyph unicode="z" horiz-adv-x="802" d="M-81 0l824 870q-108 -37 -211 -37q-45 0 -152 24q-19 4 -35 4q-61 0 -112 -62q-25 -30 -63 -92h-35q47 122 90 174q73 91 175 91q59 0 163 -31q118 -35 150 -35q61 0 129 48h68l-817 -857q102 37 206 37q45 0 107 -9q69 -10 92 -10q44 0 76 19t68 66q17 22 58 89h36 q-52 -136 -91 -188q-40 -54 -83 -80q-52 -32 -128 -32q-51 0 -122 17q-17 5 -120 33q-51 14 -84 14q-56 0 -125 -53h-64z" />
<glyph unicode="{" horiz-adv-x="608" d="M57 -310q0 38 19 116l131 524q14 56 14 81q0 71 -97 95q55 12 96 39q50 35 70 117l131 526q23 90 38 117q50 96 238 94h24q-79 -26 -117 -69q-33 -38 -52 -121l-128 -512q-25 -96 -69 -136q-36 -32 -98 -55q36 -20 52 -35q32 -29 32 -72q0 -34 -12 -84l-136 -544 q-15 -60 -15 -89q0 -79 110 -114h-47q-184 0 -184 122z" />
<glyph unicode="|" horiz-adv-x="1024" d="M493 -341v1706h79v-1706h-79z" />
<glyph unicode="}" horiz-adv-x="608" d="M-103 -432q79 25 117 68q33 39 53 122l128 512q24 95 68 135q36 33 98 56q-35 20 -52 35q-31 29 -31 71q0 38 12 85l135 544q15 60 15 89q0 78 -110 114h48q183 0 183 -122q0 -39 -19 -116l-131 -525q-13 -53 -13 -81q0 -71 96 -94q-55 -12 -96 -40q-49 -34 -70 -116 l-131 -526q-22 -89 -37 -118q-51 -95 -239 -93h-24z" />
<glyph unicode="~" horiz-adv-x="1365" d="M264 1278q126 188 288 188q57 0 190 -45q110 -37 163 -37q121 0 215 118l23 -15q-39 -66 -107 -118q-88 -68 -173 -68q-45 0 -136 30q-172 58 -245 58q-75 0 -130 -55q-23 -22 -64 -72z" />
<glyph unicode="&#xa1;" horiz-adv-x="512" d="M-1 -364l258 939h95l-199 -939h-154zM253 866q0 57 43 92q33 26 75 26q35 0 60 -22q30 -26 30 -69q0 -54 -45 -91q-33 -28 -72 -28q-34 0 -59 20q-32 26 -32 72z" />
<glyph unicode="&#xa2;" horiz-adv-x="1032" d="M199 493q0 172 77 349q141 322 415 340l38 151h62l-38 -153q48 -6 105 -25q36 -12 58 -12t56 24l-67 -311h-40q2 49 2 74q0 103 -41 150q-31 34 -87 44l-222 -892q102 2 178 88q62 72 100 199h80q-41 -180 -164 -277q-92 -71 -210 -74l-35 -138h-62l35 142 q-77 14 -129 54q-111 83 -111 267zM329 460q0 -174 127 -220l221 884q-112 -33 -183 -136q-72 -105 -117 -249q-48 -153 -48 -279z" />
<glyph unicode="&#xa3;" d="M15 0q82 72 172 294l138 378h-142l14 59h151l71 191q81 219 176 327q124 140 285 140q198 0 198 -199v-28h-89q2 22 2 35q0 128 -114 128q-115 0 -205 -135q-49 -74 -100 -211l-93 -248h240l-14 -59h-248l-106 -283q-77 -202 -218 -340q111 63 207 63q39 0 119 -21 q62 -16 109 -16q139 0 214 195h85q-54 -132 -132 -202q-63 -56 -149 -64q-31 -4 -105 -4h-466z" />
<glyph unicode="&#xa4;" horiz-adv-x="1365" d="M198 1204l62 62l188 -188q141 111 299 111q160 0 296 -110l189 186l62 -62l-188 -186q108 -139 108 -295t-107 -293l189 -188l-62 -62l-189 188q-136 -108 -295 -108q-151 0 -298 108l-187 -188l-61 62l184 188q-108 136 -108 295q0 153 108 292zM380 724 q0 -153 108 -261q107 -108 259 -108t260 109q107 107 107 258q0 157 -107 262q-110 109 -264 109q-148 0 -256 -109q-107 -108 -107 -260z" />
<glyph unicode="&#xa5;" d="M193 598l18 74h321l-34 154h-248l18 74h214l-52 233q-2 7 -14 69q-10 55 -26 78t-52 36q-28 10 -93 15l10 40q130 -14 223 -14q92 0 230 14l-10 -40q-68 -7 -92 -12q-57 -11 -57 -57q0 -17 17 -129l86 -480l376 519q56 77 56 105q0 32 -37 32q-19 0 -63 -8l-8 39 q142 23 255 70v-12v-5q0 -34 -20 -72q-12 -22 -114 -160l-191 -261h190l-19 -74h-225l-113 -154h300l-18 -74h-336l-108 -431q-12 -56 -12 -62q0 -48 73 -62q27 -6 65 -9l-9 -40q-145 16 -225 16q-78 0 -231 -16l10 40q75 6 117 23q47 19 61 57q5 14 15 53l107 431h-355z " />
<glyph unicode="&#xa6;" horiz-adv-x="1024" d="M493 314h79v-655h-79v655zM493 693v672h79v-672h-79z" />
<glyph unicode="&#xa7;" horiz-adv-x="1024" d="M23 -62q0 22 4 55h79q-1 -25 -1 -42q0 -116 87 -168q58 -34 152 -34q92 0 152 32q104 57 104 179q0 117 -103 196l-222 170q-105 81 -105 191q0 129 121 205q59 38 195 74q-67 56 -104 103q-49 64 -49 142q0 153 137 247q98 66 232 66q140 0 221 -75q69 -65 69 -170 q0 -26 -4 -65h-74q1 26 1 38q0 94 -56 143q-55 48 -157 48q-89 0 -152 -39q-96 -60 -96 -169q0 -83 117 -174l192 -149q126 -97 126 -215q0 -199 -291 -292q127 -114 127 -236q0 -132 -90 -224q-105 -106 -286 -106q-242 0 -306 159q-20 49 -20 110zM281 553q0 -74 85 -139 l183 -139q226 71 226 220q0 79 -94 152l-138 105q-144 -33 -209 -86q-53 -44 -53 -113z" />
<glyph unicode="&#xa8;" horiz-adv-x="1024" d="M445 1238q0 52 42 86q33 26 69 26q31 0 55 -19q30 -24 30 -68q0 -52 -41 -86q-30 -25 -69 -25q-35 0 -58 21q-28 25 -28 65zM773 1238q0 52 43 86q32 26 69 26q31 0 55 -19q30 -24 30 -68q0 -52 -41 -86q-30 -25 -69 -25q-35 0 -59 21q-28 25 -28 65z" />
<glyph unicode="&#xa9;" horiz-adv-x="1640" d="M169 681q0 200 104 371q101 167 281 259q150 77 329 77q190 0 360 -104t260 -281q77 -151 77 -320q0 -141 -53.5 -270.5t-153.5 -228.5q-99 -100 -228.5 -153.5t-270.5 -53.5q-140 0 -269.5 53.5t-228.5 153.5q-99 99 -153 228.5t-54 268.5zM237 683q0 -265 187 -452 q90 -90 207 -138.5t244 -48.5t244 48.5t207 138.5t138.5 207t48.5 243q0 129 -49 248t-138 205q-192 187 -459 187q-121 0 -237.5 -49t-205.5 -138q-90 -89 -138.5 -206.5t-48.5 -244.5zM547 685q0 192 99 313q87 108 238 108q114 0 189 -63l43 60h32v-236h-37 q-20 74 -52 117q-56 75 -164 75q-124 0 -183 -103q-60 -105 -60 -273q0 -156 53 -257q60 -113 185 -113q58 0 105 28.5t71 77.5q26 52 30 133h61q-5 -97 -38 -160q-32 -63 -94.5 -98t-141.5 -35q-74 0 -139.5 31.5t-106.5 86.5q-90 121 -90 308z" />
<glyph unicode="&#xaa;" horiz-adv-x="687" d="M115 600l17 70h537l-17 -70h-537zM212 949q0 100 45 205q48 112 127 173q72 55 154 55q94 0 124 -86l22 77q57 2 97 15l-112 -391q-28 -98 -28 -126q0 -30 23 -30q24 0 71 59l29 -23q-63 -100 -136 -100q-82 0 -86 84q-65 -84 -162 -84q-78 0 -123 47q-45 46 -45 125z M307 933q0 -108 85 -108q97 0 162 128q28 55 49 136t21 137q0 109 -89 109q-75 0 -145 -118q-37 -64 -60 -142t-23 -142z" />
<glyph unicode="&#xab;" horiz-adv-x="759" d="M127 489l333 478h64l-288 -478l47 -489h-51zM367 489l329 478h68l-293 -478l51 -489h-54z" />
<glyph unicode="&#xac;" horiz-adv-x="1024" d="M97 481v65h870v-546h-147v481h-723z" />
<glyph unicode="&#xad;" horiz-adv-x="382" d="M13 515l18 73h382l-18 -73h-382z" />
<glyph unicode="&#xae;" horiz-adv-x="1640" d="M169 681q0 200 104 371q101 167 281 259q150 77 329 77q190 0 360 -104t260 -281q77 -151 77 -320q0 -141 -53.5 -270.5t-153.5 -228.5q-99 -100 -228.5 -153.5t-270.5 -53.5q-140 0 -269.5 53.5t-228.5 153.5q-99 99 -153 228.5t-54 268.5zM237 683q0 -265 187 -452 q90 -90 207 -138.5t244 -48.5t244 48.5t207 138.5t138.5 207t48.5 243q0 129 -49 248t-138 205q-192 187 -459 187q-121 0 -237.5 -49t-205.5 -138q-90 -89 -138.5 -206.5t-48.5 -244.5zM545 269v38q55 3 77 12q23 10 26 31q1 7 1 29v604q0 48 -27 60q-21 9 -77 13v36h334 q109 0 171 -39q44 -29 70.5 -76.5t26.5 -99.5q0 -79 -56 -139q-30 -33 -80 -50q-14 -6 -51 -17q34 -20 49 -40q16 -22 42 -79l84 -184q20 -44 41 -53q17 -7 62 -8v-38q-49 4 -81 4t-80 -3l-137 302q-20 43 -36 61q-28 30 -109 31h-48v-285q0 -34 6 -44q17 -24 98 -28v-38 q-105 10 -153 10t-153 -10zM747 711h114q187 0 187 171q0 163 -181 163h-120v-334z" />
<glyph unicode="&#xaf;" horiz-adv-x="1024" d="M396 1207l24 95h594l-23 -95h-595z" />
<glyph unicode="&#xb0;" horiz-adv-x="1024" d="M388 1110q0 117 83 196q86 82 205 82q114 0 198 -81t84 -197q0 -115 -83 -196q-84 -82 -202 -82t-202 82q-83 82 -83 196zM474 1110q0 -81 58 -138q59 -58 141 -58q83 0 141 58q58 57 58 138q0 83 -58 138q-60 58 -144 58q-79 0 -138 -58q-58 -57 -58 -138z" />
<glyph unicode="&#xb1;" d="M89 73v102h826v-102h-826zM89 640v102h357v355h111v-355h358v-102h-358v-354h-111v354h-357z" />
<glyph unicode="&#xb2;" horiz-adv-x="674" d="M107 529l15 59q231 215 355 347q106 113 131 158q25 46 25 88q0 44 -31 68q-29 22 -74 22q-125 0 -204 -180h-55q30 113 79 167q76 83 200 83q82 0 132 -38q59 -44 59 -116q0 -69 -49 -138q-45 -62 -194 -202q-67 -64 -124 -117q-92 -88 -128 -119h356l-30 -82h-463z" />
<glyph unicode="&#xb3;" horiz-adv-x="674" d="M128 726q0 18 3 42h65q-1 -18 -1 -30q0 -157 153 -157q98 0 150 79q39 61 39 127t-39 103q-40 39 -136 43l13 56q77 1 119 21q62 29 91 90q17 34 17 70q0 54 -40 85q-30 23 -75 23q-73 0 -120 -57q-24 -29 -47 -84h-57q29 98 76 142q67 62 170 62q81 0 132 -36 q62 -45 62 -126q0 -103 -86 -170q-42 -33 -96 -47q122 -54 122 -174q0 -114 -87 -193q-85 -76 -208 -76q-109 0 -168 60q-52 52 -52 147z" />
<glyph unicode="&#xb4;" horiz-adv-x="1024" d="M565 1090l297 307h169l-352 -307h-114z" />
<glyph unicode="&#xb5;" horiz-adv-x="885" d="M18 -300q0 40 13 123q12 69 41 371q14 176 14 401v342h104v-586q0 -136 22 -185q49 -111 178 -111q104 0 190 71q39 32 91 109v702h104v-708q0 -84 14 -114q16 -38 65 -38q27 0 64 27v-30l-136 -93q-3 -2 -7 -2q-18 0 -40.5 15.5t-32.5 35.5q-18 35 -26 130 q-98 -94 -146 -127q-94 -63 -192 -63q-171 0 -223 185v-80q0 -83 17 -266q5 -60 5 -96q0 -42 -17 -69.5t-42 -27.5q-30 0 -49 38q-11 22 -11 46z" />
<glyph unicode="&#xb6;" horiz-adv-x="1057" d="M241 958q0 140 86 246q93 116 242 144q88 17 218 17h425l-10 -40q-84 -7 -123 -22q-46 -18 -62 -59q-6 -14 -16 -52l-370 -1486h-86l365 1465q17 74 17 93q0 44 -74 44t-101 -33q-22 -26 -42 -103l-365 -1466h-86l245 984q-263 27 -263 268z" />
<glyph unicode="&#xb7;" horiz-adv-x="512" d="M159 477q0 56 45 92q35 28 74 28q33 0 58 -20q32 -26 32 -73q0 -56 -43 -92q-32 -26 -74 -26q-37 0 -62 22q-30 27 -30 69z" />
<glyph unicode="&#xb8;" horiz-adv-x="1024" d="M214 -382l14 58q62 -18 98 -18q63 0 99 30q35 28 35 72q0 73 -136 80l123 160h86l-94 -126q142 -19 142 -122q0 -69 -63 -118q-61 -48 -164 -48q-72 0 -140 32z" />
<glyph unicode="&#xb9;" horiz-adv-x="674" d="M192 525l11 43q55 3 90 17q28 11 39 35q9 18 16 47l130 526h-130l10 40q77 5 135 41q54 37 82 96h46l-170 -679q-11 -45 -11 -64q0 -34 37 -48q18 -7 63 -11l-11 -43q-102 9 -162 9q-55 0 -175 -9z" />
<glyph unicode="&#xba;" horiz-adv-x="674" d="M102 600l18 70h537l-18 -70h-537zM231 992q0 77 27 155.5t72 134.5q88 106 218 106q190 0 190 -201q0 -172 -83 -285q-88 -119 -220 -119q-89 0 -144 49q-60 54 -60 160zM326 978q0 -74 34 -112q30 -35 81 -35q91 0 147 125q55 123 55 243q0 141 -106 141 q-79 0 -141 -106q-70 -121 -70 -256z" />
<glyph unicode="&#xbb;" horiz-adv-x="759" d="M5 0l292 478l-51 489h55l101 -489l-329 -478h-68zM245 0l288 478l-47 489h51l105 -489l-333 -478h-64z" />
<glyph unicode="&#xbc;" horiz-adv-x="1463" d="M180 0l1120 1337h84l-1121 -1337h-83zM192 525l11 43q55 3 90 17q27 10 39 35q8 16 16 47l130 526h-130l10 40q76 5 135 41q54 37 82 96h45l-169 -679q-11 -43 -11 -64q0 -34 37 -48q17 -7 62 -11l-10 -43q-103 9 -162 9q-56 0 -175 -9zM778 238l9 37l467 544h111 l-126 -506h119l-19 -75h-119l-59 -238h-98l59 238h-344zM886 313h255l108 426z" />
<glyph unicode="&#xbd;" horiz-adv-x="1463" d="M180 0l1120 1337h84l-1121 -1337h-83zM192 525l11 43q55 3 90 17q27 10 39 35q8 16 16 47l130 526h-130l10 40q76 5 135 41q54 37 82 96h45l-169 -679q-11 -43 -11 -64q0 -34 37 -48q17 -7 62 -11l-10 -43q-103 9 -162 9q-56 0 -175 -9zM764 0l15 59q229 213 355 348 q105 112 130 158q26 45 26 86q0 46 -31 70q-29 22 -74 22q-125 0 -203 -180h-56q63 250 280 250q81 0 131 -38q59 -44 59 -116q0 -69 -49 -138q-46 -63 -194 -202q-64 -60 -124 -118q-93 -89 -128 -119h356l-30 -82h-463z" />
<glyph unicode="&#xbe;" horiz-adv-x="1463" d="M128 726q0 18 3 42h65q-1 -18 -1 -30q0 -157 153 -157q98 0 150 79q39 61 39 127t-39 103q-40 39 -136 43l13 56q77 1 119 21q62 29 91 90q17 34 17 70q0 54 -40 85q-30 23 -75 23q-73 0 -120 -57q-24 -29 -47 -84h-57q29 98 76 142q67 62 170 62q81 0 132 -36 q62 -45 62 -126q0 -103 -86 -170q-42 -33 -96 -47q122 -54 122 -174q0 -114 -87 -193q-85 -76 -208 -76q-109 0 -168 60q-52 52 -52 147zM180 0l1121 1337h83l-1121 -1337h-83zM778 238l9 37l467 544h111l-126 -506h119l-19 -75h-119l-59 -238h-98l59 238h-344zM886 313h255 l108 426z" />
<glyph unicode="&#xbf;" horiz-adv-x="921" d="M1 -133q0 99 67 178q41 49 173 136q147 97 209 179q62 80 76 227h86q-10 -115 -42 -192q-37 -87 -123 -167q-33 -31 -117 -95q-104 -79 -142 -132q-44 -63 -44 -125q0 -63 37 -110q43 -54 122 -54q179 0 275 246h63q-30 -153 -114 -241q-101 -105 -255 -105 q-102 0 -175 54q-96 71 -96 201zM483 853q0 58 44 93q33 26 74 26q36 0 61 -22q30 -26 30 -70q0 -54 -45 -91q-34 -28 -73 -28q-34 0 -59 20q-32 26 -32 72z" />
<glyph unicode="&#xc0;" horiz-adv-x="1206" d="M-97 -6l10 40q75 7 113 29q57 38 112 134l711 1235h11l111 -1245q6 -61 16 -87q18 -49 83 -59q17 -2 62 -7l-10 -40q-123 16 -221 16q-97 0 -228 -16l10 40q78 8 109 21q41 17 41 69q0 11 -3 59l-14 223h-484l-136 -238q-31 -68 -31 -84q0 -44 117 -50l-10 -40 q-101 11 -182 11q-80 0 -187 -11zM364 463h449l-47 707zM612 1819h158l150 -323h-101z" />
<glyph unicode="&#xc1;" horiz-adv-x="1205" d="M-97 -6l10 40q75 7 113 29q57 38 112 134l711 1235h11l111 -1245q6 -61 16 -87q18 -49 83 -59q17 -2 62 -7l-10 -40q-123 16 -221 16q-97 0 -228 -16l10 40q78 8 109 21q41 17 41 69q0 11 -3 59l-14 223h-484l-136 -238q-31 -68 -31 -84q0 -44 117 -50l-10 -40 q-101 11 -182 11q-80 0 -187 -11zM364 463h449l-47 707zM758 1496l312 323h177l-369 -323h-120z" />
<glyph unicode="&#xc2;" horiz-adv-x="1206" d="M-97 -6l10 40q75 7 113 29q57 38 112 134l711 1235h11l111 -1245q6 -61 16 -87q18 -49 83 -59q17 -2 62 -7l-10 -40q-123 16 -221 16q-97 0 -228 -16l10 40q78 8 109 21q41 17 41 69q0 11 -3 59l-14 223h-484l-136 -238q-31 -68 -31 -84q0 -44 117 -50l-10 -40 q-101 11 -182 11q-80 0 -187 -11zM364 463h449l-47 707zM521 1505l328 299h123l176 -299h-99l-161 197l-256 -197h-111z" />
<glyph unicode="&#xc3;" horiz-adv-x="1205" d="M-97 -6l10 40q75 7 113 29q57 38 112 134l711 1235h11l111 -1245q6 -61 16 -87q18 -49 83 -59q17 -2 62 -7l-10 -40q-123 16 -221 16q-97 0 -228 -16l10 40q78 8 109 21q41 17 41 69q0 11 -3 59l-14 223h-484l-136 -238q-31 -68 -31 -84q0 -44 117 -50l-10 -40 q-101 11 -182 11q-80 0 -187 -11zM364 463h449l-47 707zM504 1556q90 204 234 204q63 0 138 -62q47 -39 64 -50q32 -21 61 -21q91 0 140 138l72 -37q-34 -93 -85 -144q-68 -67 -150 -67q-47 0 -86 23q-27 16 -81 63q-55 48 -95 48q-83 0 -138 -130z" />
<glyph unicode="&#xc4;" horiz-adv-x="1206" d="M-97 -6l10 40q75 7 113 29q57 38 112 134l711 1235h11l111 -1245q6 -61 16 -87q18 -49 83 -59q17 -2 62 -7l-10 -40q-123 16 -221 16q-97 0 -228 -16l10 40q78 8 109 21q41 17 41 69q0 11 -3 59l-14 223h-484l-136 -238q-31 -68 -31 -84q0 -44 117 -50l-10 -40 q-101 11 -182 11q-80 0 -187 -11zM364 463h449l-47 707zM583 1626q0 57 47 95q35 29 76 29q34 0 60 -21q33 -27 33 -74q0 -59 -45 -96q-33 -27 -76 -27q-38 0 -64 23q-31 27 -31 71zM944 1626q0 57 47 95q35 29 76 29q34 0 60 -21q33 -26 33 -75q0 -58 -45 -95 q-33 -27 -76 -27q-38 0 -64 23q-31 27 -31 71z" />
<glyph unicode="&#xc5;" horiz-adv-x="1206" d="M-97 -6l10 40q75 7 113 29q57 38 112 134l711 1235h11l111 -1245q6 -61 16 -87q18 -49 83 -59q17 -2 62 -7l-10 -40q-123 16 -221 16q-97 0 -228 -16l10 40q78 8 109 21q41 17 41 69q0 11 -3 59l-14 223h-484l-136 -238q-31 -68 -31 -84q0 -44 117 -50l-10 -40 q-101 11 -182 11q-80 0 -187 -11zM364 463h449l-47 707zM705 1668q0 70 49 118q50 49 120 49q67 0 116 -49t49 -118t-49 -118t-118 -49t-118 49t-49 118zM770 1668q0 -42 30 -72t72 -30t72 30t30 72q0 43 -30 72q-30 30 -73 30q-41 0 -71 -30t-30 -72z" />
<glyph unicode="&#xc6;" horiz-adv-x="1737" d="M-111 -6l10 40q144 24 248 145l954 1186h722l-44 -286h-39q-2 134 -32 179q-25 37 -86 44q-41 6 -61 6h-289l-140 -563h463l-17 -64h-462l-124 -498q-11 -43 -11 -65q0 -61 117 -61h183q87 0 129 17q89 31 187 237h38l-116 -311h-871l10 40q81 7 119 22q44 18 60 59 q7 17 16 52l78 315h-456l-246 -308q-49 -62 -49 -94t36 -42q25 -8 79 -10l-10 -40q-145 11 -196 11q-48 0 -200 -11zM519 545h426l190 763h-10z" />
<glyph unicode="&#xc7;" horiz-adv-x="1099" d="M124 411q0 212 74 423q105 299 291 443q151 117 346 117q82 0 151 -23q19 -6 106 -48q32 -16 58 -16q21 0 55 17l-71 -338h-48q8 48 8 85q0 115 -57 185q-67 84 -199 84q-163 0 -284 -125q-134 -138 -213 -387q-75 -237 -75 -445q0 -148 66 -240q73 -102 213 -102 q194 0 324 196q63 94 97 224h75q-62 -235 -212 -373q-111 -99 -263 -114l-79 -106q150 -20 150 -129q0 -72 -67 -124q-63 -50 -171 -50q-77 0 -148 33l16 62q66 -20 101 -20q69 0 105 31q37 31 37 77q0 77 -143 84l108 141q-351 39 -351 438z" />
<glyph unicode="&#xc8;" d="M-46 0l10 40q82 7 120 22q44 18 60 59q6 13 16 52l254 1019q11 46 11 65q0 40 -56 56q-21 6 -85 12l10 40h834l-44 -286h-39q-2 71 -9 111q-18 96 -98 110q-37 8 -113 8h-245l-141 -563h460l-16 -64h-460l-117 -470q-15 -60 -15 -87q0 -67 140 -67h155q83 0 129 18 q87 26 187 236h38l-115 -311h-871zM574 1819h158l150 -323h-101z" />
<glyph unicode="&#xc9;" d="M-46 0l10 40q82 7 120 22q44 18 60 59q6 13 16 52l254 1019q11 46 11 65q0 40 -56 56q-21 6 -85 12l10 40h834l-44 -286h-39q-2 71 -9 111q-18 96 -98 110q-37 8 -113 8h-245l-141 -563h460l-16 -64h-460l-117 -470q-15 -60 -15 -87q0 -67 140 -67h155q83 0 129 18 q87 26 187 236h38l-115 -311h-871zM638 1496l312 323h177l-369 -323h-120z" />
<glyph unicode="&#xca;" d="M-46 0l10 40q82 7 120 22q44 18 60 59q6 13 16 52l254 1019q11 46 11 65q0 40 -56 56q-21 6 -85 12l10 40h834l-44 -286h-39q-2 71 -9 111q-18 96 -98 110q-37 8 -113 8h-245l-141 -563h460l-16 -64h-460l-117 -470q-15 -60 -15 -87q0 -67 140 -67h155q83 0 129 18 q87 26 187 236h38l-115 -311h-871zM449 1505l329 299h123l176 -299h-100l-161 197l-255 -197h-112z" />
<glyph unicode="&#xcb;" d="M-46 0l10 40q82 7 120 22q44 18 60 59q6 13 16 52l254 1019q11 46 11 65q0 40 -56 56q-21 6 -85 12l10 40h834l-44 -286h-39q-2 71 -9 111q-18 96 -98 110q-37 8 -113 8h-245l-141 -563h460l-16 -64h-460l-117 -470q-15 -60 -15 -87q0 -67 140 -67h155q83 0 129 18 q87 26 187 236h38l-115 -311h-871zM501 1626q0 58 47 95q35 29 76 29q34 0 60 -21q33 -26 33 -74q0 -59 -45 -96q-33 -27 -76 -27q-39 0 -64 23q-31 26 -31 71zM862 1626q0 57 47 95q35 29 76 29q34 0 60 -21q33 -26 33 -74q0 -59 -45 -96q-33 -27 -76 -27q-38 0 -64 23 q-31 27 -31 71z" />
<glyph unicode="&#xcc;" horiz-adv-x="601" d="M-48 -6l10 40q82 7 120 22q45 19 60 59q6 14 16 52l257 1031q12 48 12 64q0 41 -57 57q-24 7 -85 12l10 40q147 -16 226 -16q78 0 232 16l-10 -40q-79 -6 -117 -22q-44 -19 -59 -59q-7 -16 -16 -52l-257 -1031q-11 -45 -11 -67q0 -37 54 -54q21 -6 83 -12l-11 -40 q-146 16 -225 16q-78 0 -232 -16zM320 1819h158l151 -323h-101z" />
<glyph unicode="&#xcd;" horiz-adv-x="601" d="M-48 -6l10 40q82 7 120 22q45 19 60 59q6 14 16 52l257 1031q12 48 12 64q0 41 -57 57q-24 7 -85 12l10 40q147 -16 226 -16t232 16l-10 -40q-79 -6 -117 -22q-44 -19 -59 -59q-7 -18 -16 -52l-257 -1031q-11 -45 -11 -67q0 -37 54 -54q21 -6 83 -12l-11 -40 q-145 16 -225 16q-78 0 -232 -16zM466 1496l312 323h177l-369 -323h-120z" />
<glyph unicode="&#xce;" horiz-adv-x="601" d="M-48 -6l10 40q82 7 120 22q45 19 60 59q6 14 16 52l257 1031q12 48 12 64q0 41 -57 57q-24 7 -85 12l10 40q147 -16 226 -16t232 16l-10 -40q-79 -6 -117 -22q-44 -19 -59 -59q-7 -18 -16 -52l-257 -1031q-11 -45 -11 -67q0 -37 54 -54q21 -6 83 -12l-11 -40 q-145 16 -225 16q-78 0 -232 -16zM260 1505l302 299h122l149 -299h-99l-134 197l-228 -197h-112z" />
<glyph unicode="&#xcf;" horiz-adv-x="601" d="M-48 -6l10 40q82 7 120 22q45 19 60 59q6 14 16 52l257 1031q12 48 12 64q0 41 -57 57q-24 7 -85 12l10 40q147 -16 226 -16t232 16l-10 -40q-79 -6 -117 -22q-44 -19 -59 -59q-7 -16 -16 -52l-257 -1031q-11 -45 -11 -67q0 -37 54 -54q21 -6 83 -12l-11 -40 q-145 16 -225 16q-78 0 -232 -16zM315 1627q0 57 46 94q35 28 74 28q34 0 59 -20q33 -26 33 -74q0 -57 -44 -93q-32 -27 -75 -27q-38 0 -63 22q-30 27 -30 70zM614 1627q0 56 46 94q34 28 74 28q34 0 60 -20q32 -26 32 -74q0 -57 -44 -93q-32 -27 -75 -27q-38 0 -63 22 q-30 27 -30 70z" />
<glyph unicode="&#xd0;" horiz-adv-x="1330" d="M-46 0l10 40q82 6 120 21q44 19 60 59q6 15 16 53l126 507h-164l18 74h164l110 438q10 41 10 60q0 45 -55 61q-21 6 -85 12l10 40h472q158 0 239 -20q302 -74 302 -435q0 -227 -92 -429q-135 -297 -392 -416q-142 -65 -362 -65h-507zM284 110q0 -33 38 -46q23 -7 87 -7 q157 0 248 24q112 29 206.5 111t158.5 205q67 128 105 275.5t38 279.5q0 113 -41 198q-46 96 -149 132q-77 26 -199 26h-197l-138 -554h344l-18 -74h-344l-122 -488q-17 -71 -17 -82z" />
<glyph unicode="&#xd1;" horiz-adv-x="1322" d="M-51 -6l10 40q117 11 156 62q19 25 49 124q29 107 59 220l209 837q-20 33 -61 43q-32 7 -91 11l10 40q80 -7 151 -7q66 0 134 7l409 -1135l223 935q11 45 11 78q0 39 -31 57q-28 18 -100 25l10 40q143 -11 196 -11q55 0 190 11l-10 -40q-73 -9 -114 -35q-62 -38 -99 -180 l-290 -1160h-23l-460 1312l-199 -828l-28 -116q-40 -187 -40 -208q0 -48 50 -67q24 -9 77 -15l-10 -40q-147 11 -197 11q-53 0 -191 -11zM583 1556q89 204 233 204q64 0 138 -62q46 -38 64 -50q33 -21 61 -21q92 0 140 138l72 -37q-33 -92 -85 -144q-68 -67 -150 -67 q-46 0 -86 23q-27 16 -80 63q-55 48 -95 48q-82 0 -138 -130z" />
<glyph unicode="&#xd2;" horiz-adv-x="1239" d="M142 474q0 248 92 473q180 442 555 442q196 0 312 -132q107 -123 107 -365q0 -196 -58 -382q-90 -285 -262 -422q-141 -111 -321 -111q-206 0 -318 133q-107 127 -107 364zM285 446q0 -213 97 -329q72 -85 187 -85q133 0 240 122q118 134 197 391q60 197 60 370 q0 186 -76 302q-77 117 -213 117q-188 0 -332 -265q-76 -142 -121 -320q-39 -158 -39 -303zM627 1819h158l151 -323h-101z" />
<glyph unicode="&#xd3;" horiz-adv-x="1240" d="M142 474q0 248 92 473q180 442 555 442q196 0 312 -132q107 -123 107 -365q0 -196 -58 -382q-90 -285 -262 -422q-141 -111 -321 -111q-206 0 -318 133q-107 127 -107 364zM285 446q0 -213 97 -329q72 -85 187 -85q133 0 240 122q118 134 197 391q60 197 60 370 q0 186 -76 302q-77 117 -213 117q-188 0 -332 -265q-76 -142 -121 -320q-39 -158 -39 -303zM732 1496l312 323h177l-369 -323h-120z" />
<glyph unicode="&#xd4;" horiz-adv-x="1239" d="M142 474q0 248 92 473q180 442 555 442q196 0 312 -132q107 -123 107 -365q0 -196 -58 -382q-90 -285 -262 -422q-141 -111 -321 -111q-206 0 -318 133q-107 127 -107 364zM285 446q0 -213 97 -329q72 -85 187 -85q133 0 240 122q118 134 197 391q60 197 60 370 q0 186 -76 302q-77 117 -213 117q-188 0 -332 -265q-76 -142 -121 -320q-39 -158 -39 -303zM533 1505l329 299h122l177 -299h-100l-161 197l-255 -197h-112z" />
<glyph unicode="&#xd5;" horiz-adv-x="1239" d="M142 474q0 248 92 473q180 442 555 442q196 0 312 -132q107 -123 107 -365q0 -196 -58 -382q-90 -285 -262 -422q-141 -111 -321 -111q-206 0 -318 133q-107 127 -107 364zM285 446q0 -213 97 -329q72 -85 187 -85q133 0 240 122q118 134 197 391q60 197 60 370 q0 186 -76 302q-77 117 -213 117q-188 0 -332 -265q-76 -142 -121 -320q-39 -158 -39 -303zM541 1556q90 204 234 204q63 0 138 -62q46 -38 64 -50q32 -21 61 -21q91 0 139 138l73 -37q-35 -93 -86 -144q-67 -67 -149 -67q-47 0 -86 23q-27 16 -81 63q-55 48 -95 48 q-83 0 -138 -130z" />
<glyph unicode="&#xd6;" horiz-adv-x="1239" d="M142 474q0 248 92 473q180 442 555 442q196 0 312 -132q107 -123 107 -365q0 -196 -58 -382q-90 -285 -262 -422q-141 -111 -321 -111q-206 0 -318 133q-107 127 -107 364zM285 446q0 -213 97 -329q72 -85 187 -85q133 0 240 122q118 134 197 391q60 197 60 370 q0 186 -76 302q-77 117 -213 117q-188 0 -332 -265q-76 -142 -121 -320q-39 -158 -39 -303zM590 1626q0 57 47 95q35 29 76 29q34 0 60 -21q33 -26 33 -74q0 -59 -45 -96q-33 -27 -76 -27q-38 0 -64 23q-31 27 -31 71zM951 1626q0 57 47 95q35 29 76 29q34 0 60 -21 q33 -26 33 -75q0 -58 -45 -95q-33 -27 -76 -27q-38 0 -64 23q-31 27 -31 71z" />
<glyph unicode="&#xd7;" d="M203 986l75 75l297 -297l295 295l70 -70l-295 -295l297 -298l-74 -74l-298 297l-295 -295l-70 70l295 295z" />
<glyph unicode="&#xd8;" horiz-adv-x="1239" d="M-102 0l270 266q-25 100 -25 212q0 244 92 469q180 442 549 442q232 0 351 -176l155 152h111l-229 -225q38 -112 38 -253q0 -190 -59 -377q-89 -285 -261 -422q-141 -111 -323 -111q-251 0 -367 207l-188 -184h-114zM286 448q0 -30 3 -65l749 736q-76 215 -255 215 q-193 0 -337 -266q-76 -141 -120 -319q-40 -159 -40 -301zM303 286q24 -96 69 -155q76 -99 199 -99q211 0 363 319q134 283 134 572q0 56 -9 107z" />
<glyph unicode="&#xd9;" horiz-adv-x="1303" d="M190 262q0 78 22 168l192 768q11 45 11 65q0 40 -56 56q-24 7 -85 12l10 40q146 -16 226 -16q78 0 232 16l-10 -40q-79 -6 -117 -22q-45 -19 -59 -59q-6 -14 -16 -52l-192 -772q-22 -88 -22 -142q0 -85 48 -140q75 -86 223 -86q144 0 252 84q86 68 139 224q22 65 64 234 l81 325l41 164q35 139 35 163q0 59 -69 71q-26 5 -67 8l10 40q145 -11 197 -11q55 0 191 11l-10 -40q-100 -9 -139 -46q-21 -19 -32 -43.5t-29 -86.5q-17 -61 -63 -230l-126 -509q-44 -174 -125 -273q-138 -166 -391 -166q-172 0 -270 79q-96 77 -96 206zM701 1819h158 l151 -323h-101z" />
<glyph unicode="&#xda;" horiz-adv-x="1303" d="M190 262q0 78 22 168l192 768q11 45 11 65q0 40 -56 56q-24 7 -85 12l10 40q146 -16 226 -16q78 0 232 16l-10 -40q-79 -6 -117 -22q-45 -19 -59 -59q-6 -14 -16 -52l-192 -772q-22 -88 -22 -142q0 -85 48 -140q75 -86 223 -86q144 0 252 84q86 68 139 224q22 65 64 234 l81 325l41 164q35 139 35 163q0 59 -69 71q-26 5 -67 8l10 40q145 -11 197 -11q55 0 191 11l-10 -40q-100 -9 -139 -46q-21 -19 -32 -43.5t-29 -86.5q-17 -61 -63 -230l-126 -509q-44 -174 -125 -273q-138 -166 -391 -166q-172 0 -270 79q-96 77 -96 206zM819 1496l313 323 h177l-369 -323h-121z" />
<glyph unicode="&#xdb;" horiz-adv-x="1303" d="M190 262q0 78 22 168l192 768q11 45 11 65q0 40 -56 56q-24 7 -85 12l10 40q146 -16 226 -16q78 0 232 16l-10 -40q-79 -6 -117 -22q-45 -19 -59 -59q-6 -14 -16 -52l-192 -772q-22 -88 -22 -142q0 -85 48 -140q75 -86 223 -86q144 0 252 84q86 68 139 224q22 65 64 234 l81 325l41 164q35 139 35 163q0 59 -69 71q-26 5 -67 8l10 40q145 -11 197 -11q55 0 191 11l-10 -40q-100 -9 -139 -46q-21 -19 -32 -43.5t-29 -86.5q-17 -61 -63 -230l-126 -509q-44 -174 -125 -273q-138 -166 -391 -166q-172 0 -270 79q-96 77 -96 206zM604 1505l328 299 h123l176 -299h-99l-161 197l-256 -197h-111z" />
<glyph unicode="&#xdc;" horiz-adv-x="1303" d="M190 262q0 78 22 168l192 768q11 45 11 65q0 40 -56 56q-24 7 -85 12l10 40q146 -16 226 -16q78 0 232 16l-10 -40q-79 -6 -117 -22q-44 -19 -59 -59q-6 -14 -16 -52l-192 -772q-22 -88 -22 -144q0 -83 48 -138q74 -86 223 -86q144 0 252 84q86 68 139 224q22 65 64 234 l81 325l41 164q35 139 35 162q0 60 -69 72q-27 5 -67 8l10 40q145 -11 197 -11q55 0 191 11l-10 -40q-100 -9 -139 -46q-21 -19 -32 -43.5t-29 -86.5q-17 -61 -63 -230l-126 -509q-44 -175 -125 -273q-138 -166 -391 -166q-172 0 -270 79q-96 77 -96 206zM662 1626 q0 57 47 95q35 29 76 29q34 0 60 -21q33 -26 33 -74q0 -59 -45 -96q-33 -27 -76 -27q-38 0 -64 23q-31 27 -31 71zM1024 1626q0 57 47 95q35 29 76 29q34 0 60 -21q33 -26 33 -74q0 -59 -45 -96q-33 -27 -76 -27q-39 0 -64 23q-31 27 -31 71z" />
<glyph unicode="&#xdd;" horiz-adv-x="986" d="M167 -6l10 40q74 6 117 23q47 19 60 57q6 14 16 53l107 431l-117 534q-4 16 -15 70q-10 55 -26 78t-52 36q-28 10 -93 15l10 40q131 -14 224 -14q92 0 229 14l-10 -40q-69 -7 -92 -12q-57 -11 -57 -56q0 -18 17 -131l87 -479l375 518q56 78 56 105q0 33 -37 33 q-18 0 -63 -8l-7 39q142 24 254 70v-21q0 -30 -20 -68q-10 -19 -114 -161l-413 -562l-107 -431q-12 -48 -12 -70q0 -51 139 -63l-10 -40q-145 16 -225 16q-78 0 -231 -16zM654 1496l312 323h177l-369 -323h-120z" />
<glyph unicode="&#xde;" horiz-adv-x="1055" d="M-48 -6l10 40q82 7 120 22q45 19 60 59q6 14 16 53l255 1024q13 48 13 64q0 40 -57 57q-24 7 -85 12l10 40q146 -16 226 -16q78 0 231 16l-10 -40q-79 -6 -116 -22q-46 -20 -62 -66q-6 -17 -18 -63h147q184 0 264 -38q136 -65 136 -239q0 -111 -54 -214 q-79 -148 -227 -205q-100 -38 -257 -38h-192l-68 -272q-11 -45 -11 -68q0 -37 54 -54q21 -6 82 -12l-10 -40q-146 16 -225 16q-78 0 -232 -16zM376 497h155q124 0 194 29q124 52 189 200q44 99 44 195q0 124 -85 166q-61 30 -199 30h-143z" />
<glyph unicode="&#xdf;" horiz-adv-x="1027" d="M-256 -369l11 52q192 12 271 166q40 81 82 246q23 88 45 176l178 714q56 226 130 297q97 94 269 94q123 0 192 -61q74 -66 74 -185q0 -154 -112 -263q-77 -75 -207 -103q115 -28 174 -90q73 -75 73 -209q0 -187 -105 -323q-119 -153 -284 -153q-96 0 -188 65l12 58 q68 -38 137 -38q110 0 184 82q114 128 114 310q0 252 -300 264l14 59q142 1 225 68q69 56 107 155q29 76 29 145t-39 114q-41 48 -108 48q-110 0 -175 -90q-43 -59 -78 -198l-195 -784q-52 -207 -82.5 -296t-72.5 -151q-117 -172 -375 -169z" />
<glyph unicode="&#xe0;" horiz-adv-x="1007" d="M58 257q0 170 75 351q78 187 204 286q115 90 243 90q171 0 196 -184l48 169q80 3 133 21l-183 -646q-49 -172 -49 -219q0 -25 13 -41.5t33 -16.5q45 0 117 95l32 -27q-40 -66 -75 -99q-56 -54 -129 -54q-128 0 -128 142v22q-106 -164 -270 -164q-123 0 -192 77 q-68 74 -68 198zM188 233q0 -70 19 -113q36 -80 124 -80q80 0 151 58t126 167q48 97 84 237.5t36 234.5q0 67 -27 120q-35 70 -123 70q-157 0 -286 -283q-104 -227 -104 -411zM461 1397h150l144 -307h-95z" />
<glyph unicode="&#xe1;" horiz-adv-x="1007" d="M58 257q0 170 75 351q78 187 204 286q115 90 243 90q171 0 196 -184l48 169q80 3 133 21l-183 -646q-49 -172 -49 -219q0 -25 13 -41.5t33 -16.5q45 0 117 95l32 -27q-40 -66 -75 -99q-56 -54 -129 -54q-128 0 -128 142v22q-106 -164 -270 -164q-123 0 -192 77 q-68 74 -68 198zM188 233q0 -70 19 -113q36 -80 124 -80q80 0 151 58t126 167q48 97 84 237.5t36 234.5q0 67 -27 120q-35 70 -123 70q-157 0 -286 -283q-104 -227 -104 -411zM557 1090l297 307h169l-352 -307h-114z" />
<glyph unicode="&#xe2;" horiz-adv-x="1007" d="M58 257q0 170 75 351q78 187 204 286q115 90 243 90q171 0 196 -184l48 169q80 3 133 21l-183 -646q-49 -172 -49 -219q0 -25 13 -41.5t33 -16.5q45 0 117 95l32 -27q-40 -66 -75 -99q-56 -54 -129 -54q-128 0 -128 142v22q-106 -164 -270 -164q-123 0 -192 77 q-68 74 -68 198zM188 233q0 -70 19 -113q36 -80 124 -80q80 0 151 58t126 167q48 97 84 237.5t36 234.5q0 67 -27 120q-35 70 -123 70q-157 0 -286 -283q-104 -227 -104 -411zM370 1101l313 285h117l168 -285h-95l-153 188l-244 -188h-106z" />
<glyph unicode="&#xe3;" horiz-adv-x="1007" d="M58 257q0 170 75 351q78 187 204 286q115 90 243 90q171 0 196 -184l48 169q80 3 133 21l-183 -646q-49 -172 -49 -219q0 -25 13 -41.5t33 -16.5q45 0 117 95l32 -27q-40 -66 -75 -99q-56 -54 -129 -54q-128 0 -128 142v22q-106 -164 -270 -164q-123 0 -192 77 q-68 74 -68 198zM188 233q0 -70 19 -113q36 -80 124 -80q80 0 151 58t126 167q48 97 84 237.5t36 234.5q0 67 -27 120q-35 70 -123 70q-157 0 -286 -283q-104 -227 -104 -411zM370 1173q83 194 223 194q60 0 131 -59q44 -36 61 -47q31 -20 58 -20q86 0 133 131l69 -35 q-32 -88 -81 -137q-65 -64 -143 -64q-44 0 -82 22q-26 15 -77 59q-52 46 -90 46q-78 0 -132 -123z" />
<glyph unicode="&#xe4;" horiz-adv-x="1007" d="M58 259q0 168 75 349q78 186 204 286q114 90 244 90q169 0 195 -184l48 169q80 3 133 21l-183 -646q-49 -172 -49 -219q0 -25 13 -41.5t33 -16.5q45 0 117 95l32 -27q-40 -65 -75 -99q-56 -54 -129 -54q-128 0 -128 142v22q-107 -164 -270 -164q-124 0 -192 77 q-68 75 -68 200zM188 233q0 -70 19 -113q36 -80 124 -80q80 0 151 58t126 167q49 97 84.5 237.5t35.5 234.5q0 67 -27 120q-35 70 -123 70q-157 0 -286 -283q-104 -226 -104 -411zM443 1237q0 53 43 87q32 26 69 26q31 0 55 -19q30 -24 30 -68q0 -53 -41 -86 q-30 -25 -69 -25q-35 0 -59 21q-28 24 -28 64zM772 1237q0 53 42 87q33 26 69 26q31 0 55 -19q30 -24 30 -68q0 -53 -41 -86q-30 -25 -69 -25q-34 0 -58 21q-28 24 -28 64z" />
<glyph unicode="&#xe5;" horiz-adv-x="1007" d="M58 257q0 170 75 351q78 187 204 286q115 90 243 90q171 0 196 -184l48 169q80 3 133 21l-183 -646q-49 -172 -49 -219q0 -25 13 -41.5t33 -16.5q45 0 117 95l32 -27q-40 -66 -75 -99q-56 -54 -129 -54q-128 0 -128 142v22q-106 -164 -270 -164q-123 0 -192 77 q-68 74 -68 198zM188 233q0 -70 19 -113q36 -80 124 -80q80 0 151 58t126 167q48 97 84 237.5t36 234.5q0 67 -27 120q-35 70 -123 70q-157 0 -286 -283q-104 -227 -104 -411zM519 1281q0 78 54 130q54 54 132 54q74 0 128 -54q54 -53 54 -129t-54 -130t-130 -54t-130 54 t-54 129zM591 1281q0 -46 33 -78q33 -33 79 -33q47 0 79 33q33 32 33 79t-32 78q-34 33 -81 33q-45 0 -78 -33t-33 -79z" />
<glyph unicode="&#xe6;" horiz-adv-x="1449" d="M64 282q0 156 65 324q74 189 194 286q115 92 244 92q103 0 153 -72q26 -38 43 -112l42 169q78 -1 132 21l-47 -189q51 75 100 114q87 69 198 69q91 0 156 -43q80 -52 80 -151q0 -191 -283 -273q-143 -42 -293 -42h-38q-29 -98 -29 -190q0 -93 38 -156q52 -84 166 -84 q131 0 227 137q47 68 65 136h91q-38 -112 -113 -198q-120 -138 -304 -138q-147 0 -229 99q-46 54 -62 135q-128 -234 -333 -234q-117 0 -187 76q-76 82 -76 224zM194 247q0 -74 24 -127q17 -37 52 -58.5t77 -21.5q79 0 148.5 58t119.5 167q43 92 73.5 225t30.5 229 q0 80 -31 138q-38 70 -128 70q-136 0 -242 -203q-56 -107 -93 -259q-31 -123 -31 -218zM823 526q176 0 306 69q178 94 178 223q0 53 -47 84q-36 24 -86 24q-141 0 -257 -189q-55 -89 -94 -211z" />
<glyph unicode="&#xe7;" horiz-adv-x="798" d="M68 302q0 132 50 277q68 201 196 313q113 99 266 99q67 0 146 -28q36 -12 58 -12t57 25l-68 -311h-40q2 42 2 79q0 190 -151 190q-154 0 -268 -214q-50 -94 -82 -212q-36 -131 -36 -239q0 -90 40 -154q46 -74 145 -74q191 0 281 287h80q-41 -180 -164 -277 q-77 -58 -171 -71l-76 -106q142 -19 142 -122q0 -69 -63 -118q-61 -48 -163 -48q-73 0 -141 32l15 58q61 -18 96 -18q65 0 100 30q35 29 35 72q0 73 -136 80l108 137q-82 10 -147 58q-111 82 -111 267z" />
<glyph unicode="&#xe8;" horiz-adv-x="850" d="M67 304q0 132 53 274q69 186 188 292q128 114 288 114q99 0 166 -42q81 -52 81 -153q0 -188 -284 -272q-142 -42 -294 -42h-38q-30 -103 -30 -188q0 -93 40 -158q51 -84 165 -84q131 0 228 137q46 66 64 136h87q-36 -114 -110 -199q-120 -137 -299 -137q-153 0 -233 98 q-72 88 -72 224zM240 526q177 0 306 69q177 95 177 220q0 57 -46 88q-36 24 -87 24q-140 0 -256 -189q-56 -91 -94 -212zM410 1397h149l144 -307h-95z" />
<glyph unicode="&#xe9;" horiz-adv-x="850" d="M67 304q0 132 53 274q69 186 188 292q128 114 288 114q99 0 166 -42q81 -52 81 -153q0 -188 -284 -272q-142 -42 -294 -42h-38q-30 -103 -30 -188q0 -93 40 -158q51 -84 165 -84q131 0 228 137q46 66 64 136h87q-36 -114 -110 -199q-120 -137 -299 -137q-153 0 -233 98 q-72 88 -72 224zM240 526q177 0 306 69q177 95 177 220q0 57 -46 88q-36 24 -87 24q-140 0 -256 -189q-56 -91 -94 -212zM505 1090l297 307h169l-351 -307h-115z" />
<glyph unicode="&#xea;" horiz-adv-x="850" d="M67 304q0 132 53 274q69 186 188 292q128 114 288 114q99 0 166 -42q81 -52 81 -153q0 -188 -284 -272q-142 -42 -294 -42h-38q-30 -103 -30 -188q0 -93 40 -158q51 -84 165 -84q131 0 228 137q46 66 64 136h87q-36 -114 -110 -199q-120 -137 -299 -137q-153 0 -233 98 q-72 88 -72 224zM240 526q177 0 306 69q177 95 177 220q0 57 -46 88q-36 24 -87 24q-140 0 -256 -189q-56 -91 -94 -212zM305 1101l313 285h117l167 -285h-94l-153 188l-244 -188h-106z" />
<glyph unicode="&#xeb;" horiz-adv-x="850" d="M67 304q0 132 53 274q69 186 188 292q128 114 288 114q99 0 166 -42q81 -52 81 -153q0 -188 -284 -272q-142 -42 -294 -42h-38q-30 -103 -30 -188q0 -93 40 -158q51 -84 165 -84q131 0 228 137q46 66 64 136h87q-36 -114 -110 -199q-120 -137 -299 -137q-153 0 -233 98 q-72 88 -72 224zM240 526q177 0 306 69q177 95 177 220q0 57 -46 88q-36 24 -87 24q-140 0 -256 -189q-56 -91 -94 -212zM385 1238q0 52 42 86q33 26 69 26q31 0 55 -19q30 -24 30 -68q0 -53 -41 -86q-30 -25 -69 -25q-35 0 -58 21q-28 25 -28 65zM713 1238q0 52 42 86 q33 26 70 26q31 0 55 -19q30 -24 30 -68q0 -53 -41 -86q-30 -25 -69 -25q-35 0 -59 21q-28 24 -28 65z" />
<glyph unicode="&#xec;" horiz-adv-x="506" d="M100 104q0 48 46 232l120 479q11 45 11 59q0 39 -53 47q-22 3 -72 4l8 29q152 15 279 47l-174 -696q-35 -140 -35 -175q0 -31 15 -47q16 -16 36 -16q44 0 119 97l32 -28q-40 -67 -74 -101q-55 -53 -128 -53q-63 0 -99 41q-31 34 -31 81zM159 1397h149l144 -307h-95z" />
<glyph unicode="&#xed;" horiz-adv-x="507" d="M100 104q0 47 46 232l120 479q11 45 11 59q0 39 -53 47q-22 3 -72 4l8 29q151 15 279 47l-174 -696q-35 -140 -35 -176q0 -30 15 -46q16 -16 36 -16q44 0 119 97l32 -28q-39 -67 -74 -101q-55 -53 -128 -53q-63 0 -99 41q-31 34 -31 81zM275 1090l277 307h168l-331 -307 h-114z" />
<glyph unicode="&#xee;" horiz-adv-x="507" d="M100 104q0 48 46 232l120 479q11 45 11 59q0 39 -53 47q-22 3 -72 4l8 29q151 15 279 47l-174 -696q-35 -140 -35 -176q0 -30 15 -46q16 -16 36 -16q44 0 119 97l32 -28q-40 -67 -74 -101q-55 -53 -128 -53q-63 0 -99 41q-31 34 -31 81zM102 1101l265 285h117l120 -285 h-95l-105 188l-196 -188h-106z" />
<glyph unicode="&#xef;" horiz-adv-x="507" d="M100 105q0 47 46 231l120 479q11 45 11 59q0 39 -53 47q-21 3 -72 4l8 29q152 15 279 47l-173 -696q-36 -140 -36 -175q0 -31 15 -47q16 -16 36 -16q44 0 119 97l32 -28q-39 -67 -74 -101q-55 -53 -128 -53q-63 0 -99 41q-31 34 -31 82zM152 1238q0 52 42 85q32 26 68 26 q30 0 53 -18q30 -24 30 -68q0 -52 -40 -84q-30 -25 -68 -25q-34 0 -57 20q-28 25 -28 64zM434 1238q0 52 42 85q32 26 68 26q31 0 54 -18q30 -24 30 -68q0 -52 -40 -84q-31 -25 -68 -25q-35 0 -58 20q-28 25 -28 64z" />
<glyph unicode="&#xf0;" horiz-adv-x="938" d="M74 317q0 172 69 332q77 177 205 266q100 69 225 69q56 0 122 -18l-32 183l-158 -44l-20 65l168 47l-25 142l53 13l48 -139l176 49l15 -65l-172 -48l51 -147q7 -20 24 -67q29 -80 43 -131q18 -70 18 -151q0 -148 -54 -305q-133 -386 -443 -386q-154 0 -237 96 q-76 88 -76 239zM203 292q0 -125 54 -192q50 -61 136 -61q109 0 183 94q71 89 124 275q43 150 43 279q0 240 -177 240q-136 0 -242 -189q-121 -214 -121 -446z" />
<glyph unicode="&#xf1;" horiz-adv-x="1042" d="M66 0l199 797q15 61 15 82q0 32 -47 35q-29 2 -76 3l7 29q141 20 257 62q-7 -64 -32 -182q142 158 299 158q119 0 178 -78q41 -54 41 -128q0 -61 -21 -145l-82 -328q-34 -140 -34 -174q0 -32 15 -48q16 -16 36 -16q28 0 57 27q23 22 61 70l32 -28q-39 -67 -74 -101 q-55 -53 -127 -53q-63 0 -99 41q-31 34 -31 82q0 50 45 231l73 294q19 75 19 141q0 62 -37 95q-39 34 -104 34q-110 0 -197 -89q-59 -61 -92 -190l-154 -621h-127zM326 1173q85 194 223 194q60 0 132 -59q43 -36 60 -47q31 -20 57 -20q87 0 134 131l69 -35q-32 -89 -81 -137 q-64 -64 -143 -64q-44 0 -81 22q-27 16 -77 59q-53 46 -91 46q-77 0 -131 -123z" />
<glyph unicode="&#xf2;" horiz-adv-x="938" d="M74 316q0 156 59 312q136 356 443 356q140 0 218 -83q81 -86 81 -248q0 -148 -51 -294q-71 -200 -195 -294q-111 -83 -252 -83q-135 0 -215 77q-88 86 -88 257zM204 285q0 -115 42 -177q46 -69 140 -69q162 0 270 238q90 200 90 395q0 255 -186 255q-142 0 -240 -186 q-53 -101 -84.5 -224t-31.5 -232zM427 1397h150l143 -307h-95z" />
<glyph unicode="&#xf3;" horiz-adv-x="938" d="M74 316q0 156 59 312q136 356 443 356q140 0 218 -83q81 -86 81 -248q0 -148 -51 -294q-71 -200 -195 -294q-111 -83 -252 -83q-135 0 -215 77q-88 86 -88 257zM204 285q0 -115 42 -177q46 -69 140 -69q162 0 270 238q90 200 90 395q0 255 -186 255q-142 0 -240 -186 q-53 -101 -84.5 -224t-31.5 -232zM523 1090l297 307h168l-351 -307h-114z" />
<glyph unicode="&#xf4;" horiz-adv-x="938" d="M74 316q0 156 59 312q136 356 443 356q140 0 218 -83q81 -86 81 -248q0 -148 -51 -294q-71 -200 -195 -294q-111 -83 -252 -83q-135 0 -215 77q-88 86 -88 257zM204 285q0 -115 42 -177q46 -69 140 -69q162 0 270 238q90 200 90 395q0 255 -186 255q-142 0 -240 -186 q-53 -101 -84.5 -224t-31.5 -232zM316 1101l312 285h117l168 -285h-94l-154 188l-243 -188h-106z" />
<glyph unicode="&#xf5;" horiz-adv-x="938" d="M74 316q0 156 59 312q136 356 443 356q140 0 218 -83q81 -86 81 -248q0 -148 -51 -294q-71 -200 -195 -294q-111 -83 -252 -83q-135 0 -215 77q-88 86 -88 257zM204 285q0 -115 42 -177q46 -69 140 -69q162 0 270 238q90 200 90 395q0 255 -186 255q-142 0 -240 -186 q-53 -101 -84.5 -224t-31.5 -232zM315 1173q83 194 223 194q60 0 132 -59q43 -36 60 -47q31 -20 58 -20q88 0 133 131l69 -35q-33 -89 -81 -137q-64 -64 -143 -64q-44 0 -81 22q-27 16 -77 59q-53 46 -91 46q-80 0 -131 -123z" />
<glyph unicode="&#xf6;" horiz-adv-x="938" d="M74 316q0 156 59 312q136 356 443 356q140 0 218 -83q81 -86 81 -248q0 -148 -51 -294q-71 -200 -195 -294q-111 -83 -252 -83q-135 0 -215 77q-88 86 -88 257zM204 285q0 -115 42 -177q46 -69 140 -69q162 0 270 238q90 200 90 395q0 255 -186 255q-142 0 -240 -186 q-53 -101 -84.5 -224t-31.5 -232zM389 1238q0 52 42 86q33 26 69 26q31 0 55 -19q30 -24 30 -68q0 -53 -41 -86q-30 -25 -69 -25q-35 0 -58 21q-28 25 -28 65zM717 1238q0 52 43 86q32 26 69 26q31 0 55 -19q30 -24 30 -68q0 -53 -41 -86q-30 -25 -69 -25q-35 0 -59 21 q-28 24 -28 65z" />
<glyph unicode="&#xf7;" d="M160 640v102h826v-102h-826zM479 430q0 40 27 67q28 27 68 27q37 0 65 -27q27 -28 27 -66q0 -39 -27 -66q-28 -28 -66 -28q-39 0 -67 28q-27 27 -27 65zM479 951q0 40 27 67q28 27 68 27q37 0 65 -27q27 -28 27 -66q0 -39 -27 -67q-28 -27 -66 -27q-39 0 -67 27 q-27 28 -27 66z" />
<glyph unicode="&#xf8;" horiz-adv-x="938" d="M-71 0l166 171q-21 69 -21 150q0 152 59 307q80 211 224 298q95 58 214 58q154 0 237 -98l79 81h101l-142 -144q29 -77 29 -172q0 -145 -52 -291q-133 -378 -447 -378q-164 0 -249 119l-99 -101h-99zM204 278l524 529q-39 120 -166 120q-169 0 -273 -251 q-86 -207 -85 -398zM213 188q34 -149 172 -149q163 0 270 238q46 99 71 219q20 96 20 169q0 18 -2 56z" />
<glyph unicode="&#xf9;" horiz-adv-x="1043" d="M128 188q0 62 22 149l119 478q12 48 12 59q0 39 -54 47q-21 3 -71 4l7 29q148 14 280 47l-166 -662q-19 -77 -19 -131q0 -71 43 -107q41 -34 105 -34q113 0 194 91q58 65 96 218l148 593q70 3 132 21l-161 -646q-43 -173 -43 -216q0 -30 16 -46q14 -15 31 -15 q47 0 116 95l34 -27q-44 -67 -73 -98q-52 -55 -125 -55q-131 0 -131 142v14q-42 -55 -82 -88q-84 -68 -191 -68q-102 0 -166 52q-73 58 -73 154zM477 1397h149l144 -307h-95z" />
<glyph unicode="&#xfa;" horiz-adv-x="1043" d="M128 188q0 62 22 149l119 478q12 48 12 59q0 39 -54 47q-21 3 -71 4l7 29q148 14 280 47l-166 -662q-19 -77 -19 -131q0 -71 43 -107q41 -34 105 -34q113 0 194 91q58 65 96 218l148 593q70 3 132 21l-161 -646q-43 -173 -43 -216q0 -30 16 -46q14 -15 31 -15 q47 0 116 95l34 -27q-44 -67 -73 -98q-52 -55 -125 -55q-131 0 -131 142v14q-42 -55 -82 -88q-84 -68 -191 -68q-102 0 -166 52q-73 58 -73 154zM559 1090l297 307h168l-351 -307h-114z" />
<glyph unicode="&#xfb;" horiz-adv-x="1043" d="M128 188q0 62 22 149l119 478q12 48 12 59q0 39 -54 47q-21 3 -71 4l7 29q148 14 280 47l-166 -662q-19 -77 -19 -131q0 -71 43 -107q41 -34 105 -34q113 0 194 91q58 65 96 218l148 593q70 3 132 21l-161 -646q-43 -173 -43 -216q0 -30 16 -46q14 -15 31 -15 q47 0 116 95l34 -27q-44 -67 -73 -98q-52 -55 -125 -55q-131 0 -131 142v14q-42 -55 -82 -88q-84 -68 -191 -68q-102 0 -166 52q-73 58 -73 154zM358 1101l313 285h117l168 -285h-95l-153 188l-243 -188h-107z" />
<glyph unicode="&#xfc;" horiz-adv-x="1043" d="M128 188q0 62 22 149l119 478q12 48 12 59q0 39 -54 47q-21 3 -71 4l7 29q149 14 280 47l-166 -662q-19 -77 -19 -131q0 -71 43 -107q41 -34 105 -34q113 0 194 91q58 65 96 218l148 593q70 3 132 21l-161 -646q-43 -174 -43 -216q0 -30 16 -46q14 -15 31 -15 q47 0 116 95l34 -27q-44 -67 -73 -98q-52 -55 -125 -55q-131 0 -131 142v14q-42 -55 -82 -88q-84 -68 -191 -68q-102 0 -166 52q-73 58 -73 154zM434 1237q0 53 42 87q33 26 69 26q31 0 55 -19q30 -24 30 -68q0 -53 -41 -86q-30 -25 -69 -25q-35 0 -58 21q-28 24 -28 64z M763 1237q0 53 42 87q32 26 69 26q31 0 55 -19q30 -24 30 -68q0 -53 -41 -86q-30 -25 -69 -25q-35 0 -58 21q-28 24 -28 64z" />
<glyph unicode="&#xfd;" horiz-adv-x="825" d="M-135 -268q60 -20 102 -20q125 0 280 254l40 65l-97 828q-6 44 -20 57q-23 19 -107 22l8 35q105 -9 186 -9t190 9l-9 -35q-56 -3 -82 -12q-35 -11 -35 -56q0 -18 1 -27l52 -668l343 600q44 77 44 119q0 45 -68 45q-10 0 -26 -1l-4 35q66 2 112 18q39 14 92 46 q16 -38 16 -64q0 -43 -44 -119l-60 -100l-473 -807q-101 -170 -145 -219q-98 -117 -235 -128q-17 -2 -61 -2v134zM431 1090l298 307h168l-351 -307h-115z" />
<glyph unicode="&#xfe;" horiz-adv-x="1005" d="M-35 -403l399 1599q10 41 10 63q0 35 -53 43q-24 4 -72 4l7 29q156 15 280 47l-139 -559q45 53 85 86q89 75 203 75q122 0 194 -86q68 -83 68 -221q0 -156 -62 -320q-69 -185 -196 -287q-110 -88 -238 -88q-166 0 -217 185l-142 -570h-127zM279 252q0 -78 37 -138 q47 -75 138 -75q158 0 258 225q106 237 106 431q0 133 -59 191q-42 41 -106 41q-68 0 -136.5 -54.5t-119.5 -149.5q-39 -73 -75 -205q-43 -157 -43 -266z" />
<glyph unicode="&#xff;" horiz-adv-x="825" d="M-135 -268q60 -20 102 -20q125 0 280 254l40 65l-97 828q-6 44 -20 57q-23 19 -107 22l8 35q105 -9 186 -9t190 9l-9 -35q-56 -3 -82 -12q-35 -11 -35 -56q0 -18 1 -27l52 -668l343 600q44 77 44 119q0 45 -68 45q-10 0 -26 -1l-4 35q66 2 112 18q39 14 92 46 q16 -38 16 -64q0 -43 -44 -119l-60 -100l-473 -807q-101 -170 -145 -219q-98 -117 -235 -128q-17 -2 -61 -2v134zM284 1238q0 52 43 86q32 26 68 26q31 0 55 -19q30 -24 30 -68q0 -53 -41 -86q-30 -25 -69 -25q-34 0 -58 21q-28 25 -28 65zM612 1238q0 52 43 86q32 26 69 26 q31 0 55 -19q30 -24 30 -68q0 -53 -41 -86q-30 -25 -69 -25q-35 0 -59 21q-28 24 -28 65z" />
<glyph unicode="&#x152;" horiz-adv-x="1793" d="M122 413q0 203 80 423q101 278 284 423q163 129 354 129q159 0 246 -91q42 -43 73 -121l47 189h671l-43 -286h-39q-2 68 -9 111q-17 91 -84 106q-46 12 -100 12h-290l-140 -563h478l-16 -64h-478l-123 -498q-10 -42 -10 -61q0 -65 115 -65h199q84 0 129 18q45 17 92.5 77 t94.5 159h38l-115 -311h-707l44 181q-63 -74 -117 -113q-124 -91 -280 -91q-194 0 -299 130q-95 118 -95 306zM264 374q0 -121 51 -212q73 -131 210 -131q114 0 215.5 88t184.5 260q71 146 111 306.5t40 298.5q0 153 -60 248q-64 102 -195 102q-207 0 -385 -318 q-70 -126 -117 -285q-55 -187 -55 -357z" />
<glyph unicode="&#x153;" horiz-adv-x="1472" d="M66 294q0 150 63 309q80 205 221 303q111 78 233 78q199 0 257 -196q70 95 163 145.5t201 50.5q95 0 162 -43q82 -52 82 -151q0 -189 -284 -273q-141 -42 -295 -42h-37q-30 -105 -30 -190q0 -93 39 -156q50 -84 165 -84q132 0 228 137q48 68 65 136h91 q-40 -114 -113 -198q-121 -138 -304 -138q-210 0 -282 195q-156 -195 -341 -195q-123 0 -201 82q-83 86 -83 230zM196 255q0 -96 43 -157q41 -59 117 -59q156 0 267 235q112 237 112 425q0 228 -168 228q-129 0 -240 -201q-59 -106 -95 -235.5t-36 -235.5zM845 526 q176 0 306 69q177 94 177 221q0 55 -46 86q-36 25 -86 25q-141 0 -257 -189q-55 -90 -94 -212z" />
<glyph unicode="&#x178;" horiz-adv-x="986" d="M167 -6l10 40q74 6 117 23q47 19 60 57q6 14 16 53l107 431l-117 534q-4 16 -15 70q-10 55 -26 78t-52 36q-28 10 -93 15l10 40q131 -14 224 -14q92 0 229 14l-10 -40q-69 -7 -92 -12q-57 -11 -57 -56q0 -18 17 -131l87 -479l375 518q56 78 56 105q0 33 -37 33 q-18 0 -63 -8l-7 39q142 24 254 70v-21q0 -30 -20 -68q-10 -19 -114 -161l-413 -562l-107 -431q-12 -48 -12 -70q0 -51 139 -63l-10 -40q-145 16 -225 16q-78 0 -231 -16zM463 1626q0 58 47 95q35 29 76 29q34 0 60 -21q33 -27 33 -75q0 -58 -45 -95q-33 -27 -76 -27 q-38 0 -64 23q-31 27 -31 71zM824 1626q0 57 47 95q35 29 76 29q34 0 60 -21q33 -27 33 -75q0 -58 -45 -95q-33 -27 -76 -27q-39 0 -64 23q-31 27 -31 71z" />
<glyph unicode="&#x2c6;" horiz-adv-x="1024" d="M331 1101l313 285h117l168 -285h-95l-153 188l-244 -188h-106z" />
<glyph unicode="&#x2dc;" horiz-adv-x="1024" d="M344 1173q85 194 223 194q60 0 131 -59q44 -36 61 -47q31 -20 58 -20q88 0 133 131l69 -35q-33 -89 -81 -137q-65 -64 -143 -64q-44 0 -82 22q-25 15 -76 59q-53 46 -91 46q-79 0 -132 -123z" />
<glyph unicode="&#x2000;" horiz-adv-x="917" />
<glyph unicode="&#x2001;" horiz-adv-x="1835" />
<glyph unicode="&#x2002;" horiz-adv-x="917" />
<glyph unicode="&#x2003;" horiz-adv-x="1835" />
<glyph unicode="&#x2004;" horiz-adv-x="611" />
<glyph unicode="&#x2005;" horiz-adv-x="458" />
<glyph unicode="&#x2006;" horiz-adv-x="305" />
<glyph unicode="&#x2007;" horiz-adv-x="305" />
<glyph unicode="&#x2008;" horiz-adv-x="229" />
<glyph unicode="&#x2009;" horiz-adv-x="367" />
<glyph unicode="&#x200a;" horiz-adv-x="101" />
<glyph unicode="&#x2010;" horiz-adv-x="382" d="M13 515l18 73h382l-18 -73h-382z" />
<glyph unicode="&#x2011;" horiz-adv-x="382" d="M13 515l18 73h382l-18 -73h-382z" />
<glyph unicode="&#x2012;" horiz-adv-x="382" d="M13 515l18 73h382l-18 -73h-382z" />
<glyph unicode="&#x2013;" d="M198 515l18 73h662l-18 -73h-662z" />
<glyph unicode="&#x2014;" horiz-adv-x="1100" d="M13 515l18 73h1101l-19 -73h-1100z" />
<glyph unicode="&#x2018;" horiz-adv-x="466" d="M242 912q0 100 89 262q62 114 141 214h68q-164 -237 -177 -387q11 1 16 1q38 0 62 -31q16 -23 16 -56q0 -56 -43 -91q-31 -26 -70 -26q-44 0 -73 31t-29 83z" />
<glyph unicode="&#x2019;" horiz-adv-x="466" d="M242 799q164 238 177 387q-10 -1 -16 -1q-38 0 -61 31q-17 22 -17 54q0 57 43 92q32 26 71 26q43 0 72 -31q30 -32 30 -83q0 -100 -89 -261q-63 -114 -142 -214h-68z" />
<glyph unicode="&#x201a;" horiz-adv-x="466" d="M-63 -424q165 236 177 387q-10 -1 -16 -1q-38 0 -61 31q-17 22 -17 54q0 57 43 92q32 26 71 26q43 0 72 -31q30 -32 30 -83q0 -100 -89 -262q-66 -119 -142 -213h-68z" />
<glyph unicode="&#x201c;" horiz-adv-x="754" d="M239 912q0 100 89 262q63 115 141 214h68q-164 -236 -177 -387q11 1 16 1q38 0 62 -31q16 -22 16 -55q0 -57 -43 -92q-31 -26 -70 -26q-44 0 -72 31q-30 32 -30 83zM527 912q0 100 89 262q62 114 142 214h68q-164 -236 -178 -387q11 1 16 1q39 0 62 -31q16 -22 16 -55 q0 -57 -43 -92q-31 -26 -70 -26q-44 0 -72 31q-30 32 -30 83z" />
<glyph unicode="&#x201d;" horiz-adv-x="754" d="M242 799q164 238 177 387q-10 -1 -16 -1q-38 0 -61 31q-17 22 -17 54q0 57 43 92q32 26 71 26q43 0 72 -31q30 -32 30 -83q0 -100 -89 -261q-63 -114 -142 -214h-68zM530 799q165 238 177 387q-10 -1 -16 -1q-37 0 -61 31q-17 22 -17 54q0 57 43 92q32 26 71 26 q44 0 72 -31q30 -32 30 -83q0 -100 -89 -261q-63 -115 -142 -214h-68z" />
<glyph unicode="&#x201e;" horiz-adv-x="754" d="M-63 -424q165 236 177 387q-10 -1 -16 -1q-38 0 -61 31q-17 22 -17 54q0 57 43 92q32 26 71 26q43 0 72 -31q30 -32 30 -83q0 -100 -89 -262q-66 -119 -142 -213h-68zM225 -424q165 236 177 387q-10 -1 -16 -1q-38 0 -61 31q-17 22 -17 54q0 57 43 92q32 26 71 26 q44 0 72 -31q30 -31 30 -83q0 -100 -89 -262q-66 -120 -142 -213h-68z" />
<glyph unicode="&#x2022;" horiz-adv-x="1365" d="M422 694q0 121 84 202q86 82 204 82q113 0 196 -83q84 -83 84 -201t-83 -201t-201 -83q-116 0 -199 82q-85 84 -85 202z" />
<glyph unicode="&#x2026;" horiz-adv-x="1536" d="M59 74q0 55 45 91q34 28 74 28q33 0 58 -20q32 -26 32 -72q0 -56 -43 -92q-32 -26 -74 -26q-37 0 -62 22q-30 26 -30 69zM571 74q0 55 45 91q34 28 74 28q33 0 58 -20q32 -26 32 -72q0 -56 -43 -92q-32 -26 -74 -26q-37 0 -62 22q-30 26 -30 69zM1083 74q0 55 45 91 q34 28 74 28q33 0 58 -20q32 -26 32 -72q0 -56 -43 -92q-32 -26 -74 -26q-37 0 -62 22q-30 26 -30 69z" />
<glyph unicode="&#x202f;" horiz-adv-x="367" />
<glyph unicode="&#x2039;" horiz-adv-x="531" d="M127 489l333 478h75l-288 -478l47 -489h-62z" />
<glyph unicode="&#x203a;" horiz-adv-x="531" d="M5 0l288 478l-47 489h62l105 -489l-333 -478h-75z" />
<glyph unicode="&#x205f;" horiz-adv-x="458" />
<glyph unicode="&#x2122;" horiz-adv-x="1496" d="M179 583l10 39q50 4 74 12q21 9 28 27q3 7 8 28l156 628h-63q-64 0 -98 -37q-26 -29 -61 -91h-40l77 176h488l-11 -176h-38q-2 68 -17 96q-14 21 -37 27q-19 5 -51 5h-53l-150 -602q-9 -36 -9 -51q0 -30 34 -37q12 -2 44 -5l-9 -39q-90 9 -139 9q-47 0 -143 -9zM641 583 l9 38q65 5 91 45q18 27 41 99q8 25 71 229l81 270q6 20 6 35q0 25 -84 31l9 39q55 -5 88 -5q42 0 110 7l61 -604l354 604q74 -7 112 -7q33 0 91 5l-10 -39q-51 -3 -74 -12q-26 -11 -36 -54l-132 -576q-5 -23 -5 -33q0 -27 83 -34l-10 -38q-87 9 -140 9t-145 -9l9 39 q45 1 74 12q25 10 36 54l136 575l-383 -654h-31l-67 659l-170 -580q-5 -17 -5 -32q0 -20 26 -27q16 -5 53 -8l-10 -38q-81 7 -118 7t-121 -7z" />
<glyph unicode="&#xe000;" horiz-adv-x="1035" d="M0 0v1035h1035v-1035h-1035z" />
</font>
</defs>
</svg>
