<?xml version="1.0" standalone="no"?>
<!DOCTYPE svg PUBLIC "-//W3C//DTD SVG 1.1//EN" "http://www.w3.org/Graphics/SVG/1.1/DTD/svg11.dtd" >
<svg xmlns="http://www.w3.org/2000/svg">
<metadata></metadata>
<defs>
<font id="corposdemregular" horiz-adv-x="1024" >
<font-face units-per-em="2048" ascent="1773" descent="-275" />
<missing-glyph horiz-adv-x="512" />
<glyph horiz-adv-x="0" />
<glyph unicode="&#xd;" horiz-adv-x="512" />
<glyph horiz-adv-x="0" />
<glyph horiz-adv-x="0" />
<glyph unicode=" "  horiz-adv-x="512" />
<glyph unicode="&#x09;" horiz-adv-x="512" />
<glyph unicode="&#xa0;" horiz-adv-x="512" />
<glyph unicode="!" horiz-adv-x="513" d="M117 291q0 58 40 98q42 41 100 41q56 0 97 -41q40 -40 40 -98q0 -56 -41 -97t-98 -41t-98 41q-40 40 -40 97zM148 1505h217l-27 -914h-169z" />
<glyph unicode="&#x22;" horiz-adv-x="882" d="M184 1535h203l-37 -548h-130zM496 1535h203l-37 -548h-130z" />
<glyph unicode="#" horiz-adv-x="1229" d="M37 590l23 143h234l42 266h-233l22 143h233l63 393h165l-62 -393h274l63 393h166l-62 -393h238l-23 -143h-238l-42 -266h238l-23 -143h-238l-66 -420h-166l67 420h-275l-67 -420h-165l66 420h-234zM459 733h275l42 266h-275z" />
<glyph unicode="$" horiz-adv-x="1133" d="M82 595h200q11 -234 233 -269v460q-177 61 -237 96q-164 96 -164 294q0 152 96 253q109 115 305 130v145h105v-146q144 -14 244 -90q137 -104 140 -284h-200q-19 161 -184 193v-408q173 -59 244 -101q188 -110 188 -319q0 -146 -95 -256q-116 -132 -337 -146v-167h-105 v167q-206 16 -315 126q-117 120 -118 322zM317 1194q0 -91 82 -142q15 -9 44 -21.5t72 -26.5v374q-198 -35 -198 -184zM620 323q82 7 136 43q87 57 87 161q0 103 -84 162q-33 24 -139 61v-427z" />
<glyph unicode="%" horiz-adv-x="1326" d="M58 1217q0 156 95 251q76 78 182 78q113 0 192 -94q80 -95 80 -235q0 -154 -95 -252q-77 -78 -180 -78q-115 0 -194 94q-80 95 -80 236zM178 170l796 1365h173l-797 -1365h-172zM197 1217q0 -95 41 -154q38 -53 94 -53q63 0 101 62q35 59 35 145q0 94 -41 153 q-38 53 -96 53q-60 0 -99 -62q-35 -56 -35 -144zM718 489q0 154 95 252q77 77 182 77q52 0 104.5 -25.5t88.5 -68.5q80 -95 80 -235q0 -154 -95 -252q-77 -78 -180 -78q-116 0 -195 94q-80 95 -80 236zM857 489q0 -95 41 -154q38 -53 95 -53q63 0 101 62q35 59 35 145 q0 94 -41 153q-38 53 -96 53q-62 0 -100 -62q-35 -59 -35 -144z" />
<glyph unicode="&#x26;" horiz-adv-x="1200" d="M71 534q0 83 31.5 151.5t102.5 139.5q26 26 57 54t69 58q-33 43 -56.5 75t-37.5 53q-54 82 -54 173q0 126 94 204q88 73 223 73q128 0 207 -67q90 -77 90 -206q0 -123 -86 -224q-23 -26 -54 -55t-70 -61l254 -346q13 24 20.5 46t11.5 42q5 32 8 68.5t3 78.5v36h162 q1 -19 1 -34.5v-26.5q0 -159 -50 -278q-8 -19 -21 -39.5t-29 -43.5l175 -235h-216l-73 108q-60 -57 -118 -84q-89 -42 -211 -42q-178 0 -293 90q-140 110 -140 292zM261 523q0 -87 64 -145q68 -62 184 -62q134 0 219 94l-285 379q-49 -35 -97 -84q-85 -88 -85 -182z M369 1246q0 -59 38 -118q10 -16 28.5 -40.5t44.5 -59.5q145 115 145 221q0 54 -41 86q-35 27 -83 27q-54 0 -91 -30q-41 -35 -41 -86z" />
<glyph unicode="'" horiz-adv-x="512" d="M155 1535h203l-37 -548h-130z" />
<glyph unicode="(" horiz-adv-x="602" d="M134 654q0 552 248 893h153q-216 -332 -216 -886q0 -570 216 -901h-153q-248 335 -248 894z" />
<glyph unicode=")" horiz-adv-x="604" d="M67 -240q218 332 218 886q0 569 -218 901h154q249 -338 249 -894q0 -554 -249 -893h-154z" />
<glyph unicode="*" d="M193 1231l33 100l234 -77v247h105v-247l235 77l32 -100l-235 -76l145 -200l-84 -61l-145 200l-146 -200l-84 61l145 200z" />
<glyph unicode="+" horiz-adv-x="1133" d="M103 779v152h384v399h158v-399h385v-152h-385v-399h-158v399h-384z" />
<glyph unicode="," horiz-adv-x="502" d="M57 -217q34 42 64 90t56 105q24 54 37 102t17 93q-52 1 -80 20q-59 38 -59 106q0 60 44 101q40 37 100 37q65 0 107 -50q43 -49 43 -139q0 -133 -76 -275q-22 -40 -52.5 -87.5t-70.5 -102.5h-130z" />
<glyph unicode="-" horiz-adv-x="547" d="M0 611v150h547v-150h-547z" />
<glyph unicode="." horiz-adv-x="518" d="M120 291q0 58 40 98q42 41 100 41q56 0 97 -41q40 -40 40 -98q0 -56 -41 -97t-98 -41t-98 41q-40 40 -40 97z" />
<glyph unicode="/" horiz-adv-x="1153" d="M75 -184l836 1719h167l-835 -1719h-168z" />
<glyph unicode="0" horiz-adv-x="1133" d="M103 721q0 341 137 529q118 163 333 163q97 0 180 -42.5t140 -120.5q137 -189 137 -526q0 -334 -137 -525q-117 -163 -326 -163q-212 0 -327 163q-137 191 -137 522zM311 724q0 -267 87 -418q55 -99 169 -99q112 0 168 99q87 151 87 415q0 273 -87 422q-59 99 -172 99 q-110 0 -165 -99q-87 -152 -87 -419z" />
<glyph unicode="1" horiz-adv-x="1133" d="M346 1050v120q131 2 205 58q69 53 95 166h141v-1339h-205v995h-236z" />
<glyph unicode="2" horiz-adv-x="1133" d="M154 55v164q17 22 56.5 70t105.5 127q135 162 220 269t127 167q93 130 93 215q0 74 -54 121q-53 45 -135 45q-132 0 -185 -98q-29 -53 -35 -128h-178q1 162 76 261q112 145 331 145q174 0 281 -92q109 -93 109 -250q0 -116 -83 -244q-80 -126 -465 -585h562v-187h-826z " />
<glyph unicode="3" horiz-adv-x="1133" d="M128 445h185q1 -95 51 -153q64 -78 197 -78q115 0 176 61q65 63 65 170q0 154 -135 202q-33 12 -81 17.5t-112 5.5h-39v172q34 -3 52 -3q121 0 188 40q96 55 96 173q0 81 -52 132q-54 51 -145 51q-183 0 -211 -196h-178q6 159 93 254q111 120 316 120q179 0 283 -98 q101 -96 101 -247q0 -208 -209 -297q239 -75 239 -323q0 -204 -148 -322q-115 -91 -293 -91q-262 0 -374 168q-66 98 -65 242z" />
<glyph unicode="4" horiz-adv-x="1133" d="M72 353v162l525 879h227v-872h237v-169h-232v-313h-207v313h-550zM267 522h365v633z" />
<glyph unicode="5" horiz-adv-x="1133" d="M134 407h193q13 -79 55 -127q59 -65 159 -65q113 0 174 79q69 88 69 218q0 126 -66 207q-57 69 -157 69q-132 0 -221 -125l-178 24l115 699h642l-16 -183h-472l-55 -320q101 74 217 74q195 0 308 -137q98 -119 98 -298q0 -203 -124 -342q-128 -144 -326 -144 q-220 0 -332 145q-74 95 -83 226z" />
<glyph unicode="6" horiz-adv-x="1133" d="M130 512q0 255 201 548q89 131 287 351h225q-231 -266 -351 -468q57 21 121 21q170 0 281 -126q110 -125 110 -325q0 -230 -141 -365q-115 -112 -288 -112q-183 0 -304 120q-141 138 -141 356zM338 508q0 -141 75 -226q62 -71 159 -71q95 0 152 69q72 87 72 225 q0 146 -77 232q-60 65 -155 65q-89 0 -149 -65q-77 -86 -77 -229z" />
<glyph unicode="7" horiz-adv-x="1133" d="M132 1191v195h870v-161l-640 -1170h-228l624 1136h-626z" />
<glyph unicode="8" horiz-adv-x="1133" d="M127 442q0 211 185 315q-155 89 -155 275q0 179 137 289q116 92 272 92t272 -92q137 -110 137 -289q0 -187 -154 -275q185 -104 185 -316q0 -190 -141 -305q-121 -100 -299 -100q-177 0 -298 100q-141 115 -141 306zM335 435q0 -120 84 -183q64 -49 148 -49t148 49 q83 63 83 183q0 121 -83 184q-64 49 -151 49q-81 0 -145 -49q-84 -63 -84 -184zM365 1040q0 -97 61 -154q55 -52 141 -52q85 0 140 52q61 57 61 153q0 100 -61 155q-58 52 -143 52q-83 0 -138 -52q-61 -57 -61 -154z" />
<glyph unicode="9" horiz-adv-x="1133" d="M130 927q0 238 153 378q118 108 292 108q168 0 284 -104q145 -132 145 -373q0 -132 -49 -268t-153 -286q-51 -73 -121.5 -161t-167.5 -191h-224q115 136 202 250.5t150 220.5q-54 -21 -120 -21q-168 0 -280 127q-111 126 -111 320zM338 937q0 -144 77 -230 q59 -65 152 -65t152 65q77 86 77 231q0 155 -76 237q-57 63 -152 63q-90 0 -150 -66q-80 -89 -80 -235z" />
<glyph unicode=":" horiz-adv-x="518" d="M120 176q0 58 40 98q42 41 100 41q56 0 97 -41q40 -40 40 -98q0 -56 -41 -97t-98 -41t-98 41q-40 40 -40 97zM120 889q0 58 40 98q42 41 100 41q56 0 97 -41q40 -40 40 -98q0 -56 -41 -97t-98 -41t-98 41q-40 40 -40 97z" />
<glyph unicode=";" horiz-adv-x="502" d="M57 -332q34 42 64 90t56 105q24 54 37 102t17 93q-52 1 -80 20q-59 38 -59 106q0 60 44 101q40 37 100 37q65 0 107 -50q43 -49 43 -139q0 -133 -76 -275q-22 -40 -52.5 -87.5t-70.5 -102.5h-130zM96 889q0 58 40 98q42 41 100 41q56 0 97 -41q40 -40 40 -97 q0 -58 -41 -99q-40 -40 -98 -40q-57 0 -98 41q-40 40 -40 97z" />
<glyph unicode="&#x3c;" d="M68 662v172l887 432v-200l-673 -319l673 -318v-199z" />
<glyph unicode="=" horiz-adv-x="1133" d="M103 508v154h927v-154h-927zM103 817v154h927v-154h-927z" />
<glyph unicode="&#x3e;" d="M69 229v201l673 317l-673 319v199l887 -432v-172z" />
<glyph unicode="?" horiz-adv-x="849" d="M101 1050q6 164 74 244q99 115 284 115q152 0 239 -75q94 -82 94 -226q0 -98 -54 -177q-16 -23 -44.5 -55.5t-70.5 -77.5q-87 -91 -103 -140q-12 -36 -12 -121v-29t1 -36h-190q0 69 0.5 114.5t2.5 70.5q2 34 13 64.5t28 57.5q11 18 33.5 45.5t57.5 64.5q38 40 62 69 t34 46q27 46 27 94q0 64 -42 99q-38 32 -100 32q-155 0 -169 -179h-165zM275 176q0 58 40 98q42 41 100 41q56 0 97 -41q40 -40 40 -98q0 -56 -41 -97t-98 -41t-98 41q-40 40 -40 97z" />
<glyph unicode="@" horiz-adv-x="1502" d="M66 731q0 158 52.5 283.5t158.5 231.5q103 103 227 151t281 48q272 0 450 -154q97 -85 149.5 -196.5t52.5 -254.5q0 -180 -89 -323q-107 -168 -249 -168q-76 0 -123 59q-21 27 -32 77q-93 -139 -248 -139q-134 0 -216 94q-81 91 -81 236q0 171 114 299q102 114 245 114 q150 0 215 -129l21 106h143l-80 -414q-7 -34 -10 -57.5t-3 -36.5q0 -34 14 -60q16 -30 47 -30q61 0 114 75q88 124 88 296q0 219 -150 353q-143 126 -370 126q-249 0 -409 -162q-169 -169 -169 -428q0 -252 157 -412q154 -159 440 -159q197 0 398 80l35 -128 q-208 -80 -433 -80q-333 0 -531 189q-104 97 -156 234q-53 139 -53 279zM563 675q0 -79 36 -130q44 -62 129 -62q102 0 159 102q44 80 44 180q0 75 -35 125q-40 55 -119 55q-99 0 -162 -95q-52 -76 -52 -175z" />
<glyph unicode="A" horiz-adv-x="1198" d="M30 55l465 1369h205l467 -1369h-219l-101 320h-497l-103 -320h-217zM405 557h386l-193 614z" />
<glyph unicode="B" horiz-adv-x="1168" d="M169 55v1365h312q228 0 325 -34q109 -39 163 -126q49 -76 49 -182q0 -140 -85 -219q-48 -45 -140 -73q298 -70 298 -343q0 -173 -116 -280q-49 -45 -116.5 -69t-158.5 -32q-38 -4 -99 -5.5t-149 -1.5h-283zM377 229h127q197 0 265 30q29 13 49.5 36t35.5 57q19 44 19 103 q0 155 -127 203q-33 12 -92 18.5t-147 6.5h-130v-454zM377 853h120q151 0 219 33q93 45 93 168q0 122 -101 167q-58 25 -222 25h-109v-393z" />
<glyph unicode="C" horiz-adv-x="1230" d="M88 734q0 377 209 569q154 142 375 142q133 0 227 -45.5t155 -133.5q70 -100 85 -259h-187q-50 254 -281 254q-164 0 -258 -133q-103 -145 -103 -392q0 -245 107 -394q93 -128 257 -128q262 0 293 328h192q-11 -184 -79 -300q-125 -212 -399 -212q-247 0 -406 164 q-187 190 -187 540z" />
<glyph unicode="D" horiz-adv-x="1304" d="M169 55v1365h277q85 0 151.5 -4t120.5 -12q220 -35 351 -204q146 -191 146 -461q0 -279 -149 -470q-136 -174 -368 -202q-95 -12 -281 -12h-248zM380 237h110q63 0 110 2.5t81 8.5q153 25 233 156q83 137 83 336q0 204 -92 340q-42 61 -100 98t-136 50q-35 5 -92 8 t-138 3h-59v-1002z" />
<glyph unicode="E" horiz-adv-x="1066" d="M169 55v1365h808v-181h-597v-386h548v-182h-548v-434h615v-182h-826z" />
<glyph unicode="F" horiz-adv-x="1031" d="M169 55v1365h808v-181h-597v-386h548v-182h-548v-616h-211z" />
<glyph unicode="G" horiz-adv-x="1295" d="M88 738q0 351 184 541q160 166 407 166q143 0 259 -62q196 -105 220 -373h-187q-47 251 -289 251q-166 0 -257 -117q-115 -145 -115 -407q0 -261 118 -406q94 -117 271 -117q155 0 298 89v278h-276v166h456v-565q-218 -152 -479 -152q-266 0 -427 168q-183 189 -183 540z " />
<glyph unicode="H" horiz-adv-x="1350" d="M169 55v1365h211v-565h589v565h211v-1365h-211v625h-589v-625h-211z" />
<glyph unicode="I" horiz-adv-x="550" d="M168 55v1365h213v-1365h-213z" />
<glyph unicode="J" horiz-adv-x="641" d="M-6 4h22q39 0 68 2q39 4 65 11q75 21 96 70q16 37 18 121q1 16 1 46v75v1091h213v-1089q0 -156 -6 -220q-30 -287 -408 -287q-11 0 -28.5 0.5t-40.5 1.5v178z" />
<glyph unicode="K" horiz-adv-x="1214" d="M169 55v1365h211v-1365h-211zM383 775l526 645h247l-532 -639l575 -726h-276z" />
<glyph unicode="L" horiz-adv-x="1016" d="M169 55v1365h217v-1183h589v-182h-806z" />
<glyph unicode="M" horiz-adv-x="1619" d="M169 55v1365h303l337 -1137l339 1137h301v-1365h-194v1133l-339 -1133h-216l-337 1133v-1133h-194z" />
<glyph unicode="N" horiz-adv-x="1368" d="M169 55v1365h227l602 -1043v1043h200v-1365h-218l-610 1041v-1041h-201z" />
<glyph unicode="O" horiz-adv-x="1353" d="M88 735q0 344 183 538q162 172 413 172q236 0 398 -172q183 -194 183 -536t-183 -535q-162 -172 -406 -172q-245 0 -405 172q-183 193 -183 533zM310 737q0 -242 106 -393q93 -132 260 -132q169 0 261 132q106 151 106 391q0 251 -106 396q-95 132 -266 132 q-78 0 -144 -34.5t-111 -97.5q-106 -148 -106 -394z" />
<glyph unicode="P" horiz-adv-x="1119" d="M169 55v1365h275q267 0 383 -39q127 -42 193 -158q55 -97 55 -225q0 -184 -111 -293q-97 -97 -284 -112q-83 -6 -209 -6h-91v-532h-211zM380 769h90q88 0 149.5 4.5t96.5 15.5q73 22 111 87q30 52 30 123q0 156 -114 207q-75 33 -275 33h-88v-470z" />
<glyph unicode="Q" horiz-adv-x="1384" d="M88 738q0 340 183 535q162 172 406 172q243 0 405 -172q183 -195 183 -532q0 -223 -79 -388l275 -306h-248l-136 150q-162 -167 -402 -167q-242 0 -404 172q-183 195 -183 536zM310 737q0 -238 107 -393q91 -132 259 -132t260 132q107 155 107 391q0 243 -107 395 q-94 133 -265 133q-76 0 -142.5 -34.5t-111.5 -98.5q-107 -152 -107 -393z" />
<glyph unicode="R" horiz-adv-x="1181" d="M169 55v1365h294q167 0 259 -12q171 -24 264 -133q88 -103 88 -259q0 -270 -260 -375l336 -586h-249l-311 550h-210v-550h-211zM380 787h95q189 0 248 25q70 29 103 84q16 26 23 56.5t7 65.5q0 134 -107 187q-53 27 -148 32q-19 1 -52.5 1.5t-84.5 0.5h-84v-452z" />
<glyph unicode="S" horiz-adv-x="1140" d="M83 497h205q10 -127 70 -194q80 -89 226 -89q108 0 179 53q68 51 68 134q0 87 -89 149q-23 16 -78 42.5t-146 65.5q-208 89 -281 156q-109 102 -109 251q0 190 151 295q121 85 290 85q248 0 369 -169q63 -87 71 -234h-204q-7 87 -52 141q-66 78 -190 78q-90 0 -151 -43 q-72 -53 -72 -133q0 -76 76 -122q47 -29 232 -107q159 -67 217 -101q183 -110 183 -319q0 -201 -152 -315q-121 -91 -316 -91q-286 0 -416 186q-74 104 -81 281z" />
<glyph unicode="T" horiz-adv-x="992" d="M33 1239v181h927v-181h-359v-1184h-211v1184h-357z" />
<glyph unicode="U" horiz-adv-x="1334" d="M153 624v796h211v-793q0 -52 1 -88.5t3 -57.5q13 -144 95 -206q79 -61 204 -61q124 0 203 61q82 62 95 206q2 21 3 57.5t1 88.5v793h211v-796q0 -78 -2.5 -133.5t-7.5 -89.5q-22 -153 -132 -248q-143 -123 -371 -123q-230 0 -372 123q-109 94 -132 248q-5 34 -7.5 89.5 t-2.5 133.5z" />
<glyph unicode="V" horiz-adv-x="1202" d="M21 1420h226l356 -1123l354 1123h222l-472 -1369h-218z" />
<glyph unicode="W" horiz-adv-x="1691" d="M27 1420h199l262 -1111l268 1111h182l268 -1111l265 1111h194l-339 -1369h-236l-246 972l-243 -972h-235z" />
<glyph unicode="X" horiz-adv-x="1157" d="M30 55l427 712l-397 653h242l279 -470l282 470h242l-402 -653l425 -712h-241l-306 519l-311 -519h-240z" />
<glyph unicode="Y" horiz-adv-x="1103" d="M11 1420h239l305 -588l301 588h236l-435 -811v-554h-210v554z" />
<glyph unicode="Z" horiz-adv-x="1018" d="M54 55v165l657 1021h-604v179h860v-148l-664 -1035h647v-182h-896z" />
<glyph unicode="[" horiz-adv-x="602" d="M169 -343v1763h362v-161h-184v-1440h184v-162h-362z" />
<glyph unicode="\" horiz-adv-x="1153" d="M75 1420h167l836 -1719h-168z" />
<glyph unicode="]" horiz-adv-x="602" d="M71 -182h184v1440h-184v162h362v-1763h-362v161z" />
<glyph unicode="^" d="M33 775l347 651h265l347 -651h-214l-266 491l-266 -491h-213z" />
<glyph unicode="_" d="M0 -61h1024v-183h-1024v183z" />
<glyph unicode="`" d="M171 1470h261l238 -309h-157z" />
<glyph unicode="a" horiz-adv-x="1014" d="M90 310q0 208 223 292q54 20 143 41t222 44v27q0 86 -28 120q-42 52 -142 52q-165 0 -190 -133h-194q16 136 98 206q106 90 298 90q164 0 258 -70q74 -56 89 -175q6 -48 6 -136v-379q0 -85 7 -142.5t23 -91.5h-186q-8 29 -12 59t-5 61q-79 -142 -278 -142q-140 0 -228 63 q-104 74 -104 214zM296 333q0 -59 43 -99q46 -42 123 -42q131 0 187 102q29 53 29 179v75q-106 -16 -177.5 -34t-109.5 -40q-95 -53 -95 -141z" />
<glyph unicode="b" horiz-adv-x="1085" d="M134 55q6 35 8.5 101.5t2.5 163.5v1108h201v-533q30 51 86 94q78 60 185 60q142 0 244 -102q144 -146 144 -404q0 -262 -152 -408q-107 -102 -258 -102q-176 0 -265 156q-2 -77 -17 -134h-179zM345 538q0 -162 73 -259q55 -75 152 -75q94 0 147 65q42 51 62 119t20 156 q0 162 -68 257q-56 77 -156 77t-163 -87q-67 -91 -67 -253z" />
<glyph unicode="c" horiz-adv-x="987" d="M79 539q0 268 161 415q109 100 283 100q202 0 305 -142q57 -78 72 -206h-198q-13 78 -44 121q-44 63 -139 63q-100 0 -158 -78q-76 -100 -76 -274q0 -199 95 -294q52 -52 140 -52q113 0 161 91q20 39 30 112h196q-11 -150 -99 -252q-100 -115 -287 -115q-181 0 -299 117 q-143 141 -143 394z" />
<glyph unicode="d" horiz-adv-x="1084" d="M79 532q0 269 152 418q100 99 243 99q112 0 185 -55q17 -13 36.5 -35t41.5 -53v522h201v-1075q0 -72 1 -122t3 -79q2 -23 5.5 -47t8.5 -50h-190q-12 52 -12 95q0 8 0.5 18.5t1.5 23.5q-38 -65 -79 -97q-77 -62 -195 -62q-161 0 -265 107q-138 141 -138 392zM285 537 q0 -164 74 -262q53 -71 151 -71q96 0 150 66q81 97 81 270q0 166 -69 261q-56 77 -160 77q-94 0 -148 -68q-42 -51 -60.5 -118t-18.5 -155z" />
<glyph unicode="e" horiz-adv-x="1026" d="M79 528q0 141 41 245.5t116 173.5q116 107 291 107q206 0 321 -157q99 -135 99 -352v-20t-1 -28h-664q4 -127 54 -202q67 -102 203 -102q143 0 206 128l181 -13q-31 -104 -100 -172q-108 -108 -292 -108q-171 0 -288 96q-167 137 -167 404zM288 647h453q-29 246 -219 246 q-186 0 -234 -246z" />
<glyph unicode="f" horiz-adv-x="630" d="M33 868v159h133v61q0 181 47 255q72 113 234 113q89 0 191 -39v-170q-81 34 -155 34q-81 0 -103 -72q-6 -18 -8.5 -52.5t-2.5 -85.5v-44h235v-159h-233v-813h-205v813h-133z" />
<glyph unicode="g" horiz-adv-x="1040" d="M49 -76q0 112 85 176q43 31 115 57q-107 44 -107 116q0 62 67 105q20 13 47 25.5t59 25.5q-179 83 -179 278q0 157 109 250q103 88 273 88q62 0 171 -26l310 8v-146h-199q27 -27 47 -84q9 -27 14 -54.5t5 -56.5q0 -113 -63 -185q-53 -60 -170 -90q-42 -10 -193 -33 q-46 -7 -76 -28q-26 -20 -26 -42q0 -32 43 -42q34 -8 162 -21q226 -22 304 -63q60 -32 94 -92t34 -135q0 -158 -138 -242q-119 -72 -324 -72q-227 0 -355 86q-109 75 -109 197zM225 -60q0 -72 86 -110q84 -36 205 -36q134 0 208 47q57 36 57 96q0 146 -295 146 q-102 0 -179 -32q-82 -33 -82 -111zM316 709q0 -74 47 -119q51 -51 139 -51q90 0 141 51q47 47 47 119q0 77 -47 127q-48 54 -140 54q-84 0 -137 -53q-50 -50 -50 -128z" />
<glyph unicode="h" horiz-adv-x="1086" d="M145 55v1373h201v-512q108 133 279 133q103 0 186 -48q96 -56 123 -174q6 -28 9.5 -81t3.5 -131v-560h-201v526q0 142 -26 200q-41 90 -155 90q-124 0 -184 -108q-35 -65 -35 -193v-515h-201z" />
<glyph unicode="i" horiz-adv-x="495" d="M121 1313q0 62 39 97q37 33 91 33q51 0 85 -31q38 -35 38 -97q0 -56 -34 -90q-35 -35 -93 -35t-92 34t-34 89zM145 55v972h205v-972h-205z" />
<glyph unicode="j" horiz-adv-x="537" d="M-70 -149q11 -1 20 -1h15q155 0 203 87q19 33 22 112q0 11 0.5 40.5t0.5 78.5v859h205v-858q0 -85 -3.5 -140.5t-9.5 -84.5q-31 -149 -158 -220q-87 -48 -247 -48h-20t-28 1v174zM167 1314q0 61 39 96q36 33 92 33q53 0 84 -31q38 -35 38 -96q0 -57 -34 -91 q-35 -35 -93 -35t-92 34t-34 90z" />
<glyph unicode="k" horiz-adv-x="1046" d="M145 55v1373h201v-1373h-201zM350 578l381 449h243l-384 -445l415 -527h-272z" />
<glyph unicode="l" horiz-adv-x="495" d="M145 55v1373h205v-1373h-205z" />
<glyph unicode="m" horiz-adv-x="1642" d="M120 1027h196q10 -29 15 -61q4 -27 4 -57v-13q100 153 289 153q194 0 274 -162q112 162 308 162q195 0 263 -135q27 -56 33 -144q1 -10 1 -43.5v-91.5v-580h-201v577q0 128 -25 171q-41 68 -147 68q-206 0 -206 -255v-561h-201v556q0 138 -20 182q-35 78 -149 78 q-63 0 -111 -27.5t-71 -78.5q-26 -60 -26 -158v-552h-201v709q0 130 -6 180q-2 22 -7 42.5t-12 40.5z" />
<glyph unicode="n" horiz-adv-x="1080" d="M118 1027h194q10 -25 14.5 -57.5t5.5 -74.5q103 154 293 154q113 0 196 -57q97 -69 114 -203q6 -50 6 -174v-560h-201v526q0 149 -24 202q-40 88 -151 88q-125 0 -185 -106q-35 -62 -35 -191v-519h-201v632q0 184 -6 241q-2 18 -7 42.5t-13 56.5z" />
<glyph unicode="o" horiz-adv-x="1066" d="M79 538q0 121 39.5 224t111.5 172q126 120 308 120q173 0 298 -120q72 -69 111.5 -171t39.5 -223t-39.5 -222.5t-111.5 -170.5q-125 -119 -303 -119t-303 119q-72 69 -111.5 171t-39.5 220zM285 540q0 -159 75 -259q64 -88 173 -88t173 88q75 100 75 258q0 161 -75 262 q-66 89 -176 89q-105 0 -170 -89q-75 -101 -75 -261z" />
<glyph unicode="p" horiz-adv-x="1084" d="M127 1027h190q18 -44 18 -114v-14q97 150 270 150q150 0 251 -98q148 -145 148 -407q0 -272 -156 -419q-98 -92 -234 -92q-110 0 -190 59q-19 14 -38.5 35t-39.5 47v-522h-201v1075q0 115 -5 188.5t-13 111.5zM342 537q0 -166 76 -257q63 -76 161 -76q91 0 142 65 q77 98 77 269q0 173 -77 274q-51 66 -148 66q-93 0 -150 -69q-81 -98 -81 -272z" />
<glyph unicode="q" horiz-adv-x="1084" d="M79 534q0 269 149 415q103 100 257 100q179 0 263 -149v7q0 60 17 120h191q-5 -25 -8.5 -49.5t-5.5 -48.5q-2 -31 -3 -80.5t-1 -121.5v-1075h-201v520q-42 -59 -78 -84q-73 -55 -176 -55q-144 0 -247 93q-157 141 -157 408zM285 537q0 -172 79 -266q55 -67 150 -67 q100 0 159 80q68 95 68 253q0 174 -81 272q-56 69 -152 69q-89 0 -143 -67q-80 -101 -80 -274z" />
<glyph unicode="r" horiz-adv-x="723" d="M132 1027h192q15 -74 15 -150q0 -10 -0.5 -23.5t-1.5 -32.5q106 228 265 228q26 0 97 -20v-203q-77 44 -142 44q-123 0 -175 -133q-35 -91 -35 -238v-444h-202v656q0 118 -3.5 195.5t-9.5 120.5z" />
<glyph unicode="s" horiz-adv-x="949" d="M84 368h191q8 -83 42 -122q54 -61 163 -61q76 0 122 31q56 36 56 105q0 59 -64 93q-17 9 -69 27.5t-143 44.5q-145 43 -200 100q-64 67 -64 170q0 136 103 218q101 80 261 80q223 0 317 -142q44 -68 50 -168h-194q-9 70 -39 103q-45 51 -137 51q-69 0 -115 -34 q-45 -33 -45 -89q0 -52 42 -80q19 -13 66.5 -30t123.5 -40q69 -21 116.5 -38t74.5 -33q119 -68 119 -217q0 -141 -94 -223q-101 -86 -282 -86q-285 0 -369 178q-32 69 -32 162z" />
<glyph unicode="t" horiz-adv-x="691" d="M51 868l3 159h152l7 280h195l-5 -280h214l-3 -159h-214l-7 -430q-1 -38 -1 -69t1 -53q3 -104 101 -104q54 0 145 32l-3 -170q-101 -39 -196 -39q-158 0 -221 104q-34 55 -34 172q0 35 3 127l12 430h-149z" />
<glyph unicode="u" horiz-adv-x="1082" d="M139 447v580h201v-573q0 -130 34 -176q48 -67 149 -67q121 0 178 99q35 62 35 183v534h201v-674v-100t1 -56q1 -37 6.5 -72t16.5 -70h-193q-17 64 -20 120q-91 -142 -267 -142q-202 0 -293 148q-49 79 -49 266z" />
<glyph unicode="v" horiz-adv-x="961" d="M21 1027h212l246 -752l247 752h210l-345 -980h-225z" />
<glyph unicode="w" horiz-adv-x="1450" d="M29 1027h204l194 -726l214 726h166l213 -726l196 726h203l-287 -980h-209l-202 666l-200 -666h-209z" />
<glyph unicode="x" horiz-adv-x="969" d="M7 55l356 518l-307 454h239l190 -307l193 307h241l-310 -454l353 -518h-244l-233 359l-235 -359h-243z" />
<glyph unicode="y" horiz-adv-x="964" d="M33 1027h214l238 -773l247 773h210l-325 -925q-29 -81 -48.5 -133t-30.5 -75q-35 -75 -83 -125.5t-109 -80.5q-86 -43 -221 -43q-11 0 -28.5 0.5t-40.5 1.5v176q13 -1 22.5 -1h15.5q115 0 173 37q58 36 106 168z" />
<glyph unicode="z" horiz-adv-x="843" d="M46 55v155l503 651h-456v166h700v-150l-510 -656h509v-166h-746z" />
<glyph unicode="{" horiz-adv-x="602" d="M92 473v131q49 9 84 50q30 36 30 136v320q0 48 4 88.5t13 72.5q32 119 154 146q32 7 66.5 10.5t72.5 3.5q11 0 26.5 -0.5t35.5 -1.5v-155h-28q-126 0 -151 -54q-15 -32 -15 -134v-289q0 -112 -28 -167q-22 -46 -92 -92q69 -44 92 -91q28 -55 28 -167v-289q0 -110 19 -141 q29 -47 148 -47h27v-155q-19 -1 -34 -1.5t-28 -0.5q-42 0 -76.5 3.5t-62.5 9.5q-124 28 -154 148q-9 34 -13 74t-4 86v320q0 100 -30 136q-35 41 -84 50z" />
<glyph unicode="|" d="M411 -286v1706h201v-1706h-201z" />
<glyph unicode="}" horiz-adv-x="602" d="M24 -196q10 -1 17 -1h12q124 0 150 54q15 31 15 134v289q0 112 28 167q23 47 92 91q-70 46 -92 92q-28 55 -28 167v289q0 110 -19 141q-29 47 -146 47h-29v155q20 1 35 1.5t26 0.5q42 0 77 -3t63 -10q57 -13 98.5 -52.5t55.5 -94.5q9 -33 13 -73t4 -88v-320 q0 -100 30 -136q35 -41 84 -50v-131q-49 -9 -84 -50q-30 -36 -30 -136v-320q0 -45 -4 -85t-13 -75q-14 -57 -55.5 -96t-98.5 -52q-28 -7 -63 -10t-77 -3q-13 0 -28 0.5t-33 1.5v156z" />
<glyph unicode="~" horiz-adv-x="1365" d="M188 1301q25 51 43 85t32 54q83 119 218 119q69 0 223 -62q49 -20 81 -32.5t46 -16.5q34 -9 62 -9q67 0 111 45q13 13 27 33t30 46l117 -69q-64 -133 -130 -185q-82 -64 -180 -64q-63 0 -292 94q-62 26 -111 26q-62 0 -109 -53q-13 -14 -26.5 -35.5t-27.5 -49.5z" />
<glyph unicode="&#xa1;" horiz-adv-x="906" d="M12 1248h114q5 -50 26 -73q31 -37 97 -37q46 0 74 19q33 21 33 63q0 35 -38 55q-20 11 -127 44q-86 25 -120 60q-39 39 -39 102q0 80 62 130q60 48 157 48q133 0 190 -85q14 -20 21 -45t9 -56h-117q-5 44 -23 62q-28 31 -82 31q-41 0 -69 -21q-27 -20 -27 -53 q0 -32 25 -48q11 -8 39.5 -18t74.5 -24q42 -13 70 -23t45 -20q71 -41 71 -130q0 -84 -56 -134q-60 -51 -170 -51q-168 0 -221 107q-19 39 -19 97zM523 1548l2 95h91l4 168h117l-3 -168h128l-1 -95h-129l-4 -258q0 -23 -0.5 -41t0.5 -32q1 -63 61 -63q18 0 39.5 5t47.5 14 l-2 -102q-67 -23 -118 -23q-94 0 -132 62q-21 34 -21 104q0 10 0.5 29t1.5 47l7 258h-89z" />
<glyph unicode="&#xa2;" horiz-adv-x="1003" d="M25 1553l1 96h92l4 168h117l-3 -168h128l-2 -96h-128l-4 -258q0 -23 -0.5 -41t0.5 -32q2 -62 60 -62q45 0 87 19l-1 -102q-64 -23 -118 -23q-95 0 -133 62q-20 35 -20 103q0 11 0.5 30t1.5 46l7 258h-89zM485 1066v823h120v-307q65 80 168 80q61 0 111 -29 q57 -32 74 -104q4 -19 6 -50.5t2 -76.5v-336h-121v315q0 87 -15 120q-26 54 -93 54q-76 0 -111 -65q-21 -38 -21 -115v-309h-120z" />
<glyph unicode="&#xa3;" horiz-adv-x="989" d="M14 1648h115q9 -44 9 -90v-13.5t-1 -19.5q65 137 159 137q11 0 25 -3.5t33 -8.5v-122q-47 26 -85 26q-72 0 -105 -80q-21 -51 -21 -142v-267h-121v394q0 72 -2 117.5t-6 71.5zM424 1351q0 163 91 251q61 60 146 60q67 0 111 -33q21 -17 47 -53v313h121v-645v-74t2 -47 q2 -14 3.5 -28t4.5 -30h-114q-3 16 -5 30t-2 27q0 5 0.5 11t0.5 14q-22 -37 -47 -58q-46 -37 -117 -37q-95 0 -159 64q-83 86 -83 235zM527 1354q0 -99 45 -157q31 -42 90 -42q58 0 90 39q49 58 49 162q0 100 -42 157q-34 46 -96 46q-55 0 -88 -41q-26 -31 -37 -70.5 t-11 -93.5z" />
<glyph unicode="&#xa4;" horiz-adv-x="1365" d="M76 1297l113 113l203 -203q138 96 292 96q153 0 286 -94l202 200l112 -112l-201 -200q99 -140 99 -288q0 -151 -96 -286l202 -202l-110 -113l-203 202q-136 -97 -291 -97q-145 0 -292 96l-201 -200l-112 111l201 202q-97 127 -97 287q0 148 98 285zM370 808 q0 -129 92 -221q91 -93 221 -93q128 0 221 93q91 91 91 220q0 133 -91 223q-95 92 -225 92q-126 0 -218 -92q-91 -91 -91 -222z" />
<glyph unicode="&#xa5;" horiz-adv-x="1403" d="M251 1115v590h131l146 -491l146 491h131v-590h-85v490l-146 -490h-93l-146 490v-490h-84zM903 1403q0 163 90 246q67 62 162 62q111 0 165 -78q29 -41 37 -111h-81q-21 109 -121 109q-70 0 -112 -57q-44 -62 -44 -170q0 -106 46 -170q42 -56 111 -56q112 0 127 143h83 q-4 -80 -35 -130q-27 -46 -69.5 -69.5t-102.5 -23.5q-103 0 -175 72q-81 84 -81 233z" />
<glyph unicode="&#xa6;" d="M411 -286v655h201v-655h-201zM411 726v694h201v-694h-201z" />
<glyph unicode="&#xa7;" horiz-adv-x="6306" d="M15 346q0 64 11.5 132t33 134t52.5 128.5t69 115.5q138 191 305 191q46 0 76.5 -18t52.5 -56l53 215q21 82 21 111q0 20 -14 28.5t-46 8.5h-35l15 53q38 3 82.5 9.5t90.5 16t92.5 21.5t88.5 25l-270 -1086q-9 -36 -15 -61t-9.5 -44t-5 -33t-1.5 -28q0 -25 10.5 -41 t26.5 -16q23 0 45.5 30.5t50.5 96.5l51 -29q-24 -57 -48.5 -98t-51.5 -67t-58.5 -38t-70.5 -12q-130 0 -168 125q-37 -66 -82 -95.5t-106 -29.5q-56 0 -101 22.5t-77.5 63.5t-50 98t-17.5 127zM215 213q0 -55 18.5 -88t49.5 -33q94 0 186 306q19 64 36.5 134t31 134.5 t21.5 117.5t8 83q0 63 -16 92t-50 31q-54 3 -111 -99.5t-112 -314.5q-14 -53 -25.5 -104.5t-19.5 -98.5t-12.5 -88t-4.5 -72zM1042 334q0 67 12 138.5t34.5 140.5t54.5 132.5t71 114.5q142 187 330 187q100 0 157.5 -57t57.5 -156q0 -97 -56 -180t-165 -146 q-62 -36 -124.5 -53t-143.5 -23q-11 -47 -16 -81.5t-5 -69.5q0 -75 31.5 -119.5t85.5 -44.5q69 0 131.5 64t110.5 182h79q-127 -328 -385 -328q-59 0 -107 21t-82 60t-52.5 94.5t-18.5 123.5zM1288 506q8 0 12 0.5t17 1.5q49 3 95.5 37t82.5 88.5t58 123t22 140.5 q0 42 -13 67.5t-36 25.5q-28 0 -59.5 -36t-63 -100t-61.5 -153t-54 -195zM1871 174l41 230h59q-3 -37 -4.5 -55t-1.5 -35q0 -47 12 -85.5t33 -66t50.5 -42.5t64.5 -15q36 0 67.5 16t54.5 44.5t36.5 66.5t13.5 82q0 22 -4 39.5t-14 34t-27 33t-43 36.5q-67 52 -108.5 88.5 t-64 67.5t-30.5 61.5t-8 69.5q0 65 23.5 121t65 97t98 64t122.5 23q20 0 37 -2t34 -6.5t36 -11.5t43 -17q36 -16 55 -16q13 0 26.5 5.5t41.5 22.5l-62 -276h-65q2 18 3 33.5t1 29.5q0 76 -35.5 121t-95.5 45q-29 0 -55.5 -11.5t-46.5 -31t-32 -46t-12 -56.5q0 -32 16 -57 t56 -56q43 -33 70 -54t45 -35.5t30 -26t25 -25.5q34 -35 52 -79.5t18 -96.5q0 -78 -27.5 -145.5t-76.5 -117t-115 -78t-144 -28.5q-43 0 -77 7.5t-64 24t-58 43.5t-59 66zM2743 207q0 32 10.5 85t30.5 128l111 410q5 20 8.5 39.5t3.5 31.5t-4 19t-14.5 11t-29.5 5.5t-48 1.5 l16 54q41 4 86.5 11t92 16.5t92 20.5t87.5 23l-202 -749q-8 -28 -12.5 -47t-7.5 -32.5t-4 -23.5t-1 -20q0 -43 25 -43q11 0 20.5 6t19.5 21t21.5 41.5t26.5 68.5l53 -18q-55 -232 -219 -232q-36 0 -66 13t-51 35.5t-33 54t-12 69.5zM3007 1313q0 30 11 57t30.5 47t44.5 32 t54 12q24 0 45.5 -10t37 -27.5t24.5 -40.5t9 -49q0 -31 -11 -58t-30 -47.5t-43.5 -32.5t-52.5 -12q-26 0 -47.5 9.5t-37.5 27t-25 41t-9 51.5zM3258 -143q0 169 178 227q-29 29 -42 56t-13 61q0 33 10 61.5t33 54.5t60 52t91 55q-63 42 -92.5 96t-29.5 130q0 75 28.5 150 t79.5 132q103 115 256 115q60 0 100 -15.5t78 -52.5l193 11l-27 -103h-121q10 -23 13.5 -45t3.5 -53q0 -85 -28.5 -162.5t-76.5 -128.5q-24 -26 -49 -44t-55.5 -29t-68 -16t-85.5 -5q-75 -25 -109 -52.5t-34 -64.5q0 -17 20 -31q6 -4 12 -6.5t18 -5t35 -4.5t64 -6 q85 -8 142 -23t91 -41.5t48 -66t14 -97.5q0 -86 -29.5 -155t-83.5 -118t-131.5 -75t-173.5 -26q-74 0 -133.5 15.5t-100.5 44.5t-63 70.5t-22 94.5zM3340 -141q0 -75 62 -114.5t180 -39.5q103 0 161 52.5t58 146.5q0 34 -14 57.5t-45.5 38.5t-81.5 22t-121 7 q-94 0 -146.5 -44.5t-52.5 -125.5zM3635 543q0 -42 16.5 -67t44.5 -25q35 0 66 44.5t61 141.5q12 38 22 76.5t16.5 73.5t10.5 64.5t4 49.5q0 89 -55 89q-37 0 -66 -38t-57 -124q-14 -40 -25.5 -81.5t-19.5 -80t-13 -70.5t-5 -53zM4339 58l182 731l6 28l7 31q6 28 6 45 q0 25 -20.5 33t-78.5 10l15 54q158 18 297 59q2 -17 3 -30t1 -21q0 -20 -1.5 -38.5t-4.5 -41.5q100 129 243 129q41 0 74.5 -13t57 -36t36.5 -55.5t13 -71.5q0 -38 -7.5 -84t-23.5 -109l-70 -282q-15 -59 -23 -93t-12 -53.5t-5 -30t-1 -22.5q0 -23 9 -36t24 -13q13 0 23.5 7 t20.5 23t20 42.5t22 64.5l53 -16q-51 -234 -217 -234q-37 0 -68.5 13t-54.5 36t-36 54.5t-13 68.5q0 31 7.5 70.5t21.5 99.5l88 361q7 28 11.5 58.5t4.5 53.5q0 38 -16.5 63t-42.5 25q-56 0 -94.5 -55.5t-69.5 -177.5l-162 -647h-225zM5432 369q0 66 11.5 135t32.5 135 t51.5 126t68.5 108q66 85 150 129.5t178 44.5q61 0 111 -23t84.5 -66t53.5 -104.5t19 -138.5q0 -62 -9.5 -126t-28 -126t-44.5 -119t-59 -104q-72 -103 -160 -154t-188 -51q-64 0 -114 23t-85 66t-53.5 105t-18.5 140zM5633 230q0 -138 80 -138q24 0 45 13t41.5 42 t41.5 74.5t44 110.5q24 67 43.5 139.5t34 142.5t22 133.5t7.5 112.5q0 63 -20.5 96.5t-57.5 33.5q-51 0 -96 -68t-91 -215q-22 -71 -39.5 -139t-29.5 -129.5t-18.5 -114.5t-6.5 -94z" />
<glyph unicode="&#xa8;" d="M211 1321q0 53 36 89q37 36 90 36q51 0 87 -36t36 -88t-36 -88q-37 -37 -88 -37q-52 0 -89 37q-36 36 -36 87zM565 1321q0 53 37 89t89 36q50 0 86 -36q37 -37 37 -88t-37 -88t-87 -37q-51 0 -88 37t-37 87z" />
<glyph unicode="&#xa9;" horiz-adv-x="880" d="M147 1398q0 97 49 179q51 81 136 124q73 37 159 37q90 0 173 -50q81 -50 125 -135q37 -73 37 -155q0 -71 -25.5 -131.5t-73.5 -108.5t-109 -73.5t-132 -25.5t-131.5 25.5t-108.5 73.5t-73.5 108.5t-25.5 131.5zM200 1398q0 -58 21.5 -111t63.5 -96q82 -85 202 -85t202 85 q42 43 63 95.5t21 111.5q0 61 -22 113.5t-63 93.5q-85 85 -204 85q-56 0 -106.5 -21.5t-92.5 -63.5q-41 -41 -63 -92.5t-22 -114.5zM322 1401q0 109 64 165q49 41 115 41q77 0 118 -52q24 -32 27 -78h-61q-15 72 -84 72q-49 0 -77 -36q-31 -45 -31 -110q0 -70 34 -111 q29 -35 76 -35q79 0 85 94h63q-1 -51 -25 -90q-19 -31 -50 -46t-73 -15q-74 0 -123 46q-58 55 -58 155z" />
<glyph unicode="&#xaa;" d="M228 622v95h554v-95h-554zM246 989q0 109 109 167q22 11 50.5 22t63.5 19l123 26l23 5v17q0 85 -104 85q-105 0 -118 -87h-128q6 87 63 136q67 57 191 57q158 0 204 -91q21 -39 21 -141v-227q0 -102 21 -145h-125q-11 36 -12 63q-61 -76 -173 -76q-87 0 -143 38 q-66 46 -66 132zM382 1004q0 -35 25 -57q25 -24 73 -24q82 0 117 59q18 31 18 105v48q-62 -13 -105 -25t-69 -25q-59 -30 -59 -81z" />
<glyph unicode="&#xab;" horiz-adv-x="898" d="M70 531l205 500h163l-172 -500l172 -476h-163zM400 531l205 500h163l-172 -500l172 -476h-163z" />
<glyph unicode="&#xac;" d="M68 413v188h887v-546h-201v358h-686z" />
<glyph unicode="&#xad;" horiz-adv-x="547" d="M0 496v150h547v-150h-547z" />
<glyph unicode="&#xae;" horiz-adv-x="904" d="M167 1388q0 97 49 179q51 81 136 124q73 37 159 37q90 0 173 -50q81 -50 125 -135q37 -73 37 -155q0 -71 -25.5 -131.5t-73.5 -108.5t-109 -73.5t-132 -25.5t-131.5 25.5t-108.5 73.5t-73.5 108.5t-25.5 131.5zM216 1388q0 -121 86 -210q83 -85 205 -85q117 0 204 85 q86 88 86 210q0 63 -22.5 116t-64.5 95q-87 85 -206 85q-56 0 -107.5 -22t-93.5 -63q-87 -89 -87 -211zM380 1190v393h91q84 0 122 -16q33 -12 51 -47q6 -13 9.5 -26t3.5 -28q0 -76 -77 -108l101 -168h-80l-93 156h-60v-156h-68zM448 1403h27q26 0 43.5 1t29.5 6 q38 14 38 56q0 38 -30 50q-12 5 -33 7.5t-52 2.5h-23v-123z" />
<glyph unicode="&#xaf;" d="M224 1251v131h576v-131h-576z" />
<glyph unicode="&#xb0;" d="M210 1149q0 125 88 209q91 87 218 87q121 0 210 -86q88 -85 88 -209t-87 -209q-88 -88 -215 -88q-126 0 -214 88q-88 87 -88 208zM336 1150q0 -74 51 -123q52 -51 125 -51t125 52q51 49 51 121q0 73 -52 122q-53 51 -126 51q-71 0 -123 -51q-51 -50 -51 -121z" />
<glyph unicode="&#xb1;" horiz-adv-x="1133" d="M103 82v154h927v-154h-927zM103 693v152h384v399h158v-399h385v-152h-385v-348h-158v348h-384z" />
<glyph unicode="&#xb2;" horiz-adv-x="739" d="M112 587v105l20 24q94 112 159.5 186.5t102.5 119.5q93 112 93 170q0 42 -31 67t-81 25q-122 0 -132 -133h-122q0 72 19 113q36 77 108 111q58 27 133 27q107 0 178 -56q70 -55 70 -152q0 -71 -52 -147q-28 -40 -98 -121.5t-185 -216.5h344v-122h-526z" />
<glyph unicode="&#xb3;" horiz-adv-x="739" d="M82 838h126q0 -134 149 -134q69 0 106 34q39 34 39 95q0 85 -80 115q-17 6 -44.5 9.5t-67.5 3.5h-15t-22 -1v113q13 -1 22.5 -1h15.5q172 0 172 120q0 45 -31 73t-86 28q-112 0 -128 -114h-121q5 101 60 158q70 72 200 72q114 0 182 -59q64 -58 64 -148q0 -122 -120 -176 q138 -47 138 -193q0 -121 -95 -192q-72 -54 -185 -54q-164 0 -238 100q-43 56 -41 151z" />
<glyph unicode="&#xb4;" d="M387 1161l238 309h261l-342 -309h-157z" />
<glyph unicode="&#xb5;" d="M76 -293v1331h201v-540q0 -112 20 -169q14 -42 41.5 -71.5t65.5 -48.5q49 -25 107 -25q107 0 173 84q37 49 51 107q12 48 12 136v527h201v-983h-201v148q-17 -36 -35.5 -63.5t-38.5 -45.5q-71 -62 -168 -62q-143 0 -228 139v-464h-201z" />
<glyph unicode="&#xb6;" horiz-adv-x="1271" d="M49 1057q0 119 62 211q66 100 212 133q42 9 90.5 14t108.5 5h602v-158h-136v-1402h-174v1402h-193v-1402h-174v846q-10 -1 -17.5 -1h-12.5q-145 0 -246 80q-122 98 -122 272z" />
<glyph unicode="&#xb7;" horiz-adv-x="518" d="M120 568q0 58 40 98q42 41 100 41q56 0 97 -41q40 -40 40 -98q0 -57 -41 -98q-40 -40 -97 -40q-58 0 -99 41q-40 40 -40 97z" />
<glyph unicode="&#xb8;" d="M327 -273q71 -34 121 -34q47 0 72 22q35 29 35 80q0 68 -56 91q-36 14 -73 14q-17 0 -48 -3l60 158h118l-41 -102q182 -32 182 -173q0 -89 -66 -143q-59 -47 -139 -47q-74 0 -165 48v89z" />
<glyph unicode="&#xb9;" horiz-adv-x="739" d="M159 1176v82q43 1 75.5 9t55.5 25q41 31 58 99h97v-804h-138v589h-148z" />
<glyph unicode="&#xba;" d="M227 1126q0 153 94 238q79 73 194 73q109 0 188 -73q94 -87 94 -237q0 -151 -94 -238q-79 -73 -191 -73t-191 73q-94 87 -94 237zM235 622v95h554v-95h-554zM363 1127q0 -95 45 -153q40 -51 104 -51q65 0 104 51q45 58 45 152t-45 153q-41 51 -106 51q-62 0 -102 -51 q-45 -59 -45 -152z" />
<glyph unicode="&#xbb;" horiz-adv-x="898" d="M130 55l172 499l-172 477h163l205 -477l-205 -499h-163zM460 55l172 499l-172 477h163l205 -477l-205 -499h-163z" />
<glyph unicode="&#xbc;" horiz-adv-x="1746" d="M159 1176v82q86 1 131 34q42 32 58 99h97v-804h-138v589h-148zM404 55l773 1331h165l-774 -1331h-164zM1060 231v103l329 524h150v-516h148v-111h-145v-185h-140v185h-342zM1196 342h212v350z" />
<glyph unicode="&#xbd;" horiz-adv-x="1746" d="M159 1176v82q85 1 130 34q43 31 58 99h97v-804h-138v589h-147zM404 55l773 1331h165l-774 -1331h-164zM1118 55v105l102 118q81 94 135.5 158t80.5 99q57 76 57 125q0 41 -31 66q-32 26 -81 26q-122 0 -132 -133h-122q1 103 49 163q70 88 211 88q107 0 178 -56 q70 -55 70 -152q0 -72 -52 -148q-59 -86 -283 -337h344v-122h-526z" />
<glyph unicode="&#xbe;" horiz-adv-x="1745" d="M82 838h126q0 -134 149 -134q69 0 106 34q39 34 39 95q0 85 -80 115q-17 6 -44.5 9.5t-67.5 3.5h-15t-22 -1v113q13 -1 22.5 -1h15.5q172 0 172 120q0 45 -31 73t-86 28q-112 0 -128 -114h-121q5 101 60 158q70 72 200 72q114 0 182 -59q64 -58 64 -148q0 -122 -120 -176 q138 -47 138 -192q0 -122 -95 -193q-72 -54 -185 -54q-164 0 -238 100q-43 56 -41 151zM404 55l774 1331h165l-774 -1331h-165zM1060 231v103l330 524h150v-516h147v-111h-144v-185h-140v185h-343zM1197 342h213v350z" />
<glyph unicode="&#xbf;" horiz-adv-x="849" d="M84 -45q0 49 13 94t41 84q17 24 45 57t70 76q87 91 103 140q12 37 12 126v25t-1 35h190v-23q0 -78 -2.5 -129t-8.5 -79q-10 -46 -43 -91q-27 -38 -81 -96q-38 -40 -61.5 -68t-34.5 -45q-14 -23 -20.5 -47t-6.5 -48q0 -63 42 -99q38 -32 101 -32q154 0 168 179h165 q-6 -164 -74 -244q-99 -115 -284 -115q-152 0 -239 75q-94 82 -94 225zM322 889q0 58 41 99q40 40 99 40q56 0 97 -41q40 -40 40 -98q0 -57 -40 -97q-41 -41 -98 -41q-58 0 -99 41q-40 40 -40 97z" />
<glyph unicode="&#xc0;" horiz-adv-x="1198" d="M31 55l465 1369h205l467 -1369h-219l-101 320h-497l-103 -320h-217zM166 1849h261l314 -308h-195zM406 557h386l-193 614z" />
<glyph unicode="&#xc1;" horiz-adv-x="1198" d="M30 55l465 1369h205l467 -1369h-219l-101 320h-497l-103 -320h-217zM405 557h386l-193 614zM456 1541l313 308h262l-381 -308h-194z" />
<glyph unicode="&#xc2;" horiz-adv-x="1198" d="M30 55l465 1369h205l467 -1369h-219l-101 320h-497l-103 -320h-217zM232 1555l274 279h185l275 -279h-194l-173 169l-173 -169h-194zM405 557h386l-193 614z" />
<glyph unicode="&#xc3;" horiz-adv-x="1198" d="M30 55l465 1369h205l467 -1369h-219l-101 320h-497l-103 -320h-217zM261 1596q56 209 202 209q56 0 148 -42q99 -45 136 -45q67 0 106 100l96 -30q-14 -69 -39 -114q-60 -103 -158 -103q-60 0 -151 39q-84 36 -102 42q-17 6 -36 6q-76 0 -98 -93zM405 557h386l-193 614z " />
<glyph unicode="&#xc4;" horiz-adv-x="1198" d="M30 55l465 1369h205l467 -1369h-219l-101 320h-497l-103 -320h-217zM277 1694q0 57 39 96q40 39 97 39q55 0 94 -39t39 -96q0 -56 -39 -95t-96 -39q-56 0 -95 39t-39 95zM405 557h386l-193 614zM651 1694q0 57 39 96q40 39 97 39q55 0 94 -39t39 -96q0 -56 -39 -95 t-95 -39q-57 0 -96 39t-39 95z" />
<glyph unicode="&#xc5;" horiz-adv-x="1198" d="M30 55l465 1369h205l467 -1369h-219l-101 320h-497l-103 -320h-217zM402 1711q0 83 58 140t141 57q80 0 137 -57t57 -140q0 -81 -57 -138q-58 -58 -139 -58q-82 0 -139 58q-58 58 -58 138zM405 557h386l-193 614zM498 1711q0 -40 30 -70t71 -30t71 30q29 29 29 70 q0 43 -29 72q-31 29 -73 29q-40 0 -69 -29q-30 -30 -30 -72z" />
<glyph unicode="&#xc6;" horiz-adv-x="1815" d="M32 55l800 1365h901v-181h-584v-388h533v-182h-533v-432h595v-182h-810v320h-488l-183 -320h-231zM552 557h382v673z" />
<glyph unicode="&#xc7;" horiz-adv-x="1230" d="M87 736q0 384 217 574q154 135 369 135q132 0 225 -45.5t156 -133.5q71 -98 84 -259h-187q-50 254 -281 254q-159 0 -250 -123q-111 -149 -111 -403q0 -244 107 -393q93 -128 256 -128q263 0 294 328h193q-12 -238 -126 -365q-129 -145 -341 -147l-33 -94q82 -13 131 -49 q76 -55 76 -151q0 -99 -75 -162q-65 -54 -157 -54q-80 0 -186 55v101q90 -39 136 -39q49 0 81 26q39 31 39 91q0 75 -64 103q-35 15 -79 15q-11 0 -25 -1.5t-32 -3.5l58 175q-118 18 -230 103q-245 183 -245 591z" />
<glyph unicode="&#xc8;" horiz-adv-x="1066" d="M164 55v1365h808v-181h-597v-386h548v-182h-548v-434h615v-182h-826zM173 1849h261l314 -308h-195z" />
<glyph unicode="&#xc9;" horiz-adv-x="1066" d="M169 55v1365h808v-181h-597v-386h548v-182h-548v-434h615v-182h-826zM394 1541l313 308h262l-381 -308h-194z" />
<glyph unicode="&#xca;" horiz-adv-x="1066" d="M169 55v1365h808v-181h-597v-386h548v-182h-548v-434h615v-182h-826zM208 1555l275 279h185l274 -279h-193l-174 169l-172 -169h-195z" />
<glyph unicode="&#xcb;" horiz-adv-x="1066" d="M169 55v1365h808v-181h-597v-386h548v-182h-548v-434h615v-182h-826zM254 1694q0 57 39 96q40 39 97 39q53 0 94 -39q39 -39 39 -96q0 -56 -39 -95t-95 -39q-57 0 -96 39t-39 95zM627 1694q0 57 40 96t96 39q53 0 94 -39q39 -39 39 -96q0 -56 -39 -95t-95 -39t-95 39 q-40 40 -40 95z" />
<glyph unicode="&#xcc;" horiz-adv-x="550" d="M-98 1849h248l259 -308h-181zM168 55v1365h213v-1365h-213z" />
<glyph unicode="&#xcd;" horiz-adv-x="550" d="M141 1541l259 308h248l-326 -308h-181zM168 55v1365h214v-1365h-214z" />
<glyph unicode="&#xce;" horiz-adv-x="550" d="M-44 1555l226 279h185l227 -279h-186l-133 169l-131 -169h-188zM168 55v1365h213v-1365h-213z" />
<glyph unicode="&#xcf;" horiz-adv-x="550" d="M-17 1693q0 53 38 91t93 38q51 0 89 -38t38 -91t-38 -91t-91 -38t-91 38t-38 91zM169 55v1365h213v-1365h-213zM310 1693q0 53 38 91t93 38q51 0 89 -38t38 -91t-38 -91t-91 -38t-91 38t-38 91z" />
<glyph unicode="&#xd0;" horiz-adv-x="1304" d="M47 683v171h123v566h277q85 0 151.5 -4t120.5 -12q221 -35 351 -205q146 -191 146 -461q0 -278 -149 -469q-136 -174 -368 -202q-95 -12 -281 -12h-248v628h-123zM381 237h110q63 0 110 2.5t81 8.5q154 25 233 155q83 137 83 337q0 205 -92 340q-42 61 -101 98.5 t-135 49.5q-35 6 -92 8.5t-138 2.5h-59v-385h297v-171h-297v-446z" />
<glyph unicode="&#xd1;" horiz-adv-x="1368" d="M169 55v1365h227l602 -1043v1043h200v-1365h-218l-610 1041v-1041h-201zM352 1596q56 209 201 209q56 0 148 -42q99 -45 137 -45q67 0 106 100l95 -30q-14 -69 -39 -114q-58 -103 -157 -103q-31 0 -68.5 10t-83.5 29l-101 42q-17 6 -37 6q-76 0 -98 -93z" />
<glyph unicode="&#xd2;" horiz-adv-x="1353" d="M88 735q0 387 230 581q153 129 366 129q199 0 351 -129q230 -197 230 -579q0 -381 -230 -578q-150 -129 -359 -129q-208 0 -358 129q-230 197 -230 576zM284 1849h261l314 -308h-195zM310 737q0 -253 109 -401q91 -124 257 -124q167 0 258 124q109 148 109 399 q0 259 -109 404q-93 124 -263 124q-75 0 -141 -33t-111 -91q-58 -75 -83.5 -173.5t-25.5 -228.5z" />
<glyph unicode="&#xd3;" horiz-adv-x="1353" d="M88 735q0 387 230 581q153 129 366 129q199 0 351 -129q230 -197 230 -579q0 -381 -230 -578q-150 -129 -359 -129q-208 0 -358 129q-230 197 -230 576zM310 737q0 -253 109 -401q91 -124 257 -124q167 0 258 124q109 148 109 399q0 259 -109 404q-93 124 -263 124 q-75 0 -141 -33t-111 -91q-58 -75 -83.5 -173.5t-25.5 -228.5zM495 1541l314 308h261l-380 -308h-195z" />
<glyph unicode="&#xd4;" horiz-adv-x="1353" d="M88 735q0 387 230 581q153 129 366 129q199 0 351 -129q230 -197 230 -579q0 -381 -230 -578q-150 -129 -359 -129q-208 0 -358 129q-230 197 -230 576zM310 737q0 -253 109 -401q91 -124 257 -124q167 0 258 124q109 148 109 399q0 259 -109 404q-93 124 -263 124 q-75 0 -141 -33t-111 -91q-58 -75 -83.5 -173.5t-25.5 -228.5zM310 1555l274 279h185l274 -279h-193l-173 169l-173 -169h-194z" />
<glyph unicode="&#xd5;" horiz-adv-x="1353" d="M88 735q0 387 230 581q153 129 366 129q199 0 351 -129q230 -197 230 -579q0 -381 -230 -578q-150 -129 -359 -129q-208 0 -358 129q-230 197 -230 576zM310 737q0 -253 109 -401q91 -124 257 -124q167 0 258 124q109 148 109 399q0 259 -109 404q-93 124 -263 124 q-75 0 -141 -33t-111 -91q-58 -75 -83.5 -173.5t-25.5 -228.5zM343 1596q56 209 201 209q56 0 148 -42q99 -45 137 -45q67 0 106 100l95 -30q-7 -34 -16 -62.5t-23 -51.5q-61 -103 -157 -103q-61 0 -152 39q-42 18 -67.5 28.5t-33.5 13.5q-17 6 -37 6q-76 0 -97 -93z" />
<glyph unicode="&#xd6;" horiz-adv-x="1353" d="M88 735q0 387 230 581q153 129 366 129q199 0 351 -129q230 -197 230 -579q0 -381 -230 -578q-150 -129 -359 -129q-208 0 -358 129q-230 197 -230 576zM310 737q0 -253 109 -401q91 -124 257 -124q167 0 258 124q109 148 109 399q0 259 -109 404q-93 124 -263 124 q-75 0 -141 -33t-111 -91q-58 -75 -83.5 -173.5t-25.5 -228.5zM355 1694q0 57 40 96t96 39q55 0 94 -39t39 -96q0 -56 -39 -95t-95 -39t-95 39q-40 40 -40 95zM729 1694q0 57 40 96t96 39q55 0 94 -39t39 -96q0 -56 -39 -95t-95 -39t-95 39q-40 40 -40 95z" />
<glyph unicode="&#xd7;" horiz-adv-x="1133" d="M162 442l298 297l-292 292l109 109l291 -292l293 292l110 -110l-294 -291l293 -293l-109 -108l-291 291l-298 -297z" />
<glyph unicode="&#xd8;" horiz-adv-x="1353" d="M75 41l153 210q-60 89 -86 157q-54 142 -54 330q0 402 247 592q148 115 341 115t354 -122l84 111h164l-157 -206q144 -189 144 -495q0 -255 -118 -444q-99 -157 -258 -218q-54 -21 -106.5 -31t-103.5 -10q-202 0 -359 126l-85 -115h-160zM310 730q0 -129 56 -292l540 731 q-98 93 -230 93q-155 0 -244 -113q-122 -155 -122 -419zM442 312q103 -100 239 -100q151 0 240 113q122 155 122 418q0 138 -59 309z" />
<glyph unicode="&#xd9;" horiz-adv-x="1334" d="M153 624v796h211v-793q0 -52 1 -88.5t3 -57.5q13 -144 95 -206q79 -61 204 -61q124 0 203 61q82 62 95 206q2 21 3 57.5t1 88.5v793h211v-796q0 -78 -2.5 -133.5t-7.5 -89.5q-22 -153 -132 -248q-143 -123 -371 -123q-230 0 -372 123q-109 94 -132 248q-5 34 -7.5 89.5 t-2.5 133.5zM282 1849h261l314 -308h-195z" />
<glyph unicode="&#xda;" horiz-adv-x="1334" d="M153 624v796h211v-793q0 -52 1 -88.5t3 -57.5q13 -144 95 -206q79 -61 204 -61q124 0 203 61q82 62 95 206q2 21 3 57.5t1 88.5v793h211v-796q0 -78 -2.5 -133.5t-7.5 -89.5q-22 -153 -132 -248q-143 -123 -371 -123q-230 0 -372 123q-109 94 -132 248q-5 34 -7.5 89.5 t-2.5 133.5zM478 1541l314 308h262l-381 -308h-195z" />
<glyph unicode="&#xdb;" horiz-adv-x="1334" d="M153 624v796h211v-793q0 -52 1 -88.5t3 -57.5q13 -144 95 -206q79 -61 204 -61q124 0 203 61q82 62 95 206q2 21 3 57.5t1 88.5v793h211v-796q0 -78 -2.5 -133.5t-7.5 -89.5q-22 -153 -132 -248q-143 -123 -371 -123q-230 0 -372 123q-109 94 -132 248q-5 34 -7.5 89.5 t-2.5 133.5zM300 1555l274 279h185l275 -279h-194l-173 169l-172 -169h-195z" />
<glyph unicode="&#xdc;" horiz-adv-x="1334" d="M153 624v796h211v-793q0 -52 1 -88.5t3 -57.5q13 -144 95 -206q79 -61 204 -61q124 0 203 61q82 62 95 206q2 21 3 57.5t1 88.5v793h211v-796q0 -78 -2.5 -133.5t-7.5 -89.5q-22 -153 -132 -248q-143 -123 -371 -123q-230 0 -372 123q-109 94 -132 248q-5 34 -7.5 89.5 t-2.5 133.5zM345 1694q0 57 40 96t96 39q53 0 94 -39q39 -39 39 -96q0 -56 -39 -95t-95 -39t-95 39q-40 40 -40 95zM719 1694q0 57 39 96q40 39 97 39q54 0 93 -39q40 -40 40 -96q0 -55 -40 -95q-39 -39 -94 -39q-57 0 -96 39t-39 95z" />
<glyph unicode="&#xdd;" horiz-adv-x="1103" d="M11 1420h239l304 -588l302 588h236l-435 -811v-554h-210v554zM372 1541l314 308h261l-380 -308h-195z" />
<glyph unicode="&#xde;" horiz-adv-x="1119" d="M169 55v1365h211v-159h64q266 0 383 -39q127 -42 193 -158q55 -97 55 -224q0 -185 -111 -294q-97 -97 -284 -112q-78 -6 -209 -6h-91v-373h-211zM380 610h90q88 0 149.5 4.5t96.5 15.5q73 22 111 87q30 52 30 123q0 156 -114 207q-55 24 -146 30q-44 3 -129 3h-88v-470z " />
<glyph unicode="&#xdf;" horiz-adv-x="1078" d="M128 55v862q0 85 3 143.5t8 92.5q20 140 125 213q103 73 255 73q153 0 254 -75q127 -96 127 -260q0 -204 -209 -275q307 -72 307 -385q0 -198 -125 -314q-98 -89 -231 -89q-84 0 -158 38v178q68 -38 134 -38q85 0 131 64q43 58 43 154q0 185 -149 256q-83 39 -181 39h-24 v173h36q105 0 163 49q61 49 61 136q0 88 -56 139q-50 44 -126 44q-129 0 -166 -103q-7 -20 -12 -45t-7 -56q-1 -16 -1.5 -49t-0.5 -84v-881h-201z" />
<glyph unicode="&#xe0;" horiz-adv-x="1014" d="M90 310q0 208 223 292q54 20 143 41t222 44v27q0 86 -28 120q-42 52 -142 52q-165 0 -190 -133h-194q16 136 98 206q106 90 298 90q164 0 258 -70q74 -56 89 -175q6 -48 6 -136v-379q0 -85 7 -142.5t23 -91.5h-186q-8 29 -12 59t-5 61q-79 -142 -278 -142q-140 0 -228 63 q-104 74 -104 214zM167 1470h261l238 -309h-157zM296 333q0 -59 43 -99q46 -42 123 -42q131 0 187 102q29 53 29 179v75q-106 -16 -177.5 -34t-109.5 -40q-95 -53 -95 -141z" />
<glyph unicode="&#xe1;" horiz-adv-x="1014" d="M90 310q0 208 223 292q54 20 143 41t222 44v27q0 86 -28 120q-42 52 -142 52q-165 0 -190 -133h-194q16 136 98 206q106 90 298 90q164 0 258 -70q74 -56 89 -175q6 -48 6 -136v-379q0 -85 7 -142.5t23 -91.5h-186q-8 29 -12 59t-5 61q-79 -142 -278 -142q-140 0 -228 63 q-104 74 -104 214zM296 333q0 -59 43 -99q46 -42 123 -42q131 0 187 102q29 53 29 179v75q-106 -16 -177.5 -34t-109.5 -40q-95 -53 -95 -141zM357 1161l238 309h261l-342 -309h-157z" />
<glyph unicode="&#xe2;" horiz-adv-x="1014" d="M90 310q0 208 223 292q54 20 143 41t222 44v27q0 86 -28 120q-42 52 -142 52q-165 0 -190 -133h-194q16 136 98 206q106 90 298 90q164 0 258 -70q74 -56 89 -175q6 -48 6 -136v-379q0 -85 7 -142.5t23 -91.5h-186q-8 29 -12 59t-5 61q-79 -142 -278 -142q-140 0 -228 63 q-104 74 -104 214zM174 1170l240 300h185l241 -300h-186l-147 184l-145 -184h-188zM296 333q0 -59 43 -99q46 -42 123 -42q131 0 187 102q29 53 29 179v75q-106 -16 -177.5 -34t-109.5 -40q-95 -53 -95 -141z" />
<glyph unicode="&#xe3;" horiz-adv-x="1014" d="M90 310q0 208 223 292q54 20 143 41t222 44v27q0 86 -28 120q-42 52 -142 52q-165 0 -190 -133h-194q16 136 98 206q106 90 298 90q164 0 258 -70q74 -56 89 -175q6 -48 6 -136v-379q0 -85 7 -142.5t23 -91.5h-186q-8 29 -12 59t-5 61q-79 -142 -278 -142q-140 0 -228 63 q-104 74 -104 214zM197 1216q51 215 178 215q25 0 59 -11t79 -31q100 -44 124 -44q58 0 94 100l90 -24q-15 -91 -54 -149q-50 -75 -121 -75q-36 0 -145 44t-124 44q-60 0 -85 -93zM296 333q0 -59 43 -99q46 -42 123 -42q131 0 187 102q29 53 29 179v75q-106 -16 -177.5 -34 t-109.5 -40q-95 -53 -95 -141z" />
<glyph unicode="&#xe4;" horiz-adv-x="1014" d="M90 310q0 208 223 292q54 20 143 41t222 44v27q0 86 -28 120q-42 52 -142 52q-165 0 -190 -133h-194q16 136 98 206q106 90 298 90q164 0 258 -70q74 -56 89 -175q6 -48 6 -136v-379q0 -85 7 -142.5t23 -91.5h-186q-8 29 -12 59t-5 61q-79 -142 -278 -142q-140 0 -228 63 q-104 74 -104 214zM202 1321q0 53 37 89t89 36q51 0 87 -36t36 -88t-36 -88q-37 -37 -88 -37t-88 37t-37 87zM296 333q0 -59 43 -99q46 -42 123 -42q131 0 187 102q29 53 29 179v75q-106 -16 -177.5 -34t-109.5 -40q-95 -53 -95 -141zM556 1321q0 53 37 89t89 36 q51 0 87 -36t36 -88t-36 -88q-37 -37 -88 -37t-88 37t-37 87z" />
<glyph unicode="&#xe5;" horiz-adv-x="1014" d="M90 310q0 208 223 292q54 20 143 41t222 44v27q0 86 -28 120q-42 52 -142 52q-165 0 -190 -133h-194q16 136 98 206q106 90 298 90q164 0 258 -70q74 -56 89 -175q6 -48 6 -136v-379q0 -85 7 -142.5t23 -91.5h-186q-8 29 -12 59t-5 61q-79 -142 -278 -142q-140 0 -228 63 q-104 74 -104 214zM296 333q0 -59 43 -99q46 -42 123 -42q131 0 187 102q29 53 29 179v75q-106 -16 -177.5 -34t-109.5 -40q-95 -53 -95 -141zM311 1334q0 82 58 139q61 58 141 58q79 0 137 -58q57 -57 57 -139q0 -81 -57 -138q-58 -58 -139 -58t-139 58t-58 138zM407 1334 q0 -41 29 -70q30 -30 72 -30q41 0 71 30q29 29 29 70q0 43 -29 72q-30 29 -73 29q-41 0 -70 -29t-29 -72z" />
<glyph unicode="&#xe6;" horiz-adv-x="1629" d="M90 302q0 139 115 227q149 116 463 120v53q0 102 -32 140q-39 49 -129 49q-153 0 -191 -155h-194q13 128 90 208q107 110 305 110q157 0 240 -68q19 -16 35 -35.5t30 -42.5q52 61 100 91q88 55 205 55q137 0 240 -76q184 -137 183 -480h-677q2 -128 54 -203 q74 -104 216 -104q147 0 208 130l181 -13q-23 -96 -94 -170q-107 -110 -291 -110q-154 0 -265 78q-71 50 -115 129q-43 -93 -106 -138q-95 -69 -236 -69q-132 0 -227 62q-108 72 -108 212zM296 316q0 -66 51 -100q44 -29 106 -29q106 0 160.5 65.5t54.5 207.5v40h-25 q-51 0 -95 -5t-84 -14q-168 -39 -168 -165zM883 647h452q-31 247 -216 247q-121 0 -188 -108q-33 -52 -48 -139z" />
<glyph unicode="&#xe7;" horiz-adv-x="987" d="M79 539q0 269 161 415q109 100 283 100q199 0 304 -142q58 -79 72 -206h-198q-12 78 -43 121q-45 63 -139 63q-100 0 -158 -78q-76 -100 -76 -273q0 -199 95 -294q51 -52 140 -52q165 0 190 202h197q-6 -94 -44 -170.5t-102 -124.5q-96 -72 -244 -72l-28 -74 q182 -33 182 -174q0 -89 -66 -143q-59 -47 -138 -47q-75 0 -166 48v89q71 -34 122 -34q46 0 71 22q35 29 35 80q0 68 -56 91q-36 14 -73 14q-17 0 -48 -3l56 146q-119 33 -186 103q-143 146 -143 393z" />
<glyph unicode="&#xe8;" horiz-adv-x="1026" d="M79 528q0 141 41 245.5t116 173.5q116 107 291 107q206 0 321 -157q99 -135 99 -352v-20t-1 -28h-664q4 -127 54 -202q67 -102 203 -102q143 0 206 128l181 -13q-31 -104 -100 -172q-108 -108 -292 -108q-171 0 -288 96q-167 137 -167 404zM183 1470h261l238 -309h-157z M288 647h453q-29 246 -219 246q-186 0 -234 -246z" />
<glyph unicode="&#xe9;" horiz-adv-x="1026" d="M79 528q0 141 41 245.5t116 173.5q116 107 291 107q206 0 321 -157q99 -135 99 -352v-20t-1 -28h-664q4 -127 54 -202q67 -102 203 -102q143 0 206 128l181 -13q-31 -104 -100 -172q-108 -108 -292 -108q-171 0 -288 96q-167 137 -167 404zM288 647h453q-29 246 -219 246 q-186 0 -234 -246zM384 1161l238 309h261l-342 -309h-157z" />
<glyph unicode="&#xea;" horiz-adv-x="1026" d="M79 528q0 141 41 245.5t116 173.5q116 107 291 107q206 0 321 -157q99 -135 99 -352v-20t-1 -28h-664q4 -127 54 -202q67 -102 203 -102q143 0 206 128l181 -13q-31 -104 -100 -172q-108 -108 -292 -108q-171 0 -288 96q-167 137 -167 404zM200 1170l240 300h185 l240 -300h-186l-146 184l-146 -184h-187zM288 647h453q-29 246 -219 246q-186 0 -234 -246z" />
<glyph unicode="&#xeb;" horiz-adv-x="1026" d="M79 528q0 141 41 245.5t116 173.5q116 107 291 107q206 0 321 -157q99 -135 99 -352v-20t-1 -28h-664q4 -127 54 -202q67 -102 203 -102q143 0 206 128l181 -13q-31 -104 -100 -172q-108 -108 -292 -108q-171 0 -288 96q-167 137 -167 404zM232 1321q0 53 37 89t89 36 q51 0 87 -36t36 -88t-36 -88q-37 -37 -88 -37t-88 37t-37 87zM288 647h453q-29 246 -219 246q-186 0 -234 -246zM586 1321q0 53 37 89t89 36q51 0 87 -36t36 -88t-36 -88q-37 -37 -88 -37t-88 37t-37 87z" />
<glyph unicode="&#xec;" horiz-adv-x="495" d="M-60 1470h241l183 -309h-150zM145 55v972h205v-972h-205z" />
<glyph unicode="&#xed;" horiz-adv-x="495" d="M131 1161l183 309h241l-274 -309h-150zM145 55v972h205v-972h-205z" />
<glyph unicode="&#xee;" horiz-adv-x="495" d="M-30 1170l185 300h185l186 -300h-172l-106 184l-104 -184h-174zM145 55v972h205v-972h-205z" />
<glyph unicode="&#xef;" horiz-adv-x="495" d="M-27 1321q0 51 35 86q37 35 87 35q48 0 84 -35q35 -35 35 -86q0 -50 -35 -85t-85 -35q-51 0 -86 35t-35 85zM145 55v972h205v-972h-205zM282 1321q0 51 35 86q37 35 87 35q48 0 84 -35q35 -35 35 -86q0 -50 -35 -85t-85 -35q-51 0 -86 35t-35 85z" />
<glyph unicode="&#xf0;" horiz-adv-x="1066" d="M79 537q0 175 79 305q80 133 229 179q57 18 112 18q36 0 120 -29l-127 164l-140 -76l-73 92l149 84l-86 102l111 71l102 -106l152 85l68 -95l-149 -82q75 -85 128 -151t87 -114q33 -48 58.5 -92t42.5 -87q45 -111 45 -253q0 -258 -143 -401q-122 -123 -303 -123 q-186 0 -311 119q-73 69 -112 170.5t-39 219.5zM285 541q0 -171 86 -272q65 -77 163 -77q97 0 161 76q86 104 86 269q0 179 -88 279q-61 70 -160 70q-93 0 -158 -71q-90 -98 -90 -274z" />
<glyph unicode="&#xf1;" horiz-adv-x="1080" d="M118 1027h194q10 -25 14.5 -57.5t5.5 -74.5q103 154 293 154q113 0 196 -57q97 -69 114 -203q6 -50 6 -174v-560h-201v526q0 149 -24 202q-40 88 -151 88q-125 0 -185 -106q-35 -62 -35 -191v-519h-201v632q0 184 -6 241q-2 18 -7 42.5t-13 56.5zM210 1216 q53 215 179 215q25 0 58.5 -11t78.5 -31q102 -44 125 -44q57 0 94 100l89 -24q-8 -43 -20.5 -80t-32.5 -69q-47 -75 -122 -75q-36 0 -145 44t-123 44q-61 0 -86 -93z" />
<glyph unicode="&#xf2;" horiz-adv-x="1066" d="M79 538q0 121 39.5 224t111.5 172q126 120 308 120q173 0 298 -120q72 -69 111.5 -171t39.5 -223t-39.5 -222.5t-111.5 -170.5q-125 -119 -303 -119t-303 119q-72 69 -111.5 171t-39.5 220zM176 1470h261l238 -309h-157zM285 540q0 -159 75 -259q64 -88 173 -88t173 88 q75 100 75 258q0 161 -75 262q-66 89 -176 89q-105 0 -170 -89q-75 -101 -75 -261z" />
<glyph unicode="&#xf3;" horiz-adv-x="1066" d="M79 538q0 121 39.5 224t111.5 172q126 120 308 120q173 0 298 -120q72 -69 111.5 -171t39.5 -223t-39.5 -222.5t-111.5 -170.5q-125 -119 -303 -119t-303 119q-72 69 -111.5 171t-39.5 220zM285 540q0 -159 75 -259q64 -88 173 -88t173 88q75 100 75 258q0 161 -75 262 q-66 89 -176 89q-105 0 -170 -89q-75 -101 -75 -261zM383 1161l238 309h261l-342 -309h-157z" />
<glyph unicode="&#xf4;" horiz-adv-x="1066" d="M79 538q0 121 39.5 224t111.5 172q126 120 308 120q173 0 298 -120q72 -69 111.5 -171t39.5 -223t-39.5 -222.5t-111.5 -170.5q-125 -119 -303 -119t-303 119q-72 69 -111.5 171t-39.5 220zM200 1170l240 300h185l241 -300h-186l-147 184l-145 -184h-188zM285 540 q0 -159 75 -259q64 -88 173 -88t173 88q75 100 75 258q0 161 -75 262q-66 89 -176 89q-105 0 -170 -89q-75 -101 -75 -261z" />
<glyph unicode="&#xf5;" horiz-adv-x="1066" d="M79 538q0 121 39.5 224t111.5 172q126 120 308 120q173 0 298 -120q72 -69 111.5 -171t39.5 -223t-39.5 -222.5t-111.5 -170.5q-125 -119 -303 -119t-303 119q-72 69 -111.5 171t-39.5 220zM232 1216q50 215 178 215q26 0 59.5 -11t78.5 -31q102 -44 124 -44q60 0 94 100 l90 -24q-15 -91 -54 -149q-50 -75 -121 -75q-36 0 -145 44t-123 44q-61 0 -86 -93zM285 540q0 -159 75 -259q64 -88 173 -88t173 88q75 100 75 258q0 161 -75 262q-66 89 -176 89q-105 0 -170 -89q-75 -101 -75 -261z" />
<glyph unicode="&#xf6;" horiz-adv-x="1066" d="M79 538q0 121 39.5 224t111.5 172q126 120 308 120q173 0 298 -120q72 -69 111.5 -171t39.5 -223t-39.5 -222.5t-111.5 -170.5q-125 -119 -303 -119t-303 119q-72 69 -111.5 171t-39.5 220zM232 1321q0 53 37 89t89 36q51 0 87 -36t36 -88t-36 -88q-37 -37 -88 -37 t-88 37t-37 87zM285 540q0 -159 75 -259q64 -88 173 -88t173 88q75 100 75 258q0 161 -75 262q-66 89 -176 89q-105 0 -170 -89q-75 -101 -75 -261zM585 1321q0 53 37 89t89 36q51 0 87 -36t36 -88t-36 -88q-37 -37 -88 -37t-88 37t-37 87z" />
<glyph unicode="&#xf7;" horiz-adv-x="1133" d="M103 663v154h927v-154h-927zM445 430q0 50 35 85q36 36 87 36q49 0 85 -36q35 -35 35 -85t-36 -86q-35 -35 -85 -35t-86 36q-35 35 -35 85zM445 1046q0 50 35 85q37 36 87 36q49 0 85 -36q35 -35 35 -85t-36 -86q-35 -35 -85 -35t-86 36q-35 35 -35 85z" />
<glyph unicode="&#xf8;" horiz-adv-x="1067" d="M21 55l144 165l-8 15q-41 76 -54 123q-24 84 -24 179q0 132 40.5 231t115.5 169q125 116 298 116q125 0 223 -59q11 -7 28.5 -19t40.5 -30l77 82h143l-144 -162q2 -8 11.5 -26.5t24.5 -47.5q50 -95 50 -251q0 -120 -40.5 -223.5t-115.5 -172.5q-125 -116 -299 -116 q-173 0 -291 109l-72 -82h-148zM285 535q0 -96 25 -162l385 438q-23 35 -69 56.5t-98 21.5q-99 0 -164 -86q-79 -103 -79 -268zM367 266q77 -74 166 -74q103 0 169 85q79 103 79 268q0 63 -29 168z" />
<glyph unicode="&#xf9;" horiz-adv-x="1082" d="M139 447v580h201v-573q0 -130 34 -176q48 -67 149 -67q121 0 178 99q35 62 35 183v534h201v-674v-100t1 -56q1 -37 6.5 -72t16.5 -70h-193q-17 64 -20 120q-91 -142 -267 -142q-202 0 -293 148q-49 79 -49 266zM202 1470h262l238 -309h-157z" />
<glyph unicode="&#xfa;" horiz-adv-x="1082" d="M139 447v580h201v-573q0 -130 34 -176q48 -67 149 -67q121 0 178 99q35 62 35 183v534h201v-674v-100t1 -56q1 -37 6.5 -72t16.5 -70h-193q-17 64 -20 120q-91 -142 -267 -142q-202 0 -293 148q-49 79 -49 266zM388 1161l238 309h261l-342 -309h-157z" />
<glyph unicode="&#xfb;" horiz-adv-x="1082" d="M139 447v580h201v-573q0 -130 34 -176q48 -67 149 -67q121 0 178 99q35 62 35 183v534h201v-674v-100t1 -56q1 -37 6.5 -72t16.5 -70h-193q-17 64 -20 120q-91 -142 -267 -142q-202 0 -293 148q-49 79 -49 266zM204 1170l239 300h186l240 -300h-186l-147 184l-145 -184 h-187z" />
<glyph unicode="&#xfc;" horiz-adv-x="1082" d="M139 447v580h201v-573q0 -130 34 -176q48 -67 149 -67q121 0 178 99q35 62 35 183v534h201v-674v-100t1 -56q1 -37 6.5 -72t16.5 -70h-193q-17 64 -20 120q-91 -142 -267 -142q-202 0 -293 148q-49 79 -49 266zM235 1321q0 53 37 89t89 36q51 0 87 -36t36 -88t-36 -88 q-37 -37 -88 -37t-88 37t-37 87zM589 1321q0 53 37 89t89 36q51 0 87 -36t36 -88t-36 -88q-37 -37 -88 -37t-88 37t-37 87z" />
<glyph unicode="&#xfd;" horiz-adv-x="964" d="M33 1027h214l238 -773l247 773h210l-325 -925q-29 -81 -48.5 -133t-30.5 -75q-35 -75 -83 -125.5t-109 -80.5q-86 -43 -222 -43q-11 0 -28 0.5t-40 1.5v175h37q116 0 174 37q58 36 106 168zM338 1161l238 309h261l-342 -309h-157z" />
<glyph unicode="&#xfe;" horiz-adv-x="1084" d="M145 -348v1776h201v-529q93 150 261 150q148 0 249 -99q148 -144 148 -406q0 -273 -156 -421q-95 -90 -234 -90q-114 0 -190 58q-19 14 -38.5 34.5t-39.5 48.5v-522h-201zM342 537q0 -167 76 -258q61 -75 161 -75q93 0 142 64q77 101 77 269q0 174 -78 275 q-53 66 -147 66q-93 0 -150 -69q-81 -98 -81 -272z" />
<glyph unicode="&#xff;" horiz-adv-x="964" d="M33 1027h214l238 -773l247 773h210l-325 -925q-29 -81 -48.5 -133t-30.5 -75q-35 -75 -83 -125.5t-109 -80.5q-86 -43 -222 -43q-11 0 -28 0.5t-40 1.5v175h37q116 0 174 37q58 36 106 168zM180 1321q0 53 37 89t89 36q51 0 87 -36t36 -88t-36 -88q-37 -37 -88 -37 t-88 37t-37 87zM533 1321q0 53 37 89t89 36q51 0 87 -36t36 -88t-36 -88q-37 -37 -88 -37t-88 37t-37 87z" />
<glyph unicode="&#x152;" horiz-adv-x="1940" d="M88 736q0 349 180 543q154 166 416 166q223 0 363 -155v130h805v-181h-596v-386h547v-181h-546v-435h613v-182h-823v131q-27 -30 -55 -54t-57 -41q-103 -61 -252 -61q-246 0 -404 158q-97 97 -144 230.5t-47 317.5zM310 735q0 -276 128 -422q89 -101 240 -101 q150 0 239 102q129 150 129 421q0 279 -130 427q-89 101 -242 101q-147 0 -235 -100q-129 -146 -129 -428z" />
<glyph unicode="&#x153;" horiz-adv-x="1724" d="M79 542q0 252 155 396q125 116 304 116q229 0 338 -193q27 38 52.5 66t49.5 47q104 80 245 80q214 0 325 -166q96 -143 96 -340v-25t-1 -30h-674q3 -124 53 -198q71 -104 212 -104q158 0 211 131l181 -13q-32 -107 -99 -174q-110 -107 -291 -107q-230 0 -362 185 q-51 -72 -101 -110q-98 -75 -235 -75q-175 0 -300 116q-159 148 -159 398zM285 541q0 -166 78 -266q65 -83 170 -83q101 0 166 83q78 100 78 264q0 169 -78 267q-68 84 -170 84q-99 0 -165 -84q-79 -100 -79 -265zM976 638h461q-24 256 -224 256q-195 0 -237 -256z" />
<glyph unicode="&#x178;" horiz-adv-x="1103" d="M11 1420h239l305 -588l301 588h236l-435 -811v-554h-210v554zM230 1694q0 57 40 96t96 39q55 0 94 -39t39 -96q0 -56 -39 -95t-95 -39t-95 39q-40 40 -40 95zM604 1694q0 57 39 96q40 39 97 39q53 0 94 -39q39 -39 39 -96q0 -56 -39 -95t-95 -39q-57 0 -96 39t-39 95z " />
<glyph unicode="&#x2c6;" d="M179 1170l240 300h185l240 -300h-185l-147 184l-146 -184h-187z" />
<glyph unicode="&#x2dc;" d="M200 1216q50 215 178 215q26 0 59.5 -11t78.5 -31q102 -44 124 -44q59 0 95 100l89 -24q-15 -91 -54 -149q-50 -75 -121 -75q-34 0 -145 44q-109 44 -123 44q-61 0 -86 -93z" />
<glyph unicode="&#x2000;" horiz-adv-x="954" />
<glyph unicode="&#x2001;" horiz-adv-x="1908" />
<glyph unicode="&#x2002;" horiz-adv-x="954" />
<glyph unicode="&#x2003;" horiz-adv-x="1908" />
<glyph unicode="&#x2004;" horiz-adv-x="636" />
<glyph unicode="&#x2005;" horiz-adv-x="477" />
<glyph unicode="&#x2006;" horiz-adv-x="318" />
<glyph unicode="&#x2007;" horiz-adv-x="318" />
<glyph unicode="&#x2008;" horiz-adv-x="238" />
<glyph unicode="&#x2009;" horiz-adv-x="381" />
<glyph unicode="&#x200a;" horiz-adv-x="106" />
<glyph unicode="&#x2010;" horiz-adv-x="547" d="M0 611v150h547v-150h-547z" />
<glyph unicode="&#x2011;" horiz-adv-x="547" d="M0 611v150h547v-150h-547z" />
<glyph unicode="&#x2012;" horiz-adv-x="547" d="M0 611v150h547v-150h-547z" />
<glyph unicode="&#x2013;" d="M115 496v150h793v-150h-793z" />
<glyph unicode="&#x2014;" horiz-adv-x="1241" d="M0 496v150h1241v-150h-1241z" />
<glyph unicode="&#x2018;" horiz-adv-x="428" d="M95 1132q0 140 143 313h120q-23 -26 -44 -55.5t-38 -62.5q-35 -68 -39 -119q49 -3 74 -19q54 -33 54 -98q0 -54 -41 -92q-38 -35 -91 -35q-60 0 -99 46q-39 45 -39 122z" />
<glyph unicode="&#x2019;" horiz-adv-x="443" d="M78 1319q0 54 41 92q37 34 91 34q60 0 100 -46q39 -45 39 -121q0 -142 -144 -313h-120q24 26 44.5 56t37.5 62q34 67 39 119q-45 2 -74 19q-54 33 -54 98z" />
<glyph unicode="&#x201a;" horiz-adv-x="443" d="M78 173q0 54 41 92q38 35 91 35q60 0 100 -46q39 -45 39 -122q0 -141 -144 -313h-120q24 26 44.5 56t37.5 62q34 67 39 119q-46 3 -74 19q-54 33 -54 98z" />
<glyph unicode="&#x201c;" horiz-adv-x="765" d="M95 1132q0 140 143 313h120q-23 -26 -44 -55.5t-38 -62.5q-35 -68 -39 -119q49 -3 74 -19q54 -33 54 -98q0 -54 -41 -92q-38 -35 -91 -35q-60 0 -99 46q-39 45 -39 122zM432 1132q0 140 143 313h120q-24 -26 -44.5 -56t-37.5 -62q-34 -67 -39 -119q49 -3 74 -19 q54 -33 54 -98q0 -54 -41 -92q-38 -35 -90 -35q-61 0 -100 46q-39 45 -39 122z" />
<glyph unicode="&#x201d;" horiz-adv-x="775" d="M63 1318q0 55 41 93q37 34 90 34q61 0 100 -46q39 -45 39 -122q0 -142 -143 -312h-120q24 26 44.5 56t37.5 62q34 66 39 119q-45 2 -74 19q-54 33 -54 97zM409 1318q0 55 41 93q37 34 91 34q60 0 100 -46q39 -45 39 -121q0 -140 -143 -313h-121q51 53 83 118 q17 35 26.5 64.5t11.5 54.5q-45 2 -74 19q-54 33 -54 97z" />
<glyph unicode="&#x201e;" horiz-adv-x="775" d="M63 173q0 55 41 93q37 34 91 34q60 0 99 -46q39 -45 39 -122q0 -140 -143 -313h-120q23 26 44 55.5t38 62.5q34 67 39 119q-49 3 -74 19q-54 33 -54 98zM409 173q0 55 41 93q37 34 91 34q60 0 100 -46q39 -45 39 -122q0 -140 -143 -313h-121q54 59 83 118 q17 34 26.5 63.5t11.5 55.5q-46 3 -74 19q-54 33 -54 98z" />
<glyph unicode="&#x2022;" horiz-adv-x="1365" d="M401 749q0 121 84 202q85 82 204 82q113 0 196 -83q84 -83 84 -201t-83 -201t-201 -83q-117 0 -199 82q-85 84 -85 202z" />
<glyph unicode="&#x2026;" horiz-adv-x="1442" d="M120 176q0 58 40 98q42 41 100 41q56 0 97 -41q40 -40 40 -98q0 -56 -41 -97t-98 -41t-98 41q-40 40 -40 97zM581 176q0 58 40 98q42 41 100 41q56 0 97 -41q40 -40 40 -98q0 -56 -41 -97t-98 -41t-98 41q-40 40 -40 97zM1043 176q0 58 40 98q42 41 100 41q56 0 97 -41 q40 -40 40 -98q0 -56 -41 -97t-98 -41t-98 41q-40 40 -40 97z" />
<glyph unicode="&#x202f;" horiz-adv-x="381" />
<glyph unicode="&#x2039;" horiz-adv-x="562" d="M62 531l205 499h172l-172 -499l172 -476h-172z" />
<glyph unicode="&#x203a;" horiz-adv-x="5410" d="M72 363v162l525 879h227v-872h237v-169h-232v-313h-207v313h-550zM267 532h365v633zM1211 51v1092h242l270 -910l271 910h241v-1092h-155v906l-271 -906h-173l-270 906v-906h-155zM2375 51l372 1095h164l373 -1095h-175l-81 256h-397l-83 -256h-173zM2675 452h308 l-154 491zM3232 998v145h742v-145h-288v-947h-168v947h-286zM4141 51v1092h170v-1092h-170zM4486 594q0 302 168 455q123 114 300 114q204 0 305 -144q27 -39 44.5 -90t23.5 -117h-149q-41 203 -225 203q-131 0 -207 -106q-82 -115 -82 -314q0 -196 86 -315 q73 -102 205 -102q210 0 235 262h153q-8 -146 -63 -240q-99 -169 -319 -169q-197 0 -325 131q-150 153 -150 432z" />
<glyph unicode="&#x205f;" horiz-adv-x="477" />
<glyph unicode="&#x20ac;" horiz-adv-x="1230" d="M-47 528v154h707v-154h-707zM-47 787v154h747v-154h-747zM88 734q0 377 209 569q154 142 375 142q133 0 227 -45.5t155 -133.5q70 -100 85 -259h-187q-50 254 -281 254q-164 0 -258 -133q-103 -145 -103 -392q0 -245 107 -394q93 -128 257 -128q262 0 293 328h192 q-11 -184 -79 -300q-125 -212 -399 -212q-247 0 -406 164q-187 190 -187 540z" />
<glyph unicode="&#x2122;" horiz-adv-x="1355" d="M158 1607v85h420v-85h-159v-498h-103v498h-158zM648 1109v583h141l167 -470l166 470h141v-583h-94v458l-163 -458h-102l-162 458v-458h-94z" />
<glyph unicode="&#x25fc;" horiz-adv-x="1025" d="M0 0v1025h1025v-1025h-1025z" />
</font>
</defs>
</svg>
