<?xml version="1.0" standalone="no"?>
<!DOCTYPE svg PUBLIC "-//W3C//DTD SVG 1.1//EN" "http://www.w3.org/Graphics/SVG/1.1/DTD/svg11.dtd" >
<svg xmlns="http://www.w3.org/2000/svg">
<metadata></metadata>
<defs>
<font id="corporate_a_condensedRgIt" horiz-adv-x="845" >
<font-face units-per-em="2048" ascent="1638" descent="-410" />
<missing-glyph horiz-adv-x="409" />
<glyph unicode="&#xfb01;" horiz-adv-x="956" d="M-203 -377l13 53q82 18 134 69.5t92.5 155t82.5 294.5l166 696h-111l14 63h19q61 4 83.5 29.5t51.5 122.5q27 86 41.5 121t38.5 71q63 97 188 97q73 0 116.5 -35.5t43.5 -95.5q0 -51 -27 -83t-69 -32q-28 0 -45 16t-17 43q0 14 13 47q18 37 18 50q0 38 -37 38 q-35 0 -64.5 -62t-64.5 -212l-24 -104h176l-19 -74h-176l-178 -752q-64 -278 -170 -397t-289 -119zM590 106q0 46 31 173l133 514q16 59 16 75q0 25 -20 34t-76 11l8 35q114 3 279 53l-197 -753q-25 -92 -25 -127q0 -47 27 -47q21 0 42.5 26t51.5 86l37 -30 q-43 -96 -85.5 -135t-104.5 -39q-51 0 -84 34.5t-33 89.5zM829 1249q0 49 34.5 84t82.5 35q41 0 69.5 -29.5t28.5 -72.5q0 -47 -34 -83t-80 -36q-43 0 -72 29.5t-29 72.5z" />
<glyph unicode="&#xfb02;" horiz-adv-x="956" d="M-203 -377l13 53q82 18 134 69.5t92.5 155.5t82.5 296l166 694h-111l14 63h19q61 4 83.5 29.5t51.5 122.5q27 86 41.5 121t38.5 71q63 97 188 97q96 0 138 -60q118 0 303 54l-277 -1110q-29 -113 -29 -154q0 -22 10 -36.5t25 -14.5q22 0 42 22.5t50 83.5l37 -24 q-46 -102 -85.5 -138t-106.5 -36q-55 0 -89 35t-34 92t45 235l209 834q12 56 12 71q0 29 -20 39t-76 10q6 -18 6 -34q0 -51 -26.5 -83t-69.5 -32q-28 0 -45 16t-17 43q0 14 13 47q16 35 16 50q0 38 -37 38q-35 0 -63.5 -61t-63.5 -213l-24 -104h176l-19 -74h-176l-178 -750 q-64 -280 -170 -399t-289 -119z" />
<glyph unicode="&#xfb03;" horiz-adv-x="1435" d="M-203 -377l13 53q82 18 134 69.5t92.5 155t82.5 294.5l166 696h-111l14 63h19q61 4 83.5 29.5t51.5 122.5q27 86 41.5 121t38.5 71q63 97 188 97q73 0 116.5 -35.5t43.5 -95.5q0 -51 -27 -83t-69 -32q-28 0 -45 16t-17 43q0 14 13 47q18 37 18 50q0 38 -37 38 q-35 0 -64.5 -62t-64.5 -212l-24 -104h176l-19 -74h-176l-178 -752q-64 -278 -170 -397t-289 -119zM285 -377l12 53q120 26 183 132.5t126 386.5l164 696h-108l14 63h18q60 4 82 29.5t51 122.5q44 136 80 192q66 97 191 97q72 0 114.5 -35.5t42.5 -95.5q0 -51 -26.5 -83 t-69.5 -32q-27 0 -43 16t-16 43q0 17 12 47q16 35 16 50q0 38 -36 38q-35 0 -63.5 -61t-63.5 -213l-25 -104h176l-18 -74h-176l-179 -752q-65 -278 -170 -397t-288 -119zM1069 106q0 55 31 173l133 514q14 53 14 75q0 25 -20 34t-76 11l10 35q115 3 279 53l-199 -753 q-22 -90 -22 -127q0 -47 26 -47q21 0 42.5 26t49.5 86l39 -30q-44 -97 -86.5 -135.5t-103.5 -38.5q-52 0 -84.5 34t-32.5 90zM1309 1249q0 49 34.5 84t81.5 35q40 0 68.5 -29.5t28.5 -72.5q0 -47 -34.5 -83t-80.5 -36q-41 0 -69.5 29.5t-28.5 72.5z" />
<glyph unicode="&#xfb04;" horiz-adv-x="1441" d="M-203 -377l13 53q82 18 134 69.5t92.5 155t82.5 294.5l166 696h-111l14 63h19q61 4 83.5 29.5t51.5 122.5q27 86 41.5 121t38.5 71q63 97 188 97q73 0 116.5 -35.5t43.5 -95.5q0 -51 -27 -83t-69 -32q-28 0 -45 16t-17 43q0 14 13 47q18 37 18 50q0 38 -37 38 q-35 0 -64.5 -62t-64.5 -212l-24 -104h176l-19 -74h-176l-178 -752q-64 -278 -170 -397t-289 -119zM283 -377l12 53q120 26 183 132.5t126 388.5l166 694h-111l15 63h18q61 4 83.5 29.5t51.5 122.5q27 86 41.5 121t38.5 71q63 97 189 97q95 0 137 -60q118 0 303 54 l-276 -1110q-29 -113 -29 -154q0 -22 10 -36.5t25 -14.5q22 0 42 22.5t50 83.5l37 -24q-46 -102 -86 -138t-107 -36q-55 0 -89 35t-34 92q0 56 45 235l209 834q13 64 13 71q0 29 -20.5 39t-76.5 10q6 -18 6 -34q0 -51 -26.5 -83t-69.5 -32q-28 0 -44.5 15.5t-16.5 43.5 q0 17 12 47q16 35 16 50q0 38 -36 38q-35 0 -63.5 -61t-63.5 -213l-25 -104h176l-18 -74h-176l-179 -750q-65 -280 -170 -399t-288 -119z" />
<glyph horiz-adv-x="2048" />
<glyph horiz-adv-x="2048" />
<glyph unicode="&#xd;" horiz-adv-x="2048" />
<glyph unicode=" "  horiz-adv-x="409" />
<glyph unicode="&#x09;" horiz-adv-x="409" />
<glyph unicode="&#xa0;" horiz-adv-x="409" />
<glyph unicode="!" horiz-adv-x="421" d="M31 94q0 52 37.5 89.5t89.5 37.5q44 0 75 -32t31 -78q0 -53 -37 -91t-88 -38q-46 0 -77 32.5t-31 79.5zM156 410l194 929h172l-260 -929h-106z" />
<glyph unicode="&#x22;" horiz-adv-x="618" d="M262 817l109 549h145l-166 -549h-88zM492 817l108 549h143l-163 -549h-88z" />
<glyph unicode="#" horiz-adv-x="993" d="M74 434l41 111h176l110 301h-174l41 110h176l154 410h123l-154 -410h215l154 410h125l-154 -410h174l-43 -110h-174l-112 -301h174l-41 -111h-185l-153 -434h-123l162 434h-215l-164 -434h-121l162 434h-174zM414 545h217l110 301h-217z" />
<glyph unicode="$" horiz-adv-x="841" d="M57 154l64 297h55q-12 -91 -12 -140q0 -216 139 -260l152 606q-3 2 -8 7t-11 8q-110 95 -149 158.5t-39 146.5q0 109 53.5 209t142.5 155q74 49 195 52l39 157h67l-43 -166q50 -10 103 -41q33 -20 55 -20q12 0 51 23l-77 -357h-58q12 77 12 129q0 160 -102 199l-127 -514 l47 -41q99 -86 134.5 -148.5t35.5 -148.5q0 -198 -127 -345.5t-297 -146.5l-41 -157h-65l41 164q-69 14 -124 55t-106 119zM369 45q93 6 157 70q50 47 82.5 127t32.5 155q0 56 -29 103t-102 108zM383 1053q0 -56 25.5 -98t95.5 -103l119 475q-102 -5 -171 -83.5t-69 -190.5z " />
<glyph unicode="%" horiz-adv-x="1019" d="M92 0l887 1335h88l-887 -1335h-88zM201 918q0 87 33 184t85 164q85 110 195 110q68 0 105.5 -49.5t37.5 -138.5q0 -135 -63 -264q-46 -95 -110.5 -147t-135.5 -52q-69 0 -108 51t-39 142zM307 866q0 -94 51 -94q73 0 131 168q64 174 64 297q0 90 -53 90q-66 0 -127 -162 q-29 -74 -47.5 -158.5t-18.5 -140.5zM518 180q0 116 44.5 223t117.5 172.5t151 65.5q68 0 106 -49t38 -137q0 -116 -44 -224.5t-116 -174.5t-149 -66q-69 0 -108.5 50.5t-39.5 139.5zM625 131q0 -94 51 -94q73 0 131 168q63 176 63 299q0 41 -14 64.5t-39 23.5 q-66 0 -127 -162q-29 -74 -47 -158.5t-18 -140.5z" />
<glyph unicode="&#x26;" horiz-adv-x="935" d="M35 252q0 193 141 346q67 71 182 162l-8 26q-37 142 -37 218q0 136 92.5 237.5t215.5 101.5q83 0 132.5 -50.5t49.5 -133.5q0 -93 -49 -186q-28 -54 -71.5 -102.5t-129.5 -120.5l-25 -21l144 -448q42 63 73 136.5t31 108.5q0 24 -15 34t-54 11l14 60q64 -10 121 -10 q59 0 125 10l-15 -60q-53 -5 -71 -20t-41 -76q-36 -93 -64.5 -143.5t-81.5 -118.5l23 -70q22 -61 47 -80t82 -18l-10 -51q-79 8 -123 8q-46 0 -111 -8l-33 98q-130 -115 -272 -115q-120 0 -191 75t-71 200zM174 229q0 -80 39.5 -129t105.5 -49q113 0 230 105l-25 75 l-125 396q-62 -50 -94.5 -85t-60.5 -77q-70 -106 -70 -236zM442 1042q0 -68 45 -188q113 92 160 167t47 163q0 46 -19.5 74t-51.5 28q-67 0 -124 -76.5t-57 -167.5z" />
<glyph unicode="'" horiz-adv-x="389" d="M262 817l109 549h145l-166 -549h-88z" />
<glyph unicode="(" horiz-adv-x="503" d="M76 152q0 228 69.5 465t194.5 442t285 340h57q-217 -252 -346 -623.5t-129 -742.5q0 -247 78 -465h-52q-157 226 -157 584z" />
<glyph unicode=")" horiz-adv-x="503" d="M-127 -432q220 259 348.5 628t128.5 740q0 242 -76 463h52q155 -228 155 -582q0 -345 -152.5 -691t-398.5 -558h-57z" />
<glyph unicode="*" horiz-adv-x="819" d="M342 1137l57 102l154 -143l41 243l100 -32l-73 -234l196 37v-127h-196l77 -219l-98 -47l-47 233l-150 -170l-59 92l166 148z" />
<glyph unicode="+" d="M145 631l31 121h277l88 356h127l-88 -356h276l-29 -121h-278l-88 -359h-129l90 359h-277z" />
<glyph unicode="," horiz-adv-x="413" d="M-78 -410q61 67 114 167.5t79 199.5q-46 2 -71.5 28t-25.5 72q0 62 39.5 105t96.5 43q49 0 78.5 -33t29.5 -86q0 -105 -77.5 -245.5t-196.5 -250.5h-66z" />
<glyph unicode="-" horiz-adv-x="319" d="M27 483l26 109h322l-29 -109h-319z" />
<glyph unicode="." horiz-adv-x="413" d="M25 94q0 52 37.5 89.5t89.5 37.5q44 0 75 -32t31 -78q0 -53 -37 -91t-88 -38q-46 0 -77 32.5t-31 79.5z" />
<glyph unicode="/" horiz-adv-x="731" d="M-92 -397l866 1763h103l-867 -1763h-102z" />
<glyph unicode="0" d="M113 297q0 197 63 433t158 392q137 234 323 234q106 0 163 -82.5t57 -237.5q0 -185 -54 -398.5t-143 -377.5q-76 -144 -160.5 -211t-187.5 -67q-104 0 -161.5 82t-57.5 233zM256 215q0 -80 24.5 -127t67.5 -47q63 0 117 80t119 268q67 196 108 395.5t41 333.5 q0 84 -25.5 131t-70.5 47q-58 0 -110.5 -77.5t-118.5 -262.5q-67 -189 -109.5 -395t-42.5 -346z" />
<glyph unicode="1" d="M106 -6l15 53q70 7 106 23.5t57.5 52t39.5 108.5l221 893l-168 -4l12 49q97 3 187 66.5t137 163.5h55l-287 -1151q-18 -70 -18 -109q0 -41 28.5 -63t94.5 -29l-13 -53q-137 14 -225 14q-87 0 -242 -14z" />
<glyph unicode="2" d="M14 0l29 111l61 71q279 317 465 568q83 113 119.5 194t36.5 154q0 64 -31 102.5t-82 38.5q-82 0 -147.5 -69t-124.5 -216h-66q56 203 151 301.5t234 98.5q104 0 167 -64t63 -170q0 -120 -66.5 -234.5t-263.5 -334.5q-293 -324 -377 -408h477l-51 -143h-594z" />
<glyph unicode="3" d="M68 324q0 28 2 55h73q1 -89 11.5 -137t35.5 -88q45 -70 134 -70q117 0 194 141q62 111 62 240q0 106 -47.5 156.5t-151.5 56.5l18 72q78 3 116.5 20t82.5 68q43 50 68.5 116t25.5 131q0 72 -34 118t-89 46q-69 0 -122 -54.5t-103 -176.5h-65q50 171 131 253.5t202 82.5 q108 0 172 -68.5t64 -185.5q0 -141 -75.5 -240t-213.5 -139q91 -34 134.5 -98.5t43.5 -167.5q0 -128 -53.5 -237t-145 -172.5t-198.5 -63.5q-132 0 -202 88t-70 254z" />
<glyph unicode="4" d="M39 377l10 39l664 940h164l-211 -852h147l-31 -127h-145l-96 -387h-154l96 387h-444zM195 504h321l182 723z" />
<glyph unicode="5" d="M80 291v31h70q21 -236 169 -236q54 0 104 37.5t85 105.5q92 176 92 375q0 97 -35.5 154t-95.5 57t-110.5 -36.5t-104.5 -119.5l-61 5l258 671h458l-51 -141h-395l-146 -379q57 55 103 76.5t108 21.5q114 0 175 -80t61 -231q0 -129 -37.5 -252t-105.5 -217 q-51 -71 -125.5 -111t-155.5 -40q-119 0 -189.5 84t-70.5 225z" />
<glyph unicode="6" d="M88 291q0 353 295 715q95 118 207 221.5t211 165.5h100q-134 -109 -233.5 -222.5t-194.5 -265.5q48 19 90 19q100 0 160.5 -81.5t60.5 -217.5q0 -119 -38.5 -242t-104.5 -219q-127 -182 -303 -182q-115 0 -182.5 83t-67.5 226zM236 229q0 -88 27.5 -138t76.5 -50 q123 0 215 260q74 206 74 371q0 88 -27 136t-78 48q-101 0 -186 -190q-41 -93 -71.5 -222t-30.5 -215z" />
<glyph unicode="7" d="M98 0l740 1186l-516 -10l40 159h654l-770 -1335h-148z" />
<glyph unicode="8" d="M92 242q0 161 82.5 285t222.5 175q-60 29 -87 75t-27 118q0 92 38 186.5t103 163.5q103 109 238 109q101 0 158 -62t57 -172q0 -84 -30 -170t-81 -149q-34 -41 -67.5 -64.5t-86.5 -42.5q70 -29 103 -83t33 -140q0 -130 -56.5 -243t-151.5 -179.5t-204 -66.5 q-114 0 -179 70t-65 190zM242 199q0 -73 26 -115.5t70 -42.5q57 0 109 55t92 156q57 137 57 256q0 73 -27 116.5t-73 43.5q-58 0 -117.5 -71t-98 -181t-38.5 -217zM430 854q0 -58 21.5 -92.5t56.5 -34.5q45 0 88 47t78 137q55 140 55 256q0 127 -76 127q-43 0 -86 -46.5 t-75 -127.5q-27 -65 -44.5 -140t-17.5 -126z" />
<glyph unicode="9" d="M72 -57q134 111 234.5 225t193.5 262q-47 -16 -88 -16q-101 0 -162.5 81.5t-61.5 217.5q0 120 39 244t107 219q125 180 301 180q117 0 183.5 -83t66.5 -229q0 -348 -291 -710q-97 -118 -208.5 -222t-211.5 -169h-102zM344 666q0 -88 27.5 -136.5t77.5 -48.5 q100 0 186 191q42 95 72 223t30 213q0 88 -26.5 136.5t-77.5 51.5q-57 3 -113 -65t-102 -195q-74 -206 -74 -370z" />
<glyph unicode=":" horiz-adv-x="413" d="M25 94q0 52 37.5 89.5t89.5 37.5q44 0 75 -32t31 -78q0 -53 -37 -91t-88 -38q-46 0 -77 32.5t-31 79.5zM184 764q0 53 37.5 91t89.5 38q44 0 75.5 -32.5t31.5 -78.5q0 -54 -37 -92.5t-88 -38.5q-46 0 -77.5 33t-31.5 80z" />
<glyph unicode=";" horiz-adv-x="413" d="M-78 -410q61 67 114 167.5t79 199.5q-46 2 -71.5 28t-25.5 72q0 62 39.5 105t96.5 43q49 0 78.5 -33t29.5 -86q0 -105 -77.5 -245.5t-196.5 -250.5h-66zM193 764q0 53 37 91t89 38q44 0 75.5 -32.5t31.5 -78.5q0 -54 -37 -92.5t-88 -38.5q-46 0 -77 33t-31 80z" />
<glyph unicode="&#x3c;" horiz-adv-x="819" d="M125 692l4 13l799 489l-21 -78l-616 -373l428 -383l-45 -178z" />
<glyph unicode="=" d="M113 496l30 120h680l-28 -120h-682zM178 764l31 121h680l-29 -121h-682z" />
<glyph unicode="&#x3e;" horiz-adv-x="819" d="M43 182l18 78l619 373l-428 383l43 178l551 -508l-4 -12z" />
<glyph unicode="?" horiz-adv-x="720" d="M147 94q0 52 37.5 89.5t89.5 37.5q44 0 75.5 -32t31.5 -78q0 -53 -37 -91t-88 -38q-46 0 -77.5 32.5t-31.5 79.5zM250 995q38 175 131 273t221 98q103 0 165 -70.5t62 -187.5q0 -105 -46.5 -181t-166.5 -167q-149 -110 -204.5 -191.5t-77.5 -220.5h-74q20 162 67.5 252 t178.5 213q92 88 126 146.5t34 130.5q0 69 -31 110t-82 41q-69 0 -127.5 -63t-101.5 -183h-74z" />
<glyph unicode="@" horiz-adv-x="1159" d="M96 569q0 161 55.5 312t148 261.5t218.5 177t260 66.5q201 0 333 -136.5t132 -346.5q0 -272 -174 -461q-148 -157 -285 -157q-50 0 -78.5 24t-31.5 68q-77 -92 -174 -92q-83 0 -129.5 49t-46.5 137q0 131 77 285q65 126 154 197t184 71t119 -90l27 78q73 2 137 16 l-166 -469q-47 -137 -47 -168q0 -18 12 -30.5t27 -12.5q40 0 91 41.5t95 110.5q57 86 89 190t32 201q0 173 -111 291t-274 118q-116 0 -223 -58t-185.5 -155t-125 -230t-46.5 -277q0 -230 124 -373.5t323 -143.5q247 0 438 293h78q-51 -87 -90.5 -136.5t-99.5 -100.5 q-167 -139 -349 -139q-227 0 -372.5 165t-145.5 424zM446 424q0 -46 18 -71t52 -25q106 0 205 225q37 84 63.5 178t26.5 143q0 107 -70 107q-58 0 -121.5 -85.5t-119.5 -238.5q-54 -145 -54 -233z" />
<glyph unicode="A" horiz-adv-x="997" d="M-78 -6l12 49q67 4 107 39t94 137l637 1208h12l29 -1232q1 -89 24 -116.5t99 -35.5l-12 -49q-112 14 -195 14q-86 0 -209 -14l12 49q83 10 100 31t17 112v209h-344l-110 -211q-33 -68 -33 -92q0 -23 20.5 -34.5t67.5 -14.5l-12 -49q-88 10 -158 10q-71 0 -158 -10z M338 459h311v600z" />
<glyph unicode="B" horiz-adv-x="907" d="M-39 0l12 51q87 7 116.5 31t49.5 104l248 994q12 56 12 71q0 31 -23 44.5t-87 19.5l12 51h391q140 0 204.5 -57t64.5 -181q0 -132 -77 -242.5t-200 -156.5q174 -49 174 -225q0 -110 -48.5 -222t-123.5 -178q-118 -104 -324 -104h-401zM285 109q0 -23 18 -33t59 -10h19 q141 0 225 141q40 66 65 154t25 161q0 85 -42.5 122.5t-137.5 37.5h-94l-121 -485q-16 -66 -16 -88zM436 745h74q80 0 130.5 31.5t90.5 104.5q32 57 53 136t21 142q0 80 -38 112t-134 32h-58z" />
<glyph unicode="C" horiz-adv-x="909" d="M117 373q0 192 58.5 397.5t156.5 355.5q174 271 413 271q52 0 91 -12.5t94 -45.5q53 -32 78 -32q17 0 51 20l-80 -356h-55q10 71 10 119q0 114 -46.5 178.5t-129.5 64.5q-100 0 -182.5 -81t-157.5 -251q-63 -145 -103.5 -328t-40.5 -327q0 -130 53 -207.5t142 -77.5 q114 0 203.5 107t140.5 301h74q-60 -241 -177.5 -370.5t-277.5 -129.5q-149 0 -232 106t-83 298z" />
<glyph unicode="D" horiz-adv-x="1073" d="M-39 0l12 51q86 6 116 30.5t50 104.5l248 994q12 47 12 69q0 32 -23 46t-87 20l12 51h395q126 0 196.5 -22t121.5 -76q92 -106 92 -312q0 -153 -39.5 -307t-112.5 -287q-64 -117 -152.5 -201t-187.5 -122q-101 -39 -239 -39h-414zM283 111q0 -48 75 -48q140 0 235.5 61 t174.5 202q75 132 126.5 328t51.5 347q0 163 -60.5 232.5t-201.5 69.5h-109l-276 -1108q-16 -71 -16 -84z" />
<glyph unicode="E" horiz-adv-x="856" d="M-39 0l12 51q86 6 116.5 31t49.5 104l248 994q12 54 12 73q0 31 -22.5 43.5t-87.5 18.5l12 51h692l-47 -307h-51q2 33 2 65q0 107 -33 143t-133 36h-156l-139 -555h338l-18 -72h-336l-117 -465q-16 -75 -16 -90q0 -58 100 -58h80q97 0 156.5 56t130.5 211h49l-119 -330 h-723z" />
<glyph unicode="F" horiz-adv-x="786" d="M-41 -6l12 49q86 8 116.5 33t49.5 104l248 1000q12 46 12 73q0 31 -22.5 44.5t-85.5 17.5l12 51h692l-47 -307h-49q2 31 2 65q0 109 -32 144t-136 35h-156l-139 -555h340l-18 -72h-340l-123 -496q-12 -56 -12 -74q0 -29 24 -43t84 -20l-12 -49q-129 14 -207 14 q-79 0 -213 -14z" />
<glyph unicode="G" horiz-adv-x="993" d="M111 352q0 196 63 408.5t166 365.5q180 263 420 263q61 0 103 -15.5t112 -64.5q33 -23 53 -23q10 0 51 21l-86 -349h-55q10 93 10 127q0 117 -48 181.5t-136 64.5q-97 0 -180 -84.5t-162 -265.5q-70 -158 -113 -338.5t-43 -318.5t47.5 -213.5t135.5 -75.5q75 0 194 51 l92 375q8 21 8 45q0 28 -21.5 39t-80.5 16l12 49q98 -10 187 -10t194 10l-12 -49q-76 -6 -99.5 -24t-37.5 -80l-97 -383q-101 -52 -180 -74.5t-164 -22.5q-161 0 -247 96.5t-86 278.5z" />
<glyph unicode="H" horiz-adv-x="1085" d="M-41 -6l12 49q86 8 116.5 33t49.5 104l250 1006q14 55 14 74q0 31 -23.5 44t-86.5 19l12 49q126 -14 203 -14q75 0 207 14l-13 -49q-79 -7 -107 -32t-48 -105l-109 -443h400l110 443q15 59 15 76q0 29 -22 42t-81 19l12 49q123 -14 201 -14q77 0 209 14l-12 -49 q-85 -8 -115 -33t-49 -104l-250 -1006q-12 -46 -12 -76q0 -29 24 -43t84 -18l-14 -49q-123 14 -201 14q-77 0 -209 -14l13 49q81 7 108.5 32t46.5 105l125 500h-399l-125 -500q-12 -47 -12 -78q0 -28 22 -41.5t76 -17.5l-12 -49q-123 14 -201 14q-77 0 -209 -14z" />
<glyph unicode="I" horiz-adv-x="526" d="M-41 -6l12 49q86 8 116.5 33t49.5 104l250 1006q14 55 14 74q0 31 -23.5 44t-86.5 19l12 49q129 -14 205 -14t213 14l-12 -49q-84 -7 -114 -32t-50 -105l-250 -1006q-12 -53 -12 -76q0 -29 23.5 -42.5t82.5 -18.5l-12 -49q-129 14 -205 14t-213 -14z" />
<glyph unicode="J" horiz-adv-x="512" d="M-143 -141l14 61q12 -2 33 -2q89 0 139 69t96 255l240 944q14 57 14 76q0 28 -25 41.5t-85 19.5l12 49q129 -14 205 -14q73 0 213 14l-13 -49q-87 -7 -115.5 -32t-47.5 -105l-236 -940q-28 -113 -58 -180t-75 -113q-95 -98 -250 -98q-15 0 -61 4z" />
<glyph unicode="K" horiz-adv-x="995" d="M-41 -6l12 49q87 7 117 32t49 105l250 1006q12 52 12 74q0 31 -23 44t-85 19l12 49q134 -14 213 -14q77 0 203 14l-12 -49q-83 -7 -112.5 -32t-49.5 -105l-111 -445l451 476q43 48 43 69q0 17 -18.5 24.5t-69.5 12.5l12 49q88 -10 164 -10q78 0 170 10l-15 -49 q-71 -8 -111.5 -33t-123.5 -112l-348 -367l125 -487q45 -168 74 -219.5t83 -51.5q33 0 86 27l-16 -62q-68 -36 -149 -36q-91 0 -137 56.5t-89 221.5l-108 418l-51 -51l-111 -447q-12 -50 -12 -76q0 -29 21.5 -42t80.5 -19l-12 -49q-115 14 -193 14q-75 0 -221 -14z" />
<glyph unicode="L" horiz-adv-x="802" d="M-39 0l12 49q88 8 117 31.5t49 105.5l248 1000q14 53 14 74q0 31 -23 44t-87 19l12 49q129 -14 205 -14t213 14l-12 -49q-85 -7 -114 -32t-48 -105l-244 -977q-16 -63 -16 -84q0 -57 84 -57h80q94 0 152.5 55t127.5 207h57l-118 -330h-709z" />
<glyph unicode="M" horiz-adv-x="1314" d="M-43 -6l12 49q94 11 137 96q21 43 52.5 143t124.5 425l137 479q12 44 12 74q0 29 -25 42.5t-85 18.5l12 51q76 -8 125 -8q75 0 168 10l28 -1032l539 1032q98 -10 174 -10q50 0 129 8l-12 -49q-85 -8 -116 -33.5t-48 -103.5l-229 -987q-15 -68 -15 -88q0 -32 23 -47 t84 -21l-13 -49q-126 14 -206 14q-81 0 -215 -14l12 49q86 6 117.5 32t46.5 103l248 1026l-607 -1165h-47l-37 1159l-282 -1020q-13 -45 -13 -72q0 -31 22.5 -44t82.5 -19l-12 -49q-93 10 -158 10q-66 0 -166 -10z" />
<glyph unicode="N" horiz-adv-x="1069" d="M-45 -6l12 49q53 6 84 24.5t53 57.5q22 46 111 385l186 752q-12 29 -38.5 42.5t-77.5 18.5l12 49q76 -6 129 -6q52 0 131 6l262 -1032l201 823q14 63 14 88q0 34 -23 50t-81 22l12 49q97 -10 166 -10q67 0 162 10l-13 -49q-80 -9 -115 -49t-63 -152l-291 -1163h-32 l-307 1233l-195 -799q-57 -228 -57 -276q0 -35 21 -51t79 -23l-14 -49q-103 10 -164 10q-64 0 -164 -10z" />
<glyph unicode="O" horiz-adv-x="1011" d="M129 408q0 214 66 433t172 357q148 195 352 195q152 0 236.5 -114t84.5 -318q0 -188 -50 -381.5t-136 -333.5q-164 -273 -399 -273q-155 0 -240.5 114t-85.5 321zM285 352q0 -154 45.5 -237.5t130.5 -83.5q59 0 116.5 49.5t104.5 142.5q90 175 146.5 399.5t56.5 405.5 q0 136 -47.5 221.5t-122.5 85.5q-173 0 -307 -374q-123 -342 -123 -609z" />
<glyph unicode="P" horiz-adv-x="878" d="M-41 -6l12 49q86 7 116 32t50 105l248 1000q12 40 12 73q0 29 -24 43.5t-84 18.5l12 51h399q90 0 143 -15.5t87 -52.5q65 -68 65 -190q0 -106 -43 -213.5t-112 -171.5q-113 -107 -308 -107h-129l-108 -436q-12 -56 -12 -74q0 -30 24.5 -44.5t83.5 -18.5l-12 -49 q-129 14 -207 14q-79 0 -213 -14zM420 680h78q89 0 146 30.5t104 104.5q40 65 66 155t26 167q0 91 -44.5 128.5t-150.5 37.5h-70z" />
<glyph unicode="Q" horiz-adv-x="1003" d="M129 410q0 212 64.5 427t168.5 355q151 201 357 201q154 0 237.5 -112t83.5 -316q0 -206 -59.5 -416.5t-159.5 -360.5q-114 -169 -295 -206q27 -12 66 -43q57 -45 98 -45q28 0 58.5 18.5t76.5 64.5l-26 -100q-94 -100 -191 -100q-62 0 -135 59q-47 39 -71 52.5t-48 13.5 q-65 0 -166 -127l31 123q65 74 121 98q-211 85 -211 414zM285 365q0 -153 48.5 -242.5t131.5 -89.5q203 0 348 534q72 269 72 453q0 153 -43 234t-125 81q-76 0 -143.5 -71.5t-135.5 -223.5q-66 -152 -109.5 -344t-43.5 -331z" />
<glyph unicode="R" horiz-adv-x="980" d="M-41 -6l12 49q87 7 116.5 32t49.5 105l248 1000q12 46 12 69q0 34 -21.5 47t-86.5 19l12 51h383q151 0 213 -37q98 -61 98 -211q0 -174 -103 -299t-274 -157q51 -19 72 -54t33 -123l35 -239q11 -83 26 -127q26 -66 88 -66q36 0 89 27l-17 -62q-65 -36 -151 -36 q-83 0 -127 47q-24 26 -39.5 75t-32.5 158l-39 262q-10 75 -39 104t-92 29h-10l-119 -477q-12 -49 -12 -69q0 -34 21 -47.5t85 -20.5l-12 -49q-126 14 -205 14t-213 -14zM430 721h92q80 0 137 31.5t99 101.5q36 55 60 136.5t24 148.5q0 106 -70 143q-40 21 -141 21h-56z" />
<glyph unicode="S" horiz-adv-x="790" d="M29 154l63 297h55q-12 -91 -12 -140q0 -127 51.5 -197.5t143.5 -70.5q114 0 198 105.5t84 248.5q0 55 -27.5 99.5t-99.5 107.5l-77 68q-114 100 -151.5 161t-37.5 146q0 169 112 292.5t267 123.5q89 0 178 -52q38 -20 55 -20q13 0 52 23l-78 -357h-57q12 77 12 131 q0 100 -42 153.5t-120 53.5q-100 0 -172 -81t-72 -193q0 -57 27.5 -100.5t107.5 -112.5q153 -135 175 -158q84 -90 84 -217q0 -130 -57.5 -244t-155.5 -182t-209 -68q-95 0 -162 41.5t-135 141.5z" />
<glyph unicode="T" horiz-adv-x="825" d="M111 -6l12 49q88 9 116.5 33t47.5 104l280 1123h-63q-83 0 -134 -50t-120 -200h-55l122 313h687l-33 -313h-53q2 29 2 63q0 105 -31 146t-111 41h-53l-281 -1123q-12 -58 -12 -74q0 -29 24 -43t85 -20l-13 -49q-126 14 -204 14q-81 0 -213 -14z" />
<glyph unicode="U" horiz-adv-x="1054" d="M164 242q0 92 29 211l184 733q12 49 12 74q0 31 -23 44t-87 19l12 49q129 -14 205 -14t213 14l-13 -49q-84 -7 -113 -32t-48 -105l-185 -744q-28 -112 -28 -186q0 -76 52 -131t124 -55q86 0 160 56.5t118 156.5q34 72 94 311l144 573q14 66 14 90q0 34 -20.5 47t-83.5 19 l12 49q98 -10 166 -10q67 0 162 10l-13 -49q-86 -10 -118.5 -54.5t-73.5 -209.5l-12 -41l-39 -154l-105 -415q-48 -198 -123 -306q-57 -80 -142 -123t-187 -43q-129 0 -208 72.5t-79 192.5z" />
<glyph unicode="V" horiz-adv-x="872" d="M193 1323l12 49q115 -14 213 -14q91 0 192 14l-14 -49q-70 -7 -95.5 -27t-25.5 -67l-8 -957l356 707q77 151 96 196.5t19 79.5q0 23 -12.5 37.5t-34.5 14.5q-1 0 -41 -7l-6 48q123 22 221 69q4 -20 4 -45q0 -43 -22.5 -98.5t-94.5 -192.5q-36 -68 -43 -84l-538 -1052h-39 l-23 1247q-3 79 -23 102t-93 29z" />
<glyph unicode="W" horiz-adv-x="1253" d="M203 1323l12 49q104 -14 193 -14q91 0 200 14l-12 -49q-80 -8 -105 -31t-26 -92l-51 -835l487 1044h64l-33 -1042l315 694q70 151 70 203q0 19 -11 31t-28 12q-9 0 -33 -4l-14 -3l-4 48q131 17 223 71q4 -14 4 -30q0 -27 -10 -58t-43 -102l-588 -1272h-43l39 1102 l-516 -1102h-45l53 1239q0 72 -19.5 97t-78.5 30z" />
<glyph unicode="X" horiz-adv-x="952" d="M-96 -6l12 49q64 6 102 35t113 131q7 10 15.5 20.5t19 23.5t16.5 21l310 400l-84 500l-5 26q-10 68 -36 91.5t-97 31.5l13 49q112 -14 215 -14q95 0 196 14l-12 -49q-69 -6 -97 -23.5t-28 -54.5q0 -19 4 -43l60 -364l256 333q49 65 49 105q0 14 -11 22.5t-28 8.5 q-1 0 -41 -7l-2 48q129 18 221 69v-18q0 -57 -25 -105.5t-116 -165.5l-289 -374l96 -568q15 -89 39 -113.5t98 -29.5l-12 -49q-123 14 -203 14q-75 0 -215 -14l13 49q70 7 98.5 26.5t28.5 57.5q0 25 -5 45l-67 416l-283 -367q-73 -94 -73 -131q0 -23 19 -32.5t67 -14.5 l-13 -49q-101 8 -162 8t-157 -8z" />
<glyph unicode="Y" horiz-adv-x="829" d="M127 -6l12 49q88 9 116.5 33t47.5 104l105 416l-66 516l-8 78q-11 74 -36 100.5t-93 32.5l12 49q115 -14 203 -14q89 0 209 14l-13 -49q-77 -9 -99.5 -24t-22.5 -56q0 -37 6 -104l45 -461l295 475q55 87 55 123q0 13 -10 22t-25 9q-1 0 -45 -7l-4 48q60 10 101.5 23 t127.5 46v-22q0 -35 -15 -67.5t-77 -131.5l-383 -600l-102 -416q-14 -59 -14 -78q0 -26 24 -39.5t82 -19.5l-12 -49q-129 14 -205 14q-74 0 -211 -14z" />
<glyph unicode="Z" horiz-adv-x="802" d="M-59 0l852 1303h-236q-86 0 -145 -53t-119 -185h-60l119 301h662l-856 -1298h270q101 0 161 51.5t148 214.5h51l-122 -334h-725z" />
<glyph unicode="[" horiz-adv-x="503" d="M-27 -397l441 1763h291l-17 -61h-156l-409 -1641h158l-17 -61h-291z" />
<glyph unicode="\" horiz-adv-x="731" d="M305 1366h90l164 -1763h-90z" />
<glyph unicode="]" horiz-adv-x="503" d="M-145 -397l14 61h158l409 1641h-157l16 61h291l-441 -1763h-290z" />
<glyph unicode="^" horiz-adv-x="1024" d="M160 588l26 39l572 807h10l188 -846h-151l-137 614l-439 -614h-69z" />
<glyph unicode="_" horiz-adv-x="1024" d="M-51 -180h923v-78h-923v78z" />
<glyph unicode="`" horiz-adv-x="819" d="M397 1401h170l80 -303h-72z" />
<glyph unicode="a" horiz-adv-x="833" d="M55 246q0 97 29.5 216t79.5 222q71 145 162.5 223t191.5 78q111 0 137 -123l31 107q90 3 156 20l-176 -635q-34 -123 -43 -161.5t-9 -65.5q0 -20 10.5 -35.5t22.5 -15.5q20 0 40 23t54 85l39 -34q-47 -92 -90 -130t-100 -38t-91 33t-38 94q-85 -127 -199 -127 q-97 0 -152 70t-55 194zM199 176q0 -64 22 -100.5t60 -36.5q111 0 204 237q46 118 82.5 270.5t36.5 231.5q0 150 -82 150q-55 0 -108.5 -71t-110.5 -220q-46 -123 -75 -250t-29 -211z" />
<glyph unicode="b" horiz-adv-x="792" d="M109 258q0 59 9.5 112.5t47.5 211.5l149 596q13 54 13 71q0 29 -20 39t-77 10l9 37q138 12 278 54l-129 -521q55 64 99.5 90.5t99.5 26.5q91 0 144.5 -72t53.5 -194q0 -139 -43.5 -286.5t-117.5 -256.5q-129 -194 -297 -194q-98 0 -158.5 76t-60.5 200zM248 178 q0 -63 23 -100t63 -37q54 0 108.5 69t98.5 195q45 127 74.5 262t29.5 213q0 69 -22.5 108.5t-63.5 39.5q-49 0 -99.5 -59.5t-94.5 -170.5q-50 -127 -83.5 -275t-33.5 -245z" />
<glyph unicode="c" horiz-adv-x="663" d="M66 276q0 123 42 264.5t109 247.5q129 203 305 203q61 0 125 -30q27 -15 47 -15q17 0 49 25l-71 -322h-49q10 69 10 121q0 75 -27.5 118.5t-73.5 43.5q-58 0 -109 -56t-104 -176q-46 -110 -77 -241t-31 -221q0 -94 31 -143.5t90 -49.5q75 0 135 72t100 209h68 q-104 -351 -336 -351q-109 0 -171 80.5t-62 220.5z" />
<glyph unicode="d" horiz-adv-x="833" d="M61 258q0 132 44 279t116 254q131 194 289 194q55 0 87.5 -28.5t47.5 -88.5l78 310q12 52 12 73q0 28 -19.5 37.5t-74.5 9.5l10 37q104 0 275 54l-258 -1035l-13 -55q-10 -45 -12 -55q-20 -70 -20 -117q0 -20 10.5 -35.5t23.5 -15.5q20 0 39.5 22.5t53.5 85.5l38 -34 q-53 -99 -91 -133.5t-95 -34.5q-117 0 -129 124q-42 -65 -89 -94.5t-108 -29.5q-99 0 -157 74.5t-58 201.5zM203 190q0 -72 23.5 -111.5t64.5 -39.5q111 0 198 237q41 109 75 262t34 232q0 77 -22.5 117.5t-65.5 40.5q-116 0 -217 -291q-40 -117 -65 -242t-25 -205z" />
<glyph unicode="e" horiz-adv-x="696" d="M63 274q0 119 39.5 252t106.5 238q138 221 326 221q89 0 141.5 -51t52.5 -139q0 -148 -138.5 -246.5t-350.5 -99.5q-31 -127 -31 -203q0 -92 33.5 -144.5t93.5 -52.5q75 0 145.5 75t104.5 191h69q-54 -161 -145.5 -247t-208.5 -86q-109 0 -173.5 79.5t-64.5 212.5z M254 506q64 0 108 16q95 32 163.5 120.5t68.5 180.5q0 46 -19.5 75.5t-48.5 29.5q-72 0 -144.5 -112t-127.5 -310z" />
<glyph unicode="f" horiz-adv-x="491" d="M-203 -377l13 53q82 18 134 69.5t92.5 155t82.5 294.5l166 696h-111l14 63h19q61 4 83.5 29.5t51.5 122.5q27 86 41.5 121t38.5 71q63 97 188 97q73 0 116.5 -35.5t43.5 -95.5q0 -51 -27 -83t-69 -32q-28 0 -45 16t-17 43q0 14 13 47q18 37 18 50q0 38 -37 38 q-35 0 -64.5 -62t-64.5 -212l-24 -104h176l-19 -74h-176l-178 -752q-64 -278 -170 -397t-289 -119z" />
<glyph unicode="g" horiz-adv-x="745" d="M-66 -162q0 202 218 258q-58 40 -58 97q0 58 46 102t153 88q-131 69 -131 233q0 154 97 263.5t233 109.5q102 0 163 -61l228 8l-21 -86l-166 4q29 -60 29 -121q0 -70 -23 -140.5t-61 -117.5q-44 -54 -103 -79t-153 -31q-170 -60 -170 -129q0 -28 21.5 -38t105.5 -20 q148 -16 205 -49q92 -53 92 -180q0 -160 -106.5 -258.5t-278.5 -98.5q-147 0 -233.5 66t-86.5 180zM4 -154q0 -85 71 -134.5t191 -49.5q117 0 187.5 59.5t70.5 157.5q0 156 -266 156q-120 0 -187 -50t-67 -139zM301 557q0 -63 26 -99t70 -36q83 0 138 133q53 122 53 244 q0 60 -24.5 96.5t-65.5 36.5q-86 0 -148 -146q-49 -120 -49 -229z" />
<glyph unicode="h" horiz-adv-x="866" d="M51 0l303 1212q4 24 4 39q0 28 -20 37.5t-76 9.5l8 37q134 12 279 54l-127 -512q88 108 207 108q76 0 122 -52t46 -138q0 -63 -25 -158l-96 -389q-23 -89 -23 -123q0 -21 10.5 -36t24.5 -15q22 0 37.5 20t52.5 94l41 -32q-38 -91 -82 -132.5t-102 -41.5q-55 0 -93 38.5 t-38 94.5q0 34 8 75t37 154l74 299q24 87 24 154q0 43 -22.5 69.5t-57.5 26.5q-69 0 -123 -67.5t-86 -196.5l-155 -629h-152z" />
<glyph unicode="i" horiz-adv-x="454" d="M88 106q0 46 31 173l133 514q16 59 16 75q0 25 -20 34t-76 11l8 35q114 3 279 53l-197 -753q-24 -88 -24 -127q0 -47 26 -47q21 0 42.5 26t51.5 86l37 -30q-43 -96 -85.5 -135t-104.5 -39q-51 0 -84 34.5t-33 89.5zM328 1249q0 49 34.5 84t81.5 35q41 0 70 -29.5 t29 -72.5q0 -47 -34.5 -83t-80.5 -36q-43 0 -71.5 29.5t-28.5 72.5z" />
<glyph unicode="j" horiz-adv-x="440" d="M-219 -377l12 53q106 20 170.5 110t114.5 284l176 723q14 57 14 73q0 26 -20 35.5t-76 11.5l8 35q138 12 275 53l-209 -862q-64 -275 -174 -397q-107 -119 -285 -119h-6zM326 1249q0 49 34.5 84t81.5 35q41 0 70 -29.5t29 -72.5q0 -47 -34.5 -83t-80.5 -36 q-43 0 -71.5 29.5t-28.5 72.5z" />
<glyph unicode="k" horiz-adv-x="833" d="M51 0l293 1178q14 54 14 73q0 28 -20 37.5t-76 9.5l8 37q130 14 277 54l-215 -869l282 281q62 62 62 90q0 35 -74 41l10 41q79 -10 156 -10q76 0 168 10l-10 -41q-57 -7 -100 -35.5t-140 -120.5l-151 -145l106 -402q29 -108 48 -142t50 -34q19 0 80 25l-12 -51 q-41 -26 -70.5 -35.5t-68.5 -9.5q-70 0 -106 39.5t-66 152.5l-93 330l-100 -96l-100 -408h-152z" />
<glyph unicode="l" horiz-adv-x="454" d="M92 109q0 61 45 235l209 836q12 51 12 69q0 29 -19.5 39t-76.5 10l8 37q133 12 279 54l-277 -1110q-28 -105 -28 -154q0 -22 10 -36.5t25 -14.5q22 0 41.5 23t50.5 83l37 -22q-46 -103 -86 -139.5t-107 -36.5q-55 0 -89 35t-34 92z" />
<glyph unicode="m" horiz-adv-x="1234" d="M51 0l199 795q14 57 14 73q0 23 -17 29t-83 8l10 37q155 24 248 62q-5 -66 -23 -152q100 133 222 133q133 0 157 -145q44 69 104 107t124 38q74 0 122 -47t48 -119q0 -59 -25 -164l-88 -340q-39 -149 -39 -188q0 -23 11 -38t28 -15q19 0 39 22.5t53 83.5l33 -24 q-41 -96 -84.5 -135t-108.5 -39q-56 0 -90.5 35t-34.5 92t29 170l98 383q23 94 23 143q0 38 -21 63t-55 25q-121 0 -186 -244l-164 -649h-152l166 666q23 91 23 133q0 43 -20 68.5t-54 25.5q-64 0 -115.5 -68.5t-83.5 -197.5l-155 -627h-152z" />
<glyph unicode="n" horiz-adv-x="866" d="M51 0l195 778q16 66 16 92q0 22 -17 27.5t-79 7.5l8 37q147 21 248 62q-2 -41 -21 -148q63 70 114.5 99.5t113.5 29.5q75 0 121.5 -51t46.5 -135q0 -61 -25 -170l-96 -381q-21 -91 -21 -121q0 -24 10 -38.5t27 -14.5q20 0 39 22t51 84l37 -24q-43 -98 -85.5 -137 t-108.5 -39q-54 0 -87.5 35.5t-33.5 93.5q0 46 28 170l91 356q24 102 24 156q0 47 -21.5 74.5t-58.5 27.5q-74 0 -137 -92q-41 -56 -72 -172l-155 -629h-152z" />
<glyph unicode="o" horiz-adv-x="770" d="M72 289q0 137 44.5 284.5t114.5 245.5q120 166 291 166q112 0 174 -80t62 -223q0 -129 -39.5 -268.5t-104.5 -239.5q-124 -192 -305 -192q-114 0 -175.5 79.5t-61.5 227.5zM213 215q0 -176 106 -176q57 0 105.5 59t95.5 187q43 116 68.5 241t25.5 219q0 183 -104 183 q-60 0 -110 -62.5t-97 -197.5q-90 -259 -90 -453z" />
<glyph unicode="p" horiz-adv-x="825" d="M-51 -403l291 1167q16 69 16 96q0 30 -18.5 41t-73.5 14l8 37q133 10 242 37q0 -58 -17 -141q49 72 100 104.5t113 32.5q94 0 149.5 -77t55.5 -206q0 -132 -44 -279t-114 -251q-128 -190 -284 -190q-57 0 -90.5 28t-55.5 94l-127 -507h-151zM274 211q0 -81 27 -126.5 t74 -45.5q40 0 79 35.5t70 99.5q60 125 104 301t44 287q0 79 -23.5 122.5t-66.5 43.5q-51 0 -103.5 -61t-93.5 -167q-38 -97 -74.5 -257t-36.5 -232z" />
<glyph unicode="q" horiz-adv-x="819" d="M61 262q0 131 45 276t119 253q132 194 295 194q119 0 146 -137q29 94 57 141q80 -24 135 -26q-31 -60 -49 -113t-57 -207l-263 -1046h-149l123 495q-49 -61 -91 -85.5t-98 -24.5q-98 0 -155.5 75t-57.5 205zM203 190q0 -72 23.5 -111.5t66.5 -39.5q113 0 205 233 q43 110 77.5 264t34.5 234q0 75 -23.5 116.5t-66.5 41.5q-57 0 -116 -77.5t-111 -223.5q-41 -112 -65.5 -231t-24.5 -206z" />
<glyph unicode="r" horiz-adv-x="589" d="M51 0l191 760q18 80 18 106q0 22 -16 30.5t-58 8.5h-20l8 37q149 15 227 53q7 -32 7 -45q0 -39 -25 -149q56 100 108 144t115 44q46 0 74.5 -32.5t28.5 -86.5q0 -55 -29.5 -91t-73.5 -36q-63 0 -63 62q0 43 35 63q-11 33 -33 33q-50 0 -113 -117.5t-106 -289.5l-125 -494 h-150z" />
<glyph unicode="s" horiz-adv-x="641" d="M16 113l43 206l50 3q-5 -82 -5 -84q0 -89 43 -145t109 -56q75 0 131.5 68.5t56.5 160.5q0 53 -25 87t-128 120q-80 68 -107.5 112t-27.5 105q0 123 81 212t195 89q57 0 119 -28q33 -13 49 -13q20 0 62 29l-58 -279h-51q6 44 6 68q0 78 -30.5 120t-86.5 42 q-63 0 -110 -51.5t-47 -120.5q0 -47 24.5 -80t118.5 -109q86 -69 118 -121t32 -124q0 -145 -94 -247t-226 -102q-75 0 -133 33t-109 105z" />
<glyph unicode="t" horiz-adv-x="454" d="M98 137q0 68 33 211l123 543h-102l16 61q70 0 134.5 79t117.5 229h69l-69 -295h166l-19 -74h-164l-124 -569q-27 -135 -27 -170q0 -40 16 -64.5t43 -24.5q20 0 39 10.5t60 41.5l-15 -70q-39 -35 -73.5 -49t-77.5 -14q-69 0 -107.5 40t-38.5 115z" />
<glyph unicode="u" horiz-adv-x="868" d="M109 172q0 58 24 160l115 461q12 49 12 69q0 29 -18.5 39.5t-75.5 11.5l8 35q143 13 277 53l-168 -671q-25 -103 -25 -152q0 -47 22.5 -76.5t59.5 -29.5q142 0 223 323l144 574q76 2 155 20l-157 -633q-46 -177 -46 -227q0 -21 10.5 -37t24.5 -16q21 0 41 23t51 83 l37 -30q-51 -98 -90 -134t-96 -36q-123 0 -129 135q-51 -71 -102.5 -103t-114.5 -32q-82 0 -132 52.5t-50 137.5z" />
<glyph unicode="v" horiz-adv-x="722" d="M96 932l10 41q131 -12 183 -12q70 0 176 12l-10 -41q-66 -4 -83.5 -20.5t-19.5 -73.5l10 -617l271 516q59 115 59 156q0 19 -14 30t-39 11h-21l-2 39q115 12 187 67q10 -31 10 -51q0 -36 -14.5 -72.5t-61.5 -125.5l-458 -830h-48l-34 856q-5 74 -21 92.5t-80 22.5z" />
<glyph unicode="w" horiz-adv-x="1069" d="M111 932l10 41q100 -10 174 -10q71 0 176 10l-10 -41q-62 -3 -81 -21.5t-22 -76.5l-2 -58l-28 -522l366 754h64l-6 -750l239 504q41 83 41 123q0 28 -16.5 38t-65.5 11v41q108 8 183 65q14 -35 14 -59q0 -33 -11.5 -68t-45.5 -106l-418 -846h-60l2 746l-364 -746h-60 l11 811v34q-1 23 -1 38q-2 25 -5.5 44.5t-15 27t-26 11.5t-42.5 5z" />
<glyph unicode="x" horiz-adv-x="776" d="M-90 -6l10 41q49 4 86 30t94 95l250 307l-84 379q-11 46 -35 65.5t-73 20.5l10 41q102 -10 180 -10q80 0 172 10l-10 -41q-44 -6 -62 -20t-18 -42q0 -25 12 -75l37 -174l162 206q39 50 39 76q0 18 -12.5 25.5t-42.5 7.5h-11v37q110 19 166 67q21 -37 21 -59 q0 -29 -17.5 -62t-60.5 -88l-227 -284l63 -301q22 -101 36.5 -133.5t39.5 -32.5q22 0 40 21.5t44 78.5l39 -30q-66 -168 -185 -168q-67 0 -102 46t-63 171l-43 194l-185 -235q-45 -57 -45 -86q0 -18 14 -26t50 -11l-11 -41q-82 10 -137 10q-51 0 -141 -10z" />
<glyph unicode="y" horiz-adv-x="698" d="M-135 -403l6 135q54 -23 84 -23q54 0 118 66.5t130 191.5l37 66l-50 803q-3 57 -20.5 74.5t-75.5 21.5l10 41q87 -10 175 -10q85 0 178 10l-11 -41q-67 -6 -84 -22q-14 -14 -14 -64v-12l14 -578l271 514q45 83 45 127q0 39 -49 39q-13 0 -25 -2v39q58 4 99 18t92 47 q8 -33 8 -55q0 -32 -13.5 -65.5t-52.5 -102.5q-6 -11 -20 -36.5t-21 -39.5l-436 -807q-80 -146 -132.5 -214t-106 -94.5t-136.5 -26.5h-20z" />
<glyph unicode="z" horiz-adv-x="655" d="M-68 0l682 844q-93 -41 -170 -41q-30 0 -69 16q-52 19 -64 19q-32 0 -60 -32.5t-63 -111.5h-49q41 131 78 185q66 96 154 96q42 0 129 -33q94 -35 121 -35q46 0 100 51h72l-674 -829q54 25 85 33t70 8q38 0 84 -12q60 -17 80 -17q36 0 68.5 37.5t71.5 126.5h47 q-54 -174 -117 -245.5t-162 -71.5q-63 0 -184 51q-43 16 -62 16q-43 0 -98 -55h-70z" />
<glyph unicode="{" horiz-adv-x="524" d="M35 -315q0 46 20 127l129 514q13 54 13 86q0 60 -70 94q63 23 94.5 59.5t48.5 106.5l125 504q34 138 82 180.5t168 42.5h47q-66 -23 -99.5 -66.5t-55.5 -134.5l-121 -487q-23 -88 -57 -133.5t-95 -71.5q35 -25 49.5 -49t14.5 -58q0 -42 -15 -96l-131 -528 q-14 -61 -14 -97q0 -79 86 -110h-66q-79 0 -116 28.5t-37 88.5z" />
<glyph unicode="|" horiz-adv-x="1024" d="M483 -342v1708h97v-1708h-97z" />
<glyph unicode="}" horiz-adv-x="524" d="M-113 -432q66 23 99 66.5t55 134.5l123 487q22 88 55.5 134t93.5 71q-35 26 -49 49t-14 57q0 36 14 97l131 528q17 61 17 96q0 80 -88 111h67q79 0 116.5 -28.5t37.5 -88.5q0 -32 -23 -127l-127 -514q-14 -57 -14 -86q0 -60 72 -94q-63 -22 -95 -58.5t-49 -107.5 l-125 -502q-23 -89 -42.5 -128t-53.5 -62q-29 -20 -62.5 -27.5t-91.5 -7.5h-47z" />
<glyph unicode="~" horiz-adv-x="915" d="M332 1241q150 211 278 211q28 0 53 -8.5t78 -34.5q74 -39 115 -39q80 0 168 105l31 -23q-66 -98 -140 -153.5t-137 -55.5q-46 0 -110 35q-59 29 -88 39t-58 10q-37 0 -65.5 -18t-75.5 -70l-19 -20z" />
<glyph unicode="&#xa1;" horiz-adv-x="421" d="M-43 -371l260 930h107l-195 -930h-172zM215 860q0 53 37.5 91t89.5 38q44 0 75.5 -32t31.5 -78q0 -54 -37 -92.5t-88 -38.5q-46 0 -77.5 32.5t-31.5 79.5z" />
<glyph unicode="&#xa2;" d="M182 475q0 145 53.5 302t139.5 267q109 140 256 146l37 149h67l-39 -155q16 -4 68 -25q28 -14 49 -14q16 0 47 24l-72 -321h-49q11 76 11 121q0 125 -68 155l-219 -878q66 1 126 77t95 201h68q-44 -158 -124 -247.5t-184 -100.5l-36 -151h-68l39 153q-94 13 -145.5 91 t-51.5 206zM328 438q0 -144 71 -182l215 870q-73 -24 -133 -135q-66 -121 -109.5 -279.5t-43.5 -273.5z" />
<glyph unicode="&#xa3;" d="M0 0q42 47 77.5 118t94.5 228l111 322h-117l16 65h123l62 174q85 245 187.5 363.5t229.5 118.5q164 0 164 -191q0 -36 -4 -65h-74q4 31 4 61q0 55 -24 89t-62 34q-61 0 -118 -70.5t-103 -202.5l-108 -311h174l-17 -65h-182l-84 -238q-44 -118 -98 -203t-133 -161 q111 65 182 65q37 0 100 -22q52 -17 88 -17q113 0 191 205h63q-50 -155 -129 -234q-39 -37 -80 -50t-124 -13h-410z" />
<glyph unicode="&#xa4;" horiz-adv-x="1185" d="M162 264l149 150q-104 128 -104 299t104 299l-149 149l67 68l150 -150q131 107 299 107q171 0 299 -107l149 150l68 -68l-150 -149q107 -128 107 -299t-107 -299l150 -150l-68 -67l-149 149q-130 -106 -299 -106t-299 106l-150 -149zM303 717q0 -160 109.5 -270.5 t267.5 -110.5q157 0 267 110t110 267t-110 267t-267 110t-267 -109t-110 -264z" />
<glyph unicode="&#xa5;" d="M166 -6l12 49q88 9 116.5 33t47.5 104l104 414h-270l19 76h241l-18 153h-185l19 76h156l-27 213l-8 78q-11 74 -36 100.5t-93 32.5l12 49q115 -14 203 -14q89 0 209 14l-13 -49q-77 -9 -100 -24t-23 -56q0 -25 7 -104l45 -463l295 477q33 53 44 78t11 45q0 13 -10 22 t-25 9q-1 0 -45 -7l-4 48q60 10 101.5 23t127.5 46v-22q0 -35 -15 -67.5t-77 -131.5l-190 -297h139l-18 -76h-168l-97 -153h226l-19 -76h-256l-102 -414q-15 -65 -15 -78q0 -26 24.5 -39.5t82.5 -19.5l-12 -49q-126 14 -205 14q-77 0 -211 -14z" />
<glyph unicode="&#xa6;" horiz-adv-x="1024" d="M483 313h97v-655h-97v655zM483 686v680h97v-680h-97z" />
<glyph unicode="&#xa7;" horiz-adv-x="819" d="M6 -82q0 36 8 88h66q-4 -58 -4 -76q0 -83 47 -132.5t127 -49.5q83 0 141 70.5t58 173.5q0 98 -68 166l-168 161q-76 76 -76 177q0 71 28 134t77 103q47 35 139 70q-43 58 -60.5 102t-17.5 99q0 144 96 247t230 103q106 0 166.5 -62.5t60.5 -169.5q0 -41 -8 -96h-64 q7 58 7 72q0 80 -40.5 124t-113.5 44q-77 0 -136 -65.5t-59 -151.5q0 -44 18.5 -80t67.5 -82l142 -142q90 -93 90 -194q0 -105 -62 -191t-174 -133q40 -51 56 -94t16 -100q0 -155 -96.5 -260t-241.5 -105q-117 0 -184.5 66.5t-67.5 183.5zM258 569q0 -53 33.5 -97 t187.5 -193q152 62 152 202q0 51 -32.5 94.5t-168.5 176.5q-90 -31 -131 -74.5t-41 -108.5z" />
<glyph unicode="&#xa8;" horiz-adv-x="819" d="M360 1249q0 49 34.5 84t82.5 35q41 0 69.5 -29.5t28.5 -72.5q0 -47 -34 -83t-80 -36q-43 0 -72 29.5t-29 72.5zM647 1249q0 49 34.5 84t82.5 35q40 0 68 -29.5t28 -72.5q0 -47 -34.5 -83t-80.5 -36q-41 0 -69.5 29.5t-28.5 72.5z" />
<glyph unicode="&#xa9;" horiz-adv-x="1544" d="M168 637q0 201 100.5 373.5t272 274t370.5 101.5q128 0 243.5 -51t199 -138t133 -208t49.5 -254q0 -151 -59 -290.5t-158 -241t-234.5 -162.5t-281.5 -61q-177 0 -323 86t-229 236.5t-83 334.5zM238 641q0 -166 74 -301.5t205 -213t292 -77.5q130 0 251.5 55t210 147 t142 218t53.5 262q0 159 -75 294t-204 213.5t-282 78.5q-294 0 -495 -227q-82 -94 -127 -211t-45 -238zM569 498q0 116 35.5 239.5t93.5 212.5q104 162 250 162q53 0 111 -35q34 -20 45 -20t31 14l-48 -215h-43q7 61 7 72q0 60 -27 96.5t-70 36.5q-54 0 -98.5 -46.5 t-87.5 -146.5q-35 -85 -59.5 -196.5t-24.5 -190.5q0 -73 27 -115t73 -42q63 0 113.5 60.5t79.5 170.5h55q-37 -145 -107 -222t-167 -77q-89 0 -139 64t-50 178z" />
<glyph unicode="&#xaa;" horiz-adv-x="563" d="M131 604l16 70h435l-17 -70h-434zM215 948q0 126 66 258q45 87 104 135t123 48q61 0 82 -64l16 53q48 0 105 13l-107 -385q-29 -107 -29 -134q0 -10 5.5 -18t13.5 -8q14 0 51 61l29 -24q-29 -58 -55.5 -81.5t-63.5 -23.5q-35 0 -58 19t-26 51q-52 -70 -119 -70 q-62 0 -99.5 47t-37.5 123zM317 905q0 -82 45 -82q49 0 93 80q35 66 64.5 178.5t29.5 180.5q0 81 -45 81q-64 0 -127 -169q-60 -159 -60 -269z" />
<glyph unicode="&#xab;" horiz-adv-x="638" d="M70 487l354 478h51l-254 -478l15 -487h-43zM285 487l352 478h55l-260 -478l19 -487h-45z" />
<glyph unicode="&#xac;" horiz-adv-x="1024" d="M94 471v76h875v-547h-174v471h-701z" />
<glyph unicode="&#xad;" horiz-adv-x="319" d="M27 483l26 109h322l-29 -109h-319z" />
<glyph unicode="&#xae;" horiz-adv-x="1544" d="M168 637q0 201 100.5 373.5t272 274t370.5 101.5q128 0 243.5 -51t199 -138t133 -208t49.5 -254q0 -151 -59 -290.5t-158 -241t-234.5 -162.5t-281.5 -61q-177 0 -323 86t-229 236.5t-83 334.5zM238 641q0 -166 74 -301.5t205 -213t292 -77.5q130 0 251.5 55t210 147 t142 218t53.5 262q0 159 -75 294t-204 213.5t-282 78.5q-294 0 -495 -227q-82 -94 -127 -211t-45 -238zM496 274l10 43q53 5 70.5 19t27.5 63l144 574q8 36 8 43q0 20 -13 28t-53 11l10 43h230q102 0 145 -34t43 -114q0 -106 -62 -180.5t-165 -93.5q31 -10 43 -31.5 t20 -75.5l21 -143q8 -57 24 -83t45 -26q19 0 54 17l-13 -45q-43 -21 -88 -21q-63 0 -93 36.5t-42 125.5l-24 158q-9 50 -18 64t-34 14l-65 -267q-8 -33 -8 -43q0 -20 13 -28t50 -11l-10 -43q-73 11 -131 11q-61 0 -139 -11zM799 717h35q42 0 70.5 18.5t53.5 61.5 q46 75 46 157q0 53 -24 74t-85 21h-12z" />
<glyph unicode="&#xaf;" horiz-adv-x="819" d="M373 1194l26 104h500l-27 -104h-499z" />
<glyph unicode="&#xb0;" horiz-adv-x="940" d="M362 1108q0 120 86 204.5t209 84.5q117 0 202 -86t85 -205q0 -120 -85 -205.5t-206 -85.5t-206 85.5t-85 207.5zM473 1108q0 -76 52.5 -129t127.5 -53t128 52.5t53 127.5q0 74 -53 127t-126 53q-75 0 -128.5 -52.5t-53.5 -125.5z" />
<glyph unicode="&#xb1;" d="M6 55l31 121h680l-29 -121h-682zM147 631l29 121h279l88 356h127l-90 -356h278l-31 -121h-276l-88 -359h-129l90 359h-277z" />
<glyph unicode="&#xb2;" horiz-adv-x="550" d="M115 530l18 74q244 276 326 393t82 189q0 35 -16 55.5t-42 20.5q-47 0 -84 -40t-71 -128h-60q35 128 95 188.5t151 60.5q67 0 107.5 -39.5t40.5 -105.5q0 -67 -36.5 -131.5t-136.5 -173.5q-170 -187 -247 -264h286l-34 -99h-379z" />
<glyph unicode="&#xb3;" horiz-adv-x="550" d="M147 727q0 14 3 41h57q0 -172 104 -172q60 0 102 61.5t42 147.5q0 63 -27.5 92.5t-89.5 32.5l14 55h13q64 0 109.5 53.5t45.5 130.5q0 43 -19 71t-50 28q-38 0 -66 -32.5t-53 -105.5h-62q34 110 85.5 161.5t129.5 51.5q69 0 110.5 -42.5t41.5 -112.5q0 -79 -44 -141.5 t-116 -85.5q52 -26 74 -62t22 -96q0 -117 -73 -200t-176 -83q-85 0 -131 54.5t-46 152.5z" />
<glyph unicode="&#xb4;" horiz-adv-x="819" d="M510 1098l229 303h183l-326 -303h-86z" />
<glyph unicode="&#xb5;" horiz-adv-x="901" d="M-35 -332q0 24 7 50t40 120l66 180q31 87 77.5 246t75.5 277l99 395h159l-147 -588q-33 -135 -33 -188q0 -37 15.5 -60.5t40.5 -23.5q38 0 76.5 32t93.5 111l178 717h159l-172 -684q-22 -88 -22 -121q0 -17 8.5 -27t20.5 -10t23.5 6.5t39.5 28.5l-14 -57 q-70 -54 -106.5 -73t-67.5 -19q-37 0 -53.5 18.5t-16.5 58.5q0 27 4 52q-91 -88 -133 -114t-94 -26q-57 0 -84 42.5t-27 133.5q-37 -144 -37 -235v-96q0 -95 -32 -152t-86 -57q-25 0 -41.5 17.5t-16.5 45.5z" />
<glyph unicode="&#xb6;" horiz-adv-x="858" d="M164 -293l239 963q-96 15 -141 76t-45 176q0 95 36.5 186.5t98.5 153.5q62 59 134.5 81.5t199.5 22.5h367l-13 -49q-74 -6 -105 -26t-44 -72l-377 -1512h-108l362 1458q20 78 20 95q0 43 -47 43q-38 0 -59.5 -19.5t-32.5 -62.5l-377 -1514h-108z" />
<glyph unicode="&#xb7;" horiz-adv-x="413" d="M129 487q0 53 37.5 91t89.5 38q44 0 75 -32t31 -78q0 -54 -36.5 -92.5t-87.5 -38.5q-46 0 -77.5 32.5t-31.5 79.5z" />
<glyph unicode="&#xb8;" horiz-adv-x="819" d="M145 -379l15 60q53 -19 78 -19q38 0 63 30.5t25 76.5q0 34 -19.5 50t-64.5 21l110 160h76l-80 -121q103 -15 103 -108q0 -77 -55 -130t-136 -53q-58 0 -115 33z" />
<glyph unicode="&#xb9;" horiz-adv-x="550" d="M168 526l12 45q64 6 86 24.5t37 78.5l127 518l-104 -2l12 43q64 4 116.5 39.5t84.5 95.5h51l-170 -684q-10 -45 -10 -63q0 -22 17.5 -34t59.5 -16l-12 -45q-87 11 -147 11q-61 0 -160 -11z" />
<glyph unicode="&#xba;" horiz-adv-x="540" d="M111 604l16 70h434l-16 -70h-434zM229 979q0 78 27 163t70 144q79 107 186 107q72 0 111 -47.5t39 -135.5q0 -177 -80 -301.5t-193 -124.5q-75 0 -117.5 51.5t-42.5 143.5zM336 938q0 -51 15.5 -79t43.5 -28q33 0 60 38t55 124q47 156 47 260q0 95 -53 95 q-31 0 -58.5 -37t-56.5 -117q-53 -148 -53 -256z" />
<glyph unicode="&#xbb;" horiz-adv-x="638" d="M2 0l258 477l-16 488h45l119 -488l-351 -477h-55zM217 0l256 477l-14 488h43l123 -488l-355 -477h-53z" />
<glyph unicode="&#xbc;" horiz-adv-x="1208" d="M168 526l12 45q64 6 86 24.5t37 78.5l127 518l-104 -2l12 43q64 4 116.5 39.5t84.5 95.5h51l-170 -684q-10 -45 -10 -63q0 -22 17.5 -34t59.5 -16l-12 -45q-87 11 -147 11q-61 0 -160 -11zM190 0l940 1335h93l-940 -1335h-93zM653 221l6 31l410 561h111l-123 -504h90 l-23 -88h-90l-55 -227h-115l56 227h-267zM770 309h174l92 371z" />
<glyph unicode="&#xbd;" horiz-adv-x="1208" d="M162 0l940 1335h90l-938 -1335h-92zM168 526l10 45q65 6 87.5 24.5t35.5 78.5l129 518l-104 -2l10 43q65 5 118 40t85 95h51l-172 -684q-10 -42 -10 -63q0 -22 18 -34t61 -16l-12 -45q-91 11 -149 11q-59 0 -158 -11zM639 0l20 74q243 276 324.5 392t81.5 189 q0 35 -15.5 55.5t-41.5 20.5q-47 0 -84 -39.5t-72 -128.5h-59q35 128 95 189t150 61q67 0 107.5 -39.5t40.5 -105.5q0 -68 -36.5 -133t-135.5 -173q-148 -164 -248 -264h289l-37 -98h-379z" />
<glyph unicode="&#xbe;" horiz-adv-x="1208" d="M147 727q0 14 3 41h57q0 -172 104 -172q60 0 102 61.5t42 147.5q0 63 -27.5 92.5t-89.5 32.5l14 55h13q64 0 109.5 53.5t45.5 130.5q0 43 -19 71t-50 28q-38 0 -66 -32.5t-53 -105.5h-62q34 110 85.5 161.5t129.5 51.5q69 0 110.5 -42.5t41.5 -112.5q0 -79 -44 -141.5 t-116 -85.5q52 -26 74 -62t22 -96q0 -117 -73 -200t-176 -83q-85 0 -131 54.5t-46 152.5zM201 0l940 1335h92l-940 -1335h-92zM653 221l9 31l407 561h111l-123 -504h90l-23 -88h-90l-55 -227h-115l58 227h-269zM770 309h174l92 371z" />
<glyph unicode="&#xbf;" horiz-adv-x="720" d="M-20 -152q0 106 46.5 183.5t166.5 167.5q150 112 205.5 192.5t78.5 220.5h74q-22 -164 -69.5 -254t-178.5 -213q-93 -88 -126.5 -146.5t-33.5 -131.5q0 -68 31 -109t82 -41q69 0 128.5 63t102.5 183h72q-37 -175 -130 -273t-222 -98q-103 0 -165 70t-62 186zM401 848 q0 52 37.5 89.5t89.5 37.5q44 0 75.5 -32.5t31.5 -78.5q0 -53 -37 -91t-88 -38q-46 0 -77.5 33t-31.5 80z" />
<glyph unicode="&#xc0;" horiz-adv-x="997" d="M-78 -6l12 49q67 4 107 39t94 137l637 1208h12l29 -1232q1 -89 24 -116.5t99 -35.5l-12 -49q-112 14 -195 14q-86 0 -209 -14l12 49q83 10 100 31t17 112v209h-344l-110 -211q-33 -68 -33 -92q0 -23 20.5 -34.5t67.5 -14.5l-12 -49q-88 10 -158 10q-71 0 -158 -10z M338 459h311v600zM551 1808h178l88 -305h-76z" />
<glyph unicode="&#xc1;" horiz-adv-x="997" d="M-78 -6l12 49q67 4 107 39t94 137l637 1208h12l29 -1232q1 -89 24 -116.5t99 -35.5l-12 -49q-112 14 -195 14q-86 0 -209 -14l12 49q83 10 100 31t17 112v209h-344l-110 -211q-33 -68 -33 -92q0 -23 20.5 -34.5t67.5 -14.5l-12 -49q-88 10 -158 10q-71 0 -158 -10z M338 459h311v600zM731 1503l242 305h188l-340 -305h-90z" />
<glyph unicode="&#xc2;" horiz-adv-x="997" d="M-78 -6l12 49q67 4 107 39t94 137l637 1208h12l29 -1232q1 -89 24 -116.5t99 -35.5l-12 -49q-112 14 -195 14q-86 0 -209 -14l12 49q83 10 100 31t17 112v209h-344l-110 -211q-33 -68 -33 -92q0 -23 20.5 -34.5t67.5 -14.5l-12 -49q-88 10 -158 10q-71 0 -158 -10z M338 459h311v600zM506 1503l309 305h68l151 -305h-76l-139 168l-223 -168h-90z" />
<glyph unicode="&#xc3;" horiz-adv-x="997" d="M-78 -6l12 49q67 4 107 39t94 137l637 1208h12l29 -1232q1 -89 24 -116.5t99 -35.5l-12 -49q-112 14 -195 14q-86 0 -209 -14l12 49q83 10 100 31t17 112v209h-344l-110 -211q-33 -68 -33 -92q0 -23 20.5 -34.5t67.5 -14.5l-12 -49q-88 10 -158 10q-71 0 -158 -10z M338 459h311v600zM537 1565q50 110 98 159.5t106 49.5q27 0 51 -12.5t58 -43.5q40 -40 57.5 -51.5t36.5 -11.5q37 0 65 29.5t56 95.5l55 -33q-85 -217 -209 -217q-34 0 -57.5 14t-73.5 64q-41 41 -71 41q-34 0 -62 -27.5t-57 -87.5z" />
<glyph unicode="&#xc4;" horiz-adv-x="997" d="M-78 -6l12 49q67 4 107 39t94 137l637 1208h12l29 -1232q1 -89 24 -116.5t99 -35.5l-12 -49q-112 14 -195 14q-86 0 -209 -14l12 49q83 10 100 31t17 112v209h-344l-110 -211q-33 -68 -33 -92q0 -23 20.5 -34.5t67.5 -14.5l-12 -49q-88 10 -158 10q-71 0 -158 -10z M338 459h311v600zM541 1642q0 51 36 88t87 37q44 0 74 -31t30 -77q0 -52 -35.5 -89.5t-85.5 -37.5q-46 0 -76 31.5t-30 78.5zM840 1642q0 51 36 88t87 37q44 0 74 -31t30 -77q0 -52 -35.5 -89.5t-85.5 -37.5q-46 0 -76 31.5t-30 78.5z" />
<glyph unicode="&#xc5;" horiz-adv-x="997" d="M-78 -6l12 49q67 4 107 39t94 137l637 1208h12l29 -1232q1 -89 24 -116.5t99 -35.5l-12 -49q-112 14 -195 14q-86 0 -209 -14l12 49q83 10 100 31t17 112v209h-344l-110 -211q-33 -68 -33 -92q0 -23 20.5 -34.5t67.5 -14.5l-12 -49q-88 10 -158 10q-71 0 -158 -10z M338 459h311v600zM653 1657q0 75 50 128.5t120 53.5q61 0 103.5 -47t42.5 -113q0 -74 -49.5 -128t-118.5 -54q-62 0 -105 46.5t-43 113.5zM725 1661q0 -38 23 -65t57 -27q38 0 65 31.5t27 74.5q0 38 -23 65t-57 27q-38 0 -65 -31t-27 -75z" />
<glyph unicode="&#xc6;" horiz-adv-x="1417" d="M-88 -6l12 51q59 9 109 46t102 108l811 1167h608l-49 -307h-49q2 31 2 65q0 107 -33.5 143t-134.5 36h-155l-138 -555h336l-16 -72h-338l-115 -465q-16 -56 -16 -90q0 -58 100 -58h80q97 0 156.5 56t128.5 211h49l-119 -330h-723l15 51q86 6 115 30.5t48 104.5l74 289 h-362l-201 -289q-43 -64 -43 -96q0 -23 19.5 -33.5t68.5 -11.5l-12 -51q-118 10 -162 10q-56 0 -168 -10zM451 539h335l191 766z" />
<glyph unicode="&#xc7;" horiz-adv-x="909" d="M117 373q0 193 58.5 398.5t156.5 354.5q174 271 413 271q52 0 92 -12.5t93 -45.5q53 -32 78 -32q17 0 51 20l-80 -356h-55q10 71 10 119q0 114 -46.5 178.5t-129.5 64.5q-100 0 -182.5 -81t-157.5 -251q-63 -146 -103.5 -329t-40.5 -328q0 -129 53 -206t142 -77 q114 0 203.5 107t140.5 301h74q-56 -224 -168.5 -357.5t-253.5 -140.5l-66 -98q55 -13 80 -41t25 -76q0 -82 -58 -136t-145 -54q-63 0 -121 35l17 65q51 -18 77 -18q43 0 71 31.5t28 82.5q0 34 -21.5 51.5t-70.5 18.5l98 141q-262 50 -262 400z" />
<glyph unicode="&#xc8;" horiz-adv-x="856" d="M-39 0l12 51q86 6 116.5 31t49.5 104l248 994q12 54 12 73q0 31 -22.5 43.5t-87.5 18.5l12 51h692l-47 -307h-51q2 33 2 65q0 107 -33 143t-133 36h-156l-139 -555h338l-18 -72h-336l-117 -465q-16 -75 -16 -90q0 -58 100 -58h80q97 0 156.5 56t130.5 211h49l-119 -330 h-723zM500 1808h178l88 -305h-76z" />
<glyph unicode="&#xc9;" horiz-adv-x="856" d="M-39 0l12 51q86 6 116.5 31t49.5 104l248 994q12 54 12 73q0 31 -22.5 43.5t-87.5 18.5l12 51h692l-47 -307h-51q2 33 2 65q0 107 -33 143t-133 36h-156l-139 -555h338l-18 -72h-336l-117 -465q-16 -75 -16 -90q0 -58 100 -58h80q97 0 156.5 56t130.5 211h49l-119 -330 h-723zM639 1503l240 305h190l-340 -305h-90z" />
<glyph unicode="&#xca;" horiz-adv-x="856" d="M-39 0l12 51q86 6 116.5 31t49.5 104l248 994q12 54 12 73q0 31 -22.5 43.5t-87.5 18.5l12 51h692l-47 -307h-51q2 33 2 65q0 107 -33 143t-133 36h-156l-139 -555h338l-18 -72h-336l-117 -465q-16 -75 -16 -90q0 -58 100 -58h80q97 0 156.5 56t130.5 211h49l-119 -330 h-723zM430 1503l307 305h70l149 -305h-75l-138 168l-223 -168h-90z" />
<glyph unicode="&#xcb;" horiz-adv-x="856" d="M-39 0l12 51q86 6 116.5 31t49.5 104l248 994q12 54 12 73q0 31 -22.5 43.5t-87.5 18.5l12 51h692l-47 -307h-51q2 33 2 65q0 107 -33 143t-133 36h-156l-139 -555h338l-18 -72h-336l-117 -465q-16 -75 -16 -90q0 -58 100 -58h80q97 0 156.5 56t130.5 211h49l-119 -330 h-723zM469 1642q0 51 36 88t87 37q43 0 72.5 -31t29.5 -77q0 -52 -35.5 -89.5t-85.5 -37.5q-44 0 -74 31.5t-30 78.5zM766 1642q0 51 36 88t87 37q44 0 74 -31t30 -77q0 -52 -35.5 -89.5t-85.5 -37.5q-46 0 -76 31.5t-30 78.5z" />
<glyph unicode="&#xcc;" horiz-adv-x="526" d="M-41 -6l12 49q86 8 116.5 33t49.5 104l250 1006q14 55 14 74q0 31 -23.5 44t-86.5 19l12 49q129 -14 205 -14t213 14l-12 -49q-84 -7 -114 -32t-50 -105l-250 -1006q-12 -53 -12 -76q0 -29 23.5 -42.5t82.5 -18.5l-12 -49q-129 14 -205 14t-213 -14zM328 1808h178 l88 -305h-76z" />
<glyph unicode="&#xcd;" horiz-adv-x="526" d="M-41 -6l12 49q86 8 116.5 33t49.5 104l250 1006q14 55 14 74q0 31 -23.5 44t-86.5 19l12 49q129 -14 205 -14t213 14l-12 -49q-84 -7 -114 -32t-50 -105l-250 -1006q-12 -53 -12 -76q0 -29 23.5 -42.5t82.5 -18.5l-12 -49q-129 14 -205 14t-213 -14zM496 1503l239 305 h189l-338 -305h-90z" />
<glyph unicode="&#xce;" horiz-adv-x="526" d="M-41 -6l12 49q86 8 116.5 33t49.5 104l250 1006q14 55 14 74q0 31 -23.5 44t-86.5 19l12 49q129 -14 205 -14t213 14l-12 -49q-84 -7 -114 -32t-50 -105l-250 -1006q-12 -53 -12 -76q0 -29 23.5 -42.5t82.5 -18.5l-12 -49q-129 14 -205 14t-213 -14zM287 1503l295 305h67 l137 -305h-75l-125 168l-209 -168h-90z" />
<glyph unicode="&#xcf;" horiz-adv-x="526" d="M-41 -6l12 49q86 8 116.5 33t49.5 104l250 1006q14 55 14 74q0 31 -23.5 44t-86.5 19l12 49q129 -14 205 -14t213 14l-12 -49q-84 -7 -114 -32t-50 -105l-250 -1006q-12 -53 -12 -76q0 -29 23.5 -42.5t82.5 -18.5l-12 -49q-129 14 -205 14t-213 -14zM324 1642 q0 51 34.5 88t83.5 37q41 0 70 -31t29 -77q0 -52 -34.5 -89.5t-82.5 -37.5q-43 0 -71.5 31.5t-28.5 78.5zM594 1642q0 51 35 88t82 37q41 0 69.5 -31.5t28.5 -76.5q0 -52 -34.5 -89.5t-80.5 -37.5q-43 0 -71.5 31.5t-28.5 78.5z" />
<glyph unicode="&#xd0;" horiz-adv-x="1073" d="M-39 0l12 51q86 6 116 30.5t50 104.5l123 492h-133l21 78h131l106 424q12 56 12 69q0 32 -23 46t-87 20l12 51h395q126 0 196.5 -22t121.5 -76q92 -106 92 -312q0 -321 -152 -594q-104 -186 -245 -274t-334 -88h-414zM283 111q0 -48 75 -48q140 0 235.5 61t174.5 202 q75 132 126.5 327.5t51.5 347.5q0 163 -60.5 232.5t-201.5 69.5h-109l-135 -547h234l-21 -78h-233l-121 -485q-16 -68 -16 -82z" />
<glyph unicode="&#xd1;" horiz-adv-x="1069" d="M-45 -6l12 49q53 6 84 24.5t53 57.5q22 46 111 385l186 752q-12 29 -38.5 42.5t-77.5 18.5l12 49q76 -6 129 -6q52 0 131 6l262 -1032l201 823q14 63 14 88q0 34 -23 50t-81 22l12 49q97 -10 166 -10q67 0 162 10l-13 -49q-80 -9 -115 -49t-63 -152l-291 -1163h-32 l-307 1233l-195 -799q-57 -228 -57 -276q0 -35 21 -51t79 -23l-14 -49q-103 10 -164 10q-64 0 -164 -10zM565 1565q49 110 97.5 159.5t107.5 49.5q29 0 52.5 -12.5t56.5 -43.5q43 -41 59.5 -52t36.5 -11q35 0 64 29.5t57 95.5l53 -33q-40 -105 -93.5 -161t-115.5 -56 q-32 0 -56 14.5t-73 63.5q-44 41 -74 41q-63 0 -116 -115z" />
<glyph unicode="&#xd2;" horiz-adv-x="1011" d="M129 408q0 214 66 433t172 357q148 195 352 195q152 0 236.5 -114t84.5 -318q0 -188 -50 -381.5t-136 -333.5q-164 -273 -399 -273q-155 0 -240.5 114t-85.5 321zM285 352q0 -154 45.5 -237.5t130.5 -83.5q59 0 116.5 49.5t104.5 142.5q90 175 146.5 399.5t56.5 405.5 q0 136 -47.5 221.5t-122.5 85.5q-173 0 -307 -374q-123 -342 -123 -609zM592 1808h178l86 -305h-74z" />
<glyph unicode="&#xd3;" horiz-adv-x="1011" d="M129 408q0 214 66 433t172 357q148 195 352 195q152 0 236.5 -114t84.5 -318q0 -188 -50 -381.5t-136 -333.5q-164 -273 -399 -273q-155 0 -240.5 114t-85.5 321zM285 352q0 -154 45.5 -237.5t130.5 -83.5q59 0 116.5 49.5t104.5 142.5q90 175 146.5 399.5t56.5 405.5 q0 136 -47.5 221.5t-122.5 85.5q-173 0 -307 -374q-123 -342 -123 -609zM705 1503l239 305h191l-340 -305h-90z" />
<glyph unicode="&#xd4;" horiz-adv-x="1011" d="M129 408q0 214 66 433t172 357q148 195 352 195q152 0 236.5 -114t84.5 -318q0 -188 -50 -381.5t-136 -333.5q-164 -273 -399 -273q-155 0 -240.5 114t-85.5 321zM285 352q0 -154 45.5 -237.5t130.5 -83.5q59 0 116.5 49.5t104.5 142.5q90 175 146.5 399.5t56.5 405.5 q0 136 -47.5 221.5t-122.5 85.5q-173 0 -307 -374q-123 -342 -123 -609zM496 1503l307 305h69l150 -305h-76l-137 168l-223 -168h-90z" />
<glyph unicode="&#xd5;" horiz-adv-x="1011" d="M129 408q0 214 66 433t172 357q148 195 352 195q152 0 236.5 -114t84.5 -318q0 -188 -50 -381.5t-136 -333.5q-164 -273 -399 -273q-155 0 -240.5 114t-85.5 321zM285 352q0 -154 45.5 -237.5t130.5 -83.5q59 0 116.5 49.5t104.5 142.5q90 175 146.5 399.5t56.5 405.5 q0 136 -47.5 221.5t-122.5 85.5q-173 0 -307 -374q-123 -342 -123 -609zM516 1565q49 110 97.5 159.5t107.5 49.5q27 0 50 -12.5t58 -43.5q40 -40 58 -51.5t37 -11.5q36 0 64 29t56 96l56 -33q-85 -217 -209 -217q-34 0 -57.5 14t-73.5 64q-41 41 -72 41q-34 0 -62 -27.5 t-57 -87.5z" />
<glyph unicode="&#xd6;" horiz-adv-x="1011" d="M129 408q0 214 66 433t172 357q148 195 352 195q152 0 236.5 -114t84.5 -318q0 -188 -50 -381.5t-136 -333.5q-164 -273 -399 -273q-155 0 -240.5 114t-85.5 321zM285 352q0 -154 45.5 -237.5t130.5 -83.5q59 0 116.5 49.5t104.5 142.5q90 175 146.5 399.5t56.5 405.5 q0 136 -47.5 221.5t-122.5 85.5q-173 0 -307 -374q-123 -342 -123 -609zM549 1642q0 51 36 88t87 37q44 0 74 -31t30 -77q0 -52 -35.5 -89.5t-85.5 -37.5q-46 0 -76 31.5t-30 78.5zM848 1642q0 51 36 88t87 37q44 0 74 -31t30 -77q0 -52 -35.5 -89.5t-85.5 -37.5 q-46 0 -76 31.5t-30 78.5z" />
<glyph unicode="&#xd7;" d="M121 393l307 291l-168 293l100 96l168 -293l308 291l47 -82l-308 -293l168 -293l-100 -94l-168 293l-309 -293z" />
<glyph unicode="&#xd8;" horiz-adv-x="1011" d="M-72 0l215 248q-14 74 -14 158q0 217 65.5 434t172.5 358q148 195 348 195q193 0 276 -174l129 147h88l-190 -219q22 -80 22 -189q0 -187 -50 -379.5t-136 -332.5q-166 -273 -399 -273q-203 0 -287 199l-150 -172h-90zM287 309q11 -141 53.5 -209.5t120.5 -68.5 q156 0 289 344q59 154 94.5 317.5t38.5 300.5zM287 412l594 680q-10 115 -55 179t-113 64q-105 0 -199 -146.5t-166 -422.5q-49 -188 -61 -354z" />
<glyph unicode="&#xd9;" horiz-adv-x="1054" d="M164 242q0 92 29 211l184 733q12 49 12 74q0 31 -23 44t-87 19l12 49q129 -14 205 -14t213 14l-13 -49q-84 -7 -113 -32t-48 -105l-185 -744q-28 -112 -28 -186q0 -76 52 -131t124 -55q86 0 160 56.5t118 156.5q34 72 94 311l144 573q14 66 14 90q0 34 -20.5 47t-83.5 19 l12 49q98 -10 166 -10q67 0 162 10l-13 -49q-86 -10 -118.5 -54.5t-73.5 -209.5l-12 -41l-39 -154l-105 -415q-48 -198 -123 -306q-57 -80 -142 -123t-187 -43q-129 0 -208 72.5t-79 192.5zM625 1808h178l88 -305h-76z" />
<glyph unicode="&#xda;" horiz-adv-x="1054" d="M164 242q0 92 29 211l184 733q12 49 12 74q0 31 -23 44t-87 19l12 49q129 -14 205 -14t213 14l-13 -49q-84 -7 -113 -32t-48 -105l-185 -744q-28 -112 -28 -186q0 -76 52 -131t124 -55q86 0 160 56.5t118 156.5q34 72 94 311l144 573q14 66 14 90q0 34 -20.5 47t-83.5 19 l12 49q98 -10 166 -10q67 0 162 10l-13 -49q-86 -10 -118.5 -54.5t-73.5 -209.5l-12 -41l-39 -154l-105 -415q-48 -198 -123 -306q-57 -80 -142 -123t-187 -43q-129 0 -208 72.5t-79 192.5zM776 1503l242 305h188l-340 -305h-90z" />
<glyph unicode="&#xdb;" horiz-adv-x="1054" d="M164 242q0 92 29 211l184 733q12 49 12 74q0 31 -23 44t-87 19l12 49q129 -14 205 -14t213 14l-13 -49q-84 -7 -113 -32t-48 -105l-185 -744q-28 -112 -28 -186q0 -76 52 -131t124 -55q86 0 160 56.5t118 156.5q34 72 94 311l144 573q14 66 14 90q0 34 -20.5 47t-83.5 19 l12 49q98 -10 166 -10q67 0 162 10l-13 -49q-86 -10 -118.5 -54.5t-73.5 -209.5l-12 -41l-39 -154l-105 -415q-48 -198 -123 -306q-57 -80 -142 -123t-187 -43q-129 0 -208 72.5t-79 192.5zM565 1503l307 305h70l150 -305h-76l-139 168l-224 -168h-88z" />
<glyph unicode="&#xdc;" horiz-adv-x="1054" d="M164 242q0 92 29 211l184 733q12 49 12 74q0 31 -23 44t-87 19l12 49q129 -14 205 -14t213 14l-13 -49q-84 -7 -113 -32t-48 -105l-185 -744q-28 -112 -28 -186q0 -76 52 -131t124 -55q86 0 160 56.5t118 156.5q34 72 94 311l144 573q14 66 14 90q0 34 -20.5 47t-83.5 19 l12 49q98 -10 166 -10q67 0 162 10l-13 -49q-86 -10 -118.5 -54.5t-73.5 -209.5l-12 -41l-39 -154l-105 -415q-48 -198 -123 -306q-57 -80 -142 -123t-187 -43q-129 0 -208 72.5t-79 192.5zM602 1642q0 51 36 88t87 37q44 0 74 -31t30 -77q0 -52 -35 -89.5t-85 -37.5 q-46 0 -76.5 31.5t-30.5 78.5zM901 1642q0 51 36 88t87 37q44 0 74 -31t30 -77q0 -52 -35 -89.5t-85 -37.5q-46 0 -76.5 31.5t-30.5 78.5z" />
<glyph unicode="&#xdd;" horiz-adv-x="829" d="M127 -6l12 49q88 9 116.5 33t47.5 104l105 416l-66 516l-8 78q-11 74 -36 100.5t-93 32.5l12 49q115 -14 203 -14q89 0 209 14l-13 -49q-77 -9 -99.5 -24t-22.5 -56q0 -37 6 -104l45 -461l295 475q55 87 55 123q0 13 -10 22t-25 9q-1 0 -45 -7l-4 48q60 10 101.5 23 t127.5 46v-22q0 -35 -15 -67.5t-77 -131.5l-383 -600l-102 -416q-14 -59 -14 -78q0 -26 24 -39.5t82 -19.5l-12 -49q-129 14 -205 14q-74 0 -211 -14zM664 1503l239 305h189l-340 -305h-88z" />
<glyph unicode="&#xde;" horiz-adv-x="870" d="M-41 -6l12 49q86 8 116.5 33t49.5 104l250 1006q14 55 14 74q0 31 -23.5 44t-86.5 19l12 49q129 -14 205 -14t213 14l-12 -49q-84 -7 -114 -32t-50 -105l-2 -12h108q91 0 144.5 -15.5t87.5 -52.5q65 -68 65 -191q0 -106 -43 -212.5t-112 -170.5q-112 -106 -308 -106h-129 l-61 -246q-12 -53 -12 -76q0 -29 22.5 -42t83.5 -19l-12 -49q-129 14 -205 14t-213 -14zM373 489h78q89 0 145 31t104 105q40 65 66.5 154.5t26.5 164.5q0 91 -44.5 128.5t-150.5 37.5h-72z" />
<glyph unicode="&#xdf;" horiz-adv-x="841" d="M-221 -377l14 58q90 16 139 58t86 135.5t84 291.5l203 813q31 122 61 193t68 112q89 92 230 92q103 0 159 -59t56 -166q0 -171 -109 -293q-37 -39 -74.5 -60t-95.5 -36q97 -31 141.5 -96t44.5 -174q0 -131 -48 -248.5t-128.5 -187.5t-169.5 -70q-73 0 -137 59l14 61 q47 -34 93 -34q108 0 178 178q51 124 51 254q0 104 -44.5 157.5t-141.5 63.5l16 59q102 5 162 80q47 57 78.5 150.5t31.5 175.5q0 57 -24 92t-64 35q-60 0 -102.5 -63t-77.5 -203l-194 -785q-63 -240 -87 -312t-69 -149q-119 -185 -344 -182z" />
<glyph unicode="&#xe0;" horiz-adv-x="833" d="M55 246q0 97 29.5 216t79.5 222q71 145 162.5 223t191.5 78q111 0 137 -123l31 107q90 3 156 20l-176 -635q-34 -123 -43 -161.5t-9 -65.5q0 -20 10.5 -35.5t22.5 -15.5q20 0 40 23t54 85l39 -34q-47 -92 -90 -130t-100 -38t-91 33t-38 94q-85 -127 -199 -127 q-97 0 -152 70t-55 194zM199 176q0 -64 22 -100.5t60 -36.5q111 0 204 237q46 118 82.5 270.5t36.5 231.5q0 150 -82 150q-55 0 -108.5 -71t-110.5 -220q-46 -123 -75 -250t-29 -211zM436 1401h170l80 -303h-72z" />
<glyph unicode="&#xe1;" horiz-adv-x="833" d="M55 246q0 97 29.5 216t79.5 222q71 145 162.5 223t191.5 78q111 0 137 -123l31 107q90 3 156 20l-176 -635q-34 -123 -43 -161.5t-9 -65.5q0 -20 10.5 -35.5t22.5 -15.5q20 0 40 23t54 85l39 -34q-47 -92 -90 -130t-100 -38t-91 33t-38 94q-85 -127 -199 -127 q-97 0 -152 70t-55 194zM199 176q0 -64 22 -100.5t60 -36.5q111 0 204 237q46 118 82.5 270.5t36.5 231.5q0 150 -82 150q-55 0 -108.5 -71t-110.5 -220q-46 -123 -75 -250t-29 -211zM549 1098l229 303h183l-326 -303h-86z" />
<glyph unicode="&#xe2;" horiz-adv-x="833" d="M55 246q0 97 29.5 216t79.5 222q71 145 162.5 223t191.5 78q111 0 137 -123l31 107q90 3 156 20l-176 -635q-34 -123 -43 -161.5t-9 -65.5q0 -20 10.5 -35.5t22.5 -15.5q20 0 40 23t54 85l39 -34q-47 -92 -90 -130t-100 -38t-91 33t-38 94q-85 -127 -199 -127 q-97 0 -152 70t-55 194zM199 176q0 -64 22 -100.5t60 -36.5q111 0 204 237q46 118 82.5 270.5t36.5 231.5q0 150 -82 150q-55 0 -108.5 -71t-110.5 -220q-46 -123 -75 -250t-29 -211zM367 1098l284 297h62l133 -297h-74l-121 155l-198 -155h-86z" />
<glyph unicode="&#xe3;" horiz-adv-x="833" d="M55 246q0 97 29.5 216t79.5 222q71 145 162.5 223t191.5 78q111 0 137 -123l31 107q90 3 156 20l-176 -635q-34 -123 -43 -161.5t-9 -65.5q0 -20 10.5 -35.5t22.5 -15.5q20 0 40 23t54 85l39 -34q-47 -92 -90 -130t-100 -38t-91 33t-38 94q-85 -127 -199 -127 q-97 0 -152 70t-55 194zM199 176q0 -64 22 -100.5t60 -36.5q111 0 204 237q46 118 82.5 270.5t36.5 231.5q0 150 -82 150q-55 0 -108.5 -71t-110.5 -220q-46 -123 -75 -250t-29 -211zM369 1161q47 106 94.5 154.5t103.5 48.5q28 0 50.5 -11.5t54.5 -41.5q41 -39 57.5 -50.5 t34.5 -11.5q34 0 62 27.5t55 91.5l53 -31q-82 -211 -203 -211q-31 0 -55.5 14.5t-69.5 61.5q-38 41 -69 41q-61 0 -115 -110z" />
<glyph unicode="&#xe4;" horiz-adv-x="833" d="M55 246q0 97 29.5 216t79.5 222q71 145 162.5 223t191.5 78q111 0 137 -123l31 107q90 3 156 20l-176 -635q-34 -123 -43 -161.5t-9 -65.5q0 -20 10.5 -35.5t22.5 -15.5q20 0 40 23t54 85l39 -34q-47 -92 -90 -130t-100 -38t-91 33t-38 94q-85 -127 -199 -127 q-97 0 -152 70t-55 194zM199 176q0 -64 22 -100.5t60 -36.5q111 0 204 237q46 118 82.5 270.5t36.5 231.5q0 150 -82 150q-55 0 -108.5 -71t-110.5 -220q-46 -123 -75 -250t-29 -211zM399 1249q0 49 34.5 84t82.5 35q40 0 68 -29.5t28 -72.5q0 -47 -34 -83t-80 -36 q-41 0 -70 29.5t-29 72.5zM686 1249q0 49 34.5 84t82.5 35q40 0 68 -29.5t28 -72.5q0 -47 -34.5 -83t-80.5 -36q-41 0 -69.5 29.5t-28.5 72.5z" />
<glyph unicode="&#xe5;" horiz-adv-x="833" d="M55 246q0 97 29.5 216t79.5 222q71 145 162.5 223t191.5 78q111 0 137 -123l31 107q90 3 156 20l-176 -635q-34 -123 -43 -161.5t-9 -65.5q0 -20 10.5 -35.5t22.5 -15.5q20 0 40 23t54 85l39 -34q-47 -92 -90 -130t-100 -38t-91 33t-38 94q-85 -127 -199 -127 q-97 0 -152 70t-55 194zM199 176q0 -64 22 -100.5t60 -36.5q111 0 204 237q46 118 82.5 270.5t36.5 231.5q0 150 -82 150q-55 0 -108.5 -71t-110.5 -220q-46 -123 -75 -250t-29 -211zM500 1257q0 74 49.5 127.5t118.5 53.5q61 0 103 -46t42 -112q0 -73 -49 -126.5 t-117 -53.5q-63 0 -105 45.5t-42 111.5zM571 1262q0 -38 23 -64.5t57 -26.5q37 0 63.5 31t26.5 74q0 37 -22.5 63.5t-54.5 26.5q-38 0 -65.5 -30.5t-27.5 -73.5z" />
<glyph unicode="&#xe6;" horiz-adv-x="1150" d="M55 246q0 98 29.5 216.5t79.5 221.5q71 145 162.5 223t191.5 78q111 0 137 -123l25 107q97 0 158 20l-31 -112q94 108 190 108q83 0 135 -52.5t52 -137.5q0 -148 -138.5 -246.5t-349.5 -99.5q-32 -118 -32 -203q0 -92 33.5 -144.5t93.5 -52.5q75 0 146 75.5t105 190.5h70 q-119 -333 -356 -333q-94 0 -153 56t-79 165q-105 -221 -262 -221q-97 0 -152 70t-55 194zM199 176q0 -64 22 -100.5t60 -36.5q111 0 204 237q46 120 82.5 272t36.5 230q0 150 -82 150q-55 0 -108.5 -70.5t-110.5 -218.5q-47 -124 -75.5 -251t-28.5 -212zM711 506 q62 0 106 16q95 32 163.5 120.5t68.5 180.5q0 46 -19.5 75.5t-48.5 29.5q-72 0 -144 -112t-126 -310z" />
<glyph unicode="&#xe7;" horiz-adv-x="663" d="M66 276q0 125 41 266t110 246q129 203 305 203q61 0 125 -30q30 -15 49 -15q15 0 47 25l-71 -322h-49q10 69 10 121q0 75 -27.5 118.5t-73.5 43.5q-58 0 -109 -56t-104 -176q-46 -110 -77 -241t-31 -221q0 -94 31 -143.5t90 -49.5q75 0 135 72t100 209h68 q-43 -151 -115.5 -239t-169.5 -107l-67 -101q102 -15 102 -108q0 -78 -54 -130.5t-136 -52.5q-61 0 -115 33l14 60q53 -19 78 -19q38 0 63 30.5t25 76.5q0 34 -19.5 50t-64.5 21l94 137q-99 14 -151.5 90.5t-52.5 208.5z" />
<glyph unicode="&#xe8;" horiz-adv-x="696" d="M63 274q0 119 39.5 252t106.5 238q138 221 326 221q89 0 141.5 -51t52.5 -139q0 -148 -138.5 -246.5t-350.5 -99.5q-31 -127 -31 -203q0 -92 33.5 -144.5t93.5 -52.5q75 0 145.5 75t104.5 191h69q-54 -161 -145.5 -247t-208.5 -86q-109 0 -173.5 79.5t-64.5 212.5z M254 506q64 0 108 16q95 32 163.5 120.5t68.5 180.5q0 46 -19.5 75.5t-48.5 29.5q-72 0 -144.5 -112t-127.5 -310zM385 1401h170l78 -303h-72z" />
<glyph unicode="&#xe9;" horiz-adv-x="696" d="M63 274q0 119 39.5 252t106.5 238q138 221 326 221q89 0 141.5 -51t52.5 -139q0 -148 -138.5 -246.5t-350.5 -99.5q-31 -127 -31 -203q0 -92 33.5 -144.5t93.5 -52.5q75 0 145.5 75t104.5 191h69q-54 -161 -145.5 -247t-208.5 -86q-109 0 -173.5 79.5t-64.5 212.5z M254 506q64 0 108 16q95 32 163.5 120.5t68.5 180.5q0 46 -19.5 75.5t-48.5 29.5q-72 0 -144.5 -112t-127.5 -310zM498 1098l229 303h180l-323 -303h-86z" />
<glyph unicode="&#xea;" horiz-adv-x="696" d="M63 274q0 119 39.5 252t106.5 238q138 221 326 221q89 0 141.5 -51t52.5 -139q0 -148 -138.5 -246.5t-350.5 -99.5q-31 -127 -31 -203q0 -92 33.5 -144.5t93.5 -52.5q75 0 145.5 75t104.5 191h69q-54 -161 -145.5 -247t-208.5 -86q-109 0 -173.5 79.5t-64.5 212.5z M254 506q64 0 108 16q95 32 163.5 120.5t68.5 180.5q0 46 -19.5 75.5t-48.5 29.5q-72 0 -144.5 -112t-127.5 -310zM315 1098l283 297h64l133 -297h-76l-119 155l-199 -155h-86z" />
<glyph unicode="&#xeb;" horiz-adv-x="696" d="M63 274q0 119 39.5 252t106.5 238q138 221 326 221q89 0 141.5 -51t52.5 -139q0 -148 -138.5 -246.5t-350.5 -99.5q-31 -127 -31 -203q0 -92 33.5 -144.5t93.5 -52.5q75 0 145.5 75t104.5 191h69q-54 -161 -145.5 -247t-208.5 -86q-109 0 -173.5 79.5t-64.5 212.5z M254 506q64 0 108 16q95 32 163.5 120.5t68.5 180.5q0 46 -19.5 75.5t-48.5 29.5q-72 0 -144.5 -112t-127.5 -310zM354 1249q0 49 34.5 84t82.5 35q40 0 68 -29.5t28 -72.5q0 -47 -34 -83t-80 -36q-41 0 -70 29.5t-29 72.5zM639 1249q0 49 34.5 84t82.5 35q41 0 69.5 -29.5 t28.5 -72.5q0 -47 -34.5 -83t-80.5 -36q-43 0 -71.5 29.5t-28.5 72.5z" />
<glyph unicode="&#xec;" horiz-adv-x="454" d="M88 106q0 46 31 173l133 514q16 59 16 75q0 25 -20 34t-76 11l8 35q114 3 279 53l-197 -753q-24 -88 -24 -127q0 -47 26 -47q21 0 42.5 26t51.5 86l37 -30q-43 -96 -85.5 -135t-104.5 -39q-51 0 -84 34.5t-33 89.5zM213 1401h172l78 -303h-72z" />
<glyph unicode="&#xed;" horiz-adv-x="454" d="M88 106q0 46 31 173l133 514q16 59 16 75q0 25 -20 34t-76 11l8 35q114 3 279 53l-197 -753q-24 -88 -24 -127q0 -47 26 -47q21 0 42.5 26t51.5 86l37 -30q-43 -96 -85.5 -135t-104.5 -39q-51 0 -84 34.5t-33 89.5zM358 1098l230 303h182l-326 -303h-86z" />
<glyph unicode="&#xee;" horiz-adv-x="454" d="M88 106q0 46 31 173l133 514q16 59 16 75q0 25 -20 34t-76 11l8 35q114 3 279 53l-197 -753q-24 -88 -24 -127q0 -47 26 -47q21 0 42.5 26t51.5 86l37 -30q-43 -96 -85.5 -135t-104.5 -39q-51 0 -84 34.5t-33 89.5zM158 1098l258 297h61l107 -297h-76l-92 155l-170 -155 h-88z" />
<glyph unicode="&#xef;" horiz-adv-x="454" d="M88 106q0 46 31 173l133 514q16 59 16 75q0 25 -20 34t-76 11l8 35q114 3 279 53l-197 -753q-24 -88 -24 -127q0 -47 26 -47q21 0 42.5 26t51.5 86l37 -30q-43 -96 -85.5 -135t-104.5 -39q-51 0 -84 34.5t-33 89.5zM184 1249q0 49 33 84t78 35q40 0 67 -29.5t27 -72.5 q0 -47 -32.5 -83t-75.5 -36q-41 0 -69 29.5t-28 72.5zM446 1249q0 49 33 84t78 35q40 0 67 -29.5t27 -72.5q0 -47 -32.5 -83t-75.5 -36q-41 0 -69 29.5t-28 72.5z" />
<glyph unicode="&#xf0;" horiz-adv-x="770" d="M70 297q0 130 45.5 274t117.5 244q121 170 285 170q38 0 90 -14l-12 176l-129 -43l-10 67l133 46l-15 143l52 16l32 -137l144 47l10 -67l-135 -48l61 -256q29 -111 29 -206q0 -206 -88 -416q-63 -152 -156 -231.5t-207 -79.5q-117 0 -182 83t-65 232zM213 215 q0 -176 106 -176q57 0 106.5 59.5t96.5 186.5q42 116 68 242t26 218q0 183 -104 183q-60 0 -110.5 -63.5t-96.5 -196.5q-92 -256 -92 -453z" />
<glyph unicode="&#xf1;" horiz-adv-x="866" d="M51 0l195 778q16 66 16 92q0 22 -17 27.5t-79 7.5l8 37q147 21 248 62q-2 -41 -21 -148q63 70 114.5 99.5t113.5 29.5q75 0 121.5 -51t46.5 -135q0 -61 -25 -170l-96 -381q-21 -91 -21 -121q0 -24 10 -38.5t27 -14.5q20 0 39 22t51 84l37 -24q-43 -98 -85.5 -137 t-108.5 -39q-54 0 -87.5 35.5t-33.5 93.5q0 46 28 170l91 356q24 102 24 156q0 47 -21.5 74.5t-58.5 27.5q-74 0 -137 -92q-41 -56 -72 -172l-155 -629h-152zM346 1161q47 105 95 154t104 49q28 0 50 -11t54 -42q41 -39 57.5 -50.5t34.5 -11.5q34 0 62 27.5t55 91.5l53 -31 q-40 -103 -91.5 -157t-110.5 -54q-31 0 -55.5 14.5t-69.5 61.5q-38 41 -70 41q-61 0 -115 -110z" />
<glyph unicode="&#xf2;" horiz-adv-x="770" d="M72 289q0 137 44.5 284.5t114.5 245.5q120 166 291 166q112 0 174 -80t62 -223q0 -129 -39.5 -268.5t-104.5 -239.5q-124 -192 -305 -192q-114 0 -175.5 79.5t-61.5 227.5zM213 215q0 -176 106 -176q57 0 105.5 59t95.5 187q43 116 68.5 241t25.5 219q0 183 -104 183 q-60 0 -110 -62.5t-97 -197.5q-90 -259 -90 -453zM369 1401h170l79 -303h-73z" />
<glyph unicode="&#xf3;" horiz-adv-x="770" d="M72 289q0 137 44.5 284.5t114.5 245.5q120 166 291 166q112 0 174 -80t62 -223q0 -129 -39.5 -268.5t-104.5 -239.5q-124 -192 -305 -192q-114 0 -175.5 79.5t-61.5 227.5zM213 215q0 -176 106 -176q57 0 105.5 59t95.5 187q43 116 68.5 241t25.5 219q0 183 -104 183 q-60 0 -110 -62.5t-97 -197.5q-90 -259 -90 -453zM506 1098l229 303h183l-326 -303h-86z" />
<glyph unicode="&#xf4;" horiz-adv-x="770" d="M72 289q0 137 44.5 284.5t114.5 245.5q120 166 291 166q112 0 174 -80t62 -223q0 -129 -39.5 -268.5t-104.5 -239.5q-124 -192 -305 -192q-114 0 -175.5 79.5t-61.5 227.5zM213 215q0 -176 106 -176q57 0 105.5 59t95.5 187q43 116 68.5 241t25.5 219q0 183 -104 183 q-60 0 -110 -62.5t-97 -197.5q-90 -259 -90 -453zM315 1098l283 297h64l133 -297h-76l-119 155l-199 -155h-86z" />
<glyph unicode="&#xf5;" horiz-adv-x="770" d="M72 289q0 137 44.5 284.5t114.5 245.5q120 166 291 166q112 0 174 -80t62 -223q0 -129 -39.5 -268.5t-104.5 -239.5q-124 -192 -305 -192q-114 0 -175.5 79.5t-61.5 227.5zM213 215q0 -176 106 -176q57 0 105.5 59t95.5 187q43 116 68.5 241t25.5 219q0 183 -104 183 q-60 0 -110 -62.5t-97 -197.5q-90 -259 -90 -453zM326 1161q50 107 96.5 155t101.5 48q28 0 51.5 -11.5t53.5 -41.5q41 -39 57.5 -50.5t34.5 -11.5q35 0 62.5 27.5t56.5 91.5l51 -31q-82 -211 -203 -211q-31 0 -55.5 14.5t-69.5 61.5q-38 41 -69 41q-61 0 -115 -110z" />
<glyph unicode="&#xf6;" horiz-adv-x="770" d="M72 289q0 137 44.5 284.5t114.5 245.5q120 166 291 166q112 0 174 -80t62 -223q0 -129 -39.5 -268.5t-104.5 -239.5q-124 -192 -305 -192q-114 0 -175.5 79.5t-61.5 227.5zM213 215q0 -176 106 -176q57 0 105.5 59t95.5 187q43 116 68.5 241t25.5 219q0 183 -104 183 q-60 0 -110 -62.5t-97 -197.5q-90 -259 -90 -453zM367 1249q0 49 34.5 84t81.5 35q40 0 68.5 -29.5t28.5 -72.5q0 -47 -34.5 -83t-80.5 -36q-41 0 -69.5 29.5t-28.5 72.5zM651 1249q0 49 34.5 84t82.5 35q41 0 69.5 -29.5t28.5 -72.5q0 -47 -34 -83t-80 -36q-43 0 -72 29.5 t-29 72.5z" />
<glyph unicode="&#xf7;" d="M145 631l31 121h340h340l-14 -60l-15 -61h-342h-340zM346 403q0 46 33.5 79.5t77.5 33.5q40 0 67 -28.5t27 -69.5q0 -46 -33.5 -80.5t-77.5 -34.5q-40 0 -67 28.5t-27 71.5zM487 967q0 45 33.5 78.5t77.5 33.5q38 0 65 -28.5t27 -69.5q0 -46 -32 -80.5t-76 -34.5 q-40 0 -67.5 29t-27.5 72z" />
<glyph unicode="&#xf8;" horiz-adv-x="770" d="M-57 -6l143 166q-16 55 -16 125q0 142 44 288.5t117 247.5q119 166 287 166q130 0 193 -102l73 88h82l-129 -150q21 -58 21 -139q0 -130 -39.5 -270t-104.5 -240q-124 -192 -305 -192q-135 0 -198 114l-88 -102h-80zM213 215q0 -176 106 -176q57 0 105.5 59t95.5 187 q77 211 90 393zM219 313l395 461q-6 156 -106 156q-116 0 -205 -260q-67 -192 -84 -357z" />
<glyph unicode="&#xf9;" horiz-adv-x="868" d="M109 172q0 58 24 160l115 461q12 49 12 69q0 29 -18.5 39.5t-75.5 11.5l8 35q143 13 277 53l-168 -671q-25 -103 -25 -152q0 -47 22.5 -76.5t59.5 -29.5q142 0 223 323l144 574q76 2 155 20l-157 -633q-46 -177 -46 -227q0 -21 10.5 -37t24.5 -16q21 0 41 23t51 83 l37 -30q-51 -98 -90 -134t-96 -36q-123 0 -129 135q-51 -71 -102.5 -103t-114.5 -32q-82 0 -132 52.5t-50 137.5zM420 1401h170l80 -303h-74z" />
<glyph unicode="&#xfa;" horiz-adv-x="868" d="M109 172q0 58 24 160l115 461q12 49 12 69q0 29 -18.5 39.5t-75.5 11.5l8 35q143 13 277 53l-168 -671q-25 -103 -25 -152q0 -47 22.5 -76.5t59.5 -29.5q142 0 223 323l144 574q76 2 155 20l-157 -633q-46 -177 -46 -227q0 -21 10.5 -37t24.5 -16q21 0 41 23t51 83 l37 -30q-51 -98 -90 -134t-96 -36q-123 0 -129 135q-51 -71 -102.5 -103t-114.5 -32q-82 0 -132 52.5t-50 137.5zM539 1098l229 303h182l-325 -303h-86z" />
<glyph unicode="&#xfb;" horiz-adv-x="868" d="M109 172q0 58 24 160l115 461q12 49 12 69q0 29 -18.5 39.5t-75.5 11.5l8 35q143 13 277 53l-168 -671q-25 -103 -25 -152q0 -47 22.5 -76.5t59.5 -29.5q142 0 223 323l144 574q76 2 155 20l-157 -633q-46 -177 -46 -227q0 -21 10.5 -37t24.5 -16q21 0 41 23t51 83 l37 -30q-51 -98 -90 -134t-96 -36q-123 0 -129 135q-51 -71 -102.5 -103t-114.5 -32q-82 0 -132 52.5t-50 137.5zM373 1098l282 297h64l133 -297h-76l-119 155l-198 -155h-86z" />
<glyph unicode="&#xfc;" horiz-adv-x="868" d="M109 172q0 58 24 160l115 461q12 49 12 69q0 29 -18.5 39.5t-75.5 11.5l8 35q143 13 277 53l-168 -671q-25 -103 -25 -152q0 -47 22.5 -76.5t59.5 -29.5q142 0 223 323l144 574q76 2 155 20l-157 -633q-46 -177 -46 -227q0 -21 10.5 -37t24.5 -16q21 0 41 23t51 83 l37 -30q-51 -98 -90 -134t-96 -36q-123 0 -129 135q-51 -71 -102.5 -103t-114.5 -32q-82 0 -132 52.5t-50 137.5zM403 1249q0 49 34.5 84t82.5 35q41 0 69.5 -29.5t28.5 -72.5q0 -47 -34 -83t-80 -36q-43 0 -72 29.5t-29 72.5zM690 1249q0 49 34.5 84t82.5 35 q41 0 69.5 -29.5t28.5 -72.5q0 -47 -34 -83t-80 -36q-43 0 -72 29.5t-29 72.5z" />
<glyph unicode="&#xfd;" horiz-adv-x="698" d="M-135 -403l6 135q54 -23 84 -23q54 0 118 66.5t130 191.5l37 66l-50 803q-3 57 -20.5 74.5t-75.5 21.5l10 41q87 -10 175 -10q85 0 178 10l-11 -41q-67 -6 -83.5 -22t-14.5 -76l14 -578l271 514q45 83 45 127q0 39 -49 39q-13 0 -25 -2v39q58 4 99 18t92 47q8 -33 8 -55 q0 -32 -13.5 -65.5t-52.5 -102.5q-6 -11 -20 -36.5t-21 -39.5l-436 -807q-80 -146 -132.5 -214t-106 -94.5t-136.5 -26.5h-20zM473 1098l229 303h183l-326 -303h-86z" />
<glyph unicode="&#xfe;" horiz-adv-x="825" d="M-51 -403l395 1581q12 49 12 71q0 29 -19 39t-75 10l8 37q136 12 277 54l-125 -508q79 104 188 104q93 0 149 -76.5t56 -203.5q0 -134 -43.5 -280.5t-114.5 -252.5q-128 -190 -284 -190q-57 0 -90.5 28t-55.5 94l-127 -507h-151zM274 207q0 -78 27 -123t74 -45 q40 0 79 35.5t70 99.5q60 128 104 303.5t44 290.5q0 75 -23.5 117.5t-66.5 42.5q-51 0 -103.5 -61t-93.5 -167q-40 -99 -75.5 -258.5t-35.5 -234.5z" />
<glyph unicode="&#xff;" horiz-adv-x="698" d="M-135 -403l6 135q54 -23 84 -23q54 0 118 66.5t130 191.5l37 66l-50 803q-3 57 -20.5 74.5t-75.5 21.5l10 41q87 -10 175 -10q85 0 178 10l-11 -41q-67 -6 -83.5 -22t-14.5 -76l14 -578l271 514q45 83 45 127q0 39 -49 39q-13 0 -25 -2v39q58 4 99 18t92 47q8 -33 8 -55 q0 -32 -13.5 -65.5t-52.5 -102.5q-6 -11 -20 -36.5t-21 -39.5l-436 -807q-80 -146 -132.5 -214t-106 -94.5t-136.5 -26.5h-20zM301 1249q0 49 34.5 84t82.5 35q40 0 68 -29.5t28 -72.5q0 -47 -34.5 -83t-80.5 -36q-41 0 -69.5 29.5t-28.5 72.5zM588 1249q0 49 34.5 84 t82.5 35q40 0 68 -29.5t28 -72.5q0 -47 -34.5 -83t-80.5 -36q-41 0 -69.5 29.5t-28.5 72.5z" />
<glyph unicode="&#x152;" horiz-adv-x="1417" d="M129 387q0 221 67.5 445.5t176.5 365.5q71 92 158 142.5t178 50.5q90 0 145.5 -53.5t87.5 -170.5l49 199h561l-47 -307h-49v65q0 107 -33 143t-133 36h-155l-138 -555h336l-18 -72h-336l-117 -465q-16 -71 -16 -90q0 -58 102 -58h78q97 0 156.5 56t130.5 211h49 l-119 -330h-592l39 152q-126 -172 -278 -172q-132 0 -207.5 108t-75.5 299zM283 332q0 -140 39.5 -217.5t111.5 -77.5q59 0 116.5 49t104.5 141q95 182 153 411t58 427q0 123 -38.5 195.5t-104.5 72.5q-167 0 -307 -370q-62 -168 -97.5 -336t-35.5 -295z" />
<glyph unicode="&#x153;" horiz-adv-x="1183" d="M72 287q0 140 43.5 286.5t115.5 245.5q59 80 132 123t151 43q133 0 180 -143l15 -60q138 203 315 203q89 0 142 -51t53 -139q0 -148 -139 -246.5t-351 -99.5q-31 -121 -31 -216q0 -83 35 -133.5t92 -50.5q74 0 145 75.5t105 190.5h70q-54 -161 -146 -247t-211 -86 q-163 0 -223 176q-104 -176 -262 -176q-107 0 -169 81.5t-62 223.5zM213 213q0 -84 27.5 -129t78.5 -45q89 0 158 139q63 130 101 291.5t38 294.5q0 77 -27.5 120.5t-76.5 43.5q-119 0 -207 -258q-92 -259 -92 -457zM743 506q66 0 107 16q97 32 165 120.5t68 180.5 q0 46 -19 75.5t-48 29.5q-72 0 -145 -112t-128 -310z" />
<glyph unicode="&#x178;" horiz-adv-x="829" d="M127 -6l12 49q88 9 116.5 33t47.5 104l105 416l-66 516l-8 78q-11 74 -36 100.5t-93 32.5l12 49q115 -14 203 -14q89 0 209 14l-13 -49q-77 -9 -99.5 -24t-22.5 -56q0 -37 6 -104l45 -461l295 475q55 87 55 123q0 13 -10 22t-25 9q-1 0 -45 -7l-4 48q60 10 101.5 23 t127.5 46v-22q0 -35 -15 -67.5t-77 -131.5l-383 -600l-102 -416q-14 -59 -14 -78q0 -26 24 -39.5t82 -19.5l-12 -49q-129 14 -205 14q-74 0 -211 -14zM471 1642q0 51 36 88t87 37q44 0 74 -31t30 -77q0 -52 -35 -89.5t-85 -37.5q-46 0 -76.5 31.5t-30.5 78.5zM770 1642 q0 51 36 88t87 37q44 0 74 -31t30 -77q0 -52 -35 -89.5t-85 -37.5q-46 0 -76.5 31.5t-30.5 78.5z" />
<glyph unicode="&#x2c6;" horiz-adv-x="819" d="M328 1098l284 297h62l133 -297h-76l-119 155l-198 -155h-86z" />
<glyph unicode="&#x2dc;" horiz-adv-x="819" d="M330 1161q47 106 94.5 154.5t103.5 48.5q28 0 50.5 -11.5t54.5 -41.5q38 -38 55.5 -50t36.5 -12q34 0 61 27.5t56 91.5l51 -31q-38 -102 -90 -156.5t-111 -54.5q-32 0 -55.5 14.5t-69.5 61.5q-41 41 -69 41q-61 0 -115 -110z" />
<glyph unicode="&#x2000;" horiz-adv-x="919" />
<glyph unicode="&#x2001;" horiz-adv-x="1839" />
<glyph unicode="&#x2002;" horiz-adv-x="919" />
<glyph unicode="&#x2003;" horiz-adv-x="1839" />
<glyph unicode="&#x2004;" horiz-adv-x="613" />
<glyph unicode="&#x2005;" horiz-adv-x="459" />
<glyph unicode="&#x2006;" horiz-adv-x="306" />
<glyph unicode="&#x2007;" horiz-adv-x="306" />
<glyph unicode="&#x2008;" horiz-adv-x="229" />
<glyph unicode="&#x2009;" horiz-adv-x="367" />
<glyph unicode="&#x200a;" horiz-adv-x="102" />
<glyph unicode="&#x2010;" horiz-adv-x="319" d="M27 483l26 109h322l-29 -109h-319z" />
<glyph unicode="&#x2011;" horiz-adv-x="319" d="M27 483l26 109h322l-29 -109h-319z" />
<glyph unicode="&#x2012;" horiz-adv-x="319" d="M27 483l26 109h322l-29 -109h-319z" />
<glyph unicode="&#x2013;" d="M168 483l27 109h563l-27 -109h-563z" />
<glyph unicode="&#x2014;" horiz-adv-x="925" d="M27 483l26 109h926l-27 -109h-925z" />
<glyph unicode="&#x2018;" horiz-adv-x="376" d="M287 1012q0 162 174 354h63q-69 -102 -98 -229q41 -3 63.5 -29.5t22.5 -69.5q0 -58 -36 -99.5t-87 -41.5q-47 0 -74.5 30.5t-27.5 84.5z" />
<glyph unicode="&#x2019;" horiz-adv-x="378" d="M227 829q125 146 179 334q-41 2 -65 26.5t-24 65.5q0 56 36.5 95t88.5 39q45 0 73 -30t28 -79q0 -95 -67 -214.5t-187 -236.5h-62z" />
<glyph unicode="&#x201a;" horiz-adv-x="413" d="M-72 -365q122 140 178 334q-42 2 -65 26t-23 66q0 56 36.5 95t88.5 39q45 0 73 -30t28 -79q0 -95 -67 -214.5t-187 -236.5h-62z" />
<glyph unicode="&#x201c;" horiz-adv-x="622" d="M276 1036q0 163 175 353h63q-72 -103 -98 -228q41 -5 63.5 -30.5t22.5 -69.5q0 -58 -36 -99.5t-87 -41.5q-46 0 -74.5 32t-28.5 84zM547 1036q0 78 45 169.5t129 183.5h63q-66 -97 -98 -228q41 -5 63.5 -30t22.5 -68q0 -60 -36 -101.5t-87 -41.5q-47 0 -74.5 31t-27.5 85 z" />
<glyph unicode="&#x201d;" horiz-adv-x="622" d="M279 920q69 102 98 229q-41 5 -63.5 30t-22.5 68q0 59 36 100.5t87 41.5q47 0 74.5 -31t27.5 -84q0 -165 -174 -354h-63zM549 920q68 97 98 229q-41 3 -63.5 29t-22.5 69q0 59 36 100.5t87 41.5q47 0 74.5 -30.5t27.5 -84.5q0 -165 -174 -354h-63z" />
<glyph unicode="&#x201e;" horiz-adv-x="622" d="M6 -272q71 108 98 229q-41 3 -63.5 29t-22.5 69q0 59 36 100.5t87 41.5q47 0 75 -31t28 -84q0 -165 -174 -354h-64zM276 -272q71 104 99 229q-41 3 -63.5 29t-22.5 69q0 59 36 100.5t87 41.5q47 0 74.5 -30.5t27.5 -84.5q0 -165 -174 -354h-64z" />
<glyph unicode="&#x2022;" horiz-adv-x="1366" d="M463 692q0 120 83.5 202.5t205.5 82.5q114 0 196 -83.5t82 -199.5q0 -118 -82.5 -201t-199.5 -83t-201 82.5t-84 199.5z" />
<glyph unicode="&#x2026;" horiz-adv-x="1239" d="M29 94q0 52 37.5 89.5t89.5 37.5q44 0 75 -32t31 -78q0 -53 -37 -91t-88 -38q-46 0 -77 32.5t-31 79.5zM438 94q0 52 37 89.5t90 37.5q44 0 75.5 -32t31.5 -78q0 -53 -37 -91t-88 -38q-46 0 -77.5 32.5t-31.5 79.5zM846 94q0 52 37 89.5t90 37.5q44 0 75 -32t31 -78 q0 -53 -37 -91t-88 -38q-46 0 -77 32.5t-31 79.5z" />
<glyph unicode="&#x202f;" horiz-adv-x="367" />
<glyph unicode="&#x2039;" horiz-adv-x="430" d="M70 487l354 478h57l-256 -478l17 -487h-49z" />
<glyph unicode="&#x203a;" horiz-adv-x="430" d="M2 0l256 477l-14 488h49l121 -488l-353 -477h-59z" />
<glyph unicode="&#x205f;" horiz-adv-x="459" />
<glyph unicode="&#x20ac;" d="M-4 541l51 75h92q11 50 29 125h-123l51 76h94q86 276 231.5 428t323.5 152q52 0 92 -12.5t95 -45.5q51 -32 78 -32q13 0 49 20l-78 -356h-55q8 73 8 119q0 114 -46.5 178.5t-129.5 64.5q-125 0 -223 -125.5t-181 -390.5h486l-52 -76h-454q-18 -61 -29 -125h397l-49 -75 h-362q-17 -130 -17 -191q0 -139 53.5 -214t153.5 -75q91 0 165.5 47.5t174.5 167.5l-35 -165q-105 -84 -173.5 -113t-163.5 -29q-161 0 -246.5 104t-85.5 300q0 82 12 168h-133z" />
<glyph unicode="&#x2122;" horiz-adv-x="1234" d="M162 582l10 43q53 5 68 16t24 53l156 623h-33q-44 0 -70 -26.5t-67 -114.5h-41l76 190h407l-20 -190h-41q2 18 2 41q0 58 -15.5 79t-58.5 21h-27l-151 -604q-8 -33 -8 -51q0 -19 11.5 -25.5t49.5 -11.5l-10 -43q-69 10 -129 10q-59 0 -133 -10zM541 582l10 43 q34 2 51.5 11.5t30.5 35.5q15 28 82 257q12 38 18 60l78 268q6 24 6 41q0 14 -14 20t-53 9l12 43q35 -4 78 -4q42 0 106 6l21 -563l299 563q80 -8 110 -8q20 0 76 6l-10 -43q-52 -4 -67.5 -16t-24.5 -54l-129 -552q-9 -34 -9 -48q0 -15 13.5 -22t50.5 -10l-10 -43 q-69 10 -129 10q-62 0 -136 -10l11 43q51 3 68 15.5t24 53.5l123 502l-314 -588h-43l-22 598l-143 -512q-7 -24 -7 -37q0 -17 11.5 -23t50.5 -9l-10 -43q-70 6 -101 6q-29 0 -108 -6z" />
<glyph unicode="&#xe000;" horiz-adv-x="1044" d="M0 0v1044h1044v-1044h-1044z" />
</font>
</defs>
</svg>
