<?xml version="1.0" standalone="no"?>
<!DOCTYPE svg PUBLIC "-//W3C//DTD SVG 1.1//EN" "http://www.w3.org/Graphics/SVG/1.1/DTD/svg11.dtd" >
<svg>
<metadata>
Created by FontForge 20110222 at Tue Nov 25 22:06:35 2014
 By deploy user
URW Software, Copyright 1993 by URW
</metadata>
<defs>
<font id="CorporateA-Regular" horiz-adv-x="1024" >
  <font-face 
    font-family="CorpoA"
    font-weight="400"
    font-stretch="normal"
    units-per-em="2048"
    panose-1="0 0 0 0 0 0 0 0 0 0"
    ascent="1578"
    descent="-470"
    x-height="1137"
    cap-height="1541"
    bbox="-382 -372 6542 1969"
    underline-thickness="102"
    underline-position="-103"
    unicode-range="U+000D-F002"
  />
<missing-glyph horiz-adv-x="512" 
d="M51 170v1365h410v-1365h-410zM410 221v1263h-308v-1263h308z" />
    <glyph glyph-name=".notdef" horiz-adv-x="512" 
d="M51 170v1365h410v-1365h-410zM410 221v1263h-308v-1263h308z" />
    <glyph glyph-name="NULL" horiz-adv-x="0" 
 />
    <glyph glyph-name="NULL" horiz-adv-x="0" 
 />
    <glyph glyph-name="nonmarkingreturn" unicode="&#xd;" horiz-adv-x="512" 
 />
    <glyph glyph-name="space" unicode=" " horiz-adv-x="512" 
 />
    <glyph glyph-name="exclam" unicode="!" horiz-adv-x="507" 
d="M203 580l-35 930h172l-35 -930h-102zM256 394q49 0 84 -35t35 -86t-35 -86t-86 -35t-86 35t-35 86t35 86q37 35 88 35z" />
    <glyph glyph-name="quotedbl" unicode="&#x22;" horiz-adv-x="773" 
d="M298 988h-110l-23 547h156zM584 988h-111l-22 547h156z" />
    <glyph glyph-name="numbersign" unicode="#" horiz-adv-x="1243" 
d="M1104 716l-17 -111h-231l-69 -435h-128l69 435h-296l-69 -435h-128l69 435h-231l18 111h231l47 297h-231l17 112h231l65 410h128l-65 -410h297l64 410h128l-65 -410h231l-18 -112h-230l-47 -297h230zM793 1013h-296l-47 -297h296z" />
    <glyph glyph-name="dollar" unicode="$" horiz-adv-x="1071" 
d="M501 795q-72 29 -118 48t-69 31q-93 46 -142 115q-55 79 -55 198q0 220 203 325q77 40 181 46v162h64v-163q143 -9 246 -109l64 114h28v-378h-43q-65 293 -295 311v-539q79 -31 133 -54.5t83 -40.5q192 -110 192 -319q0 -230 -205 -339q-45 -23 -95.5 -37t-107.5 -18
v-163h-64v164q-166 11 -292 122l-81 -131h-28v444h45q29 -209 155 -303q89 -65 201 -71v585zM565 211q96 11 150 50q107 75 107 224q0 94 -48 157q-46 62 -209 127v-558zM501 1493q-76 -9 -130 -48q-106 -75 -106 -214q0 -131 110 -193q45 -26 126 -57v512z" />
    <glyph glyph-name="percent" unicode="%" horiz-adv-x="1244" 
d="M343 1546q117 0 188 -93q72 -95 72 -232q0 -138 -72 -232q-74 -96 -197 -96q-125 0 -200 99q-68 92 -68 225q0 143 75 235q78 94 202 94zM335 1497q-80 0 -116 -87q-30 -74 -30 -192q0 -276 145 -276q146 0 146 277q0 278 -145 278zM178 170l801 1365h86l-801 -1365h-86z
M918 813q119 0 189 -94q71 -95 71 -231q0 -139 -72 -233q-74 -96 -197 -96q-126 0 -201 100q-68 89 -68 224q0 144 75 236q78 94 203 94zM909 764q-80 0 -116 -88q-30 -72 -30 -192q0 -276 145 -276q147 0 147 277q0 279 -146 279z" />
    <glyph glyph-name="ampersand" unicode="&#x26;" horiz-adv-x="1208" 
d="M891 446q78 109 78 227q0 45 -37 58q-11 5 -29 7t-42 4v58q82 -9 149 -9t150 9v-58q-68 -5 -87 -18q-22 -16 -33 -80q-8 -48 -16.5 -84t-18.5 -63q-11 -30 -26.5 -59.5t-35.5 -58.5l54 -77q23 -33 41 -53.5t32 -27.5t39.5 -11t62.5 -5v-41q-37 4 -69 5.5t-60 1.5
t-59.5 -1.5t-68.5 -5.5l-77 110q-27 -21 -50.5 -37.5t-43.5 -27.5q-110 -62 -243 -62q-198 0 -322 114q-110 102 -110 254q0 158 128 280q58 55 162 126l-75 111q-73 108 -73 206q0 114 81 191q89 83 218 83q118 0 191 -70q76 -72 76 -185q0 -115 -91 -221
q-25 -29 -57 -61.5t-74 -70.5zM475 1013q38 31 67 59.5t51 53.5q67 79 67 162q0 72 -40 118q-42 50 -109 50q-75 0 -123 -57q-42 -48 -42 -119q0 -38 14 -79t45 -86zM437 814q-76 -45 -136 -113q-73 -85 -73 -195q0 -125 80 -205q81 -81 207 -81q106 0 199 60
q14 10 32.5 23.5t41.5 31.5z" />
    <glyph glyph-name="quotesingle" unicode="'" horiz-adv-x="487" 
d="M298 988h-110l-23 547h156z" />
    <glyph glyph-name="parenleft" unicode="(" horiz-adv-x="633" 
d="M517 1569q-205 -382 -205 -916q0 -536 205 -915h-67q-302 362 -302 915q0 375 140 668q31 64 71 125.5t91 122.5h67z" />
    <glyph glyph-name="parenright" unicode=")" horiz-adv-x="633" 
d="M116 -262q205 379 205 915q0 534 -205 916h67q51 -61 91 -122.5t71 -125.5q140 -293 140 -668q0 -553 -302 -915h-67z" />
    <glyph glyph-name="asterisk" unicode="*" horiz-adv-x="1071" 
d="M491 1256l-8 245h106l-8 -245l230 84l33 -101l-236 -68l151 -193l-86 -63l-137 203l-137 -203l-86 63l151 193l-236 68l33 101z" />
    <glyph glyph-name="plus" unicode="+" horiz-adv-x="1071" 
d="M110 800v121h363v358h126v-358h363v-121h-363v-358h-126v358h-363z" />
    <glyph glyph-name="comma" unicode="," horiz-adv-x="480" 
d="M77 -171q32 34 62 75t56 90q51 96 60 167h-8q-11 -3 -17 -3q-39 0 -65 20q-38 29 -38 83q0 50 34 81q35 32 85 32q60 0 93 -41q29 -38 29 -97q0 -176 -189 -407h-102z" />
    <glyph glyph-name="hyphen" unicode="-" horiz-adv-x="526" 
d="M0 673v92h526v-92h-526z" />
    <glyph glyph-name="period" unicode="." horiz-adv-x="470" 
d="M237 385q47 0 81 -34t34 -82q0 -49 -34 -83t-82 -34q-49 0 -83 34t-34 82q0 49 34 83t84 34z" />
    <glyph glyph-name="slash" unicode="/" horiz-adv-x="826" 
d="M-176 -228l868 1763h113l-868 -1763h-113z" />
    <glyph glyph-name="zero" unicode="0" horiz-adv-x="1071" 
d="M545 1524q125 0 222 -79q104 -83 156 -274q42 -153 42 -333q0 -287 -100 -483q-104 -203 -329 -203q-213 0 -318 184q-111 193 -111 494q0 326 119 520q108 174 319 174zM532 1465q-80 0 -144 -84q-106 -142 -106 -552q0 -283 66 -457q29 -76 79 -118.5t111 -42.5
q252 0 252 623q0 315 -64 468q-69 163 -194 163z" />
    <glyph glyph-name="one" unicode="1" horiz-adv-x="1071" 
d="M634 1569v-1219q0 -63 12 -85q9 -17 30 -29t55 -15l72 -7v-50q-64 7 -127 10t-127 3t-127 -3t-126 -10v50q45 4 74 8t45 12q41 20 47 59q3 16 3 57v940h-230v50q64 5 118.5 21.5t102.5 48.5q91 62 122 159h56z" />
    <glyph glyph-name="two" unicode="2" horiz-adv-x="1071" 
d="M915 313l-20 -143h-765v114q115 136 204 245t155 200q64 88 109 156.5t73 120.5q54 103 54 188q0 90 -59 152q-61 64 -163 64q-70 0 -131 -32t-96 -89q-36 -58 -53 -164h-67q18 183 78 263q53 68 138 103q79 33 171 33q146 0 242 -75q55 -42 86 -104.5t31 -129.5
q0 -139 -124 -308q-61 -84 -183 -231.5t-308 -362.5h628z" />
    <glyph glyph-name="three" unicode="3" horiz-adv-x="1071" 
d="M184 549q5 -48 13 -85.5t22 -67.5q64 -141 247 -141q138 0 220 88q73 79 73 210q0 199 -154 266q-63 28 -187 28h-24v72h24q120 0 190 52q98 74 98 213q0 103 -56 168q-60 68 -167 68q-144 0 -216 -107q-34 -52 -54 -145h-63q36 356 375 356q170 0 268 -101
q84 -89 84 -220q0 -134 -97 -225q-28 -26 -66 -46.5t-89 -35.5q309 -75 309 -345q0 -88 -29.5 -159t-92.5 -128q-122 -113 -303 -113q-139 0 -225.5 52.5t-129.5 149.5q-35 77 -39 196h69z" />
    <glyph glyph-name="four" unicode="4" horiz-adv-x="1071" 
d="M591 139v385h-552l555 1014h166v-886h227v-128h-227v-385h-169zM594 652l2 771l-415 -771h413z" />
    <glyph glyph-name="five" unicode="5" horiz-adv-x="1071" 
d="M849 1363h-525l-69 -396q109 115 277 115q178 0 288 -119q113 -125 113 -327q0 -193 -111 -332q-120 -152 -328 -152q-205 0 -296 142q-48 75 -58 198h67q11 -86 41 -133q64 -103 208 -103q147 0 228 118q72 103 72 259t-74 254q-73 97 -204 97q-166 0 -256 -154l-61 4
l116 672h591z" />
    <glyph glyph-name="six" unicode="6" horiz-adv-x="1071" 
d="M854 1590q-145 -138 -253 -266.5t-180 -258.5q79 27 143 27q159 0 267 -115q122 -131 122 -346q0 -208 -116 -342q-119 -137 -303 -137q-180 0 -299 125q-125 131 -125 350q0 213 152 443q57 88 142 182.5t197 203.5q37 35 74 68.5t74 65.5h105zM529 1025
q-58 0 -107 -29.5t-77 -81.5q-29 -54 -43 -126t-14 -166q0 -410 240 -410q134 0 197 131q46 95 46 274q0 408 -242 408z" />
    <glyph glyph-name="seven" unicode="7" horiz-adv-x="1071" 
d="M203 170l592 1187h-683v149h845l-602 -1336h-152z" />
    <glyph glyph-name="eight" unicode="8" horiz-adv-x="1071" 
d="M702 869q234 -83 234 -329q0 -167 -102 -273q-109 -115 -299 -115q-178 0 -287 102q-112 103 -112 283q0 142 82 233q52 58 149 99q-84 38 -127 87q-73 82 -73 212q0 153 97 250q105 106 280 106q159 0 257 -90q103 -97 103 -259q0 -212 -202 -306zM537 837
q-115 0 -180 -104q-50 -80 -50 -204q0 -139 55 -224q60 -94 173 -94q120 0 180 105q50 89 50 213q0 130 -51 213q-59 95 -177 95zM538 1465q-108 0 -160 -97q-40 -73 -40 -186q0 -126 42 -199q50 -86 154 -86q100 0 154 87q45 73 45 191q0 290 -195 290z" />
    <glyph glyph-name="nine" unicode="9" horiz-adv-x="1071" 
d="M240 84q60 58 112.5 116.5t100.5 119.5q67 85 116.5 158t81.5 134q-59 -28 -142 -28q-151 0 -252 113q-120 133 -120 351q0 202 107 336q113 140 292 140q171 0 284 -122q122 -131 122 -356q0 -210 -140 -437q-52 -85 -130 -180t-188 -209q-75 -78 -139 -136h-105z
M537 1464q-60 0 -108.5 -35t-74.5 -98q-41 -102 -41 -266q0 -193 57 -305q55 -109 170 -109q230 0 230 392q0 421 -233 421z" />
    <glyph glyph-name="colon" unicode=":" horiz-adv-x="470" 
d="M237 385q47 0 81 -34t34 -82q0 -49 -34 -83t-82 -34q-49 0 -83 34t-34 82q0 49 34 83t84 34zM237 1063q47 0 81 -34t34 -82q0 -49 -34 -83t-82 -34q-49 0 -83 34t-34 82q0 49 34 83t84 34z" />
    <glyph glyph-name="semicolon" unicode=";" horiz-adv-x="480" 
d="M246 1063q47 0 81 -34t34 -82q0 -49 -34 -83t-82 -34q-49 0 -83 34t-34 82q0 49 34 83t84 34zM77 -171q32 34 62 75t56 90q51 96 60 167h-8q-11 -3 -17 -3q-39 0 -65 20q-38 29 -38 83q0 50 34 81q35 32 85 32q60 0 93 -41q29 -38 29 -97q0 -176 -189 -407h-102z" />
    <glyph glyph-name="less" unicode="&#x3c;" 
d="M935 1419v-70l-656 -428l656 -437v-186l-846 563v13z" />
    <glyph glyph-name="equal" unicode="=" horiz-adv-x="1071" 
d="M110 934v120h852v-120h-852zM110 667v120h852v-120h-852z" />
    <glyph glyph-name="greater" unicode="&#x3e;" 
d="M89 298v70l655 428l-655 437v186l846 -563v-12z" />
    <glyph glyph-name="question" unicode="?" horiz-adv-x="784" 
d="M286 562q-4 30 -6 56.5t-2 49.5q0 111 41 185q28 52 72 96l60 61q117 118 117 219q0 96 -71 146q-47 32 -114 32q-120 0 -190 -84q-48 -57 -59 -158h-55q0 95 32 176q36 89 143 143q79 40 179 40q109 0 186 -54q117 -84 117 -239q0 -94 -48 -169q-38 -59 -145 -144
q-80 -63 -111 -105q-62 -83 -62 -207q0 -17 3 -44h-87zM349 394q49 0 84 -35t35 -86t-35 -86t-86 -35t-86 35t-35 86t35 86q37 35 88 35z" />
    <glyph glyph-name="at" unicode="@" horiz-adv-x="1449" 
d="M1386 527q-25 -45 -47.5 -78.5t-44.5 -59.5q-20 -25 -47.5 -49.5t-62.5 -50.5q-188 -140 -411 -140q-231 0 -422 125q-161 107 -237 280q-62 142 -62 291q0 109 28.5 206.5t88.5 188.5q54 82 123.5 143.5t157.5 103.5q75 35 151.5 52t161.5 17q271 0 463 -174
q171 -155 171 -395q0 -217 -136 -368q-84 -94 -191 -139q-61 -26 -115 -26q-90 0 -124 58q-11 18 -17.5 42t-11.5 53q-24 -31 -45 -54t-39 -37q-64 -52 -145 -52q-118 0 -194 88q-67 76 -67 193q0 188 141 325q128 122 280 122q134 0 170 -154l36 136h140l-144 -536
q-12 -45 -12 -64q0 -26 14 -46q18 -25 50 -25q51 0 119 50q102 75 159 211q23 57 35.5 112.5t12.5 110.5q0 210 -172 352q-159 132 -375 132q-249 0 -422 -155q-93 -83 -145 -203q-56 -132 -56 -265q0 -235 145 -401q40 -46 89.5 -84t109.5 -64q151 -65 299 -65
q172 0 319 99q81 55 135 123q9 11 21.5 28.5t28.5 42.5h96zM743 1146q-51 0 -102.5 -39t-94.5 -111q-92 -152 -92 -304q0 -69 31 -118q39 -64 109 -64q124 0 205 193q68 162 68 295q0 58 -23 96q-31 52 -101 52z" />
    <glyph glyph-name="A" unicode="A" horiz-adv-x="1316" 
d="M844 565h-476l-68 -192q-12 -35 -18.5 -58.5t-6.5 -37.5q0 -42 55 -55q14 -3 34 -5t46 -3v-50q-60 5 -108 8t-87 3t-87 -3t-108 -8v50q91 6 125 28q38 26 72 116l467 1221l421 -1244q29 -83 80 -102q18 -7 45.5 -12t64.5 -7v-50q-141 15 -249 15q-109 0 -250 -15v50
q29 2 50 5.5t35 7.5q46 13 46 48q0 30 -13 69zM392 629h432l-199 627z" />
    <glyph glyph-name="B" unicode="B" horiz-adv-x="1172" 
d="M785 899q84 -17 139 -51q64 -41 103 -107q47 -78 47 -179q0 -138 -87 -246q-85 -103 -233 -133q-32 -6 -74.5 -9.5t-96.5 -3.5h-518v50q81 6 119 20q41 17 47 59q3 16 3 57v993q0 32 -2.5 53t-9.5 32q-26 44 -157 51v50h540q49 0 90 -4t75 -13t62.5 -23t54.5 -34
q122 -93 122 -259q0 -219 -224 -303zM406 915h140q96 0 151 23q130 54 130 258q0 138 -57 209q-55 67 -190 67h-174v-557zM406 852v-513q0 -65 22 -84q25 -21 104 -21h75q126 0 195 66q90 85 90 252q0 155 -75 233q-64 67 -216 67h-195z" />
    <glyph glyph-name="C" unicode="C" horiz-adv-x="1229" 
d="M1101 630q-4 -78 -19.5 -144t-44.5 -121t-70.5 -96.5t-95.5 -70.5q-101 -54 -222 -54q-164 0 -298 98q-67 49 -115.5 122.5t-83.5 173.5q-46 128 -46 312q0 159 35 283.5t110 227.5q38 52 85 91t105 65q98 44 213 44q190 0 321 -123l72 119h37v-403h-47q-84 340 -358 340
q-204 0 -297 -182q-91 -178 -91 -456q0 -252 83 -430q90 -191 302 -191q132 0 227 86q111 101 124 309h74z" />
    <glyph glyph-name="D" unicode="D" horiz-adv-x="1301" 
d="M226 1349q0 32 -2.5 53t-9.5 32q-26 44 -157 51v50h502q187 0 294 -48q169 -76 267 -271q84 -167 84 -364q0 -228 -109 -409q-113 -188 -316 -247q-48 -14 -103 -20t-118 -6h-501v50q81 6 119 20q41 17 47 59q3 16 3 57v993zM400 1472v-1136q0 -26 8 -69q15 -29 65 -35
q19 -3 64 -3q226 0 335 115q150 160 150 511q0 325 -134 489q-104 128 -324 128h-164z" />
    <glyph glyph-name="E" unicode="E" horiz-adv-x="1113" 
d="M1015 500l-47 -330h-903v50q81 6 119 20q41 17 47 59q3 16 3 57v993q0 32 -2.5 53t-9.5 32q-26 44 -157 51v50h892l36 -307h-46q-36 136 -83 189q-49 55 -160 55h-296v-561h293q56 0 77 18q38 35 44 151h50v-402h-50q-3 93 -29 131q-27 39 -103 39h-282v-494
q0 -28 2.5 -46t6.5 -26q24 -49 128 -49h145q118 0 170 46q71 62 108 221h47z" />
    <glyph glyph-name="F" unicode="F" horiz-adv-x="1066" 
d="M417 848v-498q0 -64 12 -85q9 -17 30 -29t55 -15l72 -7v-50q-158 15 -256 15q-97 0 -256 -15v50q45 4 74 8t45 12q41 20 47 59q3 16 3 57v999q0 32 -2.5 53t-9.5 32q-26 44 -157 51v50h892l36 -307h-46q-29 114 -63 163q-16 23 -34.5 38.5t-40.5 26.5q-31 16 -105 16
h-296v-561h293q56 0 77 18q38 35 44 151h50v-402h-50q-3 91 -29 132q-23 38 -103 38h-282z" />
    <glyph glyph-name="G" unicode="G" horiz-adv-x="1300" 
d="M1098 1561v-407h-47q-17 58 -35 104t-41 81q-48 75 -125.5 116.5t-171.5 41.5q-153 0 -250 -102q-145 -154 -145 -537q0 -652 391 -652q130 0 276 78v346q0 41 -11 59q-21 35 -148 43v50q141 -12 233 -12t233 12v-50q-88 -6 -116 -22q-22 -13 -27 -40q-1 -4 -1.5 -14.5
t-0.5 -28.5v-333q-240 -147 -459 -147q-173 0 -307 98q-139 102 -201 290q-24 73 -35.5 153t-11.5 171q0 313 146 504q150 195 410 195q181 0 324 -117l83 120h37z" />
    <glyph glyph-name="H" unicode="H" horiz-adv-x="1388" 
d="M406 914h575v441q0 62 -12 85q-17 33 -85 44q-14 2 -31.5 3.5t-40.5 3.5v50q156 -15 257 -15t253 15v-50q-81 -6 -119 -20q-41 -17 -47 -59q-3 -15 -3 -57v-1005q0 -63 12 -85q9 -17 30 -29t55 -15l72 -7v-50q-159 15 -253 15t-257 -15v50q45 4 74 8t45 12q41 20 47 59
q3 16 3 57v501h-575v-501q0 -63 12 -85q10 -17 31 -29t54 -15l72 -7v-50q-164 15 -257 15q-94 0 -253 -15v50q45 4 74 8t45 12q41 20 47 59q3 16 3 57v1005q0 62 -12 85q-17 33 -85 44q-14 2 -31.5 3.5t-40.5 3.5v50q151 -15 253 -15q101 0 257 15v-50q-42 -3 -71.5 -7.5
t-47.5 -12.5q-39 -17 -47 -59q-3 -15 -3 -57v-441z" />
    <glyph glyph-name="I" unicode="I" horiz-adv-x="642" 
d="M234 1355q0 62 -12 85q-17 33 -85 44q-14 2 -31.5 3.5t-40.5 3.5v50q156 -15 256 -15t256 15v-50q-42 -3 -71.5 -7.5t-47.5 -12.5q-39 -17 -47 -59q-3 -17 -3 -57v-1005q0 -64 12 -85q9 -17 30 -29t55 -15l72 -7v-50q-164 15 -256 15q-93 0 -256 -15v50q45 4 74 8t45 12
q41 20 47 59q3 16 3 57v1005z" />
    <glyph glyph-name="J" unicode="J" horiz-adv-x="638" 
d="M-12 89q14 -1 24.5 -1.5t18.5 -0.5q95 0 145 41q44 35 54 107q6 34 6 109v1011q0 66 -11 86q-26 42 -158 50v50q154 -15 256 -15q101 0 256 15v-50q-42 -2 -72 -7t-47 -13q-41 -18 -47 -59q-1 -8 -2 -22t-1 -35v-940q0 -159 -39 -231q-89 -159 -316 -159q-28 0 -67 3v61z
" />
    <glyph glyph-name="K" unicode="K" horiz-adv-x="1305" 
d="M402 885l466 512q28 31 28 51q0 29 -51 37q-26 4 -75 6v50q114 -9 210 -9t210 9v-50q-40 -2 -68.5 -6.5t-46.5 -9.5q-32 -10 -65 -33.5t-65 -58.5l-353 -389l455 -649q60 -86 121 -111q22 -9 50 -13.5t63 -6.5v-50q-78 8 -144.5 12t-123.5 4t-122.5 -4t-143.5 -12v50
q54 4 84 9q57 9 57 45q0 19 -36 72l-368 547l-84 -90v-447q0 -32 2.5 -53t9.5 -32q25 -44 153 -51v-50q-137 15 -241 15t-258 -15v50q81 6 119 20q40 16 46 59q4 7 4 57v1005q0 64 -12 85q-17 33 -85 44q-14 2 -32 3.5t-40 3.5v50q157 -15 258 -15t247 15v-50
q-42 -2 -71.5 -7t-47.5 -13q-41 -18 -47 -59q-3 -15 -3 -57v-470z" />
    <glyph glyph-name="L" unicode="L" horiz-adv-x="1035" 
d="M1015 500l-47 -330h-903v50q81 6 119 20q41 17 47 59q3 16 3 57v999q0 62 -12 85q-17 33 -85 44q-14 2 -31.5 3.5t-40.5 3.5v50q156 -15 256 -15t256 15v-50q-42 -3 -71.5 -7.5t-47.5 -12.5q-39 -17 -47 -59q-3 -17 -3 -57v-995q0 -28 2.5 -46t6.5 -26q24 -49 128 -49
h145q48 0 82.5 6.5t57.5 17.5q43 22 78.5 82.5t59.5 154.5h47z" />
    <glyph glyph-name="M" unicode="M" horiz-adv-x="1682" 
d="M346 1414l-42 -1064v-20q0 -44 12 -65q24 -41 157 -51v-50q-66 5 -115.5 7.5t-86.5 2.5q-36 0 -87.5 -2.5t-118.5 -7.5v50q88 6 120 21q33 15 43 58q4 21 6 57l43 1005v7q0 55 -12 78q-25 43 -157 51v50q49 -4 91 -6t78 -2q48 0 96.5 3t97.5 8l380 -1036l386 1036
q60 -5 109 -8t89 -3q32 0 71.5 2t88.5 6v-50q-40 -2 -69.5 -7t-49.5 -13q-50 -21 -50 -99v-17l21 -1005q1 -63 14 -85q25 -44 156 -51v-50q-161 15 -257 15t-255 -15v50q39 2 69 7t50 13q40 16 47 59q3 16 3 47v10l-17 1061l-339 -913l-52 -144l-27 -78l-24 -66h-30l-23 66
l-28 79l-29 80l-25 71z" />
    <glyph glyph-name="N" unicode="N" horiz-adv-x="1377" 
d="M1149 129h-30q-45 69 -85 131t-78 119l-50 76l-604 908v-1013q0 -66 11 -86q30 -42 158 -50v-50q-73 5 -124.5 7.5t-82.5 2.5q-32 0 -82 -2.5t-117 -7.5v50q84 6 119 20q41 17 47 59q1 8 2 22.5t1 34.5v1081q-34 36 -74 46q-20 6 -44 9t-53 5v50q46 -4 89 -5.5t83 -1.5
q38 0 75.5 1.5t74.5 5.5l695 -1037v851q0 66 -11 86q-26 42 -158 50v50q70 -5 121.5 -7.5t86.5 -2.5t85 2.5t114 7.5v-50q-42 -2 -72 -7t-47 -13q-41 -18 -47 -59q-1 -8 -2 -22t-1 -35v-1226z" />
    <glyph glyph-name="O" unicode="O" horiz-adv-x="1295" 
d="M655 1561q177 0 317 -114q126 -103 184 -295q21 -69 31 -143t10 -156q0 -290 -127 -486q-70 -109 -190 -171q-103 -52 -229 -52q-185 0 -321 109q-66 52 -112.5 127.5t-79.5 178.5q-40 121 -40 294q0 290 125 481q149 227 432 227zM644 1504q-135 0 -230 -119
q-131 -164 -131 -526q0 -133 18.5 -238t53.5 -196q20 -51 48.5 -91t66.5 -71q77 -62 182 -62q145 0 236 121q71 96 103 275q21 118 21 259q0 258 -69 428q-91 220 -299 220z" />
    <glyph glyph-name="P" unicode="P" horiz-adv-x="1116" 
d="M408 786v-436q0 -64 12 -85q9 -17 30 -29t55 -15l72 -7v-50q-164 15 -256 15q-93 0 -256 -15v50q45 4 74 8t45 12q41 20 47 59q3 16 3 57v999q0 32 -2.5 53t-9.5 32q-26 44 -157 51v50h540q54 0 97.5 -4t80 -13t67.5 -23t58 -33q69 -48 110 -131q40 -79 40 -174
q0 -191 -150 -296q-107 -75 -282 -75h-218zM408 849h163q144 0 214 61q99 85 99 254q0 153 -77 236q-68 72 -223 72h-176v-623z" />
    <glyph glyph-name="Q" unicode="Q" horiz-adv-x="1289" 
d="M1319 147h-68q-113 0 -189 54q-17 13 -38 29.5t-46 37.5q-133 -124 -330 -124q-182 0 -318 109q-66 52 -112.5 127t-79.5 178q-40 121 -40 299q0 283 123 477q68 106 180 167q109 60 243 60q184 0 322 -114q127 -103 184 -294q21 -70 31 -145.5t10 -156.5
q0 -252 -105 -447q60 -98 108 -144q60 -57 125 -60v-53zM641 1504q-135 0 -231 -120q-130 -163 -130 -522q0 -133 17.5 -239.5t54.5 -197.5q39 -98 116 -161q77 -62 181 -62q146 0 236 121q71 95 103 275q21 118 21 255q0 269 -70 431q-96 220 -298 220z" />
    <glyph glyph-name="R" unicode="R" horiz-adv-x="1221" 
d="M406 819v-469q0 -63 12 -85q10 -17 31 -29t54 -15l72 -7v-50q-158 15 -253 15q-94 0 -257 -15v50q45 4 74 8t45 12q41 20 47 59q3 16 3 57v999q0 32 -2.5 53t-9.5 32q-26 44 -157 51v50h549q183 0 284 -66q69 -45 112 -127q42 -80 42 -166q0 -131 -88 -228
q-78 -84 -247 -118q45 -12 86 -41q42 -29 89 -134l141 -323q38 -88 78 -104q28 -12 89 -14v-50q-83 6 -135 6q-53 0 -135 -6l-57 126l-157 366q-16 37 -30.5 62.5t-27.5 40.5q-37 43 -104 54q-35 6 -70 6h-78zM408 882h171q137 0 211 65q88 78 88 235q0 290 -288 290h-182
v-590z" />
    <glyph glyph-name="S" unicode="S" horiz-adv-x="1063" 
d="M119 583h48q61 -367 361 -367q131 0 209 81q74 77 74 189q0 123 -92 192q-23 17 -72 45.5t-124 66.5q-232 119 -288 172q-94 87 -94 232q0 165 112 264q106 96 278 96q155 0 267 -106l61 114h37v-377h-48q-13 55 -30 99.5t-37 78.5q-78 129 -234 129q-114 0 -188 -77
q-70 -73 -70 -174q0 -113 116 -187q27 -17 77 -43.5t123 -63.5q166 -83 233 -135q124 -94 124 -270t-118 -285q-112 -106 -291 -106q-183 0 -323 119l-74 -131h-37v444z" />
    <glyph glyph-name="T" unicode="T" horiz-adv-x="1083" 
d="M625 1472v-1122q0 -66 11 -86q30 -41 158 -50v-50q-158 15 -256 15q-97 0 -256 -15v50q84 6 119 20q41 17 47 59q1 8 2 22.5t1 34.5v1122h-110q-130 0 -183 -80q-36 -54 -70 -169h-50l55 312h896l57 -312h-49q-32 120 -67 171q-17 25 -37 40.5t-43 24.5q-17 6 -40.5 9.5
t-55.5 3.5h-129z" />
    <glyph glyph-name="U" unicode="U" horiz-adv-x="1361" 
d="M1138 606q0 -128 -24 -197q-47 -134 -170 -202q-110 -60 -264 -60q-233 0 -360 139q-69 75 -87 171q-5 28 -7.5 61.5t-2.5 71.5v765q0 62 -12 85q-17 33 -85 44q-14 2 -31.5 3.5t-40.5 3.5v50q156 -15 256 -15t256 15v-50q-42 -3 -71.5 -7.5t-47.5 -12.5q-39 -17 -47 -59
q-3 -17 -3 -57v-782q0 -122 24 -177q38 -90 131 -126q82 -32 168 -32q103 0 182 35.5t119 99.5q48 76 48 223v759q0 62 -12 85q-17 33 -85 44q-14 2 -31.5 3.5t-40.5 3.5v50q70 -5 122 -7.5t86 -2.5q35 0 84 2.5t115 7.5v-50q-81 -6 -119 -20q-41 -17 -47 -59q-3 -15 -3 -57
v-749z" />
    <glyph glyph-name="V" unicode="V" horiz-adv-x="1312" 
d="M676 145h-51l-418 1215q-32 91 -78 111q-34 15 -109 20v50q129 -15 246 -15q118 0 247 15v-50q-23 -2 -42.5 -4.5t-36.5 -6.5q-58 -13 -58 -52q0 -18 16 -63l314 -932l318 910q22 63 22 85q0 39 -51 53q-14 4 -35.5 6t-50.5 4v50q51 -5 97 -8t88 -3t91 3t107 8v-50
q-65 -5 -104 -21q-54 -23 -75 -83z" />
    <glyph glyph-name="W" unicode="W" horiz-adv-x="1796" 
d="M576 145h-40l-332 1226q-20 74 -63 98q-16 8 -42 14t-61 8v50q124 -15 238 -15q112 0 237 15v-50q-25 -2 -44.5 -4.5t-33.5 -5.5q-58 -12 -58 -54q0 -8 2.5 -22.5t8.5 -35.5l230 -850l314 1047h47l307 -1049l234 847q6 23 9.5 39.5t3.5 27.5q0 39 -48 51q-30 7 -80 9v50
q49 -5 93 -8t86 -3t86 3t93 8v-50q-74 -4 -104 -20q-43 -24 -61 -87l-349 -1239h-38l-312 1105z" />
    <glyph glyph-name="X" unicode="X" horiz-adv-x="1272" 
d="M23 214q82 2 132 34q53 35 107 120l304 483l-277 516q-15 28 -27.5 46.5t-20.5 26.5q-43 43 -155 51v50q66 -7 129 -10.5t124 -3.5t124 3.5t129 10.5v-50q-48 -5 -78 -9q-58 -10 -58 -47q0 -23 21 -63l193 -359l214 338q41 65 41 87q0 34 -48 45q-13 2 -32.5 4t-47.5 4
v50q51 -5 100.5 -7.5t98.5 -2.5t98 2.5t100 7.5v-50q-38 -3 -67 -8t-49 -13q-48 -18 -90 -85l-281 -441l319 -596q49 -91 95 -113q35 -17 119 -21v-50q-76 7 -140.5 10.5t-119.5 3.5t-120 -3.5t-141 -10.5v50q28 2 49.5 5t35.5 5q57 9 57 49q0 26 -37 95l-222 414l-267 -429
q-39 -63 -39 -84q0 -39 54 -48q11 -2 30.5 -3.5l45.5 -3.5v-50q-113 9 -201 9t-202 -9v50z" />
    <glyph glyph-name="Y" unicode="Y" horiz-adv-x="1211" 
d="M523 765l-304 605q-38 73 -84 99q-31 16 -107 22v50q69 -7 132 -10.5t120 -3.5t119.5 3.5t131.5 10.5v-50q-51 -3 -85 -9q-58 -10 -58 -47q0 -20 21 -62l262 -520l261 523q20 42 20 60q0 37 -55 47q-15 2 -36 4t-48 4v50q57 -5 104 -7.5t85 -2.5t85 2.5t104 7.5v-50
q-71 -8 -104 -21q-47 -20 -82 -89l-308 -616v-415q0 -66 11 -86q30 -42 158 -50v-50q-164 15 -256 15q-94 0 -256 -15v50q84 6 119 20q41 17 47 59q1 8 2 22.5t1 34.5v415z" />
    <glyph glyph-name="Z" unicode="Z" horiz-adv-x="1102" 
d="M64 170l740 1302h-343q-85 0 -128 -22q-92 -45 -135 -216h-53l55 301h833l-739 -1302h387q100 0 140 19q94 45 167 251h50l-61 -333h-913z" />
    <glyph glyph-name="bracketleft" unicode="[" horiz-adv-x="633" 
d="M575 1474h-209v-1641h209v-61h-355v1763h355v-61z" />
    <glyph glyph-name="backslash" unicode="\" horiz-adv-x="826" 
d="M1001 -228h-113l-868 1763h113z" />
    <glyph glyph-name="bracketright" unicode="]" horiz-adv-x="633" 
d="M57 -167h209v1641h-209v61h355v-1763h-355v61z" />
    <glyph glyph-name="asciicircum" unicode="^" 
d="M1073 758h-70l-429 656l-437 -656h-186l564 846h12z" />
    <glyph glyph-name="underscore" unicode="_" 
d="M50 -9h923v-79h-923v79z" />
    <glyph glyph-name="grave" unicode="`" 
d="M637 1299h-92l-336 301h227z" />
    <glyph glyph-name="a" unicode="a" horiz-adv-x="955" 
d="M639 331q-41 -74 -79 -109q-73 -70 -196 -70q-122 0 -202 71q-83 75 -83 192q0 183 233 281q66 28 141 47t162 30v122q0 103 -31 146q-44 60 -138 60q-80 0 -135 -43q-35 -29 -35 -77v-18q0 -9 0.5 -16.5t0.5 -13.5q0 -91 -83 -91q-68 0 -68 69q0 94 90 165
q104 80 246 80q101 0 180 -43q97 -54 124 -155q6 -24 9.5 -59t3.5 -81v-418q0 -97 15 -140t65 -43q39 0 52 7v-54q-35 -7 -63.5 -10.5t-51.5 -3.5q-87 0 -126 63q-24 39 -31 112zM615 720q-72 -13 -128.5 -30t-101.5 -40q-140 -71 -140 -223q0 -90 48 -139q44 -47 122 -47
q126 0 178 121q22 51 22 180v178z" />
    <glyph glyph-name="b" unicode="b" horiz-adv-x="1043" 
d="M167 147v1201q0 59 -12 82q-17 29 -68 36q-14 2 -30 2h-35v36q163 14 308 54v-561q22 34 41 58t35 38q68 62 175 62q169 0 276 -144q104 -143 104 -358q0 -218 -110 -361q-110 -141 -279 -141q-180 0 -266 179l-88 -183h-51zM559 1098q-60 0 -108.5 -36t-72.5 -99
q-50 -135 -50 -322q0 -197 43 -297q14 -32 34 -58.5t48 -46.5q43 -31 102 -31q91 0 151 76q83 107 83 371q0 443 -230 443z" />
    <glyph glyph-name="c" unicode="c" horiz-adv-x="892" 
d="M789 1179v-337h-46q-20 92 -48 146q-29 55 -79.5 87t-108.5 32q-133 0 -188 -135q-56 -136 -56 -324q0 -432 238 -432q189 0 227 269h82q-13 -112 -57 -187q-86 -150 -269 -150q-180 0 -292 141q-107 135 -107 358q0 234 119 380q111 135 286 135q121 0 208 -87l55 104
h36z" />
    <glyph glyph-name="d" unicode="d" horiz-adv-x="1050" 
d="M1013 202q-85 -10 -151.5 -23t-118.5 -30q-10 42 -17 82t-11 82q-86 -168 -253 -168t-273 141q-108 142 -108 361q0 215 103 357q105 145 270 145q107 0 172 -62q45 -43 74 -97v358q0 59 -12 82q-17 31 -69 36q-13 2 -29 2h-35v36q165 13 309 54v-1180q0 -63 7 -84
q11 -36 48 -47q28 -7 94 -9v-36zM469 1092q-216 0 -216 -443q0 -88 10.5 -163t33.5 -140q23 -66 72.5 -105t110.5 -39q80 0 139 68q83 98 83 362q0 460 -233 460z" />
    <glyph glyph-name="e" unicode="e" horiz-adv-x="939" 
d="M857 485q-14 -117 -75 -201q-98 -134 -287 -134q-194 0 -301 134q-113 143 -113 371q0 224 113 367q108 135 288 135q138 0 239 -89q129 -115 135 -391h-609q-1 -14 -1 -24.5v-18.5q0 -173 60 -294q62 -122 211 -122t218 129q30 55 42 138h80zM692 750q-17 354 -212 354
q-199 0 -229 -354h441z" />
    <glyph glyph-name="f" unicode="f" horiz-adv-x="606" 
d="M368 1137h234v-75h-234v-747q0 -51 12 -70q22 -35 135 -40v-41q-143 12 -229 12q-87 0 -229 -12v41q71 3 103 15q34 14 41 48q3 13 3 47v747h-141v63q85 1 115 18q26 13 34 50l5 61q4 45 8 79.5t11 59.5q23 84 104 131q67 40 157 40q97 0 155 -52q46 -40 46 -101
q0 -77 -76 -77q-33 0 -54 18q-19 16 -19 42q0 10 3 28q1 8 1.5 15.5t0.5 14.5q0 23 -12 38q-16 22 -49 22q-79 0 -108 -80q-9 -24 -13 -63t-4 -96v-136z" />
    <glyph glyph-name="g" unicode="g" horiz-adv-x="1008" 
d="M979 1102v-82l-196 5q50 -77 50 -171q0 -163 -133 -251q-29 -19 -84 -39t-136 -40q-45 -11 -79.5 -21t-60.5 -18q-69 -23 -69 -67q0 -37 40 -49q16 -5 52 -9t93 -8q229 -17 318 -51q85 -33 128 -106q31 -52 31 -116q0 -66 -32 -127t-87 -99q-128 -89 -325 -89
q-172 0 -293 66q-64 35 -99.5 92t-35.5 126q0 150 197 219q-22 9 -38 17.5t-26 16.5q-44 35 -44 85q0 113 221 166q-79 24 -132 68q-104 87 -104 227q0 142 93 223q97 85 268 85q119 0 211 -53h272zM485 1103q-96 0 -145 -69q-50 -71 -50 -188q0 -106 43 -173
q51 -81 152 -81t150 79q43 70 43 179q0 253 -193 253zM457 206q-144 0 -232 -48q-80 -44 -80 -126q0 -92 92 -145q104 -59 250 -59t237 55q83 50 83 144q0 179 -350 179z" />
    <glyph glyph-name="h" unicode="h" horiz-adv-x="1106" 
d="M355 1019q98 137 260 137q167 0 249 -127q50 -77 50 -222v-492q0 -25 2.5 -42.5t9.5 -27.5q26 -36 135 -40v-41q-134 12 -224 12q-91 0 -223 -12v40q62 1 95 17q32 15 38 46q3 13 3 45v502q0 123 -31 172q-47 77 -151 77q-109 0 -172 -83q-41 -56 -41 -174v-494
q0 -47 11 -66q24 -39 122 -42v-40q-131 12 -221 12t-223 -12v41q71 3 103 15q34 14 41 48q3 13 3 47v1033q0 59 -12 82q-17 31 -69 36q-13 2 -29 2h-35v36q160 13 309 54v-539z" />
    <glyph glyph-name="i" unicode="i" horiz-adv-x="571" 
d="M372 315q0 -25 2.5 -42.5t9.5 -27.5q26 -36 135 -40v-41q-146 12 -229 12q-84 0 -229 -12v41q71 3 103 15q34 14 41 48q3 13 3 47v648q0 59 -12 82q-16 30 -69 35q-26 3 -64 3v35q198 15 309 55v-858zM285 1535q45 0 77 -32q33 -33 33 -80q0 -46 -32 -79q-32 -32 -79 -32
q-46 0 -79 33t-33 78q0 48 32 80q33 32 81 32z" />
    <glyph glyph-name="j" unicode="j" horiz-adv-x="556" 
d="M365 198q0 -40 -3 -76t-8 -68q-5 -29 -14 -55.5t-23 -52.5q-35 -66 -88.5 -107t-131.5 -65q-31 -9 -65.5 -14t-73.5 -5v53q96 13 159 64q29 23 47 53.5t26 65.5q5 25 8 55t3 66v851q0 59 -12 82q-16 30 -69 35q-26 3 -64 3v35q197 15 309 55v-975zM277 1535q46 0 78 -32
q33 -33 33 -80q0 -46 -32 -79q-32 -32 -79 -32q-46 0 -79 33t-33 78q0 48 32 80q33 32 80 32z" />
    <glyph glyph-name="k" unicode="k" horiz-adv-x="1094" 
d="M353 646l329 349q35 38 35 58q0 43 -112 49v41q55 -5 103 -7.5t90 -2.5q43 0 93 2.5t110 7.5v-41q-72 -6 -108 -21q-45 -20 -98 -76l-196 -206l290 -483q44 -74 82 -91q21 -9 46.5 -13.5t55.5 -6.5v-41q-45 4 -79.5 5.5t-60.5 1.5t-60 -1.5t-76 -5.5l-303 536l-143 -147
v-238q0 -25 2.5 -42.5t9.5 -27.5q26 -36 135 -40v-41q-143 12 -227 12q-85 0 -227 -12v41q71 3 103 15q34 14 41 48q3 13 3 47v1033q0 59 -12 82q-17 31 -69 36q-13 2 -29 2h-35v36q161 16 307 54v-912z" />
    <glyph glyph-name="l" unicode="l" horiz-adv-x="559" 
d="M368 315q0 -25 2.5 -42.5t9.5 -27.5q26 -36 135 -40v-41q-146 12 -229 12q-84 0 -229 -12v41q71 3 103 15q34 14 41 48q3 13 3 47v1033q0 59 -12 82q-17 31 -69 36q-13 2 -29 2h-35v36q160 13 309 54v-1243z" />
    <glyph glyph-name="m" unicode="m" horiz-adv-x="1631" 
d="M62 1112q88 13 155 28t116 34q9 -42 14 -84.5t6 -90.5q41 59 77 89q83 68 198 68q178 0 250 -160q19 28 37 50t35 38q79 72 208 72q177 0 245 -122q36 -65 36 -200v-519q0 -51 12 -70q23 -35 136 -40v-41q-134 12 -224 12q-92 0 -222 -12v40q62 2 93 17t38 46q3 13 3 45
v526q0 108 -24 152q-41 72 -143 72q-203 0 -203 -242v-508q0 -47 11 -66q24 -39 123 -42v-40q-131 12 -216 12q-84 0 -216 -12v40q29 1 52.5 5t40.5 12q32 15 38 46q3 12 3 45v523q0 110 -26 157q-40 70 -137 70q-117 0 -172 -90q-35 -56 -35 -174v-486q0 -47 11 -66
q24 -39 124 -42v-40q-131 12 -222 12t-224 -12v41q70 3 102 15q34 13 42 48q3 13 3 47v634l-3 73q-1 36 -31 45q-11 3 -38.5 6t-72.5 4v35z" />
    <glyph glyph-name="n" unicode="n" horiz-adv-x="1122" 
d="M62 1112q187 24 271 61q15 -55 21 -178q108 161 277 161q166 0 249 -126q50 -77 50 -223v-492q0 -26 2.5 -43t9.5 -27q26 -36 135 -40v-41q-134 12 -225 12t-221 -12v40q31 1 54.5 5t40.5 12q31 15 37 46q3 12 3 45v502q0 123 -31 172q-47 77 -151 77q-109 0 -172 -83
q-41 -56 -41 -174v-494q0 -47 11 -66q24 -39 122 -42v-40q-131 12 -221 12t-223 -12v41q71 3 103 15q34 14 41 48q3 13 3 47v634q0 66 -4 73q-6 43 -60 51q-13 2 -33 2.5t-48 1.5v35z" />
    <glyph glyph-name="o" unicode="o" horiz-adv-x="960" 
d="M494 1162q177 0 282 -148q103 -145 103 -357q0 -214 -106 -359q-110 -150 -294 -150q-185 0 -294 150q-104 143 -104 353q0 224 113 367q114 144 300 144zM480 1109q-82 0 -140 -73q-87 -108 -87 -383q0 -452 225 -452q92 0 151 80q78 106 78 368q0 460 -227 460z" />
    <glyph glyph-name="p" unicode="p" horiz-adv-x="1068" 
d="M312 1160q18 -62 27 -173q93 169 261 169t276 -141q110 -143 110 -361q0 -214 -104 -357q-106 -145 -276 -145q-107 0 -175 62q-34 30 -76 97v-400q0 -26 2.5 -43t9.5 -27q25 -36 134 -40v-41q-69 7 -125.5 10t-102.5 3t-103 -3t-126 -10v41q72 3 103 15q34 14 41 48
q3 13 3 47v1052q0 84 -35 107q-23 14 -112 17v35q76 6 142 15.5t126 22.5zM578 1099q-79 0 -139 -68q-86 -98 -86 -365q0 -457 235 -457q226 0 226 438q0 452 -236 452z" />
    <glyph glyph-name="q" unicode="q" horiz-adv-x="1066" 
d="M712 311q-20 -33 -39.5 -57t-36.5 -40q-68 -62 -175 -62q-171 0 -276 145q-104 143 -104 357q0 218 110 361q108 141 277 141q172 0 260 -169q8 109 27 173q57 -13 122.5 -22t143.5 -16v-35l-26 -1q-74 -3 -99 -30q-22 -28 -22 -93v-1052q0 -26 2.5 -43t9.5 -27
q25 -35 135 -40v-41q-67 7 -123.5 10t-102.5 3q-48 0 -104 -3t-125 -10v41q35 2 60.5 5.5t41.5 9.5q34 12 41 48q3 13 3 47v400zM483 1099q-85 0 -146 -76q-84 -104 -84 -373q0 -441 226 -441q235 0 235 454q0 436 -231 436z" />
    <glyph glyph-name="r" unicode="r" horiz-adv-x="776" 
d="M62 1121q162 16 270 48q8 -49 12.5 -97t6.5 -96q24 60 63 105q72 81 176 81q85 0 135 -53q43 -46 43 -113q0 -44 -21 -69q-24 -30 -64 -30q-38 0 -60 19q-24 19 -24 49q0 6 1.5 17t5.5 27q1 5 1.5 9t0.5 8q0 22 -17 36q-20 14 -43 14q-95 0 -146 -124q-15 -38 -23 -89.5
t-8 -118.5v-429q0 -51 12 -70q22 -35 135 -40v-41q-141 12 -229 12t-229 -12v41q71 3 103 15q34 14 41 48q3 13 3 47v637q0 29 -1 48t-2 29q-6 46 -61 53q-14 2 -34 2.5t-47 1.5v35z" />
    <glyph glyph-name="s" unicode="s" horiz-adv-x="872" 
d="M109 146v342h45q16 -87 45 -143q31 -61 90 -96.5t131 -35.5q94 0 156 57q56 53 56 127q0 75 -66 119q-38 25 -153 78q-63 28 -100.5 45.5t-51.5 25.5q-139 76 -139 217q0 123 86 197q88 76 222 76q109 0 210 -65l34 84h36v-318h-46q-25 241 -215 241q-89 0 -145 -56
q-49 -48 -49 -113q0 -59 43 -99q14 -13 46.5 -31t83.5 -41l132 -58q51 -23 88 -45t60 -45q62 -60 62 -164q0 -121 -84 -203q-91 -91 -245 -91q-134 0 -247 86l-49 -91h-36z" />
    <glyph glyph-name="t" unicode="t" horiz-adv-x="634" 
d="M609 214q-104 -62 -199 -62q-149 0 -199 116q-20 45 -24 117q-1 9 -1 35v69v573h-128v63q26 2 48.5 7t41.5 14q114 56 155 283h51v-292h238v-75h-238v-596q0 -125 18 -168q25 -66 103 -66q52 0 134 43v-61z" />
    <glyph glyph-name="u" unicode="u" horiz-adv-x="1103" 
d="M341 489q0 -125 34 -174q48 -70 151 -70q116 0 173 88q38 59 38 184v446q0 59 -12 82q-17 30 -68 35q-27 3 -65 3v35q81 7 157.5 21t151.5 34v-833q0 -52 12 -70q17 -25 72 -29q11 -1 28 -1t40 -1v-36q-167 -17 -282 -54q-5 29 -8 75t-5 112q-40 -77 -83 -114
q-80 -69 -197 -69q-166 0 -248 115q-53 74 -53 225v470q0 59 -12 82q-16 30 -69 35q-26 3 -64 3v35q81 7 157.5 21t151.5 34v-684z" />
    <glyph glyph-name="v" unicode="v" horiz-adv-x="993" 
d="M547 385l224 617q9 24 13 39t4 20q0 29 -40 36q-11 2 -26.5 3t-36.5 2v41q117 -9 157 -9q42 0 153 9v-41q-33 -2 -56 -6t-37 -12q-17 -10 -32.5 -30t-26.5 -51l-236 -636l-82 -222h-55l-78 215l-240 649q-23 62 -64 80q-11 5 -33 8t-56 5v41q76 -5 130.5 -8t89.5 -3
q37 0 88.5 3t120.5 8v-41q-18 -1 -33 -2t-26 -3q-51 -9 -51 -42q0 -14 12 -48z" />
    <glyph glyph-name="w" unicode="w" horiz-adv-x="1449" 
d="M732 908l-197 -582q-20 -61 -34 -106t-23 -75h-55q-20 69 -33.5 116t-22.5 75l-207 662q-23 70 -54 87q-13 7 -35 11t-54 6v41q63 -5 114 -7.5t94 -2.5t94 2.5t114 7.5v-41q-53 -2 -78 -9q-39 -11 -39 -39q0 -9 12 -49l175 -585l248 743h57l240 -747l178 587q6 19 8.5 32
t2.5 20q0 34 -45 42q-11 2 -27 3t-39 2v41q51 -4 92 -6t74 -2t70 2t79 6v-41q-31 -2 -53.5 -6.5t-38.5 -12.5q-39 -19 -57 -79l-209 -667q-19 -60 -32.5 -107.5t-23.5 -84.5h-55l-55 177z" />
    <glyph glyph-name="x" unicode="x" horiz-adv-x="1044" 
d="M448 648l-214 368q-16 27 -34 44.5t-37 25.5q-17 7 -40.5 11t-52.5 5v41q64 -5 117 -8t98 -3t96 3t114 8v-41q-94 -4 -94 -41q0 -13 20 -48l130 -226l154 219q27 37 27 55q0 28 -41 36q-11 2 -26.5 3t-35.5 2v41q51 -4 92 -6t74 -2q34 0 75 2t92 6v-41q-32 -2 -56 -6.5
t-38 -9.5q-40 -15 -82 -73l-202 -282l245 -420q41 -70 81 -89q31 -15 102 -17v-41q-69 5 -124.5 8t-100.5 3q-46 0 -101 -3t-121 -8v41q104 5 104 43q0 16 -21 54l-166 288l-190 -270q-34 -49 -34 -69q0 -31 44 -40q20 -5 65 -6v-41q-117 9 -167 9t-168 -9v41q34 2 59.5 7.5
t42.5 16.5q39 24 88 95z" />
    <glyph glyph-name="y" unicode="y" horiz-adv-x="1022" 
d="M478 203l-302 804q-24 64 -61 79q-14 5 -37 9.5t-57 6.5v41q60 -5 111.5 -7.5t97.5 -2.5t97.5 2.5t111.5 7.5v-41q-34 -2 -59 -6q-48 -8 -48 -38q0 -11 15 -54l215 -591l224 585q17 46 17 57q0 34 -46 41q-28 4 -71 6v41q38 -4 76 -6t76 -2t81.5 2t94.5 6v-41
q-25 -3 -46.5 -7.5t-39.5 -12.5q-45 -20 -69 -81l-387 -1000q-53 -137 -135 -189q-68 -42 -162 -42h-12t-17 1v103q34 0 62.5 3t52.5 11q48 16 86.5 55t67.5 108z" />
    <glyph glyph-name="z" unicode="z" horiz-adv-x="915" 
d="M69 170l555 914h-227q-72 0 -109 -18q-55 -25 -94 -110q-7 -15 -16 -36t-20 -49h-42l46 266h680l-557 -914h241q92 0 133 29q76 53 125 213h42l-53 -295h-704z" />
    <glyph glyph-name="braceleft" unicode="{" horiz-adv-x="633" 
d="M488 -262q-63 0 -110 12t-77 41q-54 51 -54 178v538q0 86 -41 124q-31 28 -87 46q59 20 88 46q40 36 40 124v491q0 137 64 186q32 25 76 35t101 10h41q-72 -16 -104.5 -61.5t-32.5 -121.5v-500q0 -52 -10 -89t-28 -59q-21 -27 -88 -61q37 -19 60.5 -36.5t34.5 -33.5
q31 -46 31 -139v-547q0 -76 32.5 -121.5t104.5 -61.5h-41z" />
    <glyph glyph-name="bar" unicode="|" 
d="M463 1535h97v-1706h-97v1706z" />
    <glyph glyph-name="braceright" unicode="}" horiz-adv-x="633" 
d="M145 1569q63 0 109 -12.5t78 -41.5q54 -51 54 -177v-491q0 -86 40 -123q29 -27 88 -47q-56 -18 -88 -47q-40 -37 -40 -123v-538q0 -137 -64 -186q-32 -25 -76 -35t-101 -10h-41q72 16 104.5 61.5t32.5 121.5v547q0 101 38 148q12 14 34 29.5t54 31.5q-71 36 -95 71
q-31 46 -31 138v500q0 76 -32.5 121.5t-104.5 61.5h41z" />
    <glyph glyph-name="asciitilde" unicode="~" horiz-adv-x="1365" 
d="M1117 1655q-39 -67 -107 -123q-87 -69 -172 -69q-20 0 -52.5 7t-78.5 22q-88 28 -148 42.5t-94 14.5q-75 0 -127 -52q-11 -11 -26.5 -28t-35.5 -41l-27 17q122 194 285 194q28 0 74.5 -10t112.5 -34q51 -18 91.5 -27.5t71.5 -9.5q114 0 206 114z" />
    <glyph glyph-name="Euro" unicode="&#x20ac;" horiz-adv-x="952" 
d="M31 849l2 21l41 53h55q29 240 153 379t308 139q62 0 157 -15q48 -8 77 -12t40 -5q14 -66 25 -144t18 -172q-46 -14 -65 -10q-71 287 -256 287q-121 0 -193 -125q-71 -125 -90 -322h477l-39 -74h-442v-38v-72h406l-39 -74h-363q18 -212 95 -319t204 -107q55 0 94.5 19
t68.5 64q14 22 24.5 42.5t18.5 39.5q15 37 36 105q23 -2 40.5 -6.5t28.5 -9.5q-16 -91 -34.5 -163t-38.5 -126q-9 -1 -35.5 -5.5t-71.5 -13.5q-45 -8 -82.5 -13t-68.5 -5q-193 0 -312 131q-117 131 -143 367h-127v21l43 53h80q-1 7 -1.5 18.5t-0.5 28.5q0 20 0.5 36t1.5 27
h-92z" />
    <glyph glyph-name="quotesinglbase" unicode="&#x201a;" horiz-adv-x="487" 
d="M114 -104q28 28 53.5 60.5t48.5 70.5q45 76 52 134h-8q-9 -3 -15 -3q-40 0 -65 19q-35 26 -35 78q0 46 32 76q31 30 80 30q57 0 89 -39q27 -35 27 -89q0 -143 -161 -337h-98z" />
    <glyph glyph-name="florin" unicode="&#x192;" horiz-adv-x="1071" 
d="M883 1136l-3 -77h-222l-116 -656q-48 -277 -112 -364q-93 -130 -243 -130q-99 0 -156 51q-50 44 -50 110q0 40 23 66t61 26q33 0 53 -20q17 -17 17 -41q0 -8 -2.5 -18.5t-6.5 -24.5q-5 -14 -6.5 -23.5t-1.5 -13.5q0 -24 21 -37q19 -12 44 -12q74 0 116 83q28 57 53 200
l143 804h-143l3 67h31q78 0 104 20q11 8 21.5 35t21.5 72l32 131q27 110 114 175q79 60 193 60q87 0 140 -44q49 -40 49 -106q0 -94 -79 -94q-34 0 -56 18q-19 16 -19 42q0 3 2 13t6 27q5 22 6.5 31.5t1.5 7.5q0 42 -57 42q-120 0 -156 -200l-39 -220h212z" />
    <glyph glyph-name="quotedblbase" unicode="&#x201e;" horiz-adv-x="798" 
d="M114 -104q28 28 53.5 60.5t48.5 70.5q45 76 52 134h-8q-9 -3 -15 -3q-40 0 -65 19q-35 26 -35 78q0 46 32 76q31 30 80 30q57 0 89 -39q27 -35 27 -89q0 -143 -161 -337h-98zM425 -104q28 28 53.5 60.5t48.5 70.5t35 71.5t16 62.5h-8q-8 -3 -14 -3q-40 0 -65 19
q-35 27 -35 78q0 46 32 76q31 30 80 30q57 0 89 -39q27 -35 27 -88q0 -144 -161 -338h-98z" />
    <glyph glyph-name="ellipsis" unicode="&#x2026;" horiz-adv-x="1411" 
d="M237 385q47 0 81 -34t34 -82q0 -49 -34 -83t-82 -34q-49 0 -83 34t-34 82q0 49 34 83t84 34zM707 385q47 0 81 -34t34 -82q0 -49 -34 -83t-82 -34q-49 0 -83 34t-34 82q0 50 34 83q34 34 84 34zM1178 385q47 0 81 -34t34 -82q0 -49 -34 -83t-82 -34q-49 0 -83 34t-34 82
q0 49 34 83t84 34z" />
    <glyph glyph-name="dagger" unicode="&#x2020;" horiz-adv-x="1262" 
d="M1220 931q-51 -6 -90.5 -13.5t-71.5 -18.5q-5 26 -9.5 49.5t-6.5 48.5q-52 -100 -152 -100t-164 84q-65 86 -65 217q0 128 62 214q63 87 162 87q63 0 103 -37q11 -11 22.5 -26t22.5 -32v214q0 36 -8 50q-9 18 -41 21q-8 2 -17.5 1.5t-20.5 -0.5v22q51 4 95.5 12t89.5 20
v-708q0 -43 4 -50q7 -22 29 -28q16 -4 56 -6v-21zM894 1465q-130 0 -130 -266q0 -109 27 -182q14 -40 43.5 -63t66.5 -23q48 0 83 41q50 59 50 217q0 276 -140 276zM42 1471q118 15 163 37q9 -33 12 -107q64 97 166 97q101 0 150 -76q30 -45 30 -134v-295q0 -16 1 -26t6 -16
q15 -21 81 -24v-24q-40 3 -73.5 5t-61.5 2t-60.5 -2t-72.5 -5v24q38 0 57 10q18 7 23 27q1 1 1 27v302q0 73 -18 103q-28 46 -91 46q-65 0 -103 -50q-25 -34 -25 -104v-297q0 -29 7 -39q15 -24 73 -25v-24q-39 3 -72 5t-60 2t-60.5 -2t-73.5 -5v24q42 1 62 9q19 9 24 29
q1 4 1.5 10.5t0.5 17.5v381q0 17 -0.5 27.5t-1.5 15.5q-4 26 -36 31q-8 2 -20 2h-29v21z" />
    <glyph glyph-name="daggerdbl" unicode="&#x2021;" horiz-adv-x="1603" 
d="M211 1111h29q36 -174 216 -174q80 0 125 38q45 36 45 90q0 58 -55 92q-14 8 -43.5 21.5t-74.5 31.5q-70 29 -112.5 49.5t-59.5 32.5q-57 42 -57 111q0 77 67 126q64 45 167 45q94 0 160 -50l36 54h23v-180h-29q-15 52 -40 85q-47 62 -140 62q-68 0 -113 -37
q-42 -35 -42 -83q0 -55 69 -89q33 -17 120 -51q100 -40 140 -64q74 -47 74 -129q0 -84 -71 -136q-68 -50 -174 -50q-110 0 -193 56l-45 -62h-22v211zM930 1480l-19 -472l-1 -10q-3 -31 22 -38q8 -2 23.5 -5t38.5 -5v-35q-34 3 -59.5 4t-45.5 1q-19 0 -46 -1t-62 -3v34
q48 3 63 9q18 8 20 50l22 474v8q0 33 -22 42q-15 6 -62 9v35q26 -2 48 -3t41 -1q23 0 48.5 1t51.5 4l185 -479l188 479q31 -3 56 -4t46 -1q17 0 38 1t47 3v-35q-47 -3 -63 -9q-21 -9 -21 -41v-9l11 -474q0 -15 2 -24t4 -13q13 -19 78 -22v-35q-42 4 -74.5 6t-58.5 2t-58 -2
t-74 -6v35q21 1 36.5 2.5t26.5 6.5q17 8 20 24v25l-8 473l-167 -430q-10 -25 -17.5 -46t-14.5 -40l-10 -28h-23l-34 90l-10 27z" />
    <glyph glyph-name="circumflex" unicode="&#x2c6;" 
d="M194 1300l269 299h99l269 -299h-98l-221 177l-221 -177h-97z" />
    <glyph glyph-name="perthousand" unicode="&#x2030;" horiz-adv-x="1877" 
d="M343 1546q117 0 188 -93q72 -95 72 -232q0 -138 -72 -232q-74 -96 -197 -96q-125 0 -200 99q-68 92 -68 225q0 143 75 235q78 94 202 94zM335 1497q-80 0 -116 -87q-30 -74 -30 -192q0 -276 145 -276q146 0 146 277q0 278 -145 278zM178 170l801 1365h86l-801 -1365h-86z
M918 813q119 0 189 -94q71 -95 71 -231q0 -139 -72 -233q-74 -96 -197 -96q-126 0 -201 100q-68 89 -68 224q0 144 75 236q78 94 203 94zM909 764q-80 0 -116 -88q-30 -72 -30 -192q0 -276 145 -276q147 0 147 277q0 279 -146 279zM1550 812q118 0 189 -93q71 -95 71 -232
q0 -139 -72 -233q-74 -96 -197 -96q-126 0 -201 100q-67 88 -67 224q0 144 75 236q78 94 202 94zM1542 763q-82 0 -116 -87q-30 -74 -30 -193q0 -276 145 -276q146 0 146 277q0 279 -145 279z" />
    <glyph glyph-name="Scaron" unicode="&#x160;" horiz-adv-x="1063" 
d="M119 583h48q61 -367 361 -367q131 0 209 81q74 77 74 189q0 123 -92 192q-23 17 -72 45.5t-124 66.5q-232 119 -288 172q-94 87 -94 232q0 165 112 264q106 96 278 96q155 0 267 -106l61 114h37v-377h-48q-13 55 -30 99.5t-37 78.5q-78 129 -234 129q-114 0 -188 -77
q-70 -73 -70 -174q0 -113 116 -187q27 -17 77 -43.5t123 -63.5q166 -83 233 -135q124 -94 124 -270t-118 -285q-112 -106 -291 -106q-183 0 -323 119l-74 -131h-37v444zM885 1929l-290 -277h-116l-290 277h102l246 -171l247 171h101z" />
    <glyph glyph-name="guilsinglleft" unicode="&#x2039;" horiz-adv-x="539" 
d="M359 1137h67l-169 -478l169 -489h-67l-248 489z" />
    <glyph glyph-name="OE" unicode="&#x152;" horiz-adv-x="1883" 
d="M1013 1535h723l36 -307h-46q-35 139 -83 190q-50 54 -160 54h-314v-561h311q56 0 77 18q38 35 44 151h50v-402h-50q-4 94 -29 131q-27 39 -103 39h-300v-494q0 -57 10 -73q27 -48 139 -48h151q48 0 82.5 7t57.5 18q89 44 138 242h47l-47 -330h-734v207
q-131 -230 -375 -230q-170 0 -307 107q-66 51 -112 124t-78 173q-22 66 -32.5 141.5t-10.5 166.5q0 283 124 473q71 109 178 167q107 59 232 59q250 0 381 -230v207zM642 1500q-137 0 -235 -122q-127 -160 -127 -521q0 -281 73 -436q22 -48 50.5 -86.5t65.5 -67.5
q38 -30 83.5 -46t99.5 -16q144 0 234 117q127 166 127 531q0 251 -68 424q-87 223 -303 223z" />
    <glyph glyph-name="quoteleft" unicode="&#x2018;" horiz-adv-x="487" 
d="M373 1545q-28 -28 -53.5 -60.5t-48.5 -70.5q-22 -37 -35 -70.5t-17 -64.5h8q9 3 15 3q39 0 64 -19q36 -27 36 -78q0 -46 -32 -76t-80 -30q-58 0 -89 39q-27 34 -27 88q0 145 161 339h98z" />
    <glyph glyph-name="quoteright" unicode="&#x2019;" horiz-adv-x="487" 
d="M114 1093q28 28 53.5 60.5t48.5 70.5q45 76 52 134h-8q-9 -3 -15 -3q-40 0 -65 19q-35 26 -35 78q0 46 32 76q31 30 80 30q57 0 89 -39q27 -35 27 -89q0 -143 -161 -337h-98z" />
    <glyph glyph-name="quotedblleft" unicode="&#x201c;" horiz-adv-x="798" 
d="M685 1545q-28 -28 -53.5 -60.5t-48.5 -70.5q-22 -37 -35 -70.5t-17 -64.5h8q9 3 14 3q40 0 65 -19q36 -27 36 -78q0 -46 -32 -76t-80 -30q-58 0 -89 39q-27 34 -27 89q0 144 161 338h98zM374 1545q-28 -28 -53.5 -60.5t-48.5 -70.5q-22 -37 -35 -70.5t-17 -64.5h8
q9 3 15 3q39 0 64 -19q36 -27 36 -78q0 -46 -32 -76t-80 -30q-58 0 -89 39q-27 34 -27 88q0 145 161 339h98z" />
    <glyph glyph-name="quotedblright" unicode="&#x201d;" horiz-adv-x="798" 
d="M114 1093q28 28 53.5 60.5t48.5 70.5q45 76 52 134h-8q-9 -3 -15 -3q-40 0 -65 19q-35 26 -35 78q0 46 32 76q31 30 80 30q57 0 89 -39q27 -35 27 -89q0 -143 -161 -337h-98zM425 1093q28 26 53.5 58.5t48.5 72.5q23 38 35 71.5t16 62.5h-8q-8 -3 -14 -3q-40 0 -65 19
q-35 26 -35 78q0 46 32 76q31 30 80 30q57 0 89 -39q27 -35 27 -88q0 -144 -161 -338h-98z" />
    <glyph glyph-name="bullet" unicode="&#x2022;" horiz-adv-x="1365" 
d="M689 1148q113 0 196 -83q84 -83 84 -201t-83 -201t-201 -83q-117 0 -199 82q-85 84 -85 202q0 121 84 202q85 82 204 82z" />
    <glyph glyph-name="endash" unicode="&#x2013;" horiz-adv-x="1071" 
d="M172 673v88h726v-88h-726z" />
    <glyph glyph-name="emdash" unicode="&#x2014;" horiz-adv-x="1202" 
d="M0 673v88h1202v-88h-1202z" />
    <glyph glyph-name="tilde" unicode="&#x2dc;" 
d="M194 1367q31 109 65 146q51 55 126 55q67 0 140 -55q26 -20 42.5 -31.5t24.5 -15.5q32 -17 64 -17q60 0 90 45q7 11 14 26.5t14 35.5l56 -13q-20 -107 -65 -152q-57 -58 -128 -58q-43 0 -80 18q-14 7 -36.5 21t-51.5 37t-54 33t-47 10q-76 0 -117 -101z" />
    <glyph glyph-name="trademark" unicode="&#x2122;" horiz-adv-x="1603" 
d="M505 1533v-524q0 -29 5 -37q13 -19 79 -22v-35q-42 4 -74.5 6t-58.5 2t-58 -2t-74 -6v35q51 3 63 10q18 6 20 24q0 4 0.5 10t0.5 15v524h-48q-63 0 -88 -36q-16 -20 -34 -81h-36l30 157h453l31 -157h-36q-18 61 -33 82q-14 20 -37 29q-8 2 -19 4t-27 2h-59zM930 1480
l-19 -472l-1 -10q-3 -31 22 -38q8 -2 23.5 -5t38.5 -5v-35q-34 3 -59.5 4t-45.5 1q-19 0 -46 -1t-62 -3v34q48 3 63 9q18 8 20 50l22 474v8q0 33 -22 42q-15 6 -62 9v35q26 -2 48 -3t41 -1q23 0 48.5 1t51.5 4l185 -479l188 479q31 -3 56 -4t46 -1q17 0 38 1t47 3v-35
q-47 -3 -63 -9q-21 -9 -21 -41v-9l11 -474q0 -15 2 -24t4 -13q13 -19 78 -22v-35q-42 4 -74.5 6t-58.5 2t-58 -2t-74 -6v35q21 1 36.5 2.5t26.5 6.5q17 8 20 24v25l-8 473l-167 -430q-10 -25 -17.5 -46t-14.5 -40l-10 -28h-23l-34 90l-10 27z" />
    <glyph glyph-name="scaron" unicode="&#x161;" horiz-adv-x="872" 
d="M109 146v342h45q16 -87 45 -143q31 -61 90 -96.5t131 -35.5q94 0 156 57q56 53 56 127q0 75 -66 119q-38 25 -153 78q-63 28 -100.5 45.5t-51.5 25.5q-139 76 -139 217q0 123 86 197q88 76 222 76q109 0 210 -65l34 84h36v-318h-46q-25 241 -215 241q-89 0 -145 -56
q-49 -48 -49 -113q0 -59 43 -99q14 -13 46.5 -31t83.5 -41l132 -58q51 -23 88 -45t60 -45q62 -60 62 -164q0 -121 -84 -203q-91 -91 -245 -91q-134 0 -247 86l-49 -91h-36zM769 1596l-269 -299h-99l-269 299h97l221 -177l221 177h98z" />
    <glyph glyph-name="guilsinglright" unicode="&#x203a;" horiz-adv-x="5610" 
d="M591 149v385h-552l555 1014h166v-886h227v-128h-227v-385h-169zM594 662l2 771l-415 -771h413zM5575 521q-3 -63 -15.5 -115t-35.5 -97q-46 -87 -133 -133q-80 -44 -177 -44q-133 0 -239 79q-101 74 -159 237q-18 53 -27.5 115t-9.5 134q0 129 29.5 228.5t86.5 180.5
q30 42 67 73.5t85 51.5q85 35 171 35q152 0 256 -98l58 95h30v-323h-38q-68 272 -286 272q-163 0 -238 -145q-73 -142 -73 -365q0 -210 67 -344q76 -153 241 -153q105 0 182 69q89 81 99 247h59zM4364 1098q0 49 -10 68q-14 26 -68 35q-11 2 -25 3t-33 3v40q126 -12 205 -12
q80 0 205 12v-40q-34 -2 -57.5 -5.5t-37.5 -10.5q-32 -14 -38 -47q-1 -7 -1.5 -18t-0.5 -28v-804q0 -50 9 -68q17 -29 68 -35l58 -6v-40q-131 12 -205 12q-73 0 -205 -12v40q36 3 59.5 6.5t36.5 9.5q33 17 37 48q3 12 3 45v804zM3787 1200v-897q0 -54 9 -69q25 -32 126 -40
v-40q-126 12 -204 12t-205 -12v40q34 2 57.5 6.5t37.5 9.5q33 14 38 47q1 7 1.5 18t0.5 28v897h-88q-106 0 -146 -64q-15 -24 -28.5 -57t-27.5 -78h-40l44 250h716l46 -250h-39q-26 95 -54 137q-12 18 -28 30.5t-36 21.5q-23 10 -77 10h-103zM3023 474h-381l-54 -154
q-20 -56 -20 -77q0 -33 44 -44q23 -5 64 -6v-40q-96 9 -156 9q-32 0 -70 -2t-86 -7v40q73 4 100 22q16 10 29.5 33.5t27.5 59.5l374 977l337 -995q22 -66 64 -82q28 -10 88 -15v-40q-114 12 -200 12t-200 -12v40q24 2 41 5t27 5q37 10 37 39q0 13 -2.5 26.5t-7.5 28.5z
M2690 579h346q-11 33 -25.5 78.5t-30.5 95.5t-32.5 101t-30.5 96t-24.5 79.5t-15.5 51.5zM1247 1150l-34 -852v-16q0 -33 10 -52q20 -33 126 -40v-40q-54 4 -93.5 6t-68.5 2t-70 -2t-95 -6v40q35 2 59 6.5t37 9.5q26 14 35 47q2 8 2.5 19.5t1.5 25.5l35 804v6q0 46 -10 62
q-20 35 -125 41v40q78 -6 135 -6q77 0 155 9l304 -829l309 829q96 -9 158 -9q50 0 128 6v-40q-67 -3 -95 -16q-40 -19 -40 -79v-14l17 -804q2 -52 11 -68q19 -34 125 -40v-40q-129 12 -206 12t-204 -12v40q34 2 57.5 6.5t37.5 9.5q32 12 38 47q2 7 2 16v21v8l-13 849
l-271 -730l-42 -115l-22 -63l-19 -53h-24l-18 53l-23 63l-23 64l-20 57z" />
    <glyph glyph-name="oe" unicode="&#x153;" horiz-adv-x="1564" 
d="M1483 485q-14 -114 -76 -200q-98 -134 -287 -134q-203 0 -335 171q-122 -170 -307 -170q-182 0 -293 148q-104 140 -104 351q0 219 113 362t295 143q179 0 298 -168q58 81 140.5 124.5t176.5 43.5q140 0 241 -89q135 -121 136 -413h-614q2 -88 10.5 -153.5t24.5 -108.5
q63 -173 236 -173q143 0 220 128q31 53 43 138h82zM480 1103q-82 0 -140 -72q-87 -107 -87 -379q0 -447 225 -447q229 0 229 445q0 453 -227 453zM1317 731q-14 377 -215 377q-151 0 -206 -201q-8 -31 -15.5 -75t-12.5 -101h449z" />
    <glyph glyph-name="Ydieresis" unicode="&#x178;" horiz-adv-x="1211" 
d="M523 765l-304 605q-38 73 -84 99q-31 16 -107 22v50q69 -7 132 -10.5t120 -3.5t119.5 3.5t131.5 10.5v-50q-51 -3 -85 -9q-58 -10 -58 -47q0 -20 21 -62l262 -520l261 523q20 42 20 60q0 37 -55 47q-15 2 -36 4t-48 4v50q57 -5 104 -7.5t85 -2.5t85 2.5t104 7.5v-50
q-71 -8 -104 -21q-47 -20 -82 -89l-308 -616v-415q0 -66 11 -86q30 -42 158 -50v-50q-164 15 -256 15q-94 0 -256 -15v50q84 6 119 20q41 17 47 59q1 8 2 22.5t1 34.5v415zM474 1909q46 0 80 -34t34 -82t-34 -82t-82 -34t-82 34t-34 82q0 49 34 82q34 34 84 34zM839 1909
q46 0 80 -34t34 -82t-34 -82t-82 -34t-82 34t-34 82q0 49 34 82q34 34 84 34z" />
    <glyph glyph-name="nonbreakingspace" unicode="&#xa0;" horiz-adv-x="256" 
 />
    <glyph glyph-name="exclamdown" unicode="&#xa1;" horiz-adv-x="821" 
d="M794 932q-62 -38 -119 -38q-93 0 -120 70q-6 15 -9 32.5t-5 37.5q0 6 -0.5 21.5t-0.5 41.5v344h-76v37q35 3 54 13q68 38 93 170h30v-175h143v-45h-143v-358q0 -65 11 -101q13 -40 62 -40q30 0 80 26v-36zM18 898v205h27q5 -26 11.5 -47.5t15.5 -38.5q18 -36 53 -57.5
t80 -21.5q56 0 93 34q34 33 34 76q0 44 -40 72q-22 16 -92 47q-38 17 -60 27t-31 15q-83 47 -83 130q0 16 4.5 34t12 34t16.5 29.5t18 21.5q54 45 134 45q64 0 126 -39l20 51h22v-191h-28q-15 144 -129 144q-54 0 -87 -33q-29 -29 -29 -68q0 -35 25 -59q9 -8 27.5 -19
t50.5 -25l80 -34q61 -27 88 -54q38 -36 38 -99q0 -71 -51 -122q-56 -54 -147 -54q-81 0 -148 51l-29 -54h-22z" />
    <glyph glyph-name="cent" unicode="&#xa2;" horiz-adv-x="1106" 
d="M360 937q-61 -37 -119 -37q-90 0 -120 70q-6 14 -9 31t-5 39q-1 5 -1 20.5v41.5v344h-77v38q16 2 29.5 4.5t24.5 7.5q69 34 93 170h31v-175h143v-45h-143v-358q0 -65 11 -100q13 -40 62 -40q30 0 80 26v-37zM613 1420q58 82 156 82q101 0 150 -76q30 -47 30 -133v-295
q0 -15 1 -26t6 -16q15 -21 81 -24v-25q-34 3 -67.5 5t-67.5 2q-27 0 -60.5 -1.5t-72.5 -5.5v24q20 1 34 3.5t23 6.5q19 10 22 28q1 5 1.5 12t0.5 15v301q0 73 -18 103q-29 47 -91 47q-65 0 -103 -50q-25 -31 -25 -105v-296q0 -27 7 -40q14 -23 73 -25v-24q-39 4 -72.5 5.5
t-60.5 1.5t-60 -1.5t-73 -5.5v25q43 1 61 9q20 7 25 29q1 4 1.5 10.5t0.5 17.5v620q0 36 -7 49q-11 19 -42 21q-8 2 -17.5 2h-20.5v21q48 5 94 12.5t91 20.5v-324z" />
    <glyph glyph-name="sterling" unicode="&#xa3;" horiz-adv-x="1076" 
d="M29 1480q49 5 89.5 12.5t73.5 16.5q5 -29 7 -58l4 -58q8 18 17 33.5t21 29.5q21 26 47.5 37.5t57.5 11.5q52 0 81 -32q26 -26 26 -68q0 -26 -12 -41q-15 -18 -39 -18q-22 0 -36 11q-14 12 -14 30q0 19 4 26q1 1 1 10q0 15 -10 22q-11 8 -26 8q-54 0 -87 -74
q-19 -39 -19 -125v-257q0 -32 7 -42q13 -21 81 -24v-25q-42 4 -76.5 5.5t-60.5 1.5q-27 0 -61 -1.5t-77 -5.5v25q44 2 62 9q20 8 25 29q1 1 1 28v382v29t-1 17q-3 28 -37 32q-8 2 -20 2h-29v21zM1044 916q-51 -6 -91 -13.5t-71 -18.5q-6 25 -10.5 49t-6.5 49
q-51 -101 -152 -101q-100 0 -164 85q-65 86 -65 217q0 128 62 214q63 87 162 87q63 0 103 -37q12 -12 23.5 -26t21.5 -33v215q0 18 -2 30t-5 19q-10 19 -42 22q-8 2 -17.5 1.5t-20.5 -0.5v22q49 4 94.5 11.5t90.5 20.5v-708q0 -43 4 -50q7 -22 29 -28q9 -3 23 -4t34 -2v-21z
M717 1450q-129 0 -129 -266q0 -55 6 -100.5t20 -81.5q15 -40 44 -63t66 -23q49 0 83 40q50 59 50 218q0 276 -140 276z" />
    <glyph glyph-name="currency" unicode="&#xa4;" horiz-adv-x="1365" 
d="M127 400l187 191q-106 133 -106 293q0 151 107 291l-194 191l73 73l191 -191q141 108 298 108t294 -107l192 190l73 -73l-191 -190q107 -143 107 -294q0 -152 -105 -290l191 -192l-72 -73l-192 191q-136 -106 -294 -106q-149 0 -297 106l-190 -191zM678 1241
q-143 0 -248 -106q-103 -103 -103 -251q0 -149 104 -253t252 -104q147 0 251 105q104 104 104 251q0 151 -103 253q-107 105 -257 105z" />
    <glyph glyph-name="yen" unicode="&#xa5;" horiz-adv-x="1625" 
d="M371 1479l-19 -471l-1 -10q-3 -30 22 -39q15 -6 62 -9v-36q-68 6 -105 6q-19 0 -46 -1.5t-62 -3.5v35q24 2 39.5 3t23.5 5q19 9 20 51l22 473v8q0 33 -22 42q-7 2 -22 5t-40 5v34q26 -2 48 -3t41 -1q47 0 100 6l185 -480l188 480q61 -6 102 -6q17 0 38 1t47 3v-34
q-24 -2 -39.5 -5t-23.5 -5q-21 -9 -21 -41v-9l11 -473q0 -15 2 -24t4 -14q12 -18 78 -21v-36q-42 5 -74.5 6.5t-58.5 1.5t-58 -1.5t-74 -6.5v36q37 0 63 8q17 8 20 24v26l-8 472l-167 -430q-10 -24 -17.5 -45.5t-14.5 -39.5l-10 -28h-23q-11 28 -19.5 50t-14.5 39l-10 28z
M1552 1146q-3 -83 -35 -136q-32 -54 -90 -84q-50 -24 -108 -24q-63 0 -114.5 26t-87.5 74q-68 92 -68 236q0 140 60 236q34 55 93 85q27 14 57 20.5t64 6.5q99 0 166 -67l32 67h20v-214h-28q-14 65 -38 101q-48 74 -136 74q-95 0 -136 -89q-38 -85 -38 -208q0 -127 36 -200
q43 -87 141 -87q48 0 86 21t61 59q25 40 28 103h35z" />
    <glyph glyph-name="brokenbar" unicode="&#xa6;" 
d="M463 1535h97v-679h-97v679zM463 484h97v-655h-97v655z" />
    <glyph glyph-name="section" unicode="&#xa7;" horiz-adv-x="6562" 
d="M6264 1125q-51 0 -96 -68t-91 -215q-22 -71 -39.5 -139t-29.5 -129.5t-18.5 -114.5t-6.5 -94q0 -138 80 -138q24 0 45 13t41.5 42t41.5 74.5t44 110.5q24 67 43.5 139.5t34 142.5t22 133.5t7.5 112.5q0 63 -20.5 96.5t-57.5 33.5zM6274 1182q61 0 111 -23t84.5 -66
t53.5 -104.5t19 -138.5q0 -62 -9.5 -126t-28 -126t-44.5 -119t-59 -104q-72 -103 -160 -154t-188 -51q-64 0 -114 23t-85 66t-53.5 105t-18.5 140q0 66 11.5 135t32.5 135t51.5 126t68.5 108q66 85 150 129.5t178 44.5zM4746 1125q76 9 150 24t147 35q2 -17 3 -30t1 -21
q0 -20 -1.5 -38.5t-4.5 -41.5q100 129 243 129q41 0 74.5 -13t57 -36t36.5 -55.5t13 -71.5q0 -38 -7.5 -84t-23.5 -109l-70 -282q-15 -59 -23 -93t-12 -53.5t-5 -30t-1 -22.5q0 -23 9 -36t24 -13q13 0 23.5 7t20.5 23t20 42.5t22 64.5l53 -16q-51 -234 -217 -234
q-37 0 -68.5 13t-54.5 36t-36 54.5t-13 68.5q0 31 7.5 70.5t21.5 99.5l88 361q7 28 11.5 58.5t4.5 53.5q0 38 -16.5 63t-42.5 25q-56 0 -94.5 -55.5t-69.5 -177.5l-162 -647h-225l182 731l6 28l7 31q6 28 6 45q0 25 -20.5 33t-78.5 10zM3779 164q-94 0 -146.5 -44.5
t-52.5 -125.5q0 -75 62 -114.5t180 -39.5q103 0 161 52.5t58 146.5q0 34 -14 57.5t-45.5 38.5t-81.5 22t-121 7zM4061 1125q-37 0 -66 -38t-57 -124q-14 -40 -25.5 -81.5t-19.5 -80t-13 -70.5t-5 -53q0 -42 16.5 -67t44.5 -25q35 0 66 44.5t61 141.5q12 38 22 76.5
t16.5 73.5t10.5 64.5t4 49.5q0 89 -55 89zM4428 1125l-27 -103h-121q10 -23 13.5 -45t3.5 -53q0 -85 -28.5 -162.5t-76.5 -128.5q-24 -26 -49 -44t-55.5 -29t-68 -16t-85.5 -5q-75 -25 -109 -52.5t-34 -64.5q0 -17 20 -31q6 -4 12 -6.5t18 -5t35 -4.5t64 -6q85 -8 142 -23
t91 -41.5t48 -66t14 -97.5q0 -86 -29.5 -155t-83.5 -118t-131.5 -75t-173.5 -26q-74 0 -133.5 15.5t-100.5 44.5t-63 70.5t-22 94.5q0 169 178 227q-29 29 -42 56t-13 61q0 33 10 61.5t33 54.5t60 52t91 55q-63 42 -92.5 96t-29.5 130q0 75 28.5 150t79.5 132
q103 115 256 115q60 0 100 -15.5t78 -52.5zM3327 1596q24 0 45.5 -10t37 -27.5t24.5 -40.5t9 -49q0 -31 -11 -58t-30 -47.5t-43.5 -32.5t-52.5 -12q-26 0 -47.5 9.5t-37.5 27t-25 41t-9 51.5q0 30 11 57t30.5 47t44.5 32t54 12zM3163 449q-8 -28 -12.5 -47t-7.5 -32.5
t-4 -23.5t-1 -20q0 -43 25 -43q11 0 20.5 6t19.5 21t21.5 41.5t26.5 68.5l53 -18q-55 -232 -219 -232q-36 0 -66 13t-51 35.5t-33 54t-12 69.5q0 32 10.5 85t30.5 128l111 410q5 20 8.5 39.5t3.5 31.5t-4 19t-14.5 11t-29.5 5.5t-48 1.5l16 54q41 4 86.5 11t92 16.5t92 20.5
t87.5 23zM2638 883h-65q2 18 3 33.5t1 29.5q0 76 -35.5 121t-95.5 45q-29 0 -55.5 -11.5t-46.5 -31t-32 -46t-12 -56.5q0 -32 16 -57t56 -56q43 -33 70 -54t45 -35.5t30 -26t25 -25.5q34 -35 52 -79.5t18 -96.5q0 -78 -27.5 -145.5t-76.5 -117t-115 -78t-144 -28.5
q-43 0 -78.5 7.5t-67 24t-61.5 43.5t-61 66l51 230h59q-3 -37 -4.5 -55t-1.5 -35q0 -47 12 -85.5t33 -66t50.5 -42.5t64.5 -15q36 0 67.5 16t54.5 44.5t36.5 66.5t13.5 82q0 22 -4 39.5t-14 34t-27 33t-43 36.5q-67 52 -108.5 88.5t-64 67.5t-30.5 61.5t-8 69.5
q0 65 23.5 121t65 97t98 64t122.5 23q20 0 37 -2t34 -6.5t36 -11.5t43 -17q36 -16 55 -16q13 0 26.5 5.5t41.5 22.5zM1348 641q8 0 12 0.5t17 1.5q49 3 95.5 37t82.5 88.5t58 123t22 140.5q0 42 -13 67.5t-36 25.5q-28 0 -59.5 -36t-63 -100t-61.5 -153t-54 -195zM1747 498
q-127 -328 -385 -328q-59 0 -107 21t-82 60t-52.5 94.5t-18.5 123.5q0 67 12 138.5t34.5 140.5t54.5 132.5t71 114.5q142 187 330 187q100 0 157.5 -57t57.5 -156q0 -97 -56 -180t-165 -146q-62 -36 -124.5 -53t-143.5 -23q-11 -47 -16 -81.5t-5 -69.5q0 -75 31.5 -119.5
t85.5 -44.5q69 0 131.5 64t110.5 182h79zM500 1125q-54 3 -111 -99.5t-112 -314.5q-14 -53 -25.5 -104.5t-19.5 -98.5t-12.5 -88t-4.5 -72q0 -55 18.5 -88t49.5 -33q94 0 186 306q19 64 36.5 134t31 134.5t21.5 117.5t8 83q0 63 -16 92t-50 31zM693 510q-9 -36 -15 -61
t-9.5 -44t-5 -33t-1.5 -28q0 -25 10.5 -41t26.5 -16q23 0 45.5 30.5t50.5 96.5l51 -29q-24 -57 -48.5 -98t-51.5 -67t-58.5 -38t-70.5 -12q-130 0 -168 125q-37 -66 -82 -95.5t-106 -29.5q-56 0 -101 22.5t-77.5 63.5t-50 98t-17.5 127q0 64 11.5 132t33 134t52.5 128.5
t69 115.5q138 191 305 191q46 0 76.5 -18t52.5 -56l53 215q21 82 21 111q0 20 -14 28.5t-46 8.5h-35l15 53q38 3 82.5 9.5t90.5 16t92.5 21.5t88.5 25z" />
    <glyph glyph-name="dieresis" unicode="&#xa8;" 
d="M328 1548q44 0 76 -32t32 -77q0 -46 -32 -78t-77 -32q-46 0 -78 32q-32 33 -32 77q0 46 32 78q33 32 79 32zM701 1548q44 0 76 -32t32 -77q0 -46 -32 -78t-77 -32q-46 0 -78 32q-32 33 -32 77q0 46 32 78q33 32 79 32z" />
    <glyph glyph-name="copyright" unicode="&#xa9;" horiz-adv-x="937" 
d="M511 1561q92 0 173 -50q84 -51 125 -134q19 -38 27.5 -76t8.5 -78q0 -73 -25.5 -132.5t-73.5 -107.5t-107.5 -73.5t-132.5 -25.5t-132 25.5t-107 73.5t-73.5 107t-25.5 132q0 48 12.5 92t37.5 86q48 81 134 125q73 36 159 36zM503 1527q-63 0 -115 -22t-97 -67
q-89 -88 -89 -216q0 -126 89 -215q88 -90 215 -90q126 0 216 90q89 89 89 215q0 66 -22.5 119t-66.5 97q-49 48 -101 68.5t-118 20.5zM649 1163q-3 -49 -20 -80t-48.5 -48t-70.5 -17q-80 0 -123 58q-44 56 -44 147q0 89 45 146q43 57 124 57q56 0 95 -33l20 32h16v-120h-19
q-26 96 -105 96q-61 0 -88 -49q-27 -50 -27 -127q0 -76 25 -122q28 -52 89 -52q59 0 87 49q12 21 15 63h29z" />
    <glyph glyph-name="ordfeminine" unicode="&#xaa;" horiz-adv-x="714" 
d="M637 943q-48 -9 -79 -9q-45 0 -70 24q-23 19 -33 69q-59 -96 -169 -96q-81 0 -133 46q-54 46 -54 122q0 179 338 226v69q0 60 -18 86q-25 34 -82 34q-49 0 -80 -25q-20 -17 -20 -43v-10q1 -8 1 -13.5v-7.5q0 -61 -60 -61q-49 0 -49 49q0 60 59 107q66 51 159 51
q118 0 174 -75q33 -44 33 -139v-257q0 -58 9 -83q7 -22 34 -22q14 0 40 6v-48zM437 1278q-40 -7 -73.5 -17t-61.5 -24q-84 -42 -84 -131q0 -52 28 -80q25 -27 72 -27q73 0 106 70q13 26 13 108v101zM74 823h589v-77h-589v77z" />
    <glyph glyph-name="guillemotleft" unicode="&#xab;" horiz-adv-x="817" 
d="M359 1137h60l-169 -478l169 -489h-60l-248 489zM637 1137h60l-169 -478l169 -489h-60l-248 489z" />
    <glyph glyph-name="logicalnot" unicode="&#xac;" 
d="M776 170v470h-701v76h875v-546h-174z" />
    <glyph glyph-name="sfthyphen" unicode="&#xad;" horiz-adv-x="526" 
d="M0 673v92h526v-92h-526z" />
    <glyph glyph-name="registered" unicode="&#xae;" horiz-adv-x="945" 
d="M511 1561q92 0 173 -50q84 -51 125 -134q19 -38 27.5 -76t8.5 -78q0 -73 -25.5 -132.5t-73.5 -107.5t-107.5 -73.5t-132.5 -25.5t-132 25.5t-107 73.5t-73.5 107t-25.5 132q0 48 12.5 92t37.5 86q48 81 134 125q73 36 159 36zM503 1527q-63 0 -115 -22t-97 -67
q-89 -88 -89 -216q0 -126 89 -215q88 -90 215 -90q126 0 216 90q89 89 89 215q0 66 -22.5 119t-66.5 97q-49 48 -101 68.5t-118 20.5zM451 1210v-130q0 -9 0.5 -14.5t1.5 -8.5q9 -10 48 -13v-20q-24 2 -44 3t-35 1q-16 0 -35.5 -1t-43.5 -3v20q31 3 37 6q10 4 12 14
q0 4 0.5 7.5t0.5 8.5v283q0 17 -3 22q-7 11 -47 13v21h166q58 0 86 -19q21 -14 34.5 -37t13.5 -49q0 -55 -54 -85q-7 -4 -16 -7.5t-20 -5.5l20 -14q6 -7 11.5 -15t10.5 -19l42 -92q10 -23 21 -28q4 -1 11 -2t18 -2v-20q-15 1 -26 1.5t-18 0.5t-17.5 -0.5t-24.5 -1.5l-18 37
l-47 104q-14 31 -32 40q-12 5 -34 5h-19zM451 1234h47q86 0 86 82q0 79 -83 79h-50v-161z" />
    <glyph glyph-name="macron" unicode="&#xaf;" 
d="M199 1407v103h625v-103h-625z" />
    <glyph glyph-name="degree" unicode="&#xb0;" 
d="M515 1561q118 0 200 -82q85 -84 85 -200q0 -117 -84 -199q-86 -83 -205 -83q-118 0 -204 83q-84 82 -84 199q0 119 84 199q89 83 208 83zM509 1470q-76 0 -135 -56q-57 -56 -57 -135t56 -135q58 -56 138 -56t139 57q56 56 56 134q0 79 -57 135q-59 56 -140 56z" />
    <glyph glyph-name="plusminus" unicode="&#xb1;" horiz-adv-x="1071" 
d="M110 800v121h363v358h126v-358h363v-121h-363v-344h-126v344h-363zM110 223v122h852v-122h-852z" />
    <glyph glyph-name="twosuperior" unicode="&#xb2;" horiz-adv-x="698" 
d="M593 801l-14 -98h-487v77q72 81 127 145.5t97 118.5q38 51 66.5 91.5t45.5 71.5q33 58 33 108q0 51 -34 85q-38 36 -97 36q-141 0 -168 -168h-55q12 116 51 166q66 82 197 82q92 0 154 -45q75 -56 75 -143q0 -68 -53 -151q-25 -38 -100 -129t-208 -234l-12 -13h382z" />
    <glyph glyph-name="threesuperior" unicode="&#xb3;" horiz-adv-x="698" 
d="M137 941q6 -61 21 -94q37 -79 147 -79q83 0 131 50q44 47 44 119q0 111 -91 151q-36 16 -114 16h-21v56h21q71 0 115 29q58 40 58 120q0 59 -33 94q-35 38 -99 38q-131 0 -162 -148h-52q22 223 239 223q111 0 172 -61q54 -56 54 -135q0 -123 -137 -179q172 -49 172 -206
q0 -104 -78 -174q-77 -68 -194 -68q-241 0 -249 248h56z" />
    <glyph glyph-name="acute" unicode="&#xb4;" 
d="M443 1299l201 301h227l-337 -301h-91z" />
    <glyph glyph-name="mu" unicode="&#xb5;" horiz-adv-x="900" 
d="M917 244l-153 -94l-7.5 -1.5t-1.5 -0.5q-18 0 -40.5 15t-32.5 34q-8 16 -15 47.5t-14 79.5q-46 -46 -80 -75.5t-57 -45.5q-46 -31 -93 -47t-95 -16q-168 0 -224 182v-62q0 -45 1.5 -84.5t6.5 -74.5l15 -120q4 -32 6 -57.5t2 -42.5q0 -42 -20 -69.5t-49 -27.5
q-39 0 -59 41q-12 22 -12 47q0 22 4 52.5t10 72.5q29 203 42.5 387t13.5 366v357h129v-587q0 -62 4.5 -106.5t15.5 -73.5q39 -109 169 -109q96 0 177 66q19 16 40.5 42t46.5 61v707h128v-701q0 -92 13 -117q18 -38 66 -38q27 0 63 24v-31z" />
    <glyph glyph-name="paragraph" unicode="&#xb6;" horiz-adv-x="1071" 
d="M1006 -114q-94 8 -186.5 12t-189.5 4q-94 0 -187.5 -4t-187.5 -12v50q42 3 71.5 7.5t47.5 12.5q39 17 47 59q3 16 3 57v766q-328 46 -328 361q0 206 152 287q91 49 298 49h460v-50q-42 -2 -71.5 -7t-47.5 -13q-39 -17 -47 -59q-3 -17 -3 -57v-1277q0 -63 12 -85
q17 -33 85 -44q14 -2 31.5 -3.5t40.5 -3.5v-50zM727 1333q0 75 -11 104q-12 34 -82 34q-68 0 -87 -33q-13 -22 -13 -104v-1234q0 -78 14 -104q19 -34 86 -34q70 0 82 34q11 30 11 105v1232z" />
    <glyph glyph-name="periodcentered" unicode="&#xb7;" horiz-adv-x="470" 
d="M237 787q47 0 81 -34t34 -82q0 -49 -34 -83t-82 -34q-49 0 -83 34t-34 83q0 48 34 82t84 34z" />
    <glyph glyph-name="cedilla" unicode="&#xb8;" 
d="M499 170h88l-63 -120q74 -8 107 -27q66 -38 66 -112q0 -72 -57 -114q-53 -38 -130 -38q-72 0 -154 33v61q48 -19 106 -19q42 0 68 18q35 26 35 70q0 55 -58 74q-17 6 -40.5 9t-54.5 5z" />
    <glyph glyph-name="onesuperior" unicode="&#xb9;" horiz-adv-x="698" 
d="M417 1543v-726q0 -36 7 -46q16 -22 98 -27v-44q-86 9 -164 9q-79 0 -164 -9v44q29 2 48.5 4.5t29.5 6.5q22 10 25 31q1 5 1.5 12.5t0.5 18.5v548h-143v42q88 7 140 40t75 96h46z" />
    <glyph glyph-name="ordmasculine" unicode="&#xba;" horiz-adv-x="714" 
d="M366 1561q116 0 184 -93q66 -90 66 -220q0 -133 -69 -223q-70 -94 -190 -94q-118 0 -191 94q-67 85 -67 219q0 139 73 227q73 90 194 90zM358 1515q-78 0 -108 -83q-29 -82 -29 -187q0 -268 135 -268q138 0 138 267q0 271 -136 271zM63 823h589v-77h-589v77z" />
    <glyph glyph-name="guillemotright" unicode="&#xbb;" horiz-adv-x="816" 
d="M457 1137l248 -478l-248 -489h-60l169 489l-169 478h60zM179 1137l248 -478l-248 -489h-60l169 489l-169 478h60z" />
    <glyph glyph-name="onequarter" unicode="&#xbc;" horiz-adv-x="1497" 
d="M417 1543v-726q0 -37 7 -47q16 -22 97 -27v-42q-42 4 -82.5 6t-80.5 2q-39 0 -79.5 -2t-83.5 -6v42q22 2 41.5 4.5t36.5 6.5q22 10 25 31q1 5 1.5 13t0.5 19v549h-143v41q173 14 214 136h46zM314 170l783 1336h86l-783 -1336h-86zM1192 152v227h-348l352 614h115v-523
h141v-91h-141v-227h-119zM1194 470v420l-236 -420h236z" />
    <glyph glyph-name="onehalf" unicode="&#xbd;" horiz-adv-x="1497" 
d="M417 1543v-726q0 -37 7 -47q16 -22 97 -27v-42q-42 4 -82.5 6t-79.5 2q-40 0 -80.5 -2t-83.5 -6v42q22 2 41.5 4.5t36.5 6.5q22 10 25 31q1 5 1.5 13t0.5 19v549h-143v41q172 13 214 136h46zM314 170l783 1336h86l-783 -1336h-86zM1391 268l-14 -98h-487v77
q73 81 129.5 147t95.5 117q38 51 66.5 91.5t45.5 71.5q33 60 33 107q0 51 -35 86q-36 36 -97 36q-141 0 -168 -169h-55q12 117 51 166q66 83 198 83q92 0 153 -46q75 -56 75 -143q0 -83 -78 -186q-36 -48 -109.5 -130.5t-185.5 -209.5h382z" />
    <glyph glyph-name="threequarters" unicode="&#xbe;" horiz-adv-x="1497" 
d="M137 940q5 -60 21 -94q37 -79 147 -79q84 0 132 50q44 47 44 120q0 167 -202 167h-24v55h26q67 0 107 28q61 42 61 123q0 59 -33 94q-35 38 -99 38q-132 0 -163 -148h-51q22 222 239 222q103 0 164 -55t61 -141q0 -85 -63 -137q-13 -11 -31.5 -21.5t-43.5 -21.5
q28 -8 49.5 -18t38.5 -21q85 -55 85 -166q0 -104 -78 -174q-77 -68 -193 -68q-242 0 -249 247h55zM314 170l783 1336h86l-783 -1336h-86zM1192 152v227h-348l352 614h115v-523h141v-91h-141v-227h-119zM1194 470v420l-236 -420h236z" />
    <glyph glyph-name="questiondown" unicode="&#xbf;" horiz-adv-x="784" 
d="M498 745q4 -30 6 -57t2 -50q0 -109 -41 -183q-29 -51 -72 -96l-60 -61q-117 -120 -117 -218q0 -97 71 -147q47 -32 114 -32q119 0 190 84q48 57 58 158h56q0 -97 -32 -176q-20 -48 -56 -83t-87 -61q-79 -40 -178 -40q-111 0 -187 55q-117 82 -117 240q0 93 48 168
q38 59 145 144q40 32 67.5 57t43.5 47q62 83 62 207q0 15 -3 44h87zM438 1156q49 0 85 -36q35 -35 35 -85t-35 -86q-35 -35 -86 -35t-86 35q-35 36 -35 86t35 85q37 36 87 36z" />
    <glyph glyph-name="Agrave" unicode="&#xc0;" horiz-adv-x="1316" 
d="M844 565h-476l-68 -192q-12 -35 -18.5 -58.5t-6.5 -37.5q0 -42 55 -55q14 -3 34 -5t46 -3v-50q-60 5 -108 8t-87 3t-87 -3t-108 -8v50q91 6 125 28q38 26 72 116l467 1221l421 -1244q29 -83 80 -102q18 -7 45.5 -12t64.5 -7v-50q-141 15 -249 15q-109 0 -250 -15v50
q29 2 50 5.5t35 7.5q46 13 46 48q0 30 -13 69zM392 629h432l-199 627zM800 1653h-103l-403 281h248z" />
    <glyph glyph-name="Aacute" unicode="&#xc1;" horiz-adv-x="1316" 
d="M844 565h-476l-68 -192q-12 -35 -18.5 -58.5t-6.5 -37.5q0 -42 55 -55q14 -3 34 -5t46 -3v-50q-60 5 -108 8t-87 3t-87 -3t-108 -8v50q91 6 125 28q38 26 72 116l467 1221l421 -1244q29 -83 80 -102q18 -7 45.5 -12t64.5 -7v-50q-141 15 -249 15q-109 0 -250 -15v50
q29 2 50 5.5t35 7.5q46 13 46 48q0 30 -13 69zM392 629h432l-199 627zM570 1653l258 281h248l-403 -281h-103z" />
    <glyph glyph-name="Acircumflex" unicode="&#xc2;" horiz-adv-x="1316" 
d="M844 565h-476l-68 -192q-12 -35 -18.5 -58.5t-6.5 -37.5q0 -42 55 -55q14 -3 34 -5t46 -3v-50q-60 5 -108 8t-87 3t-87 -3t-108 -8v50q91 6 125 28q38 26 72 116l467 1221l421 -1244q29 -83 80 -102q18 -7 45.5 -12t64.5 -7v-50q-141 15 -249 15q-109 0 -250 -15v50
q29 2 50 5.5t35 7.5q46 13 46 48q0 30 -13 69zM392 629h432l-199 627zM334 1655l290 277h116l290 -277h-101l-247 171l-246 -171h-102z" />
    <glyph glyph-name="Atilde" unicode="&#xc3;" horiz-adv-x="1316" 
d="M844 565h-476l-68 -192q-12 -35 -18.5 -58.5t-6.5 -37.5q0 -42 55 -55q14 -3 34 -5t46 -3v-50q-60 5 -108 8t-87 3t-87 -3t-108 -8v50q91 6 125 28q38 26 72 116l467 1221l421 -1244q29 -83 80 -102q18 -7 45.5 -12t64.5 -7v-50q-141 15 -249 15q-109 0 -250 -15v50
q29 2 50 5.5t35 7.5q46 13 46 48q0 30 -13 69zM392 629h432l-199 627zM350 1707q28 106 69 147q54 55 132 55q53 0 97 -24q12 -7 36 -22t59 -40q48 -33 94 -33q63 0 95 45q15 21 29 62l59 -13q-18 -103 -69 -152q-58 -58 -134 -58q-44 0 -84 18q-16 7 -39 21.5t-54 36.5
q-58 43 -106 43q-82 0 -124 -101z" />
    <glyph glyph-name="Adieresis" unicode="&#xc4;" horiz-adv-x="1316" 
d="M844 565h-476l-68 -192q-12 -35 -18.5 -58.5t-6.5 -37.5q0 -42 55 -55q14 -3 34 -5t46 -3v-50q-60 5 -108 8t-87 3t-87 -3t-108 -8v50q91 6 125 28q38 26 72 116l467 1221l421 -1244q29 -83 80 -102q18 -7 45.5 -12t64.5 -7v-50q-141 15 -249 15q-109 0 -250 -15v50
q29 2 50 5.5t35 7.5q46 13 46 48q0 30 -13 69zM392 629h432l-199 627zM502 1909q46 0 80 -34t34 -82t-34 -82t-82 -34t-82 34t-34 82q0 49 34 82q34 34 84 34zM867 1909q46 0 80 -34t34 -82t-34 -82t-82 -34t-82 34t-34 82q0 49 34 82q34 34 84 34z" />
    <glyph glyph-name="Aring" unicode="&#xc5;" horiz-adv-x="1316" 
d="M844 565h-476l-68 -192q-12 -35 -18.5 -58.5t-6.5 -37.5q0 -42 55 -55q14 -3 34 -5t46 -3v-50q-60 5 -108 8t-87 3t-87 -3t-108 -8v50q91 6 125 28q38 26 72 116l467 1221l421 -1244q29 -83 80 -102q18 -7 45.5 -12t64.5 -7v-50q-141 15 -249 15q-109 0 -250 -15v50
q29 2 50 5.5t35 7.5q46 13 46 48q0 30 -13 69zM392 629h432l-199 627zM688 1969q68 0 119 -50q50 -50 50 -121t-50 -121t-121 -50t-122 50q-50 50 -50 121t50 121q52 50 124 50zM684 1897q-40 0 -69 -29t-29 -70t29 -70t71 -29q41 0 70 29t29 70t-29 70q-30 29 -72 29z" />
    <glyph glyph-name="AE" unicode="&#xc6;" horiz-adv-x="1834" 
d="M1687 1535l36 -307h-46q-28 112 -62 164q-15 23 -34 38t-42 26q-19 9 -45 12.5t-60 3.5h-296v-561h293q55 0 77 19q38 32 44 150h50v-402h-50q-4 98 -29 132q-26 38 -103 38h-282v-494q0 -25 1.5 -43t6.5 -30q16 -48 129 -48h145q94 0 140 25q42 22 78 83.5t60 158.5h47
l-47 -330h-903v50q42 3 71.5 7.5t47.5 12.5q39 17 47 59q3 16 3 57v276h-483l-171 -305q-22 -38 -22 -60q0 -37 52 -46q15 -2 37.5 -4t51.5 -3v-50q-76 5 -127 7.5t-77 2.5q-27 0 -78 -2.5t-127 -7.5v50q43 3 75 10t52 19q47 28 100 119l677 1173h763zM518 696h446v779z" />
    <glyph glyph-name="Ccedilla" unicode="&#xc7;" horiz-adv-x="1229" 
d="M629 51q71 -6 111 -26q69 -33 69 -121q0 -73 -58 -119q-53 -42 -131 -42q-53 0 -163 32v68q67 -18 107 -18q44 0 72 19q38 26 38 72q0 57 -59 77q-16 5 -41.5 8.5t-60.5 4.5l75 142q-161 20 -275 125q-99 90 -161 265q-46 126 -46 312q0 159 35 283.5t110 227.5
q38 52 85 91t105 65q98 44 214 44q189 0 320 -123l72 119h37v-403h-47q-84 340 -358 340q-204 0 -297 -182q-91 -175 -91 -456q0 -252 83 -430q90 -191 302 -191q133 0 228 86q109 100 123 309h74q-6 -246 -152 -377q-112 -99 -271 -108z" />
    <glyph glyph-name="Egrave" unicode="&#xc8;" horiz-adv-x="1113" 
d="M1015 500l-47 -330h-903v50q81 6 119 20q41 17 47 59q3 16 3 57v993q0 32 -2.5 53t-9.5 32q-26 44 -157 51v50h892l36 -307h-46q-36 136 -83 189q-49 55 -160 55h-296v-561h293q56 0 77 18q38 35 44 151h50v-402h-50q-3 93 -29 131q-27 39 -103 39h-282v-494
q0 -28 2.5 -46t6.5 -26q24 -49 128 -49h145q118 0 170 46q71 62 108 221h47zM723 1653h-103l-403 281h248z" />
    <glyph glyph-name="Eacute" unicode="&#xc9;" horiz-adv-x="1113" 
d="M1015 500l-47 -330h-903v50q81 6 119 20q41 17 47 59q3 16 3 57v993q0 32 -2.5 53t-9.5 32q-26 44 -157 51v50h892l36 -307h-46q-36 136 -83 189q-49 55 -160 55h-296v-561h293q56 0 77 18q38 35 44 151h50v-402h-50q-3 93 -29 131q-27 39 -103 39h-282v-494
q0 -28 2.5 -46t6.5 -26q24 -49 128 -49h145q118 0 170 46q71 62 108 221h47zM444 1653l258 281h248l-403 -281h-103z" />
    <glyph glyph-name="Ecircumflex" unicode="&#xca;" horiz-adv-x="1113" 
d="M1015 500l-47 -330h-903v50q81 6 119 20q41 17 47 59q3 16 3 57v993q0 32 -2.5 53t-9.5 32q-26 44 -157 51v50h892l36 -307h-46q-36 136 -83 189q-49 55 -160 55h-296v-561h293q56 0 77 18q38 35 44 151h50v-402h-50q-3 93 -29 131q-27 39 -103 39h-282v-494
q0 -28 2.5 -46t6.5 -26q24 -49 128 -49h145q118 0 170 46q71 62 108 221h47zM212 1655l290 277h116l290 -277h-101l-247 171l-246 -171h-102z" />
    <glyph glyph-name="Edieresis" unicode="&#xcb;" horiz-adv-x="1113" 
d="M1015 500l-47 -330h-903v50q81 6 119 20q41 17 47 59q3 16 3 57v993q0 32 -2.5 53t-9.5 32q-26 44 -157 51v50h892l36 -307h-46q-36 136 -83 189q-49 55 -160 55h-296v-561h293q56 0 77 18q38 35 44 151h50v-402h-50q-3 93 -29 131q-27 39 -103 39h-282v-494
q0 -28 2.5 -46t6.5 -26q24 -49 128 -49h145q118 0 170 46q71 62 108 221h47zM386 1909q46 0 80 -34t34 -82t-34 -82t-82 -34t-82 34t-34 82q0 49 34 82q34 34 84 34zM751 1909q46 0 80 -34t34 -82t-34 -82t-82 -34t-82 34t-34 82q0 49 34 82q34 34 84 34z" />
    <glyph glyph-name="Igrave" unicode="&#xcc;" horiz-adv-x="642" 
d="M234 1355q0 62 -12 85q-17 33 -85 44q-14 2 -31.5 3.5t-40.5 3.5v50q156 -15 256 -15t256 15v-50q-42 -3 -71.5 -7.5t-47.5 -12.5q-39 -17 -47 -59q-3 -17 -3 -57v-1005q0 -64 12 -85q9 -17 30 -29t55 -15l72 -7v-50q-164 15 -256 15q-93 0 -256 -15v50q45 4 74 8t45 12
q41 20 47 59q3 16 3 57v1005zM436 1653h-103l-369 281h241z" />
    <glyph glyph-name="Iacute" unicode="&#xcd;" horiz-adv-x="642" 
d="M234 1355q0 62 -12 85q-17 33 -85 44q-14 2 -31.5 3.5t-40.5 3.5v50q156 -15 256 -15t256 15v-50q-42 -3 -71.5 -7.5t-47.5 -12.5q-39 -17 -47 -59q-3 -17 -3 -57v-1005q0 -64 12 -85q9 -17 30 -29t55 -15l72 -7v-50q-164 15 -256 15q-93 0 -256 -15v50q45 4 74 8t45 12
q41 20 47 59q3 16 3 57v1005zM212 1653l230 281h241l-369 -281h-102z" />
    <glyph glyph-name="Icircumflex" unicode="&#xce;" horiz-adv-x="642" 
d="M234 1355q0 62 -12 85q-17 33 -85 44q-14 2 -31.5 3.5t-40.5 3.5v50q156 -15 256 -15t256 15v-50q-42 -3 -71.5 -7.5t-47.5 -12.5q-39 -17 -47 -59q-3 -17 -3 -57v-1005q0 -64 12 -85q9 -17 30 -29t55 -15l72 -7v-50q-164 15 -256 15q-93 0 -256 -15v50q45 4 74 8t45 12
q41 20 47 59q3 16 3 57v1005zM0 1655l263 277h116l263 -277h-102l-219 171l-219 -171h-102z" />
    <glyph glyph-name="Idieresis" unicode="&#xcf;" horiz-adv-x="642" 
d="M235 1355q0 62 -12 85q-17 33 -85 44q-14 2 -31.5 3.5t-40.5 3.5v50q156 -15 256 -15t256 15v-50q-42 -3 -71.5 -7.5t-47.5 -12.5q-39 -17 -47 -59q-3 -17 -3 -57v-1005q0 -64 12 -85q9 -17 30 -29t55 -15l72 -7v-50q-164 15 -256 15q-93 0 -256 -15v50q45 4 74 8t45 12
q41 20 47 59q3 16 3 57v1005zM174 1908q46 0 80 -34q33 -33 33 -80q0 -48 -33 -81q-34 -34 -82 -34q-46 0 -80 34t-34 80q0 48 34 81q34 34 82 34zM500 1908q45 0 79 -34q34 -33 34 -80t-34 -81t-81 -34q-46 0 -80 34t-34 80q0 48 34 81q34 34 82 34z" />
    <glyph glyph-name="Eth" unicode="&#xd0;" horiz-adv-x="1301" 
d="M226 850h-169v75h169v424q0 32 -2.5 53t-9.5 32q-26 44 -157 51v50h502q185 0 293 -48q169 -77 267 -270q84 -167 84 -364q0 -229 -109 -410q-58 -97 -137 -157.5t-179 -89.5q-49 -14 -104 -20t-116 -6h-501v50q81 6 119 20q41 17 47 59q3 16 3 57v494zM400 1472v-547
h312v-75h-312v-514q0 -46 8 -68q12 -30 64 -36q21 -3 64 -3q225 0 335 116q150 160 150 511q0 324 -134 488q-104 128 -324 128h-163z" />
    <glyph glyph-name="Ntilde" unicode="&#xd1;" horiz-adv-x="1377" 
d="M1149 129h-30q-45 69 -85 131t-78 119l-50 76l-604 908v-1013q0 -66 11 -86q30 -42 158 -50v-50q-73 5 -124.5 7.5t-82.5 2.5q-32 0 -82 -2.5t-117 -7.5v50q84 6 119 20q41 17 47 59q1 8 2 22.5t1 34.5v1081q-34 36 -74 46q-20 6 -44 9t-53 5v50q46 -4 89 -5.5t83 -1.5
q38 0 75.5 1.5t74.5 5.5l695 -1037v851q0 66 -11 86q-26 42 -158 50v50q70 -5 121.5 -7.5t86.5 -2.5t85 2.5t114 7.5v-50q-42 -2 -72 -7t-47 -13q-41 -18 -47 -59q-1 -8 -2 -22t-1 -35v-1226zM355 1707q28 106 69 147q54 55 132 55q53 0 97 -24q12 -7 36 -22t59 -40
q48 -33 94 -33q63 0 95 45q15 21 29 62l59 -13q-18 -103 -69 -152q-58 -58 -134 -58q-44 0 -84 18q-16 7 -39 21.5t-54 36.5q-58 43 -106 43q-82 0 -124 -101z" />
    <glyph glyph-name="Ograve" unicode="&#xd2;" horiz-adv-x="1295" 
d="M655 1561q177 0 317 -114q126 -103 184 -295q21 -69 31 -143t10 -156q0 -290 -127 -486q-70 -109 -190 -171q-103 -52 -229 -52q-185 0 -321 109q-66 52 -112.5 127.5t-79.5 178.5q-40 121 -40 294q0 290 125 481q149 227 432 227zM644 1504q-135 0 -230 -119
q-131 -164 -131 -526q0 -133 18.5 -238t53.5 -196q20 -51 48.5 -91t66.5 -71q77 -62 182 -62q145 0 236 121q71 96 103 275q21 118 21 259q0 258 -69 428q-91 220 -299 220zM789 1653h-103l-403 281h248z" />
    <glyph glyph-name="Oacute" unicode="&#xd3;" horiz-adv-x="1295" 
d="M655 1561q177 0 317 -114q126 -103 184 -295q21 -69 31 -143t10 -156q0 -290 -127 -486q-70 -109 -190 -171q-103 -52 -229 -52q-185 0 -321 109q-66 52 -112.5 127.5t-79.5 178.5q-40 121 -40 294q0 290 125 481q149 227 432 227zM644 1504q-135 0 -230 -119
q-131 -164 -131 -526q0 -133 18.5 -238t53.5 -196q20 -51 48.5 -91t66.5 -71q77 -62 182 -62q145 0 236 121q71 96 103 275q21 118 21 259q0 258 -69 428q-91 220 -299 220zM525 1653l258 281h248l-403 -281h-103z" />
    <glyph glyph-name="Ocircumflex" unicode="&#xd4;" horiz-adv-x="1295" 
d="M655 1561q177 0 317 -114q126 -103 184 -295q21 -69 31 -143t10 -156q0 -290 -127 -486q-70 -109 -190 -171q-103 -52 -229 -52q-185 0 -321 109q-66 52 -112.5 127.5t-79.5 178.5q-40 121 -40 294q0 290 125 481q149 227 432 227zM644 1504q-135 0 -230 -119
q-131 -164 -131 -526q0 -133 18.5 -238t53.5 -196q20 -51 48.5 -91t66.5 -71q77 -62 182 -62q145 0 236 121q71 96 103 275q21 118 21 259q0 258 -69 428q-91 220 -299 220zM299 1655l290 277h116l290 -277h-101l-247 171l-246 -171h-102z" />
    <glyph glyph-name="Otilde" unicode="&#xd5;" horiz-adv-x="1295" 
d="M655 1561q177 0 317 -114q126 -103 184 -295q21 -69 31 -143t10 -156q0 -290 -127 -486q-70 -109 -190 -171q-103 -52 -229 -52q-185 0 -321 109q-66 52 -112.5 127.5t-79.5 178.5q-40 121 -40 294q0 290 125 481q149 227 432 227zM644 1504q-135 0 -230 -119
q-131 -164 -131 -526q0 -133 18.5 -238t53.5 -196q20 -51 48.5 -91t66.5 -71q77 -62 182 -62q145 0 236 121q71 96 103 275q21 118 21 259q0 258 -69 428q-91 220 -299 220zM326 1707q28 106 69 147q54 55 132 55q53 0 97 -24q12 -7 36 -22t59 -40q48 -33 94 -33q63 0 95 45
q15 21 29 62l59 -13q-18 -103 -69 -152q-58 -58 -134 -58q-44 0 -84 18q-16 7 -39 21.5t-54 36.5q-58 43 -106 43q-82 0 -124 -101z" />
    <glyph glyph-name="Odieresis" unicode="&#xd6;" horiz-adv-x="1295" 
d="M655 1561q177 0 317 -114q126 -103 184 -295q21 -69 31 -143t10 -156q0 -290 -127 -486q-70 -109 -190 -171q-103 -52 -229 -52q-185 0 -321 109q-66 52 -112.5 127.5t-79.5 178.5q-40 121 -40 294q0 290 125 481q149 227 432 227zM644 1504q-135 0 -230 -119
q-131 -164 -131 -526q0 -133 18.5 -238t53.5 -196q20 -51 48.5 -91t66.5 -71q77 -62 182 -62q145 0 236 121q71 96 103 275q21 118 21 259q0 258 -69 428q-91 220 -299 220zM467 1909q46 0 80 -34t34 -82t-34 -82t-82 -34t-82 34t-34 82q0 49 34 82q34 34 84 34zM832 1909
q46 0 80 -34t34 -82t-34 -82t-82 -34t-82 34t-34 82q0 49 34 82q34 34 84 34z" />
    <glyph glyph-name="multiply" unicode="&#xd7;" horiz-adv-x="1071" 
d="M151 1157l88 88l299 -298l295 295l84 -83l-296 -296l299 -298l-89 -89l-298 299l-295 -296l-84 84l296 295z" />
    <glyph glyph-name="Oslash" unicode="&#xd8;" horiz-adv-x="1295" 
d="M1159 1535h93l-169 -209q113 -185 113 -457q0 -306 -140 -512q-70 -103 -169 -158t-238 -55q-239 0 -392 172l-119 -146h-94l169 206q-116 194 -116 463q0 306 137 506q38 57 85 97t101 66q111 53 228 53q237 0 390 -174zM951 1290q-99 213 -295 213q-138 0 -235 -112
q-81 -93 -119 -273q-14 -69 -21.5 -142t-7.5 -154q0 -149 44 -327zM346 415q45 -106 120.5 -159.5t175.5 -53.5q144 0 236 114q38 48 66 114.5t47 157.5q14 72 21.5 146.5t7.5 155.5q0 156 -41 320z" />
    <glyph glyph-name="Ugrave" unicode="&#xd9;" horiz-adv-x="1361" 
d="M1138 606q0 -128 -24 -197q-47 -134 -170 -202q-110 -60 -264 -60q-233 0 -360 139q-69 75 -87 171q-5 28 -7.5 61.5t-2.5 71.5v765q0 62 -12 85q-17 33 -85 44q-14 2 -31.5 3.5t-40.5 3.5v50q156 -15 256 -15t256 15v-50q-42 -3 -71.5 -7.5t-47.5 -12.5q-39 -17 -47 -59
q-3 -17 -3 -57v-782q0 -122 24 -177q38 -90 131 -126q82 -32 168 -32q103 0 182 35.5t119 99.5q48 76 48 223v759q0 62 -12 85q-17 33 -85 44q-14 2 -31.5 3.5t-40.5 3.5v50q70 -5 122 -7.5t86 -2.5q35 0 84 2.5t115 7.5v-50q-81 -6 -119 -20q-41 -17 -47 -59q-3 -15 -3 -57
v-749zM874 1653h-103l-403 281h248z" />
    <glyph glyph-name="Uacute" unicode="&#xda;" horiz-adv-x="1361" 
d="M1138 606q0 -128 -24 -197q-47 -134 -170 -202q-110 -60 -264 -60q-233 0 -360 139q-69 75 -87 171q-5 28 -7.5 61.5t-2.5 71.5v765q0 62 -12 85q-17 33 -85 44q-14 2 -31.5 3.5t-40.5 3.5v50q156 -15 256 -15t256 15v-50q-42 -3 -71.5 -7.5t-47.5 -12.5q-39 -17 -47 -59
q-3 -17 -3 -57v-782q0 -122 24 -177q38 -90 131 -126q82 -32 168 -32q103 0 182 35.5t119 99.5q48 76 48 223v759q0 62 -12 85q-17 33 -85 44q-14 2 -31.5 3.5t-40.5 3.5v50q70 -5 122 -7.5t86 -2.5q35 0 84 2.5t115 7.5v-50q-81 -6 -119 -20q-41 -17 -47 -59q-3 -15 -3 -57
v-749zM602 1653l258 281h248l-403 -281h-103z" />
    <glyph glyph-name="Ucircumflex" unicode="&#xdb;" horiz-adv-x="1361" 
d="M1138 606q0 -128 -24 -197q-47 -134 -170 -202q-110 -60 -264 -60q-233 0 -360 139q-69 75 -87 171q-5 28 -7.5 61.5t-2.5 71.5v765q0 62 -12 85q-17 33 -85 44q-14 2 -31.5 3.5t-40.5 3.5v50q156 -15 256 -15t256 15v-50q-42 -3 -71.5 -7.5t-47.5 -12.5q-39 -17 -47 -59
q-3 -17 -3 -57v-782q0 -122 24 -177q38 -90 131 -126q82 -32 168 -32q103 0 182 35.5t119 99.5q48 76 48 223v759q0 62 -12 85q-17 33 -85 44q-14 2 -31.5 3.5t-40.5 3.5v50q70 -5 122 -7.5t86 -2.5q35 0 84 2.5t115 7.5v-50q-81 -6 -119 -20q-41 -17 -47 -59q-3 -15 -3 -57
v-749zM383 1655l290 277h116l290 -277h-101l-247 171l-246 -171h-102z" />
    <glyph glyph-name="Udieresis" unicode="&#xdc;" horiz-adv-x="1361" 
d="M1138 606q0 -128 -24 -197q-47 -134 -170 -202q-110 -60 -264 -60q-233 0 -360 139q-69 75 -87 171q-5 28 -7.5 61.5t-2.5 71.5v765q0 62 -12 85q-17 33 -85 44q-14 2 -31.5 3.5t-40.5 3.5v50q156 -15 256 -15t256 15v-50q-42 -3 -71.5 -7.5t-47.5 -12.5q-39 -17 -47 -59
q-3 -17 -3 -57v-782q0 -122 24 -177q38 -90 131 -126q82 -32 168 -32q103 0 182 35.5t119 99.5q48 76 48 223v759q0 62 -12 85q-17 33 -85 44q-14 2 -31.5 3.5t-40.5 3.5v50q70 -5 122 -7.5t86 -2.5q35 0 84 2.5t115 7.5v-50q-81 -6 -119 -20q-41 -17 -47 -59q-3 -15 -3 -57
v-749zM551 1909q46 0 80 -34t34 -82t-34 -82t-82 -34t-82 34t-34 82q0 49 34 82q34 34 84 34zM916 1909q46 0 80 -34t34 -82t-34 -82t-82 -34t-82 34t-34 82q0 49 34 82q34 34 84 34z" />
    <glyph glyph-name="Yacute" unicode="&#xdd;" horiz-adv-x="1211" 
d="M523 765l-304 605q-38 73 -84 99q-31 16 -107 22v50q69 -7 132 -10.5t120 -3.5t119.5 3.5t131.5 10.5v-50q-51 -3 -85 -9q-58 -10 -58 -47q0 -20 21 -62l262 -520l261 523q20 42 20 60q0 37 -55 47q-15 2 -36 4t-48 4v50q57 -5 104 -7.5t85 -2.5t85 2.5t104 7.5v-50
q-71 -8 -104 -21q-47 -20 -82 -89l-308 -616v-415q0 -66 11 -86q30 -42 158 -50v-50q-164 15 -256 15q-94 0 -256 -15v50q84 6 119 20q41 17 47 59q1 8 2 22.5t1 34.5v415zM533 1653l258 281h248l-403 -281h-103z" />
    <glyph glyph-name="Thorn" unicode="&#xde;" horiz-adv-x="1116" 
d="M408 570v-220q0 -64 12 -85q9 -17 30 -29t55 -15l72 -7v-50q-164 15 -256 15q-93 0 -256 -15v50q45 4 74 8t45 12q41 20 47 59q3 16 3 57v1005q0 62 -12 85q-17 33 -85 44q-14 2 -31.5 3.5t-40.5 3.5v50q156 -15 256 -15t256 15v-50q-42 -3 -71.5 -7.5t-47.5 -12.5
q-39 -17 -47 -59q-3 -17 -3 -57v-36h197q54 0 97.5 -4t80 -13t67.5 -23t58 -33q69 -48 110 -131q40 -79 40 -174q0 -191 -150 -296q-107 -75 -282 -75h-218zM408 633h163q144 0 214 61q99 85 99 254q0 153 -77 236q-68 72 -223 72h-176v-623z" />
    <glyph glyph-name="germandbls" unicode="&#xdf;" horiz-adv-x="1054" 
d="M438 956q124 4 188 52q91 67 91 227q0 251 -175 251q-51 0 -94.5 -24.5t-63.5 -66.5q-29 -61 -29 -167v-1062q-43 4 -78 5.5t-63 1.5q-64 0 -170 -9v41q71 3 103 15q34 14 41 48q3 13 3 47v834q0 167 68 259q48 66 123 102t166 36q150 0 241 -91q90 -89 90 -224
q0 -136 -97 -221q-22 -19 -54 -38t-75 -38q320 -83 320 -396q0 -152 -83 -259q-96 -123 -239 -123q-89 0 -177 64v56q68 -35 117 -35q104 0 160 84q54 79 54 204q0 213 -153 308q-79 49 -214 54v65z" />
    <glyph glyph-name="agrave" unicode="&#xe0;" horiz-adv-x="955" 
d="M639 331q-41 -74 -79 -109q-73 -70 -196 -70q-122 0 -202 71q-83 75 -83 192q0 183 233 281q66 28 141 47t162 30v122q0 103 -31 146q-44 60 -138 60q-80 0 -135 -43q-35 -29 -35 -77v-18q0 -9 0.5 -16.5t0.5 -13.5q0 -91 -83 -91q-68 0 -68 69q0 94 90 165
q104 80 246 80q101 0 180 -43q97 -54 124 -155q6 -24 9.5 -59t3.5 -81v-418q0 -97 15 -140t65 -43q39 0 52 7v-54q-35 -7 -63.5 -10.5t-51.5 -3.5q-87 0 -126 63q-24 39 -31 112zM615 720q-72 -13 -128.5 -30t-101.5 -40q-140 -71 -140 -223q0 -90 48 -139q44 -47 122 -47
q126 0 178 121q22 51 22 180v178zM601 1299h-92l-336 301h227z" />
    <glyph glyph-name="aacute" unicode="&#xe1;" horiz-adv-x="955" 
d="M639 331q-41 -74 -79 -109q-73 -70 -196 -70q-122 0 -202 71q-83 75 -83 192q0 183 233 281q66 28 141 47t162 30v122q0 103 -31 146q-44 60 -138 60q-80 0 -135 -43q-35 -29 -35 -77v-18q0 -9 0.5 -16.5t0.5 -13.5q0 -91 -83 -91q-68 0 -68 69q0 94 90 165
q104 80 246 80q101 0 180 -43q97 -54 124 -155q6 -24 9.5 -59t3.5 -81v-418q0 -97 15 -140t65 -43q39 0 52 7v-54q-35 -7 -63.5 -10.5t-51.5 -3.5q-87 0 -126 63q-24 39 -31 112zM615 720q-72 -13 -128.5 -30t-101.5 -40q-140 -71 -140 -223q0 -90 48 -139q44 -47 122 -47
q126 0 178 121q22 51 22 180v178zM374 1299l201 301h227l-337 -301h-91z" />
    <glyph glyph-name="acircumflex" unicode="&#xe2;" horiz-adv-x="955" 
d="M639 331q-41 -74 -79 -109q-73 -70 -196 -70q-122 0 -202 71q-83 75 -83 192q0 183 233 281q66 28 141 47t162 30v122q0 103 -31 146q-44 60 -138 60q-80 0 -135 -43q-35 -29 -35 -77v-18q0 -9 0.5 -16.5t0.5 -13.5q0 -91 -83 -91q-68 0 -68 69q0 94 90 165
q104 80 246 80q101 0 180 -43q97 -54 124 -155q6 -24 9.5 -59t3.5 -81v-418q0 -97 15 -140t65 -43q39 0 52 7v-54q-35 -7 -63.5 -10.5t-51.5 -3.5q-87 0 -126 63q-24 39 -31 112zM615 720q-72 -13 -128.5 -30t-101.5 -40q-140 -71 -140 -223q0 -90 48 -139q44 -47 122 -47
q126 0 178 121q22 51 22 180v178zM165 1300l269 299h99l269 -299h-98l-221 177l-221 -177h-97z" />
    <glyph glyph-name="atilde" unicode="&#xe3;" horiz-adv-x="955" 
d="M639 331q-41 -74 -79 -109q-73 -70 -196 -70q-122 0 -202 71q-83 75 -83 192q0 183 233 281q66 28 141 47t162 30v122q0 103 -31 146q-44 60 -138 60q-80 0 -135 -43q-35 -29 -35 -77v-18q0 -9 0.5 -16.5t0.5 -13.5q0 -91 -83 -91q-68 0 -68 69q0 94 90 165
q104 80 246 80q101 0 180 -43q97 -54 124 -155q6 -24 9.5 -59t3.5 -81v-418q0 -97 15 -140t65 -43q39 0 52 7v-54q-35 -7 -63.5 -10.5t-51.5 -3.5q-87 0 -126 63q-24 39 -31 112zM615 720q-72 -13 -128.5 -30t-101.5 -40q-140 -71 -140 -223q0 -90 48 -139q44 -47 122 -47
q126 0 178 121q22 51 22 180v178zM186 1367q31 109 65 146q51 55 126 55q67 0 140 -55q26 -20 42.5 -31.5t24.5 -15.5q32 -17 64 -17q60 0 90 45q7 11 14 26.5t14 35.5l56 -13q-20 -107 -65 -152q-57 -58 -128 -58q-43 0 -80 18q-14 7 -36.5 21t-51.5 37t-54 33t-47 10
q-76 0 -117 -101z" />
    <glyph glyph-name="adieresis" unicode="&#xe4;" horiz-adv-x="955" 
d="M639 331q-41 -74 -79 -109q-73 -70 -196 -70q-122 0 -202 71q-83 75 -83 192q0 183 233 281q66 28 141 47t162 30v122q0 103 -31 146q-44 60 -138 60q-80 0 -135 -43q-35 -29 -35 -77v-18q0 -9 0.5 -16.5t0.5 -13.5q0 -91 -83 -91q-68 0 -68 69q0 94 90 165
q104 80 246 80q101 0 180 -43q97 -54 124 -155q6 -24 9.5 -59t3.5 -81v-418q0 -97 15 -140t65 -43q39 0 52 7v-54q-35 -7 -63.5 -10.5t-51.5 -3.5q-87 0 -126 63q-24 39 -31 112zM615 720q-72 -13 -128.5 -30t-101.5 -40q-140 -71 -140 -223q0 -90 48 -139q44 -47 122 -47
q126 0 178 121q22 51 22 180v178zM292 1548q44 0 76 -32t32 -77q0 -46 -32 -78t-77 -32q-46 0 -78 32q-32 33 -32 77q0 46 32 78q33 32 79 32zM665 1548q44 0 76 -32t32 -77q0 -46 -32 -78t-77 -32q-46 0 -78 32q-32 33 -32 77q0 46 32 78q33 32 79 32z" />
    <glyph glyph-name="aring" unicode="&#xe5;" horiz-adv-x="955" 
d="M639 331q-40 -73 -79 -109q-76 -70 -196 -70q-122 0 -202 71q-83 74 -83 192q0 185 233 281q67 28 142.5 47t160.5 30v122q0 106 -31 146q-45 60 -138 60q-95 0 -147 -52q-25 -25 -25 -63q0 -2 1 -14t1 -32v-11q0 -87 -81 -87q-69 0 -69 70q0 93 90 164q104 80 246 80
q101 0 180 -43q97 -54 124 -155q6 -24 9.5 -59t3.5 -81v-418q0 -98 15 -140q15 -43 64 -43q40 0 53 7v-54q-35 -7 -64 -10.5t-52 -3.5q-86 0 -125 63q-11 19 -19 46.5t-12 65.5zM615 720q-72 -13 -128.5 -30t-101.5 -40q-140 -71 -140 -223q0 -90 48 -139q44 -47 122 -47
q126 0 178 121q22 51 22 180v178zM471 1633q69 0 119 -50t50 -121q0 -70 -50 -121q-50 -50 -121 -50t-121 50q-50 51 -50 121q0 71 50 121q51 50 123 50zM468 1561q-40 0 -69 -29t-29 -70t29 -70t70 -29t70 29t29 70t-29 70q-30 29 -71 29z" />
    <glyph glyph-name="ae" unicode="&#xe6;" horiz-adv-x="1472" 
d="M1391 485q-13 -115 -73 -197q-101 -137 -299 -137q-249 0 -361 229q-78 -229 -291 -229q-144 0 -224 89q-64 70 -64 171q0 165 186 255q57 28 144.5 47.5t205.5 32.5v149q0 126 -49 166q-46 40 -121 40q-93 0 -146 -53q-26 -26 -26 -58q0 -4 0.5 -9t1.5 -12
q1 -11 1.5 -21t0.5 -19q0 -88 -83 -88q-68 0 -68 69q0 88 83 159q100 87 248 87q135 0 227 -72q13 -10 24.5 -23t22.5 -29q114 124 284 124q66 0 122.5 -20.5t105.5 -59.5q69 -55 104.5 -153.5t42.5 -249.5h-614q1 -197 36 -286q64 -168 236 -168q130 0 198 96q48 68 63 170
h82zM615 683q-186 -26 -261 -71q-109 -66 -109 -190q0 -93 54 -142q43 -40 116 -40q112 0 163 90q37 64 37 212v141zM1224 750q-11 353 -214 353t-232 -353h446z" />
    <glyph glyph-name="ccedilla" unicode="&#xe7;" horiz-adv-x="892" 
d="M478 49q173 -17 173 -138q0 -72 -57 -114q-53 -38 -130 -38q-72 0 -154 33v61q69 -18 106 -18q42 0 68 18q35 26 35 69q0 55 -58 74q-17 6 -40.5 9t-54.5 5l76 140q-117 16 -199 86q-158 135 -158 411q0 234 119 380q111 135 286 135q121 0 208 -87l55 104h36v-337h-46
q-20 92 -48 146q-29 55 -79.5 87t-108.5 32q-133 0 -188 -135q-56 -136 -56 -324q0 -433 238 -433q189 0 227 270h82q-34 -296 -280 -334z" />
    <glyph glyph-name="egrave" unicode="&#xe8;" horiz-adv-x="939" 
d="M857 485q-14 -117 -75 -201q-98 -134 -287 -134q-194 0 -301 134q-113 143 -113 371q0 224 113 367q108 135 288 135q138 0 239 -89q129 -115 135 -391h-609q-1 -14 -1 -24.5v-18.5q0 -173 60 -294q62 -122 211 -122t218 129q30 55 42 138h80zM692 750q-17 354 -212 354
q-199 0 -229 -354h441zM615 1299h-92l-336 301h227z" />
    <glyph glyph-name="eacute" unicode="&#xe9;" horiz-adv-x="939" 
d="M857 485q-14 -117 -75 -201q-98 -134 -287 -134q-194 0 -301 134q-113 143 -113 371q0 224 113 367q108 135 288 135q138 0 239 -89q129 -115 135 -391h-609q-1 -14 -1 -24.5v-18.5q0 -173 60 -294q62 -122 211 -122t218 129q30 55 42 138h80zM692 750q-17 354 -212 354
q-199 0 -229 -354h441zM394 1299l201 301h227l-337 -301h-91z" />
    <glyph glyph-name="ecircumflex" unicode="&#xea;" horiz-adv-x="939" 
d="M857 485q-14 -117 -75 -201q-98 -134 -287 -134q-194 0 -301 134q-113 143 -113 371q0 224 113 367q108 135 288 135q138 0 239 -89q129 -115 135 -391h-609q-1 -14 -1 -24.5v-18.5q0 -173 60 -294q62 -122 211 -122t218 129q30 55 42 138h80zM692 750q-17 354 -212 354
q-199 0 -229 -354h441zM179 1300l269 299h99l269 -299h-98l-221 177l-221 -177h-97z" />
    <glyph glyph-name="edieresis" unicode="&#xeb;" horiz-adv-x="939" 
d="M857 485q-14 -117 -75 -201q-98 -134 -287 -134q-194 0 -301 134q-113 143 -113 371q0 224 113 367q108 135 288 135q138 0 239 -89q129 -115 135 -391h-609q-1 -14 -1 -24.5v-18.5q0 -173 60 -294q62 -122 211 -122t218 129q30 55 42 138h80zM692 750q-17 354 -212 354
q-199 0 -229 -354h441zM313 1548q44 0 76 -32t32 -77q0 -46 -32 -78t-77 -32q-46 0 -78 32q-32 33 -32 77q0 46 32 78q33 32 79 32zM686 1548q44 0 76 -32t32 -77q0 -46 -32 -78t-77 -32q-46 0 -78 32q-32 33 -32 77q0 46 32 78q33 32 79 32z" />
    <glyph glyph-name="igrave" unicode="&#xec;" horiz-adv-x="571" 
d="M372 315q0 -25 2.5 -42.5t9.5 -27.5q26 -36 135 -40v-41q-146 12 -229 12q-84 0 -229 -12v41q71 3 103 15q34 14 41 48q3 13 3 47v648q0 59 -12 82q-16 30 -69 35q-26 3 -64 3v35q198 15 309 55v-858zM403 1299h-92l-336 301h227z" />
    <glyph glyph-name="iacute" unicode="&#xed;" horiz-adv-x="571" 
d="M372 315q0 -25 2.5 -42.5t9.5 -27.5q26 -36 135 -40v-41q-146 12 -229 12q-84 0 -229 -12v41q71 3 103 15q34 14 41 48q3 13 3 47v648q0 59 -12 82q-16 30 -69 35q-26 3 -64 3v35q198 15 309 55v-858zM190 1299l201 301h227l-337 -301h-91z" />
    <glyph glyph-name="icircumflex" unicode="&#xee;" horiz-adv-x="571" 
d="M371 315q0 -51 12 -70q22 -35 135 -40v-41q-143 12 -229 12q-87 0 -229 -12v41q70 3 102 15q34 13 42 48q3 13 3 47v648q0 59 -12 82q-16 30 -69 35q-26 3 -64 3v35q81 7 157.5 21t151.5 34v-858zM-6 1300l230 301h95l230 -301h-91l-187 177l-186 -177h-91z" />
    <glyph glyph-name="idieresis" unicode="&#xef;" horiz-adv-x="571" 
d="M372 315q0 -25 2.5 -42.5t9.5 -27.5q26 -36 135 -40v-41q-146 12 -229 12q-84 0 -229 -12v41q71 3 103 15q34 14 41 48q3 13 3 47v648q0 59 -12 82q-16 30 -69 35q-26 3 -64 3v35q198 15 309 55v-858zM139 1575q42 0 74 -32t32 -76t-32 -76t-76 -32t-76 32t-32 76t32 76
t78 32zM444 1575q42 0 74 -32t32 -76t-32 -76t-76 -32t-76 32t-32 76t32 76t78 32z" />
    <glyph glyph-name="eth" unicode="&#xf0;" horiz-adv-x="960" 
d="M303 1518l50 33l110 -137l160 101l38 -60l-150 -95l169 -212q51 -64 83 -113t52 -91q33 -69 48.5 -143.5t15.5 -156.5q0 -201 -97 -337q-110 -156 -298 -156q-177 0 -289 141q-114 142 -114 367q0 210 103 346q115 150 300 150q14 0 28.5 -1.5t30.5 -3.5l-106 163
l-152 -95l-37 58l151 96zM474 1102q-86 0 -144 -76q-77 -101 -77 -344q0 -478 232 -478q223 0 223 416q0 482 -234 482z" />
    <glyph glyph-name="ntilde" unicode="&#xf1;" horiz-adv-x="1122" 
d="M62 1112q187 24 271 61q15 -55 21 -178q108 161 277 161q166 0 249 -126q50 -77 50 -223v-492q0 -26 2.5 -43t9.5 -27q26 -36 135 -40v-41q-134 12 -225 12t-221 -12v40q31 1 54.5 5t40.5 12q31 15 37 46q3 12 3 45v502q0 123 -31 172q-47 77 -151 77q-109 0 -172 -83
q-41 -56 -41 -174v-494q0 -47 11 -66q24 -39 122 -42v-40q-131 12 -221 12t-223 -12v41q71 3 103 15q34 14 41 48q3 13 3 47v634q0 66 -4 73q-6 43 -60 51q-13 2 -33 2.5t-48 1.5v35zM256 1367q31 109 65 146q51 55 126 55q67 0 140 -55q26 -20 42.5 -31.5t24.5 -15.5
q32 -17 64 -17q60 0 90 45q7 11 14 26.5t14 35.5l56 -13q-20 -107 -65 -152q-57 -58 -128 -58q-43 0 -80 18q-14 7 -36.5 21t-51.5 37t-54 33t-47 10q-76 0 -117 -101z" />
    <glyph glyph-name="ograve" unicode="&#xf2;" horiz-adv-x="960" 
d="M494 1162q177 0 282 -148q103 -145 103 -357q0 -214 -106 -359q-110 -150 -294 -150q-185 0 -294 150q-104 143 -104 353q0 224 113 367q114 144 300 144zM480 1109q-82 0 -140 -73q-87 -108 -87 -383q0 -452 225 -452q92 0 151 80q78 106 78 368q0 460 -227 460z
M637 1299h-92l-336 301h227z" />
    <glyph glyph-name="oacute" unicode="&#xf3;" horiz-adv-x="960" 
d="M494 1162q177 0 282 -148q103 -145 103 -357q0 -214 -106 -359q-110 -150 -294 -150q-185 0 -294 150q-104 143 -104 353q0 224 113 367q114 144 300 144zM480 1109q-82 0 -140 -73q-87 -108 -87 -383q0 -452 225 -452q92 0 151 80q78 106 78 368q0 460 -227 460z
M405 1299l201 301h227l-337 -301h-91z" />
    <glyph glyph-name="ocircumflex" unicode="&#xf4;" horiz-adv-x="960" 
d="M494 1162q177 0 282 -148q103 -145 103 -357q0 -214 -106 -359q-110 -150 -294 -150q-185 0 -294 150q-104 143 -104 353q0 224 113 367q114 144 300 144zM480 1109q-82 0 -140 -73q-87 -108 -87 -383q0 -452 225 -452q92 0 151 80q78 106 78 368q0 460 -227 460z
M176 1300l269 299h99l269 -299h-98l-221 177l-221 -177h-97z" />
    <glyph glyph-name="otilde" unicode="&#xf5;" horiz-adv-x="960" 
d="M494 1162q177 0 282 -148q103 -145 103 -357q0 -214 -106 -359q-110 -150 -294 -150q-185 0 -294 150q-104 143 -104 353q0 224 113 367q114 144 300 144zM480 1109q-82 0 -140 -73q-87 -108 -87 -383q0 -452 225 -452q92 0 151 80q78 106 78 368q0 460 -227 460z
M190 1367q31 109 65 146q51 55 126 55q67 0 140 -55q26 -20 42.5 -31.5t24.5 -15.5q32 -17 64 -17q60 0 90 45q7 11 14 26.5t14 35.5l56 -13q-20 -107 -65 -152q-57 -58 -128 -58q-43 0 -80 18q-14 7 -36.5 21t-51.5 37t-54 33t-47 10q-76 0 -117 -101z" />
    <glyph glyph-name="odieresis" unicode="&#xf6;" horiz-adv-x="960" 
d="M494 1162q177 0 282 -148q103 -145 103 -357q0 -214 -106 -359q-110 -150 -294 -150q-185 0 -294 150q-104 143 -104 353q0 224 113 367q114 144 300 144zM480 1109q-82 0 -140 -73q-87 -108 -87 -383q0 -452 225 -452q92 0 151 80q78 106 78 368q0 460 -227 460z
M310 1548q44 0 76 -32t32 -77q0 -46 -32 -78t-77 -32q-46 0 -78 32q-32 33 -32 77q0 46 32 78q33 32 79 32zM683 1548q44 0 76 -32t32 -77q0 -46 -32 -78t-77 -32q-46 0 -78 32q-32 33 -32 77q0 46 32 78q33 32 79 32z" />
    <glyph glyph-name="divide" unicode="&#xf7;" horiz-adv-x="1071" 
d="M110 801v119h852v-119h-852zM537 686q43 0 74 -31t31 -76q0 -44 -31 -75t-75 -31q-45 0 -76 31t-31 75q0 45 31 76t77 31zM537 1248q43 0 74 -31t31 -75q0 -45 -31 -76t-75 -31q-45 0 -76 31t-31 75q0 45 31 76t77 31z" />
    <glyph glyph-name="oslash" unicode="&#xf8;" horiz-adv-x="960" 
d="M125 164h-84l125 157q-83 137 -83 318q0 234 125 383q113 134 285 134q151 0 255 -107l75 94h84l-117 -148q87 -138 87 -326q0 -230 -118 -378q-110 -140 -284 -140q-157 0 -267 116zM287 357q21 -55 61 -91q62 -56 133 -56q51 0 97.5 30.5t74.5 84.5q63 121 63 326
q0 163 -25 229zM669 960q-53 137 -184 137q-141 0 -204 -183q-37 -105 -37 -286q0 -65 23 -192z" />
    <glyph glyph-name="ugrave" unicode="&#xf9;" horiz-adv-x="1103" 
d="M341 489q0 -125 34 -174q48 -70 151 -70q116 0 173 88q38 59 38 184v446q0 59 -12 82q-17 30 -68 35q-27 3 -65 3v35q81 7 157.5 21t151.5 34v-833q0 -52 12 -70q17 -25 72 -29q11 -1 28 -1t40 -1v-36q-167 -17 -282 -54q-5 29 -8 75t-5 112q-40 -77 -83 -114
q-80 -69 -197 -69q-166 0 -248 115q-53 74 -53 225v470q0 59 -12 82q-16 30 -69 35q-26 3 -64 3v35q81 7 157.5 21t151.5 34v-684zM672 1299h-92l-336 301h227z" />
    <glyph glyph-name="uacute" unicode="&#xfa;" horiz-adv-x="1103" 
d="M341 489q0 -125 34 -174q48 -70 151 -70q116 0 173 88q38 59 38 184v446q0 59 -12 82q-17 30 -68 35q-27 3 -65 3v35q81 7 157.5 21t151.5 34v-833q0 -52 12 -70q17 -25 72 -29q11 -1 28 -1t40 -1v-36q-167 -17 -282 -54q-5 29 -8 75t-5 112q-40 -77 -83 -114
q-80 -69 -197 -69q-166 0 -248 115q-53 74 -53 225v470q0 59 -12 82q-16 30 -69 35q-26 3 -64 3v35q81 7 157.5 21t151.5 34v-684zM438 1299l201 301h227l-337 -301h-91z" />
    <glyph glyph-name="ucircumflex" unicode="&#xfb;" horiz-adv-x="1103" 
d="M341 489q0 -125 34 -174q48 -70 151 -70q116 0 173 88q38 59 38 184v446q0 59 -12 82q-17 30 -68 35q-27 3 -65 3v35q81 7 157.5 21t151.5 34v-833q0 -52 12 -70q17 -25 72 -29q11 -1 28 -1t40 -1v-36q-167 -17 -282 -54q-5 29 -8 75t-5 112q-40 -77 -83 -114
q-80 -69 -197 -69q-166 0 -248 115q-53 74 -53 225v470q0 59 -12 82q-16 30 -69 35q-26 3 -64 3v35q81 7 157.5 21t151.5 34v-684zM223 1300l269 299h99l269 -299h-98l-221 177l-221 -177h-97z" />
    <glyph glyph-name="udieresis" unicode="&#xfc;" horiz-adv-x="1103" 
d="M341 489q0 -125 34 -174q48 -70 151 -70q116 0 173 88q38 59 38 184v446q0 59 -12 82q-17 30 -68 35q-27 3 -65 3v35q81 7 157.5 21t151.5 34v-833q0 -52 12 -70q17 -25 72 -29q11 -1 28 -1t40 -1v-36q-167 -17 -282 -54q-5 29 -8 75t-5 112q-40 -77 -83 -114
q-80 -69 -197 -69q-166 0 -248 115q-53 74 -53 225v470q0 59 -12 82q-16 30 -69 35q-26 3 -64 3v35q81 7 157.5 21t151.5 34v-684zM356 1548q44 0 76 -32t32 -77q0 -46 -32 -78t-77 -32q-46 0 -78 32q-32 33 -32 77q0 46 32 78q33 32 79 32zM729 1548q44 0 76 -32t32 -77
q0 -46 -32 -78t-77 -32q-46 0 -78 32q-32 33 -32 77q0 46 32 78q33 32 79 32z" />
    <glyph glyph-name="yacute" unicode="&#xfd;" horiz-adv-x="1022" 
d="M478 203l-302 804q-24 64 -61 79q-14 5 -37 9.5t-57 6.5v41q60 -5 111.5 -7.5t97.5 -2.5t97.5 2.5t111.5 7.5v-41q-34 -2 -59 -6q-48 -8 -48 -38q0 -11 15 -54l215 -591l224 585q17 46 17 57q0 34 -46 41q-28 4 -71 6v41q38 -4 76 -6t76 -2t81.5 2t94.5 6v-41
q-25 -3 -46.5 -7.5t-39.5 -12.5q-45 -20 -69 -81l-387 -1000q-53 -137 -135 -189q-68 -42 -162 -42h-12t-17 1v103q34 0 62.5 3t52.5 11q48 16 86.5 55t67.5 108zM443 1299l201 301h227l-337 -301h-91z" />
    <glyph glyph-name="thorn" unicode="&#xfe;" horiz-adv-x="1068" 
d="M356 1012q90 143 244 143q169 0 277 -141q110 -143 110 -360q0 -215 -104 -358q-107 -144 -276 -144q-107 0 -175 62q-16 14 -35 38t-41 58v-399q0 -26 2.5 -43t9.5 -27q25 -36 134 -40v-41q-140 12 -228 12q-87 0 -229 -12v41q71 3 103 15q34 14 41 48q3 13 3 47v1437
q0 59 -12 82q-17 31 -69 36q-13 2 -29 2h-35v36q165 13 309 54v-546zM579 1098q-79 0 -139 -68q-86 -98 -86 -365q0 -456 235 -456q226 0 226 438q0 451 -236 451z" />
    <glyph glyph-name="ydieresis" unicode="&#xff;" horiz-adv-x="1022" 
d="M478 203l-302 804q-24 64 -61 79q-14 5 -37 9.5t-57 6.5v41q60 -5 111.5 -7.5t97.5 -2.5t97.5 2.5t111.5 7.5v-41q-34 -2 -59 -6q-48 -8 -48 -38q0 -11 15 -54l215 -591l224 585q17 46 17 57q0 34 -46 41q-28 4 -71 6v41q38 -4 76 -6t76 -2t81.5 2t94.5 6v-41
q-25 -3 -46.5 -7.5t-39.5 -12.5q-45 -20 -69 -81l-387 -1000q-53 -137 -135 -189q-68 -42 -162 -42h-12t-17 1v103q34 0 62.5 3t52.5 11q48 16 86.5 55t67.5 108zM358 1548q44 0 76 -32t32 -77q0 -46 -32 -78t-77 -32q-46 0 -78 32q-32 33 -32 77q0 46 32 78q33 32 79 32z
M731 1548q44 0 76 -32t32 -77q0 -46 -32 -78t-77 -32q-46 0 -78 32q-32 33 -32 77q0 46 32 78q33 32 79 32z" />
    <glyph glyph-name="notequal" unicode="&#x2260;" 
d="M564 1067l116 249l71 -32l-101 -217h323v-77h-358l-98 -209h457v-77h-493l-126 -270l-71 34l110 236h-343v77h379l98 209h-479v77h515z" />
    <glyph glyph-name="lessequal" unicode="&#x2264;" 
d="M935 1422v-70l-656 -428l656 -437v-186l-846 563v13zM89 235h846v-65h-846v65z" />
    <glyph glyph-name="greaterequal" unicode="&#x2265;" 
d="M89 235h846v-65h-846v65zM89 301v70l655 428l-655 437v186l846 -566v-12z" />
    <glyph glyph-name="summation" unicode="&#x2211;" horiz-adv-x="1365" 
d="M121 1535h1043v-322h-37q-15 139 -78 201q-44 44 -119 59q-29 5 -66 8t-85 3h-472l426 -804l-484 -901h541q117 0 182 18q184 53 239 291h37l-68 -396h-1059l494 920z" />
    <glyph glyph-name="product" unicode="&#x220f;" horiz-adv-x="1365" 
d="M46 1535h1274v-37h-46q-94 0 -118 -35q-8 -13 -13 -45t-5 -83v-1443q0 -51 5 -83t13 -45q23 -35 113 -35h49v-37h-510v37h44q95 0 118 35q18 28 18 128v1443q0 51 -5 83t-13 45q-24 35 -118 35h-334q-94 0 -118 -35q-8 -13 -13 -45t-5 -83v-1443q0 -101 18 -128
q24 -35 113 -35h50v-37h-511v37h44q95 0 118 35q18 28 18 128v1443q0 51 -5 83t-13 45q-24 35 -118 35h-50v37z" />
    <glyph glyph-name="pi" unicode="&#x3c0;" 
d="M1133 1123v-98h-318q-19 -48 -30.5 -79.5t-17.5 -47.5q-25 -68 -25 -137v-330q0 -48 1.5 -80t6.5 -49q16 -58 76 -58q14 0 100 24v-34l-204 -83q-8 -3 -13.5 -5t-9.5 -2q-14 0 -34 20.5t-35 49.5q-24 46 -24 126v323q0 37 5 73.5t19 72.5q5 13 19.5 40t37.5 72
q20 38 33 63.5t21 39.5h-356l-3 -253q-1 -91 -9.5 -200t-25.5 -248q-7 -52 -14 -87t-15 -53q-23 -48 -55 -48q-28 0 -49 31q-16 22 -16 46q0 20 5.5 44t15.5 52q41 112 65 290t33 426q-125 0 -195 -43q-67 -43 -137 -138l-23 27l144 184q15 19 32 32.5t38.5 21.5t49 11.5
t64.5 3.5h843z" />
    <glyph glyph-name="integral" unicode="&#x222b;" horiz-adv-x="1026" 
d="M589 208q0 -91 -3.5 -153.5t-9.5 -99.5q-31 -182 -132 -265q-77 -62 -173 -62q-108 0 -176 65q-64 61 -64 143q0 48 31 79q28 30 72 30q42 0 70 -28q28 -27 28 -65q0 -21 -9 -42q-10 -19 -10 -43q0 -19 10 -35q16 -25 52 -25q68 0 115 95q49 97 49 270v939q0 91 3.5 155
t9.5 101q31 183 132 266q77 62 173 62q108 0 176 -66q64 -61 64 -143q0 -48 -30 -79q-30 -30 -73 -30q-42 0 -70 28q-28 27 -28 65q0 10 2 21t7 22q10 19 10 42q0 61 -62 61q-72 0 -117 -100q-11 -24 -18.5 -51.5t-12.5 -59.5q-8 -54 -12 -100t-4 -85v-912z" />
    <glyph glyph-name="Omega" unicode="&#x2126;" horiz-adv-x="1365" 
d="M1404 406l-78 -236h-561v82q55 27 95.5 49.5t66.5 41.5q29 20 55.5 45.5t51.5 56.5q161 194 161 453q0 240 -136 424q-133 181 -377 181q-265 0 -404 -223q-108 -173 -108 -379q0 -136 53 -272q26 -66 62.5 -122t87.5 -107q38 -39 94.5 -75.5t132.5 -72.5v-82h-562
l-77 236h38q28 -84 79 -115q28 -17 72 -24.5t107 -9.5l221 -5v10q-169 68 -264 157q-51 48 -92 103.5t-67 118.5q-56 136 -56 258q0 136 63 271q32 69 75.5 126t97.5 105q178 156 448 156q167 0 293 -54t225 -171q82 -97 123 -202t41 -226q0 -218 -136 -396
q-97 -127 -235 -198q-22 -11 -48.5 -23t-58.5 -25v-10l230 5q40 1 68 3.5t44 6.5q78 18 115 88q4 7 9.5 19.5t12.5 31.5h38z" />
    <glyph glyph-name="radical" unicode="&#x221a;" horiz-adv-x="1365" 
d="M1331 1856v-54h-247l-378 -1632h-152l-177 739h-343v54h468l161 -690l372 1583h296z" />
    <glyph glyph-name="approxequal" unicode="&#x2248;" 
d="M968 1124q-45 -71 -114 -123q-89 -69 -179 -69q-22 0 -55.5 6t-81.5 23q-88 31 -150.5 44.5t-105.5 13.5q-79 0 -131 -52q-10 -10 -26 -27t-39 -43l-30 18q138 194 299 194q30 0 79 -11t118 -34q54 -18 97.5 -27.5t75.5 -9.5q118 0 213 114zM968 809q-45 -71 -114 -123
q-89 -69 -179 -69q-22 0 -55.5 6t-81.5 23q-88 31 -150.5 44.5t-105.5 13.5q-79 0 -131 -52q-8 -8 -24.5 -26t-40.5 -44l-30 18q138 194 299 194q42 0 197 -44q134 -38 174 -38q117 0 212 114z" />
    <glyph glyph-name="Delta" unicode="&#x2206;" horiz-adv-x="1365" 
d="M715 1569l631 -1399h-1326l629 1399h66zM643 1393l-430 -956q-31 -70 -31 -102q0 -36 23 -54q20 -14 70 -14h864z" />
    <glyph glyph-name="_172" horiz-adv-x="1071" 
 />
    <glyph glyph-name="lozenge" unicode="&#x25ca;" horiz-adv-x="256" 
d="M218 818v103l31 -41v-103zM188 818v103l-29 -41v-103zM68 818v103l31 -41v-103zM38 818v103l-29 -41v-103zM38 818v103l-29 -41v-103zM38 818v103l-29 -41v-103zM38 818v103l-29 -41v-103zM38 818v103l-29 -41v-103zM38 818v103l-29 -41v-103zM38 818v103l-29 -41v-103z
M38 818v103l-29 -41v-103zM38 818v103l-29 -41v-103zM38 818v103l-29 -41v-103zM38 818v103l-29 -41v-103zM38 818v103l-29 -41v-103zM38 818v103l-29 -41v-103zM38 818v103l-29 -41v-103zM38 818v103l-29 -41v-103zM38 818v103l-29 -41v-103zM38 818v103l-29 -41v-103z
M38 818v103l-29 -41v-103zM38 818v103l-29 -41v-103zM38 818v103l-29 -41v-103zM38 818v103l-29 -41v-103zM38 818v103l-29 -41v-103zM38 818v103l-29 -41v-103z" />
    <glyph glyph-name="fraction" unicode="&#x2215;" horiz-adv-x="106" 
d="M-382 170l784 1336h86l-784 -1336h-86z" />
    <glyph glyph-name="fi" unicode="&#xf001;" horiz-adv-x="1156" 
d="M368 1137h234v-75h-234v-747q0 -51 12 -70q22 -35 135 -40v-41q-143 12 -229 12q-87 0 -229 -12v41q71 3 103 15q34 14 41 48q3 13 3 47v747h-141v63q85 1 115 18q26 13 34 50l5 61q4 45 8 79.5t11 59.5q23 84 104 131q67 40 157 40q97 0 155 -52q46 -40 46 -101
q0 -77 -76 -77q-33 0 -54 18q-19 16 -19 42q0 8 3 28q1 8 1.5 15.5t0.5 14.5q0 23 -12 38q-16 22 -49 22q-79 0 -108 -80q-9 -24 -13 -63t-4 -96v-136zM956 315q0 -51 12 -70q23 -36 135 -40v-41q-143 12 -229 12q-87 0 -229 -12v41q71 3 103 15q34 14 41 48q3 12 3 47v648
q0 59 -12 82q-16 30 -69 35q-26 3 -64 3v35q81 7 157.5 21t151.5 34v-858zM890 1535q45 0 77 -32q33 -33 33 -80q0 -46 -32 -79q-32 -32 -79 -32q-46 0 -79 33t-33 78q0 48 32 80q33 32 81 32z" />
    <glyph glyph-name="fl" unicode="&#xf002;" horiz-adv-x="1145" 
d="M659 1505q81 8 154 21t140 32v-1243q0 -51 12 -70q22 -35 135 -40v-41q-141 12 -229 12q-87 0 -229 -12v41q70 3 102 15q34 13 42 48q3 13 3 47v1023q0 51 -3 71q-5 39 -44 51q-11 2 -25.5 4t-31.5 3q13 -25 13 -57q0 -76 -76 -76q-33 0 -54 18q-19 16 -19 42q0 10 3 31
q3 15 3 27q0 24 -15 41q-17 18 -46 18q-80 0 -109 -80q-9 -24 -13 -63.5t-4 -94.5v-136h234v-75h-234v-747q0 -51 12 -70q22 -35 135 -40v-41q-143 12 -229 12q-87 0 -229 -12v41q71 3 103 15q34 14 41 48q3 13 3 47v747h-141v63q85 1 115 18q26 13 34 50l5 61q4 45 8 79.5
t11 59.5q23 84 104 131q67 40 157 40q100 0 162 -59z" />
    <glyph glyph-name="periodcentered" unicode="&#x2219;" horiz-adv-x="470" 
d="M237 787q47 0 81 -34t34 -82q0 -49 -34 -83t-82 -34q-49 0 -83 34t-34 83q0 48 34 82t84 34z" />
    <glyph glyph-name="apple" horiz-adv-x="1365" 
d="M984 1566q0 -163 -127 -266q-80 -65 -146 -68q-7 -1 -14.5 -1h-16.5q0 145 82 239q89 104 222 116v-20zM1277 1105q-64 -49 -98 -92q-67 -85 -67 -192q0 -150 111 -250q34 -31 92 -56q-65 -161 -139 -256q-110 -143 -208 -143q-39 0 -82 18l-83 34q-8 3 -26.5 5t-48.5 2
q-75 0 -98 -10l-87 -35q-43 -17 -79 -17q-54 0 -113 43t-113 124q-172 256 -172 526q0 176 100 306q103 135 281 135q34 0 73 -9.5t87 -26.5q75 -26 101 -26q31 0 85 21q37 14 62 22t39 13q17 6 38.5 8t48.5 2q189 0 296 -146z" />
    <glyph glyph-name="dotlessi" unicode="&#x131;" horiz-adv-x="571" 
d="M372 315q0 -25 2.5 -42.5t9.5 -27.5q26 -36 135 -40v-41q-146 12 -229 12q-84 0 -229 -12v41q71 3 103 15q34 14 41 48q3 13 3 47v648q0 59 -12 82q-16 30 -69 35q-26 3 -64 3v35q198 15 309 55v-858z" />
    <glyph glyph-name="breve" unicode="&#x2d8;" 
d="M790 1597q-5 -40 -13.5 -74t-22.5 -63q-34 -73 -95 -113q-68 -44 -147 -44q-115 0 -192 83q-71 77 -86 211h69q63 -168 209 -168t208 168h70z" />
    <glyph glyph-name="dotaccent" unicode="&#x2d9;" 
d="M515 1556q48 0 82 -34t34 -83t-34 -83q-35 -35 -83 -35t-83 35t-35 82q0 49 35 84q34 34 84 34z" />
    <glyph glyph-name="ring" unicode="&#x2da;" 
d="M515 1633q69 0 119 -50t50 -121t-50 -121t-121 -50q-72 0 -122 50t-50 121t50 121q51 50 124 50zM511 1561q-40 0 -69 -29t-29 -70t29 -70t71 -29q41 0 70 29t29 70t-29 70q-30 29 -72 29z" />
    <glyph glyph-name="hungarumlaut" unicode="&#x2dd;" 
d="M339 1299l174 301h177l-268 -301h-83zM621 1299l176 301h177l-271 -301h-82z" />
    <glyph glyph-name="ogonek" unicode="&#x2db;" 
d="M688 178q-176 -71 -176 -163q0 -43 33 -68q30 -24 77 -24q28 0 67 12v-64q-49 -25 -124 -25t-124 36q-63 43 -63 116q0 128 247 195z" />
    <glyph glyph-name="caron" unicode="&#x2c7;" 
d="M831 1596l-269 -299h-99l-269 299h97l221 -177l221 177h98z" />
    <glyph glyph-name="Lslash" unicode="&#x141;" horiz-adv-x="1035" 
d="M234 776l-169 -102v86l169 101v494q0 62 -12 85q-17 33 -85 44q-14 2 -31.5 3.5t-40.5 3.5v50q154 -15 256 -15q100 0 256 15v-50q-42 -3 -71.5 -7.5t-47.5 -12.5q-39 -17 -47 -59q-3 -17 -3 -57v-414l288 168v-85l-288 -169v-495q0 -28 2.5 -46t6.5 -26q24 -49 128 -49
h145q48 0 82.5 6t57.5 18q42 21 77.5 82t60.5 155h47l-47 -330h-903v50q81 6 119 20q41 17 47 59q3 16 3 57v420z" />
    <glyph glyph-name="lslash" unicode="&#x142;" horiz-adv-x="559" 
d="M368 979l146 87v-86l-146 -87v-578q0 -51 12 -70q22 -35 135 -40v-41q-143 12 -229 12q-88 0 -229 -12v41q71 3 103 15q34 14 41 48q3 13 3 47v501l-146 -87v85l146 88v446q0 59 -12 82q-17 31 -69 36q-13 2 -29 2h-35v36q166 13 309 54v-579z" />
    <glyph glyph-name="Zcaron" unicode="&#x17d;" horiz-adv-x="1102" 
d="M64 170l740 1302h-343q-85 0 -128 -22q-92 -45 -135 -216h-53l55 301h833l-739 -1302h387q100 0 140 19q94 45 167 251h50l-61 -333h-913zM965 1929l-290 -277h-116l-290 277h102l246 -171l247 171h101z" />
    <glyph glyph-name="zcaron" unicode="&#x17e;" horiz-adv-x="915" 
d="M69 170l555 914h-227q-72 0 -109 -18q-55 -25 -94 -110q-7 -15 -16 -36t-20 -49h-42l46 266h680l-557 -914h241q92 0 133 29q76 53 125 213h42l-53 -295h-704zM831 1596l-269 -299h-99l-269 299h97l221 -177l221 177h98z" />
    <glyph glyph-name="minus" unicode="&#x2212;" horiz-adv-x="1071" 
d="M110 800v121h852v-121h-852z" />
    <glyph glyph-name="_247" horiz-adv-x="512" 
 />
    <glyph glyph-name="_248" horiz-adv-x="512" 
 />
    <glyph glyph-name="_249" horiz-adv-x="512" 
 />
    <glyph glyph-name="_250" horiz-adv-x="512" 
 />
    <glyph glyph-name="_251" horiz-adv-x="512" 
 />
    <glyph glyph-name="_252" horiz-adv-x="512" 
 />
    <glyph glyph-name="_253" horiz-adv-x="512" 
 />
    <glyph glyph-name="_254" horiz-adv-x="512" 
 />
    <glyph glyph-name="_255" horiz-adv-x="512" 
 />
    <glyph glyph-name="_256" horiz-adv-x="512" 
 />
    <glyph glyph-name="_257" horiz-adv-x="512" 
 />
    <glyph glyph-name="_261" 
d="M362 1546q42 0 74 -32t32 -76t-32 -76t-76 -32t-76 32t-32 76t32 76t78 32zM667 1546q42 0 74 -32t32 -76t-32 -76t-76 -32t-76 32t-32 76t32 76t78 32z" />
    <glyph glyph-name="_262" 
d="M654 1653h-103l-403 281h248z" />
    <glyph glyph-name="_263" 
d="M351 1908q46 0 80 -34q33 -33 33 -80q0 -48 -33 -81q-34 -34 -82 -34q-46 0 -80 34t-34 80q0 48 34 81q34 34 82 34zM677 1908q45 0 79 -34q34 -33 34 -80t-34 -81t-81 -34q-46 0 -80 34t-34 80q0 48 34 81q34 34 82 34z" />
    <glyph glyph-name="_264" 
d="M860 1929l-290 -277h-116l-290 277h102l246 -171l247 171h101z" />
    <glyph glyph-name="_265" 
d="M331 1909q46 0 80 -34t34 -82t-34 -82t-82 -34t-82 34t-34 82q0 49 34 82q34 34 84 34zM696 1909q46 0 80 -34t34 -82t-34 -82t-82 -34t-82 34t-34 82q0 49 34 82q34 34 84 34z" />
    <glyph glyph-name="_266" 
d="M164 1655l290 277h116l290 -277h-101l-247 171l-246 -171h-102z" />
    <glyph glyph-name="_267" 
d="M177 1707q28 106 69 147q54 55 132 55q53 0 97 -24q12 -7 36 -22t59 -40q48 -33 94 -33q63 0 95 45q15 21 29 62l59 -13q-18 -103 -69 -152q-58 -58 -134 -58q-44 0 -84 18q-16 7 -39 21.5t-54 36.5q-58 43 -106 43q-82 0 -124 -101z" />
    <glyph glyph-name="_268" 
d="M518 1969q68 0 119 -50q50 -50 50 -121t-50 -121t-121 -50t-122 50q-50 50 -50 121t50 121q52 50 124 50zM514 1897q-40 0 -69 -29t-29 -70t29 -70t71 -29q41 0 70 29t29 70t-29 70q-30 29 -72 29z" />
    <glyph glyph-name="_269" 
d="M444 1653l258 281h248l-403 -281h-103z" />
    <glyph glyph-name="_270" horiz-adv-x="512" 
 />
    </font>
</defs>
</svg>
