<?xml version="1.0" standalone="no"?>
<!DOCTYPE svg PUBLIC "-//W3C//DTD SVG 1.1//EN" "http://www.w3.org/Graphics/SVG/1.1/DTD/svg11.dtd" >
<svg>
<metadata>
Created by FontForge 20110222 at Tue Nov 25 22:07:18 2014
 By deploy user
(URW)++,Copyright 2004 by (URW)++ Design &#38; Development
</metadata>
<defs>
<font id="CorporateS-Reg" horiz-adv-x="1024" >
  <font-face 
    font-family="Corporate S"
    font-weight="400"
    font-stretch="normal"
    units-per-em="2048"
    panose-1="0 0 0 0 0 0 0 0 0 0"
    ascent="1585"
    descent="-463"
    x-height="979"
    cap-height="1374"
    bbox="-367 -504 6541 1851"
    underline-thickness="102"
    underline-position="-103"
    unicode-range="U+000D-FB02"
  />
<missing-glyph horiz-adv-x="512" 
 />
    <glyph glyph-name=".notdef" horiz-adv-x="512" 
 />
    <glyph glyph-name=".null" horiz-adv-x="0" 
 />
    <glyph glyph-name=".null" horiz-adv-x="0" 
 />
    <glyph glyph-name="nonmarkingreturn" unicode="&#xd;" horiz-adv-x="512" 
 />
    <glyph glyph-name="space" unicode=" " horiz-adv-x="512" 
 />
    <glyph glyph-name="exclam" unicode="!" horiz-adv-x="510" 
d="M256 223q24 0 45 -9.5t37 -25.5t25.5 -37.5t9.5 -46.5q0 -24 -9.5 -45t-25.5 -36.5t-38 -25t-46 -9.5t-45.5 9.5t-37 25t-25 36.5t-9.5 45q0 25 9.5 46.5t25.5 37.5t37.5 25.5t46.5 9.5zM334 1347l-25 -956h-114l-17 956h156z" />
    <glyph glyph-name="quotedbl" unicode="&#x22;" horiz-adv-x="721" 
d="M449 825l-23 549h152l-25 -549h-104zM168 825l-25 549h154l-25 -549h-104z" />
    <glyph glyph-name="numbersign" unicode="#" horiz-adv-x="1229" 
d="M494 852l-48 -297h304l47 297h-303zM1096 442h-234l-69 -434h-129l69 434h-305l-70 -434h-129l70 434h-233l18 113h233l48 297h-234l16 112h234l65 410h129l-65 -410h305l64 410h131l-66 -410h236l-19 -112h-235l-47 -297h235z" />
    <glyph glyph-name="dollar" unicode="$" horiz-adv-x="1092" 
d="M588 119q130 12 193 74.5t63 162.5q0 60 -26.5 110t-74.5 85q-11 8 -24 15.5t-30.5 15.5t-42 17t-58.5 21v-501zM506 1261q-232 -34 -232 -221q0 -114 105 -174q9 -5 18 -9.5t23 -10t34 -13.5t52 -20v448zM588 784q81 -29 144.5 -57t101.5 -53q85 -54 125 -129t40 -172
q0 -83 -28 -151.5t-81.5 -118.5t-129.5 -79.5t-172 -35.5v-150h-82v147q-206 13 -307.5 116.5t-106.5 297.5h148q8 -131 72 -199t194 -79v530q-59 22 -96 36t-61 24t-40.5 18.5t-34.5 19.5q-149 95 -149 279q0 78 27 142.5t76.5 112.5t120 77.5t157.5 36.5v133h82v-133
q80 -6 146 -31.5t114 -68t75 -100.5t29 -128h-153q-6 78 -61.5 129.5t-149.5 62.5v-477z" />
    <glyph glyph-name="percent" unicode="%" horiz-adv-x="1174" 
d="M309 1282q-32 0 -58 -16.5t-45 -46.5t-29.5 -71.5t-10.5 -90.5t10.5 -90.5t29.5 -71.5t45 -47t58 -17q31 0 57 17t45 47t29.5 71.5t10.5 90.5t-10.5 90.5t-29.5 71.5t-45 46.5t-57 16.5zM311 1384q54 0 100.5 -25.5t81 -70t54.5 -104t20 -127.5q0 -69 -19.5 -129
t-54 -104.5t-82 -69.5t-102.5 -25t-102.5 25t-82.5 69.5t-55 104.5t-20 129q0 70 20 130t55 104t83 68.5t104 24.5zM866 551q-32 0 -58 -17t-45 -47t-29.5 -71.5t-10.5 -90.5q0 -50 10.5 -91t29 -71t44.5 -46.5t57 -16.5t57.5 16.5t46 46.5t30 71t10.5 91q0 49 -10.5 90.5
t-29.5 71.5t-45 47t-57 17zM868 653q54 0 100.5 -25t81 -69.5t54.5 -104.5t20 -129t-19.5 -128.5t-54 -104t-82 -69.5t-102.5 -25t-102.5 25t-82.5 69.5t-55 104t-20 128.5q0 71 20 131t55 104t83 68.5t104 24.5zM1051 1374l-801 -1366h-127l801 1366h127z" />
    <glyph glyph-name="ampersand" unicode="&#x26;" horiz-adv-x="1212" 
d="M446 663q-27 -21 -45.5 -35.5t-32.5 -26t-25.5 -22t-23.5 -22.5q-86 -86 -86 -199q0 -51 20.5 -95.5t57.5 -76.5t86.5 -50.5t108.5 -18.5q154 0 256 124zM475 850q92 69 131 129.5t39 126.5q0 60 -39.5 97.5t-105.5 37.5q-33 0 -61.5 -10.5t-49.5 -29t-33 -44t-12 -55.5
q0 -26 4 -46t16 -43.5t33 -54.5t56 -78zM1016 637v-43q0 -58 -5 -106t-16 -90t-28 -79.5t-41 -74.5l176 -236h-166l-94 129q-36 -38 -73 -64.5t-78 -43.5t-87.5 -25t-101.5 -8q-93 0 -169.5 26.5t-130.5 74.5t-84 115.5t-30 149.5q0 58 14 108t46 98.5t84.5 98.5t129.5 109
q-51 67 -82 111t-47.5 77t-22 61.5t-5.5 65.5q0 59 21.5 108t60.5 84.5t94 55t123 19.5q64 0 115 -18t86.5 -51.5t54 -81t18.5 -105.5q0 -47 -12 -89.5t-38 -85t-68 -86t-103 -92.5l287 -391q25 48 37 113.5t12 165.5h123z" />
    <glyph glyph-name="quotesingle" unicode="'" horiz-adv-x="512" 
d="M205 825l-25 549h154l-25 -549h-104z" />
    <glyph glyph-name="parenleft" unicode="(" horiz-adv-x="575" 
d="M506 1384q-106 -149 -161.5 -368.5t-55.5 -520.5q0 -295 53.5 -518t163.5 -379h-111q-248 305 -248 893q0 597 248 893h111z" />
    <glyph glyph-name="parenright" unicode=")" horiz-adv-x="575" 
d="M68 -402q217 310 217 891q0 303 -55.5 525t-161.5 370h110q248 -296 248 -893q0 -582 -248 -893h-110z" />
    <glyph glyph-name="asterisk" unicode="*" 
d="M463 1339h96v-252l240 78l28 -92l-237 -78l147 -203l-80 -57l-145 203l-147 -203l-80 57l147 203l-237 78l28 92l240 -78v252z" />
    <glyph glyph-name="plus" unicode="+" horiz-adv-x="1092" 
d="M983 749v-106h-381v-397h-113v397h-380v106h380v396h113v-396h381z" />
    <glyph glyph-name="comma" unicode="," horiz-adv-x="489" 
d="M70 -291q33 33 61.5 72t50.5 78.5t36 77.5t18 69h-17q-24 0 -44 8.5t-34.5 24t-23 36t-8.5 44.5t9.5 45.5t26 37.5t39 25.5t49.5 9.5q60 0 96 -43.5t36 -115.5q0 -43 -10 -85.5t-30 -87t-51.5 -93t-74.5 -103.5h-129z" />
    <glyph glyph-name="hyphen" unicode="-" horiz-adv-x="561" 
d="M561 579v-112h-561v112h561z" />
    <glyph glyph-name="period" unicode="." horiz-adv-x="522" 
d="M256 243q12 0 32 -9t38.5 -25.5t32.5 -38t14 -46.5q0 -24 -9.5 -45t-25.5 -36.5t-37.5 -25t-46.5 -9.5q-24 0 -45 9.5t-37 25t-25.5 36.5t-9.5 45q0 25 9.5 46.5t25.5 37.5t38 25t46 10z" />
    <glyph glyph-name="slash" unicode="/" horiz-adv-x="1167" 
d="M913 1374h144l-803 -1671h-143z" />
    <glyph glyph-name="zero" unicode="0" horiz-adv-x="1092" 
d="M549 1235q-133 0 -199 -121q-45 -82 -66.5 -189.5t-21.5 -252.5t22.5 -251.5t65.5 -185.5q67 -121 195 -121q132 0 196 121q88 163 88 439q0 145 -23 254.5t-65 185.5q-33 60 -82.5 90.5t-109.5 30.5zM551 1360q100 0 180.5 -47.5t136 -136t85.5 -215.5t30 -287
t-30 -286.5t-86.5 -215t-137.5 -135.5t-184 -47q-94 0 -169 37.5t-126 107.5q-72 100 -106.5 231t-34.5 306q0 163 29.5 291t86 216.5t139 134.5t187.5 46z" />
    <glyph glyph-name="one" unicode="1" horiz-adv-x="1092" 
d="M352 1143q64 2 112 14.5t82 37.5t55.5 63t33.5 91h102v-1341h-145v1038h-240v97z" />
    <glyph glyph-name="two" unicode="2" horiz-adv-x="1092" 
d="M162 954q10 406 389 406q82 0 149.5 -23t115 -65t73.5 -102t26 -134q0 -43 -8.5 -82.5t-31 -86.5t-62.5 -106t-102 -141q-31 -41 -65 -85.5t-66 -86t-60 -77.5t-47 -60q-34 -43 -53 -67.5t-31 -40.5t-21.5 -29t-25.5 -33h594v-133h-782v117l397 518q46 60 79.5 105.5
t56.5 80.5t38 62t23 50.5t11 45t3 45.5q0 44 -16 80t-44.5 61.5t-69 39.5t-89.5 14q-228 0 -246 -273h-135z" />
    <glyph glyph-name="three" unicode="3" horiz-adv-x="1092" 
d="M174 999q22 361 381 361q83 0 151 -24t116.5 -67.5t75 -104.5t26.5 -136q0 -207 -201 -295q244 -82 244 -334q0 -93 -30.5 -168.5t-86 -129t-134 -82.5t-173.5 -29q-96 0 -173 26.5t-131 75t-83 118t-29 156.5v21h135q11 -266 275 -266q278 0 278 272q0 262 -317 262
h-21.5t-27.5 -2v131l53 -2q62 -2 112 13.5t84.5 46.5t53 75.5t18.5 100.5q0 100 -59.5 155.5t-165.5 55.5q-206 0 -238 -230h-133z" />
    <glyph glyph-name="four" unicode="4" horiz-adv-x="1092" 
d="M639 1157l-410 -696h408zM1010 461v-129h-230v-336h-149v336h-547v114l541 903h153v-888h232z" />
    <glyph glyph-name="five" unicode="5" horiz-adv-x="1092" 
d="M879 1339l-19 -131h-475l-55 -391q50 51 103.5 72.5t125.5 21.5q89 0 161.5 -31.5t123.5 -88.5t78.5 -137.5t27.5 -178.5q0 -180 -96 -313q-121 -172 -332 -172q-83 0 -150.5 23t-116.5 67t-77.5 107t-34.5 143h140q33 -211 235 -211q61 0 112.5 25.5t88.5 71.5t57.5 110
t20.5 141q0 71 -17.5 129t-50.5 99.5t-79.5 64t-104.5 22.5q-82 0 -138.5 -33.5t-101.5 -111.5l-133 14l94 688h613z" />
    <glyph glyph-name="six" unicode="6" horiz-adv-x="1092" 
d="M545 782q-56 0 -102 -24.5t-79 -68.5t-51 -105t-18 -134t18.5 -134t52 -105.5t79.5 -69t102 -24.5q55 0 101 23.5t78.5 66.5t50.5 104.5t18 138.5q0 73 -18.5 134t-51.5 105t-79 68.5t-101 24.5zM803 1370q-56 -59 -109 -122.5t-102 -128.5t-91.5 -129t-76.5 -122
q41 20 74 28.5t77 8.5q82 0 151 -33t118 -93t76.5 -143t27.5 -182q0 -104 -28.5 -189t-80.5 -146.5t-125 -95t-161 -33.5q-90 0 -165.5 34.5t-130.5 96t-85.5 147t-30.5 186.5q0 99 29 202.5t90 215.5t154.5 235.5t222.5 262.5h166z" />
    <glyph glyph-name="seven" unicode="7" horiz-adv-x="1092" 
d="M961 1339v-123l-652 -1208h-166l645 1192h-657v139h830z" />
    <glyph glyph-name="eight" unicode="8" horiz-adv-x="1092" 
d="M551 645q-59 0 -106.5 -18.5t-81 -53t-52 -84t-18.5 -110.5q0 -59 18.5 -107.5t52 -83.5t80.5 -54.5t103 -19.5t102.5 19.5t80.5 54.5t52.5 84.5t18.5 108.5q0 58 -18.5 106.5t-51.5 83.5t-79 54.5t-101 19.5zM549 1235q-50 0 -90.5 -17t-69.5 -48t-45 -74.5t-16 -96.5
q0 -52 16 -95t44.5 -73.5t69 -47.5t89.5 -17t89.5 17t69 48t44.5 74t16 96q0 52 -15.5 95.5t-44 74t-68.5 47.5t-89 17zM334 708q-160 87 -160 285q0 78 28.5 145.5t78.5 116.5t118 77t148 28q79 0 147 -28t117.5 -77t78 -115.5t28.5 -144.5q0 -199 -160 -287
q196 -106 196 -331q0 -86 -30.5 -157t-84.5 -122t-129 -79.5t-163 -28.5q-90 0 -165 28.5t-129 79.5t-84 122t-30 157q0 230 195 331z" />
    <glyph glyph-name="nine" unicode="9" horiz-adv-x="1092" 
d="M551 1233q-59 0 -106 -24.5t-80.5 -69t-51.5 -106.5t-18 -136t18 -134.5t51 -104t79 -67.5t102 -24q55 0 101 24t79 68t51.5 105t18.5 135q0 73 -18.5 134.5t-51 106t-77.5 69t-97 24.5zM287 -23q49 56 102 120t103.5 130t95.5 131t78 123q-39 -20 -74 -28.5t-78 -8.5
q-80 0 -148 34t-118 93.5t-78.5 141.5t-28.5 178q0 102 30.5 188t84.5 148.5t129 97.5t164 35q90 0 163.5 -33.5t126 -94.5t81 -147t28.5 -190q0 -198 -121 -423.5t-374 -494.5h-166z" />
    <glyph glyph-name="colon" unicode=":" horiz-adv-x="522" 
d="M262 979q24 0 45.5 -9.5t37 -25.5t25 -37.5t9.5 -46.5q0 -24 -9.5 -45.5t-25.5 -37t-37.5 -25t-46.5 -9.5q-24 0 -45 9.5t-37 25t-25.5 37t-9.5 45.5q0 25 9.5 47t25.5 38t38 25t46 9zM262 223q24 0 45.5 -9.5t37 -25.5t25 -37.5t9.5 -46.5q0 -24 -9.5 -45t-25.5 -36.5
t-37.5 -25t-46.5 -9.5q-24 0 -45 9.5t-37 25t-25.5 36.5t-9.5 45q0 25 9.5 47t25.5 38t38 25t46 9z" />
    <glyph glyph-name="semicolon" unicode=";" horiz-adv-x="489" 
d="M70 -291q33 33 61.5 72t50.5 78.5t36 77.5t18 69h-17q-24 0 -44 8.5t-34.5 24t-23 36t-8.5 44.5t9.5 45.5t26 37.5t39 25.5t49.5 9.5q60 0 96 -43.5t36 -115.5q0 -43 -10 -85.5t-30 -87t-51.5 -93t-74.5 -103.5h-129zM231 979q24 0 45.5 -9.5t37 -25.5t25 -37.5
t9.5 -46.5q0 -24 -9.5 -45.5t-25.5 -37t-37.5 -25t-46.5 -9.5q-24 0 -45 9.5t-36.5 25t-25 37t-9.5 45.5q0 25 9.5 47t25.5 38t37.5 25t45.5 9z" />
    <glyph glyph-name="less" unicode="&#x3c;" 
d="M954 1030l-733 -334l733 -332v-143l-886 414v125l886 413v-143z" />
    <glyph glyph-name="equal" unicode="=" horiz-adv-x="1092" 
d="M983 614v-110h-874v110h874zM983 887v-111h-874v111h874z" />
    <glyph glyph-name="greater" unicode="&#x3e;" 
d="M70 364l733 332l-733 334v143l886 -413v-125l-886 -414v143z" />
    <glyph glyph-name="question" unicode="?" horiz-adv-x="844" 
d="M315 395v113q0 65 3.5 106.5t18 75t42.5 67.5t78 85q39 40 64.5 70.5t41 56.5t21.5 50t6 52q0 72 -44.5 113t-125.5 41q-93 0 -139.5 -46t-57.5 -151h-127q15 332 336 332q74 0 132.5 -20t99.5 -57t62.5 -91t21.5 -121q0 -41 -8 -75t-28 -68.5t-54 -73.5t-85 -90
q-41 -41 -64 -68.5t-34.5 -57t-14.5 -68.5t-3 -103v-72h-142zM385 223q24 0 45.5 -9.5t37 -25.5t25 -37.5t9.5 -46.5q0 -24 -9.5 -45t-25.5 -36.5t-37.5 -25t-46.5 -9.5q-24 0 -45.5 9.5t-37 25t-25 36.5t-9.5 45q0 25 9.5 46.5t25.5 37.5t37.5 25.5t46.5 9.5z" />
    <glyph glyph-name="at" unicode="@" horiz-adv-x="1501" 
d="M772 938q-51 0 -96 -24.5t-78.5 -66.5t-52.5 -99t-19 -122q0 -52 13 -94t37.5 -71.5t59.5 -45.5t79 -16q51 0 94.5 25t74.5 69t48.5 104.5t17.5 131.5q0 100 -45 154.5t-133 54.5zM1124 1020l-84 -432q-6 -31 -10 -58.5t-4 -38.5q0 -48 21.5 -74t56.5 -26q43 0 84 33.5
t72.5 89t51 127t19.5 147.5q0 115 -39.5 210t-111.5 162.5t-173 104.5t-223 37q-131 0 -242 -46t-191.5 -128t-125.5 -194.5t-45 -245.5t41.5 -238.5t120.5 -193.5q84 -93 199 -133.5t266 -40.5q59 0 112.5 5.5t105 17t103 29t107.5 42.5l29 -96q-109 -48 -220 -72.5
t-237 -24.5q-336 0 -535 197q-100 100 -151 226t-51 284q0 101 24.5 193t69.5 170.5t109.5 142.5t143.5 109t172 69.5t195 24.5q142 0 261.5 -45t205.5 -125.5t134.5 -192t48.5 -244.5q0 -98 -27.5 -187t-74 -156.5t-107 -107.5t-127.5 -40q-63 0 -102.5 37.5t-47.5 103.5
q-94 -145 -254 -145q-64 0 -117.5 24.5t-92 68.5t-60 105t-21.5 134q0 86 28 161.5t76.5 132t114.5 89t142 32.5q162 0 227 -155l25 131h108z" />
    <glyph glyph-name="A" unicode="A" horiz-adv-x="1159" 
d="M578 1184l-216 -680h431zM645 1382l471 -1374h-160l-120 362h-514l-123 -362h-158l471 1374h133z" />
    <glyph glyph-name="B" unicode="B" horiz-adv-x="1124" 
d="M465 137q61 0 106.5 2t80 6t60.5 10.5t48 16.5q57 25 89 84.5t32 140.5q0 88 -41.5 151t-114.5 85q-24 7 -47 11.5t-51.5 7.5t-67 4t-94.5 1h-137v-520h137zM457 786q50 0 88 2t68 7.5t54 13.5t46 20q49 27 75.5 78t26.5 117q0 148 -123 196q-20 8 -40.5 13t-47.5 7.5
t-64 3.5t-91 1h-121v-459h129zM426 1374q70 0 120 -1.5t88 -5t67.5 -10t58.5 -16.5q100 -35 155.5 -113.5t55.5 -193.5q0 -118 -55 -190t-173 -109q154 -37 226.5 -121t72.5 -225q0 -65 -16 -121t-46 -100.5t-72.5 -76.5t-94.5 -48q-34 -11 -67.5 -17.5t-77.5 -10.5
t-105 -5.5t-149 -1.5h-238v1366h250z" />
    <glyph glyph-name="C" unicode="C" horiz-adv-x="1231" 
d="M977 995q-58 268 -311 268q-92 0 -165.5 -40t-125 -114.5t-79.5 -180.5t-28 -238t27.5 -237.5t79.5 -180t126 -114t167 -39.5q149 0 230.5 85.5t98.5 266.5h146q-9 -117 -44 -208t-94.5 -153.5t-142.5 -94.5t-188 -32q-131 0 -236.5 49t-179.5 140.5t-114 221.5t-40 292
q0 163 40 294.5t113.5 224.5t178 143.5t232.5 50.5q96 0 173.5 -27t135 -79t94 -127t49.5 -171h-143z" />
    <glyph glyph-name="D" unicode="D" horiz-adv-x="1284" 
d="M430 141q82 0 136.5 2.5t95 10t72.5 21t69 36.5q106 66 160.5 183.5t54.5 297.5q0 186 -61 306.5t-179 187.5q-32 18 -63 29t-73 17t-101.5 7.5t-149.5 1.5h-61v-1100h100zM391 1374q98 0 169.5 -3.5t126.5 -12.5t98 -24t85 -38q71 -39 128.5 -101t98 -140.5t62 -170.5
t21.5 -192q0 -104 -22 -197t-63.5 -171.5t-101.5 -140t-135 -101.5q-43 -23 -84.5 -37.5t-94.5 -22.5t-125.5 -11t-178.5 -3h-199v1366h215z" />
    <glyph glyph-name="E" unicode="E" horiz-adv-x="1028" 
d="M883 782v-133h-553v-508h610v-133h-764v1366h750v-133h-596v-459h553z" />
    <glyph glyph-name="F" unicode="F" horiz-adv-x="997" 
d="M883 782v-133h-553v-641h-154v1366h750v-133h-596v-459h553z" />
    <glyph glyph-name="G" unicode="G" horiz-adv-x="1274" 
d="M1145 686v-561q-193 -142 -451 -142q-138 0 -247.5 48.5t-185.5 140.5t-116.5 223.5t-40.5 298.5q0 162 40 292.5t114 222t179.5 141t236.5 49.5q96 0 174.5 -27t136.5 -78t94 -126t47 -171h-143q-31 137 -105 201.5t-204 64.5q-96 0 -171.5 -37.5t-127.5 -110.5
t-79.5 -179t-27.5 -244q0 -141 28.5 -248t83.5 -179t134.5 -109t181.5 -37q158 0 310 90v346l-277 -2v133h416z" />
    <glyph glyph-name="H" unicode="H" horiz-adv-x="1298" 
d="M971 786v588h153v-1366h-153v651h-641v-651h-154v1366h154v-588h641z" />
    <glyph glyph-name="I" unicode="I" horiz-adv-x="504" 
d="M174 8v1366h158v-1366h-158z" />
    <glyph glyph-name="J" unicode="J" horiz-adv-x="590" 
d="M418 1374v-1090q0 -72 -1 -117.5t-4.5 -76.5t-10 -52t-17.5 -44q-77 -164 -340 -164h-49v133h22h13q81 0 134 23.5t75 72.5q7 15 11 29.5t6 38.5t2.5 61t0.5 96v1090h158z" />
    <glyph glyph-name="K" unicode="K" horiz-adv-x="1143" 
d="M330 1374v-1366h-154v1366h154zM1071 1374l-557 -645l610 -721h-209l-583 717l553 649h186z" />
    <glyph glyph-name="L" unicode="L" horiz-adv-x="973" 
d="M334 1374v-1233h584v-133h-742v1366h158z" />
    <glyph glyph-name="M" unicode="M" horiz-adv-x="1583" 
d="M408 1374l383 -1198l385 1198h231v-1366h-145v1212l-394 -1212h-153l-393 1212v-1212h-146v1366h232z" />
    <glyph glyph-name="N" unicode="N" horiz-adv-x="1317" 
d="M342 1374l655 -1137v1137h144v-1366h-168l-651 1135v-1135h-146v1366h166z" />
    <glyph glyph-name="O" unicode="O" horiz-adv-x="1323" 
d="M662 1263q-89 0 -161.5 -40.5t-124 -115t-80 -178t-28.5 -229.5q0 -133 28 -240t79 -182.5t124 -116t163 -40.5q88 0 160.5 41t123.5 115.5t79 180t28 234.5t-28 234.5t-79 180t-123.5 115.5t-160.5 41zM662 1399q123 0 225.5 -51.5t175.5 -144.5t113.5 -223.5
t40.5 -287.5q0 -158 -40.5 -288t-113.5 -223t-175.5 -144.5t-225.5 -51.5q-126 0 -229 51.5t-176 145t-113 226t-40 294.5q0 154 41 282t115 220t176.5 143.5t225.5 51.5z" />
    <glyph glyph-name="P" unicode="P" horiz-adv-x="1077" 
d="M426 698q53 0 90 0.5t65 3t51 6t48 9.5q88 20 133 83.5t45 163.5q0 94 -36.5 156t-102.5 88q-23 9 -48.5 15.5t-60.5 10t-83 5.5t-117 2h-80v-543h96zM401 1374q75 0 132 -2t101 -6.5t78.5 -11.5t65.5 -17q56 -18 101 -53t76.5 -83.5t48 -108.5t16.5 -128
q0 -139 -55 -226.5t-158 -127.5q-33 -13 -66.5 -21.5t-76.5 -14t-99.5 -7.5t-134.5 -2h-100v-557h-154v1366h225z" />
    <glyph glyph-name="Q" unicode="Q" horiz-adv-x="1343" 
d="M659 1263q-86 0 -158 -41.5t-123.5 -116.5t-80.5 -179t-29 -228q0 -131 28.5 -237.5t80 -182.5t124 -117.5t161.5 -41.5q87 0 158.5 41.5t123.5 117t80.5 180.5t28.5 232t-28.5 232t-80.5 181t-124.5 118t-160.5 42zM1395 -8h-187l-161 170q-153 -177 -388 -177
q-123 0 -225 51.5t-175.5 145t-114 223.5t-40.5 287t41 287t115 223.5t176.5 145t225.5 51.5q122 0 224 -51.5t175.5 -144.5t114.5 -222.5t41 -286.5q0 -119 -21.5 -217.5t-69.5 -196.5z" />
    <glyph glyph-name="R" unicode="R" horiz-adv-x="1149" 
d="M426 725q61 0 103 1t72.5 4t53.5 8t47 13q75 25 114.5 87.5t39.5 150.5q0 78 -33 135.5t-96 83.5q-24 10 -46.5 16.5t-55 10t-80.5 5t-123 1.5h-92v-516h96zM418 1374q81 0 137 -2t98 -6.5t75.5 -13t68.5 -21.5q106 -39 163.5 -129.5t57.5 -214.5q0 -269 -281 -371
l359 -608h-185l-344 584h-237v-584h-154v1366h242z" />
    <glyph glyph-name="S" unicode="S" horiz-adv-x="1120" 
d="M819 1020q-11 118 -79.5 180.5t-186.5 62.5q-55 0 -101 -15.5t-79 -43t-51.5 -65.5t-18.5 -84t20 -80.5t62 -63.5q16 -11 29 -19t36 -19.5t64.5 -30.5t114.5 -52q66 -30 114.5 -53.5t84 -45t60.5 -42.5t44 -45q76 -97 76 -229q0 -89 -32.5 -161t-91.5 -123t-141 -78.5
t-182 -27.5q-133 0 -224 42.5t-151 123.5q-21 28 -35.5 56.5t-23.5 61t-14.5 70.5t-8.5 85h150q22 -303 313 -303q62 0 114 17t89.5 48t58.5 74t21 96q0 98 -82 168q-17 15 -33 26t-39 23t-56.5 27.5t-84.5 38.5q-112 51 -180.5 87.5t-104.5 65.5q-120 100 -120 250
q0 78 30.5 143.5t85.5 113t130 74t165 26.5q115 0 202.5 -43t141.5 -121q31 -45 45 -94t19 -121h-150z" />
    <glyph glyph-name="T" unicode="T" horiz-adv-x="948" 
d="M907 1374v-133h-356v-1233h-154v1233h-354v133h864z" />
    <glyph glyph-name="U" unicode="U" horiz-adv-x="1280" 
d="M311 1374v-805q0 -78 2 -129t7 -86t15 -59.5t25 -48.5q38 -60 112.5 -92.5t168.5 -32.5q112 0 190.5 43.5t110.5 124.5q7 19 12.5 41t8.5 53.5t4.5 76t1.5 109.5v805h153v-807q0 -84 -1 -134.5t-4 -84t-9.5 -57t-17.5 -52.5q-48 -126 -164 -190t-285 -64
q-168 0 -285.5 64.5t-165.5 189.5q-11 29 -17.5 52.5t-9.5 57t-4 84t-1 134.5v807h153z" />
    <glyph glyph-name="V" unicode="V" horiz-adv-x="1149" 
d="M188 1374l390 -1188l383 1188h159l-469 -1374h-155l-469 1374h161z" />
    <glyph glyph-name="W" unicode="W" horiz-adv-x="1591" 
d="M182 1374l264 -1163l285 1163h131l285 -1163l266 1163h143l-325 -1374h-166l-270 1067l-269 -1067h-166l-323 1374h145z" />
    <glyph glyph-name="X" unicode="X" horiz-adv-x="1112" 
d="M242 1374l315 -524l320 524h176l-406 -651l426 -715h-174l-342 571l-342 -571h-174l428 715l-403 651h176z" />
    <glyph glyph-name="Y" unicode="Y" horiz-adv-x="1049" 
d="M201 1374l327 -639l322 639h176l-426 -793l2 -573h-153l2 573l-426 793h176z" />
    <glyph glyph-name="Z" unicode="Z" horiz-adv-x="1010" 
d="M946 1374v-104l-702 -1129h690v-133h-871v119l697 1116h-654v131h840z" />
    <glyph glyph-name="bracketleft" unicode="[" horiz-adv-x="575" 
d="M496 1374v-119h-172v-1526h172v-118h-308v1763h308z" />
    <glyph glyph-name="backslash" unicode="\" horiz-adv-x="1167" 
d="M913 -297l-802 1671h143l803 -1671h-144z" />
    <glyph glyph-name="bracketright" unicode="]" horiz-adv-x="575" 
d="M80 -389v118h172v1526h-172v119h307v-1763h-307z" />
    <glyph glyph-name="asciicircum" unicode="^" 
d="M53 760l365 618h188l365 -618h-158l-303 503l-301 -503h-156z" />
    <glyph glyph-name="underscore" unicode="_" 
d="M1024 -127v-133h-1024v133h1024z" />
    <glyph glyph-name="grave" unicode="`" 
d="M518 1128l-297 281h205l213 -281h-121z" />
    <glyph glyph-name="a" unicode="a" horiz-adv-x="975" 
d="M684 534q-122 -21 -206.5 -46t-137 -56.5t-75.5 -70.5t-23 -87q0 -38 13 -69t37.5 -53.5t59 -35t78.5 -12.5q72 0 129.5 32t87.5 89q19 35 28 86.5t9 126.5v96zM129 725q34 280 363 280q121 0 201 -42t110 -117q7 -18 11.5 -37.5t6.5 -44.5t3 -57.5t1 -77.5v-365
q0 -59 1 -97t3.5 -65t8 -48t14.5 -46h-137q-6 18 -9.5 31.5t-6 28t-4 31t-3.5 40.5q-86 -156 -284 -156q-72 0 -130 19.5t-99 56.5t-63 88.5t-22 116.5q0 211 225 291q35 12 71 22.5t79 20.5t95 20.5t120 22.5v41q0 55 -10.5 93t-33.5 62t-61.5 34.5t-93.5 10.5
q-184 0 -215 -157h-141z" />
    <glyph glyph-name="b" unicode="b" horiz-adv-x="1040" 
d="M557 880q-62 0 -111 -27.5t-83.5 -78t-53 -123t-18.5 -162.5q0 -87 18 -157t51.5 -120t80.5 -77t106 -27q58 0 105 27t80 77.5t51 122.5t18 162t-17 161t-48.5 120.5t-77 75.5t-101.5 26zM293 1380v-543q56 88 121 128t157 40q84 0 153.5 -36.5t119 -103.5t77 -160.5
t27.5 -207.5q0 -116 -28 -210.5t-80 -162t-124.5 -104.5t-160.5 -37q-92 0 -155 38t-113 124q0 -47 -2.5 -77t-14.5 -60h-137q6 21 9.5 43.5t5 53t2 73t0.5 104.5v1098h143z" />
    <glyph glyph-name="c" unicode="c" horiz-adv-x="952" 
d="M711 663q-10 59 -26.5 100.5t-42 68t-60.5 38.5t-82 12q-260 0 -260 -389q0 -387 264 -387q98 0 149 56.5t64 179.5h143q-14 -184 -103 -271.5t-253 -87.5q-95 0 -171 36t-129.5 102.5t-82.5 160t-29 209.5q0 119 29 214.5t82.5 162t129.5 102t171 35.5q313 0 348 -342
h-141z" />
    <glyph glyph-name="d" unicode="d" horiz-adv-x="1040" 
d="M496 880q-133 0 -195.5 -96.5t-62.5 -292.5q0 -90 17.5 -161t50.5 -120.5t80 -75.5t106 -26t106.5 26.5t80.5 76.5t51 121t18 161t-17.5 161.5t-50.5 122t-79.5 77t-104.5 26.5zM889 295q0 -64 0.5 -109t2.5 -77.5t5.5 -56t9.5 -44.5h-141q-8 29 -11 52t-3 52v15.5
t2 19.5q-27 -44 -56 -75t-62 -51t-72 -29t-85 -9q-89 0 -160.5 36t-122.5 101.5t-78.5 158t-27.5 206.5q0 115 27.5 211t78 164.5t120.5 106.5t155 38q49 0 88.5 -9.5t72.5 -29.5t60.5 -50.5t52.5 -73.5v538h144v-1085z" />
    <glyph glyph-name="e" unicode="e" horiz-adv-x="995" 
d="M754 581q-25 304 -250 304q-218 0 -260 -304h510zM240 469q9 -363 280 -363q80 0 132 34t93 114l134 -17q-90 -254 -361 -254q-98 0 -177 35t-134.5 100.5t-85 158t-29.5 206.5q0 119 29.5 215.5t84 164.5t132 105t172.5 37q90 0 162.5 -34.5t124 -99t79 -156
t27.5 -205.5v-16t-2 -25h-661z" />
    <glyph glyph-name="f" unicode="f" horiz-adv-x="582" 
d="M557 979v-117h-235v-854h-152v854h-137v117h137v61q0 56 2 94.5t6.5 66t12.5 48t20 41.5q32 54 88.5 83.5t128.5 29.5q37 0 73 -7t81 -24v-133q-39 20 -71.5 28.5t-64.5 8.5q-43 0 -73.5 -21t-42.5 -63q-8 -14 -11.5 -51t-3.5 -97v-65h242z" />
    <glyph glyph-name="g" unicode="g" horiz-adv-x="989" 
d="M487 47q-151 0 -224 -43.5t-73 -124.5q0 -39 21.5 -70.5t61.5 -53.5t97 -34t128 -12q141 0 220 46t79 124q0 168 -310 168zM494 876q-50 0 -90 -15t-68.5 -42.5t-44 -67t-15.5 -88.5q0 -46 15 -83t42.5 -63t66 -40t85.5 -14q100 0 154.5 53t54.5 147q0 46 -15 85
t-41.5 67.5t-63.5 44.5t-80 16zM944 870l-199 4q42 -37 63 -95.5t21 -127.5q0 -147 -98 -221q-62 -47 -219 -80q-34 -7 -57 -12.5t-39.5 -10t-28 -9t-22.5 -9.5q-58 -27 -58 -65q0 -17 6 -27.5t26.5 -17t59 -11t103.5 -10.5q73 -6 121.5 -12.5t82.5 -14t58.5 -17t48.5 -22.5
q64 -35 93.5 -91.5t29.5 -129.5q0 -71 -30.5 -126.5t-87.5 -94.5t-138.5 -59.5t-183.5 -20.5q-99 0 -180 19.5t-138 56.5t-88 88.5t-31 116.5q0 87 47.5 144t157.5 95q-57 23 -80.5 49t-23.5 64q0 25 9 45.5t29 39t53.5 36t82.5 35.5q-195 76 -195 280q0 77 25.5 138.5
t72.5 104.5t112.5 66t146.5 23q41 0 74.5 -5t76.5 -17l297 10v-109z" />
    <glyph glyph-name="h" unicode="h" horiz-adv-x="1028" 
d="M293 1380v-516q103 141 278 141q88 0 160 -35t109 -98q13 -23 21 -46t13 -56.5t7 -82.5t2 -122v-557h-144v549q0 53 -1.5 89t-4.5 61.5t-9 43.5t-15 35q-50 92 -168 92q-66 0 -121.5 -31.5t-85.5 -88.5q-41 -77 -41 -215v-535h-143v1372h143z" />
    <glyph glyph-name="i" unicode="i" horiz-adv-x="453" 
d="M227 1392q45 0 74 -29t29 -77q0 -45 -28.5 -73.5t-76.5 -28.5q-45 0 -74.5 28.5t-29.5 73.5q0 48 29 77t77 29zM301 979v-971h-151v971h151z" />
    <glyph glyph-name="j" unicode="j" horiz-adv-x="514" 
d="M293 1392q45 0 73.5 -29t28.5 -77q0 -45 -29.5 -73.5t-74.5 -28.5t-75 28.5t-30 73.5q0 48 29.5 77t77.5 29zM367 979v-887q0 -82 -3 -137.5t-10.5 -94t-20.5 -66t-34 -54.5q-48 -61 -121 -88t-184 -27h-49v127h18h14q154 0 207 84q9 15 15 34t9.5 48t5 71t1.5 103v887
h152z" />
    <glyph glyph-name="k" unicode="k" horiz-adv-x="987" 
d="M293 1380v-1372h-143v1372h143zM879 979l-406 -436l436 -535h-198l-416 528l410 443h174z" />
    <glyph glyph-name="l" unicode="l" horiz-adv-x="453" 
d="M301 1380v-1372h-151v1372h151z" />
    <glyph glyph-name="m" unicode="m" horiz-adv-x="1567" 
d="M268 979q19 -38 19 -133q48 81 115 120t167 39q53 0 94.5 -10t74 -31t57 -53t43.5 -76q95 170 299 170q88 0 151 -32.5t98 -92.5q12 -21 19.5 -41.5t11.5 -49.5t5 -73.5t1 -113.5v-594h-143v594q0 47 -1 78.5t-4.5 54t-9 38t-14.5 30.5q-45 73 -159 73q-131 0 -195 -108
q-20 -33 -28.5 -76.5t-8.5 -110.5v-573h-143v571q0 55 -1 90.5t-3.5 58t-7 36t-11.5 26.5q-24 45 -65.5 66.5t-98.5 21.5q-66 0 -117.5 -28t-80.5 -82q-20 -37 -28.5 -83t-8.5 -112v-565h-143v670q0 76 -0.5 121t-3 74.5t-7.5 52t-14 53.5h141z" />
    <glyph glyph-name="n" unicode="n" horiz-adv-x="1032" 
d="M262 979q11 -31 16 -62.5t5 -79.5q97 168 292 168q103 0 175 -41t104 -116q10 -24 16 -44t9.5 -49t4.5 -73.5t1 -116.5v-557h-144v549q0 54 -1 90t-3.5 61t-7.5 42.5t-14 35.5q-24 48 -66 70t-102 22q-66 0 -122 -31.5t-91 -88.5q-23 -38 -33 -88t-10 -119v-543h-144v641
v99t-1 70t-2.5 49.5t-4 37.5t-6 34t-8.5 40h137z" />
    <glyph glyph-name="o" unicode="o" horiz-adv-x="1032" 
d="M516 882q-62 0 -112.5 -28t-87 -78t-56.5 -120.5t-20 -155.5q0 -90 19 -163t54.5 -124t86.5 -79t116 -28q62 0 113 27.5t87.5 78.5t56.5 122.5t20 160.5q0 87 -20 158.5t-56.5 122t-87.5 78.5t-113 28zM516 1005q94 0 172.5 -37t134 -104.5t86.5 -161.5t31 -209
q0 -113 -31 -206.5t-86.5 -161t-134 -105t-172.5 -37.5q-95 0 -173 37.5t-133.5 105.5t-86.5 164t-31 212q0 109 31.5 201.5t88 159.5t134.5 104.5t170 37.5z" />
    <glyph glyph-name="p" unicode="p" horiz-adv-x="1040" 
d="M553 880q-59 0 -107.5 -26.5t-83 -77t-53 -122t-18.5 -161.5q0 -86 19 -157t53.5 -121.5t82.5 -78.5t107 -28q58 0 104.5 25.5t78 74.5t48.5 119t17 160t-17 162.5t-48.5 124t-78 79t-104.5 27.5zM150 690q0 64 -0.5 107t-3 74.5t-6 56t-9.5 51.5h141q4 -17 7 -30.5
t5.5 -28.5t3.5 -35t1 -50q53 92 117.5 131t156.5 39q87 0 158 -37t121.5 -104.5t78 -162.5t27.5 -210q0 -114 -27 -207.5t-76 -160t-118 -103.5t-154 -37q-92 0 -159 37t-121 123v-538h-143v1085z" />
    <glyph glyph-name="q" unicode="q" horiz-adv-x="1040" 
d="M492 880q-59 0 -106 -28t-80 -79.5t-50.5 -124.5t-17.5 -163q0 -87 17.5 -156.5t49.5 -118.5t77 -75.5t101 -26.5q61 0 110.5 27t83.5 77t52.5 121.5t18.5 161.5q0 86 -18.5 157t-52 121.5t-81 78.5t-104.5 28zM745 141q-55 -86 -118.5 -122t-149.5 -36q-87 0 -158 36
t-122 102t-79 158.5t-28 205.5q0 117 28 212.5t79 164t123 106t161 37.5q94 0 158 -40t109 -128q2 51 4.5 83.5t13.5 58.5h141q-6 -22 -9.5 -45t-5.5 -55.5t-2.5 -77.5t-0.5 -111v-1085h-144v536z" />
    <glyph glyph-name="r" unicode="r" horiz-adv-x="670" 
d="M272 979q19 -58 19 -150v-25t-2 -34q50 123 110.5 179t139.5 56q54 0 116 -30v-144q-24 12 -42 19.5t-32.5 12t-27.5 6t-27 1.5q-57 0 -105.5 -38.5t-80.5 -110.5q-23 -51 -33 -116t-10 -163v-434h-145v637q0 84 -0.5 133t-2 82t-5 58.5t-9.5 60.5h137z" />
    <glyph glyph-name="s" unicode="s" horiz-adv-x="897" 
d="M653 713q-21 174 -198 174q-88 0 -137.5 -40t-49.5 -106q0 -30 9 -51.5t34 -39.5t69 -35t114 -38q59 -18 101.5 -32.5t72.5 -28.5t50.5 -29t35.5 -33q55 -64 55 -167q0 -71 -24 -127.5t-69 -95.5t-110.5 -60t-148.5 -21q-367 0 -367 326h139q19 -205 226 -205
q100 0 153.5 46t53.5 124q0 76 -66 115q-12 7 -23.5 13t-33 14.5t-58 20t-98.5 30.5q-71 21 -120.5 46t-80.5 56.5t-45 71t-14 90.5q0 61 24.5 111.5t68.5 86.5t105.5 56t135.5 20q320 0 336 -292h-140z" />
    <glyph glyph-name="t" unicode="t" horiz-adv-x="643" 
d="M578 979l-3 -117h-231l-8 -492q-1 -62 -1.5 -95.5t0.5 -51t2.5 -25.5t4.5 -18q18 -68 102 -68q29 0 63.5 9t76.5 26l-2 -127q-48 -17 -87 -24.5t-83 -7.5q-148 0 -201 92q-14 24 -19.5 53.5t-5.5 83.5v18.5t0.5 24t1.5 42t2 73.5l13 487h-148l2 117h148l6 280h141
l-6 -280h232z" />
    <glyph glyph-name="u" unicode="u" horiz-adv-x="1018" 
d="M289 979v-594q0 -41 2 -71.5t6.5 -54t11.5 -41t17 -32.5q51 -74 161 -74q66 0 116.5 29.5t82.5 83.5q22 37 30.5 84t8.5 119v551h143v-676v-125t2.5 -74.5t7 -48.5t13.5 -47h-141q-11 32 -15 61.5t-6 67.5q-43 -82 -103.5 -118t-154.5 -36q-100 0 -174 40.5t-113 115.5
q-11 21 -18.5 43.5t-12 51t-6.5 65t-2 86.5v594h144z" />
    <glyph glyph-name="v" unicode="v" horiz-adv-x="883" 
d="M170 979l272 -815l271 815h147l-344 -983h-151l-345 983h150z" />
    <glyph glyph-name="w" unicode="w" horiz-adv-x="1354" 
d="M178 979l209 -770l227 770h123l228 -770l209 770h147l-281 -983h-141l-223 762l-225 -762h-140l-280 983h147z" />
    <glyph glyph-name="x" unicode="x" horiz-adv-x="903" 
d="M229 979l224 -346l225 346h174l-311 -455l350 -516h-172l-266 401l-269 -401h-172l355 516l-304 455h166z" />
    <glyph glyph-name="y" unicode="y" horiz-adv-x="897" 
d="M186 979l265 -809l272 809h149l-319 -903q-34 -96 -56.5 -156t-40 -97.5t-34.5 -61.5t-39 -48q-106 -115 -283 -115h-17t-28 2v127q70 0 117.5 10t82 39t61 82.5t55.5 139.5l-338 981h153z" />
    <glyph glyph-name="z" unicode="z" horiz-adv-x="815" 
d="M772 979v-107l-557 -745h547v-119h-717v113l551 739h-508v119h684z" />
    <glyph glyph-name="braceleft" unicode="{" horiz-adv-x="575" 
d="M340 739q0 -51 -5.5 -87.5t-18.5 -64.5t-35 -50.5t-56 -45.5q34 -21 56.5 -43t35.5 -50t18 -64.5t5 -87.5v-326q0 -45 3 -77t10 -54t18.5 -35t29.5 -20q26 -11 58.5 -17t72.5 -6v-111q-12 -2 -19 -2h-13q-83 0 -139 16.5t-89.5 54.5t-48 100.5t-14.5 154.5v324
q0 46 -6 79t-20 56t-36 37.5t-53 23.5v96q31 9 53 23.5t36 37.5t20 56t6 80v322q0 71 8 123t26 89t46 60t69 37q18 6 33 9t33 4.5t43.5 2t64.5 0.5v-110q-51 0 -87.5 -8t-59.5 -25q-13 -10 -21.5 -23.5t-14 -34t-7.5 -49.5t-2 -69v-326z" />
    <glyph glyph-name="bar" unicode="|" 
d="M584 1374v-1708h-144v1708h144z" />
    <glyph glyph-name="braceright" unicode="}" horiz-adv-x="575" 
d="M233 246q0 49 5.5 86t18.5 65.5t35 51t56 42.5q-35 22 -57.5 44.5t-35.5 50.5t-17.5 65t-4.5 88v326q0 69 -6.5 106.5t-23.5 57.5q-41 45 -160 45v110q38 0 63 -0.5t43 -2t33 -4.5t33 -9q40 -13 68.5 -36.5t46.5 -60t26.5 -89t8.5 -123.5v-322q0 -47 5.5 -80t19 -56
t36 -37.5t55.5 -23.5v-96q-33 -8 -55.5 -22.5t-36 -38t-19 -56.5t-5.5 -79v-324q0 -92 -14.5 -154.5t-48 -100.5t-89 -54.5t-137.5 -16.5h-13.5t-19.5 2v111q118 0 160 45q17 19 23.5 57t6.5 107v326z" />
    <glyph glyph-name="asciitilde" unicode="~" horiz-adv-x="1366" 
d="M190 1259q33 64 64 109t63.5 72.5t69.5 40t82 12.5q21 0 44 -3.5t50 -11.5t60.5 -22t76.5 -35q45 -22 75 -35.5t51.5 -20.5t38 -9t34.5 -2q30 0 54.5 7t46 23.5t42.5 44t45 68.5l87 -53q-60 -119 -129.5 -173.5t-161.5 -54.5q-23 0 -44.5 4t-52 15.5t-75.5 31t-115 50.5
q-42 19 -75 29t-62 10q-54 0 -97 -35t-86 -117z" />
    <glyph glyph-name="Euro" unicode="&#x20ac;" horiz-adv-x="1116" 
d="M954 860l-49 -107h-563q-2 -23 -2 -36v-33v-29t2 -31h506l-49 -106h-449q43 -397 365 -397q75 0 142.5 22.5t121.5 65.5q19 15 34 29t29 31.5t29 39.5t33 53v-202q-86 -88 -185.5 -129t-228.5 -41q-450 0 -502 528h-155l45 106h102v31q0 17 1 44.5t3 53.5h-151l45 107
h117q43 263 172.5 392.5t341.5 129.5q58 0 115 -11.5t109 -33.5t97.5 -55t81.5 -76l-65 -143q-78 104 -159.5 148t-180.5 44q-285 0 -353 -395h600z" />
    <glyph glyph-name="quotesinglbase" unicode="&#x201a;" horiz-adv-x="465" 
d="M82 -232q30 28 55.5 59t44 62.5t30.5 61t15 55.5h-16q-21 0 -40.5 8.5t-33.5 23.5t-22.5 34.5t-8.5 41.5q0 24 9.5 45t25.5 36.5t38 24.5t46 9q57 0 92 -41.5t35 -107.5q0 -143 -145 -312h-125z" />
    <glyph glyph-name="florin" unicode="&#x192;" horiz-adv-x="1092" 
d="M926 979v-119h-232l-121 -692q-14 -78 -25 -131t-21 -89.5t-20 -60.5t-22 -45q-70 -121 -219 -121q-54 0 -109 16.5t-124 51.5l26 133q57 -38 103 -55t94 -17q37 0 61 11.5t42.5 46.5t34 100t34.5 172l121 680h-193v119h213l25 139q18 98 37.5 159t48.5 99q74 98 205 98
q87 0 172 -43l-21 -125q-27 12 -48.5 20.5t-39 13.5t-32 7t-29.5 2q-32 0 -54.5 -12t-40 -42t-31 -81t-26.5 -129l-18 -106h209z" />
    <glyph glyph-name="quotedblbase" unicode="&#x201e;" horiz-adv-x="797" 
d="M412 -232q30 28 55 59t43.5 62.5t30 61t14.5 55.5h-14q-23 0 -42.5 8t-33.5 22.5t-22.5 34t-8.5 43.5t9.5 45t25.5 36.5t37.5 24.5t46.5 9q57 0 92 -41.5t35 -107.5q0 -75 -34.5 -150t-108.5 -162h-125zM72 -232q30 28 55.5 59t44 62.5t30.5 61t15 55.5h-14
q-23 0 -42.5 8.5t-33.5 22.5t-22.5 33.5t-8.5 41.5q0 25 9.5 46t25.5 37t38 25t46 9q57 0 92 -41.5t35 -107.5q0 -75 -35 -150t-110 -162h-125z" />
    <glyph glyph-name="ellipsis" unicode="&#x2026;" horiz-adv-x="1419" 
d="M1157 223q24 0 45.5 -9.5t37 -25.5t25 -37.5t9.5 -46.5q0 -24 -9.5 -45t-25.5 -36.5t-37.5 -25t-46.5 -9.5q-24 0 -45 9.5t-37 25t-25.5 36.5t-9.5 45q0 25 9.5 46.5t25.5 37.5t38 25.5t46 9.5zM711 223q24 0 45 -9.5t36.5 -25.5t25 -37.5t9.5 -46.5q0 -24 -9.5 -45
t-25.5 -36.5t-37.5 -25t-45.5 -9.5t-45.5 9.5t-37 25t-25 36.5t-9.5 45q0 25 9.5 46.5t25.5 37.5t37.5 25.5t46.5 9.5zM262 223q24 0 45.5 -9.5t37 -25.5t25 -37.5t9.5 -46.5q0 -24 -9.5 -45t-25.5 -36.5t-37.5 -25t-46.5 -9.5q-24 0 -45 9.5t-37 25t-25.5 36.5t-9.5 45
q0 25 9.5 47t25.5 38t38 25t46 9z" />
    <glyph glyph-name="dagger" unicode="&#x2020;" horiz-adv-x="1075" 
d="M800 1391q-75 0 -115 -59.5t-40 -174.5q0 -109 40.5 -169.5t112.5 -60.5t112.5 61t40.5 170q0 108 -40.5 170.5t-110.5 62.5zM1036 1040q0 -39 0.5 -66t1.5 -46.5t3 -33.5t6 -27h-85q-5 18 -6.5 31.5t-1.5 31.5q0 5 -0.5 9t1.5 12q-32 -54 -70 -76.5t-95 -22.5
q-53 0 -96.5 21.5t-74 61t-47 95.5t-16.5 124q0 69 16.5 126.5t47 98.5t72.5 64t93 23q59 0 97 -23.5t67 -74.5v323h87v-651zM108 1451q7 -18 10 -37t3 -48q29 51 72 82t103 31q61 0 104.5 -30.5t62.5 -75.5q6 -14 9.5 -26t6 -29.5t3 -44.5t0.5 -70v-334h-87v329
q0 33 -0.5 54.5t-2 36.5t-4.5 25.5t-8 21.5q-25 55 -101 55q-40 0 -73.5 -18.5t-54.5 -53.5q-14 -23 -20 -52.5t-6 -71.5v-326h-86v384q0 53 -0.5 83t-2 49t-4 32.5t-6.5 33.5h82z" />
    <glyph glyph-name="daggerdbl" unicode="&#x2021;" horiz-adv-x="1377" 
d="M476 1356q-12 105 -118 105q-54 0 -83.5 -24t-29.5 -64q0 -16 5.5 -29t20.5 -24t41.5 -22t68.5 -23q35 -11 60.5 -19.5t43.5 -17t30.5 -17.5t21.5 -20q33 -41 33 -100q0 -88 -55.5 -135.5t-155.5 -47.5q-220 0 -220 196h83q12 -123 136 -123q60 0 92 27t32 75t-40 69
l-15 7.5t-19.5 8.5t-34.5 12.5t-59 18.5q-42 13 -72 27.5t-48.5 33.5t-27 42.5t-8.5 54.5q0 37 15 67t41.5 51.5t63.5 33.5t81 12q191 0 201 -175h-84zM757 1519l176 -495l177 495h114v-589h-76v486l-176 -486h-79l-175 486v-486h-77v589h116z" />
    <glyph glyph-name="circumflex" unicode="&#x2c6;" 
d="M430 1421h164l233 -287h-139l-176 193l-174 -193h-139z" />
    <glyph glyph-name="perthousand" unicode="&#x2030;" horiz-adv-x="1774" 
d="M309 1282q-32 0 -58 -16.5t-45 -46.5t-29.5 -71.5t-10.5 -90.5t10.5 -90.5t29.5 -71.5t45 -47t58 -17q31 0 57 17t45 47t29.5 71.5t10.5 90.5t-10.5 90.5t-29.5 71.5t-45 46.5t-57 16.5zM311 1384q54 0 100.5 -25.5t81 -70t54.5 -104t20 -127.5q0 -69 -19.5 -129
t-54 -104.5t-82 -69.5t-102.5 -25t-102.5 25t-82.5 69.5t-55 104.5t-20 129q0 70 20 130t55 104t83 68.5t104 24.5zM1468 551q-32 0 -58 -16.5t-45 -46.5t-29.5 -71.5t-10.5 -91.5t10.5 -91t29.5 -71t45 -46.5t58 -16.5q31 0 57 16.5t45 46.5t29.5 71t10.5 91
q0 49 -10.5 90.5t-29.5 71.5t-45 47t-57 17zM1470 653q54 0 100.5 -25t81 -69.5t54.5 -104.5t20 -129t-20 -128.5t-54.5 -104t-82.5 -69.5t-103 -25q-56 0 -103 25t-81.5 69.5t-54 104t-19.5 128.5q0 71 20 131t55 104t83 68.5t104 24.5zM866 551q-32 0 -58 -17t-45 -47
t-29.5 -71.5t-10.5 -90.5q0 -50 10.5 -91t29 -71t44.5 -46.5t57 -16.5t57.5 16.5t46 46.5t30 71t10.5 91q0 49 -10.5 90.5t-29.5 71.5t-45 47t-57 17zM868 653q54 0 100.5 -25t81 -69.5t54.5 -104.5t20 -129t-19.5 -128.5t-54 -104t-82 -69.5t-102.5 -25t-102.5 25
t-82.5 69.5t-55 104t-20 128.5q0 71 20 131t55 104t83 68.5t104 24.5zM1051 1374l-801 -1366h-127l801 1366h127z" />
    <glyph glyph-name="Scaron" unicode="&#x160;" horiz-adv-x="1120" 
d="M645 1511h-164l-266 269h141l207 -181l205 181h143zM819 1020q-11 118 -79.5 180.5t-186.5 62.5q-55 0 -101 -15.5t-79 -43t-51.5 -65.5t-18.5 -84t20 -80.5t62 -63.5q16 -11 29 -19t36 -19.5t64.5 -30.5t114.5 -52q66 -30 114.5 -53.5t84 -45t60.5 -42.5t44 -45
q76 -97 76 -229q0 -89 -32.5 -161t-91.5 -123t-141 -78.5t-182 -27.5q-133 0 -224 42.5t-151 123.5q-21 28 -35.5 56.5t-23.5 61t-14.5 70.5t-8.5 85h150q22 -303 313 -303q62 0 114 17t89.5 48t58.5 74t21 96q0 98 -82 168q-17 15 -33 26t-39 23t-56.5 27.5t-84.5 38.5
q-112 51 -180.5 87.5t-104.5 65.5q-120 100 -120 250q0 78 30.5 143.5t85.5 113t130 74t165 26.5q115 0 202.5 -43t141.5 -121q31 -45 45 -94t19 -121h-150z" />
    <glyph glyph-name="guilsinglleft" unicode="&#x2039;" horiz-adv-x="494" 
d="M254 8l-184 477l184 494h115l-158 -494l158 -477h-115z" />
    <glyph glyph-name="OE" unicode="&#x152;" horiz-adv-x="1905" 
d="M670 1263q-93 0 -167.5 -40t-126.5 -114.5t-80 -180.5t-28 -238q0 -130 28 -235t80 -179.5t125 -114.5t163 -40q91 0 164 39.5t124 114t78 180t27 237.5q0 129 -27.5 234.5t-78 180t-122 115.5t-159.5 41zM1059 1374h743v-133h-592v-459h547v-133h-547v-508h605v-133
h-756v174q-43 -53 -85.5 -90.5t-89 -61t-99.5 -34.5t-117 -11q-128 0 -232 50t-177.5 142.5t-114 222.5t-40.5 290t41 290.5t115.5 223.5t178.5 144t231 51q62 0 115.5 -11t101 -35t90 -61.5t82.5 -89.5v172z" />
    <glyph glyph-name="quoteleft" unicode="&#x2018;" horiz-adv-x="457" 
d="M385 1397q-28 -26 -53 -57t-44.5 -62.5t-32 -62.5t-15.5 -56h14q22 0 41.5 -8t33.5 -22.5t22.5 -34.5t8.5 -44t-9.5 -44.5t-25.5 -36t-37.5 -24.5t-45.5 -9q-57 0 -92 41.5t-35 107.5q0 75 36.5 154t108.5 158h125z" />
    <glyph glyph-name="quoteright" unicode="&#x2019;" horiz-adv-x="465" 
d="M82 936q30 28 55.5 59.5t44 63t30.5 61.5t15 55h-16q-22 0 -41 8t-33.5 22.5t-22.5 34.5t-8 44t9.5 44.5t25.5 36.5t38 25t46 9q57 0 92 -42t35 -108q0 -144 -145 -313h-125z" />
    <glyph glyph-name="quotedblleft" unicode="&#x201c;" horiz-adv-x="776" 
d="M385 1397q-28 -26 -53 -57t-44.5 -62.5t-32 -62.5t-15.5 -56h14q22 0 41.5 -8t33.5 -22.5t22.5 -34.5t8.5 -44t-9.5 -44.5t-25.5 -36t-37.5 -24.5t-45.5 -9q-57 0 -92 41.5t-35 107.5q0 75 36.5 154t108.5 158h125zM702 1397q-27 -27 -52 -58t-44 -62.5t-31.5 -62
t-15.5 -55.5h14q45 0 76 -30.5t31 -78.5q0 -24 -9.5 -44.5t-25.5 -36t-38.5 -24.5t-47.5 -9q-57 0 -92 41.5t-35 107.5q0 75 38 154t108 158h124z" />
    <glyph glyph-name="quotedblright" unicode="&#x201d;" horiz-adv-x="797" 
d="M412 936q60 60 98.5 122.5t44.5 116.5q-57 0 -89 27.5t-32 81.5q0 24 9.5 44.5t25.5 36.5t37.5 25t46.5 9q57 0 92 -41.5t35 -110.5q0 -72 -34 -147.5t-109 -163.5h-125zM72 936q30 28 55.5 59.5t44 63t30.5 61.5t15 55q-57 0 -89 29t-32 80q0 24 9.5 44.5t25.5 36.5
t38 25t46 9q57 0 92 -41.5t35 -110.5q0 -142 -145 -311h-125z" />
    <glyph glyph-name="bullet" unicode="&#x2022;" horiz-adv-x="1366" 
d="M690 985q57 0 107.5 -22.5t89 -61t60.5 -90t22 -109.5q0 -59 -22.5 -110.5t-60.5 -90t-90 -61t-110 -22.5q-59 0 -110.5 22.5t-90.5 60.5t-61.5 89.5t-22.5 109.5q0 59 22.5 111t61.5 90.5t91.5 61t113.5 22.5z" />
    <glyph glyph-name="endash" unicode="&#x2013;" 
d="M881 579v-112h-738v112h738z" />
    <glyph glyph-name="emdash" unicode="&#x2014;" horiz-adv-x="1178" 
d="M1178 579v-112h-1178v112h1178z" />
    <glyph glyph-name="tilde" unicode="&#x2dc;" 
d="M207 1173q43 213 174 213q31 0 61.5 -12t75.5 -41q27 -18 46 -29t33 -17.5t25 -8.5t23 -2q66 0 90 118l84 -20q-14 -106 -59 -162.5t-111 -56.5q-31 0 -66 14t-83 43q-27 16 -45 26.5t-31 16.5t-23 8t-22 2q-64 0 -88 -112z" />
    <glyph glyph-name="trademark" unicode="&#x2122;" horiz-adv-x="1377" 
d="M757 1519l176 -495l177 495h114v-589h-76v486l-176 -486h-79l-175 486v-486h-77v589h116zM557 1519v-66h-159v-523h-79v523h-162v66h400z" />
    <glyph glyph-name="scaron" unicode="&#x161;" horiz-adv-x="897" 
d="M653 713q-21 174 -198 174q-88 0 -137.5 -40t-49.5 -106q0 -30 9 -51.5t34 -39.5t69 -35t114 -38q59 -18 101.5 -32.5t72.5 -28.5t50.5 -29t35.5 -33q55 -64 55 -167q0 -71 -24 -127.5t-69 -95.5t-110.5 -60t-148.5 -21q-367 0 -367 326h139q19 -205 226 -205
q100 0 153.5 46t53.5 124q0 76 -66 115q-12 7 -23.5 13t-33 14.5t-58 20t-98.5 30.5q-71 21 -120.5 46t-80.5 56.5t-45 71t-14 90.5q0 61 24.5 111.5t68.5 86.5t105.5 56t135.5 20q320 0 336 -292h-140zM547 1134h-164l-231 287h139l174 -192l174 192h139z" />
    <glyph glyph-name="guilsinglright" unicode="&#x203a;" horiz-adv-x="5182" 
d="M639 1177l-410 -696h408zM1010 481v-129h-230v-336h-149v336h-547v114l541 903h153v-888h232zM4963 813q-46 214 -249 214q-73 0 -132 -32t-100 -91.5t-63.5 -144.5t-22.5 -190q0 -106 22 -190.5t63.5 -144t100.5 -91t134 -31.5q115 0 182 68.5t81 213.5h117
q-30 -391 -376 -391q-105 0 -189 39.5t-143.5 112.5t-91.5 177t-32 234t32 235.5t91 179.5t142.5 114.5t186.5 40.5q319 0 361 -323h-114zM3954 23v1093h127v-1093h-127zM3768 1116v-106h-284v-987h-124v987h-283v106h691zM2684 964l-173 -544h345zM2737 1122l377 -1099
h-128l-96 290h-411l-99 -290h-126l377 1099h106zM1332 1116l306 -958l308 958h185v-1093h-116v970l-315 -970h-123l-314 970v-970h-117v1093h186z" />
    <glyph glyph-name="oe" unicode="&#x153;" horiz-adv-x="1688" 
d="M516 882q-62 0 -113 -27.5t-87 -78.5t-56 -123.5t-20 -161.5q0 -86 19.5 -157t55.5 -121.5t86.5 -78.5t112.5 -28q61 0 110.5 28t84.5 79t54 122t19 158q0 86 -19.5 157.5t-54.5 123t-84 80t-108 28.5zM1440 571q-3 73 -21 131.5t-49.5 99t-76 62t-99.5 21.5
q-112 0 -176 -75.5t-84 -238.5h506zM930 461q12 -355 284 -355q168 0 230 150l133 -19q-89 -254 -360 -254q-240 0 -361 213q-66 -112 -146 -162.5t-192 -50.5q-94 0 -172 37t-134.5 104.5t-88 161t-31.5 207.5q0 115 31 209t87.5 161.5t135.5 104.5t174 37
q118 0 199.5 -52.5t138.5 -166.5q63 117 145.5 168t198.5 51q112 0 192 -49.5t134 -152.5q35 -67 51 -135t16 -146v-24.5t-2 -36.5h-663z" />
    <glyph glyph-name="Ydieresis" unicode="&#x178;" horiz-adv-x="1049" 
d="M201 1374l327 -639l322 639h176l-426 -793l2 -573h-153l2 573l-426 793h176zM711 1763q24 0 44.5 -9.5t36 -25t24.5 -37t9 -45.5t-9 -45.5t-24.5 -37t-37 -24.5t-45.5 -9t-45.5 9.5t-37 25t-25 36.5t-9.5 45q0 25 9 46t25 37t37.5 25t47.5 9zM344 1763q24 0 45 -9.5
t36.5 -25t24.5 -37t9 -45.5t-9 -45.5t-25 -37t-37 -24.5t-46 -9q-24 0 -45 9.5t-37 25t-25.5 36.5t-9.5 45q0 25 9 46t25 37t37.5 25t47.5 9z" />
    <glyph glyph-name="nonbreakingspace" unicode="&#xa0;" horiz-adv-x="256" 
 />
    <glyph glyph-name="exclamdown" unicode="&#xa1;" horiz-adv-x="886" 
d="M366 1296q-12 105 -118 105q-54 0 -83.5 -24t-29.5 -64q0 -16 5.5 -29t20.5 -24t41.5 -22t68.5 -23q35 -11 60.5 -19.5t43.5 -17t30.5 -17.5t21.5 -20q33 -41 33 -100q0 -88 -55.5 -135.5t-155.5 -47.5q-220 0 -220 196h83q12 -123 136 -123q60 0 92 27t32 75t-40 69
l-15 7.5t-19.5 8.5t-34.5 12.5t-59 18.5q-42 13 -72 27.5t-48.5 33.5t-27 42.5t-8.5 54.5q0 37 15 67t41.5 51.5t63.5 33.5t81 12q191 0 201 -175h-84zM831 1456l-2 -70h-138l-5 -296q-1 -36 -1 -56t0.5 -31t1.5 -16t3 -11q12 -40 61 -40q33 0 84 21l-1 -77
q-29 -10 -52.5 -14.5t-49.5 -4.5q-90 0 -121 55q-8 15 -11.5 32.5t-3.5 50.5v11v14t0.5 25t1.5 44l8 293h-89l2 70h88l4 168h85l-4 -168h139z" />
    <glyph glyph-name="cent" unicode="&#xa2;" horiz-adv-x="968" 
d="M550 1692v-310q61 85 167 85q54 0 96.5 -21t64.5 -59q8 -14 13 -27.5t8 -34t4 -49.5t1 -73v-335h-87v330q0 31 -0.5 53t-2.5 37.5t-5.5 26t-9.5 20.5q-33 55 -100 55q-40 0 -73.5 -18.5t-51.5 -53.5q-24 -45 -24 -129v-321h-86v824h86zM348 1451l-1 -70h-139l-5 -295
q-1 -37 -1 -57t0.5 -30.5t1.5 -15.5t3 -11q11 -41 61 -41q33 0 84 21l-1 -76q-29 -11 -52.5 -15.5t-49.5 -4.5q-89 0 -121 56q-8 14 -11.5 32t-3.5 50v11t0.5 14.5t1 25.5t1.5 44l7 292h-88l1 70h89l3 168h85l-4 -168h139z" />
    <glyph glyph-name="sterling" unicode="&#xa3;" horiz-adv-x="1040" 
d="M147 1450q12 -44 12 -90v-15t-2 -20q31 75 66.5 108t83.5 33q32 0 70 -18v-87q-29 14 -44.5 19t-32.5 5q-72 0 -112 -90q-14 -31 -20 -69t-6 -98v-261h-87v383v80t-1 49.5t-3 34.5t-6 36h82zM689 1391q-75 0 -115 -59.5t-40 -174.5q0 -109 40 -169.5t112 -60.5t113 61
t41 170q0 108 -40.5 170.5t-110.5 62.5zM924 1040q0 -39 0.5 -66t2 -46.5t3.5 -33.5t5 -27h-84q-5 18 -7 31.5t-2 31.5v9t1 12q-32 -54 -70 -76.5t-95 -22.5q-53 0 -96 21.5t-73.5 61t-47 95.5t-16.5 124q0 69 16.5 126.5t46.5 98.5t72.5 64t93.5 23q59 0 96.5 -23.5
t67.5 -74.5v323h86v-651z" />
    <glyph glyph-name="currency" unicode="&#xa4;" horiz-adv-x="1366" 
d="M686 1089q-74 0 -137.5 -26.5t-110.5 -73t-73.5 -110t-26.5 -136.5q0 -71 27.5 -133.5t74 -109t109 -74t133.5 -27.5q70 0 133 27.5t109.5 74t74 109t27.5 133.5t-26.5 134t-73 110t-108.5 74.5t-132 27.5zM305 454q-104 128 -104 289q0 40 6 77t18.5 72t32 70t47.5 72
l-196 195l84 84l194 -195q69 51 143 75.5t152 24.5q81 0 154 -23.5t139 -74.5l194 191l82 -82l-192 -193q27 -34 46.5 -67.5t32 -68.5t19 -73.5t6.5 -81.5q0 -156 -102 -291l194 -194l-81 -84l-195 194q-130 -100 -295 -100q-78 0 -149 23t-146 77l-192 -194l-84 84z" />
    <glyph glyph-name="yen" unicode="&#xa5;" horiz-adv-x="1354" 
d="M1206 1360q-26 116 -135 116q-40 0 -71.5 -17.5t-54 -49.5t-34.5 -78t-12 -103t12 -102.5t34.5 -78t54.5 -49.5t72 -17q125 0 142 153h64q-18 -212 -203 -212q-57 0 -102.5 21t-77.5 61t-49.5 96t-17.5 127q0 70 17.5 127t49.5 97t77 62t100 22q85 0 134.5 -45t60.5 -130
h-61zM321 1525l166 -518l165 518h101v-591h-63v524l-171 -524h-65l-170 524v-524h-64v591h101z" />
    <glyph glyph-name="brokenbar" unicode="&#xa6;" 
d="M584 321v-655h-144v655h144zM584 1374v-682h-144v682h144z" />
    <glyph glyph-name="section" unicode="&#xa7;" horiz-adv-x="6562" 
d="M6263 954q-51 0 -96.5 -67t-90.5 -215q-22 -72 -39.5 -139.5t-29.5 -128.5t-18.5 -114.5t-6.5 -95.5q0 -137 80 -137q24 0 45 13t41.5 42t41.5 74.5t44 110.5q24 67 43.5 139.5t34 142.5t22 133.5t7.5 112.5q0 63 -20.5 96t-57.5 33zM6273 1012q61 0 111 -23t84.5 -66
t53.5 -104.5t19 -138.5q0 -62 -9.5 -126t-28 -125.5t-44.5 -118.5t-59 -105q-69 -100 -158.5 -152.5t-189.5 -52.5q-139 0 -204.5 83t-65.5 251q0 67 11.5 136.5t33 134.5t51.5 124.5t67 107.5q67 88 150.5 131.5t177.5 43.5zM4745 954q88 9 161 24.5t136 35.5
q2 -17 3 -30.5t1 -21.5q0 -34 -6 -80q102 130 244 130q40 0 73.5 -13t57 -36t36.5 -56t13 -72q0 -38 -8 -83.5t-23 -108.5l-69 -283q-14 -59 -22.5 -92.5t-12.5 -53t-5 -30t-1 -22.5q0 -50 33 -50q24 0 43 30t43 108l53 -17q-53 -233 -217 -233q-37 0 -68.5 13t-54.5 36
t-36 54.5t-13 68.5q0 31 6.5 70.5t21.5 99.5l88 360q8 29 12.5 59.5t4.5 53.5q0 38 -17 63t-43 25q-55 0 -93.5 -55.5t-69.5 -177.5l-162 -648h-226l183 731l6 29l6 31q6 27 6 45q0 12 -4 20t-15 12.5t-30 7t-49 3.5zM3779 -6q-94 0 -146.5 -44.5t-52.5 -125.5
q0 -75 62 -114.5t180 -39.5q103 0 161 52.5t58 146.5q0 34 -14 57.5t-45.5 38.5t-81.5 22t-121 7zM4061 954q-37 0 -66 -37.5t-57 -124.5q-13 -41 -24.5 -82.5t-20 -79.5t-13.5 -69.5t-5 -52.5q0 -42 16 -67t45 -25q67 0 127 186q12 37 22 75.5t16.5 73.5t10.5 65t4 50
q0 88 -55 88zM4428 954l-27 -102h-121q17 -56 17 -99q0 -85 -28.5 -162t-76.5 -128q-24 -26 -49.5 -44.5t-55.5 -29.5t-67.5 -16t-85.5 -5q-75 -24 -109 -51.5t-34 -64.5q0 -22 20 -31q7 -5 12.5 -7.5t18 -5t35 -4.5t63.5 -6q85 -8 142 -23t91 -41t48 -65.5t14 -97.5
q0 -86 -29.5 -155.5t-84 -118t-132 -75t-172.5 -26.5q-74 0 -133.5 15.5t-100.5 44.5t-63 71t-22 95q0 169 178 227q-29 29 -42 55.5t-13 61.5q0 34 10 62t32.5 54t60 52t91.5 55q-63 42 -92.5 96t-29.5 129q0 37 7.5 75.5t21 75.5t33.5 70.5t46 61.5q103 115 256 115
q60 0 100 -15.5t78 -52.5zM3326 1425q24 0 45.5 -9.5t37.5 -27t25 -40.5t9 -50q0 -31 -11 -58t-30 -47.5t-44 -32t-53 -11.5q-51 0 -84.5 36t-33.5 93q0 30 11 56.5t30 47t44 32t54 11.5zM3162 278q-8 -27 -12.5 -46t-7 -32.5t-3.5 -24t-1 -20.5q0 -43 24 -43q11 0 20.5 5.5
t19.5 21t21.5 42.5t26.5 69l53 -19q-54 -231 -219 -231q-36 0 -66 12.5t-51 35.5t-33 54.5t-12 69.5q0 29 10 82t31 131l111 409q5 20 8.5 40t3.5 32t-4 19t-14.5 11t-29 5.5t-48.5 1.5l16 53q40 4 85.5 11.5t92 17t93 20.5t88.5 23zM2638 713h-66q2 18 3 33.5t1 29.5
q0 75 -35.5 120.5t-95.5 45.5q-30 0 -56.5 -11.5t-46 -31.5t-31 -46.5t-11.5 -56.5q0 -32 15 -56.5t57 -55.5q43 -32 70 -53t45 -36t30 -27l25 -25q35 -37 52 -81.5t17 -95.5q0 -77 -27.5 -144.5t-76 -117t-114.5 -78t-144 -28.5q-43 0 -78.5 7.5t-67.5 24t-62 43.5t-61 66
l52 229h59q-2 -19 -3 -32t-2 -23t-1 -18v-17q0 -47 11.5 -85.5t32.5 -66t50.5 -42.5t65.5 -15t67.5 16.5t54.5 44.5t36.5 66t13.5 82q0 23 -3.5 40.5t-13.5 33.5t-27 32.5t-44 37.5q-67 51 -108 87.5t-64 68t-31 62t-8 68.5q0 64 23.5 120t65 97.5t98 65t122.5 23.5
q21 0 38 -2t34 -6.5t35.5 -11.5t41.5 -17q20 -9 34.5 -13t21.5 -4q12 0 25 6t42 23zM1348 471q8 0 12 0.5t16 1.5q49 2 95.5 36.5t82.5 89.5t58 123.5t22 139.5q0 42 -13 67t-36 25q-27 0 -58.5 -36t-63 -100t-61.5 -152.5t-54 -194.5zM1747 327q-63 -169 -157.5 -248
t-227.5 -79q-59 0 -107 21t-82 60t-52.5 94.5t-18.5 123.5q0 67 12 138t34.5 140t54.5 132.5t71 115.5q139 187 330 187q100 0 157.5 -57t57.5 -156q0 -199 -222 -326q-31 -18 -61 -31t-62 -22t-67.5 -14.5t-77.5 -8.5q-11 -47 -15.5 -81.5t-4.5 -69.5q0 -75 31 -119.5
t85 -44.5q69 0 131.5 63.5t110.5 181.5h80zM500 954q-110 8 -224 -414q-14 -51 -25 -103t-19 -99.5t-12.5 -88.5t-4.5 -71q0 -57 18.5 -89t49.5 -32q96 0 186 305q19 64 36 133.5t30.5 134t21.5 117.5t8 84q0 118 -65 123zM692 340q-9 -36 -15 -61.5t-9 -44.5t-4.5 -33
t-1.5 -27q0 -25 9.5 -41t26.5 -16q45 0 97 127l51 -29q-24 -59 -48 -99.5t-51.5 -66.5t-59.5 -37.5t-71 -11.5q-131 0 -167 125q-38 -66 -82.5 -95.5t-106.5 -29.5q-55 0 -100.5 22t-77.5 63t-50 98t-18 128q0 65 11.5 133t33.5 134t52.5 128t68.5 115q135 191 305 191
q90 0 129 -74l54 215q11 43 15.5 70t4.5 40q0 37 -59 37h-35l14 54q39 3 83.5 9.5t90.5 16t92 21t89 24.5z" />
    <glyph glyph-name="dieresis" unicode="&#xa8;" 
d="M686 1384q22 0 41.5 -8.5t34 -23t23 -34t8.5 -40.5q0 -24 -8.5 -44t-23 -34.5t-34 -22.5t-41.5 -8t-41.5 8.5t-34.5 23t-23.5 34t-8.5 41.5q0 48 30 78t78 30zM338 1384q22 0 41.5 -8.5t33.5 -23t22.5 -34t8.5 -40.5q0 -24 -8.5 -44t-22.5 -34.5t-33.5 -22.5t-41.5 -8
q-23 0 -42.5 8.5t-34.5 23t-23.5 34t-8.5 41.5q0 48 30.5 78t78.5 30z" />
    <glyph glyph-name="copyright" unicode="&#xa9;" horiz-adv-x="875" 
d="M493 1513q-63 0 -117 -23.5t-94.5 -64t-63.5 -95t-23 -117.5q0 -62 23 -116t63 -95t93.5 -64.5t114.5 -23.5t114.5 23.5t93.5 64t63 95.5t23 117q0 61 -23 115.5t-63 95t-92.5 64.5t-111.5 24zM493 1553q69 0 130 -27t106.5 -73t72 -108t26.5 -131q0 -70 -27 -131.5
t-73 -107.5t-107.5 -72.5t-131.5 -26.5t-131.5 26.5t-107.5 72.5t-73 107.5t-27 130.5q0 71 26.5 133t73 108t109 72.5t134.5 26.5zM593 1301q-15 76 -91 76q-57 0 -87 -42t-30 -117t30 -116.5t87 -41.5q86 0 97 99h50q-5 -69 -42 -106.5t-103 -37.5q-40 0 -72 14.5
t-55 40.5t-35.5 63.5t-12.5 83.5t12 83.5t34.5 64.5t54.5 41.5t72 14.5q124 0 141 -120h-50z" />
    <glyph glyph-name="ordfeminine" unicode="&#xaa;" 
d="M772 663v-80h-536v80h536zM631 1095q-80 -16 -132.5 -31.5t-83 -33.5t-43 -40t-12.5 -50q0 -45 31 -71.5t82 -26.5q158 0 158 198v55zM279 1206q15 184 235 184q78 0 129 -26t72 -74q5 -12 7.5 -22.5t4 -25t2 -35.5t0.5 -52v-219q0 -37 0.5 -61t3 -41t6 -30.5t9.5 -29.5
h-97q-8 23 -10 37t-4 31q-19 -24 -37.5 -40t-39.5 -26t-45 -14t-54 -4q-46 0 -83.5 12.5t-64 35t-41 55t-14.5 71.5q0 133 145 184q23 8 44 15t46.5 13t58 12.5t79.5 14.5v29q0 104 -121 104q-116 0 -131 -98h-100z" />
    <glyph glyph-name="guillemotleft" unicode="&#xab;" horiz-adv-x="780" 
d="M272 8l-184 477l184 494h105l-156 -494l156 -477h-105zM537 8l-185 477l185 494h106l-158 -494l158 -477h-106z" />
    <glyph glyph-name="logicalnot" unicode="&#xac;" 
d="M811 420h-743v133h886v-545h-143v412z" />
    <glyph glyph-name="uni00AD" unicode="&#xad;" horiz-adv-x="561" 
d="M561 579v-112h-561v112h561z" />
    <glyph glyph-name="registered" unicode="&#xae;" horiz-adv-x="827" 
d="M463 1544q-63 0 -117.5 -23.5t-94.5 -64t-63 -95.5t-23 -118q0 -62 23 -116.5t63 -95.5t93.5 -65t114.5 -24t114.5 23.5t93.5 64.5t63 96t23 117q0 61 -23 116t-62.5 96t-92.5 65t-112 24zM463 1583q69 0 130 -27t106.5 -73t72 -108t26.5 -131q0 -70 -27 -131.5
t-73 -107.5t-107.5 -72.5t-131.5 -26.5t-131.5 26.5t-107.5 72.5t-73 107.5t-27 130.5q0 71 26.5 133t73 108t109 72.5t134.5 26.5zM421 1255q36 0 51.5 2t29.5 5q44 17 44 64q0 42 -36 59q-7 3 -14 5t-17 2.5t-24 1t-35 0.5h-25v-139h26zM419 1439q46 0 70 -3.5t45 -10.5
q32 -11 50 -37.5t18 -62.5q0 -78 -82 -106l109 -174h-64l-104 165h-66v-165h-53v394h77z" />
    <glyph glyph-name="macron" unicode="&#xaf;" 
d="M793 1327v-109h-560v109h560z" />
    <glyph glyph-name="degree" unicode="&#xb0;" 
d="M510 1304q-39 0 -74 -14.5t-61.5 -39.5t-42 -59t-15.5 -73q0 -41 15 -76t41.5 -61t62 -40.5t76.5 -14.5q40 0 75 15t61 41t41.5 60.5t15.5 73.5q0 40 -15.5 74t-41.5 59.5t-62 40t-76 14.5zM510 1399q61 0 114 -22.5t92.5 -60.5t62 -90t22.5 -110q0 -59 -22.5 -111
t-62 -90.5t-92 -61t-112.5 -22.5q-61 0 -114 22.5t-92.5 61.5t-62 91.5t-22.5 113.5q0 57 23 107.5t62.5 89t92 60.5t111.5 22z" />
    <glyph glyph-name="plusminus" unicode="&#xb1;" horiz-adv-x="1092" 
d="M983 178v-111h-874v111h874zM983 760v-107h-381v-383h-113v383h-380v107h380v395h113v-395h381z" />
    <glyph glyph-name="twosuperior" unicode="&#xb2;" horiz-adv-x="719" 
d="M121 1098q3 253 254 253q53 0 96.5 -13.5t74 -39t47.5 -62.5t17 -83q0 -27 -5.5 -50.5t-19.5 -50.5t-40 -62.5t-66 -86.5q-21 -27 -42.5 -53.5t-41.5 -50.5t-36.5 -44t-28.5 -34q-29 -36 -46 -56.5t-28 -31.5h367v-95h-506v80q8 11 41.5 51t93.5 113q59 72 100.5 123.5
t69 87.5t43.5 59.5t23.5 40.5t9.5 30.5t2 29.5q0 48 -35.5 77t-95.5 29q-139 0 -148 -161h-100z" />
    <glyph glyph-name="threesuperior" unicode="&#xb3;" horiz-adv-x="719" 
d="M113 1128q5 112 66 170t179 58q55 0 99.5 -14.5t76 -41t48 -64t16.5 -83.5q0 -122 -115 -174q72 -26 107 -76.5t35 -122.5q0 -55 -19.5 -100.5t-55.5 -77.5t-86.5 -50t-111.5 -18q-140 0 -205 63.5t-63 184.5h98q3 -156 166 -156q79 0 123.5 40.5t44.5 109.5
q0 147 -190 147h-41v95q14 -2 24 -3t17 -1q75 0 118 35t43 98q0 54 -35 85t-98 31q-66 0 -100 -31t-45 -104h-96z" />
    <glyph glyph-name="acute" unicode="&#xb4;" 
d="M643 1409h205l-299 -281h-119z" />
    <glyph glyph-name="mu" unicode="&#xb5;" 
d="M98 991h144v-559q0 -56 4 -97.5t14 -73t26.5 -56.5t41.5 -47q35 -32 81 -49t97 -17q127 0 207 104q19 25 32 51t21 56.5t12 67t4 81.5v539h144v-983h-144v178q-48 -106 -114.5 -155.5t-165.5 -49.5q-88 0 -149.5 36.5t-110.5 115.5v-467h-144v1325z" />
    <glyph glyph-name="paragraph" unicode="&#xb6;" horiz-adv-x="1186" 
d="M449 653q-35 0 -58.5 1t-41.5 3.5t-34 7t-36 11.5q-56 18 -100 50.5t-74 75.5t-46 95t-16 110q0 106 46 188.5t134 127.5q51 26 122 38.5t175 12.5h522v-117h-122v-1450h-129v1450h-213v-1450h-129v846z" />
    <glyph glyph-name="periodcentered" unicode="&#xb7;" horiz-adv-x="522" 
d="M262 639q24 0 45.5 -9.5t37 -25.5t25 -37.5t9.5 -46.5q0 -24 -9.5 -45t-25.5 -37t-37.5 -25.5t-46.5 -9.5q-24 0 -45 9.5t-37 25.5t-25.5 37t-9.5 45q0 25 9.5 47t25.5 38t38 25t46 9z" />
    <glyph glyph-name="cedilla" unicode="&#xb8;" 
d="M565 8l-55 -115q176 -21 176 -153q0 -38 -14.5 -69t-40 -53.5t-61 -35t-78.5 -12.5q-39 0 -74 8t-80 27v77l27 -8q16 -5 27 -7.5t19.5 -4t17 -2t20.5 -0.5q51 0 79.5 25.5t28.5 68.5q0 51 -39 72.5t-127 21.5l76 160h98z" />
    <glyph glyph-name="onesuperior" unicode="&#xb9;" horiz-adv-x="719" 
d="M164 1225q43 1 73.5 7.5t51.5 20.5t33.5 36.5t19.5 55.5h78v-805h-107v613h-149v72z" />
    <glyph glyph-name="ordmasculine" unicode="&#xba;" 
d="M780 663v-80h-536v80h536zM510 1304q-38 0 -68.5 -16.5t-53 -47t-34.5 -73t-12 -94.5q0 -53 12 -95t34 -72t52.5 -46t67.5 -16q39 0 70.5 16.5t54 46.5t35 72.5t12.5 95.5q0 52 -12 94.5t-34 72.5t-53.5 46t-70.5 16zM510 1390q59 0 109 -23.5t86 -65t56.5 -99.5
t20.5 -127q0 -71 -20 -129t-56 -100t-86.5 -65t-111.5 -23q-59 0 -108 23.5t-84.5 65.5t-55.5 100t-20 128q0 69 20 127t56 99.5t85.5 65t108.5 23.5z" />
    <glyph glyph-name="guillemotright" unicode="&#xbb;" horiz-adv-x="780" 
d="M510 979l184 -477l-184 -494h-107l158 494l-158 477h107zM244 979l184 -477l-184 -494h-105l158 494l-158 477h105z" />
    <glyph glyph-name="onequarter" unicode="&#xbc;" horiz-adv-x="1690" 
d="M1380 667l-237 -378h235zM1626 289v-91h-143v-198h-109v198h-342v78l342 537h107v-524h145zM1296 1339l-778 -1331h-125l778 1331h125zM164 1225q43 1 73.5 7.5t51.5 20.5t33.5 36.5t19.5 55.5h78v-805h-107v613h-149v72z" />
    <glyph glyph-name="onehalf" unicode="&#xbd;" horiz-adv-x="1690" 
d="M1094 565q6 254 252 254q112 0 174.5 -52.5t62.5 -146.5q0 -27 -5 -50t-19.5 -50t-40 -61.5t-66.5 -85.5l-149 -183q-29 -35 -46 -56t-28 -32h366v-94h-505v80l104 127q65 79 111 135.5t77 96.5t49 66t27.5 44.5t12 32.5t2.5 30q0 48 -36 77.5t-96 29.5q-138 0 -147 -162
h-100zM1296 1339l-778 -1331h-125l778 1331h125zM164 1225q43 1 73.5 7.5t51.5 20.5t33.5 36.5t19.5 55.5h78v-805h-107v613h-149v72z" />
    <glyph glyph-name="threequarters" unicode="&#xbe;" horiz-adv-x="1690" 
d="M1380 667l-237 -378h235zM1626 289v-91h-143v-198h-109v198h-344v78l344 537h107v-524h145zM1296 1339l-780 -1331h-123l778 1331h125zM113 1128q5 112 66 170t179 58q55 0 99.5 -14.5t76 -41t48 -64t16.5 -83.5q0 -122 -115 -174q142 -55 142 -199q0 -55 -19.5 -100.5
t-55.5 -77.5t-86.5 -50t-111.5 -18q-140 0 -205 63.5t-63 184.5h98q3 -156 166 -156q79 0 123.5 40.5t44.5 109.5q0 147 -190 147h-41v95q14 -2 24 -3t17 -1q75 0 118 35t43 98q0 54 -35 85t-98 31q-66 0 -100 -31t-45 -104h-96z" />
    <glyph glyph-name="questiondown" unicode="&#xbf;" horiz-adv-x="844" 
d="M537 569v-108q0 -65 -4 -107t-18.5 -76.5t-42.5 -69t-77 -83.5q-40 -40 -65.5 -70.5t-40.5 -57t-21 -51t-6 -51.5q0 -72 45 -112.5t123 -40.5q179 0 199 194h127q-12 -329 -338 -329q-74 0 -132 19.5t-98.5 57t-62 90.5t-21.5 121q0 39 8 73t28 69t53.5 74.5t85.5 91.5
q39 39 62 66t35 56t15.5 66.5t3.5 97.5v80h142zM467 979q24 0 45 -9.5t37 -25t25.5 -37t9.5 -45.5q0 -26 -9.5 -47.5t-25.5 -37.5t-38 -25t-46 -9t-45.5 9.5t-37 25.5t-25 37.5t-9.5 46.5q0 24 9.5 45.5t25.5 37t37.5 25t46.5 9.5z" />
    <glyph glyph-name="Agrave" unicode="&#xc0;" horiz-adv-x="1159" 
d="M543 1505l-342 281h207l282 -281h-147zM580 1184l-215 -680h430zM647 1382l471 -1374h-160l-120 362h-514l-123 -362h-158l471 1374h133z" />
    <glyph glyph-name="Aacute" unicode="&#xc1;" horiz-adv-x="1159" 
d="M752 1786h204l-340 -281h-149zM578 1184l-216 -680h431zM645 1382l471 -1374h-160l-120 362h-514l-123 -362h-158l471 1374h133z" />
    <glyph glyph-name="Acircumflex" unicode="&#xc2;" horiz-adv-x="1159" 
d="M496 1780h166l264 -269h-142l-206 180l-205 -180h-144zM578 1184l-216 -680h431zM645 1382l471 -1374h-160l-120 362h-514l-123 -362h-158l471 1374h133z" />
    <glyph glyph-name="Atilde" unicode="&#xc3;" horiz-adv-x="1159" 
d="M252 1560q26 105 71 152t117 47q32 0 67.5 -12t86.5 -41q31 -18 52.5 -29.5t36.5 -18t26.5 -8.5t23.5 -2q75 0 101 119l84 -33q-14 -100 -62 -152t-123 -52q-17 0 -32 2t-34 9t-44 19t-62 33q-43 25 -70.5 35t-50.5 10q-73 0 -100 -110zM578 1184l-216 -680h431z
M645 1382l471 -1374h-160l-120 362h-514l-123 -362h-158l471 1374h133z" />
    <glyph glyph-name="Adieresis" unicode="&#xc4;" horiz-adv-x="1159" 
d="M762 1761q24 0 44.5 -9t36.5 -24.5t25 -36.5t9 -45t-9 -45.5t-25 -37t-36.5 -24.5t-44.5 -9q-25 0 -46.5 9t-37 24.5t-24.5 36t-9 44.5q0 25 9 46t24.5 37t37 25t46.5 9zM397 1761q24 0 45 -9t36.5 -24.5t24.5 -36.5t9 -45t-9 -45.5t-24.5 -37t-36.5 -24.5t-45 -9
t-45.5 9t-37 24.5t-24.5 36t-9 44.5q0 25 9 46t24.5 37t37 25t45.5 9zM578 1184l-216 -680h431zM645 1382l471 -1374h-160l-120 362h-514l-123 -362h-158l471 1374h133z" />
    <glyph glyph-name="Aring" unicode="&#xc5;" horiz-adv-x="1159" 
d="M580 1763q-22 0 -40.5 -8t-32.5 -21.5t-22 -31.5t-8 -39t8 -39.5t22 -32t32.5 -21.5t40.5 -8q21 0 39 8t31.5 21.5t21.5 32t8 39.5t-8 39t-21.5 31.5t-31.5 21.5t-39 8zM582 1851q39 0 73 -14.5t59 -40t39.5 -59.5t14.5 -74t-14.5 -74.5t-40 -60t-59.5 -40t-74 -14.5
q-39 0 -74 14.5t-61 40t-41 60t-15 74.5t15 74t41 59.5t61 40t76 14.5zM578 1184l-216 -680h431zM645 1382l471 -1374h-160l-120 362h-514l-123 -362h-158l471 1374h133z" />
    <glyph glyph-name="AE" unicode="&#xc6;" horiz-adv-x="1745" 
d="M905 1239l-411 -735h411v735zM1653 1374v-133h-590v-459h541v-133h-541v-508h594v-133h-752v362h-487l-205 -362h-170l782 1366h828z" />
    <glyph glyph-name="Ccedilla" unicode="&#xc7;" horiz-adv-x="1231" 
d="M641 -127q195 -23 195 -174q0 -88 -57.5 -137.5t-157.5 -49.5q-21 0 -38.5 1.5t-36 5.5t-40 11.5t-49.5 18.5v86q24 -8 40.5 -13t28.5 -8t22 -4t23 -1q57 0 89 28t32 76q0 100 -149 100h-31l72 179q-114 21 -203.5 75.5t-151 142.5t-93.5 208t-32 272q0 162 40.5 293
t114 223.5t177 142.5t230.5 50q192 0 310 -103t144 -301h-143q-58 268 -311 268q-92 0 -166 -40t-125.5 -114.5t-79 -181t-27.5 -239.5q0 -131 28 -236.5t79.5 -179.5t125 -113.5t165.5 -39.5q297 0 333 352h144q-18 -230 -135 -356t-322 -132z" />
    <glyph glyph-name="Egrave" unicode="&#xc8;" horiz-adv-x="1028" 
d="M535 1505l-340 281h204l283 -281h-147zM872 782v-133h-553v-508h611v-133h-764v1366h749v-133h-596v-459h553z" />
    <glyph glyph-name="Eacute" unicode="&#xc9;" horiz-adv-x="1028" 
d="M692 1786h205l-340 -281h-147zM883 782v-133h-553v-508h610v-133h-764v1366h750v-133h-596v-459h553z" />
    <glyph glyph-name="Ecircumflex" unicode="&#xca;" horiz-adv-x="1028" 
d="M475 1780h164l266 -269h-141l-207 180l-205 -180h-143zM883 782v-133h-553v-508h610v-133h-764v1366h750v-133h-596v-459h553z" />
    <glyph glyph-name="Edieresis" unicode="&#xcb;" horiz-adv-x="1028" 
d="M741 1761q24 0 45 -9t36.5 -24.5t24.5 -36.5t9 -45t-9 -45.5t-24.5 -37t-36.5 -24.5t-45 -9t-45.5 9t-37 24.5t-24.5 36t-9 44.5q0 25 9 46t24.5 37t37 25t45.5 9zM375 1761q24 0 44.5 -9t36 -24.5t24.5 -36.5t9 -45t-9 -45.5t-24.5 -37t-36 -24.5t-44.5 -9
q-25 0 -46.5 9t-37 24.5t-24.5 36t-9 44.5q0 25 9 46t24.5 37t37 25t46.5 9zM883 782v-133h-553v-508h610v-133h-764v1366h750v-133h-596v-459h553z" />
    <glyph glyph-name="Igrave" unicode="&#xcc;" horiz-adv-x="504" 
d="M223 1505l-284 281h192l227 -281h-135zM174 8v1366h158v-1366h-158z" />
    <glyph glyph-name="Iacute" unicode="&#xcd;" horiz-adv-x="504" 
d="M375 1786h190l-284 -281h-136zM174 8v1366h158v-1366h-158z" />
    <glyph glyph-name="Icircumflex" unicode="&#xce;" horiz-adv-x="504" 
d="M170 1780h166l217 -269h-135l-164 180l-166 -180h-135zM174 8v1366h158v-1366h-158z" />
    <glyph glyph-name="Idieresis" unicode="&#xcf;" horiz-adv-x="504" 
d="M399 1757q22 0 42.5 -8.5t35.5 -24t24 -36t9 -44.5t-8.5 -44.5t-24 -35.5t-36 -23.5t-44.5 -8.5t-44.5 8.5t-35.5 23.5t-23.5 35.5t-8.5 44.5t9 44.5t24.5 36t36 24t44.5 8.5zM106 1757q22 0 42.5 -8.5t35.5 -24t24 -36t9 -44.5t-8.5 -44.5t-24 -35.5t-36 -23.5
t-44.5 -8.5t-44.5 8.5t-35.5 23.5t-23.5 35.5t-8.5 44.5t8.5 44.5t24 36t36.5 24t45 8.5zM172 8v1366h158v-1366h-158z" />
    <glyph glyph-name="Eth" unicode="&#xd0;" horiz-adv-x="1282" 
d="M426 141q82 0 136.5 2.5t95 10t72.5 21t69 36.5q106 66 160.5 183.5t54.5 297.5q0 186 -58.5 306.5t-179.5 187.5q-32 18 -63 29t-73 16.5t-101.5 7.5t-149.5 2h-61v-455h323v-129h-323v-516h98zM389 1374q99 0 170.5 -3.5t125.5 -12.5t96.5 -24t84.5 -38
q72 -39 129 -100.5t97.5 -140t62 -171t21.5 -192.5q0 -103 -21.5 -196.5t-62.5 -172.5t-100.5 -140.5t-135.5 -100.5q-43 -23 -86 -37t-97 -22.5t-126 -11.5t-174 -3h-199v649h-119v129h119v588h215z" />
    <glyph glyph-name="Ntilde" unicode="&#xd1;" horiz-adv-x="1317" 
d="M340 1560q25 105 69.5 152t116.5 47q35 0 69.5 -12.5t84.5 -40.5q33 -19 54.5 -30.5t36.5 -17.5t26.5 -8t23.5 -2q75 0 101 119l84 -33q-17 -100 -64.5 -152t-122.5 -52q-17 0 -32 2t-33 9t-43 19.5t-62 32.5q-45 24 -72.5 34.5t-50.5 10.5q-71 0 -98 -110zM342 1374
l655 -1137v1137h144v-1366h-168l-651 1135v-1135h-146v1366h166z" />
    <glyph glyph-name="Ograve" unicode="&#xd2;" horiz-adv-x="1323" 
d="M662 1263q-90 0 -163 -40t-124 -114.5t-79 -180t-28 -236.5q0 -129 27.5 -234.5t78 -180t122 -115.5t159.5 -41q92 0 166 40t125.5 114.5t79 180.5t27.5 238q0 130 -28 235t-79 179t-123.5 114.5t-160.5 40.5zM662 1399q123 0 225 -51.5t175.5 -144.5t114 -222.5
t40.5 -286.5q0 -159 -41 -289.5t-115 -224t-178 -144.5t-230 -51q-120 0 -220.5 52t-173.5 145.5t-114 223.5t-41 286q0 157 41 287t115 223.5t176.5 145t225.5 51.5zM657 1505l-340 281h205l285 -281h-150z" />
    <glyph glyph-name="Oacute" unicode="&#xd3;" horiz-adv-x="1323" 
d="M662 1263q-90 0 -163 -40t-124 -114.5t-79 -180t-28 -236.5q0 -129 27.5 -234.5t78 -180t122 -115.5t159.5 -41q92 0 166 40t125.5 114.5t79 180.5t27.5 238q0 130 -28 235t-79 179t-123.5 114.5t-160.5 40.5zM662 1399q123 0 225 -51.5t175.5 -144.5t114 -222.5
t40.5 -286.5q0 -159 -41 -289.5t-115 -224t-178 -144.5t-230 -51q-120 0 -220.5 52t-173.5 145.5t-114 223.5t-41 286q0 157 41 287t115 223.5t176.5 145t225.5 51.5zM788 1786h205l-340 -281h-147z" />
    <glyph glyph-name="Ocircumflex" unicode="&#xd4;" horiz-adv-x="1323" 
d="M662 1263q-90 0 -163 -40t-124 -114.5t-79 -180t-28 -236.5q0 -129 27.5 -234.5t78 -180t122 -115.5t159.5 -41q92 0 166 40t125.5 114.5t79 180.5t27.5 238q0 130 -28 235t-79 179t-123.5 114.5t-160.5 40.5zM662 1399q123 0 225 -51.5t175.5 -144.5t114 -222.5
t40.5 -286.5q0 -159 -41 -289.5t-115 -224t-178 -144.5t-230 -51q-120 0 -220.5 52t-173.5 145.5t-114 223.5t-41 286q0 157 41 287t115 223.5t176.5 145t225.5 51.5zM580 1780h163l267 -269h-142l-206 180l-207 -180h-142z" />
    <glyph glyph-name="Otilde" unicode="&#xd5;" horiz-adv-x="1323" 
d="M662 1263q-90 0 -163 -40t-124 -114.5t-79 -180t-28 -236.5q0 -129 27.5 -234.5t78 -180t122 -115.5t159.5 -41q92 0 166 40t125.5 114.5t79 180.5t27.5 238q0 130 -28 235t-79 179t-123.5 114.5t-160.5 40.5zM662 1399q123 0 225 -51.5t175.5 -144.5t114 -222.5
t40.5 -286.5q0 -159 -41 -289.5t-115 -224t-178 -144.5t-230 -51q-120 0 -220.5 52t-173.5 145.5t-114 223.5t-41 286q0 157 41 287t115 223.5t176.5 145t225.5 51.5zM334 1560q23 105 70.5 152t127.5 47q36 0 68 -11.5t76 -39.5q28 -18 47.5 -29.5t34.5 -18.5t27 -9.5
t26 -2.5q80 0 104 119l84 -33q-17 -100 -65 -152t-123 -52q-35 0 -71 12t-76 35q-39 22 -61.5 34.5t-36 18.5t-22 7t-18.5 1q-89 0 -104 -110z" />
    <glyph glyph-name="Odieresis" unicode="&#xd6;" horiz-adv-x="1323" 
d="M662 1263q-90 0 -163 -40t-124 -114.5t-79 -180t-28 -236.5q0 -129 27.5 -234.5t78 -180t122 -115.5t159.5 -41q92 0 166 40t125.5 114.5t79 180.5t27.5 238q0 130 -28 235t-79 179t-123.5 114.5t-160.5 40.5zM662 1399q123 0 225 -51.5t175.5 -144.5t114 -222.5
t40.5 -286.5q0 -159 -41 -289.5t-115 -224t-178 -144.5t-230 -51q-120 0 -220.5 52t-173.5 145.5t-114 223.5t-41 286q0 157 41 287t115 223.5t176.5 145t225.5 51.5zM844 1761q24 0 44.5 -9t36 -24.5t24.5 -36.5t9 -45t-9 -45.5t-24.5 -37t-36 -24.5t-44.5 -9
q-25 0 -46.5 9t-37 24.5t-24.5 36t-9 44.5q0 25 9 46t24.5 37t37 25t46.5 9zM479 1761q24 0 45 -9t36.5 -24.5t24.5 -36.5t9 -45t-9 -45.5t-24.5 -37t-36.5 -24.5t-45 -9t-45.5 9t-37.5 24.5t-25 36t-9 44.5q0 25 9 46t25 37t37.5 25t45.5 9z" />
    <glyph glyph-name="multiply" unicode="&#xd7;" horiz-adv-x="1092" 
d="M915 401l-77 -78l-293 293l-293 -293l-78 76l295 295l-293 293l78 78l293 -293l293 293l75 -78l-292 -291z" />
    <glyph glyph-name="Oslash" unicode="&#xd8;" horiz-adv-x="1323" 
d="M406 235q31 -32 59.5 -53.5t58 -35t61 -19.5t68.5 -6q88 0 158 34.5t119 100.5q60 81 91.5 187t31.5 245q0 112 -20 203t-58 164zM913 1149q-98 116 -258 116q-168 0 -264 -135q-63 -88 -93 -193.5t-30 -240.5q0 -106 19 -194.5t57 -174.5zM1081 1374h127l-133 -186
q142 -208 142 -508q0 -155 -41 -282.5t-114.5 -219.5t-177 -142.5t-227.5 -50.5q-49 0 -91 7t-82 23t-81 41.5t-88 62.5l-77 -111h-125l131 188q-39 68 -66 126.5t-43.5 116t-23.5 118.5t-7 135q0 361 201 559q148 148 361 148q48 0 87.5 -6.5t77.5 -22t79 -40.5t91 -62z
" />
    <glyph glyph-name="Ugrave" unicode="&#xd9;" horiz-adv-x="1280" 
d="M311 1374v-805q0 -78 2 -129t7 -86t15 -59.5t25 -48.5q38 -60 112.5 -92.5t168.5 -32.5q112 0 190.5 43.5t110.5 124.5q7 19 12.5 41t8.5 53.5t4.5 76t1.5 109.5v805h153v-807q0 -84 -1 -134.5t-4 -84t-9.5 -57t-17.5 -52.5q-48 -126 -164 -190t-285 -64
q-168 0 -285.5 64.5t-165.5 189.5q-11 29 -17.5 52.5t-9.5 57t-4 84t-1 134.5v807h153zM637 1505l-340 281h205l282 -281h-147z" />
    <glyph glyph-name="Uacute" unicode="&#xda;" horiz-adv-x="1280" 
d="M311 1374v-805q0 -78 2 -129t7 -86t15 -59.5t25 -48.5q38 -60 112.5 -92.5t168.5 -32.5q112 0 190.5 43.5t110.5 124.5q7 19 12.5 41t8.5 53.5t4.5 76t1.5 109.5v805h153v-807q0 -84 -1 -134.5t-4 -84t-9.5 -57t-17.5 -52.5q-48 -126 -164 -190t-285 -64
q-168 0 -285.5 64.5t-165.5 189.5q-11 29 -17.5 52.5t-9.5 57t-4 84t-1 134.5v807h153zM774 1786h205l-340 -281h-147z" />
    <glyph glyph-name="Ucircumflex" unicode="&#xdb;" horiz-adv-x="1280" 
d="M311 1374v-805q0 -78 2 -129t7 -86t15 -59.5t25 -48.5q38 -60 112.5 -92.5t168.5 -32.5q112 0 190.5 43.5t110.5 124.5q7 19 12.5 41t8.5 53.5t4.5 76t1.5 109.5v805h153v-807q0 -84 -1 -134.5t-4 -84t-9.5 -57t-17.5 -52.5q-48 -126 -164 -190t-285 -64
q-168 0 -285.5 64.5t-165.5 189.5q-11 29 -17.5 52.5t-9.5 57t-4 84t-1 134.5v807h153zM557 1780h166l266 -269h-141l-207 180l-207 -180h-141z" />
    <glyph glyph-name="Udieresis" unicode="&#xdc;" horiz-adv-x="1280" 
d="M311 1374v-805q0 -78 2 -129t7 -86t15 -59.5t25 -48.5q38 -60 112.5 -92.5t168.5 -32.5q112 0 190.5 43.5t110.5 124.5q7 19 12.5 41t8.5 53.5t4.5 76t1.5 109.5v805h153v-807q0 -84 -1 -134.5t-4 -84t-9.5 -57t-17.5 -52.5q-48 -126 -164 -190t-285 -64
q-168 0 -285.5 64.5t-165.5 189.5q-11 29 -17.5 52.5t-9.5 57t-4 84t-1 134.5v807h153zM823 1761q24 0 45 -9t36.5 -24.5t24.5 -36.5t9 -45t-9 -45.5t-24.5 -37t-36.5 -24.5t-45 -9t-45.5 9t-37 24.5t-24.5 36t-9 44.5q0 25 9 46t24.5 37t37 25t45.5 9zM459 1761
q24 0 44.5 -9t36 -24.5t24.5 -36.5t9 -45t-9 -45.5t-24.5 -37t-36 -24.5t-44.5 -9q-25 0 -46.5 9t-37 24.5t-24.5 36t-9 44.5q0 25 9 46t24.5 37t37 25t46.5 9z" />
    <glyph glyph-name="Yacute" unicode="&#xdd;" horiz-adv-x="1049" 
d="M666 1786h204l-340 -281h-147zM201 1374l325 -639l324 639h176l-426 -793l2 -573h-153l2 573l-426 793h176z" />
    <glyph glyph-name="Thorn" unicode="&#xde;" horiz-adv-x="1077" 
d="M426 538q53 0 90 0.5t65 3t51 6t48 9.5q88 20 133 84t45 164q0 94 -36.5 155.5t-102.5 87.5q-25 10 -50.5 16.5t-60 10t-82 5t-116.5 1.5h-80v-543h96zM330 1374v-160h71q76 0 133 -2t101 -6.5t78 -11.5t65 -17q56 -18 101 -53t76.5 -83.5t48 -108.5t16.5 -127
q0 -139 -55 -225.5t-158 -129.5q-33 -14 -66 -22.5t-75.5 -13.5t-99 -7t-136.5 -2h-100v-397h-154v1366h154z" />
    <glyph glyph-name="germandbls" unicode="&#xdf;" horiz-adv-x="1036" 
d="M139 878q0 84 1.5 140t7 94.5t14.5 65.5t24 53q43 75 123 116t189 41q78 0 143 -24t111.5 -66.5t72 -102t25.5 -130.5q0 -215 -232 -285q324 -62 324 -385q0 -87 -26 -160.5t-72.5 -127t-111 -83.5t-140.5 -30q-41 0 -75 8t-77 26v132q70 -37 144 -37q49 0 88 19.5
t66.5 55t42 85.5t14.5 112q0 317 -396 322v122q13 -2 24.5 -2h16.5q134 0 199.5 56t65.5 162q0 100 -54.5 155t-154.5 55q-70 0 -118.5 -28t-68.5 -82q-8 -23 -13 -42t-8 -47t-4 -70t-1 -109v-879h-144v870z" />
    <glyph glyph-name="agrave" unicode="&#xe0;" horiz-adv-x="975" 
d="M498 1128l-299 281h207l210 -281h-118zM684 534q-122 -21 -206.5 -46t-137 -56.5t-75.5 -70.5t-23 -87q0 -38 13 -69t37.5 -53.5t59 -35t78.5 -12.5q72 0 129.5 32t87.5 89q19 35 28 86.5t9 126.5v96zM129 725q34 280 363 280q121 0 201 -42t110 -117q7 -18 11.5 -37.5
t6.5 -44.5t3 -57.5t1 -77.5v-365q0 -59 1 -97t3.5 -65t8 -48t14.5 -46h-137q-6 18 -9.5 31.5t-6 28t-4 31t-3.5 40.5q-86 -156 -284 -156q-72 0 -130 19.5t-99 56.5t-63 88.5t-22 116.5q0 211 225 291q35 12 71 22.5t79 20.5t95 20.5t120 22.5v41q0 55 -10.5 93t-33.5 62
t-61.5 34.5t-93.5 10.5q-184 0 -215 -157h-141z" />
    <glyph glyph-name="aacute" unicode="&#xe1;" horiz-adv-x="975" 
d="M582 1409h206l-299 -281h-118zM684 534q-122 -21 -206.5 -46t-137 -56.5t-75.5 -70.5t-23 -87q0 -38 13 -69t37.5 -53.5t59 -35t78.5 -12.5q72 0 129.5 32t87.5 89q19 35 28 86.5t9 126.5v96zM129 725q34 280 363 280q121 0 201 -42t110 -117q7 -18 11.5 -37.5t6.5 -44.5
t3 -57.5t1 -77.5v-365q0 -59 1 -97t3.5 -65t8 -48t14.5 -46h-137q-6 18 -9.5 31.5t-6 28t-4 31t-3.5 40.5q-86 -156 -284 -156q-72 0 -130 19.5t-99 56.5t-63 88.5t-22 116.5q0 211 225 291q35 12 71 22.5t79 20.5t95 20.5t120 22.5v41q0 55 -10.5 93t-33.5 62t-61.5 34.5
t-93.5 10.5q-184 0 -215 -157h-141z" />
    <glyph glyph-name="acircumflex" unicode="&#xe2;" horiz-adv-x="975" 
d="M410 1421h165l232 -287h-139l-176 193l-175 -193h-139zM684 534q-122 -21 -206.5 -46t-137 -56.5t-75.5 -70.5t-23 -87q0 -38 13 -69t37.5 -53.5t59 -35t78.5 -12.5q72 0 129.5 32t87.5 89q19 35 28 86.5t9 126.5v96zM129 725q34 280 363 280q121 0 201 -42t110 -117
q7 -18 11.5 -37.5t6.5 -44.5t3 -57.5t1 -77.5v-365q0 -59 1 -97t3.5 -65t8 -48t14.5 -46h-137q-6 18 -9.5 31.5t-6 28t-4 31t-3.5 40.5q-86 -156 -284 -156q-72 0 -130 19.5t-99 56.5t-63 88.5t-22 116.5q0 211 225 291q35 12 71 22.5t79 20.5t95 20.5t120 22.5v41
q0 55 -10.5 93t-33.5 62t-61.5 34.5t-93.5 10.5q-184 0 -215 -157h-141z" />
    <glyph glyph-name="atilde" unicode="&#xe3;" horiz-adv-x="975" 
d="M186 1173q43 213 174 213q31 0 62 -12t76 -41q27 -18 45.5 -29t32 -17.5t24.5 -8.5t23 -2q68 0 90 118l84 -20q-13 -106 -57.5 -162.5t-110.5 -56.5q-31 0 -66.5 12.5t-83.5 44.5q-27 18 -45.5 28.5t-32 16t-23.5 7t-20 1.5q-62 0 -90 -112zM684 534q-122 -21 -206.5 -46
t-137 -56.5t-75.5 -70.5t-23 -87q0 -38 13 -69t37.5 -53.5t59 -35t78.5 -12.5q72 0 129.5 32t87.5 89q19 35 28 86.5t9 126.5v96zM129 725q34 280 363 280q121 0 201 -42t110 -117q7 -18 11.5 -37.5t6.5 -44.5t3 -57.5t1 -77.5v-365q0 -59 1 -97t3.5 -65t8 -48t14.5 -46
h-137q-6 18 -9.5 31.5t-6 28t-4 31t-3.5 40.5q-86 -156 -284 -156q-72 0 -130 19.5t-99 56.5t-63 88.5t-22 116.5q0 211 225 291q35 12 71 22.5t79 20.5t95 20.5t120 22.5v41q0 55 -10.5 93t-33.5 62t-61.5 34.5t-93.5 10.5q-184 0 -215 -157h-141z" />
    <glyph glyph-name="adieresis" unicode="&#xe4;" horiz-adv-x="975" 
d="M670 1384q22 0 41.5 -8.5t33.5 -23t22.5 -34t8.5 -40.5q0 -24 -8.5 -44t-22.5 -34.5t-33.5 -22.5t-41.5 -8q-23 0 -42.5 8.5t-34.5 23t-23.5 34t-8.5 41.5q0 48 30.5 78t78.5 30zM322 1384q22 0 41.5 -8.5t33.5 -23t22.5 -34t8.5 -40.5q0 -24 -8.5 -44t-22.5 -34.5
t-33.5 -22.5t-41.5 -8q-23 0 -42.5 8.5t-34.5 23t-23.5 34t-8.5 41.5q0 48 30.5 78t78.5 30zM684 534q-122 -21 -206.5 -46t-137 -56.5t-75.5 -70.5t-23 -87q0 -38 13 -69t37.5 -53.5t59 -35t78.5 -12.5q72 0 129.5 32t87.5 89q19 35 28 86.5t9 126.5v96zM129 725
q34 280 363 280q121 0 201 -42t110 -117q7 -18 11.5 -37.5t6.5 -44.5t3 -57.5t1 -77.5v-365q0 -59 1 -97t3.5 -65t8 -48t14.5 -46h-137q-6 18 -9.5 31.5t-6 28t-4 31t-3.5 40.5q-86 -156 -284 -156q-72 0 -130 19.5t-99 56.5t-63 88.5t-22 116.5q0 211 225 291
q35 12 71 22.5t79 20.5t95 20.5t120 22.5v41q0 55 -10.5 93t-33.5 62t-61.5 34.5t-93.5 10.5q-184 0 -215 -157h-141z" />
    <glyph glyph-name="aring" unicode="&#xe5;" horiz-adv-x="975" 
d="M498 1390q-45 0 -74 -29.5t-29 -72.5q0 -21 8 -39t22 -31.5t32.5 -21.5t40.5 -8q21 0 39 8t31.5 21.5t21.5 32.5t8 40t-8 39t-21.5 31.5t-31.5 21.5t-39 8zM500 1478q39 0 73 -14.5t59 -39.5t39.5 -59.5t14.5 -74.5t-14.5 -74.5t-40 -60t-59.5 -40.5t-74 -15
q-39 0 -74 14.5t-61 40t-41 59.5t-15 74t15 74.5t41 60t61 40.5t76 15zM684 534q-122 -21 -206.5 -46t-137 -56.5t-75.5 -70.5t-23 -87q0 -38 13 -69t37.5 -53.5t59 -35t78.5 -12.5q72 0 129.5 32t87.5 89q19 35 28 86.5t9 126.5v96zM129 725q34 280 363 280q121 0 201 -42
t110 -117q7 -18 11.5 -37.5t6.5 -44.5t3 -57.5t1 -77.5v-365q0 -59 1 -97t3.5 -65t8 -48t14.5 -46h-137q-6 18 -9.5 31.5t-6 28t-4 31t-3.5 40.5q-86 -156 -284 -156q-72 0 -130 19.5t-99 56.5t-63 88.5t-22 116.5q0 211 225 291q35 12 71 22.5t79 20.5t95 20.5t120 22.5v41
q0 55 -10.5 93t-33.5 62t-61.5 34.5t-93.5 10.5q-184 0 -215 -157h-141z" />
    <glyph glyph-name="ae" unicode="&#xe6;" horiz-adv-x="1579" 
d="M647 473h-18q-90 0 -161.5 -15t-121 -43.5t-76 -68.5t-26.5 -90q0 -34 13 -62t37 -48t57.5 -31t74.5 -11q69 0 124 31t87 88q37 64 37 184v66h-27zM1327 586q-8 153 -69.5 226t-167.5 73t-174.5 -74t-88.5 -225h500zM821 473q2 -189 73 -278t216 -89q157 0 227 148
l133 -17q-16 -58 -48.5 -105t-79 -80t-105 -51t-125.5 -18q-258 0 -360 211q-57 -111 -139.5 -161t-200.5 -50q-70 0 -128 19.5t-100 54.5t-65 84.5t-23 108.5q0 160 147 248t431 88v61q0 72 -8.5 111.5t-26.5 62.5q-46 61 -152 61q-179 0 -225 -169h-135q19 151 110 221.5
t255 70.5q234 0 299 -168q59 88 131 128t172 40q90 0 162.5 -35t123.5 -100.5t79 -158t28 -207.5v-31h-666z" />
    <glyph glyph-name="ccedilla" unicode="&#xe7;" horiz-adv-x="952" 
d="M467 -107q176 -21 176 -153q0 -38 -14.5 -69t-40 -53.5t-61 -35t-78.5 -12.5q-39 0 -74 8t-80 27v77l27 -8q16 -5 27 -7.5t19.5 -4t17 -2t20.5 -0.5q49 0 78.5 25.5t29.5 68.5q0 51 -39 72.5t-127 21.5l68 144q-33 8 -58.5 17t-47 21t-40 26.5t-37.5 33.5
q-141 141 -141 401q0 119 29 214.5t82.5 162t129.5 102t171 35.5q313 0 348 -342h-143q-9 59 -25.5 100.5t-41.5 68t-60.5 38.5t-81.5 12q-62 0 -110 -26t-81.5 -76.5t-51 -123t-17.5 -165.5q0 -387 264 -387q99 0 149.5 57t63.5 181h143q-11 -180 -97.5 -268t-252.5 -93z
" />
    <glyph glyph-name="egrave" unicode="&#xe8;" horiz-adv-x="995" 
d="M754 581q-25 304 -250 304q-218 0 -260 -304h510zM240 469q9 -363 280 -363q80 0 132 34t93 114l134 -17q-90 -254 -361 -254q-98 0 -177 35t-134.5 100.5t-85 158t-29.5 206.5q0 119 29.5 215.5t84 164.5t132 105t172.5 37q90 0 162.5 -34.5t124 -99t79 -156
t27.5 -205.5v-16t-2 -25h-661zM514 1128l-297 281h205l213 -281h-121z" />
    <glyph glyph-name="eacute" unicode="&#xe9;" horiz-adv-x="995" 
d="M754 581q-25 304 -250 304q-218 0 -260 -304h510zM240 469q9 -363 280 -363q80 0 132 34t93 114l134 -17q-90 -254 -361 -254q-98 0 -177 35t-134.5 100.5t-85 158t-29.5 206.5q0 119 29.5 215.5t84 164.5t132 105t172.5 37q90 0 162.5 -34.5t124 -99t79 -156
t27.5 -205.5v-16t-2 -25h-661zM602 1409h205l-299 -281h-119z" />
    <glyph glyph-name="ecircumflex" unicode="&#xea;" horiz-adv-x="995" 
d="M754 581q-25 304 -250 304q-218 0 -260 -304h510zM240 469q9 -363 280 -363q80 0 132 34t93 114l134 -17q-90 -254 -361 -254q-98 0 -177 35t-134.5 100.5t-85 158t-29.5 206.5q0 119 29.5 215.5t84 164.5t132 105t172.5 37q90 0 162.5 -34.5t124 -99t79 -156
t27.5 -205.5v-16t-2 -25h-661zM426 1421h166l231 -287h-139l-174 193l-176 -193h-139z" />
    <glyph glyph-name="edieresis" unicode="&#xeb;" horiz-adv-x="995" 
d="M686 1384q22 0 41.5 -8.5t34 -23t23 -34t8.5 -40.5q0 -24 -8.5 -44t-23 -34.5t-34 -22.5t-41.5 -8t-41.5 8.5t-34.5 23t-23.5 34t-8.5 41.5q0 48 30 78t78 30zM338 1384q22 0 41.5 -8.5t33.5 -23t22.5 -34t8.5 -40.5q0 -24 -8.5 -44t-22.5 -34.5t-33.5 -22.5t-41.5 -8
q-23 0 -42.5 8.5t-34.5 23t-23.5 34t-8.5 41.5q0 48 30.5 78t78.5 30zM754 581q-25 304 -250 304q-218 0 -260 -304h510zM240 469q9 -363 280 -363q80 0 132 34t93 114l134 -17q-90 -254 -361 -254q-98 0 -177 35t-134.5 100.5t-85 158t-29.5 206.5q0 119 29.5 215.5
t84 164.5t132 105t172.5 37q90 0 162.5 -34.5t124 -99t79 -156t27.5 -205.5v-16t-2 -25h-661z" />
    <glyph glyph-name="igrave" unicode="&#xec;" horiz-adv-x="453" 
d="M211 1128l-244 281h193l164 -281h-113zM301 979v-971h-151v971h151z" />
    <glyph glyph-name="iacute" unicode="&#xed;" horiz-adv-x="453" 
d="M293 1409h192l-243 -281h-113zM301 979v-971h-151v971h151z" />
    <glyph glyph-name="icircumflex" unicode="&#xee;" horiz-adv-x="453" 
d="M143 1421h164l185 -287h-132l-135 193l-133 -193h-133zM301 979v-971h-151v971h151z" />
    <glyph glyph-name="idieresis" unicode="&#xef;" horiz-adv-x="451" 
d="M369 1384q22 0 41.5 -8.5t33.5 -23t22.5 -34t8.5 -40.5q0 -24 -8.5 -44t-22.5 -34.5t-33.5 -22.5t-41.5 -8q-23 0 -42.5 8.5t-34.5 23t-23.5 34t-8.5 41.5q0 48 30.5 78t78.5 30zM84 1384q22 0 41.5 -8.5t33.5 -23t22.5 -34t8.5 -40.5q0 -24 -8.5 -44t-22.5 -34.5
t-33.5 -22.5t-41.5 -8q-23 0 -42.5 8.5t-34.5 23t-23.5 34t-8.5 41.5q0 48 30.5 78t78.5 30zM301 979v-971h-151v971h151z" />
    <glyph glyph-name="eth" unicode="&#xf0;" horiz-adv-x="1032" 
d="M526 882q-68 0 -121 -27t-89.5 -77.5t-56 -122.5t-19.5 -162q0 -87 20.5 -158t57 -122t87.5 -79t113 -28q61 0 111.5 28.5t87 79.5t56.5 122t20 157t-19.5 157.5t-55 123t-84.5 80t-108 28.5zM674 1360l61 -74l-143 -82q21 -24 45 -52.5t48 -58.5t47.5 -61t43.5 -59
q46 -65 77 -121t50.5 -111t28 -111.5t8.5 -121.5q0 -119 -30 -215.5t-85 -165.5t-132.5 -106.5t-172.5 -37.5t-174 37t-135.5 104.5t-87.5 161t-31 207.5q0 113 29.5 206.5t83.5 160.5t128.5 104t164.5 37q21 0 34.5 -1t25.5 -5t24 -10.5t30 -18.5l-127 177l-139 -80l-61 78
l149 86l-88 112l76 62l110 -119z" />
    <glyph glyph-name="ntilde" unicode="&#xf1;" horiz-adv-x="1032" 
d="M262 979q11 -31 16 -62.5t5 -79.5q97 168 292 168q103 0 175 -41t104 -116q10 -24 16 -44t9.5 -49t4.5 -73.5t1 -116.5v-557h-144v549q0 54 -1 90t-3.5 61t-7.5 42.5t-14 35.5q-24 48 -66 70t-102 22q-66 0 -122 -31.5t-91 -88.5q-23 -38 -33 -88t-10 -119v-543h-144v641
v99t-1 70t-2.5 49.5t-4 37.5t-6 34t-8.5 40h137zM190 1173q43 213 175 213q31 0 62.5 -11.5t76.5 -41.5q27 -18 45.5 -29t32.5 -17t25 -8.5t22 -2.5q65 0 90 118l84 -20q-14 -106 -59 -162.5t-111 -56.5q-54 0 -150 57q-27 16 -45.5 26.5t-31 16.5t-22 8t-19.5 2
q-66 0 -91 -112z" />
    <glyph glyph-name="ograve" unicode="&#xf2;" horiz-adv-x="1032" 
d="M516 882q-62 0 -112.5 -28t-87 -78t-56.5 -120.5t-20 -155.5q0 -90 19 -163t54.5 -124t86.5 -79t116 -28q62 0 113 27.5t87.5 78.5t56.5 122.5t20 160.5q0 87 -20 158.5t-56.5 122t-87.5 78.5t-113 28zM516 1005q94 0 172.5 -37t134 -104.5t86.5 -161.5t31 -209
q0 -113 -31 -206.5t-86.5 -161t-134 -105t-172.5 -37.5q-95 0 -173 37.5t-133.5 105.5t-86.5 164t-31 212q0 109 31.5 201.5t88 159.5t134.5 104.5t170 37.5zM518 1128l-297 281h205l213 -281h-121z" />
    <glyph glyph-name="oacute" unicode="&#xf3;" horiz-adv-x="1032" 
d="M516 882q-62 0 -112.5 -28t-87 -78t-56.5 -120.5t-20 -155.5q0 -90 19 -163t54.5 -124t86.5 -79t116 -28q62 0 113 27.5t87.5 78.5t56.5 122.5t20 160.5q0 87 -20 158.5t-56.5 122t-87.5 78.5t-113 28zM516 1005q94 0 172.5 -37t134 -104.5t86.5 -161.5t31 -209
q0 -113 -31 -206.5t-86.5 -161t-134 -105t-172.5 -37.5q-95 0 -173 37.5t-133.5 105.5t-86.5 164t-31 212q0 109 31.5 201.5t88 159.5t134.5 104.5t170 37.5zM610 1409h205l-297 -281h-119z" />
    <glyph glyph-name="ocircumflex" unicode="&#xf4;" horiz-adv-x="1032" 
d="M516 882q-62 0 -112.5 -28t-87 -78t-56.5 -120.5t-20 -155.5q0 -90 19 -163t54.5 -124t86.5 -79t116 -28q62 0 113 27.5t87.5 78.5t56.5 122.5t20 160.5q0 87 -20 158.5t-56.5 122t-87.5 78.5t-113 28zM516 1005q94 0 172.5 -37t134 -104.5t86.5 -161.5t31 -209
q0 -113 -31 -206.5t-86.5 -161t-134 -105t-172.5 -37.5q-95 0 -173 37.5t-133.5 105.5t-86.5 164t-31 212q0 109 31.5 201.5t88 159.5t134.5 104.5t170 37.5zM434 1421h164l231 -287h-137l-176 193l-174 -193h-139z" />
    <glyph glyph-name="otilde" unicode="&#xf5;" horiz-adv-x="1032" 
d="M516 882q-62 0 -112.5 -28t-87 -78t-56.5 -120.5t-20 -155.5q0 -90 19 -163t54.5 -124t86.5 -79t116 -28q62 0 113 27.5t87.5 78.5t56.5 122.5t20 160.5q0 87 -20 158.5t-56.5 122t-87.5 78.5t-113 28zM516 1005q94 0 172.5 -37t134 -104.5t86.5 -161.5t31 -209
q0 -113 -31 -206.5t-86.5 -161t-134 -105t-172.5 -37.5q-95 0 -173 37.5t-133.5 105.5t-86.5 164t-31 212q0 109 31.5 201.5t88 159.5t134.5 104.5t170 37.5zM225 1173q43 213 174 213q31 0 62 -12t76 -41q27 -18 46 -29t33 -17.5t25 -8.5t23 -2q65 0 90 118l84 -20
q-14 -106 -59 -162.5t-111 -56.5q-54 0 -150 57q-27 16 -45 26.5t-31 16.5t-23 8t-20 2q-65 0 -90 -112z" />
    <glyph glyph-name="odieresis" unicode="&#xf6;" horiz-adv-x="1032" 
d="M690 1384q22 0 42 -8.5t34 -23t22.5 -34t8.5 -40.5q0 -48 -31 -78.5t-76 -30.5q-22 0 -41.5 8.5t-34.5 23t-23.5 34t-8.5 41.5q0 48 30 78t78 30zM342 1384q22 0 41.5 -8.5t34 -23t23 -34t8.5 -40.5q0 -24 -8.5 -44t-23 -34.5t-34 -22.5t-41.5 -8q-23 0 -42.5 8.5
t-34.5 23t-23.5 34t-8.5 41.5q0 48 30.5 78t78.5 30zM516 882q-62 0 -112.5 -28t-87 -78t-56.5 -120.5t-20 -155.5q0 -90 19 -163t54.5 -124t86.5 -79t116 -28q62 0 113 27.5t87.5 78.5t56.5 122.5t20 160.5q0 87 -20 158.5t-56.5 122t-87.5 78.5t-113 28zM516 1005
q94 0 172.5 -37t134 -104.5t86.5 -161.5t31 -209q0 -113 -31 -206.5t-86.5 -161t-134 -105t-172.5 -37.5q-95 0 -173 37.5t-133.5 105.5t-86.5 164t-31 212q0 109 31.5 201.5t88 159.5t134.5 104.5t170 37.5z" />
    <glyph glyph-name="divide" unicode="&#xf7;" horiz-adv-x="1092" 
d="M983 749v-110h-874v110h874zM547 1075q42 0 70 -29t28 -71q0 -21 -8 -39t-21.5 -31.5t-31.5 -21t-39 -7.5q-42 0 -70.5 28.5t-28.5 70.5q0 21 8 39t22 31.5t32 21.5t39 8zM547 506q21 0 38.5 -8t31 -21.5t21 -32t7.5 -39.5q0 -42 -29 -70t-71 -28q-21 0 -39 7.5t-31.5 21
t-21 31t-7.5 38.5t8 39.5t22 32t32 21.5t39 8z" />
    <glyph glyph-name="oslash" unicode="&#xf8;" horiz-adv-x="1032" 
d="M332 188q13 -18 32.5 -33t43.5 -26t50.5 -17t53.5 -6q63 0 115 29t88.5 81.5t57 126.5t20.5 163q0 61 -8.5 107t-28.5 95zM705 796q-48 48 -89.5 68.5t-95.5 20.5q-62 0 -113.5 -29.5t-88.5 -83t-57.5 -128t-20.5 -163.5q0 -31 1.5 -56.5t6 -49.5t12 -48t19.5 -51z
M178 162q-44 72 -65 148.5t-21 174.5q0 114 31.5 210t88 165.5t134.5 108t172 38.5q40 0 74.5 -5.5t66.5 -18t64.5 -33t69.5 -51.5l69 80h115l-123 -152l10 -18q24 -42 38.5 -77.5t23 -70.5t11.5 -73t3 -86q0 -115 -31.5 -210.5t-88 -164t-135.5 -106.5t-173 -38
q-39 0 -77.5 7t-73.5 20.5t-65 32.5t-52 43l-70 -78h-119z" />
    <glyph glyph-name="ugrave" unicode="&#xf9;" horiz-adv-x="1018" 
d="M289 979v-594q0 -41 2 -71.5t6.5 -54t11.5 -41t17 -32.5q51 -74 161 -74q66 0 116.5 29.5t82.5 83.5q22 37 30.5 84t8.5 119v551h143v-676v-125t2.5 -74.5t7 -48.5t13.5 -47h-141q-11 32 -15 61.5t-6 67.5q-43 -82 -103.5 -118t-154.5 -36q-100 0 -174 40.5t-113 115.5
q-11 21 -18.5 43.5t-12 51t-6.5 65t-2 86.5v594h144zM512 1128l-297 281h205l213 -281h-121z" />
    <glyph glyph-name="uacute" unicode="&#xfa;" horiz-adv-x="1018" 
d="M289 979v-594q0 -41 2 -71.5t6.5 -54t11.5 -41t17 -32.5q51 -74 161 -74q66 0 116.5 29.5t82.5 83.5q22 37 30.5 84t8.5 119v551h143v-676v-125t2.5 -74.5t7 -48.5t13.5 -47h-141q-11 32 -15 61.5t-6 67.5q-43 -82 -103.5 -118t-154.5 -36q-100 0 -174 40.5t-113 115.5
q-11 21 -18.5 43.5t-12 51t-6.5 65t-2 86.5v594h144zM588 1409h207l-299 -281h-119z" />
    <glyph glyph-name="ucircumflex" unicode="&#xfb;" horiz-adv-x="1018" 
d="M289 979v-594q0 -41 2 -71.5t6.5 -54t11.5 -41t17 -32.5q51 -74 161 -74q66 0 116.5 29.5t82.5 83.5q22 37 30.5 84t8.5 119v551h143v-676v-125t2.5 -74.5t7 -48.5t13.5 -47h-141q-11 32 -15 61.5t-6 67.5q-43 -82 -103.5 -118t-154.5 -36q-100 0 -174 40.5t-113 115.5
q-11 21 -18.5 43.5t-12 51t-6.5 65t-2 86.5v594h144zM426 1421h164l233 -287h-139l-176 193l-174 -193h-139z" />
    <glyph glyph-name="udieresis" unicode="&#xfc;" horiz-adv-x="1018" 
d="M684 1384q22 0 41.5 -8.5t34 -23t23 -34t8.5 -40.5q0 -24 -8.5 -44t-23 -34.5t-34 -22.5t-41.5 -8q-23 0 -42.5 8.5t-34.5 23t-23.5 34t-8.5 41.5q0 48 30.5 78t78.5 30zM334 1384q22 0 41.5 -8.5t33.5 -23t22.5 -34t8.5 -40.5q0 -24 -8.5 -44t-22.5 -34.5t-33.5 -22.5
t-41.5 -8q-23 0 -42.5 8.5t-34.5 23t-23.5 34t-8.5 41.5q0 48 30.5 78t78.5 30zM289 979v-594q0 -41 2 -71.5t6.5 -54t11.5 -41t17 -32.5q51 -74 161 -74q66 0 116.5 29.5t82.5 83.5q22 37 30.5 84t8.5 119v551h143v-676v-125t2.5 -74.5t7 -48.5t13.5 -47h-141
q-11 32 -15 61.5t-6 67.5q-43 -82 -103.5 -118t-154.5 -36q-100 0 -174 40.5t-113 115.5q-11 21 -18.5 43.5t-12 51t-6.5 65t-2 86.5v594h144z" />
    <glyph glyph-name="yacute" unicode="&#xfd;" horiz-adv-x="897" 
d="M541 1409h204l-296 -281h-121zM186 979l265 -809l272 809h149l-319 -903q-34 -96 -56.5 -156t-40 -97.5t-34.5 -61.5t-39 -48q-106 -115 -283 -115h-17t-28 2v127q70 0 117.5 10t82 39t61 82.5t55.5 139.5l-338 981h153z" />
    <glyph glyph-name="thorn" unicode="&#xfe;" horiz-adv-x="1040" 
d="M553 880q-59 0 -107 -27t-82 -77.5t-52.5 -122.5t-18.5 -162q0 -85 19 -155.5t53.5 -121t82.5 -78.5t107 -28q58 0 104.5 26t78 75t48.5 119.5t17 160.5t-17 162.5t-49.5 123t-79 78t-104.5 27.5zM152 1380h143v-545q27 46 55.5 78.5t60.5 52.5t70 29.5t84 9.5
q87 0 158 -36.5t121.5 -104t78 -162.5t27.5 -211q0 -114 -27 -207.5t-76 -160t-118 -103.5t-154 -37q-92 0 -159 37t-121 123v-538h-143v1775z" />
    <glyph glyph-name="ydieresis" unicode="&#xff;" horiz-adv-x="897" 
d="M627 1384q22 0 41.5 -8.5t33.5 -23t22.5 -34t8.5 -40.5q0 -24 -8.5 -44t-22.5 -34.5t-33.5 -22.5t-41.5 -8q-23 0 -42.5 8.5t-34.5 23t-23.5 34t-8.5 41.5q0 48 30.5 78t78.5 30zM279 1384q22 0 41.5 -8.5t33.5 -23t22.5 -34t8.5 -40.5q0 -24 -8.5 -44t-22.5 -34.5
t-33.5 -22.5t-41.5 -8q-23 0 -42.5 8.5t-34.5 23t-23.5 34t-8.5 41.5q0 48 30.5 78t78.5 30zM186 979l265 -809l272 809h149l-319 -903q-34 -96 -56.5 -156t-40 -97.5t-34.5 -61.5t-39 -48q-106 -115 -283 -115h-17t-28 2v127q70 0 117.5 10t82 39t61 82.5t55.5 139.5
l-338 981h153z" />
    <glyph glyph-name="dotlessi" unicode="&#x131;" horiz-adv-x="453" 
d="M301 979v-971h-151v971h151z" />
    <glyph glyph-name="fi" unicode="&#xfb01;" horiz-adv-x="1034" 
d="M809 1392q45 0 73.5 -29t28.5 -77q0 -45 -29.5 -73.5t-74.5 -28.5t-75 28.5t-30 73.5q0 48 29.5 77t77.5 29zM883 979v-971h-152v971h152zM557 979v-117h-235v-854h-152v854h-137v117h137v61q0 54 1.5 91.5t6 65.5t12 48.5t19.5 40.5q32 54 88.5 85.5t128.5 31.5
q41 0 76 -7.5t80 -23.5v-133q-39 20 -71.5 28.5t-64.5 8.5q-88 0 -116 -84q-8 -23 -11.5 -55.5t-3.5 -92.5v-65h242z" />
    <glyph glyph-name="fl" unicode="&#xfb02;" horiz-adv-x="1034" 
d="M883 1380v-1372h-152v1372h152zM557 979v-117h-235v-854h-152v854h-137v117h137v61q0 54 1.5 91.5t6 65.5t12 48.5t19.5 40.5q32 54 88.5 85.5t128.5 31.5q41 0 76 -7.5t80 -23.5v-133q-39 20 -71.5 28.5t-64.5 8.5q-88 0 -116 -84q-8 -23 -11.5 -55.5t-3.5 -92.5v-65
h242z" />
    <glyph glyph-name="fraction" unicode="&#x2044;" horiz-adv-x="168" 
d="M537 1339l-781 -1331h-123l779 1331h125z" />
    <glyph glyph-name="dotaccent" unicode="&#x2d9;" 
d="M512 1384q22 0 41.5 -8.5t33.5 -23t22.5 -34t8.5 -40.5q0 -24 -8.5 -44t-22.5 -34.5t-33.5 -22.5t-41.5 -8q-23 0 -42.5 8.5t-34.5 23t-23.5 34t-8.5 41.5q0 48 30.5 78t78.5 30z" />
    <glyph glyph-name="ring" unicode="&#x2da;" 
d="M514 1390q-21 0 -40 -8t-32.5 -21.5t-21.5 -31.5t-8 -39t8 -40t21.5 -32.5t31.5 -21.5t39 -8t39 8t31.5 21.5t21.5 32.5t8 40q0 42 -28 71t-70 29zM514 1478q39 0 73 -14.5t59 -39.5t39.5 -59.5t14.5 -74.5t-14.5 -74.5t-40 -60t-59.5 -40.5t-74 -15t-74 15t-59.5 40.5
t-40 60t-14.5 72.5q0 40 15 74.5t40.5 60t60 40.5t74.5 15z" />
    <glyph glyph-name="caron" unicode="&#x2c7;" 
d="M596 1134h-166l-231 287h139l174 -192l176 192h139z" />
    <glyph glyph-name="breve" unicode="&#x2d8;" 
d="M344 1405q20 -76 65 -118t105 -42q123 0 166 160h84q-6 -65 -26 -116t-52 -87t-75 -55t-95 -19q-53 0 -97 19t-77.5 55t-54.5 87t-27 116h84z" />
    <glyph glyph-name="hungarumlaut" unicode="&#x2dd;" 
d="M768 1407h172l-238 -281h-118zM520 1407h170l-235 -281h-119z" />
    <glyph glyph-name="ogonek" unicode="&#x2db;" 
d="M776 8q-196 -82 -196 -180q0 -42 30.5 -67t79.5 -25q42 0 84 16v-90q-32 -11 -62 -17t-59 -6q-44 0 -80.5 13t-63 35.5t-41.5 54t-15 69.5q0 132 174 197h149z" />
    <glyph glyph-name="lozenge" unicode="&#x25ca;" horiz-adv-x="256" 
d="M218 818v103l31 -41v-103zM188 818v103l-29 -41v-103zM68 818v103l31 -41v-103zM38 818v103l-29 -41v-103zM38 818v103l-29 -41v-103zM38 818v103l-29 -41v-103zM38 818v103l-29 -41v-103zM38 818v103l-29 -41v-103zM38 818v103l-29 -41v-103zM38 818v103l-29 -41v-103z
M38 818v103l-29 -41v-103zM38 818v103l-29 -41v-103zM38 818v103l-29 -41v-103zM38 818v103l-29 -41v-103zM38 818v103l-29 -41v-103zM38 818v103l-29 -41v-103zM38 818v103l-29 -41v-103zM38 818v103l-29 -41v-103zM38 818v103l-29 -41v-103zM38 818v103l-29 -41v-103z
M38 818v103l-29 -41v-103zM38 818v103l-29 -41v-103zM38 818v103l-29 -41v-103zM38 818v103l-29 -41v-103zM38 818v103l-29 -41v-103zM38 818v103l-29 -41v-103z" />
    <glyph glyph-name="Delta" unicode="&#x2206;" horiz-adv-x="1366" 
d="M1100 141l-418 1059l-420 -1059h838zM604 1374h154l551 -1366h-1252z" />
    <glyph glyph-name="notequal" unicode="&#x2260;" 
d="M670 1153l100 -41l-92 -191h278v-127h-338l-92 -192h430v-127h-489l-113 -236l-100 39l94 197h-280v127h340l90 192h-430v127h489z" />
    <glyph glyph-name="radical" unicode="&#x221a;" horiz-adv-x="1366" 
d="M1366 1573h-403l-447 -1565h-176l-170 616h-170v134h287l78 -269q3 -10 6.5 -23.5t10 -43t16.5 -80.5t26 -135h10l8 43l66 278q11 45 22 88t25 88l61 209l224 793h526v-133z" />
    <glyph glyph-name="integral" unicode="&#x222b;" 
d="M233 -354q29 -13 48.5 -17t42.5 -4q98 0 110 94q5 20 5.5 53t0.5 99v1272q0 55 0.5 95.5t3 70.5t6 51t9.5 37q26 69 83.5 108t145.5 39q16 0 30.5 -1t29.5 -3.5t33 -7t42 -11.5l-30 -127q-31 13 -50.5 17t-42.5 4q-92 0 -110 -94q-2 -9 -3 -17.5t-2 -29.5t-1 -60v-108
v-1209q0 -77 -2 -126t-6.5 -81t-12.5 -52.5t-20 -41.5q-57 -98 -228 -98q-35 0 -59 4t-55 17z" />
    <glyph glyph-name="approxequal" unicode="&#x2248;" 
d="M20 436q30 61 60 105.5t63.5 73t71.5 42t84 13.5q21 0 43.5 -3.5t50 -11.5t61 -22t76.5 -35q42 -20 71.5 -33t52 -20.5t40 -10t35.5 -2.5q30 0 54.5 7t46 23.5t43 43.5t45.5 68l86 -52q-60 -118 -129.5 -172.5t-163.5 -54.5q-23 0 -44.5 4t-52.5 14.5t-75.5 29.5
t-112.5 50q-87 39 -137 39q-54 0 -96 -35t-87 -116zM20 776q30 61 60 105t63.5 72t71.5 41t84 13q22 0 44.5 -4t49.5 -12t60 -22t77 -33q46 -21 76.5 -33.5t52 -20t37.5 -10t33 -2.5q30 0 54.5 7t46 24t43 44.5t45.5 68.5l86 -54q-60 -118 -129.5 -172.5t-161.5 -54.5
q-21 0 -43.5 3.5t-54 14t-77 30t-112.5 50.5q-45 20 -78 29.5t-59 9.5q-54 0 -97 -35t-86 -114z" />
    <glyph glyph-name="lessequal" unicode="&#x2264;" 
d="M954 133h-886v133h886v-133zM954 1114l-733 -326l733 -323v-138l-886 398v125l886 401v-137z" />
    <glyph glyph-name="greaterequal" unicode="&#x2265;" 
d="M68 266h886v-133h-886v133zM68 465l733 323l-733 326v137l886 -401v-125l-886 -398v138z" />
    <glyph glyph-name="infinity" unicode="&#x221e;" horiz-adv-x="1366" 
d="M598 723q-56 88 -115 130t-125 42q-39 0 -72 -13.5t-57 -38.5t-37.5 -60.5t-13.5 -78.5q0 -41 14 -75.5t38 -60t57.5 -40t72.5 -14.5q35 0 65.5 10t60 32.5t59.5 58.5t65 89zM766 688q115 -174 240 -174q39 0 72 13.5t57 38.5t37.5 60t13.5 78t-14 78.5t-38 60.5
t-57.5 38.5t-72.5 13.5q-35 0 -66 -10t-60.5 -32.5t-59.5 -58.5t-64 -88zM684 608q-78 -112 -159 -164.5t-179 -52.5q-68 0 -125 23t-98 65t-63.5 100t-22.5 129q0 68 23.5 125t64.5 98t98 64t125 23q185 0 332 -215q39 56 77.5 96.5t79.5 67t86 39t97 12.5q67 0 123.5 -23
t97.5 -65t63.5 -100t22.5 -128q0 -68 -22.5 -125.5t-63.5 -98.5t-97.5 -64t-123.5 -23q-99 0 -180 52.5t-156 164.5z" />
    <glyph glyph-name="product" unicode="&#x220f;" horiz-adv-x="1427" 
d="M1352 1544v-133h-162v-1782h162v-133h-475v133h170v1782h-668v-1782h168v-133h-473v133h162v1782h-162v133h1278z" />
    <glyph glyph-name="summation" unicode="&#x2211;" horiz-adv-x="1366" 
d="M1223 1077h-131l-13 332h-862l518 -848l-518 -932h881l8 330h135v-463h-1184v150l510 915l-510 836v147h1166v-467z" />
    <glyph glyph-name="partialdiff" unicode="&#x2202;" 
d="M524 790q-67 0 -124.5 -27t-100 -74t-66.5 -111t-24 -138q0 -71 23.5 -133.5t65 -109t97 -74t119.5 -27.5t119 27.5t95.5 75.5t63.5 113t23 140q0 73 -21.5 135t-60 107t-92 70.5t-117.5 25.5zM195 1382q87 -12 158 -30t131.5 -44t112.5 -61t101 -82q62 -59 111 -132
t82.5 -156.5t51.5 -176.5t18 -192q0 -197 -84 -324q-61 -94 -156 -146.5t-207 -52.5q-92 0 -174 36.5t-143.5 99.5t-97.5 147.5t-36 179.5q0 94 33.5 176.5t91 143.5t136 96t168.5 35q49 0 89.5 -8.5t76 -26.5t69 -47.5t68.5 -71.5q-27 72 -49.5 122t-47 88t-55.5 69.5
t-76 66.5q-50 39 -96.5 67t-94 47t-96.5 30.5t-104 17.5z" />
    <glyph glyph-name="pi" unicode="&#x3c0;" horiz-adv-x="1180" 
d="M207 860h-152v129h1067v-129h-149v-852h-144v852h-479v-852h-143v852z" />
    <glyph glyph-name="Lslash" unicode="&#x141;" horiz-adv-x="973" 
d="M176 1374h158v-586l340 252v-139l-340 -254v-506h586v-133h-744v553l-141 -109v142l141 108v672z" />
    <glyph glyph-name="Zcaron" unicode="&#x17d;" horiz-adv-x="1010" 
d="M610 1511h-166l-264 269h142l206 -181l205 181h144zM946 1374v-104l-702 -1129h690v-133h-871v119l697 1116h-654v131h840z" />
    <glyph glyph-name="lslash" unicode="&#x142;" horiz-adv-x="453" 
d="M150 1380h151v-534l148 110v-131l-148 -108v-709h-151v633l-148 -107v129l148 107v610z" />
    <glyph glyph-name="zcaron" unicode="&#x17e;" horiz-adv-x="815" 
d="M512 1134h-164l-231 287h137l176 -192l174 192h139zM772 979v-107l-557 -745h547v-119h-717v113l551 739h-508v119h684z" />
    <glyph glyph-name="periodcentered" horiz-adv-x="522" 
d="M262 639q24 0 45.5 -9.5t37 -25.5t25 -37.5t9.5 -46.5q0 -24 -9.5 -45t-25.5 -37t-37.5 -25.5t-46.5 -9.5q-24 0 -45 9.5t-37 25.5t-25.5 37t-9.5 45q0 25 9.5 47t25.5 38t38 25t46 9z" />
    <glyph glyph-name="sfthyphen" horiz-adv-x="561" 
d="M561 579v-112h-561v112h561z" />
    <glyph glyph-name="minus" unicode="&#x2212;" horiz-adv-x="1092" 
d="M983 749v-110h-874v110h874z" />
    <glyph glyph-name="Ohm" unicode="&#x2126;" horiz-adv-x="1366" 
d="M57 137h371q-96 56 -166 120.5t-115.5 140.5t-67.5 163.5t-22 189.5q0 138 48 258t132.5 208.5t198.5 139t246 50.5t246 -50.5t198.5 -138.5t132.5 -208t48 -259q0 -204 -89.5 -354t-281.5 -260h371v-129h-535v117q43 24 76 45t60 42t50 43.5t46 49.5q78 94 116.5 198.5
t38.5 231.5q0 128 -40 226t-126 184q-133 133 -309 133q-101 0 -188.5 -41t-152 -114t-101.5 -172t-37 -216q0 -198 94.5 -349t292.5 -261v-117h-535v129z" />
    <glyph glyph-name="uni2219" unicode="&#x2219;" horiz-adv-x="522" 
d="M262 639q24 0 45.5 -9.5t37 -25.5t25 -37.5t9.5 -46.5q0 -24 -9.5 -45t-25.5 -37t-37.5 -25.5t-46.5 -9.5q-24 0 -45 9.5t-37 25.5t-25.5 37t-9.5 45q0 25 9.5 47t25.5 38t38 25t46 9z" />
    <glyph glyph-name="uni037E" unicode="&#x37e;" horiz-adv-x="489" 
d="M70 -291q33 33 61.5 72t50.5 78.5t36 77.5t18 69h-17q-24 0 -44 8.5t-34.5 24t-23 36t-8.5 44.5t9.5 45.5t26 37.5t39 25.5t49.5 9.5q60 0 96 -43.5t36 -115.5q0 -43 -10 -85.5t-30 -87t-51.5 -93t-74.5 -103.5h-129zM231 979q24 0 45.5 -9.5t37 -25.5t25 -37.5
t9.5 -46.5q0 -24 -9.5 -45.5t-25.5 -37t-37.5 -25t-46.5 -9.5q-24 0 -45 9.5t-36.5 25t-25 37t-9.5 45.5q0 25 9.5 47t25.5 38t37.5 25t45.5 9z" />
    <glyph glyph-name="uni2215" unicode="&#x2215;" horiz-adv-x="168" 
d="M537 1339l-781 -1331h-123l779 1331h125z" />
    <glyph glyph-name="uni02C9" unicode="&#x2c9;" 
d="M793 1327v-109h-560v109h560z" />
    <glyph glyph-name="uni03BC" unicode="&#x3bc;" 
d="M98 991h144v-559q0 -56 4 -97.5t14 -73t26.5 -56.5t41.5 -47q35 -32 81 -49t97 -17q127 0 207 104q19 25 32 51t21 56.5t12 67t4 81.5v539h144v-983h-144v178q-48 -106 -114.5 -155.5t-165.5 -49.5q-88 0 -149.5 36.5t-110.5 115.5v-467h-144v1325z" />
  </font>
</defs>
</svg>
