<?xml version="1.0" standalone="no"?>
<!DOCTYPE svg PUBLIC "-//W3C//DTD SVG 1.1//EN" "http://www.w3.org/Graphics/SVG/1.1/DTD/svg11.dtd" >
<svg>
<metadata>
Created by FontForge 20110222 at Tue Nov 25 22:07:04 2014
 By deploy user
URW Software, Copyright 1993 by URW
</metadata>
<defs>
<font id="CorporateS-Demi" horiz-adv-x="1024" >
  <font-face 
    font-family="CorpoSDem"
    font-weight="400"
    font-stretch="normal"
    units-per-em="2048"
    panose-1="0 0 0 0 0 0 0 0 0 0"
    ascent="1773"
    descent="-275"
    x-height="1027"
    cap-height="1420"
    bbox="-356 -480 6192 1908"
    underline-thickness="102"
    underline-position="-103"
    unicode-range="U+000D-F002"
  />
<missing-glyph horiz-adv-x="512" 
d="M51 55v1365h410v-1365h-410zM410 106v1263h-308v-1263h308z" />
    <glyph glyph-name=".notdef" horiz-adv-x="512" 
d="M51 55v1365h410v-1365h-410zM410 106v1263h-308v-1263h308z" />
    <glyph glyph-name="NULL" horiz-adv-x="0" 
 />
    <glyph glyph-name="NULL" horiz-adv-x="0" 
 />
    <glyph glyph-name="nonmarkingreturn" unicode="&#xd;" horiz-adv-x="512" 
 />
    <glyph glyph-name="space" unicode=" " horiz-adv-x="512" 
 />
    <glyph glyph-name="exclam" unicode="!" horiz-adv-x="513" 
d="M148 1505h217l-27 -914h-169zM257 430q56 0 97 -41q40 -40 40 -98q0 -56 -41 -97t-98 -41t-98 41q-40 40 -40 97q0 58 40 98q42 41 100 41z" />
    <glyph glyph-name="quotedbl" unicode="&#x22;" horiz-adv-x="882" 
d="M350 987h-130l-36 548h203zM662 987h-130l-36 548h203z" />
    <glyph glyph-name="numbersign" unicode="#" horiz-adv-x="1229" 
d="M1138 733l-23 -143h-238l-66 -420h-166l67 420h-275l-67 -420h-165l66 420h-234l23 143h234l42 266h-233l22 143h233l63 393h165l-62 -393h274l63 393h166l-62 -393h238l-23 -143h-238l-42 -266h238zM776 999h-275l-42 -266h275z" />
    <glyph glyph-name="dollar" unicode="$" horiz-adv-x="1133" 
d="M620 969q173 -59 244 -101q188 -110 188 -319q0 -146 -95 -256q-116 -132 -337 -146v-167h-105v167q-206 16 -315 126q-117 120 -118 322h200q11 -234 233 -269v460q-177 61 -237 96q-164 96 -164 294q0 152 96 253q109 115 305 130v145h105v-146q144 -14 244 -90
q137 -104 140 -284h-200q-19 161 -184 193v-408zM515 1378q-198 -35 -198 -184q0 -91 82 -142q15 -9 44 -21.5t72 -26.5v374zM620 323q82 7 136 43q87 57 87 161q0 103 -84 162q-33 24 -139 61v-427z" />
    <glyph glyph-name="percent" unicode="%" horiz-adv-x="1326" 
d="M974 1535h173l-797 -1365h-172zM995 818q52 0 104.5 -25.5t88.5 -68.5q80 -95 80 -235q0 -154 -95 -252q-77 -78 -180 -78q-116 0 -195 94q-80 95 -80 236q0 154 95 252q77 77 182 77zM992 695q-62 0 -100 -62q-35 -59 -35 -144q0 -95 41 -154q38 -53 95 -53q63 0 101 62
q35 59 35 145q0 94 -41 153q-38 53 -96 53zM335 1546q113 0 192 -94q80 -95 80 -235q0 -154 -95 -252q-77 -78 -180 -78q-115 0 -194 94q-80 95 -80 236q0 156 95 251q76 78 182 78zM331 1423q-60 0 -99 -62q-35 -56 -35 -144q0 -95 41 -154q38 -53 94 -53q63 0 101 62
q35 59 35 145q0 94 -41 153q-38 53 -96 53z" />
    <glyph glyph-name="ampersand" unicode="&#x26;" horiz-adv-x="1200" 
d="M884 827h162q1 -19 1 -34.5v-26.5q0 -157 -50 -278q-8 -19 -21 -39.5t-29 -43.5l175 -235h-216l-73 108q-60 -57 -118 -84q-89 -42 -211 -42q-178 0 -293 90q-140 110 -140 292q0 83 31.5 151.5t102.5 139.5q26 26 57 54t69 58q-33 43 -56.5 75t-37.5 53q-54 82 -54 173
q0 126 94 204q88 73 223 73q128 0 207 -67q90 -77 90 -206q0 -123 -86 -224q-23 -26 -54 -55t-70 -61l254 -346q13 24 20.5 46t11.5 42q5 32 8 68.5t3 78.5v36zM480 1028q145 115 145 221q0 54 -41 86q-35 27 -83 27q-54 0 -91 -30q-41 -35 -41 -86q0 -59 38 -118
q10 -16 28.5 -40.5t44.5 -59.5zM443 789q-46 -32 -97 -84q-85 -88 -85 -182q0 -87 64 -145q68 -62 184 -62q134 0 219 94z" />
    <glyph glyph-name="quotesingle" unicode="'" horiz-adv-x="512" 
d="M321 987h-130l-36 548h203z" />
    <glyph glyph-name="parenleft" unicode="(" horiz-adv-x="602" 
d="M535 1547q-216 -332 -216 -886q0 -570 216 -901h-153q-248 335 -248 894q0 552 248 893h153z" />
    <glyph glyph-name="parenright" unicode=")" horiz-adv-x="604" 
d="M67 -240q218 332 218 886q0 569 -218 901h154q249 -338 249 -894q0 -554 -249 -893h-154z" />
    <glyph glyph-name="asterisk" unicode="*" 
d="M460 1254v247h105v-247l235 77l32 -100l-235 -76l145 -200l-84 -61l-145 200l-146 -200l-84 61l145 200l-235 76l33 100z" />
    <glyph glyph-name="plus" unicode="+" horiz-adv-x="1133" 
d="M645 931h385v-152h-385v-399h-158v399h-384v152h384v399h158v-399z" />
    <glyph glyph-name="comma" unicode="," horiz-adv-x="502" 
d="M57 -217q34 42 64 90t56 105q24 54 37 102t17 93q-52 1 -80 20q-59 38 -59 106q0 60 44 101q40 37 100 37q65 0 107 -50q43 -49 43 -139q0 -133 -76 -275q-22 -40 -52.5 -87.5t-70.5 -102.5h-130z" />
    <glyph glyph-name="hyphen" unicode="-" horiz-adv-x="547" 
d="M0 761h547v-150h-547v150z" />
    <glyph glyph-name="period" unicode="." horiz-adv-x="518" 
d="M260 300q56 0 97 -41q40 -40 40 -98q0 -56 -41 -97t-98 -41t-98 41q-40 40 -40 97q0 58 40 98q42 41 100 41z" />
    <glyph glyph-name="slash" unicode="/" horiz-adv-x="1153" 
d="M75 -184l836 1719h167l-835 -1719h-168z" />
    <glyph glyph-name="zero" unicode="0" horiz-adv-x="1133" 
d="M573 1413q97 0 180 -42.5t140 -120.5q137 -189 137 -526q0 -334 -137 -525q-117 -163 -326 -163q-212 0 -327 163q-137 191 -137 522q0 341 137 529q118 163 333 163zM563 1242q-110 0 -165 -99q-87 -152 -87 -419t87 -418q55 -99 169 -99q112 0 168 99q87 151 87 415
q0 273 -87 422q-59 99 -172 99z" />
    <glyph glyph-name="one" unicode="1" horiz-adv-x="1133" 
d="M346 1050v120q131 2 205 58q69 53 95 166h141v-1339h-205v995h-236z" />
    <glyph glyph-name="two" unicode="2" horiz-adv-x="1133" 
d="M169 1007q1 162 76 261q112 145 331 145q174 0 281 -92q109 -93 109 -250q0 -116 -83 -244q-80 -126 -465 -585h562v-187h-826v164q17 22 56.5 70t105.5 127q135 162 220 269t127 167q93 130 93 215q0 74 -54 121q-53 45 -135 45q-132 0 -185 -98q-29 -53 -35 -128h-178z
" />
    <glyph glyph-name="three" unicode="3" horiz-adv-x="1133" 
d="M185 1039q6 159 93 254q111 120 316 120q179 0 283 -98q101 -96 101 -247q0 -208 -209 -297q239 -75 239 -323q0 -204 -148 -322q-115 -91 -293 -91q-262 0 -374 168q-66 98 -65 242h185q1 -95 51 -153q64 -78 197 -78q115 0 176 61q65 63 65 170q0 154 -135 202
q-33 12 -81 17.5t-112 5.5h-39v172q34 -3 52 -3q121 0 188 40q96 55 96 173q0 81 -52 132q-54 51 -145 51q-183 0 -211 -196h-178z" />
    <glyph glyph-name="four" unicode="4" horiz-adv-x="1133" 
d="M824 522h237v-169h-232v-313h-207v313h-550v162l525 879h227v-872zM632 522v633l-365 -633h365z" />
    <glyph glyph-name="five" unicode="5" horiz-adv-x="1133" 
d="M277 1386h642l-16 -183h-472l-55 -320q101 74 217 74q195 0 308 -137q98 -119 98 -298q0 -203 -124 -342q-128 -144 -326 -144q-220 0 -332 145q-74 95 -83 226h193q13 -79 55 -127q59 -65 159 -65q113 0 174 79q69 88 69 218q0 126 -66 207q-57 69 -157 69
q-132 0 -221 -125l-178 24z" />
    <glyph glyph-name="six" unicode="6" horiz-adv-x="1133" 
d="M843 1411q-231 -266 -351 -468q57 21 121 21q170 0 281 -126q110 -125 110 -325q0 -230 -141 -365q-115 -112 -288 -112q-183 0 -304 120q-141 138 -141 356q0 255 201 548q89 131 287 351h225zM564 802q-89 0 -149 -65q-77 -86 -77 -229q0 -141 75 -226q62 -71 159 -71
q95 0 152 69q72 87 72 225q0 146 -77 232q-60 65 -155 65z" />
    <glyph glyph-name="seven" unicode="7" horiz-adv-x="1133" 
d="M132 1386h870v-161l-640 -1170h-228l624 1136h-626v195z" />
    <glyph glyph-name="eight" unicode="8" horiz-adv-x="1133" 
d="M312 757q-155 89 -155 275q0 179 137 289q116 92 272 92t272 -92q137 -110 137 -289q0 -187 -154 -275q185 -104 185 -316q0 -190 -141 -305q-121 -100 -299 -100q-177 0 -298 100q-141 115 -141 306q0 211 185 315zM564 1246q-83 0 -138 -52q-61 -57 -61 -154t61 -154
q55 -52 141 -52q85 0 140 52q61 57 61 153q0 100 -61 155q-58 52 -143 52zM564 668q-81 0 -145 -49q-84 -63 -84 -184q0 -120 84 -183q64 -49 148 -49t148 49q83 63 83 183q0 121 -83 184q-64 49 -151 49z" />
    <glyph glyph-name="nine" unicode="9" horiz-adv-x="1133" 
d="M289 30q115 136 202 250.5t150 220.5q-54 -21 -120 -21q-168 0 -280 127q-111 126 -111 320q0 238 153 378q118 108 292 108q168 0 284 -104q145 -132 145 -373q0 -132 -49 -268t-153 -286q-51 -73 -121.5 -161t-167.5 -191h-224zM568 1238q-90 0 -150 -66
q-80 -89 -80 -235q0 -144 77 -230q59 -65 152 -65t152 65q77 86 77 231q0 155 -76 237q-57 63 -152 63z" />
    <glyph glyph-name="colon" unicode=":" horiz-adv-x="518" 
d="M260 315q56 0 97 -41q40 -40 40 -98q0 -56 -41 -97t-98 -41t-98 41q-40 40 -40 97q0 58 40 98q42 41 100 41zM260 1028q56 0 97 -41q40 -40 40 -98q0 -56 -41 -97t-98 -41t-98 41q-40 40 -40 97q0 58 40 98q42 41 100 41z" />
    <glyph glyph-name="semicolon" unicode=";" horiz-adv-x="502" 
d="M236 1028q56 0 97 -41q40 -40 40 -97q0 -58 -41 -99q-40 -40 -98 -40q-57 0 -98 41q-40 40 -40 97q0 58 40 98q42 41 100 41zM57 -332q34 42 64 90t56 105q24 54 37 102t17 93q-52 1 -80 20q-59 38 -59 106q0 60 44 101q40 37 100 37q65 0 107 -50q43 -49 43 -139
q0 -133 -76 -275q-22 -40 -52.5 -87.5t-70.5 -102.5h-130z" />
    <glyph glyph-name="less" unicode="&#x3c;" 
d="M955 1266v-200l-673 -319l673 -318v-199l-887 432v172z" />
    <glyph glyph-name="equal" unicode="=" horiz-adv-x="1133" 
d="M103 971h927v-154h-927v154zM103 662h927v-154h-927v154z" />
    <glyph glyph-name="greater" unicode="&#x3e;" 
d="M69 229v201l673 317l-673 319v199l887 -432v-172z" />
    <glyph glyph-name="question" unicode="?" horiz-adv-x="849" 
d="M415 315q56 0 97 -41q40 -40 40 -98q0 -56 -41 -97t-98 -41t-98 41q-40 40 -40 97q0 58 40 98q42 41 100 41zM319 472q0 69 0.5 114.5t2.5 70.5q2 34 13 64.5t28 57.5q11 18 33.5 45.5t57.5 64.5q38 40 62 69t34 46q27 46 27 94q0 64 -42 99q-38 32 -100 32
q-155 0 -169 -179h-165q6 164 74 244q99 115 284 115q152 0 239 -75q94 -82 94 -226q0 -98 -54 -177q-16 -23 -44.5 -55.5t-70.5 -77.5q-87 -91 -103 -140q-12 -36 -12 -121v-29t1 -36h-190z" />
    <glyph glyph-name="at" unicode="@" horiz-adv-x="1502" 
d="M994 1066h143l-80 -414q-7 -34 -10 -57.5t-3 -36.5q0 -34 14 -60q16 -30 47 -30q61 0 114 75q88 124 88 296q0 219 -150 353q-143 126 -370 126q-249 0 -409 -162q-169 -169 -169 -428q0 -252 157 -412q154 -159 440 -159q194 0 398 80l35 -128q-211 -80 -433 -80
q-333 0 -531 189q-104 97 -156 234q-53 142 -53 279q0 159 52.5 284t158.5 231q103 103 227 151t281 48q272 0 450 -154q97 -85 149.5 -195.5t52.5 -255.5q0 -180 -89 -323q-107 -168 -249 -168q-76 0 -123 59q-21 27 -32 77q-93 -139 -248 -139q-134 0 -216 94
q-81 91 -81 236q0 171 114 299q102 114 245 114q150 0 215 -129zM777 945q-99 0 -162 -95q-52 -76 -52 -175q0 -79 36 -130q44 -62 129 -62q102 0 159 102q44 80 44 180q0 75 -35 125q-40 55 -119 55z" />
    <glyph glyph-name="A" unicode="A" horiz-adv-x="1198" 
d="M495 1424h205l467 -1369h-219l-101 320h-497l-103 -320h-217zM791 557l-193 614l-193 -614h386z" />
    <glyph glyph-name="B" unicode="B" horiz-adv-x="1168" 
d="M169 1420h312q230 0 325 -34q108 -38 163 -126q49 -77 49 -182q0 -140 -85 -219q-48 -45 -140 -73q298 -70 298 -343q0 -173 -116 -280q-49 -45 -116.5 -69t-158.5 -32q-38 -4 -99 -5.5t-149 -1.5h-283v1365zM377 853h120q151 0 219 33q93 45 93 168q0 122 -101 167
q-56 25 -222 25h-109v-393zM377 229h127q197 0 265 30q29 13 49.5 36t35.5 57q19 41 19 103q0 155 -127 203q-33 12 -92 18.5t-147 6.5h-130v-454z" />
    <glyph glyph-name="C" unicode="C" horiz-adv-x="1230" 
d="M952 1007q-50 254 -281 254q-164 0 -258 -133q-103 -145 -103 -392q0 -245 107 -394q93 -128 257 -128q262 0 293 328h192q-11 -184 -79 -300q-125 -212 -399 -212q-247 0 -406 164q-187 190 -187 540q0 377 209 569q154 142 375 142q135 0 228 -45.5t154 -133.5
q70 -100 85 -259h-187z" />
    <glyph glyph-name="D" unicode="D" horiz-adv-x="1304" 
d="M169 1420h277q85 0 151.5 -4t120.5 -12q220 -35 351 -204q146 -191 146 -461q0 -279 -149 -470q-136 -174 -368 -202q-95 -12 -281 -12h-248v1365zM380 237h110q63 0 110 2.5t81 8.5q153 25 233 156q83 137 83 336q0 204 -92 340q-42 61 -100 98t-136 50q-35 5 -92 8
t-138 3h-59v-1002z" />
    <glyph glyph-name="E" unicode="E" horiz-adv-x="1066" 
d="M380 853h548v-182h-548v-434h615v-182h-826v1365h808v-181h-597v-386z" />
    <glyph glyph-name="F" unicode="F" horiz-adv-x="1031" 
d="M380 853h548v-182h-548v-616h-211v1365h808v-181h-597v-386z" />
    <glyph glyph-name="G" unicode="G" horiz-adv-x="1295" 
d="M721 747h456v-565q-218 -152 -479 -152q-266 0 -427 168q-183 189 -183 540t184 541q160 166 407 166q143 0 259 -62q196 -105 220 -373h-187q-47 251 -289 251q-166 0 -257 -117q-115 -145 -115 -407q0 -261 118 -406q94 -117 271 -117q155 0 298 89v278h-276v166z" />
    <glyph glyph-name="H" unicode="H" horiz-adv-x="1350" 
d="M380 855h589v565h211v-1365h-211v625h-589v-625h-211v1365h211v-565z" />
    <glyph glyph-name="I" unicode="I" horiz-adv-x="550" 
d="M381 55h-213v1365h213v-1365z" />
    <glyph glyph-name="J" unicode="J" horiz-adv-x="641" 
d="M264 1420h213v-1089q0 -156 -6 -220q-30 -287 -408 -287q-11 0 -28.5 0.5t-40.5 1.5v178q52 -1 90.5 2.5t64.5 10.5q75 21 96 70q16 37 18 121q1 16 1 46v75v1091z" />
    <glyph glyph-name="K" unicode="K" horiz-adv-x="1214" 
d="M909 1420h247l-532 -639l575 -726h-276l-540 720zM169 1420h211v-1365h-211v1365z" />
    <glyph glyph-name="L" unicode="L" horiz-adv-x="1016" 
d="M169 1420h217v-1183h589v-182h-806v1365z" />
    <glyph glyph-name="M" unicode="M" horiz-adv-x="1619" 
d="M169 1420h303l337 -1137l339 1137h301v-1365h-194v1133l-339 -1133h-216l-337 1133v-1133h-194v1365z" />
    <glyph glyph-name="N" unicode="N" horiz-adv-x="1368" 
d="M169 1420h227l602 -1043v1043h200v-1365h-218l-610 1041v-1041h-201v1365z" />
    <glyph glyph-name="O" unicode="O" horiz-adv-x="1353" 
d="M684 1445q236 0 398 -172q183 -194 183 -536t-183 -535q-162 -172 -406 -172q-245 0 -405 172q-183 193 -183 533q0 344 183 538q162 172 413 172zM671 1263q-78 0 -144 -34.5t-111 -97.5q-106 -148 -106 -394q0 -242 106 -393q93 -132 260 -132q169 0 261 132
q106 151 106 391q0 251 -106 396q-95 132 -266 132z" />
    <glyph glyph-name="P" unicode="P" horiz-adv-x="1119" 
d="M169 1420h275q267 0 383 -39q127 -42 193 -158q55 -97 55 -225q0 -184 -111 -293q-97 -97 -284 -112q-83 -6 -209 -6h-91v-532h-211v1365zM380 769h90q88 0 149.5 4.5t96.5 15.5q73 22 111 87q30 52 30 123q0 156 -114 207q-75 33 -275 33h-88v-470z" />
    <glyph glyph-name="Q" unicode="Q" horiz-adv-x="1384" 
d="M1461 47h-248l-136 150q-162 -167 -402 -167q-242 0 -404 172q-183 195 -183 536q0 340 183 535q162 172 406 172q243 0 405 -172q183 -195 183 -532q0 -226 -79 -388zM671 1263q-76 0 -142.5 -34.5t-111.5 -98.5q-107 -152 -107 -393q0 -238 107 -393q91 -132 259 -132
t260 132q107 155 107 391q0 243 -107 395q-94 133 -265 133z" />
    <glyph glyph-name="R" unicode="R" horiz-adv-x="1181" 
d="M169 1420h294q167 0 259 -12q171 -24 264 -133q88 -103 88 -259q0 -270 -260 -375l336 -586h-249l-311 550h-210v-550h-211v1365zM380 787h95q188 0 248 25q72 31 103 84q16 26 23 56.5t7 65.5q0 134 -107 187q-53 27 -148 32q-19 1 -52.5 1.5t-84.5 0.5h-84v-452z" />
    <glyph glyph-name="S" unicode="S" horiz-adv-x="1140" 
d="M805 1042q-7 87 -52 141q-66 78 -190 78q-90 0 -151 -43q-72 -53 -72 -133q0 -76 76 -122q47 -29 232 -107q159 -67 217 -101q183 -110 183 -319q0 -201 -152 -315q-121 -91 -316 -91q-286 0 -416 186q-74 104 -81 281h205q10 -127 70 -194q80 -89 226 -89q108 0 179 53
q68 51 68 134q0 87 -89 149q-23 16 -78 42.5t-146 65.5q-208 89 -281 156q-109 102 -109 251q0 190 151 295q121 85 290 85q248 0 369 -169q63 -87 71 -234h-204z" />
    <glyph glyph-name="T" unicode="T" horiz-adv-x="992" 
d="M33 1420h927v-181h-359v-1184h-211v1184h-357v181z" />
    <glyph glyph-name="U" unicode="U" horiz-adv-x="1334" 
d="M153 1420h211v-793q0 -52 1 -88.5t3 -57.5q13 -144 95 -206q79 -61 204 -61q124 0 203 61q82 62 95 206q2 21 3 57.5t1 88.5v793h211v-796q0 -78 -2.5 -133.5t-7.5 -89.5q-22 -153 -132 -248q-143 -123 -371 -123q-230 0 -372 123q-109 94 -132 248q-5 34 -7.5 89.5
t-2.5 133.5v796z" />
    <glyph glyph-name="V" unicode="V" horiz-adv-x="1202" 
d="M21 1420h226l356 -1123l354 1123h222l-472 -1369h-218z" />
    <glyph glyph-name="W" unicode="W" horiz-adv-x="1691" 
d="M27 1420h199l262 -1111l268 1111h182l268 -1111l265 1111h194l-339 -1369h-236l-246 972l-243 -972h-235z" />
    <glyph glyph-name="X" unicode="X" horiz-adv-x="1157" 
d="M60 1420h242l279 -470l282 470h242l-402 -653l425 -712h-241l-306 519l-311 -519h-240l427 712z" />
    <glyph glyph-name="Y" unicode="Y" horiz-adv-x="1103" 
d="M11 1420h239l305 -588l301 588h236l-435 -811v-554h-210v554z" />
    <glyph glyph-name="Z" unicode="Z" horiz-adv-x="1018" 
d="M107 1420h860v-148l-664 -1035h647v-182h-896v165l657 1021h-604v179z" />
    <glyph glyph-name="bracketleft" unicode="[" horiz-adv-x="602" 
d="M169 1420h362v-161h-184v-1440h184v-162h-362v1763z" />
    <glyph glyph-name="backslash" unicode="\" horiz-adv-x="1153" 
d="M1078 -299h-168l-835 1719h167z" />
    <glyph glyph-name="bracketright" unicode="]" horiz-adv-x="602" 
d="M433 -343h-362v161h184v1440h-184v162h362v-1763z" />
    <glyph glyph-name="asciicircum" unicode="^" 
d="M246 775h-213l347 651h265l347 -651h-214l-266 491z" />
    <glyph glyph-name="underscore" unicode="_" 
d="M0 -61h1024v-183h-1024v183z" />
    <glyph glyph-name="grave" unicode="`" 
d="M670 1161h-157l-342 309h261z" />
    <glyph glyph-name="a" unicode="a" horiz-adv-x="1014" 
d="M124 753q16 136 98 206q106 90 298 90q164 0 258 -70q74 -56 89 -175q6 -48 6 -136v-379q0 -85 7 -142.5t23 -91.5h-186q-8 29 -12 59t-5 61q-79 -142 -278 -142q-140 0 -228 63q-104 74 -104 214q0 208 223 292q54 20 143 41t222 44v27q0 86 -28 120q-42 52 -142 52
q-165 0 -190 -133h-194zM678 548q-106 -16 -177.5 -34t-109.5 -40q-95 -53 -95 -141q0 -59 43 -99q46 -42 123 -42q131 0 187 102q29 53 29 179v75z" />
    <glyph glyph-name="b" unicode="b" horiz-adv-x="1085" 
d="M145 1428h201v-533q28 48 86 94q78 60 185 60q142 0 244 -102q144 -146 144 -404q0 -262 -152 -408q-107 -102 -258 -102q-176 0 -264 156q-2 -77 -18 -134h-179q6 35 8.5 101.5t2.5 163.5v1108zM575 878q-100 0 -163 -87q-67 -91 -67 -253t73 -259q55 -75 152 -75
q94 0 147 65q42 51 62 119t20 156q0 162 -68 257q-56 77 -156 77z" />
    <glyph glyph-name="c" unicode="c" horiz-adv-x="987" 
d="M702 706q-13 78 -44 121q-44 63 -139 63q-100 0 -158 -78q-76 -100 -76 -274q0 -199 95 -294q52 -52 140 -52q113 0 161 91q20 39 30 112h196q-11 -150 -99 -252q-100 -115 -287 -115q-181 0 -299 117q-143 141 -143 394q0 268 161 415q109 100 283 100q202 0 305 -142
q57 -78 72 -206h-198z" />
    <glyph glyph-name="d" unicode="d" horiz-adv-x="1084" 
d="M938 1428v-1075q0 -72 1 -122t3 -79q2 -23 5.5 -47t8.5 -50h-190q-12 52 -12 95q0 8 0.5 18.5t1.5 23.5q-38 -65 -79 -97q-77 -62 -195 -62q-161 0 -265 107q-138 141 -138 392q0 269 152 418q100 99 243 99q112 0 185 -55q17 -13 36.5 -35t41.5 -53v522h201zM512 878
q-94 0 -148 -68q-42 -51 -60.5 -118t-18.5 -155q0 -164 74 -262q53 -71 151 -71q96 0 150 66q81 97 81 270q0 166 -69 261q-56 77 -160 77z" />
    <glyph glyph-name="e" unicode="e" horiz-adv-x="1026" 
d="M282 497q4 -127 54 -202q67 -102 203 -102q143 0 206 128l181 -13q-31 -104 -100 -172q-108 -108 -292 -108q-171 0 -288 96q-167 137 -167 404q0 143 41 246.5t116 172.5q116 107 291 107q206 0 321 -157q99 -135 99 -352v-20t-1 -28h-664zM741 647q-29 246 -219 246
q-186 0 -234 -246h453z" />
    <glyph glyph-name="f" unicode="f" horiz-adv-x="630" 
d="M369 1027h235v-159h-233v-813h-205v813h-133v159h133v61q0 181 47 255q72 113 234 113q89 0 191 -39v-170q-78 34 -155 34q-81 0 -103 -72q-6 -18 -8.5 -52.5t-2.5 -85.5v-44z" />
    <glyph glyph-name="g" unicode="g" horiz-adv-x="1040" 
d="M999 1027v-146h-199q27 -27 47 -84q9 -27 14 -54.5t5 -56.5q0 -113 -63 -185q-53 -60 -170 -90q-44 -11 -193 -33q-46 -7 -76 -28q-26 -20 -26 -42q0 -32 43 -42q34 -8 162 -21q226 -22 304 -63q60 -32 94 -92t34 -135q0 -158 -138 -242q-119 -72 -324 -72
q-227 0 -355 86q-109 75 -109 197q0 112 85 176q43 31 115 57q-107 44 -107 116q0 62 67 105q20 13 47 25.5t59 25.5q-179 83 -179 278q0 157 109 250q103 88 273 88q56 0 171 -26zM503 890q-84 0 -137 -53q-50 -50 -50 -128q0 -74 47 -119q51 -51 139 -51q90 0 141 51
q47 47 47 119q0 77 -47 127q-48 54 -140 54zM486 83q-100 0 -179 -32q-82 -33 -82 -111q0 -72 86 -110q84 -36 205 -36q134 0 208 47q57 36 57 96q0 146 -295 146z" />
    <glyph glyph-name="h" unicode="h" horiz-adv-x="1086" 
d="M145 1428h201v-512q108 133 279 133q103 0 186 -48q96 -56 123 -174q6 -28 9.5 -81t3.5 -131v-560h-201v526q0 142 -26 200q-39 90 -155 90q-124 0 -184 -108q-35 -65 -35 -193v-515h-201v1373z" />
    <glyph glyph-name="i" unicode="i" horiz-adv-x="495" 
d="M145 1027h205v-972h-205v972zM251 1443q51 0 85 -31q38 -35 38 -97q0 -56 -34 -90q-35 -35 -93 -35t-92 34t-34 89q0 62 39 97q37 33 91 33z" />
    <glyph glyph-name="j" unicode="j" horiz-adv-x="537" 
d="M191 1027h205v-858q0 -85 -3.5 -140.5t-9.5 -84.5q-31 -149 -158 -220q-87 -48 -247 -48h-20t-28 1v174q11 -1 20 -1h15q153 0 203 87q19 33 22 112q0 11 0.5 40.5t0.5 78.5v859zM298 1443q53 0 84 -31q38 -35 38 -96q0 -57 -34 -91q-35 -35 -93 -35t-92 34t-34 90
q0 61 39 96q36 33 92 33z" />
    <glyph glyph-name="k" unicode="k" horiz-adv-x="1046" 
d="M731 1027h243l-384 -445l415 -527h-272l-383 523zM145 1428h201v-1373h-201v1373z" />
    <glyph glyph-name="l" unicode="l" horiz-adv-x="495" 
d="M145 1428h205v-1373h-205v1373z" />
    <glyph glyph-name="m" unicode="m" horiz-adv-x="1642" 
d="M316 1027q10 -28 15 -60.5t4 -70.5q100 153 289 153q194 0 274 -162q112 162 308 162q195 0 263 -135q27 -56 33 -144q1 -10 1 -43.5v-91.5v-580h-201v577q0 128 -25 171q-41 68 -147 68q-206 0 -206 -255v-561h-201v556q0 136 -20 182q-35 78 -149 78q-63 0 -111 -27.5
t-71 -78.5q-26 -60 -26 -158v-552h-201v709q0 130 -6 180q-2 22 -7 42.5t-12 40.5h196z" />
    <glyph glyph-name="n" unicode="n" horiz-adv-x="1080" 
d="M312 1027q10 -25 14.5 -57.5t5.5 -74.5q103 154 293 154q113 0 196 -57q97 -69 114 -203q6 -50 6 -174v-560h-201v526q0 149 -24 202q-40 88 -151 88q-125 0 -185 -106q-35 -62 -35 -191v-519h-201v632q0 184 -6 241q-2 18 -7 42.5t-13 56.5h194z" />
    <glyph glyph-name="o" unicode="o" horiz-adv-x="1066" 
d="M538 1054q173 0 298 -120q72 -69 111.5 -171t39.5 -223t-39.5 -222.5t-111.5 -170.5q-125 -119 -303 -119t-303 119q-72 69 -111.5 171t-39.5 220q0 121 39.5 224t111.5 172q126 120 308 120zM530 890q-105 0 -170 -89q-75 -101 -75 -261q0 -159 75 -259q64 -88 173 -88
t173 88q75 100 75 258q0 161 -75 262q-66 89 -176 89z" />
    <glyph glyph-name="p" unicode="p" horiz-adv-x="1084" 
d="M145 -348v1075q0 115 -5 188.5t-13 111.5h190q20 -48 18 -128q97 150 270 150q150 0 251 -98q148 -145 148 -407q0 -272 -156 -419q-98 -92 -234 -92q-110 0 -190 59q-19 14 -38.5 35t-39.5 47v-522h-201zM573 878q-93 0 -150 -69q-81 -98 -81 -272q0 -166 76 -257
q63 -76 161 -76q91 0 142 65q77 98 77 269q0 173 -77 274q-51 66 -148 66z" />
    <glyph glyph-name="q" unicode="q" horiz-adv-x="1084" 
d="M737 -348v520q-42 -59 -78 -84q-73 -55 -176 -55q-144 0 -247 93q-157 141 -157 408q0 269 149 415q103 100 257 100q179 0 263 -149q-1 61 17 127h191q-5 -25 -8.5 -49.5t-5.5 -48.5q-2 -31 -3 -80.5t-1 -121.5v-1075h-201zM508 878q-89 0 -143 -67q-80 -101 -80 -274
q0 -172 79 -266q55 -67 150 -67q100 0 159 80q68 95 68 253q0 174 -81 272q-56 69 -152 69z" />
    <glyph glyph-name="r" unicode="r" horiz-adv-x="723" 
d="M324 1027q15 -74 15 -150q0 -10 -0.5 -23.5t-1.5 -32.5q106 228 265 228q23 0 97 -20v-203q-77 44 -142 44q-124 0 -175 -133q-35 -90 -35 -238v-444h-202v656q0 118 -3.5 195.5t-9.5 120.5h192z" />
    <glyph glyph-name="s" unicode="s" horiz-adv-x="949" 
d="M655 744q-9 70 -39 103q-45 51 -137 51q-69 0 -115 -34q-45 -33 -45 -89q0 -52 42 -80q19 -13 66.5 -30t123.5 -40q69 -21 116.5 -38t74.5 -33q119 -68 119 -217q0 -141 -94 -223q-101 -86 -282 -86q-287 0 -369 178q-32 68 -32 162h191q8 -83 42 -122q54 -61 163 -61
q76 0 122 31q56 36 56 105q0 59 -64 93q-17 9 -69 27.5t-143 44.5q-145 43 -200 100q-64 67 -64 170q0 136 103 218q101 80 261 80q223 0 317 -142q44 -68 50 -168h-194z" />
    <glyph glyph-name="t" unicode="t" horiz-adv-x="691" 
d="M403 1027h214l-3 -159h-214l-7 -430q-2 -77 0 -122q3 -104 101 -104q51 0 145 32l-3 -170q-101 -39 -196 -39q-158 0 -221 104q-34 55 -34 172q0 35 3 127l12 430h-149l3 159h152l7 280h195z" />
    <glyph glyph-name="u" unicode="u" horiz-adv-x="1082" 
d="M139 1027h201v-573q0 -130 34 -176q48 -67 149 -67q121 0 178 99q35 62 35 183v534h201v-674v-100t1 -56q1 -37 6.5 -72t16.5 -70h-193q-17 70 -20 120q-91 -142 -267 -142q-202 0 -293 148q-49 79 -49 266v580z" />
    <glyph glyph-name="v" unicode="v" horiz-adv-x="961" 
d="M21 1027h212l246 -752l247 752h210l-345 -980h-225z" />
    <glyph glyph-name="w" unicode="w" horiz-adv-x="1450" 
d="M29 1027h204l194 -726l214 726h166l213 -726l196 726h203l-287 -980h-209l-202 666l-200 -666h-209z" />
    <glyph glyph-name="x" unicode="x" horiz-adv-x="969" 
d="M56 1027h239l190 -307l193 307h241l-310 -454l353 -518h-244l-233 359l-235 -359h-243l356 518z" />
    <glyph glyph-name="y" unicode="y" horiz-adv-x="964" 
d="M33 1027h214l238 -773l247 773h210l-325 -925q-29 -81 -48.5 -133t-30.5 -75q-35 -75 -83 -125.5t-109 -80.5q-85 -43 -221 -43q-11 0 -28.5 0.5t-40.5 1.5v176q13 -1 22.5 -1h15.5q115 0 173 37q58 36 106 168z" />
    <glyph glyph-name="z" unicode="z" horiz-adv-x="843" 
d="M93 1027h700v-150l-510 -656h509v-166h-746v155l503 651h-456v166z" />
    <glyph glyph-name="braceleft" unicode="{" horiz-adv-x="602" 
d="M264 538q69 -44 92 -91q28 -55 28 -167v-289q0 -110 19 -141q29 -47 148 -47h27v-155q-19 -1 -34 -1.5t-28 -0.5q-42 0 -76.5 3.5t-62.5 9.5q-124 28 -154 148q-9 34 -13 74t-4 86v320q0 100 -30 136q-35 41 -84 50v131q49 9 84 50q30 36 30 136v320q0 48 4 88.5t13 72.5
q32 119 154 146q32 7 66.5 10.5t72.5 3.5q11 0 26.5 -0.5t35.5 -1.5v-155h-28q-126 0 -151 -54q-15 -32 -15 -134v-289q0 -112 -28 -167q-22 -46 -92 -92z" />
    <glyph glyph-name="bar" unicode="|" 
d="M411 1420h201v-1706h-201v1706z" />
    <glyph glyph-name="braceright" unicode="}" horiz-adv-x="602" 
d="M338 538q-70 46 -92 92q-28 55 -28 167v289q0 110 -19 141q-29 47 -146 47h-29v155q20 1 35 1.5t26 0.5q42 0 77 -3t63 -10q57 -13 98.5 -52.5t55.5 -94.5q9 -33 13 -73t4 -88v-320q0 -100 30 -136q35 -41 84 -50v-131q-49 -9 -84 -50q-30 -36 -30 -136v-320
q0 -45 -4 -85t-13 -75q-14 -57 -55.5 -96t-98.5 -52q-28 -7 -63 -10t-77 -3q-13 0 -28 0.5t-33 1.5v156q10 -1 17 -1h12q124 0 150 54q15 31 15 134v289q0 112 28 167q23 47 92 91z" />
    <glyph glyph-name="asciitilde" unicode="~" horiz-adv-x="1365" 
d="M188 1301q25 51 43 85t32 54q83 119 218 119q70 0 223 -62q49 -20 81 -32.5t46 -16.5q34 -9 62 -9q67 0 111 45q13 13 27 33t30 46l117 -69q-64 -133 -130 -185q-82 -64 -180 -64q-65 0 -292 94q-64 26 -111 26q-62 0 -109 -53q-13 -14 -26.5 -35.5t-27.5 -49.5z" />
    <glyph glyph-name="_1" unicode="&#x20ac;" horiz-adv-x="1230" 
d="M-47 941h747v-154h-747v154zM-47 682h707v-154h-707v154zM952 1007q-50 254 -281 254q-164 0 -258 -133q-103 -145 -103 -392q0 -245 107 -394q93 -128 257 -128q262 0 293 328h192q-11 -184 -79 -300q-125 -212 -399 -212q-247 0 -406 164q-187 190 -187 540
q0 377 209 569q154 142 375 142q135 0 228 -45.5t154 -133.5q70 -100 85 -259h-187z" />
    <glyph glyph-name="quotesinglbase" unicode="&#x201a;" horiz-adv-x="443" 
d="M85 -181q24 26 44.5 56t37.5 62q34 67 39 119q-46 3 -74 19q-54 33 -54 98q0 54 41 92q38 35 91 35q60 0 100 -46q39 -45 39 -122q0 -141 -144 -313h-120z" />
    <glyph glyph-name="florin" unicode="&#x192;" horiz-adv-x="1133" 
d="M763 1027h220v-151h-247l-102 -582q-14 -81 -25 -135.5t-18 -83.5q-39 -161 -113 -229q-77 -69 -185 -69q-129 0 -268 82l30 165q130 -75 218 -75q54 0 83 38q19 25 37 94q10 35 20.5 88t23.5 125l102 582h-195v151h222l21 118q34 194 86 269q78 113 227 113
q101 0 208 -57l-28 -160q-110 48 -160 48q-76 0 -107 -93q-8 -24 -17.5 -63t-18.5 -93z" />
    <glyph glyph-name="quotedblbase" unicode="&#x201e;" horiz-adv-x="775" 
d="M70 -181q23 26 44 55.5t38 62.5q34 67 39 119q-49 3 -74 19q-54 33 -54 98q0 55 41 93q37 34 91 34q60 0 99 -46q39 -45 39 -122q0 -140 -143 -313h-120zM416 -181q54 59 83 118q17 34 26.5 63.5t11.5 55.5q-46 3 -74 19q-54 33 -54 98q0 55 41 93q37 34 91 34
q60 0 100 -46q39 -45 39 -122q0 -140 -143 -313h-121z" />
    <glyph glyph-name="ellipsis" unicode="&#x2026;" horiz-adv-x="1442" 
d="M260 315q56 0 97 -41q40 -40 40 -98q0 -56 -41 -97t-98 -41t-98 41q-40 40 -40 97q0 58 40 98q42 41 100 41zM721 315q56 0 97 -41q40 -40 40 -98q0 -56 -41 -97t-98 -41t-98 41q-40 40 -40 97q0 58 40 98q42 41 100 41zM1183 315q56 0 97 -41q40 -40 40 -98
q0 -56 -41 -97t-98 -41t-98 41q-40 40 -40 97q0 58 40 98q42 41 100 41z" />
    <glyph glyph-name="dagger" unicode="&#x2020;" horiz-adv-x="1193" 
d="M151 1648q11 -29 12 -79q61 93 175 93q68 0 118 -35q58 -41 68 -121q2 -15 3 -41t1 -64v-336h-121v316q0 90 -14 121q-24 53 -91 53q-75 0 -111 -64q-21 -36 -21 -114v-312h-120v379q0 57 -0.5 92.5t-3.5 52.5q-2 11 -4.5 25.5t-7.5 33.5h117zM1122 1889v-645v-74t2 -47
q2 -14 3.5 -28t4.5 -30h-114q-3 16 -5 30t-2 27q0 5 0.5 11t0.5 14q-23 -39 -47 -58q-46 -37 -117 -37q-95 0 -159 64q-83 86 -83 235q0 163 91 251q61 60 146 60q67 0 111 -33q21 -17 47 -53v313h121zM866 1559q-56 0 -89 -41q-25 -31 -36 -70.5t-11 -93.5q0 -98 44 -157
q31 -42 91 -42q57 0 90 39q48 58 48 162q0 101 -41 157q-34 46 -96 46z" />
    <glyph glyph-name="daggerdbl" unicode="&#x2021;" horiz-adv-x="1355" 
d="M441 1532q-3 39 -23 62q-28 34 -84 34q-40 0 -66 -19q-32 -23 -32 -58q0 -33 34 -54q19 -12 102 -47q35 -15 58.5 -26t37.5 -19q80 -48 80 -140q0 -90 -67 -139q-53 -41 -139 -41q-125 0 -184 83q-32 46 -35 123h90q5 -56 31 -85q34 -39 100 -39q47 0 79 23q30 24 30 59
q0 38 -40 66q-10 7 -34 18.5t-64 28.5q-46 20 -77 37t-47 32q-48 44 -48 111q0 83 66 130q55 38 128 38q109 0 163 -75q28 -38 31 -103h-90zM648 1692h141l167 -470l166 470h141v-583h-94v458l-163 -458h-102l-162 458v-458h-94v583z" />
    <glyph glyph-name="circumflex" unicode="&#x2c6;" 
d="M179 1170l240 300h185l240 -300h-185l-147 184l-146 -184h-187z" />
    <glyph glyph-name="perthousand" unicode="&#x2030;" horiz-adv-x="1971" 
d="M974 1420h173l-797 -1365h-172zM995 703q52 0 104.5 -25.5t88.5 -68.5q80 -95 80 -235q0 -154 -95 -252q-77 -78 -180 -78q-116 0 -195 94q-80 95 -80 236q0 154 95 252q77 77 182 77zM992 580q-62 0 -100 -62q-35 -59 -35 -144q0 -95 41 -154q38 -53 95 -53q63 0 101 62
q35 59 35 145q0 94 -41 153q-38 53 -96 53zM1640 703q52 0 104 -25.5t88 -68.5q80 -95 80 -235q0 -154 -95 -252q-77 -78 -180 -78q-115 0 -194 94q-80 95 -80 236q0 154 95 252q77 77 182 77zM1636 580q-61 0 -99 -62q-35 -59 -35 -144q0 -95 41 -154q38 -53 95 -53
q61 0 100 62q35 56 35 145q0 94 -41 153q-38 53 -96 53zM335 1431q113 0 192 -94q80 -95 80 -235q0 -154 -95 -252q-77 -78 -180 -78q-115 0 -194 94q-80 95 -80 236q0 156 95 251q76 78 182 78zM331 1308q-60 0 -99 -62q-35 -56 -35 -144q0 -95 41 -154q38 -53 94 -53
q63 0 101 62q35 59 35 145q0 94 -41 153q-38 53 -96 53z" />
    <glyph glyph-name="Scaron" unicode="&#x160;" horiz-adv-x="1140" 
d="M805 1042q-8 91 -51 141q-66 78 -194 78q-88 0 -152 -43q-75 -53 -75 -140q0 -82 82 -128q49 -28 230 -97q78 -29 133 -53.5t88 -44.5q182 -113 182 -320q0 -205 -148 -316q-119 -89 -320 -89q-296 0 -422 184q-27 40 -44.5 83.5t-24.5 94.5q-5 36 -6 105h205
q6 -135 64 -199q73 -84 228 -84q111 0 185 59q67 55 67 142q0 100 -89 157q-26 17 -83 41t-145 59q-106 42 -176.5 77.5t-108.5 68.5q-108 93 -108 249q0 190 150 294q120 84 291 84q254 0 377 -168q63 -87 70 -235h-205zM939 1834l-274 -279h-185l-274 279h193l173 -169
l173 169h194z" />
    <glyph glyph-name="guilsinglleft" unicode="&#x2039;" horiz-adv-x="562" 
d="M439 55h-172l-205 476l205 499h172l-172 -499z" />
    <glyph glyph-name="OE" unicode="&#x152;" horiz-adv-x="1940" 
d="M1047 1420h805v-181h-596v-386h547v-181h-546v-435h613v-182h-823v131q-27 -30 -55 -54t-57 -41q-103 -61 -252 -61q-246 0 -404 158q-97 97 -144 230.5t-47 317.5q0 349 180 543q154 166 416 166q223 0 363 -155v130zM674 1263q-147 0 -235 -100q-129 -146 -129 -428
q0 -276 128 -422q89 -101 240 -101q150 0 239 102q129 150 129 421q0 279 -130 427q-89 101 -242 101z" />
    <glyph glyph-name="quoteleft" unicode="&#x2018;" horiz-adv-x="428" 
d="M358 1445q-23 -26 -44 -55.5t-38 -62.5q-35 -68 -39 -119q49 -3 74 -19q54 -33 54 -98q0 -54 -41 -92q-38 -35 -91 -35q-60 0 -99 46q-39 45 -39 122q0 140 143 313h120z" />
    <glyph glyph-name="quoteright" unicode="&#x2019;" horiz-adv-x="443" 
d="M85 965q24 26 44.5 56t37.5 62q34 67 39 119q-45 2 -74 19q-54 33 -54 98q0 54 41 92q37 34 91 34q60 0 100 -46q39 -45 39 -121q0 -142 -144 -313h-120z" />
    <glyph glyph-name="quotedblleft" unicode="&#x201c;" horiz-adv-x="765" 
d="M695 1445q-24 -26 -44.5 -56t-37.5 -62q-34 -67 -39 -119q49 -3 74 -19q54 -33 54 -98q0 -54 -41 -92q-38 -35 -90 -35q-61 0 -100 46q-39 45 -39 122q0 140 143 313h120zM358 1445q-23 -26 -44 -55.5t-38 -62.5q-35 -68 -39 -119q49 -3 74 -19q54 -33 54 -98
q0 -54 -41 -92q-38 -35 -91 -35q-60 0 -99 46q-39 45 -39 122q0 140 143 313h120z" />
    <glyph glyph-name="quotedblright" unicode="&#x201d;" horiz-adv-x="775" 
d="M70 965q24 26 44.5 56t37.5 62q34 66 39 119q-45 2 -74 19q-54 33 -54 97q0 55 41 93q37 34 90 34q61 0 100 -46q39 -45 39 -122q0 -142 -143 -312h-120zM416 965q51 53 83 118q17 35 26.5 64.5t11.5 54.5q-45 2 -74 19q-54 33 -54 97q0 55 41 93q37 34 91 34
q60 0 100 -46q39 -45 39 -121q0 -140 -143 -313h-121z" />
    <glyph glyph-name="bullet" unicode="&#x2022;" horiz-adv-x="1365" 
d="M689 1033q113 0 196 -83q84 -83 84 -201t-83 -201t-201 -83q-117 0 -199 82q-85 84 -85 202q0 121 84 202q85 82 204 82z" />
    <glyph glyph-name="endash" unicode="&#x2013;" 
d="M115 646h793v-150h-793v150z" />
    <glyph glyph-name="emdash" unicode="&#x2014;" horiz-adv-x="1241" 
d="M0 646h1241v-150h-1241v150z" />
    <glyph glyph-name="tilde" unicode="&#x2dc;" 
d="M200 1216q50 215 178 215q26 0 59.5 -11t78.5 -31q102 -44 124 -44q59 0 95 100l89 -24q-15 -91 -54 -149q-50 -75 -121 -75q-31 0 -145 44q-112 44 -123 44q-61 0 -86 -93z" />
    <glyph glyph-name="trademark" unicode="&#x2122;" horiz-adv-x="1355" 
d="M158 1692h420v-85h-159v-498h-103v498h-158v85zM648 1692h141l167 -470l166 470h141v-583h-94v458l-163 -458h-102l-162 458v-458h-94v583z" />
    <glyph glyph-name="scaron" unicode="&#x161;" horiz-adv-x="949" 
d="M818 1470l-240 -300h-185l-240 300h186l146 -184l146 184h187zM655 744q-9 70 -39 103q-45 51 -137 51q-69 0 -115 -34q-45 -33 -45 -89q0 -52 42 -80q19 -13 66.5 -30t123.5 -40q69 -21 116.5 -38t74.5 -33q119 -68 119 -217q0 -141 -94 -223q-101 -86 -282 -86
q-287 0 -369 178q-32 68 -32 162h191q8 -83 42 -122q54 -61 163 -61q76 0 122 31q56 36 56 105q0 59 -64 93q-17 9 -69 27.5t-143 44.5q-145 43 -200 100q-64 67 -64 170q0 136 103 218q101 80 261 80q223 0 317 -142q44 -68 50 -168h-194z" />
    <glyph glyph-name="guilsinglright" unicode="&#x203a;" horiz-adv-x="5410" 
d="M824 532h237v-169h-232v-313h-207v313h-550v162l525 879h227v-872zM632 532v633l-365 -633h365zM5178 812q-41 203 -225 203q-131 0 -207 -106q-82 -115 -82 -314q0 -196 86 -315q73 -102 205 -102q210 0 235 262h153q-8 -146 -63 -240q-99 -169 -319 -169
q-197 0 -325 131q-150 153 -150 432q0 302 168 455q123 114 300 114q204 0 305 -144q27 -39 44.5 -90t23.5 -117h-149zM4311 51h-170v1092h170v-1092zM3232 1143h742v-145h-288v-947h-168v947h-286v145zM2747 1146h164l373 -1095h-175l-81 256h-397l-83 -256h-173zM2983 452
l-154 491l-154 -491h308zM1211 1143h242l270 -910l271 910h241v-1092h-155v906l-271 -906h-173l-270 906v-906h-155v1092z" />
    <glyph glyph-name="oe" unicode="&#x153;" horiz-adv-x="1724" 
d="M969 493q3 -124 53 -198q71 -104 212 -104q158 0 211 131l181 -13q-32 -107 -99 -174q-110 -107 -291 -107q-230 0 -362 185q-51 -72 -101 -110q-98 -75 -235 -75q-175 0 -300 116q-159 148 -159 398q0 252 155 396q125 116 304 116q229 0 338 -193q27 38 52.5 66
t49.5 47q104 80 245 80q214 0 325 -166q96 -143 96 -340v-25t-1 -30h-674zM1437 638q-24 256 -224 256q-195 0 -237 -256h461zM529 890q-99 0 -165 -84q-79 -100 -79 -265q0 -166 78 -266q65 -83 170 -83q101 0 166 83q78 100 78 264q0 169 -78 267q-68 84 -170 84z" />
    <glyph glyph-name="Ydieresis" unicode="&#x178;" horiz-adv-x="1103" 
d="M366 1829q55 0 94 -39t39 -96q0 -56 -39 -95t-95 -39t-95 39q-40 40 -40 95q0 57 40 96t96 39zM740 1829q53 0 94 -39q39 -39 39 -96q0 -56 -39 -95t-95 -39q-57 0 -96 39t-39 95q0 57 39 96q40 39 97 39zM11 1420h239l305 -588l301 588h236l-435 -811v-554h-210v554z
" />
    <glyph glyph-name="nonbreakingspace" unicode="&#xa0;" horiz-adv-x="256" 
 />
    <glyph glyph-name="exclamdown" unicode="&#xa1;" horiz-adv-x="906" 
d="M734 1643h128l-1 -95h-129l-4 -258q0 -23 -0.5 -41t0.5 -32q1 -63 61 -63q18 0 39.5 5t47.5 14l-2 -102q-71 -23 -118 -23q-94 0 -132 62q-21 34 -21 104q0 10 0.5 29t1.5 47l7 258h-89l2 95h91l4 168h117zM354 1473q-4 42 -23 62q-28 31 -82 31q-41 0 -69 -21
q-27 -20 -27 -53q0 -32 25 -48q11 -8 39.5 -18t74.5 -24q42 -13 70 -23t45 -20q71 -41 71 -130q0 -84 -56 -134q-60 -51 -170 -51q-168 0 -221 107q-19 37 -19 97h114q5 -50 26 -73q31 -37 97 -37q46 0 74 19q33 21 33 63q0 35 -38 55q-20 11 -127 44q-86 25 -120 60
q-39 39 -39 102q0 80 62 130q60 48 157 48q133 0 190 -85q14 -20 21 -45t9 -56h-117z" />
    <glyph glyph-name="cent" unicode="&#xa2;" horiz-adv-x="1003" 
d="M236 1649h128l-2 -96h-128l-4 -258q0 -23 -0.5 -41t0.5 -32q2 -62 60 -62q48 0 87 19l-1 -102q-67 -23 -118 -23q-95 0 -133 62q-20 35 -20 103q0 11 0.5 30t1.5 46l7 258h-89l1 96h92l4 168h117zM485 1889h120v-307q65 80 168 80q61 0 111 -29q57 -32 74 -104
q4 -19 6 -50.5t2 -76.5v-336h-121v315q0 87 -15 120q-26 54 -93 54q-76 0 -111 -65q-21 -38 -21 -115v-309h-120v823z" />
    <glyph glyph-name="sterling" unicode="&#xa3;" horiz-adv-x="989" 
d="M940 1889v-645v-74t2 -47q2 -14 3.5 -28t4.5 -30h-114q-3 16 -5 30t-2 27q0 5 0.5 11t0.5 14q-23 -39 -47 -58q-46 -37 -117 -37q-95 0 -159 64q-83 86 -83 235q0 163 91 251q61 60 146 60q67 0 111 -33q21 -17 47 -53v313h121zM663 1559q-55 0 -88 -41
q-26 -31 -37 -70.5t-11 -93.5q0 -99 45 -157q31 -42 90 -42q58 0 90 39q49 58 49 162q0 100 -42 157q-34 46 -96 46zM129 1648q9 -44 9 -90v-13.5t-1 -19.5q65 137 159 137q11 0 25 -3.5t33 -8.5v-122q-47 26 -85 26q-72 0 -105 -80q-21 -51 -21 -142v-267h-121v394
q0 72 -2 117.5t-6 71.5h115z" />
    <glyph glyph-name="currency" unicode="&#xa4;" horiz-adv-x="1365" 
d="M79 320l201 202q-97 127 -97 287q0 148 98 285l-205 203l113 113l203 -203q138 96 292 96q153 0 286 -94l202 200l112 -112l-201 -200q99 -140 99 -288q0 -151 -96 -286l202 -202l-110 -113l-203 202q-136 -97 -291 -97q-145 0 -292 96l-201 -200zM679 1122
q-126 0 -218 -92q-91 -91 -91 -222q0 -129 92 -221q91 -93 221 -93q128 0 221 93q91 91 91 220q0 133 -91 223q-95 92 -225 92z" />
    <glyph glyph-name="yen" unicode="&#xa5;" horiz-adv-x="1403" 
d="M251 1705h131l146 -491l146 491h131v-590h-85v490l-146 -490h-93l-146 490v-490h-84v590zM1276 1522q-21 109 -121 109q-70 0 -112 -57q-44 -62 -44 -170q0 -106 46 -170q42 -56 111 -56q112 0 127 143h83q-5 -80 -35 -130q-28 -46 -70 -69.5t-102 -23.5q-103 0 -175 72
q-81 84 -81 233q0 163 90 246q68 62 162 62q111 0 165 -78q29 -41 37 -111h-81z" />
    <glyph glyph-name="brokenbar" unicode="&#xa6;" 
d="M411 1420h201v-694h-201v694zM411 369h201v-655h-201v655z" />
    <glyph glyph-name="section" unicode="&#xa7;" horiz-adv-x="6306" 
d="M5914 990q-51 0 -96 -68t-91 -215q-22 -71 -39.5 -139t-29.5 -129.5t-18.5 -114.5t-6.5 -94q0 -138 80 -138q24 0 45 13t41.5 42t41.5 74.5t44 110.5q24 67 43.5 139.5t34 142.5t22 133.5t7.5 112.5q0 63 -20.5 96.5t-57.5 33.5zM5924 1047q61 0 111 -23t84.5 -66
t53.5 -104.5t19 -138.5q0 -62 -9.5 -126t-28 -126t-44.5 -119t-59 -104q-72 -103 -160 -154t-188 -51q-64 0 -114 23t-85 66t-53.5 105t-18.5 140q0 66 11.5 135t32.5 135t51.5 126t68.5 108q66 85 150 129.5t178 44.5zM4456 990q152 18 297 59q2 -17 3 -30t1 -21
q0 -20 -1.5 -38.5t-4.5 -41.5q100 129 243 129q41 0 74.5 -13t57 -36t36.5 -55.5t13 -71.5q0 -38 -7.5 -84t-23.5 -109l-70 -282q-15 -59 -23 -93t-12 -53.5t-5 -30t-1 -22.5q0 -23 9 -36t24 -13q13 0 23.5 7t20.5 23t20 42.5t22 64.5l53 -16q-51 -234 -217 -234
q-37 0 -68.5 13t-54.5 36t-36 54.5t-13 68.5q0 31 7.5 70.5t21.5 99.5l88 361q7 28 11.5 58.5t4.5 53.5q0 38 -16.5 63t-42.5 25q-56 0 -94.5 -55.5t-69.5 -177.5l-162 -647h-225l182 731l6 28l7 31q6 28 6 45q0 25 -20.5 33t-78.5 10zM3539 29q-94 0 -146.5 -44.5
t-52.5 -125.5q0 -75 62 -114.5t180 -39.5q103 0 161 52.5t58 146.5q0 34 -14 57.5t-45.5 38.5t-81.5 22t-121 7zM3821 990q-37 0 -66 -38t-57 -124q-14 -40 -25.5 -81.5t-19.5 -80t-13 -70.5t-5 -53q0 -42 16.5 -67t44.5 -25q35 0 66 44.5t61 141.5q12 38 22 76.5t16.5 73.5
t10.5 64.5t4 49.5q0 89 -55 89zM4188 990l-27 -103h-121q10 -23 13.5 -45t3.5 -53q0 -85 -28.5 -162.5t-76.5 -128.5q-24 -26 -49 -44t-55.5 -29t-68 -16t-85.5 -5q-75 -25 -109 -52.5t-34 -64.5q0 -17 20 -31q6 -4 12 -6.5t18 -5t35 -4.5t64 -6q85 -8 142 -23t91 -41.5
t48 -66t14 -97.5q0 -86 -29.5 -155t-83.5 -118t-131.5 -75t-173.5 -26q-74 0 -133.5 15.5t-100.5 44.5t-63 70.5t-22 94.5q0 169 178 227q-29 29 -42 56t-13 61q0 33 10 61.5t33 54.5t60 52t91 55q-63 42 -92.5 96t-29.5 130q0 75 28.5 150t79.5 132q103 115 256 115
q60 0 100 -15.5t78 -52.5zM3147 1461q24 0 45.5 -10t37 -27.5t24.5 -40.5t9 -49q0 -31 -11 -58t-30 -47.5t-43.5 -32.5t-52.5 -12q-26 0 -47.5 9.5t-37.5 27t-25 41t-9 51.5q0 30 11 57t30.5 47t44.5 32t54 12zM2983 314q-8 -28 -12.5 -47t-7.5 -32.5t-4 -23.5t-1 -20
q0 -43 25 -43q11 0 20.5 6t19.5 21t21.5 41.5t26.5 68.5l53 -18q-55 -232 -219 -232q-36 0 -66 13t-51 35.5t-33 54t-12 69.5q0 32 10.5 85t30.5 128l111 410q5 20 8.5 39.5t3.5 31.5t-4 19t-14.5 11t-29.5 5.5t-48 1.5l16 54q41 4 86.5 11t92 16.5t92 20.5t87.5 23z
M2518 748h-65q2 18 3 33.5t1 29.5q0 76 -35.5 121t-95.5 45q-29 0 -55.5 -11.5t-46.5 -31t-32 -46t-12 -56.5q0 -32 16 -57t56 -56q43 -33 70 -54t45 -35.5t30 -26t25 -25.5q34 -35 52 -79.5t18 -96.5q0 -78 -27.5 -145.5t-76.5 -117t-115 -78t-144 -28.5q-43 0 -77 7.5
t-64 24t-58 43.5t-59 66l41 230h59q-3 -37 -4.5 -55t-1.5 -35q0 -47 12 -85.5t33 -66t50.5 -42.5t64.5 -15q36 0 67.5 16t54.5 44.5t36.5 66.5t13.5 82q0 22 -4 39.5t-14 34t-27 33t-43 36.5q-67 52 -108.5 88.5t-64 67.5t-30.5 61.5t-8 69.5q0 65 23.5 121t65 97t98 64
t122.5 23q20 0 37 -2t34 -6.5t36 -11.5t43 -17q36 -16 55 -16q13 0 26.5 5.5t41.5 22.5zM1288 506q8 0 12 0.5t17 1.5q49 3 95.5 37t82.5 88.5t58 123t22 140.5q0 42 -13 67.5t-36 25.5q-28 0 -59.5 -36t-63 -100t-61.5 -153t-54 -195zM1687 363q-127 -328 -385 -328
q-59 0 -107 21t-82 60t-52.5 94.5t-18.5 123.5q0 67 12 138.5t34.5 140.5t54.5 132.5t71 114.5q142 187 330 187q100 0 157.5 -57t57.5 -156q0 -97 -56 -180t-165 -146q-62 -36 -124.5 -53t-143.5 -23q-11 -47 -16 -81.5t-5 -69.5q0 -75 31.5 -119.5t85.5 -44.5
q69 0 131.5 64t110.5 182h79zM500 990q-54 3 -111 -99.5t-112 -314.5q-14 -53 -25.5 -104.5t-19.5 -98.5t-12.5 -88t-4.5 -72q0 -55 18.5 -88t49.5 -33q94 0 186 306q19 64 36.5 134t31 134.5t21.5 117.5t8 83q0 63 -16 92t-50 31zM693 375q-9 -36 -15 -61t-9.5 -44t-5 -33
t-1.5 -28q0 -25 10.5 -41t26.5 -16q23 0 45.5 30.5t50.5 96.5l51 -29q-24 -57 -48.5 -98t-51.5 -67t-58.5 -38t-70.5 -12q-130 0 -168 125q-37 -66 -82 -95.5t-106 -29.5q-56 0 -101 22.5t-77.5 63.5t-50 98t-17.5 127q0 64 11.5 132t33 134t52.5 128.5t69 115.5
q138 191 305 191q46 0 76.5 -18t52.5 -56l53 215q21 82 21 111q0 20 -14 28.5t-46 8.5h-35l15 53q38 3 82.5 9.5t90.5 16t92.5 21.5t88.5 25z" />
    <glyph glyph-name="dieresis" unicode="&#xa8;" 
d="M337 1446q51 0 87 -36t36 -88t-36 -88q-37 -37 -88 -37q-52 0 -89 37q-36 36 -36 87q0 53 36 89q37 36 90 36zM691 1446q50 0 86 -36q37 -37 37 -88t-37 -88t-87 -37q-51 0 -88 37t-37 87q0 53 37 89t89 36z" />
    <glyph glyph-name="copyright" unicode="&#xa9;" horiz-adv-x="880" 
d="M585 1477q-15 72 -84 72q-49 0 -77 -36q-17 -23 -24 -50.5t-7 -59.5q0 -71 34 -111q29 -35 76 -35q79 0 85 94h63q-1 -51 -25 -90q-37 -61 -123 -61q-74 0 -123 46q-58 55 -58 155q0 110 64 165q50 41 115 41q78 0 118 -52q24 -32 27 -78h-61zM491 1738q90 0 173 -50
q81 -49 125 -135q37 -73 37 -155q0 -72 -25.5 -132t-73.5 -108t-108.5 -73.5t-132.5 -25.5t-132 25.5t-108 73.5t-73.5 108t-25.5 132q0 49 11.5 93t37.5 86q51 81 136 124q73 37 159 37zM484 1690q-114 0 -199 -85q-42 -42 -63.5 -93t-21.5 -114q0 -58 21.5 -111t63.5 -96
q82 -85 202 -85t202 85q84 85 84 207t-85 207t-204 85z" />
    <glyph glyph-name="ordfeminine" unicode="&#xaa;" 
d="M265 1243q6 87 63 136q67 57 191 57q158 0 204 -91q21 -39 21 -141v-227q0 -102 21 -145h-125q-11 36 -12 63q-61 -76 -173 -76q-87 0 -143 38q-66 46 -66 132q0 109 109 167q22 11 50.5 22t63.5 19l123 26l23 5v17q0 85 -104 85q-105 0 -118 -87h-128zM615 1135
q-62 -13 -105 -25t-69 -25q-59 -30 -59 -81q0 -35 25 -57q25 -24 73 -24q82 0 117 59q18 31 18 105v48zM228 717h554v-95h-554v95z" />
    <glyph glyph-name="guillemotleft" unicode="&#xab;" horiz-adv-x="898" 
d="M768 55h-163l-205 476l205 500h163l-172 -500zM438 55h-163l-205 476l205 500h163l-172 -500z" />
    <glyph glyph-name="logicalnot" unicode="&#xac;" 
d="M754 55v358h-686v188h887v-546h-201z" />
    <glyph glyph-name="sfthyphen" unicode="&#xad;" horiz-adv-x="547" 
d="M0 646h547v-150h-547v150z" />
    <glyph glyph-name="registered" unicode="&#xae;" horiz-adv-x="904" 
d="M380 1583h91q83 0 122 -16q34 -13 51 -47q6 -13 9.5 -26t3.5 -28q0 -76 -77 -108l101 -168h-80l-93 156h-60v-156h-68v393zM448 1403h27q26 0 43.5 1t29.5 6q38 15 38 56q0 38 -30 50q-21 10 -85 10h-23v-123zM511 1728q90 0 173 -50q81 -49 125 -135q37 -73 37 -155
q0 -72 -25.5 -132t-73.5 -108t-108.5 -73.5t-132.5 -25.5t-132 25.5t-108 73.5t-73.5 108t-25.5 132q0 49 11.5 93t37.5 86q51 81 136 124q73 37 159 37zM504 1684q-116 0 -201 -85q-87 -87 -87 -211q0 -121 86 -210q82 -85 205 -85q60 0 110 20t94 65q86 86 86 210
q0 63 -22.5 116t-64.5 95q-85 85 -206 85z" />
    <glyph glyph-name="macron" unicode="&#xaf;" 
d="M224 1382h576v-131h-576v131z" />
    <glyph glyph-name="degree" unicode="&#xb0;" 
d="M516 1445q121 0 210 -86q88 -85 88 -209t-87 -209q-88 -88 -215 -88q-126 0 -214 88q-88 87 -88 208q0 125 88 209q91 87 218 87zM510 1322q-71 0 -123 -51q-51 -50 -51 -121q0 -74 51 -123q52 -51 125 -51t125 52q51 49 51 121q0 73 -52 122q-53 51 -126 51z" />
    <glyph glyph-name="plusminus" unicode="&#xb1;" horiz-adv-x="1133" 
d="M645 845h385v-152h-385v-348h-158v348h-384v152h384v399h158v-399zM103 236h927v-154h-927v154z" />
    <glyph glyph-name="twosuperior" unicode="&#xb2;" horiz-adv-x="739" 
d="M121 1151q0 75 19 113q36 76 108 111q58 27 133 27q107 0 178 -56q70 -55 70 -152q0 -71 -52 -147q-28 -40 -98 -121.5t-185 -216.5h344v-122h-526v105l20 24q94 112 159.5 186.5t102.5 119.5q93 112 93 170q0 42 -31 67t-81 25q-122 0 -132 -133h-122z" />
    <glyph glyph-name="threesuperior" unicode="&#xb3;" horiz-adv-x="739" 
d="M117 1179q5 101 60 158q70 72 200 72q114 0 182 -59q64 -58 64 -148q0 -122 -120 -176q138 -47 138 -193q0 -121 -95 -192q-72 -54 -185 -54q-164 0 -238 100q-43 56 -41 151h126q0 -134 149 -134q69 0 106 34q39 34 39 95q0 85 -80 115q-17 6 -44.5 9.5t-67.5 3.5h-15
t-22 -1v113q13 -1 22.5 -1h15.5q172 0 172 120q0 45 -31 73t-86 28q-112 0 -128 -114h-121z" />
    <glyph glyph-name="acute" unicode="&#xb4;" 
d="M387 1161l238 309h261l-342 -309h-157z" />
    <glyph glyph-name="mu" unicode="&#xb5;" 
d="M76 -293v1331h201v-540q0 -109 20 -169q14 -42 41.5 -71.5t65.5 -48.5q49 -25 107 -25q107 0 173 84q37 49 51 107q12 48 12 136v527h201v-983h-201v148q-17 -36 -35.5 -63.5t-38.5 -45.5q-71 -62 -168 -62q-143 0 -228 139v-464h-201z" />
    <glyph glyph-name="paragraph" unicode="&#xb6;" horiz-adv-x="1271" 
d="M447 -140v846q-10 -1 -17.5 -1h-12.5q-145 0 -246 80q-122 98 -122 272q0 119 62 211q66 100 212 133q42 9 90.5 14t108.5 5h602v-158h-136v-1402h-174v1402h-193v-1402h-174z" />
    <glyph glyph-name="periodcentered" unicode="&#xb7;" horiz-adv-x="518" 
d="M260 707q56 0 97 -41q40 -40 40 -98q0 -57 -41 -98q-40 -40 -97 -40q-58 0 -99 41q-40 40 -40 97q0 58 40 98q42 41 100 41z" />
    <glyph glyph-name="cedilla" unicode="&#xb8;" 
d="M438 55h118l-41 -102q182 -32 182 -173q0 -89 -66 -143q-59 -47 -139 -47q-74 0 -165 48v89q68 -34 121 -34q47 0 72 22q35 29 35 80q0 70 -56 91q-35 14 -73 14q-17 0 -48 -3z" />
    <glyph glyph-name="onesuperior" unicode="&#xb9;" horiz-adv-x="739" 
d="M159 1176v82q43 1 75.5 9t55.5 25q41 31 58 99h97v-804h-138v589h-148z" />
    <glyph glyph-name="ordmasculine" unicode="&#xba;" 
d="M515 1437q109 0 188 -73q94 -87 94 -237q0 -151 -94 -238q-79 -73 -191 -73t-191 73q-94 87 -94 237q0 153 94 238q79 73 194 73zM510 1330q-62 0 -102 -51q-45 -59 -45 -152q0 -95 45 -153q40 -51 104 -51q65 0 104 51q45 58 45 152t-45 153q-41 51 -106 51zM235 717
h554v-95h-554v95z" />
    <glyph glyph-name="guillemotright" unicode="&#xbb;" horiz-adv-x="898" 
d="M130 1031h163l205 -477l-205 -499h-163l172 499zM460 1031h163l205 -477l-205 -499h-163l172 499z" />
    <glyph glyph-name="onequarter" unicode="&#xbc;" horiz-adv-x="1746" 
d="M159 1176v82q86 1 131 34q42 32 58 99h97v-804h-138v589h-148zM1177 1386h165l-774 -1331h-164zM1539 342h148v-111h-145v-185h-140v185h-342v103l329 524h150v-516zM1408 342v350l-212 -350h212z" />
    <glyph glyph-name="onehalf" unicode="&#xbd;" horiz-adv-x="1746" 
d="M159 1176v82q85 1 130 34q43 31 58 99h97v-804h-138v589h-147zM1177 1386h165l-774 -1331h-164zM1127 619q1 103 49 163q70 88 211 88q107 0 178 -56q70 -55 70 -152q0 -72 -52 -148q-59 -86 -283 -337h344v-122h-526v105l102 118q81 94 135.5 158t80.5 99q57 76 57 125
q0 41 -31 66q-32 26 -81 26q-122 0 -132 -133h-122z" />
    <glyph glyph-name="threequarters" unicode="&#xbe;" horiz-adv-x="1745" 
d="M117 1179q5 101 60 158q70 72 200 72q114 0 182 -59q64 -58 64 -148q0 -122 -120 -176q138 -47 138 -192q0 -122 -95 -193q-72 -54 -185 -54q-164 0 -238 100q-43 56 -41 151h126q0 -134 149 -134q69 0 106 34q39 34 39 95q0 85 -80 115q-17 6 -44.5 9.5t-67.5 3.5h-15
t-22 -1v113q13 -1 22.5 -1h15.5q172 0 172 120q0 45 -31 73t-86 28q-112 0 -128 -114h-121zM1178 1386h165l-774 -1331h-165zM1540 342h147v-111h-144v-185h-140v185h-343v103l330 524h150v-516zM1410 342v350l-213 -350h213z" />
    <glyph glyph-name="questiondown" unicode="&#xbf;" horiz-adv-x="849" 
d="M462 1028q56 0 97 -41q40 -40 40 -98q0 -57 -40 -97q-41 -41 -98 -41q-58 0 -99 41q-40 40 -40 97q0 58 41 99q40 40 99 40zM557 592v-23q0 -78 -2.5 -129t-8.5 -79q-10 -46 -43 -91q-27 -38 -81 -96q-38 -40 -61.5 -68t-34.5 -45q-14 -23 -20.5 -47t-6.5 -48
q0 -63 42 -99q38 -32 101 -32q154 0 168 179h165q-6 -164 -74 -244q-99 -115 -284 -115q-152 0 -239 75q-94 82 -94 225q0 49 13 94t41 84q17 24 45 57t70 76q87 91 103 140q12 37 12 126v25t-1 35h190z" />
    <glyph glyph-name="Agrave" unicode="&#xc0;" horiz-adv-x="1198" 
d="M496 1424h205l467 -1369h-219l-101 320h-497l-103 -320h-217zM792 557l-193 614l-193 -614h386zM741 1541h-195l-380 308h261z" />
    <glyph glyph-name="Aacute" unicode="&#xc1;" horiz-adv-x="1198" 
d="M495 1424h205l467 -1369h-219l-101 320h-497l-103 -320h-217zM791 557l-193 614l-193 -614h386zM456 1541l313 308h262l-381 -308h-194z" />
    <glyph glyph-name="Acircumflex" unicode="&#xc2;" horiz-adv-x="1198" 
d="M495 1424h205l467 -1369h-219l-101 320h-497l-103 -320h-217zM791 557l-193 614l-193 -614h386zM232 1555l274 279h185l275 -279h-194l-173 169l-173 -169h-194z" />
    <glyph glyph-name="Atilde" unicode="&#xc3;" horiz-adv-x="1198" 
d="M495 1424h205l467 -1369h-219l-101 320h-497l-103 -320h-217zM791 557l-193 614l-193 -614h386zM261 1596q56 209 202 209q56 0 148 -42q99 -45 136 -45q67 0 106 100l96 -30q-14 -69 -39 -114q-60 -103 -158 -103q-60 0 -151 39q-84 36 -102 42q-17 6 -36 6
q-76 0 -98 -93z" />
    <glyph glyph-name="Adieresis" unicode="&#xc4;" horiz-adv-x="1198" 
d="M495 1424h205l467 -1369h-219l-101 320h-497l-103 -320h-217zM791 557l-193 614l-193 -614h386zM413 1829q55 0 94 -39t39 -96q0 -56 -39 -95t-96 -39q-56 0 -95 39t-39 95q0 57 39 96q40 39 97 39zM787 1829q55 0 94 -39t39 -96q0 -56 -39 -95t-95 -39q-57 0 -96 39
t-39 95q0 57 39 96q40 39 97 39z" />
    <glyph glyph-name="Aring" unicode="&#xc5;" horiz-adv-x="1198" 
d="M495 1424h205l467 -1369h-219l-101 320h-497l-103 -320h-217zM791 557l-193 614l-193 -614h386zM601 1908q80 0 137 -57t57 -140q0 -81 -57 -138q-58 -58 -139 -58q-82 0 -139 58q-58 58 -58 138q0 83 58 140t141 57zM597 1812q-40 0 -69 -29q-30 -30 -30 -72
q0 -40 30 -70t71 -30t71 30q29 29 29 70q0 43 -29 72q-31 29 -73 29z" />
    <glyph glyph-name="AE" unicode="&#xc6;" horiz-adv-x="1815" 
d="M832 1420h901v-181h-584v-388h533v-182h-533v-432h595v-182h-810v320h-488l-183 -320h-231zM934 557v673l-382 -673h382z" />
    <glyph glyph-name="Ccedilla" unicode="&#xc7;" horiz-adv-x="1230" 
d="M659 -64q82 -13 131 -49q76 -55 76 -151q0 -99 -75 -162q-65 -54 -157 -54q-80 0 -186 55v101q90 -39 136 -39q49 0 81 26q39 31 39 91q0 75 -64 103q-35 15 -79 15q-11 0 -25 -1.5t-32 -3.5l58 175q-118 18 -230 103q-245 183 -245 591q0 384 217 574q154 135 369 135
q133 0 225.5 -45.5t155.5 -133.5q71 -98 84 -259h-187q-50 254 -281 254q-159 0 -250 -123q-111 -149 -111 -403q0 -244 107 -393q93 -128 256 -128q263 0 294 328h193q-12 -238 -126 -365q-129 -145 -341 -147z" />
    <glyph glyph-name="Egrave" unicode="&#xc8;" horiz-adv-x="1066" 
d="M375 853h548v-182h-548v-434h615v-182h-826v1365h808v-181h-597v-386zM748 1541h-195l-380 308h261z" />
    <glyph glyph-name="Eacute" unicode="&#xc9;" horiz-adv-x="1066" 
d="M380 853h548v-182h-548v-434h615v-182h-826v1365h808v-181h-597v-386zM394 1541l313 308h262l-381 -308h-194z" />
    <glyph glyph-name="Ecircumflex" unicode="&#xca;" horiz-adv-x="1066" 
d="M380 853h548v-182h-548v-434h615v-182h-826v1365h808v-181h-597v-386zM208 1555l275 279h185l274 -279h-193l-174 169l-172 -169h-195z" />
    <glyph glyph-name="Edieresis" unicode="&#xcb;" horiz-adv-x="1066" 
d="M380 853h548v-182h-548v-434h615v-182h-826v1365h808v-181h-597v-386zM390 1829q53 0 94 -39q39 -39 39 -96q0 -56 -39 -95t-95 -39q-57 0 -96 39t-39 95q0 57 39 96q40 39 97 39zM763 1829q53 0 94 -39q39 -39 39 -96q0 -56 -39 -95t-95 -39t-95 39q-40 40 -40 95
q0 57 40 96t96 39z" />
    <glyph glyph-name="Igrave" unicode="&#xcc;" horiz-adv-x="550" 
d="M381 55h-213v1365h213v-1365zM409 1541h-181l-326 308h248z" />
    <glyph glyph-name="Iacute" unicode="&#xcd;" horiz-adv-x="550" 
d="M382 55h-214v1365h214v-1365zM141 1541l259 308h248l-326 -308h-181z" />
    <glyph glyph-name="Icircumflex" unicode="&#xce;" horiz-adv-x="550" 
d="M381 55h-213v1365h213v-1365zM-44 1555l226 279h185l227 -279h-186l-133 169l-131 -169h-188z" />
    <glyph glyph-name="Idieresis" unicode="&#xcf;" horiz-adv-x="550" 
d="M382 55h-213v1365h213v-1365zM114 1822q51 0 89 -38t38 -91t-38 -91t-91 -38t-91 38t-38 91t38 91t93 38zM441 1822q51 0 89 -38t38 -91t-38 -91t-91 -38t-91 38t-38 91t38 91t93 38z" />
    <glyph glyph-name="Eth" unicode="&#xd0;" horiz-adv-x="1304" 
d="M170 1420h277q85 0 151.5 -4t120.5 -12q221 -35 351 -205q146 -191 146 -461q0 -278 -149 -469q-136 -174 -368 -202q-95 -12 -281 -12h-248v628h-123v171h123v566zM381 237h110q63 0 110 2.5t81 8.5q154 25 233 155q83 137 83 337q0 205 -92 340q-42 61 -101 98.5
t-135 49.5q-35 6 -92 8.5t-138 2.5h-59v-385h297v-171h-297v-446z" />
    <glyph glyph-name="Ntilde" unicode="&#xd1;" horiz-adv-x="1368" 
d="M169 1420h227l602 -1043v1043h200v-1365h-218l-610 1041v-1041h-201v1365zM352 1596q56 209 201 209q56 0 148 -42q99 -45 137 -45q67 0 106 100l95 -30q-14 -69 -39 -114q-58 -103 -157 -103q-31 0 -68.5 10t-83.5 29l-101 42q-17 6 -37 6q-76 0 -98 -93z" />
    <glyph glyph-name="Ograve" unicode="&#xd2;" horiz-adv-x="1353" 
d="M859 1541h-195l-380 308h261zM684 1445q199 0 351 -129q230 -197 230 -579q0 -381 -230 -578q-150 -129 -359 -129q-208 0 -358 129q-230 197 -230 576q0 387 230 581q153 129 366 129zM671 1263q-75 0 -141 -33t-111 -91q-58 -75 -83.5 -173.5t-25.5 -228.5
q0 -253 109 -401q91 -124 257 -124q167 0 258 124q109 148 109 399q0 259 -109 404q-93 124 -263 124z" />
    <glyph glyph-name="Oacute" unicode="&#xd3;" horiz-adv-x="1353" 
d="M495 1541l314 308h261l-380 -308h-195zM684 1445q199 0 351 -129q230 -197 230 -579q0 -381 -230 -578q-150 -129 -359 -129q-208 0 -358 129q-230 197 -230 576q0 387 230 581q153 129 366 129zM671 1263q-75 0 -141 -33t-111 -91q-58 -75 -83.5 -173.5t-25.5 -228.5
q0 -253 109 -401q91 -124 257 -124q167 0 258 124q109 148 109 399q0 259 -109 404q-93 124 -263 124z" />
    <glyph glyph-name="Ocircumflex" unicode="&#xd4;" horiz-adv-x="1353" 
d="M310 1555l274 279h185l274 -279h-193l-173 169l-173 -169h-194zM684 1445q199 0 351 -129q230 -197 230 -579q0 -381 -230 -578q-150 -129 -359 -129q-208 0 -358 129q-230 197 -230 576q0 387 230 581q153 129 366 129zM671 1263q-75 0 -141 -33t-111 -91
q-58 -75 -83.5 -173.5t-25.5 -228.5q0 -253 109 -401q91 -124 257 -124q167 0 258 124q109 148 109 399q0 259 -109 404q-93 124 -263 124z" />
    <glyph glyph-name="Otilde" unicode="&#xd5;" horiz-adv-x="1353" 
d="M343 1596q56 209 201 209q56 0 148 -42q99 -45 137 -45q67 0 106 100l95 -30q-7 -34 -16 -62.5t-23 -51.5q-61 -103 -157 -103q-61 0 -152 39q-42 18 -67.5 28.5t-33.5 13.5q-17 6 -37 6q-76 0 -97 -93zM684 1445q199 0 351 -129q230 -197 230 -579q0 -381 -230 -578
q-150 -129 -359 -129q-208 0 -358 129q-230 197 -230 576q0 387 230 581q153 129 366 129zM671 1263q-75 0 -141 -33t-111 -91q-58 -75 -83.5 -173.5t-25.5 -228.5q0 -253 109 -401q91 -124 257 -124q167 0 258 124q109 148 109 399q0 259 -109 404q-93 124 -263 124z" />
    <glyph glyph-name="Odieresis" unicode="&#xd6;" horiz-adv-x="1353" 
d="M491 1829q55 0 94 -39t39 -96q0 -56 -39 -95t-95 -39t-95 39q-40 40 -40 95q0 57 40 96t96 39zM865 1829q55 0 94 -39t39 -96q0 -56 -39 -95t-95 -39t-95 39q-40 40 -40 95q0 57 40 96t96 39zM684 1445q199 0 351 -129q230 -197 230 -579q0 -381 -230 -578
q-150 -129 -359 -129q-208 0 -358 129q-230 197 -230 576q0 387 230 581q153 129 366 129zM671 1263q-75 0 -141 -33t-111 -91q-58 -75 -83.5 -173.5t-25.5 -228.5q0 -253 109 -401q91 -124 257 -124q167 0 258 124q109 148 109 399q0 259 -109 404q-93 124 -263 124z" />
    <glyph glyph-name="multiply" unicode="&#xd7;" horiz-adv-x="1133" 
d="M677 739l293 -293l-109 -108l-291 291l-298 -297l-110 110l298 297l-292 292l109 109l291 -292l293 292l110 -110z" />
    <glyph glyph-name="Oslash" unicode="&#xd8;" horiz-adv-x="1353" 
d="M1114 1434h164l-157 -206q144 -189 144 -495q0 -257 -118 -444q-98 -157 -258 -218q-54 -21 -106.5 -31t-103.5 -10q-202 0 -359 126l-85 -115h-160l153 210q-60 89 -86 157q-54 142 -54 330q0 402 247 592q148 115 341 115t354 -122zM906 1169q-98 93 -230 93
q-155 0 -244 -113q-122 -155 -122 -419q0 -126 56 -292zM442 312q103 -100 239 -100q151 0 240 113q122 155 122 418q0 135 -59 309z" />
    <glyph glyph-name="Ugrave" unicode="&#xd9;" horiz-adv-x="1334" 
d="M857 1541h-195l-380 308h261zM153 1420h211v-793q0 -52 1 -88.5t3 -57.5q13 -144 95 -206q79 -61 204 -61q124 0 203 61q82 62 95 206q2 21 3 57.5t1 88.5v793h211v-796q0 -78 -2.5 -133.5t-7.5 -89.5q-22 -153 -132 -248q-143 -123 -371 -123q-230 0 -372 123
q-109 94 -132 248q-5 34 -7.5 89.5t-2.5 133.5v796z" />
    <glyph glyph-name="Uacute" unicode="&#xda;" horiz-adv-x="1334" 
d="M478 1541l314 308h262l-381 -308h-195zM153 1420h211v-793q0 -52 1 -88.5t3 -57.5q13 -144 95 -206q79 -61 204 -61q124 0 203 61q82 62 95 206q2 21 3 57.5t1 88.5v793h211v-796q0 -78 -2.5 -133.5t-7.5 -89.5q-22 -153 -132 -248q-143 -123 -371 -123q-230 0 -372 123
q-109 94 -132 248q-5 34 -7.5 89.5t-2.5 133.5v796z" />
    <glyph glyph-name="Ucircumflex" unicode="&#xdb;" horiz-adv-x="1334" 
d="M300 1555l274 279h185l275 -279h-194l-173 169l-172 -169h-195zM153 1420h211v-793q0 -52 1 -88.5t3 -57.5q13 -144 95 -206q79 -61 204 -61q124 0 203 61q82 62 95 206q2 21 3 57.5t1 88.5v793h211v-796q0 -78 -2.5 -133.5t-7.5 -89.5q-22 -153 -132 -248
q-143 -123 -371 -123q-230 0 -372 123q-109 94 -132 248q-5 34 -7.5 89.5t-2.5 133.5v796z" />
    <glyph glyph-name="Udieresis" unicode="&#xdc;" horiz-adv-x="1334" 
d="M481 1829q53 0 94 -39q39 -39 39 -96q0 -56 -39 -95t-95 -39t-95 39q-40 40 -40 95q0 57 40 96t96 39zM855 1829q54 0 93 -39q40 -40 40 -96q0 -55 -40 -95q-39 -39 -94 -39q-57 0 -96 39t-39 95q0 57 39 96q40 39 97 39zM153 1420h211v-793q0 -52 1 -88.5t3 -57.5
q13 -144 95 -206q79 -61 204 -61q124 0 203 61q82 62 95 206q2 21 3 57.5t1 88.5v793h211v-796q0 -78 -2.5 -133.5t-7.5 -89.5q-22 -153 -132 -248q-143 -123 -371 -123q-230 0 -372 123q-109 94 -132 248q-5 34 -7.5 89.5t-2.5 133.5v796z" />
    <glyph glyph-name="Yacute" unicode="&#xdd;" horiz-adv-x="1103" 
d="M11 1420h239l304 -588l302 588h236l-435 -811v-554h-210v554zM372 1541l314 308h261l-380 -308h-195z" />
    <glyph glyph-name="Thorn" unicode="&#xde;" horiz-adv-x="1119" 
d="M169 1420h211v-159h64q266 0 383 -39q127 -42 193 -158q55 -97 55 -224q0 -185 -111 -294q-97 -97 -284 -112q-78 -6 -209 -6h-91v-373h-211v1365zM380 610h90q88 0 149.5 4.5t96.5 15.5q73 22 111 87q30 52 30 123q0 156 -114 207q-55 24 -146 30q-44 3 -129 3h-88v-470
z" />
    <glyph glyph-name="germandbls" unicode="&#xdf;" horiz-adv-x="1078" 
d="M128 55v862q0 85 3 143.5t8 92.5q20 140 125 213q103 73 255 73q153 0 254 -75q127 -96 127 -260q0 -204 -209 -275q307 -72 307 -385q0 -198 -125 -314q-98 -89 -231 -89q-84 0 -158 38v178q68 -38 134 -38q85 0 131 64q43 58 43 154q0 185 -149 256q-83 39 -181 39h-24
v173h36q105 0 163 49q61 49 61 136q0 88 -56 139q-50 44 -126 44q-129 0 -166 -103q-7 -20 -12 -45t-7 -56q-1 -16 -1.5 -49t-0.5 -84v-881h-201z" />
    <glyph glyph-name="agrave" unicode="&#xe0;" horiz-adv-x="1014" 
d="M666 1161h-157l-342 309h261zM124 753q16 136 98 206q106 90 298 90q164 0 258 -70q74 -56 89 -175q6 -48 6 -136v-379q0 -85 7 -142.5t23 -91.5h-186q-8 29 -12 59t-5 61q-79 -142 -278 -142q-140 0 -228 63q-104 74 -104 214q0 208 223 292q54 20 143 41t222 44v27
q0 86 -28 120q-42 52 -142 52q-165 0 -190 -133h-194zM678 548q-106 -16 -177.5 -34t-109.5 -40q-95 -53 -95 -141q0 -59 43 -99q46 -42 123 -42q131 0 187 102q29 53 29 179v75z" />
    <glyph glyph-name="aacute" unicode="&#xe1;" horiz-adv-x="1014" 
d="M357 1161l238 309h261l-342 -309h-157zM124 753q16 136 98 206q106 90 298 90q164 0 258 -70q74 -56 89 -175q6 -48 6 -136v-379q0 -85 7 -142.5t23 -91.5h-186q-8 29 -12 59t-5 61q-79 -142 -278 -142q-140 0 -228 63q-104 74 -104 214q0 208 223 292q54 20 143 41
t222 44v27q0 86 -28 120q-42 52 -142 52q-165 0 -190 -133h-194zM678 548q-106 -16 -177.5 -34t-109.5 -40q-95 -53 -95 -141q0 -59 43 -99q46 -42 123 -42q131 0 187 102q29 53 29 179v75z" />
    <glyph glyph-name="acircumflex" unicode="&#xe2;" horiz-adv-x="1014" 
d="M174 1170l240 300h185l241 -300h-186l-147 184l-145 -184h-188zM124 753q16 136 98 206q106 90 298 90q164 0 258 -70q74 -56 89 -175q6 -48 6 -136v-379q0 -85 7 -142.5t23 -91.5h-186q-8 29 -12 59t-5 61q-79 -142 -278 -142q-140 0 -228 63q-104 74 -104 214
q0 208 223 292q54 20 143 41t222 44v27q0 86 -28 120q-42 52 -142 52q-165 0 -190 -133h-194zM678 548q-106 -16 -177.5 -34t-109.5 -40q-95 -53 -95 -141q0 -59 43 -99q46 -42 123 -42q131 0 187 102q29 53 29 179v75z" />
    <glyph glyph-name="atilde" unicode="&#xe3;" horiz-adv-x="1014" 
d="M197 1216q51 215 178 215q25 0 59 -11t79 -31q100 -44 124 -44q58 0 94 100l90 -24q-15 -91 -54 -149q-50 -75 -121 -75q-33 0 -145 44t-124 44q-60 0 -85 -93zM124 753q16 136 98 206q106 90 298 90q164 0 258 -70q74 -56 89 -175q6 -48 6 -136v-379q0 -85 7 -142.5
t23 -91.5h-186q-8 29 -12 59t-5 61q-79 -142 -278 -142q-140 0 -228 63q-104 74 -104 214q0 208 223 292q54 20 143 41t222 44v27q0 86 -28 120q-42 52 -142 52q-165 0 -190 -133h-194zM678 548q-106 -16 -177.5 -34t-109.5 -40q-95 -53 -95 -141q0 -59 43 -99
q46 -42 123 -42q131 0 187 102q29 53 29 179v75z" />
    <glyph glyph-name="adieresis" unicode="&#xe4;" horiz-adv-x="1014" 
d="M124 753q16 136 98 206q106 90 298 90q164 0 258 -70q74 -56 89 -175q6 -48 6 -136v-379q0 -85 7 -142.5t23 -91.5h-186q-8 29 -12 59t-5 61q-79 -142 -278 -142q-140 0 -228 63q-104 74 -104 214q0 208 223 292q54 20 143 41t222 44v27q0 86 -28 120q-42 52 -142 52
q-165 0 -190 -133h-194zM678 548q-106 -16 -177.5 -34t-109.5 -40q-95 -53 -95 -141q0 -59 43 -99q46 -42 123 -42q131 0 187 102q29 53 29 179v75zM328 1446q51 0 87 -36t36 -88t-36 -88q-37 -37 -88 -37t-88 37t-37 87q0 53 37 89t89 36zM682 1446q51 0 87 -36t36 -88
t-36 -88q-37 -37 -88 -37t-88 37t-37 87q0 53 37 89t89 36z" />
    <glyph glyph-name="aring" unicode="&#xe5;" horiz-adv-x="1014" 
d="M510 1531q79 0 137 -58q57 -57 57 -139q0 -81 -57 -138q-58 -58 -139 -58t-139 58t-58 138q0 82 58 139q61 58 141 58zM506 1435q-41 0 -70 -29t-29 -72q0 -41 29 -70q30 -30 72 -30q41 0 71 30q29 29 29 70q0 43 -29 72q-30 29 -73 29zM124 753q16 136 98 206
q106 90 298 90q164 0 258 -70q74 -56 89 -175q6 -48 6 -136v-379q0 -85 7 -142.5t23 -91.5h-186q-8 29 -12 59t-5 61q-79 -142 -278 -142q-140 0 -228 63q-104 74 -104 214q0 208 223 292q54 20 143 41t222 44v27q0 86 -28 120q-42 52 -142 52q-165 0 -190 -133h-194z
M678 548q-106 -16 -177.5 -34t-109.5 -40q-95 -53 -95 -141q0 -59 43 -99q46 -42 123 -42q131 0 187 102q29 53 29 179v75z" />
    <glyph glyph-name="ae" unicode="&#xe6;" horiz-adv-x="1629" 
d="M873 498q2 -128 54 -203q74 -104 216 -104q147 0 208 130l181 -13q-23 -96 -94 -170q-107 -110 -291 -110q-154 0 -265 78q-71 50 -115 129q-43 -93 -106 -138q-95 -69 -236 -69q-132 0 -227 62q-108 72 -108 212q0 139 115 227q149 116 463 120v53q0 102 -32 140
q-39 49 -129 49q-153 0 -191 -155h-194q13 128 90 208q107 110 305 110q157 0 240 -68q19 -16 35 -35.5t30 -42.5q52 61 100 91q88 55 205 55q137 0 240 -76q184 -137 183 -480h-677zM1335 647q-31 247 -216 247q-121 0 -188 -108q-33 -52 -48 -139h452zM668 500h-25
q-51 0 -95 -5t-84 -14q-168 -39 -168 -165q0 -66 51 -100q44 -29 106 -29q106 0 160.5 65.5t54.5 207.5v40z" />
    <glyph glyph-name="ccedilla" unicode="&#xe7;" horiz-adv-x="987" 
d="M489 -46q182 -33 182 -174q0 -89 -66 -143q-59 -47 -138 -47q-75 0 -166 48v89q68 -34 122 -34q46 0 71 22q35 29 35 80q0 70 -56 91q-35 14 -73 14q-17 0 -48 -3l56 146q-119 33 -186 103q-143 146 -143 393q0 269 161 415q109 100 283 100q199 0 304 -142
q58 -79 72 -206h-198q-12 78 -43 121q-45 63 -139 63q-100 0 -158 -78q-76 -100 -76 -273q0 -199 95 -294q51 -52 140 -52q165 0 190 202h197q-6 -94 -44 -170.5t-102 -124.5q-96 -72 -244 -72z" />
    <glyph glyph-name="egrave" unicode="&#xe8;" horiz-adv-x="1026" 
d="M682 1161h-157l-342 309h261zM282 497q4 -127 54 -202q67 -102 203 -102q143 0 206 128l181 -13q-31 -104 -100 -172q-108 -108 -292 -108q-171 0 -288 96q-167 137 -167 404q0 143 41 246.5t116 172.5q116 107 291 107q206 0 321 -157q99 -135 99 -352v-20t-1 -28h-664z
M741 647q-29 246 -219 246q-186 0 -234 -246h453z" />
    <glyph glyph-name="eacute" unicode="&#xe9;" horiz-adv-x="1026" 
d="M384 1161l238 309h261l-342 -309h-157zM282 497q4 -127 54 -202q67 -102 203 -102q143 0 206 128l181 -13q-31 -104 -100 -172q-108 -108 -292 -108q-171 0 -288 96q-167 137 -167 404q0 143 41 246.5t116 172.5q116 107 291 107q206 0 321 -157q99 -135 99 -352v-20
t-1 -28h-664zM741 647q-29 246 -219 246q-186 0 -234 -246h453z" />
    <glyph glyph-name="ecircumflex" unicode="&#xea;" horiz-adv-x="1026" 
d="M200 1170l240 300h185l240 -300h-186l-146 184l-146 -184h-187zM282 497q4 -127 54 -202q67 -102 203 -102q143 0 206 128l181 -13q-31 -104 -100 -172q-108 -108 -292 -108q-171 0 -288 96q-167 137 -167 404q0 143 41 246.5t116 172.5q116 107 291 107q206 0 321 -157
q99 -135 99 -352v-20t-1 -28h-664zM741 647q-29 246 -219 246q-186 0 -234 -246h453z" />
    <glyph glyph-name="edieresis" unicode="&#xeb;" horiz-adv-x="1026" 
d="M282 497q4 -127 54 -202q67 -102 203 -102q143 0 206 128l181 -13q-31 -104 -100 -172q-108 -108 -292 -108q-171 0 -288 96q-167 137 -167 404q0 143 41 246.5t116 172.5q116 107 291 107q206 0 321 -157q99 -135 99 -352v-20t-1 -28h-664zM741 647q-29 246 -219 246
q-186 0 -234 -246h453zM358 1446q51 0 87 -36t36 -88t-36 -88q-37 -37 -88 -37t-88 37t-37 87q0 53 37 89t89 36zM712 1446q51 0 87 -36t36 -88t-36 -88q-37 -37 -88 -37t-88 37t-37 87q0 53 37 89t89 36z" />
    <glyph glyph-name="igrave" unicode="&#xec;" horiz-adv-x="495" 
d="M145 1027h205v-972h-205v972zM364 1161h-150l-274 309h241z" />
    <glyph glyph-name="iacute" unicode="&#xed;" horiz-adv-x="495" 
d="M145 1027h205v-972h-205v972zM131 1161l183 309h241l-274 -309h-150z" />
    <glyph glyph-name="icircumflex" unicode="&#xee;" horiz-adv-x="495" 
d="M145 1027h205v-972h-205v972zM-30 1170l185 300h185l186 -300h-172l-106 184l-104 -184h-174z" />
    <glyph glyph-name="idieresis" unicode="&#xef;" horiz-adv-x="495" 
d="M145 1027h205v-972h-205v972zM95 1442q48 0 84 -35q35 -35 35 -86q0 -50 -35 -85t-85 -35q-51 0 -86 35t-35 85q0 51 35 86q37 35 87 35zM404 1442q48 0 84 -35q35 -35 35 -86q0 -50 -35 -85t-85 -35q-51 0 -86 35t-35 85q0 51 35 86q37 35 87 35z" />
    <glyph glyph-name="eth" unicode="&#xf0;" horiz-adv-x="1066" 
d="M555 1341l152 85l68 -95l-149 -82q75 -85 128 -151t87 -114q33 -48 58.5 -92t42.5 -87q45 -111 45 -253q0 -258 -143 -401q-122 -123 -303 -123q-186 0 -311 119q-73 69 -112 170.5t-39 219.5q0 175 79 305q80 133 229 179q57 18 112 18q33 0 120 -29l-127 164l-140 -76
l-73 92l149 84l-86 102l111 71zM533 886q-93 0 -158 -71q-90 -98 -90 -274q0 -171 86 -272q65 -77 163 -77q97 0 161 76q86 104 86 269q0 179 -88 279q-61 70 -160 70z" />
    <glyph glyph-name="ntilde" unicode="&#xf1;" horiz-adv-x="1080" 
d="M210 1216q53 215 179 215q25 0 58.5 -11t78.5 -31q102 -44 125 -44q57 0 94 100l89 -24q-8 -43 -20.5 -80t-32.5 -69q-47 -75 -122 -75q-33 0 -145 44t-123 44q-61 0 -86 -93zM312 1027q10 -25 14.5 -57.5t5.5 -74.5q103 154 293 154q113 0 196 -57q97 -69 114 -203
q6 -50 6 -174v-560h-201v526q0 149 -24 202q-40 88 -151 88q-125 0 -185 -106q-35 -62 -35 -191v-519h-201v632q0 184 -6 241q-2 18 -7 42.5t-13 56.5h194z" />
    <glyph glyph-name="ograve" unicode="&#xf2;" horiz-adv-x="1066" 
d="M675 1161h-157l-342 309h261zM538 1054q173 0 298 -120q72 -69 111.5 -171t39.5 -223t-39.5 -222.5t-111.5 -170.5q-125 -119 -303 -119t-303 119q-72 69 -111.5 171t-39.5 220q0 121 39.5 224t111.5 172q126 120 308 120zM530 890q-105 0 -170 -89q-75 -101 -75 -261
q0 -159 75 -259q64 -88 173 -88t173 88q75 100 75 258q0 161 -75 262q-66 89 -176 89z" />
    <glyph glyph-name="oacute" unicode="&#xf3;" horiz-adv-x="1066" 
d="M383 1161l238 309h261l-342 -309h-157zM538 1054q173 0 298 -120q72 -69 111.5 -171t39.5 -223t-39.5 -222.5t-111.5 -170.5q-125 -119 -303 -119t-303 119q-72 69 -111.5 171t-39.5 220q0 121 39.5 224t111.5 172q126 120 308 120zM530 890q-105 0 -170 -89
q-75 -101 -75 -261q0 -159 75 -259q64 -88 173 -88t173 88q75 100 75 258q0 161 -75 262q-66 89 -176 89z" />
    <glyph glyph-name="ocircumflex" unicode="&#xf4;" horiz-adv-x="1066" 
d="M200 1170l240 300h185l241 -300h-186l-147 184l-145 -184h-188zM538 1054q173 0 298 -120q72 -69 111.5 -171t39.5 -223t-39.5 -222.5t-111.5 -170.5q-125 -119 -303 -119t-303 119q-72 69 -111.5 171t-39.5 220q0 121 39.5 224t111.5 172q126 120 308 120zM530 890
q-105 0 -170 -89q-75 -101 -75 -261q0 -159 75 -259q64 -88 173 -88t173 88q75 100 75 258q0 161 -75 262q-66 89 -176 89z" />
    <glyph glyph-name="otilde" unicode="&#xf5;" horiz-adv-x="1066" 
d="M232 1216q50 215 178 215q26 0 59.5 -11t78.5 -31q102 -44 124 -44q60 0 94 100l90 -24q-15 -91 -54 -149q-50 -75 -121 -75q-33 0 -145 44t-123 44q-61 0 -86 -93zM538 1054q173 0 298 -120q72 -69 111.5 -171t39.5 -223t-39.5 -222.5t-111.5 -170.5
q-125 -119 -303 -119t-303 119q-72 69 -111.5 171t-39.5 220q0 121 39.5 224t111.5 172q126 120 308 120zM530 890q-105 0 -170 -89q-75 -101 -75 -261q0 -159 75 -259q64 -88 173 -88t173 88q75 100 75 258q0 161 -75 262q-66 89 -176 89z" />
    <glyph glyph-name="odieresis" unicode="&#xf6;" horiz-adv-x="1066" 
d="M538 1054q173 0 298 -120q72 -69 111.5 -171t39.5 -223t-39.5 -222.5t-111.5 -170.5q-125 -119 -303 -119t-303 119q-72 69 -111.5 171t-39.5 220q0 121 39.5 224t111.5 172q126 120 308 120zM530 890q-105 0 -170 -89q-75 -101 -75 -261q0 -159 75 -259q64 -88 173 -88
t173 88q75 100 75 258q0 161 -75 262q-66 89 -176 89zM358 1446q51 0 87 -36t36 -88t-36 -88q-37 -37 -88 -37t-88 37t-37 87q0 53 37 89t89 36zM711 1446q51 0 87 -36t36 -88t-36 -88q-37 -37 -88 -37t-88 37t-37 87q0 53 37 89t89 36z" />
    <glyph glyph-name="divide" unicode="&#xf7;" horiz-adv-x="1133" 
d="M567 551q49 0 85 -36q35 -35 35 -85t-36 -86q-35 -35 -85 -35t-86 36q-35 35 -35 85t35 85q36 36 87 36zM567 1167q49 0 85 -36q35 -35 35 -85t-36 -86q-35 -35 -85 -35t-86 36q-35 35 -35 85t35 85q37 36 87 36zM103 817h927v-154h-927v154z" />
    <glyph glyph-name="oslash" unicode="&#xf8;" horiz-adv-x="1067" 
d="M165 220l-8 15q-41 76 -54 123q-24 84 -24 179q0 134 40.5 232t115.5 168q125 116 298 116q125 0 223 -59q11 -7 28.5 -19t40.5 -30l77 82h143l-144 -162q2 -8 11.5 -26.5t24.5 -47.5q50 -95 50 -251q0 -120 -40.5 -223.5t-115.5 -172.5q-125 -116 -299 -116
q-173 0 -291 109l-72 -82h-148zM695 811q-23 35 -69 56.5t-98 21.5q-99 0 -164 -86q-79 -103 -79 -268q0 -99 25 -162zM367 266q77 -74 166 -74q103 0 169 85q79 103 79 268q0 60 -29 168z" />
    <glyph glyph-name="ugrave" unicode="&#xf9;" horiz-adv-x="1082" 
d="M702 1161h-157l-343 309h262zM139 1027h201v-573q0 -130 34 -176q48 -67 149 -67q121 0 178 99q35 62 35 183v534h201v-674v-100t1 -56q1 -37 6.5 -72t16.5 -70h-193q-17 70 -20 120q-91 -142 -267 -142q-202 0 -293 148q-49 79 -49 266v580z" />
    <glyph glyph-name="uacute" unicode="&#xfa;" horiz-adv-x="1082" 
d="M388 1161l238 309h261l-342 -309h-157zM139 1027h201v-573q0 -130 34 -176q48 -67 149 -67q121 0 178 99q35 62 35 183v534h201v-674v-100t1 -56q1 -37 6.5 -72t16.5 -70h-193q-17 70 -20 120q-91 -142 -267 -142q-202 0 -293 148q-49 79 -49 266v580z" />
    <glyph glyph-name="ucircumflex" unicode="&#xfb;" horiz-adv-x="1082" 
d="M204 1170l239 300h186l240 -300h-186l-147 184l-145 -184h-187zM139 1027h201v-573q0 -130 34 -176q48 -67 149 -67q121 0 178 99q35 62 35 183v534h201v-674v-100t1 -56q1 -37 6.5 -72t16.5 -70h-193q-17 70 -20 120q-91 -142 -267 -142q-202 0 -293 148q-49 79 -49 266
v580z" />
    <glyph glyph-name="udieresis" unicode="&#xfc;" horiz-adv-x="1082" 
d="M139 1027h201v-573q0 -130 34 -176q48 -67 149 -67q121 0 178 99q35 62 35 183v534h201v-674v-100t1 -56q1 -37 6.5 -72t16.5 -70h-193q-17 70 -20 120q-91 -142 -267 -142q-202 0 -293 148q-49 79 -49 266v580zM361 1446q51 0 87 -36t36 -88t-36 -88q-37 -37 -88 -37
t-88 37t-37 87q0 53 37 89t89 36zM715 1446q51 0 87 -36t36 -88t-36 -88q-37 -37 -88 -37t-88 37t-37 87q0 53 37 89t89 36z" />
    <glyph glyph-name="yacute" unicode="&#xfd;" horiz-adv-x="964" 
d="M33 1027h214l238 -773l247 773h210l-325 -925q-29 -81 -48.5 -133t-30.5 -75q-35 -75 -83 -125.5t-109 -80.5q-85 -43 -222 -43q-11 0 -28 0.5t-40 1.5v175h37q116 0 174 37q58 36 106 168zM338 1161l238 309h261l-342 -309h-157z" />
    <glyph glyph-name="thorn" unicode="&#xfe;" horiz-adv-x="1084" 
d="M145 -348v1776h201v-529q93 150 261 150q148 0 249 -99q148 -144 148 -406q0 -273 -156 -421q-95 -90 -234 -90q-114 0 -190 58q-19 14 -38.5 34.5t-39.5 48.5v-522h-201zM573 878q-93 0 -150 -69q-81 -98 -81 -272q0 -167 76 -258q61 -75 161 -75q93 0 142 64
q77 101 77 269q0 174 -78 275q-53 66 -147 66z" />
    <glyph glyph-name="ydieresis" unicode="&#xff;" horiz-adv-x="964" 
d="M33 1027h214l238 -773l247 773h210l-325 -925q-29 -81 -48.5 -133t-30.5 -75q-35 -75 -83 -125.5t-109 -80.5q-85 -43 -222 -43q-11 0 -28 0.5t-40 1.5v175h37q116 0 174 37q58 36 106 168zM306 1446q51 0 87 -36t36 -88t-36 -88q-37 -37 -88 -37t-88 37t-37 87
q0 53 37 89t89 36zM659 1446q51 0 87 -36t36 -88t-36 -88q-37 -37 -88 -37t-88 37t-37 87q0 53 37 89t89 36z" />
    <glyph glyph-name="notequal" unicode="&#x2260;" 
d="M547 1011l112 226l132 -62l-81 -164h246v-180h-328l-81 -167h409v-180h-492l-106 -217l-132 61l75 156h-233v180h316l81 167h-397v180h479z" />
    <glyph glyph-name="infinity" unicode="&#x221e;" horiz-adv-x="1365" 
d="M688 619q-147 -190 -330 -190q-158 0 -249 109q-73 85 -73 215q0 151 100 239q91 82 221 82q184 0 321 -189q139 189 330 189q165 0 256 -118q65 -86 65 -205q0 -153 -101 -243q-92 -80 -217 -80q-186 0 -323 191zM783 752q97 -153 201 -153q64 0 108 48q38 44 38 104
q0 75 -54 119q-42 33 -94 33q-42 0 -81 -20.5t-72 -65.5l-28 -38q-20 -26 -18 -27zM583 751q-98 152 -202 152q-67 0 -108 -47q-38 -41 -38 -104q0 -76 55 -119q40 -33 93 -33q42 0 81 20.5t72 65.5l28 38q5 7 8.5 11.5t5.5 8.5z" />
    <glyph glyph-name="lessequal" unicode="&#x2264;" 
d="M955 1358v-191l-673 -304l673 -303v-191l-887 406v171zM955 309v-188h-887v188h887z" />
    <glyph glyph-name="greaterequal" unicode="&#x2265;" 
d="M68 369v191l673 304l-673 303v191l887 -413v-171zM68 121v188h887v-188h-887z" />
    <glyph glyph-name="partialdiff" unicode="&#x2202;" 
d="M180 1422q94 -11 171 -29.5t140 -44.5q263 -109 391 -363q92 -182 92 -407q0 -209 -89 -343q-65 -98 -165 -150q-98 -50 -209 -50q-148 0 -266 85q-46 33 -82.5 75.5t-61.5 91t-38.5 103t-13.5 111.5q0 45 9.5 90.5t26.5 87.5t42 80t56 68q122 116 291 116q111 0 193 -50
q17 -11 38.5 -30t46.5 -45q-29 67 -57.5 115t-54.5 79q-73 82 -165 131q-54 29 -99.5 47.5t-83.5 29.5q-29 8 -63 14.5t-76 11.5zM512 794q-106 0 -181 -85q-78 -87 -78 -218q0 -138 88 -229q37 -37 78.5 -56t90.5 -19q107 0 182 88q76 88 76 223q0 150 -92 233
q-69 63 -164 63z" />
    <glyph glyph-name="summation" unicode="&#x2211;" horiz-adv-x="1365" 
d="M1245 1591v-489h-181l-21 300h-765l513 -797l-513 -874h785l11 298h190v-486h-1213v209l504 853l-504 778v208h1194z" />
    <glyph glyph-name="product" unicode="&#x220f;" horiz-adv-x="1463" 
d="M78 1591h1306v-188h-166v-1672h166v-188h-534v188h167v1672h-572v-1672h165v-188h-532v188h166v1672h-166v188z" />
    <glyph glyph-name="pi" unicode="&#x3c0;" horiz-adv-x="1268" 
d="M220 55v801h-154v181h1135v-181h-152v-801h-201v801h-427v-801h-201z" />
    <glyph glyph-name="integral" unicode="&#x222b;" 
d="M191 -256q78 -20 102 -20q101 0 114 103q2 16 3 54t1 101v1132q0 72 0.5 116.5t1.5 63.5q4 126 60 197q78 100 236 100q87 0 162 -22l-39 -179q-78 20 -102 20q-98 0 -114 -103q-2 -11 -3 -74.5t-1 -178.5v-1034q0 -112 -4 -181.5t-12 -98.5q-17 -60 -51 -101t-89 -66
q-60 -28 -155 -28q-101 0 -149 19z" />
    <glyph glyph-name="Omega" unicode="&#x2126;" horiz-adv-x="1365" 
d="M58 55v181h328q-69 42 -120.5 86.5t-88.5 92.5q-119 158 -119 387q0 286 195 477q178 174 430 174q251 0 430 -174q194 -191 194 -477q0 -244 -132 -404q-35 -43 -83 -83.5t-111 -78.5h326v-181h-542v162q130 73 201 159q135 163 135 403q0 207 -122 350
q-123 143 -294 143q-159 0 -277 -118q-143 -140 -143 -375q0 -375 337 -562v-162h-544z" />
    <glyph glyph-name="radical" unicode="&#x221a;" horiz-adv-x="1365" 
d="M1365 1755v-188h-385l-395 -1512h-260l-145 586h-180v188h346l58 -226q15 -57 45 -292h16q13 88 25.5 162t26.5 140t35 153.5t50 199.5l204 789h559z" />
    <glyph glyph-name="approxequal" unicode="&#x2248;" 
d="M17 842q37 82 75 138q83 119 219 119q65 0 222 -62q52 -20 83.5 -33.5t43.5 -16.5q17 -4 32 -6t29 -2q68 0 112 45q13 13 27 33t30 46l117 -69q-64 -133 -130 -185q-82 -64 -180 -64q-65 0 -292 94q-64 26 -112 26q-61 0 -108 -53q-13 -14 -26.5 -35.5t-27.5 -49.5z
M17 466q17 40 36 75t39 64q83 119 218 119q37 0 92.5 -16t130.5 -47q49 -20 80.5 -32.5t46.5 -16.5q17 -4 32 -6t29 -2q68 0 112 45q13 13 27 33t30 46l117 -69q-64 -133 -130 -185q-82 -64 -179 -64q-66 0 -293 94q-64 26 -110 26q-63 0 -110 -53q-13 -14 -26.5 -35.5
t-27.5 -49.5z" />
    <glyph glyph-name="Delta" unicode="&#x2206;" horiz-adv-x="1365" 
d="M46 55l525 1365h217l531 -1365h-1273zM334 243h693l-347 932z" />
    <glyph glyph-name="_172" horiz-adv-x="1133" 
 />
    <glyph glyph-name="lozenge" unicode="&#x25ca;" horiz-adv-x="256" 
d="M218 818v103l31 -41v-103zM188 818v103l-29 -41v-103zM68 818v103l31 -41v-103zM38 818v103l-29 -41v-103zM38 818v103l-29 -41v-103zM38 818v103l-29 -41v-103zM38 818v103l-29 -41v-103zM38 818v103l-29 -41v-103zM38 818v103l-29 -41v-103zM38 818v103l-29 -41v-103z
M38 818v103l-29 -41v-103zM38 818v103l-29 -41v-103zM38 818v103l-29 -41v-103zM38 818v103l-29 -41v-103zM38 818v103l-29 -41v-103zM38 818v103l-29 -41v-103zM38 818v103l-29 -41v-103zM38 818v103l-29 -41v-103zM38 818v103l-29 -41v-103zM38 818v103l-29 -41v-103z
M38 818v103l-29 -41v-103zM38 818v103l-29 -41v-103zM38 818v103l-29 -41v-103zM38 818v103l-29 -41v-103zM38 818v103l-29 -41v-103zM38 818v103l-29 -41v-103z" />
    <glyph glyph-name="fraction" unicode="&#x2215;" horiz-adv-x="227" 
d="M417 1386h166l-774 -1331h-165z" />
    <glyph glyph-name="fi" unicode="&#xf001;" horiz-adv-x="1116" 
d="M369 1027h235v-159h-233v-813h-205v813h-133v159h133v61q0 181 47 255q72 113 234 113q89 0 191 -39v-170q-78 34 -155 34q-81 0 -103 -72q-6 -18 -8.5 -52.5t-2.5 -85.5v-44zM766 1027h205v-972h-205v972zM872 1443q51 0 85 -31q38 -35 38 -97q0 -56 -34 -90
q-35 -35 -93 -35t-92 34t-34 89q0 62 39 97q36 33 91 33z" />
    <glyph glyph-name="fl" unicode="&#xf002;" horiz-adv-x="1116" 
d="M369 1027h235v-159h-233v-813h-205v813h-133v159h133v61q0 181 47 255q72 113 234 113q89 0 191 -39v-170q-78 34 -155 34q-81 0 -103 -72q-6 -18 -8.5 -52.5t-2.5 -85.5v-44zM766 1428h205v-1373h-205v1373z" />
    <glyph glyph-name="periodcentered" unicode="&#x2219;" horiz-adv-x="518" 
d="M260 707q56 0 97 -41q40 -40 40 -98q0 -57 -41 -98q-40 -40 -97 -40q-58 0 -99 41q-40 40 -40 97q0 58 40 98q42 41 100 41z" />
    <glyph glyph-name="apple" horiz-adv-x="1365" 
d="M984 1451q0 -163 -127 -266q-80 -65 -146 -68q-7 -1 -14.5 -1h-16.5q0 145 82 239q89 104 222 116v-20zM1277 990q-64 -49 -98 -92q-67 -85 -67 -192q0 -150 111 -250q34 -31 92 -56q-65 -161 -139 -256q-110 -143 -208 -143q-39 0 -82 18l-83 34q-8 3 -26.5 5t-48.5 2
q-73 0 -98 -10l-87 -35q-41 -17 -79 -17q-54 0 -113 43t-113 124q-172 256 -172 526q0 176 100 306q103 135 281 135q34 0 73 -9.5t87 -26.5q76 -26 101 -26q31 0 85 21q37 14 62 22t39 13q17 6 38.5 8t48.5 2q189 0 296 -146z" />
    <glyph glyph-name="dotlessi" unicode="&#x131;" horiz-adv-x="495" 
d="M145 1027h205v-972h-205v972z" />
    <glyph glyph-name="breve" unicode="&#x2d8;" 
d="M342 1451q55 -150 174 -150q110 0 167 150h95q-11 -96 -51 -165q-74 -122 -209 -122q-140 0 -218 124q-42 66 -53 163h95z" />
    <glyph glyph-name="dotaccent" unicode="&#x2d9;" 
d="M514 1446q51 0 87 -36t36 -88t-36 -88q-37 -37 -88 -37t-88 37t-37 87q0 53 37 89t89 36z" />
    <glyph glyph-name="ring" unicode="&#x2da;" 
d="M515 1531q78 0 136 -58q58 -57 58 -139q0 -81 -58 -139q-57 -57 -139 -57q-81 0 -138 57q-58 58 -58 139q0 82 58 139q61 58 141 58zM511 1435q-40 0 -69 -29q-30 -30 -30 -71q0 -42 30 -72q29 -29 71 -29t71 29t29 71q0 43 -29 72q-30 29 -73 29z" />
    <glyph glyph-name="hungarumlaut" unicode="&#x2dd;" 
d="M294 1161l200 309h228l-284 -309h-144zM595 1161l200 309h228l-284 -309h-144z" />
    <glyph glyph-name="ogonek" unicode="&#x2db;" 
d="M813 55q-199 -106 -199 -198q0 -41 31 -65q27 -21 70 -21q47 0 92 18v-99q-60 -27 -129 -27q-108 0 -166 63q-46 49 -46 121q0 131 176 208h171z" />
    <glyph glyph-name="caron" unicode="&#x2c7;" 
d="M844 1470l-240 -300h-185l-240 300h186l147 -184l145 184h187z" />
    <glyph glyph-name="Lslash" unicode="&#x141;" horiz-adv-x="1016" 
d="M170 770v650h217v-530l321 238v-189l-321 -238v-464h588v-182h-805v526l-137 -107v189z" />
    <glyph glyph-name="lslash" unicode="&#x142;" horiz-adv-x="495" 
d="M145 827v601h205v-499l147 103v-159l-147 -103v-715h-205v612l-146 -105v159z" />
    <glyph glyph-name="Zcaron" unicode="&#x17d;" horiz-adv-x="1018" 
d="M107 1420h860v-148l-664 -1035h647v-182h-896v165l657 1021h-604v179zM900 1834l-274 -279h-185l-275 279h194l173 -169l172 169h195z" />
    <glyph glyph-name="zcaron" unicode="&#x17e;" horiz-adv-x="843" 
d="M93 1027h700v-150l-510 -656h509v-166h-746v155l503 651h-456v166zM768 1470l-240 -300h-185l-240 300h186l147 -184l145 184h187z" />
    <glyph glyph-name="minus" unicode="&#x2212;" horiz-adv-x="1133" 
d="M103 817h927v-154h-927v154z" />
    <glyph glyph-name="_247" horiz-adv-x="512" 
 />
    <glyph glyph-name="_248" horiz-adv-x="512" 
 />
    <glyph glyph-name="_249" horiz-adv-x="512" 
 />
    <glyph glyph-name="_250" horiz-adv-x="512" 
 />
    <glyph glyph-name="_251" horiz-adv-x="512" 
 />
    <glyph glyph-name="_252" horiz-adv-x="512" 
 />
    <glyph glyph-name="_253" horiz-adv-x="512" 
 />
    <glyph glyph-name="_254" horiz-adv-x="512" 
 />
    <glyph glyph-name="_255" horiz-adv-x="512" 
 />
    <glyph glyph-name="_256" horiz-adv-x="512" 
 />
    <glyph glyph-name="_257" horiz-adv-x="512" 
 />
    <glyph glyph-name="_261" horiz-adv-x="512" 
 />
    </font>
</defs>
</svg>
